<?xml version="1.0" encoding="UTF-8"?>
<svg xmlns="http://www.w3.org/2000/svg" version="1.1" viewBox="0 0 538.58 538.58">
  <!-- Generator: Adobe Illustrator 29.0.0, SVG Export Plug-In . SVG Version: 1.2.0 Build 15)  -->
  <g>
    <g id="Layer_1">
      <g id="Layer_1-2" data-name="Layer_1">
        <g id="Layer_1-2">
          <g id="Layer_1-2-2" data-name="Layer_1-2">
            <g>
              <path d="M260.73,167.2c0,3.58-3.6,8.74-10.78,15.5-7.19,6.75-15.97,13.23-26.33,19.41-1.35,4.25-3.31,11.97-5.93,23.16-4.18,17.53-8.02,29.97-11.51,37.31-3.51,7.35-9.27,14.83-17.32,22.43-23.25,22-49.29,33.01-78.14,33.01-8.27,0-15.58-1.38-21.91-4.14-3.51,6.87-5.26,12.84-5.26,17.92,0,6.43,2.14,12.33,6.43,17.7.45.45.67.96.67,1.57s-.37.89-1.11.89c-1.72,0-3.58-2.31-5.57-6.95-1.99-4.64-2.98-8.96-2.98-13,0-5.82,1.9-12.25,5.71-19.27-15.59-8.05-23.37-21.89-23.37-41.51,0-12.61,3.72-25.14,11.18-37.59,7.45-12.45,17.93-23.68,31.41-33.68,17.22-12.68,34.24-19.02,51.08-19.02,9.17,0,16.45,2.58,21.86,7.72,5.4,5.14,8.11,12.12,8.11,20.92,0,4.7-.67,9.58-2.02,14.65,10.95-7.31,20.64-13.5,29.06-18.57,5.36-11.72,12.11-21.78,20.24-30.21,8.12-8.43,15.2-12.65,21.24-12.65,3.5,0,5.26,1.45,5.26,4.36h0ZM184.95,209.15c0-7.83-2.47-14.13-7.44-18.91s-11.5-7.16-19.62-7.16c-20.04,0-39.44,10.44-58.19,31.33-18.74,20.88-28.12,42.51-28.12,64.89,0,14.7,5.4,25.14,16.21,31.33,5.07-8.35,12.33-17.49,21.8-27.42-4.91-4.25-7.38-9.32-7.38-15.22,0-4.47,1.41-8.29,4.25-11.46,2.83-3.18,6.25-4.76,10.29-4.76,5,0,7.49,2.31,7.49,6.94,0,2.38-.93,4.46-2.8,6.21-1.86,1.75-4.06,2.63-6.6,2.63-3.66,0-5.48-1.75-5.48-5.26,0-1.12.37-2.31,1.11-3.58.29-.96.45-1.53.45-1.67,0-.45-.22-.67-.67-.67-1.27,0-2.57,1.34-3.91,4.03-1.35,2.69-2.02,5.34-2.02,7.94,0,4.92,2.27,9.32,6.82,13.2,14.98-15.81,38.64-34.27,70.99-55.39,1.86-6.56,2.8-12.23,2.8-17.01h0v-.02h0ZM212.66,208.7c-8.72,5.52-18.25,11.79-28.62,18.8-4.91,15.81-13.54,29.68-25.88,41.62-12.34,11.94-24.17,17.9-35.5,17.9-3.43,0-7.18-.89-11.29-2.69-8.43,8.73-15.58,17.9-21.46,27.52,6.11,2.76,13.04,4.14,20.79,4.14,14.01,0,27.57-3.98,40.69-11.91,13.11-7.94,24.37-18.97,33.77-33.06,4.4-6.56,7.86-12.66,10.4-18.3,2.53-5.63,6.64-16.24,12.3-31.83,1.35-3.88,2.95-7.94,4.8-12.19h0ZM181.03,229.29l-7.38,5.04c-28.09,19.4-48.36,35.55-60.81,48.45,3.13,1.64,6.49,2.46,10.06,2.46,10.43,0,21.35-5.49,32.75-16.44,11.41-10.96,19.86-24.12,25.37-39.49h0ZM258.61,167.43c0-1.8-1.05-2.69-3.13-2.69-5,0-10.56,3.45-16.71,10.35s-10.9,14.97-14.25,24.21c9.84-6.04,17.98-12.08,24.43-18.12s9.67-10.63,9.67-13.76h0,0Z"/>
              <path d="M271.29,278.35c0,.97-5.26,7.24-15.78,18.83-11.49,12.55-21.26,18.83-29.32,18.83-5.23,0-9.7-2-13.43-5.99s-5.59-8.74-5.59-14.26c0-6.26,2.53-12.75,7.6-19.47,5.07-6.72,11.89-12.49,20.46-17.34,7.23-4.18,13.11-6.27,17.66-6.27,5.51,0,8.27,3.28,8.27,9.85,0,5.14-1.73,10.29-5.2,15.44s-6.91,7.72-10.34,7.72-5.04-1.67-5.04-5.04c0-3.96,3.43-7.61,10.29-10.96,5.29-2.61,7.94-6.04,7.94-10.29,0-3.36-1.82-5.04-5.48-5.04-6.19,0-13.79,6.16-22.8,18.46-9.02,12.3-13.53,22.64-13.53,30.99,0,7.01,3.28,10.52,9.85,10.52,10.29,0,24.25-11.62,41.85-34.85.96-1.2,1.67-1.8,2.13-1.8.29.07.45.29.45.67h.02v.02h0Z"/>
              <path d="M335.02,278.35c0,.6-2.24,3.33-6.72,8.2-5.67,6.29-11.01,9.42-16.01,9.42-5.67,0-8.51-3.28-8.51-9.85,0-2.09.45-4.74,1.34-7.94-4.69,4.11-8.52,8.17-11.45,12.19-2.95,4.03-8.03,12.23-15.26,24.61-3.95-.29-6.25-.45-6.93-.45-.29,0-2.57.15-6.82.45l18.33-29.76c9.17-14.92,13.75-24.17,13.75-27.74,0-2.09-.86-3.13-2.57-3.13-4.19,0-11.76,8.03-22.74,24.11-.67,1.05-1.27,1.57-1.79,1.57-.29-.07-.45-.29-.45-.67.07-.38.22-.67.45-.9l2.02-2.8c11.5-15.32,19.29-22.99,23.41-22.99,5.97,0,8.96,3.84,8.96,11.52,0,5.74-3.05,13.35-9.17,22.82,3.87-4.47,7.56-8.13,11.07-10.96,2.83-6.64,6.35-12.19,10.56-16.67,4.21-4.47,7.99-6.72,11.35-6.72,2.31,0,3.47,1,3.47,3.02,0,3.58-5.18,8.69-15.54,15.33-1.64,1.05-4.1,2.58-7.38,4.59l-1.34,1.12c-1.05,3.43-1.57,6.26-1.57,8.5,0,6.26,2.35,9.4,7.05,9.4,5.82,0,12.16-4.82,19.04-14.48,1.49-1.64,2.42-2.47,2.8-2.47.45,0,.67.22.67.67h0l-.02.02h0Z"/>
              <path d="M373.14,278.35c-.07.22-.45.82-1.11,1.8l-4.81,6.6c-14.03,19.5-24.74,29.25-32.12,29.25-3.51,0-6.43-1.25-8.79-3.75s-3.53-5.61-3.53-9.34c0-4.33,2.57-10.88,7.72-19.69l17.44-29.64c2.31.52,4.13.78,5.48.78,2.02,0,4.84-.25,8.49-.78l-25.37,41.73c-3.66,6.04-5.48,10.7-5.48,13.99s1.75,5.04,5.27,5.04c6.65,0,18.32-11.84,35.03-35.52.37-.74.74-1.12,1.12-1.12.45,0,.67.22.67.67h0ZM371.51,232.09c0,2.61-1.09,5.05-3.3,7.32-2.2,2.28-4.6,3.41-7.22,3.41-3.35,0-5.04-1.67-5.04-5.04,0-2.47,1.16-4.83,3.47-7.1s4.73-3.41,7.27-3.41c3.2,0,4.8,1.6,4.8,4.81h.02Z"/>
              <path d="M426.51,270.57c0,12.16-7.57,23.24-22.7,33.23-12.3,8.13-21.91,12.19-28.84,12.19-4.77,0-7.15-2.24-7.15-6.72,0-1.34.37-3.18,1.11-5.49l-42.82,71.49c-2.6-.6-4.73-.89-6.37-.89-2.46,0-4.87.45-7.27,1.35l91.77-151.04c2.02.67,3.98,1,5.93,1s4.47-.33,7.38-1l-33.2,53.7c7.98-10.59,13.76-17.53,17.38-20.81s7.22-4.92,10.78-4.92c3.95,0,7.27,1.71,9.94,5.14,2.68,3.43,4.02,7.68,4.02,12.75h.02v.02h0ZM418.24,261.62c0-4.85-2.16-7.27-6.49-7.27-5.44,0-14.57,8.76-27.39,26.29-9.91,13.58-14.87,22.9-14.87,27.97,0,3.8,1.75,5.71,5.26,5.71,6.86,0,15.82-6.69,26.88-20.08,11.06-13.39,16.6-24.26,16.6-32.61h0Z"/>
              <path d="M475.25,252.68l-.89,1.67h-14.64l-24.93,42.63c-3.05,5.14-4.58,9.25-4.58,12.3,0,3.36,1.75,5.04,5.27,5.04,6.79,0,18.25-11.84,34.36-35.52.52-.74.96-1.12,1.35-1.12.45,0,.67.22.67.67-.07.22-.45.82-1.11,1.8l-4.81,6.6c-14.03,19.5-24.58,29.25-31.68,29.25-3.51,0-6.43-1.27-8.79-3.8s-3.53-5.71-3.53-9.51c0-4.47,1.98-10.07,5.93-16.79l18.78-31.55h-11.41l1.11-1.67h11.18l13.08-21.71c2.24.6,4.36.89,6.37.89s4.25-.29,6.49-.89l-12.86,21.71h14.65Z"/>
            </g>
          </g>
        </g>
      </g>
    </g>
  </g>
</svg>