<?xml version="1.0" encoding="UTF-8"?>
<svg xmlns="http://www.w3.org/2000/svg" version="1.1" viewBox="0 0 512 512">
  <!-- Generator: Adobe Illustrator 28.7.1, SVG Export Plug-In . SVG Version: 1.2.0 Build 142)  -->
  <g>
    <g id="Layer_1">
      <path d="M426.07,384.58c-.33,7.48-2.53,13.11-6.59,16.84-4.07,3.74-8.53,5.61-13.42,5.61-4.56,0-8.87-1.71-12.94-5.12-4.07-3.41-6.42-8.7-7.08-15.86-1.64-15.61-3.66-32.12-6.1-49.54-2.44-17.4-5.2-34.97-8.3-52.7-3.09-17.73-6.52-35.21-10.25-52.46-3.75-17.24-7.73-33.35-11.96-48.32-6.18,14.97-12.37,30.67-18.55,47.09-6.18,16.44-12.44,33.03-18.79,49.78-6.34,16.76-12.61,33.43-18.79,50.03-6.18,16.59-12.53,32.37-19.03,47.34-5.2,6.18-10.91,9.27-17.08,9.27-4.88,0-10.25-2.6-16.1-7.81l-96.63-188.86c-1.64,15.61-3.26,32.05-4.88,49.29-1.64,17.25-3.18,34.65-4.63,52.22-1.47,17.57-3.01,34.97-4.63,52.22-1.64,17.25-3.26,33.67-4.88,49.29-2.28,5.54-5.2,9.6-8.79,12.2s-7.32,3.9-11.22,3.9c-4.56,0-8.79-1.79-12.69-5.37s-6.18-8.79-6.83-15.61c1.96-20.82,3.97-42.37,6.1-64.66,2.11-22.29,4.23-44.73,6.34-67.35,2.11-22.61,4.23-45.14,6.34-67.59,2.11-22.45,4.15-44.08,6.1-64.91,1.3-5.86,3.82-10.41,7.57-13.67,3.74-3.25,7.88-4.88,12.45-4.88,7.15,0,13.18,3.58,18.06,10.73,8.79,15.95,17.57,32.62,26.36,50.03,8.79,17.4,17.57,34.97,26.36,52.71,8.79,17.74,17.64,35.31,26.59,52.7,8.94,17.4,17.81,34.08,26.59,50.03,6.51-15.94,13.09-32.61,19.77-50.03,6.66-17.4,13.33-34.97,20.01-52.7,6.66-17.73,13.33-35.38,20.01-52.95,6.66-17.57,13.42-34.32,20.26-50.27,2.6-4.23,5.53-7.32,8.79-9.27,3.25-1.95,6.66-2.92,10.25-2.92,3.9,0,7.72,1.47,11.47,4.39,3.74,2.92,6.42,7.16,8.06,12.69,5.86,20.5,11.47,41.81,16.83,63.93,5.37,22.13,10.41,44.49,15.14,67.1,4.71,22.62,8.86,45.23,12.44,67.84,3.58,22.62,6.35,44.49,8.3,65.64h-.01Z"/>
    </g>
  </g>
</svg>