<?xml version="1.0" encoding="UTF-8"?>
<svg xmlns="http://www.w3.org/2000/svg" version="1.1" viewBox="0 0 538.58 538.58">
  <!-- Generator: Adobe Illustrator 28.7.1, SVG Export Plug-In . SVG Version: 1.2.0 Build 142)  -->
  <rect width="512" height="512" fill="white" />
  <g>
    <g id="Layer_1">
      <g id="Layer_1-2" data-name="Layer_1">
        <g id="Layer_1-2">
          <g id="Layer_1-2-2" data-name="Layer_1-2">
            <g id="Layer_1-2-2">
              <g>
                <path d="M58.67,230.27c-1.17,4.38-1.8,10.2-1.89,17.44h-4.34v-5.05c0-3.29-.44-5.52-1.32-6.7s-3.17-2.43-6.88-3.76c-3.7-1.33-7.62-1.99-11.72-1.99-6.7,0-11.98,1.7-15.81,5.11-3.84,3.41-5.75,7.78-5.75,13.12,0,3.36.79,6.26,2.36,8.67,1.57,2.42,3.68,4.16,6.34,5.24,2.66,1.07,8.3,2.02,16.93,2.84,8.63.84,14.46,1.96,17.5,3.35s5.47,3.62,7.29,6.7c1.83,3.07,2.73,6.72,2.73,10.94,0,8.47-3.52,15.76-10.56,21.88s-16.42,9.17-28.15,9.17c-4.02,0-8.08-.41-12.16-1.23s-8.2-2.03-12.35-3.63c.75-5.05,1.11-11.54,1.07-19.46h4.27v3.16c0,4.08.21,6.61.63,7.58s1.4,2,2.95,3.09c2.31,1.65,5.05,2.9,8.23,3.76,3.18.87,6.62,1.3,10.31,1.3,7.92,0,14.04-1.88,18.35-5.62,4.31-3.75,6.48-8.51,6.48-14.28,0-3.37-.73-6.22-2.2-8.57-1.47-2.34-3.52-4.07-6.16-5.21s-7.52-2-14.64-2.59c-9.47-.76-15.9-1.9-19.3-3.41s-6.06-3.91-7.99-7.17-2.89-7.32-2.89-12.16c0-8.22,2.95-14.93,8.86-20.16,5.91-5.22,14.08-7.84,24.51-7.84,4.19,0,8.39.45,12.6,1.36s8.43,2.29,12.66,4.14h.03v-.02Z" />
                <path d="M80.88,285.38c.21,8.3,2.32,14.6,6.33,18.89,4.02,4.3,9.29,6.45,15.81,6.45,2.93,0,5.83-.48,8.72-1.45s5.75-2.42,8.6-4.36l1.07.95-2.01,5.31c-3.48,2.02-7.06,3.54-10.75,4.55-3.68,1.01-7.48,1.52-11.37,1.52-8.51,0-15.36-2.71-20.58-8.12-5.21-5.41-7.82-12.75-7.82-22.02,0-7.08,1.47-13.21,4.4-18.39,1.93-3.41,5.49-6.57,10.69-9.48s10.24-4.36,15.15-4.36c7.42,0,13.29,2.19,17.63,6.57s6.51,10.51,6.51,18.39l-.13,3.73c-2.76.68-5.4,1.12-7.91,1.33-4.48.34-10.69.51-18.64.51h-15.69s0-.02,0-.02ZM81.01,280.64c6.5.3,13.66.44,21.49.44,3.14,0,6.18-.15,9.12-.44v-3.54c0-3.7-.73-7.22-2.2-10.55-.92-2.06-2.53-3.78-4.84-5.15s-4.97-2.05-7.99-2.05c-4.69,0-8.44,1.73-11.25,5.18-2.81,3.45-4.25,8.83-4.34,16.12h0Z" />
                <path d="M148.4,269.2c1.68-1.6,3.51-3.7,5.48-6.31,2.36-3.07,4.54-5.18,6.55-6.31,2.02-1.14,4.14-1.71,6.36-1.71s4.07.28,5.29.82c.59.25.88.66.88,1.2l-.06.63c-.67,3.41-1.04,8.2-1.13,14.35h-2.83c-.96-2.15-2.1-3.66-3.42-4.55s-2.89-1.33-4.73-1.33c-2.46,0-4.75.84-6.86,2.52s-3.52,4.04-4.23,7.07c-.71,3.03-1.07,8.98-1.07,17.86,0,5.85.23,10.77.69,14.77.17,1.47.59,2.4,1.26,2.78,1.59.88,3.94,1.32,7.04,1.32h3.77v3.66c-6.42-.3-12.49-.44-18.23-.44s-11.08.15-16.53.44v-3.66l6.03-.51c2.14-.17,3.49-.57,4.05-1.2s.93-2.68,1.1-6.13c.29-6.06.44-13.27.44-21.61,0-10.16-.4-16.12-1.19-17.88-.55-1.14-2.26-1.71-5.15-1.71h-5.28v-3.66c4.06-.46,7.69-1.06,10.87-1.8s6.01-1.68,8.48-2.82c.59-.29,1.07-.44,1.45-.44.46,0,.78.13.94.38s.25.83.25,1.71l-.25,12.56h-.01s.04,0,.04,0Z" />
                <path d="M198.93,254.61l1.51.95c-.3,3.16-.48,6.63-.57,10.43-.3,12.3-.44,21.38-.44,27.24,0,5.48.19,10.16.57,14.03.17,1.52.57,2.57,1.19,3.16.63.59,2.14,1.03,4.53,1.33l4.27.57v3.66c-6.12-.3-11.69-.44-16.72-.44s-9.93.15-14.96.44v-3.66l5.41-.57c2.09-.17,3.39-.56,3.87-1.18.48-.61.79-2.65.91-6.12.21-5.36.32-12.75.32-22.17,0-6.55-.11-11.59-.32-15.14-.09-1.31-.45-2.24-1.1-2.79s-2.1-.83-4.37-.83h-4.71v-3.66c5.11-.75,8.87-1.43,11.28-2.06s5.52-1.69,9.33-3.18h0ZM193.9,226.61c1.93,0,3.58.71,4.97,2.11,1.38,1.41,2.07,3.1,2.07,5.08s-.69,3.66-2.07,5.05-3.04,2.08-4.97,2.08-3.64-.7-5.03-2.08-2.07-3.07-2.07-5.05.69-3.67,2.07-5.08,3.06-2.11,5.03-2.11h0Z" />
                <path d="M236.34,265.85v24.59c0,11.8.35,18.39,1.03,19.78s2.8,2.08,6.31,2.08h5.53v3.66c-6.88-.3-11.82-.44-14.79-.44l-19.9.44v-3.66h4.21c3.27,0,5.19-.65,5.78-1.96.8-1.77,1.19-8.41,1.19-19.9v-24.59l-9.05.57v-2.63c2.97-1.46,5.99-3.01,9.05-4.63v-8.04c0-4.09.56-7.43,1.67-10,1.11-2.57,3.35-5.61,6.71-9.12,4.45-4.68,7.91-7.75,10.39-9.18,1.64-.97,3.69-1.45,6.17-1.45,1.64,0,3.47.28,5.48.82-.13,2.15-.19,3.88-.19,5.18s.06,3.09.19,5.37l-1.57.7c-2.47-2.19-5.3-3.29-8.48-3.29-3.52,0-6.03,1.21-7.51,3.61-1.49,2.41-2.23,8.27-2.23,17.61v8.42c6.78-.04,12.34-.25,16.66-.63l.44.63-1,6.06-7.73-.19c-1.89,0-4.67.06-8.36.19h0s0,0,0,0Z" />
              </g>
            </g>
          </g>
        </g>
      </g>
    </g>
  </g>
</svg>