<?xml version="1.0" encoding="UTF-8"?>
<svg xmlns="http://www.w3.org/2000/svg" version="1.1" viewBox="0 0 558.43 402.52">
  <!-- Generator: Adobe Illustrator 29.0.0, SVG Export Plug-In . SVG Version: 1.2.0 Build 15)  -->
  <g>
    <g id="Layer_1">
      <g id="Layer_1-2" data-name="Layer_1">
        <g>
          <path d="M46.16,32.27c-.36-6.77-.79-14.91-.72-20.95h-.22c-1.66,5.69-3.67,11.74-6.12,18.43l-8.57,23.55h-4.75l-7.85-23.11c-2.3-6.84-4.25-13.11-5.62-18.87h-.14c-.14,6.05-.5,14.19-.94,21.46l-1.3,20.81H3.95L7.33,5.06h7.99l8.28,23.47c2.02,5.98,3.67,11.3,4.9,16.35h.22c1.22-4.9,2.95-10.22,5.11-16.35l8.64-23.47h7.99l3.02,48.53h-6.12l-1.22-21.31h.02Z"/>
          <path d="M63.21,18.73l7.63,20.59c.79,2.3,1.66,5.04,2.23,7.13h.14c.65-2.09,1.37-4.75,2.23-7.27l6.91-20.45h6.7l-9.5,24.84c-4.54,11.95-7.63,18.07-11.95,21.82-3.1,2.74-6.19,3.82-7.78,4.1l-1.58-5.33c1.58-.5,3.67-1.51,5.54-3.1,1.73-1.37,3.89-3.82,5.33-7.06.29-.65.5-1.15.5-1.51s-.14-.86-.43-1.66l-12.89-32.11h6.92Z"/>
          <path d="M93.61,29.6c0-4.1-.07-7.63-.29-10.87h5.54l.22,6.84h.29c1.58-4.68,5.4-7.63,9.65-7.63.72,0,1.22.07,1.8.22v5.98c-.65-.14-1.3-.22-2.16-.22-4.46,0-7.63,3.38-8.5,8.14-.14.86-.29,1.87-.29,2.95v18.58h-6.26v-23.98h0Z"/>
          <path d="M122.49,8.94c.07,2.16-1.51,3.89-4.03,3.89-2.23,0-3.82-1.73-3.82-3.89s1.66-3.96,3.96-3.96,3.89,1.73,3.89,3.96ZM115.43,53.58V18.73h6.34v34.85s-6.34,0-6.34,0Z"/>
          <path d="M149.46,53.58l-.5-4.39h-.22c-1.94,2.74-5.69,5.18-10.66,5.18-7.06,0-10.66-4.97-10.66-10.01,0-8.42,7.49-13.03,20.95-12.96v-.72c0-2.88-.79-8.06-7.92-8.06-3.24,0-6.62,1.01-9.07,2.59l-1.44-4.18c2.88-1.87,7.06-3.1,11.45-3.1,10.66,0,13.25,7.27,13.25,14.26v13.03c0,3.02.14,5.98.58,8.35h-5.76,0ZM148.53,35.8c-6.91-.14-14.76,1.08-14.76,7.85,0,4.1,2.74,6.05,5.98,6.05,4.54,0,7.42-2.88,8.42-5.83.22-.65.36-1.37.36-2.02v-6.05Z"/>
          <path d="M193.34,2.46v42.12c0,3.1.07,6.62.29,9h-5.69l-.29-6.05h-.14c-1.94,3.89-6.19,6.84-11.88,6.84-8.42,0-14.9-7.13-14.9-17.71-.07-11.59,7.13-18.72,15.63-18.72,5.33,0,8.93,2.52,10.51,5.33h.14V2.46h6.34,0ZM187,32.92c0-.79-.07-1.87-.29-2.66-.94-4.03-4.39-7.34-9.15-7.34-6.55,0-10.44,5.76-10.44,13.47,0,7.06,3.46,12.89,10.3,12.89,4.25,0,8.14-2.81,9.29-7.56.22-.86.29-1.73.29-2.74v-6.05h0Z"/>
          <path d="M219.33,5.63c3.02-.5,6.98-.94,12.02-.94,6.19,0,10.73,1.44,13.61,4.03,2.66,2.3,4.25,5.83,4.25,10.15s-1.3,7.85-3.75,10.37c-3.31,3.53-8.71,5.33-14.83,5.33-1.87,0-3.6-.07-5.04-.43v19.44h-6.26V5.63h0ZM225.59,29.03c1.37.36,3.1.5,5.18.5,7.56,0,12.17-3.67,12.17-10.37s-4.54-9.5-11.45-9.5c-2.74,0-4.82.22-5.9.5,0,0,0,18.87,0,18.87Z"/>
          <path d="M254.8,29.6c0-4.1-.07-7.63-.29-10.87h5.54l.22,6.84h.29c1.58-4.68,5.4-7.63,9.65-7.63.72,0,1.22.07,1.8.22v5.98c-.65-.14-1.3-.22-2.16-.22-4.46,0-7.63,3.38-8.5,8.14-.14.86-.29,1.87-.29,2.95v18.58h-6.26v-23.98h0Z"/>
          <path d="M307.76,35.87c0,12.89-8.93,18.51-17.35,18.51-9.43,0-16.71-6.91-16.71-17.93,0-11.67,7.63-18.51,17.28-18.51s16.78,7.27,16.78,17.93ZM280.11,36.23c0,7.63,4.39,13.39,10.58,13.39s10.58-5.69,10.58-13.54c0-5.9-2.95-13.39-10.44-13.39s-10.73,6.91-10.73,13.54h.01Z"/>
          <path d="M11.81,139.98h-6.01v-47.99h29.39v5.27H11.81v15.15h19.37v4.85H11.81v22.71h0Z"/>
          <path d="M43.47,139.98h-5.52v-35.51h4.85v8.3c1.71-3.91,3.43-6.45,5.15-7.61s3.49-1.74,5.29-1.74c.56,0,1.29.05,2.18.14v5.27h-1.12c-3.05,0-5.58,1.14-7.59,3.41-2.02,2.27-3.09,5.26-3.23,8.96v18.77h-.01Z"/>
          <path d="M88.33,139.98h-5.45c-.21-1.12-.42-3.26-.63-6.4-2.44,4.92-6.59,7.38-12.45,7.38-3.98,0-7.04-1.06-9.18-3.17-2.13-2.11-3.2-4.65-3.2-7.61,0-3.59,1.52-6.54,4.57-8.85,3.05-2.31,8.23-3.47,15.54-3.47.98,0,2.55.05,4.71.14,0-2.81-.22-4.85-.65-6.1s-1.35-2.26-2.76-3.01-3.26-1.12-5.55-1.12c-5.6,0-8.86,2.13-9.77,6.4l-5.1-.88c1.24-6.54,6.47-9.81,15.68-9.81,4.9,0,8.37,1.08,10.42,3.25,2.05,2.17,3.08,5.92,3.08,11.27v15.08c0,2.51.25,4.8.74,6.89h0ZM82.25,122.23c-2.25-.14-3.96-.21-5.13-.21-4.36,0-7.75.72-10.16,2.15s-3.62,3.52-3.62,6.27c0,1.74.65,3.22,1.95,4.44s3.18,1.83,5.64,1.83c3.33,0,6.06-1.21,8.21-3.63,2.14-2.42,3.22-5.26,3.22-8.53,0-.66-.04-1.43-.11-2.33h0Z"/>
          <path d="M124.06,139.98h-5.17v-22.82c0-3.28-.72-5.59-2.14-6.93-1.43-1.34-3.16-2-5.2-2-2.81,0-5.17,1.12-7.08,3.38-1.91,2.25-2.87,5.22-2.87,8.89v19.48h-5.52v-35.51h5.13v6.54c2.88-5.02,6.62-7.52,11.21-7.52,2.65,0,4.9.69,6.77,2.06s3.14,2.91,3.83,4.62,1.04,4.8,1.04,9.28v20.53h0Z"/>
          <path d="M161.87,139.98h-5.72l-10.38-19.82-7.7,8.86v10.97h-5.52v-47.99h5.52v30.76l16.49-18.28h5.9l-11.09,12.47,12.5,23.04h0Z"/>
          <path d="M172.24,139.98h-5.52v-47.99h5.52v47.99Z"/>
          <path d="M186.5,91.99v6.15h-5.94v-6.15h5.94ZM186.32,104.47v35.51h-5.52v-35.51h5.52Z"/>
          <path d="M222.86,139.98h-5.17v-22.82c0-3.28-.71-5.59-2.14-6.93s-3.16-2-5.2-2c-2.81,0-5.17,1.12-7.08,3.38s-2.87,5.22-2.87,8.89v19.48h-5.52v-35.51h5.13v6.54c2.88-5.02,6.62-7.52,11.21-7.52,2.65,0,4.9.69,6.77,2.06s3.14,2.91,3.83,4.62,1.04,4.8,1.04,9.28v20.53h0Z"/>
          <path d="M287.94,115.8v24.86h-3.67l-1.65-6.01c-2.96,4.22-7.35,6.33-13.19,6.33-6.33,0-11.26-2.38-14.77-7.14-3.52-4.76-5.28-10.54-5.28-17.34,0-7.27,1.86-13.33,5.59-18.19,3.73-4.86,8.79-7.28,15.19-7.28,8.84,0,14.6,4.64,17.3,13.92l-5.7,1.37c-.82-3.56-2.36-6.15-4.61-7.77s-4.71-2.43-7.38-2.43c-4.73,0-8.23,1.91-10.48,5.74-2.25,3.82-3.38,8.62-3.38,14.39,0,6.22,1.26,11.08,3.78,14.59s5.95,5.26,10.28,5.26c3.38,0,6.19-1.12,8.46-3.37,2.26-2.24,3.39-5.34,3.39-9.29,0-.73-.02-1.6-.07-2.61h-11.88v-5.03h18.07Z"/>
          <path d="M309.84,140.97c-4.88,0-8.68-1.81-11.41-5.42s-4.1-8.09-4.1-13.44c0-5.65,1.54-10.17,4.61-13.55s6.89-5.07,11.46-5.07c4.9,0,8.76,1.78,11.58,5.33s4.24,7.99,4.24,13.32-1.52,10.06-4.57,13.57-6.98,5.26-11.81,5.26h0ZM310.26,136.4c2.81,0,5.17-1.16,7.07-3.48s2.85-5.93,2.85-10.83-1-8.49-2.99-10.71-4.32-3.32-7-3.32-5.06,1.12-6.96,3.36-2.85,5.78-2.85,10.63c0,5.13.95,8.81,2.85,11.02s4.24,3.32,7.03,3.32h0Z"/>
          <path d="M348.98,136.22v4.36c-1.95.26-3.63.39-5.06.39-6.87,0-10.3-3.59-10.3-10.77v-21.4h-6.29v-4.32h6.29l.25-8.93,5.13-.49v9.42h7.95v4.32h-7.95v22.32c0,3.66,1.9,5.49,5.7,5.49,1.27,0,2.7-.13,4.29-.39h-.01Z"/>
          <path d="M381.38,139.98h-5.52v-21.55c0-2.53-.16-4.43-.47-5.7s-1.07-2.36-2.25-3.29-2.55-1.39-4.1-1.39c-2.84,0-5.21,1.16-7.12,3.48s-2.87,5.43-2.87,9.32v19.12h-5.52v-47.99h5.52v19.02c2.51-5.02,6.09-7.52,10.76-7.52,2.09,0,3.94.41,5.57,1.23s2.88,1.9,3.74,3.23,1.46,2.65,1.78,3.96.47,3.48.47,6.52v21.55h0Z"/>
          <path d="M395.48,91.99v6.15h-5.94v-6.15h5.94ZM395.31,104.47v35.51h-5.52v-35.51h5.52Z"/>
          <path d="M425.41,127.54l4.99.88c-.7,3.93-2.26,7-4.68,9.22-2.41,2.22-5.43,3.33-9.04,3.33-4.9,0-8.63-1.81-11.2-5.42s-3.85-8.02-3.85-13.23,1.35-9.88,4.06-13.46,6.39-5.37,11.06-5.37c3.87,0,6.97,1.15,9.3,3.46s3.78,5.29,4.34,8.95l-4.99.95c-.94-5.86-3.77-8.79-8.49-8.79-3.04,0-5.38,1.3-7.02,3.88-1.64,2.59-2.46,5.95-2.46,10.07,0,4.55.81,8.08,2.44,10.6s3.91,3.78,6.86,3.78c4.56,0,7.45-2.95,8.67-8.86h.01Z"/>
          <path d="M43.14,226.38v-2.02c5.9-.58,6.12-1.01,6.05-8.71l.07-29.38c-5.9,13.18-15.41,33.77-17.93,40.11h-1.87c-2.45-6.55-10.58-26.35-16.06-39.39-1.22,25.2-1.3,30.89-1.3,32.26.07,4.03,1.87,4.61,6.77,5.11v2.02H1.8v-2.02c4.18-.43,5.9-1.3,6.48-5.18.43-3.17.5-5.76,2.38-32.04.29-3.74-.43-4.97-6.77-5.54v-2.02h12.53l15.91,36.51,17.07-36.51h12.6v2.02c-6.19.72-6.98,1.37-6.84,6.41l.29,27.65c.29,7.7.5,8.06,6.84,8.71v2.02h-19.15,0Z"/>
          <path d="M66.66,226.38v-2.02c4.54-.43,5.04-.79,5.04-5.69v-14.83c0-4.46-.22-4.75-4.54-5.47v-1.73c3.74-.65,7.13-1.58,10.23-2.88v24.91c0,4.9.5,5.26,5.18,5.69v2.02h-15.91ZM74.15,186.71c-2.02,0-3.82-1.8-3.82-3.82,0-2.3,1.8-3.96,3.89-3.96s3.67,1.66,3.67,3.96c0,2.02-1.66,3.82-3.74,3.82Z"/>
          <path d="M106.71,226.38v-2.02c4.18-.43,4.61-.94,4.61-5.83v-11.88c0-5.04-1.8-8.42-6.55-8.42-2.95,0-5.76,1.73-7.99,3.74v16.85c0,4.97.43,5.11,4.68,5.54v2.02h-15.55v-2.02c4.75-.5,5.18-.79,5.18-5.54v-14.83c0-4.68-.5-4.9-4.39-5.54v-1.87c3.53-.58,7.06-1.51,10.08-2.88v5.69c1.44-1.01,3.02-2.09,4.9-3.31,2.02-1.3,3.89-2.16,5.98-2.16,5.76,0,9.36,4.25,9.36,11.23v13.68c0,4.9.43,5.11,4.61,5.54v2.02h-14.92Z"/>
          <path d="M125.31,226.38v-2.02c4.54-.43,5.04-.79,5.04-5.69v-14.83c0-4.46-.22-4.75-4.54-5.47v-1.73c3.74-.65,7.13-1.58,10.23-2.88v24.91c0,4.9.5,5.26,5.18,5.69v2.02h-15.91,0ZM132.79,186.71c-2.02,0-3.82-1.8-3.82-3.82,0-2.3,1.8-3.96,3.89-3.96s3.67,1.66,3.67,3.96c0,2.02-1.66,3.82-3.74,3.82h0Z"/>
          <path d="M158.86,193.91c9,0,15.7,6.84,15.7,16.13,0,11.67-8.64,17.21-15.7,17.21-9.94,0-15.99-7.99-15.99-16.06,0-11.74,9.14-17.28,15.99-17.28h0ZM157.99,196.36c-4.39,0-8.35,4.25-8.35,12.6,0,9.15,4.03,15.77,9.94,15.77,4.46,0,8.21-3.24,8.21-13.11,0-8.42-3.46-15.26-9.79-15.26h-.01Z"/>
          <path d="M198,226.38v-2.02c4.18-.43,4.61-.94,4.61-5.83v-11.88c0-5.04-1.8-8.42-6.55-8.42-2.95,0-5.76,1.73-7.99,3.74v16.85c0,4.97.43,5.11,4.68,5.54v2.02h-15.55v-2.02c4.75-.5,5.18-.79,5.18-5.54v-14.83c0-4.68-.5-4.9-4.39-5.54v-1.87c3.53-.58,7.06-1.51,10.08-2.88v5.69c1.44-1.01,3.02-2.09,4.9-3.31,2.02-1.3,3.89-2.16,5.98-2.16,5.76,0,9.36,4.25,9.36,11.23v13.68c0,4.9.43,5.11,4.61,5.54v2.02h-14.92Z"/>
          <path d="M51.5,292.88c-.56.07-1.32.18-2.27.33s-1.72.37-2.3.65c-.7.35-1.2.85-1.49,1.49-.29.64-.44,1.4-.44,2.27v3.87c0,2.81.02,4.71.05,5.7s.08,1.79.12,2.43c-3.12,1.41-6.22,2.48-9.32,3.23s-6.13,1.12-9.11,1.12c-3.19,0-6.26-.6-9.21-1.79-2.95-1.2-5.53-2.9-7.73-5.1-2.23-2.23-4-4.94-5.31-8.13s-1.97-6.75-1.97-10.7.63-7.32,1.88-10.57,3.03-6.07,5.33-8.46c2.23-2.34,4.88-4.17,7.96-5.47,3.08-1.3,6.38-1.95,9.9-1.95,2.81,0,5.26.34,7.35,1.02s3.93,1.5,5.52,2.46l1.44-2.39h2.81l.32,17.44h-2.88c-.49-1.92-1.1-3.81-1.83-5.68-.73-1.86-1.67-3.53-2.82-5.01s-2.55-2.65-4.21-3.53c-1.65-.88-3.63-1.32-5.93-1.32-2.51,0-4.75.51-6.72,1.53s-3.68,2.54-5.14,4.56c-1.43,1.95-2.53,4.38-3.31,7.28s-1.16,6.16-1.16,9.75c0,3.17.38,6.15,1.14,8.95.76,2.8,1.87,5.22,3.33,7.27,1.45,2.09,3.27,3.73,5.46,4.93s4.66,1.79,7.43,1.79c2.07,0,3.95-.32,5.65-.95s2.9-1.3,3.61-2c.19-1.22.29-2.45.3-3.69s.02-2.3.02-3.16v-2.74c0-.98-.14-1.86-.4-2.62-.27-.76-.83-1.32-1.67-1.67-.77-.35-1.82-.62-3.15-.79-1.32-.18-2.36-.29-3.11-.33v-2.57h21.87v2.57-.02Z"/>
          <path d="M85.33,304.63c-1.45,2.77-3.4,4.97-5.84,6.61-2.44,1.64-5.24,2.46-8.4,2.46-2.79,0-5.23-.49-7.33-1.48-2.1-.98-3.83-2.32-5.19-4.01-1.36-1.69-2.37-3.66-3.04-5.91s-1-4.63-1-7.14c0-2.25.36-4.46,1.07-6.63s1.76-4.12,3.15-5.85c1.34-1.66,2.99-3.01,4.97-4.03,1.98-1.02,4.2-1.53,6.66-1.53s4.7.4,6.5,1.2c1.8.8,3.27,1.89,4.39,3.27,1.08,1.31,1.88,2.86,2.41,4.64s.79,3.71.79,5.8v2.32h-22.96c0,2.28.22,4.35.65,6.2.43,1.86,1.12,3.49,2.06,4.9.91,1.36,2.11,2.44,3.59,3.22,1.48.79,3.23,1.18,5.27,1.18s3.88-.49,5.4-1.47,2.97-2.74,4.38-5.28l2.46,1.51v.02ZM77.56,291.41c0-1.31-.11-2.71-.33-4.21s-.58-2.75-1.07-3.75c-.54-1.08-1.28-1.95-2.21-2.63-.94-.68-2.14-1.02-3.62-1.02-2.46,0-4.51,1.02-6.13,3.07-1.63,2.04-2.51,4.89-2.65,8.54h16.03-.02Z"/>
          <path d="M122.12,295.1c0,2.44-.39,4.83-1.16,7.19-.77,2.36-1.88,4.35-3.31,5.99-1.62,1.88-3.5,3.27-5.63,4.18-2.14.91-4.53,1.37-7.18,1.37-2.21,0-4.31-.42-6.3-1.25-1.99-.83-3.77-2.04-5.31-3.64-1.52-1.57-2.74-3.49-3.64-5.75s-1.35-4.8-1.35-7.61c0-5.41,1.58-9.84,4.73-13.29,3.16-3.45,7.29-5.17,12.41-5.17s8.86,1.63,12.02,4.9,4.73,7.62,4.73,13.06v.02ZM114.84,295.17c0-1.76-.18-3.62-.53-5.57s-.88-3.62-1.58-4.97c-.75-1.45-1.74-2.62-2.96-3.5s-2.71-1.32-4.47-1.32-3.35.45-4.63,1.34c-1.28.89-2.32,2.11-3.12,3.66-.75,1.43-1.28,3.06-1.59,4.89-.31,1.83-.46,3.6-.46,5.31,0,2.25.18,4.33.55,6.24.36,1.91.94,3.62,1.74,5.12.8,1.5,1.8,2.68,3.01,3.53,1.21.86,2.71,1.28,4.49,1.28,2.94,0,5.26-1.42,6.97-4.25s2.57-6.75,2.57-11.74v-.02Z"/>
          <path d="M150.99,282.58c0,1.2-.29,2.26-.88,3.18-.59.93-1.49,1.39-2.71,1.39-1.31,0-2.31-.34-3.01-1.02-.69-.68-1.04-1.43-1.04-2.25,0-.52.04-.98.12-1.41.08-.42.16-.84.23-1.27-1.1,0-2.39.45-3.87,1.34s-2.73,2.16-3.76,3.8v20.18c0,.82.16,1.49.47,2s.81.9,1.49,1.16c.59.23,1.34.41,2.27.53.93.12,1.73.2,2.41.25v2.32h-18.28v-2.32c.54-.05,1.1-.09,1.67-.14.57-.05,1.07-.14,1.49-.28.66-.21,1.14-.58,1.46-1.11s.47-1.21.47-2.05v-21.38c0-.73-.17-1.44-.51-2.14s-.81-1.26-1.42-1.69c-.45-.28-.97-.49-1.58-.61-.61-.13-1.27-.22-1.97-.26v-2.32l11.53-.77.49.49v4.89h.18c1.45-1.9,3.07-3.34,4.85-4.32s3.41-1.48,4.89-1.48,2.68.48,3.6,1.44c.93.96,1.39,2.25,1.39,3.87l.02-.02Z"/>
          <path d="M182.7,309.2c.94.89,1.68,1.9,2.21,3.02s.81,2.52.81,4.18-.36,3.23-1.09,4.69-1.83,2.74-3.3,3.81c-1.57,1.1-3.45,1.96-5.62,2.57s-4.88.91-8.09.91c-5.25,0-9.18-.77-11.78-2.3s-3.9-3.78-3.9-6.73c0-2.39.94-4.28,2.81-5.66,1.88-1.38,4.27-2.13,7.17-2.25v-.49c-.7-.21-1.43-.47-2.18-.79s-1.39-.69-1.93-1.11c-.61-.49-1.1-1.07-1.48-1.74-.38-.67-.56-1.49-.56-2.48,0-1.24.44-2.38,1.32-3.43s2.21-1.94,3.99-2.69v-.53c-2.25-1.05-4-2.41-5.24-4.06s-1.86-3.57-1.86-5.75c0-3.28,1.22-5.98,3.67-8.09s5.58-3.16,9.4-3.16c1.05,0,2.1.11,3.15.32,1.04.21,2.1.48,3.18.81h12.09v3.38h-8.16v.21c.87,1.01,1.51,2.12,1.93,3.34s.63,2.41.63,3.59c0,3.05-1.24,5.62-3.71,7.73-2.47,2.11-5.35,3.16-8.63,3.16h-4.25c-.54.19-1.1.53-1.69,1.02s-.88,1.16-.88,2,.25,1.53.74,1.99,1.09.77,1.79.93c.68.19,1.47.3,2.37.35.9.05,1.83.08,2.79.11,1.03.02,2.44.09,4.24.21s3.06.19,3.81.21c1.08.05,2.16.3,3.25.77s2.08,1.11,2.97,1.93l.03.02ZM179.95,317.7c0-1.31-.3-2.39-.91-3.23s-1.54-1.42-2.78-1.72c-.66-.09-2-.2-4.04-.32s-4.41-.18-7.1-.18c-2.53.49-4.33,1.32-5.4,2.48-1.07,1.16-1.6,2.65-1.6,4.48,0,.82.18,1.61.53,2.36s.96,1.44,1.83,2.07c.82.61,1.92,1.11,3.3,1.49,1.38.39,3.07.58,5.06.58,3.45,0,6.16-.66,8.14-1.99s2.97-3.33,2.97-6.03h0ZM173.2,288.63c0-2.74-.56-4.93-1.67-6.56s-2.68-2.44-4.69-2.44c-1.1,0-2.04.23-2.83.69-.79.46-1.42,1.11-1.92,1.95-.47.77-.8,1.71-1,2.79-.2,1.09-.3,2.21-.3,3.36,0,2.6.57,4.72,1.71,6.36,1.14,1.64,2.61,2.46,4.41,2.46,2.02,0,3.57-.81,4.66-2.44s1.63-3.69,1.63-6.17h0Z"/>
          <path d="M206.27,312.78h-16.73v-2.32c.54-.05,1.1-.09,1.67-.14s1.07-.14,1.49-.28c.66-.21,1.14-.58,1.46-1.11s.47-1.21.47-2.05v-21.38c0-.75-.17-1.43-.51-2.05s-.81-1.14-1.42-1.56c-.45-.28-1.09-.52-1.93-.72s-1.62-.32-2.32-.37v-2.32l12.23-.77.49.49v28.27c0,.82.16,1.5.47,2.04s.81.94,1.48,1.2c.51.21,1.01.38,1.5.51s1.04.22,1.64.26v2.32-.02ZM201.88,264.02c0,1.34-.44,2.5-1.32,3.5s-1.96,1.49-3.25,1.49c-1.2,0-2.23-.47-3.11-1.42s-1.32-2.03-1.32-3.25c0-1.29.44-2.41,1.32-3.38s1.92-1.44,3.11-1.44c1.34,0,2.43.45,3.29,1.35s1.28,1.95,1.28,3.15h0Z"/>
          <path d="M241.88,312.15c-1.1.4-2.07.72-2.9.97s-1.78.37-2.83.37c-1.83,0-3.29-.43-4.38-1.28s-1.79-2.1-2.09-3.74h-.21c-1.52,1.69-3.16,2.98-4.9,3.87s-3.85,1.34-6.31,1.34c-2.6,0-4.74-.8-6.42-2.39s-2.51-3.68-2.51-6.26c0-1.34.19-2.53.56-3.59s.94-2,1.69-2.85c.59-.7,1.36-1.33,2.32-1.88s1.86-.99,2.71-1.32c1.05-.4,3.19-1.14,6.42-2.21s5.4-1.92,6.52-2.53v-3.48c0-.3-.06-.89-.19-1.76s-.4-1.69-.83-2.46c-.47-.87-1.13-1.62-1.99-2.27s-2.07-.97-3.64-.97c-1.08,0-2.08.18-3.01.54s-1.58.74-1.95,1.14c0,.47.11,1.16.33,2.07s.33,1.76.33,2.53c0,.82-.37,1.57-1.11,2.25s-1.76,1.02-3.08,1.02c-1.17,0-2.03-.42-2.58-1.25s-.83-1.76-.83-2.79.38-2.11,1.14-3.09,1.75-1.86,2.97-2.64c1.05-.66,2.33-1.21,3.83-1.67s2.96-.69,4.39-.69c1.97,0,3.69.13,5.15.4s2.79.85,3.99,1.74c1.2.87,2.1,2.04,2.72,3.53s.93,3.4.93,5.75c0,3.35-.04,6.32-.11,8.91s-.11,5.42-.11,8.49c0,.91.16,1.64.47,2.18s.8,1,1.46,1.37c.35.21.91.33,1.67.35s1.54.04,2.34.04v2.25h.04ZM229.61,293.59c-1.99.59-3.74,1.16-5.24,1.73s-2.89,1.27-4.18,2.11c-1.17.8-2.1,1.75-2.78,2.84s-1.02,2.39-1.02,3.89c0,1.95.51,3.38,1.53,4.3s2.31,1.37,3.88,1.37c1.66,0,3.13-.41,4.39-1.22,1.27-.81,2.33-1.77,3.2-2.87l.21-12.16h0Z"/>
          <path d="M5.84,399.18v-4.82h12.53v-40.61H5.84v-4.82h31.1v4.82h-12.53v40.61h12.53v4.82H5.84Z"/>
          <path d="M49.32,348.93h17.06c4.32,0,7.7,1.18,10.15,3.53,2.45,2.35,3.67,5.5,3.67,9.43,0,3.02-.73,5.4-2.2,7.13-1.46,1.73-3.35,2.95-5.65,3.67v.22c2.83.67,5.16,1.93,6.98,3.78,1.82,1.85,2.74,4.52,2.74,8.03,0,2.02-.34,3.91-1.01,5.69-.67,1.78-1.62,3.31-2.84,4.61-1.22,1.3-2.66,2.32-4.32,3.06-1.66.75-3.44,1.12-5.36,1.12h-19.22v-50.26h0ZM65.74,370.74c2.54,0,4.54-.56,5.98-1.69s2.16-2.84,2.16-5.15v-2.81c0-2.3-.72-4.03-2.16-5.18s-3.43-1.73-5.98-1.73h-10.37v16.56h10.37ZM66.75,393.93c2.78,0,4.97-.62,6.55-1.87s2.38-3.17,2.38-5.76v-2.95c0-2.54-.79-4.45-2.38-5.72-1.58-1.27-3.77-1.91-6.55-1.91h-11.38v18.22h11.38Z"/>
          <path d="M118.95,373.98v-15.91h-.58l-10.58,25.85-10.58-25.85h-.58v41.11h-5.54v-50.26h7.78l8.86,22.18h.43l8.86-22.18h7.49v50.26h-5.54v-25.2h-.02Z"/>
          <path d="M179.07,399.18v-50.26h18.29c4.66,0,8.21,1.27,10.66,3.82,2.45,2.54,3.67,6.1,3.67,10.66s-1.22,8.11-3.67,10.66c-2.45,2.54-6,3.82-10.66,3.82h-12.24v21.31h-6.05,0ZM185.11,372.61h12.1c2.54,0,4.52-.64,5.94-1.91s2.12-3.08,2.12-5.44v-3.74c0-2.35-.71-4.16-2.12-5.44-1.42-1.27-3.4-1.91-5.94-1.91h-12.1v18.43h0Z"/>
          <path d="M221.55,394.21h12.96v-43.34h-12.96v-4.97h18.72v48.31h12.96v4.97h-31.68v-4.97Z"/>
          <path d="M281.23,400.05c-2.69,0-5.1-.46-7.24-1.37s-3.96-2.22-5.47-3.92-2.68-3.74-3.49-6.12c-.82-2.38-1.22-5.03-1.22-7.96s.42-5.66,1.26-8.06,2-4.45,3.49-6.16c1.49-1.7,3.28-3.01,5.36-3.92,2.09-.91,4.4-1.37,6.95-1.37s4.76.46,6.8,1.37c2.04.91,3.78,2.17,5.22,3.78s2.54,3.52,3.31,5.72,1.15,4.63,1.15,7.27v2.74h-27.5v1.73c0,1.63.26,3.14.79,4.54.53,1.39,1.28,2.59,2.27,3.6.98,1.01,2.18,1.79,3.6,2.34s2.99.83,4.72.83c2.5,0,4.66-.58,6.48-1.73s3.22-2.74,4.18-4.75l4.25,2.88c-1.11,2.5-2.94,4.55-5.51,6.16-2.57,1.61-5.7,2.41-9.4,2.41h0ZM280.87,365.92c-1.58,0-3.05.29-4.39.86-1.34.58-2.51,1.37-3.49,2.38-.98,1.01-1.75,2.2-2.3,3.56-.55,1.37-.83,2.87-.83,4.5v.5h21.31v-.79c0-1.63-.25-3.12-.76-4.46-.5-1.34-1.2-2.51-2.09-3.49-.89-.98-1.97-1.74-3.24-2.27s-2.68-.79-4.21-.79h0Z"/>
          <path d="M306.58,399.18l13.82-18.86-13.46-18.29h6.91l5.62,7.85,4.46,6.19h.29l4.32-6.19,5.54-7.85h6.62l-13.61,18.22,13.97,18.94h-6.91l-6.26-8.71-4.25-5.9h-.29l-4.1,5.9-6.05,8.71h-6.62Z"/>
          <path d="M421.34,373.98v-15.91h-.58l-10.58,25.85-10.58-25.85h-.58v41.11h-5.54v-50.26h7.78l8.86,22.18h.43l8.86-22.18h7.49v50.26h-5.54v-25.2h-.02Z"/>
          <path d="M453.38,400.05c-2.59,0-4.93-.46-7.02-1.37s-3.86-2.22-5.33-3.92c-1.46-1.7-2.58-3.74-3.35-6.12-.77-2.38-1.15-5.05-1.15-8.03s.38-5.59,1.15-7.99,1.88-4.45,3.35-6.16c1.46-1.7,3.24-3.01,5.33-3.92s4.43-1.37,7.02-1.37,4.93.46,7.02,1.37,3.86,2.22,5.33,3.92c1.46,1.7,2.58,3.76,3.35,6.16.77,2.4,1.15,5.07,1.15,7.99s-.38,5.65-1.15,8.03-1.88,4.42-3.35,6.12c-1.46,1.7-3.24,3.01-5.33,3.92s-4.43,1.37-7.02,1.37ZM453.38,395.08c3.22,0,5.81-.96,7.78-2.88s2.95-4.9,2.95-8.93v-5.33c0-4.03-.98-7.01-2.95-8.93-1.97-1.92-4.56-2.88-7.78-2.88s-5.81.96-7.78,2.88-2.95,4.9-2.95,8.93v5.33c0,4.03.98,7.01,2.95,8.93,1.97,1.92,4.56,2.88,7.78,2.88Z"/>
          <path d="M482.04,399.18v-37.15h5.76v6.05h.29c.38-.91.86-1.79,1.44-2.63.58-.84,1.28-1.57,2.12-2.2.84-.62,1.84-1.13,2.99-1.51s2.5-.58,4.03-.58c3.89,0,7.01,1.24,9.36,3.71,2.35,2.47,3.53,5.96,3.53,10.48v23.83h-5.76v-22.82c0-3.41-.75-5.94-2.23-7.6-1.49-1.66-3.67-2.48-6.55-2.48-1.15,0-2.28.14-3.38.43-1.11.29-2.09.72-2.95,1.3-.86.58-1.56,1.32-2.09,2.23s-.79,1.97-.79,3.17v25.78h-5.77Z"/>
          <path d="M539.78,400.05c-2.59,0-4.93-.46-7.02-1.37s-3.86-2.22-5.33-3.92c-1.46-1.7-2.58-3.74-3.35-6.12-.77-2.38-1.15-5.05-1.15-8.03s.38-5.59,1.15-7.99,1.88-4.45,3.35-6.16c1.46-1.7,3.24-3.01,5.33-3.92s4.43-1.37,7.02-1.37,4.93.46,7.02,1.37,3.86,2.22,5.33,3.92c1.46,1.7,2.58,3.76,3.35,6.16.77,2.4,1.15,5.07,1.15,7.99s-.38,5.65-1.15,8.03-1.88,4.42-3.35,6.12c-1.46,1.7-3.24,3.01-5.33,3.92s-4.43,1.37-7.02,1.37ZM539.78,395.08c3.22,0,5.81-.96,7.78-2.88,1.97-1.92,2.95-4.9,2.95-8.93v-5.33c0-4.03-.98-7.01-2.95-8.93-1.97-1.92-4.56-2.88-7.78-2.88s-5.81.96-7.78,2.88c-1.97,1.92-2.95,4.9-2.95,8.93v5.33c0,4.03.98,7.01,2.95,8.93,1.97,1.92,4.56,2.88,7.78,2.88Z"/>
        </g>
      </g>
    </g>
  </g>
</svg>