<?xml version="1.0" encoding="UTF-8"?>
<svg xmlns="http://www.w3.org/2000/svg" version="1.1" viewBox="0 0 512 512">
  <!-- Generator: Adobe Illustrator 28.7.1, SVG Export Plug-In . SVG Version: 1.2.0 Build 142)  -->
  <g>
    <g id="Layer_1">
      <path d="M122.98,266.5c-10.3,0-20.18,4.94-24.71,14.41l-2.88-2.88c4.53-23.89,21-38.3,40.36-38.3,1.65,0,3.29.41,5.35.41-2.47-14.83-7.82-51.06-7.82-58.07,0-18.94,14.83-28,30.47-37.06l66.3-39.12c23.47,12.35,51.48,28,57.65,57.65,23.89-17.3,50.24-37.47,70.42-56.01,13.59,11.53,29.24,24.71,50.65,30.06l-.82,7.41c-7.82,3.29-18.53,8.24-18.53,25.53v162.67c0,19.36,12.35,26.36,21.41,28.42l9.06-10.3,6.18,4.94-39.95,49.83c-23.06-9.06-39.53-27.59-39.53-55.59v-79.89h-23.06v98.84c-16.06,10.3-32.12,24.71-44.89,36.65-11.53-10.71-33.77-25.94-50.65-30.47v-7.41c8.24-2.88,17.71-8.65,17.71-19.77v-77.83h-28.42v45.3c0,43.65-17.3,90.19-56.83,90.19-10.71,0-19.77-3.71-27.59-6.59-11.94-4.53-17.71-6.18-22.65-6.18-5.35,0-11.53,2.06-15.24,6.59l-3.29,3.71-5.77-5.35,19.77-25.53c8.24-10.71,18.53-17.3,32.53-17.3h3.71c10.3-10.3,13.18-19.36,13.18-30.89,0-5.77-2.88-30.06-4.53-42.83-5.77-10.3-16.88-15.24-27.59-15.24h0ZM210.7,147.49c-5.77-2.88-11.53-5.77-17.71-7.41-11.12,6.59-16.47,18.53-16.47,30.47s2.47,24.3,5.35,42.42l9.88,61.77c2.47,16.06,2.88,22.24,2.88,25.94,0,21.83-17.3,35-42.83,57.24,9.88,3.71,21.83,9.88,33.77,9.88,21.41,0,24.71-35.83,25.12-51.48v-168.84h0ZM245.7,242.62v-58.89c0-16.47-14-25.94-28.42-33.77v92.66h28.42ZM288.12,172.61v183.67c6.18,5.35,14,9.47,23.06,11.94l5.77-3.71v-213.32l-28.83,21.41h0ZM347.01,242.62v-83.6c-9.06-2.47-16.88-6.18-23.47-10.71v94.31h23.47Z"/>
    </g>
  </g>
</svg>