<?xml version="1.0" encoding="UTF-8"?>
<svg xmlns="http://www.w3.org/2000/svg" version="1.1" viewBox="0 0 538.58 538.58">
  <!-- Generator: Adobe Illustrator 29.0.0, SVG Export Plug-In . SVG Version: 1.2.0 Build 15)  -->
  <rect width="512" height="512" fill="white" />
  <g>
    <g id="Layer_1">
      <g id="Layer_1-2" data-name="Layer_1">
        <g id="Layer_1-2">
          <g id="Layer_1-2-2" data-name="Layer_1-2">
            <g>
              <path d="M187.93,244.17l-.78,1.25.47,1.64c-2.02,4.06-3.03,6.87-3.03,8.43,0,.63.08,1.74.23,3.35,0,.26.05,1.02.16,2.27l.08,1.1-2.49,8.99h-1.32c-1.66,2.29-2.49,4.27-2.49,5.93l.47,1.56c-1.71,1.19-3.42,3.44-5.13,6.72.47,2.14.75,3.41.86,3.83.52,2.29.83,3.62.93,3.98.21.88.34,1.61.39,2.19.05,1.35.34,3.67.86,6.96.47.83,1.01,1.95,1.63,3.36.83,4.79,1.24,9.37,1.24,13.74,0,.98-.13,1.92-.39,2.81-.31.93-.47,1.69-.47,2.27,0,.16.03.34.08.54h-.47c-.57,1.66-.86,2.94-.86,3.83h-.47v4.14c.05.21.08.34.08.39.16.93.29,1.41.39,1.41,0,3.12-.67,6.74-2.02,10.85h-1.32v1.02l-.78-.54-.93,3.36-2.88,3.9-1.32.78-.78,1.25-2.18.78-2.41,3.05-5.13,2.11v1.25h-.78l-1.24,1.64-4.67,1.25v-1.25c-1.56,1.51-4.9,2.27-10.03,2.27l-5.83-2.58c-1.09-1.25-2.54-2.37-4.36-3.36-3.16-5.52-5.39-8.62-6.69-9.29l-1.24-4.3c0-4.27,1.11-8.48,3.34-12.65l3.35-3.36v-1.64l2.18-2.5,2.41-.54.47-.78c3.21-2.34,7.67-3.46,13.38-3.36.62.26,1.22.39,1.8.39.21,0,.47-.03.78-.08l.47,2.58,1.63,1.8,1.24,4.14,1.8,1.25,1.56,4.69c-.72,1.82-1.4,2.93-2.02,3.35l-.39,1.25h-.93c-.05.68-1.01,2.66-2.88,5.93l-1.71.78-.78,1.25-5.13-.47-3.35-2.88-2.1-3.83c.47-2.24,1.32-3.88,2.57-4.91v-1.02l2.1-.78h1.24v.47h.78l.54.86c-.52.68-1.12,1.1-1.8,1.25v4.61l1.24.86v1.72l1.01-.93,1.56,1.72c1.87-3.64,2.8-7.29,2.8-10.94,0-.93-.08-1.77-.23-2.5l-.78.31-.47-1.25-2.57-.78-.31.78-1.32-.78h-7.15l-1.71.78v.47h-.86l-3.35,1.32-2.02,5.08v5.78l4.59,12.34,3.66,4.14,4.36.93,1.09-1.1,7.62-1.48.7-.54,2.96-2.19,3.89-2.88,1.4-1.1.78-1.72h.78l.86-2.58.93.47c1.14-1.87,2.18-4.5,3.11-7.89,1.51-5.73,2.26-10.91,2.26-15.54,0-2.61-.26-5.62-.78-9.06l2.1,1.64v-1.64l-2.1-2.96v-2.42c.83-2.66,1.38-4.22,1.63-4.69l-.31-5.86-1.8.78-.47.78-1.63-4.14-1.24,2.03.47,1.8-2.18,3.36-2.1.78-.31,1.64.31.47-4.59,2.11-.39.47-1.71,1.25-.47.78-2.41,1.8v1.25l-4.28.78c-2.28-.88-4.25-1.32-5.91-1.32-.26,0-.67.03-1.24.08v-.47h-1.32c-2.18-1.98-4.41-3.51-6.69-4.61-2.23-3.28-3.61-5.96-4.12-8.04v-2.11l-3.34-4.14c-.16-1.3-.31-2.81-.47-4.52v-.08c0-.88.26-2.76.78-5.62l-.78-1.56v-1.32h.78c-.05-1.35-.08-2.4-.08-3.12,0-1.35.78-8.87,2.33-22.57v-1.32l.78-1.25v.93l1.24-1.25.31-5.15,1.8-3.36-1.24-2.03v-2.11l2.49.31-.47-4.91-1.24-2.27v-5l1.24-3.05-1.24-4.14-.78-.78-1.63,1.25-1.24-1.25c.21-.63.31-1.27.31-1.95,0-.78-.11-2-.31-3.67l-1.32-1.25,1.32-1.1-7.7-5.93-9.18-1.8-3.89.86-.31.93h-3.03c-1.87,1.67-2.98,3.05-3.35,4.14v.78h-.31v3.05l-.93,1.32.47.78c-.62,2.19-1.22,4.37-1.8,6.56l-.23.93c0,4.17.42,7.01,1.24,8.51l-.47,2.5c.62,2.76,1.63,5.44,3.03,8.04l2.33,2.03,2.26-.31,1.09-2.5,3.89-2.11,1.24-3.05v-1.25h-.47c0-1.98.31-3.28.93-3.9l.31-7.49-2.33-5.39-1.01.31-.78-1.32c-.47.93-1.17,1.8-2.1,2.58l-.47,1.25h-1.24l.47,1.32-.47.78c-.21,1.72-.31,2.83-.31,3.36,0,.47.1,1.32.31,2.58l1.71,1.25.86,2.58h1.24l.47,1.8-1.71,1.56-2.1-1.25-2.1-3.36v-1.32l-.93-1.56.47-1.02-1.24-.31.47-1.72-.47-3.36h1.24l.47-2.88-.47-.47.78-1.32,1.01-.47,1.56-2.34h.47l.86-1.32,3.35-1.25h1.24l2.1,1.25v1.32l1.71,1.25c1.97,3.54,2.96,7.06,2.96,10.55,0,.47-.03,1.17-.08,2.11l-.31.78.78,1.56-.78,3.59-2.57,1.1.31,2.27-2.02,1.56-.31,1.25-1.01.54.47,1.25c-.78,2.03-2.47,4.01-5.05,5.93l-1.32-.47v1.25l-.78.78h-3.81l-.78-.78-.78.31-1.32-1.1h-1.24l-1.32-1.02-.31-1.56-.93-.47c-.88-2.45-2-6.41-3.35-11.87l-.78-1.25-1.32-6.72.54-1.64-.47-4.34c.26-1.25.98-3.2,2.18-5.86,1.4-2.91,2.49-4.58,3.27-5v-1.32l2.1-2.5,1.24.47c.93-1.19,1.82-2.08,2.64-2.66,1.51-.98,3.97-1.82,7.39-2.5,3.11-.57,6.35-.86,9.72-.86.98,0,1.85.03,2.57.08l1.71,1.25-.47,1.32,4.67,2.42v.47c4.09,1.51,6.79,3.36,8.09,5.54l2.02,2.88c1.92,2.81,2.98,4.35,3.19,4.61,1.82,3.17,2.72,5.83,2.72,7.97,0,.68-.05,1.22-.16,1.64l2.57,5.62c-.99,2.29-1.56,4.79-1.71,7.49l.93,1.8c-.72,1.41-1.09,3.25-1.09,5.54,0,.68.05,1.32.16,1.95l.93.78-1.24,2.27v1.64l-.54.47-.78,2.88-.78.78h-.47l-2.1,3.05.78.47-1.24,7.03h-.78v-2.11l-1.8,2.11.47,3.05,1.32-.47.47,1.25h-.47l-1.32,5.15h.86c.05.37.08.76.08,1.17,0,.83-.13,1.82-.39,2.96l.31,1.25-1.32,1.8-.78.31-.47,1.72,1.24.86c-.11,1.41-.16,2.55-.16,3.44,0,2.86.39,5.49,1.17,7.89l-.54.78v1.32l-.78.47.78,2.11,3.34,2.5,4.2.86,4.59-1.64v-.47c1.87-.83,3.4-2.11,4.59-3.83h.54l.78.93,3.03-1.25c1.24-1.51,2.2-3.08,2.88-4.69l.93-.47v-2.88l4.9-5.08v-14.75l-.78-.47-.78-1.56-1.32,1.56c0-1.25.21-2.71.62-4.38l.23-.86c.52-2.08.78-3.15.78-3.2.05,0,.08-.24.08-.71s.1-1.41.31-2.81c.05-.31.23-1.92.54-4.84l-1.71-1.25c.21-3.08.88-6.87,2.02-11.4l-1.24-5.86c1.35-4.64,2.02-8.51,2.02-11.63,0-.73-.11-1.41-.31-2.03.88-3.9,2.54-8.2,4.98-12.89h2.26l1.24-2.27,2.1-1.64c1.19-.57,2.12-.86,2.8-.86.1,0,.29.03.54.08l.78,1.64.78-.47h2.26l2.02,1.72c.72,1.93,1.58,4.77,2.57,8.51l1.17.78c.62,2.08.93,3.64.93,4.69,0,1.77-.34,4.74-1.01,8.91-.52,3.54-.78,6.74-.78,9.6l-.07.02h.02ZM184.58,240.81v-10.55l-.78-2.11c.05-.88.08-1.56.08-2.03,0-3.33-.88-6.61-2.64-9.84l.47-2.03h-2.96v.78l-1.63,1.25c-.16,1.77-.72,3.75-1.71,5.93l.47.78-1.01,3.05-.31-.47c-.88,2.14-1.35,4.77-1.4,7.89-.05,2.08-.16,3.49-.31,4.22-.05.47-.52,1.85-1.4,4.14-.16.37-.64,1.72-1.48,4.06,0,2.76.26,4.69.78,5.78l1.8,1.25v1.02l-3.03,3.67.78,5.54,1.24,1.32,1.32.31-.31,10.55c0,.73.1,1.59.31,2.58,1.35-2.76,2.46-5.86,3.35-9.29l2.18-2.03c1.04-.93,1.71-4.03,2.02-9.29.31-5.52.47-8.38.47-8.59,0-.42-.03-1.07-.08-1.95l2.26-2.11,1.56-3.83h-.01Z" />
              <path d="M269.66,295.32c-.21.68-1.94,3.51-5.21,8.52l-1.01.31-.16.93-1.4,1.64-2.1.93-2.02,3.36-2.1,1.25v.78c-3.16,1.19-6.14,1.64-8.94,1.32l-.78-.31-1.24.31c-1.97-.21-4.79-.9-8.48-2.11-3.83-3.44-6.22-8.59-7.15-15.46h.93v-1.32l-1.24-1.72.78-.86-.78-1.25h-.93c-.57-1.92-.86-5.7-.86-11.33,0-3.12-.11-5.54-.31-7.26-.05-.31-.26-1.05-.62-2.19-.31-.93-.42-1.74-.31-2.42l-.31-.47c-.52,1.77-1.04,3.54-1.56,5.31-.78,2.91-1.12,4.56-1.01,4.91l-1.24,1.56-.47,2.11.47,1.8-2.57,5.86-2.57,1.64c-.62,1.67-1.58,3.54-2.88,5.62v1.56l-1.24.78v1.8l-3.34,1.72v2.11l-.47.31.47,2.58c-1.56,1.19-2.67,3.08-3.35,5.62l-2.1,1.72-.47,2.58-2.41,2.03-1.71,3.9-.78.31-3.35-.31-3.34-1.8-1.01-2.11,2.57-1.25.47-1.25c2.02-.83,4.46-3.25,7.31-7.26,2.64-3.69,4.35-6.82,5.13-9.37l2.26-1.64-.47-.47c1.14-1.72,1.82-3,2.02-3.83h.47c.42-1.3,1.53-2.83,3.34-4.61.31-1.66,1.04-3.62,2.18-5.86,1.65-3.22,2.59-5.08,2.8-5.54.05-.68.21-1.64.47-2.88.52-1.35,1.8-4.32,3.81-8.91v-1.64c1.3-1.3,2.26-3.85,2.88-7.65l-.78-3.35h.47l.31-2.88.93-.78.78.31.86-.31,3.34,1.25,1.71,1.64-1.24,1.25,2.57,1.72,1.24,5.46-1.24,2.88-1.01.93c1.09,1.93,1.87,4.52,2.33,7.81.37,2.76.7,5.49,1.01,8.2.26.78.59,2.01,1.01,3.67-.11.88,0,2.06.31,3.51h-.31c.62,4.74.62,8.2,0,10.39,1.45,2.55,3.4,5.39,5.83,8.51v.78h-.47l.78,1.8,2.57.47c3.27-.31,7.73-2.71,13.38-7.18,1.3-1.05,3.37-3.72,6.22-8.04l3.34-.16h.01,0ZM238.32,234.72c0,.98-.29,2.96-.86,5.93l-1.56,2.03-6.84.47-2.1-2.5c0-4.32.86-8.02,2.57-11.09l5.91.54,1.56,1.25.47,2.11.54-.39c0,.16.05.45.16.86.1.42.16.68.16.78h0Z" />
              <path d="M336.85,297.59c-1.76,2.86-5.01,6.12-9.72,9.76-3.94,2.08-7.54,3.05-10.81,2.88l-7.62-2.88h-.86l-1.56-1.32v1.32l-2.57-1.32-1.71-2.19-2.88-.86-.78-1.25v-.78l-2.57-.78v-3.05l3.66.47c.37-1.41,1.22-2.68,2.57-3.83l1.71-.86.31-1.25,1.32-.78c.1-.88.83-2,2.18-3.35.16-1.15.54-2.42,1.17-3.83l1.71-1.8v-3.67l-1.24-.93-.78.93-1.32.31-.47,1.8-1.24.31.47,2.19-1.8.31-2.02,2.58-1.63.47v.86l-.93.47v1.25l-1.09.31v.86h-1.01l-.31.47,1.32,2.03-2.57,1.02-1.32,1.56-.78-.47c-.62,1.1-1.38,2.79-2.26,5.08l-.78.86c-.88,2.81-1.73,5.62-2.57,8.43-.99,3.12-1.51,6.06-1.56,8.82l-3.03.93-4.12-4.3c.16-4.27,0-8.48-.47-12.65.57-.98.72-2.52.47-4.61l-2.1,3.05-.93.31-1.09,1.72-1.32.78v.86l-.47.47h-.78c-1.04,2.34-3,4.32-5.91,5.94l-1.8-4.22,1.32-.47v-.78c2.69-1.77,6.19-5.28,10.51-10.55v-.47l2.1-2.11c.16-2.61.57-6.38,1.24-11.33l.78-.54-.31-1.25,1.63-3.67-.86-2.27-1.24-1.25v-4.61c0-.63.1-1.66.31-3.12.16-1.3.21-2.34.16-3.12l1.63-2.11-1.63-.93.31-1.17c-.72-1.05-1.09-2.58-1.09-4.61l.78-2.27.31.54,1.32-.54.47-2.81-.47-.86-.31-3.35h-1.01c.93-11.04,2.39-18.93,4.35-23.66h.31v-1.72h.47c-.21-3.39.64-6.48,2.57-9.29v-.78l1.24-.54c2.23-2.55,4.62-6.01,7.15-10.39l1.32-1.25.78-1.8h1.24l1.63-2.5,1.71-.86,1.32-1.25h1.56v-1.58l.47-.54,1.32.54.31,2.03,6.84,8.04c-.05,1.87-.03,4.4.08,7.57.16,3.7.23,6.22.23,7.57,0,.68-.18,1.93-.54,3.75-.31,1.61-.39,2.86-.23,3.75l-.54.54.54.31c-.21,1.19-.65,2.21-1.32,3.05v2.5l-.78.31c-.47,2.86-1.32,5.96-2.57,9.29l.78.93c-.11,1.56-.52,3.8-1.24,6.72l-.78.86-.47,4.14-1.63,3.05.47.78c-.78,1.82-2.05,4.5-3.81,8.04-.78.93-1.8,2.63-3.03,5.08l-1.24,1.25-.31,1.32-1.32,1.25-1.24,3.67-6.38,6.87-.31,2.88-1.24,1.32v6.72c.83-.73,1.56-1.69,2.18-2.88.88-1.77,1.43-2.79,1.63-3.05,1.09-1.41,2.72-3.49,4.9-6.25l1.32-.47,1.24-1.32c1.35-.16,2.46-.68,3.35-1.56h1.8l2.49-2.27h3.66l3.03,3.05c.72,3.33,1.17,6.43,1.32,9.29l-.47,1.64-1.32,1.25-.78,3.36-1.24.47-.54.78.54.47-.54.86h-1.24l-.31,1.25-.93.78v.47l-2.41,1.8v.78c1.92,1.1,4.84,2.47,8.79,4.14l2.49,2.58,3.34,1.32,1.32-.54.31-1.56,1.24-.47.93.47c2.02-1.46,4.04-2.93,6.07-4.45,2.64-2.08,4.41-3.8,5.29-5.15l.78,1.64v.88h0ZM311.73,213.32l-.54-6.96-.78-.31v-4.3l.78-2.11c-.62-1.61-.88-2.83-.78-3.67l-1.71-2.5-3.35-.54v.86l-1.32.93.47.78-.47.47.47,2.11h-.78l-.47.78v1.8l-.78.31-1.32,2.58-.78.47-1.24,3.36h-.47l-1.32,2.88h1.01c-.88,1.67-1.32,3.46-1.32,5.39h-2.26c-.72,4.11-1.09,6.09-1.09,5.93,0,1.05.26,3.44.78,7.18h-1.24l-.47,2.11-1.32,1.25-.78,6.72.47,1.32v13.59l-1.24.78c.36,1.1.47,2.21.31,3.35l-.78.47v2.58l-.78,1.56v4.22c0,.11.1.37.31.78.05.16.36,2.45.93,6.87l-.47.78v.78l3.35-4.14v-.47c3.27-3.69,6.45-9.92,9.57-18.66,2.12-6.72,4.25-13.4,6.38-20.07-.21-1.66-.31-3.05-.31-4.14,0-.21.1-.52.31-.93,0-1.25.16-3.08.47-5.46.05-.16.49-1.41,1.32-3.75.67-1.77.9-3.02.7-3.75l.54-1.25v.03s0,0,0,0h0Z" />
              <path d="M396.43,294.69l-1.24.78v.47c-.67.68-1.12,1.22-1.32,1.64l-1.71,1.25v.47l-1.8,1.48c-2.54.42-5.39,1.59-8.55,3.51l-2.1-1.32,1.24,1.8h-1.71l-2.88,2.58h-3.03l-1.56.78c-.67-.05-2.39.05-5.13.31l-1.24-.78-1.32.47c-2.07-1.05-4.02-1.19-5.83-.47-1.14-.1-2.96-1.22-5.44-3.36v-.78l-2.57-2.11h-.31l-.93-1.25-1.09-.54-.54-.78-1.24-.78c-.37-.88-.96-1.64-1.8-2.27v-.78l-1.09-1.25v-3.83l-1.24-1.17-1.01.31c-.16-1.92-.83-3.56-2.02-4.91l-.31-2.58.78-3.05,1.56-.31-.78-.47v-2.11h-.78l-.47-1.25-2.1-1.32,1.32-3.83,2.49-.31,2.57,3.35c.47-1.41,1.68-3.39,3.66-5.93s3.53-3.98,4.67-4.3l.93.47,1.09-1.56v-.93c4.76-2.03,8.17-3.05,10.19-3.05.31,0,.59.05.86.16l1.24-.47h3.35l1.24.78,1.32-.31,3.81.78c2.07,1.19,3.87,2.74,5.37,4.61v2.58l2.57,4.14-1.24,2.11v.93l-.47,1.32v1.25h.78l-1.24,3.35-1.17.78h-.93c-.83.37-1.53.91-2.1,1.64h-1.24l-.78,1.25c-2.59.42-4.56.57-5.91.47v-.47c-3.22-.36-6.14-.47-8.79-.31l-.93.78h-1.56l-.54.47-1.24-1.25h-2.57v2.11c.62,2.86,1.06,4.66,1.32,5.39l-1.32.47,2.26,3.36v2.11l2.41.78,2.18,2.58,1.32.47.31,1.32,3.03.78c2.59-.42,4.54-.57,5.83-.47l.39-.86.47.86,1.24-.31,2.57.31,2.88-1.64.78.31.93-.78,2.1-.31v-.93l4.9.47v-.78l2.41-.54c1.87-1.1,3.03-2.03,3.5-2.81.62-.42,1.48-1.07,2.57-1.95l.78.63v2.58h.02-.01,0ZM380.18,268.45l-.93-1.72c-2.13-1.92-4.51-2.88-7.15-2.88h-3.35c-3.63,0-6.3.57-8.01,1.72l-.78.78.78.39-3.66,5.08-.47,1.8-1.24-.54v1.8l-.78,1.1v1.32c2.74-.31,5.8,0,9.18.93,1.71-.1,4.25-.76,7.62-1.95,3.73-1.35,5.8-2.58,6.22-3.67l.39-.78,1.24-.78.93-2.58h0s0-.01,0-.01h0Z" />
              <path d="M449.54,298.83c-.88,1.46-1.32,3.96-1.32,7.5-.99,1.25-2.36,3.12-4.12,5.62-1.6.98-3.99,2.55-7.15,4.69l-6.38,1.1c-2.59-.31-6.53-1.44-11.82-3.36l-2.33.47-3.89-2.88-1.71-4.3v-4.69c0-3.64.42-6.04,1.24-7.18l-.78-.31.47-1.25c.88-.63,1.99-2.06,3.35-4.3,1.14-1.82,2.96-3.22,5.44-4.22l.47-.78h.31l1.8-1.25c3.68-.57,5.05-.86,4.12-.86.72,0,1.73.11,3.03.31,1.04,1.19,2.41,3.08,4.12,5.62-.21,3.85-.05,6.96.47,9.29-.42,1.25-.57,2.06-.47,2.42l-1.24.93-.86,2.11-3.35,1.56-.93,1.8-1.56-1.32-3.35-.78-2.57-2.58-1.8-4.14v-2.58l2.26-.93c.62,1.56,1.32,2.58,2.1,3.05l-.54,2.03.54.86,1.24.47.31-.78h1.8c1.04-1.46,1.56-4.56,1.56-9.29-.47-2.34-.83-3.9-1.09-4.69l-2.57-.47-3.03,1.32-.31,1.25-3.35,1.64v1.25l-1.8.93-.78,2.42.31,2.58,1.8.93v1.56l-.78.86.31,1.25-.31,2.11-.54.47.86,1.25-.31,1.32,1.24,2.5v.86c1.92,1.72,3.99,2.66,6.22,2.81l1.24-.78c.52.26,1.48.52,2.88.78,1.51,0,3.63-.1,6.38-.31l3.81-2.5c2.44-4.32,3.66-7.86,3.66-10.62,0-1.82-.26-6.87-.78-15.15-1.4-1.1-2.36-3.08-2.88-5.93l-.93-.78c-.05-.63-.7-3.39-1.94-8.28-1.14-4.38-1.6-6.95-1.4-7.73-1.4-2.08-2.1-4.48-2.1-7.18l.47-2.11-2.02-2.5c-1.35,1.3-2.1,2.42-2.26,3.35l-1.09,1.25-1.01,2.88h-1.24l-.31,1.25-1.24.47c-.83,2.08-1.94,4.48-3.35,7.18v1.64l-1.01.93-.31,1.64-.78.78-1.24,3.05c-.52.63-1.27,1.05-2.26,1.25-1.14,1.51-1.94,3.08-2.41,4.69l-.93.78-1.24,3.05-1.17.78-.47,1.25v1.32l-1.24.31-1.8,3.83-1.09.47-.31,1.8c-1.82,1.77-5.39,3.62-10.73,5.54l.86-3.2c1.09-1.1,2.36-2.03,3.81-2.81h-.47c.83-.93,1.94-2.4,3.34-4.38l1.71-1.25c1.71-1.98,2.57-3.8,2.57-5.46,2.39-1.92,4.88-5.96,7.47-12.1h.47v-1.8h1.32l.31-2.88,2.26-2.58.31-2.03c1.3-1.3,3.14-4.03,5.52-8.2h.31c.47-1.46,1.06-2.58,1.8-3.36l.31-2.03,1.24-2.11c0-1.66.59-3.35,1.8-5.08v-1.64l1.24-1.72-.47-4.22.47-.78v-2.58l.86-.78,1.71.31.78-.31c2.59,1.93,4.56,2.88,5.92,2.88l2.88,3.36c1.4,3.8,2.1,6.35,2.1,7.65,0,.52-.11,1.32-.31,2.42l-1.32.93.31,2.88,1.01,1.32c-.21,1.56-.65,3.1-1.32,4.61l.31,1.25-.78.47c-.47,1.15-.47,2.55,0,4.22l-.78,2.5.78,1.64,2.57,1.72v3.9c.98,1.41,1.56,2.79,1.71,4.14l-1.24,2.03.31,4.22.93.93c.72,2.55,1.43,4.09,2.1,4.61.16,1.25.59,3,1.32,5.23.57,1.67.86,3.41.86,5.23,0,.68-.03,1.41-.08,2.19h-.01v.05h0Z" />
            </g>
          </g>
        </g>
      </g>
    </g>
  </g>
</svg>