<?xml version="1.0" encoding="UTF-8"?>
<svg xmlns="http://www.w3.org/2000/svg" version="1.1" viewBox="0 0 512 512">
  <!-- Generator: Adobe Illustrator 28.7.1, SVG Export Plug-In . SVG Version: 1.2.0 Build 142)  -->
  <rect width="512" height="512" fill="white" />
  <g>
    <g id="Layer_1">
      <g id="Layer_1-2" data-name="Layer_1">
        <g id="Layer_1-2">
          <path d="M309.65,397.73v-12.82c25.07,0,37.62-10.4,37.62-31.22l-2.99-198.79-91.06,242.83h-11.97l-97.48-238.97-1.71,188.53c-.28,25.08,13.96,37.62,42.76,37.62v12.82h-103.03v-12.82c25.92,0,39.62-13.71,41.05-41.11l3.42-191v-4.28c0-3.14-.36-5.99-1.07-8.57-.72-2.56-2.56-4.86-5.56-6.85s-7.33-3.49-13.05-4.5c-5.71-1-13.4-1.51-23.09-1.51v-12.82h88.07l86.36,216.75,82.51-216.75h86.78v12.82c-9.4,0-16.82.64-22.22,1.92-5.42,1.28-9.47,3.14-12.18,5.57-2.72,2.42-4.42,5.22-5.13,8.36-.72,3.14-1.07,6.42-1.07,9.84l4.7,197.83c0,22.84,12.97,34.26,38.91,34.26v12.82h-120.57v.03Z" />
        </g>
      </g>
    </g>
  </g>
</svg>