<?xml version="1.0" encoding="UTF-8"?>
<svg xmlns="http://www.w3.org/2000/svg" version="1.1" viewBox="0 0 538.58 538.58">
  <!-- Generator: Adobe Illustrator 29.0.0, SVG Export Plug-In . SVG Version: 1.2.0 Build 15)  -->
  <g>
    <g id="Layer_1">
      <g id="Layer_1-2" data-name="Layer_1">
        <g id="Layer_1-2">
          <g id="Layer_1-2-2" data-name="Layer_1-2">
            <g>
              <path d="M81.47,309.89v-9.63l3.92-.35c2.29-.24,3.44-1.34,3.44-3.32v-55.23l-6.77-.35v-10.1h32.54c11.64,0,20.72,3.09,27.26,9.26,6.53,6.18,9.8,15.32,9.8,27.44,0,7.52-.99,14.07-2.97,19.66-1.98,5.58-4.68,9.96-8.08,13.13-6.81,6.33-15.28,9.5-25.42,9.5h-33.73,0ZM103.33,242.43v56.06h12.12c6.81,0,12.12-2.46,15.92-7.37,3.8-4.91,5.7-12.03,5.7-21.38,0-18.21-7.71-27.32-23.15-27.32h-10.58,0Z"/>
              <path d="M179.64,250.16v49.88l6.77.35v9.5h-28.27v-9.03l3.92-.35c2.29-.24,3.44-1.5,3.44-3.8v-33.01c0-1.34-.22-2.25-.66-2.73s-1.21-.72-2.31-.72l-4.16-.24v-9.86h21.26ZM164.68,239.88c-1.66-1.62-2.49-3.7-2.49-6.23s.83-4.65,2.49-6.35,3.84-2.55,6.53-2.55,4.89.85,6.6,2.55,2.55,3.81,2.55,6.35-.85,4.62-2.55,6.23-3.9,2.43-6.6,2.43-4.86-.81-6.53-2.43Z"/>
              <path d="M222.38,259.19c-1.9-.72-4.2-1.07-6.89-1.07s-4.85.62-6.47,1.83c-1.62,1.23-2.43,2.73-2.43,4.51s.29,3.17.89,4.16,1.53,1.83,2.79,2.55c1.98,1.03,4.35,1.92,7.13,2.68,2.76.75,4.83,1.34,6.18,1.77,1.34.44,3.03,1.17,5.05,2.2s3.54,2.14,4.58,3.32c2.76,2.93,4.16,6.69,4.16,11.28,0,5.94-2.16,10.59-6.47,13.95-4.31,3.36-9.8,5.05-16.45,5.05-9.66,0-16.94-1.23-21.85-3.69v-16.51l10.68-.83v5.7c0,3.48,3.32,5.22,9.98,5.22s9.98-2.41,9.98-7.24c0-1.74-.57-3.17-1.72-4.27-1.15-1.11-2.27-1.86-3.38-2.25s-2.43-.78-3.98-1.19c-1.54-.39-3.05-.78-4.51-1.19-1.47-.39-3.05-.93-4.74-1.61-1.71-.67-3.59-1.65-5.64-2.91-4.04-2.61-6.06-6.99-6.06-13.13s2.18-10.86,6.53-14.19,9.84-4.99,16.45-4.99,13.16,1.59,19.66,4.74v14.25l-10.68.83v-4.99c0-1.98-.91-3.32-2.73-4.04l-.02.05h-.03Z"/>
              <path d="M249.69,321.18v-57.48c0-1.34-.22-2.27-.66-2.79-.44-.51-1.21-.77-2.31-.77l-4.99-.35v-9.63h20.07v7.71c1.26-2.37,3.57-4.56,6.89-6.53s7.28-2.97,11.88-2.97c14.33,0,21.5,10.06,21.5,30.16,0,10.69-2.33,18.89-7.01,24.58-4.68,5.7-11.01,8.55-19.01,8.55-4.74,0-8.99-1.15-12.71-3.44v16.39l9.63.48v9.38h-30.64v-9.03l3.92-.35c1.19-.16,2.06-.5,2.61-1.01s.83-1.49.83-2.91h0ZM287.35,279.73c0-13.22-4-19.83-12-19.83-3.32,0-6.16,1.01-8.49,3.03s-3.51,4.41-3.51,7.19v27.32c3.01,1.98,6.67,2.97,10.98,2.97s7.56-1.98,9.74-5.94c2.18-3.96,3.26-8.87,3.26-14.72h0Z"/>
              <path d="M327.83,225.21v74.82l6.77.35v9.5h-28.27v-9.03l3.92-.35c2.29-.24,3.44-1.5,3.44-3.8v-58.55c0-1.74-.99-2.7-2.97-2.85l-4.16-.24v-9.86h21.26,0Z"/>
              <path d="M391.81,252.53v44.18c0,1.26.22,2.14.66,2.61.43.48,1.21.75,2.31.83l3.8.24v9.5h-18.89v-6.89l-.35-.12c-3.96,5.7-9.38,8.55-16.27,8.55-8.08,0-14.06-2.58-17.93-7.72s-5.82-12.18-5.82-21.14c0-10.76,2.61-19.16,7.83-25.18,5.22-6.02,13.07-9.03,23.52-9.03,6.72,0,13.77,1.38,21.14,4.16h0v.03ZM378.03,291v-30.76c-2.22-1.03-5.26-1.55-9.15-1.55-5.3,0-9.15,2.14-11.52,6.41-2.37,4.27-3.57,9.93-3.57,16.98,0,12.83,4.12,19.24,12.35,19.24,3.48,0,6.33-1.05,8.55-3.15,2.22-2.1,3.32-4.49,3.32-7.19h0Z"/>
              <path d="M445,307.64v-9.03c-4.35,6.18-10.76,9.26-19.24,9.26-12.27,0-18.41-6.84-18.41-20.55v-23.87c0-2.14-.99-3.24-2.97-3.32l-3.8-.24v-9.74h20.9v34.08c0,4.2.6,7.37,1.77,9.5,1.19,2.14,3.64,3.21,7.37,3.21s6.71-1.15,8.97-3.44,3.38-5.07,3.38-8.31v-21.5c0-1.34-.22-2.27-.66-2.79s-1.21-.77-2.31-.77l-3.8-.24v-9.74h20.9v57.48c0,9.58-2.31,16.59-6.95,21.02-4.63,4.43-11.64,6.66-21.02,6.66s-16.68-1.31-21.92-3.92v-16.51l11.28-.95v5.7c0,2.14.99,3.58,2.97,4.34,1.98.75,4.71,1.13,8.19,1.13,10.21,0,15.32-5.82,15.32-17.46h.02Z"/>
            </g>
          </g>
        </g>
      </g>
    </g>
  </g>
</svg>