<?xml version="1.0" encoding="UTF-8"?>
<svg xmlns="http://www.w3.org/2000/svg" version="1.1" viewBox="0 0 306.14 161.57">
  <!-- Generator: Adobe Illustrator 29.0.0, SVG Export Plug-In . SVG Version: 1.2.0 Build 15)  -->
  <g>
    <g id="Layer_1">
      <g id="Layer_1-2" data-name="Layer_1">
        <g id="Layer_1-2">
          <g>
            <path d="M70.17,32.3c0,.72.1,1.3.3,1.73.2.43.47.77.81,1s.74.39,1.2.46c.46.08.95.11,1.46.11h1.06v1.93h-14.31v-1.93h1.06c.51,0,.99-.03,1.45-.1s.86-.21,1.2-.42c.34-.21.62-.52.82-.93s.3-.95.3-1.63V6.98h-4.4c-.67,0-1.24.1-1.7.3s-.83.48-1.12.82c-.29.34-.51.75-.65,1.2-.14.46-.24.94-.3,1.45l-.25,1.98h-2.38l.22-8.04h25.9l.22,8.04h-2.38l-.22-1.98c-.06-.51-.17-.99-.31-1.45-.15-.46-.37-.86-.65-1.2s-.66-.62-1.12-.82-1.04-.3-1.73-.3h-4.47v25.32h0Z"/>
            <path d="M97.64,37.53h-13.28v-1.93h.13c.52,0,1.01-.04,1.47-.11s.85-.23,1.19-.46c.34-.23.61-.56.81-1,.2-.43.3-1.01.3-1.73v-14.35c0-.67-.1-1.22-.3-1.63-.2-.41-.48-.73-.82-.96-.34-.22-.75-.37-1.2-.45-.46-.07-.94-.11-1.45-.11h-.13v-1.93h7.08l.88,4.56h.22c.3-.69.61-1.34.92-1.94.31-.61.7-1.14,1.16-1.6.46-.46,1.02-.82,1.7-1.08s1.52-.39,2.54-.39c1.68,0,2.92.29,3.74.88.82.58,1.22,1.41,1.22,2.47,0,.48-.08.92-.24,1.33s-.41.75-.75,1.04c-.34.29-.79.52-1.33.67-.54.16-1.2.24-1.98.24,0-1.27-.18-2.19-.54-2.75s-.99-.84-1.89-.84c-.57,0-1.08.16-1.53.48s-.84.75-1.18,1.28c-.34.53-.62,1.14-.85,1.83-.23.69-.42,1.4-.56,2.12-.14.73-.24,1.45-.3,2.17-.06.72-.09,1.37-.09,1.95v7.23c0,.67.1,1.22.3,1.63.2.41.48.72.82.93s.75.35,1.2.42c.46.07.94.1,1.45.1h1.28v1.93h0Z"/>
            <path d="M116.41,14.71c-.88,0-1.6.12-2.15.37s-.97.6-1.28,1.04c-.31.45-.51.98-.62,1.59-.1.61-.16,1.28-.16,2-1.27,0-2.24-.22-2.91-.65-.67-.43-1-1.18-1-2.25,0-.79.22-1.47.65-2.02s1.03-1.01,1.79-1.36c.76-.35,1.64-.61,2.64-.77s2.07-.25,3.21-.25c1.41,0,2.64.14,3.68.42,1.05.28,1.92.73,2.63,1.36.7.63,1.23,1.45,1.58,2.46s.53,2.25.53,3.72v11.93c0,.64.05,1.18.16,1.6.1.42.27.76.49,1.01s.52.43.89.54c.37.1.8.16,1.31.16h.13v1.93h-6.22l-.72-3.95h-.38c-.48.64-.94,1.24-1.39,1.77-.45.54-.94,1-1.48,1.39s-1.15.69-1.83.91-1.5.33-2.46.33c-1.02,0-1.97-.15-2.84-.44s-1.63-.74-2.27-1.35c-.64-.61-1.13-1.37-1.49-2.29s-.54-2.01-.54-3.27c0-2.44.87-4.25,2.61-5.44,1.74-1.18,4.37-1.83,7.89-1.93l3.82-.13v-2.76c0-.82-.04-1.58-.13-2.28s-.28-1.29-.58-1.8c-.3-.5-.73-.89-1.29-1.17s-1.31-.42-2.26-.42h0ZM110.84,30.86c0,1.44.3,2.51.91,3.22.61.71,1.55,1.07,2.82,1.07.93,0,1.77-.15,2.53-.45s1.4-.73,1.93-1.28.94-1.23,1.22-2.02.43-1.68.43-2.65v-3.73l-2.94.13c-1.3.06-2.39.22-3.27.48s-1.58.63-2.12,1.1c-.54.47-.92,1.05-1.16,1.74-.23.69-.35,1.48-.35,2.38h0Z"/>
            <path d="M141.69,37.98c-1.53,0-2.94-.24-4.22-.71-1.29-.47-2.4-1.22-3.32-2.24-.93-1.02-1.65-2.32-2.17-3.92-.52-1.59-.77-3.52-.77-5.78,0-2.46.26-4.51.77-6.17s1.24-2.98,2.16-3.99c.92-1,2.01-1.71,3.26-2.13s2.6-.63,4.05-.63c.96,0,1.91.09,2.86.28s1.81.48,2.57.86c.76.39,1.38.88,1.86,1.47s.72,1.28.72,2.08c0,1.06-.34,1.81-1.03,2.25-.69.43-1.71.65-3.08.65,0-.72-.06-1.4-.18-2.04s-.33-1.21-.62-1.7-.69-.87-1.19-1.15-1.14-.42-1.92-.42c-.88,0-1.68.17-2.39.49-.71.33-1.32.9-1.83,1.71-.51.81-.9,1.89-1.17,3.26s-.4,3.07-.4,5.12c0,3.27.54,5.7,1.63,7.3,1.09,1.6,2.86,2.4,5.33,2.4,1.42,0,2.67-.3,3.73-.9,1.06-.6,1.86-1.37,2.38-2.31.22.18.41.42.56.72s.22.66.22,1.08c0,.52-.17,1.05-.49,1.57-.33.52-.82,1-1.47,1.42s-1.46.76-2.44,1.02-2.11.39-3.41.39v.02h0Z"/>
            <path d="M167.47,22.73l6.13,9.1c.79,1.23,1.58,2.16,2.37,2.81.79.64,1.7.97,2.73.97h.13v1.93h-.65c-1.33,0-2.43-.04-3.29-.12-.86-.08-1.61-.28-2.24-.58-.63-.31-1.21-.76-1.73-1.35-.52-.59-1.11-1.4-1.75-2.41l-4.61-7.21-3.39,2.52v4.16c0,.67.1,1.22.3,1.63s.48.72.82.93c.34.21.74.35,1.2.42s.94.1,1.45.1h.13v1.93h-12.38v-1.93h.36c.52,0,1.01-.04,1.47-.11s.85-.23,1.19-.46.61-.56.81-1c.2-.43.3-1.01.3-1.73V7.63c0-.67-.1-1.22-.3-1.63s-.48-.73-.82-.96c-.34-.22-.75-.37-1.2-.44s-.94-.1-1.45-.1h-.36v-1.93h8.47v17.75c0,.42,0,.95-.02,1.61,0,.65-.04,1.29-.07,1.92-.03.72-.06,1.48-.09,2.27l5.75-6.29c.49-.55.9-1.04,1.22-1.46.32-.42.58-.79.77-1.1.2-.31.33-.6.41-.84.07-.25.11-.48.11-.71,0-.39-.18-.64-.55-.75s-.93-.17-1.7-.17v-1.93h10.15v1.93c-1.06,0-2.11.37-3.13,1.12-1.03.75-2.14,1.8-3.34,3.17l-3.24,3.64s.04,0,.04,0Z"/>
            <path d="M182.06,35.6c.51,0,.99-.03,1.45-.1s.86-.21,1.2-.42.62-.52.82-.93c.2-.41.3-.95.3-1.63v-14.58c0-.67-.1-1.22-.3-1.63s-.48-.73-.82-.96c-.34-.22-.75-.37-1.2-.45-.46-.07-.94-.11-1.45-.11h-.13v-1.93h8.22v19.43c0,.72.1,1.3.3,1.73s.47.77.81,1,.74.39,1.2.46c.46.08.95.11,1.46.11h.61v1.93h-13.07v-1.93h.61,0ZM185.18,5.41c0-.54.07-.99.2-1.35s.32-.65.56-.88c.24-.22.52-.38.83-.47s.66-.13,1.03-.13.7.04,1.01.13.59.25.82.47c.23.22.42.52.56.88.14.36.21.81.21,1.35s-.07.99-.21,1.35-.33.65-.56.88c-.23.22-.51.39-.82.48-.31.1-.65.15-1.01.15s-.72-.05-1.03-.15c-.31-.1-.59-.26-.83-.48s-.43-.52-.56-.88-.2-.81-.2-1.35Z"/>
            <path d="M209.94,35.6v1.93h-12.38v-1.93h.38c.52,0,1.01-.04,1.47-.11s.85-.23,1.19-.46.61-.56.81-1c.2-.43.3-1.01.3-1.73v-14.35c0-.67-.1-1.22-.3-1.63s-.48-.73-.82-.96c-.34-.22-.75-.37-1.2-.45-.46-.07-.94-.11-1.45-.11h-.13v-1.93h7.44l.61,3.73h.22c.48-.85.99-1.55,1.52-2.1s1.09-.97,1.68-1.28c.59-.31,1.22-.52,1.89-.63.67-.11,1.37-.17,2.1-.17,1.21,0,2.29.18,3.25.53s1.76.89,2.43,1.62,1.18,1.66,1.53,2.8.53,2.49.53,4.07v10.87c0,.72.09,1.3.26,1.73s.42.77.73,1,.69.39,1.12.46c.43.08.91.11,1.42.11h.16v1.93h-8.02v-15.88c0-1-.09-1.89-.27-2.67s-.47-1.44-.87-1.98-.92-.95-1.56-1.22c-.64-.28-1.43-.42-2.36-.42-1.05,0-1.93.2-2.64.61-.71.4-1.28.95-1.72,1.64-.43.69-.75,1.48-.93,2.38s-.28,1.84-.28,2.83v9.7c0,.67.1,1.22.3,1.63s.48.72.82.93c.34.21.74.35,1.2.42s.94.1,1.45.1h.13,0Z"/>
            <path d="M250.27,13.84c0,.33-.05.64-.15.93s-.24.55-.44.76c-.19.22-.45.39-.75.52-.31.13-.67.19-1.09.19,0-.18-.02-.36-.07-.54s-.12-.35-.24-.51-.27-.28-.46-.38-.45-.15-.76-.15c-.39,0-.74.04-1.06.13s-.62.23-.92.43c.52.64.95,1.4,1.29,2.28s.51,1.97.51,3.29c0,1.14-.17,2.19-.52,3.16-.34.97-.86,1.8-1.54,2.5s-1.54,1.25-2.58,1.65c-1.04.4-2.26.6-3.65.6-.18,0-.38,0-.61-.01-.22,0-.45-.01-.67-.02-.22,0-.43-.02-.63-.04-.19-.02-.35-.04-.47-.06-.3.15-.58.31-.85.49s-.5.38-.71.61-.36.48-.48.76-.18.6-.18.94c0,.37.07.67.21.9s.34.4.59.53.56.21.91.25.73.06,1.13.06h5.21c1.38,0,2.55.17,3.5.52.96.34,1.74.82,2.35,1.43s1.05,1.33,1.33,2.18.42,1.76.42,2.75c0,1.32-.24,2.51-.73,3.57-.49,1.06-1.23,1.97-2.24,2.71-1,.74-2.27,1.31-3.81,1.72s-3.34.61-5.42.61c-3.21,0-5.6-.59-7.19-1.77s-2.38-2.83-2.38-4.94c0-.9.16-1.68.47-2.36.31-.67.74-1.25,1.27-1.73s1.14-.87,1.83-1.17,1.42-.52,2.18-.65c-.31-.14-.62-.31-.92-.54-.3-.22-.57-.49-.81-.81-.24-.31-.43-.67-.58-1.08-.15-.4-.22-.85-.22-1.35,0-.91.24-1.7.72-2.37.48-.67,1.24-1.31,2.29-1.94-.66-.27-1.25-.64-1.76-1.11s-.95-1.01-1.3-1.62-.62-1.27-.81-1.99-.28-1.46-.28-2.22c0-1.33.18-2.52.54-3.57s.9-1.94,1.62-2.67,1.62-1.29,2.7-1.68,2.34-.58,3.8-.58c.55,0,1.1.04,1.64.12s1.04.19,1.49.34c.46.14.87.3,1.24.48.37.18.66.37.89.56.22-.24.49-.51.79-.8.3-.29.64-.56,1.01-.81s.78-.45,1.22-.62c.44-.16.92-.25,1.43-.25.46,0,.87.06,1.2.19.34.13.62.3.84.52s.39.47.51.76.17.6.17.91h-.02,0ZM230.86,41.58c0,.67.09,1.3.27,1.89s.49,1.09.94,1.5,1.06.75,1.82.99c.76.24,1.73.36,2.9.36,1.65,0,3.01-.14,4.08-.42s1.92-.66,2.55-1.16c.63-.49,1.07-1.08,1.33-1.76.25-.68.38-1.43.38-2.24,0-.7-.1-1.28-.3-1.74s-.5-.82-.9-1.08c-.4-.26-.89-.45-1.47-.55s-1.26-.16-2.02-.16h-4.52c-.64,0-1.27.06-1.88.17s-1.15.33-1.62.64c-.47.31-.85.76-1.13,1.33-.29.57-.43,1.31-.43,2.22h0ZM233.54,20.8c0,1.96.33,3.4.98,4.31s1.72,1.37,3.2,1.37c.75,0,1.38-.11,1.9-.34.52-.22.94-.57,1.27-1.03.33-.46.57-1.06.71-1.79s.21-1.59.21-2.59c0-2.07-.31-3.59-.94-4.58s-1.69-1.48-3.19-1.48-2.54.51-3.18,1.52-.96,2.55-.96,4.62h0Z"/>
            <path d="M9.99,93.19c-1.15,0-2.2-.1-3.13-.3-.94-.2-1.73-.51-2.39-.92-.66-.41-1.17-.92-1.53-1.53s-.54-1.31-.54-2.12c0-.61.1-1.13.3-1.54s.45-.74.74-.98c.29-.24.61-.41.94-.51.34-.1.64-.15.91-.15,0,.81.08,1.56.25,2.27.16.7.44,1.32.83,1.85s.9.95,1.54,1.26c.64.31,1.42.46,2.35.46.82,0,1.55-.1,2.18-.3.63-.2,1.16-.49,1.58-.85.43-.37.75-.81.98-1.33s.34-1.08.34-1.7c0-.57-.09-1.06-.26-1.47s-.47-.8-.9-1.16c-.43-.36-1.01-.73-1.74-1.1-.73-.37-1.66-.8-2.76-1.28-1.18-.52-2.21-1.03-3.09-1.52s-1.6-1.01-2.17-1.58c-.57-.57-1-1.22-1.28-1.94-.28-.73-.43-1.59-.43-2.59s.21-1.98.62-2.79c.41-.81,1-1.49,1.76-2.03.76-.55,1.68-.96,2.74-1.25,1.06-.29,2.25-.43,3.55-.43,1.09,0,2.06.11,2.9.34.84.22,1.54.53,2.11.91.57.38,1,.83,1.28,1.35s.43,1.06.43,1.63c0,.84-.29,1.51-.86,2.01-.58.5-1.4.75-2.46.75,0-1.54-.32-2.74-.95-3.59-.64-.85-1.64-1.28-3-1.28-.78,0-1.45.09-2,.27s-1.01.43-1.36.76-.61.72-.77,1.17c-.17.45-.25.94-.25,1.48,0,.58.1,1.09.31,1.52s.54.82,1,1.18c.46.36,1.05.71,1.77,1.04.73.34,1.6.72,2.62,1.13,1.21.51,2.25,1.01,3.12,1.5s1.58,1.03,2.15,1.62.98,1.24,1.25,1.98c.27.73.4,1.58.4,2.54,0,1.2-.22,2.25-.65,3.15s-1.05,1.65-1.84,2.26c-.79.61-1.75,1.06-2.86,1.36-1.12.3-2.36.45-3.72.45,0,0-.01,0-.01,0Z"/>
            <path d="M56.13,80.36c0,2.22-.21,4.13-.62,5.75s-1.01,2.95-1.81,4c-.79,1.05-1.77,1.82-2.94,2.33s-2.51.75-4.02.75c-.88,0-1.69-.1-2.4-.29s-1.37-.47-1.94-.83c-.58-.36-1.09-.79-1.53-1.28s-.83-1.04-1.16-1.64h-.18c.03.79.06,1.54.09,2.22,0,.28.03.58.03.89s0,.6.02.86c0,.27,0,.51.02.73v4.91c0,.67.1,1.22.3,1.63.2.41.48.73.82.94.34.22.74.36,1.2.43s.94.1,1.45.1h.13v1.93h-12.38v-1.93h.36c.52,0,1.01-.04,1.47-.11.46-.08.85-.23,1.19-.46.34-.23.61-.57.81-1.01s.3-1.02.3-1.74v-25.38c0-.67-.1-1.22-.3-1.63-.2-.41-.48-.73-.82-.96-.34-.22-.75-.37-1.2-.45-.46-.07-.94-.11-1.45-.11h-.58v-1.93h8.04l.47,4.16h.18c.34-.7.73-1.34,1.17-1.91.43-.57.94-1.05,1.51-1.45.57-.4,1.21-.7,1.93-.92s1.53-.33,2.43-.33c1.51,0,2.85.25,4.02.75,1.17.5,2.15,1.27,2.94,2.31.79,1.04,1.4,2.36,1.81,3.96s.62,3.5.62,5.71h.02ZM45.95,70.57c-1.2,0-2.2.2-3,.6s-1.44,1-1.92,1.81-.82,1.83-1.02,3.06c-.2,1.23-.3,2.67-.3,4.34s.1,3.02.3,4.25.55,2.26,1.03,3.1c.49.84,1.13,1.47,1.93,1.9s1.81.64,3.02.64c1.02,0,1.88-.21,2.59-.64s1.3-1.06,1.75-1.9c.46-.84.79-1.88,1-3.11.21-1.24.31-2.66.31-4.28s-.1-3.06-.31-4.28c-.21-1.22-.54-2.24-1-3.04-.46-.81-1.05-1.42-1.77-1.82s-1.6-.61-2.62-.61v-.02h0Z"/>
            <path d="M79.65,69.92c-.88,0-1.6.12-2.15.37s-.97.6-1.28,1.04c-.31.45-.51.98-.62,1.59-.1.61-.16,1.28-.16,2-1.27,0-2.24-.22-2.91-.65-.67-.43-1-1.18-1-2.25,0-.79.22-1.47.65-2.02.43-.55,1.03-1.01,1.79-1.36s1.64-.61,2.64-.77c1-.16,2.07-.25,3.21-.25,1.41,0,2.64.14,3.68.42,1.05.28,1.92.73,2.63,1.36.7.63,1.23,1.45,1.58,2.46s.53,2.25.53,3.72v11.93c0,.64.05,1.18.16,1.6.1.42.27.76.49,1.01s.52.43.89.54c.37.1.8.16,1.31.16h.13v1.93h-6.22l-.72-3.95h-.38c-.48.64-.94,1.24-1.39,1.77-.45.54-.94,1-1.48,1.39s-1.15.69-1.83.91-1.5.33-2.46.33c-1.02,0-1.97-.15-2.84-.44s-1.63-.74-2.27-1.35-1.13-1.37-1.49-2.29-.54-2.01-.54-3.27c0-2.44.87-4.25,2.61-5.44,1.74-1.18,4.37-1.83,7.89-1.93l3.82-.13v-2.76c0-.82-.04-1.58-.13-2.28s-.28-1.29-.58-1.8c-.3-.5-.73-.89-1.29-1.17s-1.31-.42-2.26-.42h0ZM74.08,86.07c0,1.44.3,2.51.91,3.22s1.55,1.07,2.82,1.07c.93,0,1.77-.15,2.53-.45.76-.3,1.4-.73,1.93-1.28s.94-1.23,1.22-2.02c.28-.79.43-1.68.43-2.65v-3.73l-2.94.13c-1.3.06-2.39.22-3.27.48s-1.58.63-2.12,1.1-.92,1.05-1.16,1.74c-.23.69-.35,1.48-.35,2.38h0Z"/>
            <path d="M113.33,90.77c.55,0,1.06-.03,1.53-.09.46-.06.94-.13,1.42-.22v2.02c-.19.09-.45.18-.76.27s-.66.17-1.02.24c-.37.07-.75.12-1.16.16-.4.04-.79.06-1.15.06-1.17,0-2.17-.12-3.01-.37s-1.53-.65-2.07-1.2-.94-1.29-1.2-2.2c-.26-.91-.39-2.03-.39-3.35v-15.37h-3.5v-1.84c.55,0,1.16-.11,1.83-.34.67-.22,1.25-.6,1.76-1.12.52-.57.95-1.25,1.27-2.03.32-.79.6-1.77.84-2.95h2.11v5.66h6.02v2.63h-6.02v15.5c0,1.57.32,2.73.95,3.46.64.73,1.49,1.1,2.55,1.1,0,0,0-.02,0-.02Z"/>
            <path d="M129.24,90.81c.51,0,.99-.03,1.45-.1.46-.07.86-.21,1.2-.42s.62-.52.82-.93c.2-.41.3-.95.3-1.63v-14.58c0-.67-.1-1.22-.3-1.63-.2-.41-.48-.73-.82-.96-.34-.22-.75-.37-1.2-.45-.46-.07-.94-.11-1.45-.11h-.13v-1.93h8.22v19.43c0,.72.1,1.3.3,1.73s.47.77.81,1,.74.39,1.2.46c.46.08.95.11,1.46.11h.61v1.93h-13.07v-1.93h.61-.01ZM132.36,60.62c0-.54.07-.99.2-1.35.14-.36.32-.65.56-.88.24-.22.52-.38.83-.47s.66-.13,1.03-.13.7.04,1.01.13.59.25.82.47c.23.22.42.52.56.88s.21.81.21,1.35-.07.99-.21,1.35-.33.65-.56.88c-.23.22-.51.39-.82.48-.31.1-.65.15-1.01.15s-.72-.05-1.03-.15-.59-.26-.83-.48-.43-.52-.56-.88-.2-.81-.2-1.35Z"/>
            <path d="M163.66,93.19c-1.66,0-3.16-.28-4.48-.84s-2.45-1.38-3.36-2.46-1.61-2.4-2.1-3.96-.73-3.34-.73-5.34c0-4.3.88-7.53,2.65-9.7,1.77-2.17,4.28-3.26,7.55-3.26,1.48,0,2.82.23,4,.7,1.18.46,2.19,1.16,3.01,2.08.82.92,1.46,2.07,1.9,3.44.44,1.37.66,2.96.66,4.77v2.11h-15.32c.03,1.68.2,3.12.51,4.32.31,1.21.75,2.2,1.33,2.98.58.78,1.28,1.35,2.12,1.72s1.8.55,2.9.55c.79,0,1.53-.09,2.21-.27s1.3-.42,1.85-.72,1.04-.64,1.47-1.02.78-.78,1.04-1.2c.21.09.41.28.6.56s.28.62.28,1.01c0,.46-.17.96-.49,1.49-.33.53-.83,1.02-1.5,1.47s-1.52.82-2.53,1.12-2.2.45-3.56.45h0ZM156.13,61.09c0-.48.06-.88.18-1.21.12-.33.28-.6.49-.8s.46-.35.74-.44.59-.13.92-.13.64.04.92.13.54.24.75.44c.22.2.39.47.51.8.12.33.18.73.18,1.21s-.06.86-.18,1.19c-.12.33-.29.6-.51.81s-.47.36-.75.45-.59.13-.92.13c-.67,0-1.23-.19-1.67-.58s-.66-1.06-.66-2h0ZM163.1,70.1c-1.71,0-3.02.69-3.94,2.08s-1.46,3.41-1.63,6.08h10.58c0-1.21-.09-2.32-.27-3.32s-.46-1.86-.85-2.58-.9-1.27-1.54-1.66c-.64-.39-1.42-.58-2.35-.58v-.02h0ZM164.87,61.09c0-.48.06-.88.18-1.21.12-.33.28-.6.49-.8s.46-.35.74-.44.59-.13.92-.13.64.04.92.13.54.24.75.44.39.47.51.8c.12.33.18.73.18,1.21s-.06.86-.18,1.19c-.12.33-.29.6-.51.81s-.47.36-.75.45c-.29.09-.59.13-.92.13-.67,0-1.23-.19-1.67-.58s-.66-1.06-.66-2h0Z"/>
            <path d="M198.44,92.74h-13.28v-1.93h.13c.52,0,1.01-.04,1.47-.11s.85-.23,1.19-.46c.34-.23.61-.56.81-1,.2-.43.3-1.01.3-1.73v-14.35c0-.67-.1-1.22-.3-1.63-.2-.41-.48-.73-.82-.96-.34-.22-.75-.37-1.2-.45-.46-.07-.94-.11-1.45-.11h-.13v-1.93h7.08l.88,4.56h.22c.3-.69.61-1.34.92-1.94.31-.61.7-1.14,1.16-1.6s1.02-.82,1.7-1.08,1.52-.39,2.54-.39c1.68,0,2.92.29,3.74.88s1.22,1.41,1.22,2.47c0,.48-.08.92-.24,1.33s-.41.75-.75,1.04-.79.52-1.33.67c-.54.16-1.2.24-1.98.24,0-1.27-.18-2.19-.54-2.75s-.99-.84-1.89-.84c-.57,0-1.08.16-1.53.48s-.84.75-1.18,1.28-.62,1.14-.85,1.83-.42,1.4-.56,2.12c-.14.73-.24,1.45-.3,2.17s-.09,1.37-.09,1.95v7.23c0,.67.1,1.22.3,1.63.2.41.48.72.82.93.34.21.74.35,1.2.42s.94.1,1.45.1h1.28v1.93h0Z"/>
            <path d="M217.12,90.81c.51,0,.99-.03,1.45-.1s.86-.21,1.2-.42.62-.52.82-.93c.2-.41.3-.95.3-1.63v-14.58c0-.67-.1-1.22-.3-1.63-.2-.41-.48-.73-.82-.96-.34-.22-.75-.37-1.2-.45-.46-.07-.94-.11-1.45-.11h-.13v-1.93h8.22v19.43c0,.72.1,1.3.3,1.73s.47.77.81,1,.74.39,1.2.46c.46.08.95.11,1.46.11h.61v1.93h-13.07v-1.93h.61,0ZM220.24,60.62c0-.54.07-.99.2-1.35s.32-.65.56-.88c.24-.22.52-.38.83-.47s.66-.13,1.03-.13.7.04,1.01.13.59.25.82.47c.23.22.42.52.56.88s.21.81.21,1.35-.07.99-.21,1.35-.33.65-.56.88c-.23.22-.51.39-.82.48-.31.1-.65.15-1.01.15s-.72-.05-1.03-.15-.59-.26-.83-.48-.43-.52-.56-.88-.2-.81-.2-1.35Z"/>
            <path d="M254.2,90.81v1.93h-12.38v-1.93h.38c.52,0,1.01-.04,1.47-.11s.85-.23,1.19-.46c.34-.23.61-.56.81-1,.2-.43.3-1.01.3-1.73v-14.35c0-.67-.1-1.22-.3-1.63-.2-.41-.48-.73-.82-.96-.34-.22-.75-.37-1.2-.45-.46-.07-.94-.11-1.45-.11h-.13v-1.93h7.44l.61,3.73h.22c.48-.85.99-1.55,1.52-2.1.53-.55,1.09-.97,1.68-1.28s1.22-.52,1.89-.63c.67-.11,1.37-.17,2.1-.17,1.21,0,2.29.18,3.25.53s1.76.89,2.43,1.62c.67.73,1.18,1.66,1.53,2.8s.53,2.49.53,4.07v10.87c0,.72.09,1.3.26,1.73s.42.77.73,1,.69.39,1.12.46c.43.08.91.11,1.42.11h.16v1.93h-8.02v-15.88c0-1-.09-1.89-.27-2.67s-.47-1.44-.87-1.98-.92-.95-1.56-1.22c-.64-.28-1.43-.42-2.36-.42-1.05,0-1.93.2-2.64.61-.71.4-1.28.95-1.72,1.64-.43.69-.75,1.48-.93,2.38s-.28,1.84-.28,2.83v9.7c0,.67.1,1.22.3,1.63.2.41.48.72.82.93.34.21.74.35,1.2.42s.94.1,1.45.1h.13-.01Z"/>
            <path d="M303.73,69.04c0,.33-.05.64-.15.93s-.24.55-.44.76c-.19.22-.45.39-.75.52-.31.13-.67.19-1.09.19,0-.18-.02-.36-.07-.54s-.12-.35-.24-.51-.27-.28-.46-.38-.45-.15-.76-.15c-.39,0-.74.04-1.06.13s-.62.23-.92.43c.52.64.95,1.4,1.29,2.28s.51,1.97.51,3.29c0,1.14-.17,2.19-.52,3.16-.34.97-.86,1.8-1.54,2.5s-1.54,1.25-2.58,1.65c-1.04.4-2.26.6-3.65.6-.18,0-.38,0-.61-.01-.22,0-.45-.01-.67-.02-.22,0-.43-.02-.63-.04-.19-.02-.35-.04-.47-.06-.3.15-.58.31-.85.49-.27.18-.5.38-.71.61s-.36.48-.48.76c-.12.28-.18.6-.18.94,0,.37.07.67.21.9.14.23.34.4.59.53s.56.21.91.25.73.06,1.13.06h5.21c1.38,0,2.55.17,3.5.52.96.34,1.74.82,2.35,1.43s1.05,1.33,1.33,2.18.42,1.76.42,2.75c0,1.32-.24,2.51-.73,3.57-.49,1.06-1.23,1.97-2.24,2.71-1,.74-2.27,1.31-3.81,1.72s-3.34.61-5.42.61c-3.21,0-5.6-.59-7.19-1.77s-2.38-2.83-2.38-4.94c0-.9.16-1.68.47-2.36.31-.67.74-1.25,1.27-1.73s1.14-.87,1.83-1.17c.69-.3,1.42-.52,2.18-.65-.31-.14-.62-.31-.92-.54-.3-.22-.57-.49-.81-.81-.24-.31-.43-.67-.58-1.08-.15-.4-.22-.85-.22-1.35,0-.91.24-1.7.72-2.37.48-.67,1.24-1.31,2.29-1.94-.66-.27-1.25-.64-1.76-1.11s-.95-1.01-1.3-1.62c-.35-.61-.62-1.27-.81-1.99s-.28-1.46-.28-2.22c0-1.33.18-2.52.54-3.57.36-1.05.9-1.94,1.62-2.67.72-.73,1.62-1.29,2.7-1.68,1.08-.39,2.34-.58,3.8-.58.55,0,1.1.04,1.64.12s1.04.19,1.49.34c.46.14.87.3,1.24.48s.66.37.89.56c.22-.24.49-.51.79-.8.3-.29.64-.56,1.01-.81s.78-.45,1.22-.62c.44-.16.92-.25,1.43-.25.46,0,.87.06,1.2.19.34.13.62.3.84.52.22.22.39.47.51.76s.17.6.17.91h-.02ZM284.32,96.79c0,.67.09,1.3.27,1.89s.49,1.09.94,1.5,1.06.75,1.82.99,1.73.36,2.9.36c1.65,0,3.01-.14,4.08-.42,1.07-.28,1.92-.66,2.55-1.16.63-.49,1.07-1.08,1.33-1.76.25-.68.38-1.43.38-2.24,0-.7-.1-1.28-.3-1.74s-.5-.82-.9-1.08-.89-.45-1.47-.55c-.58-.1-1.26-.16-2.02-.16h-4.52c-.64,0-1.27.06-1.88.17s-1.15.33-1.62.64-.85.76-1.13,1.33c-.29.57-.43,1.31-.43,2.22h0ZM287,76.01c0,1.96.33,3.4.98,4.31.65.91,1.72,1.37,3.2,1.37.75,0,1.38-.11,1.9-.34.52-.22.94-.57,1.27-1.03s.57-1.06.71-1.79c.14-.73.21-1.59.21-2.59,0-2.07-.31-3.59-.94-4.58-.63-.99-1.69-1.48-3.19-1.48s-2.54.51-3.18,1.52c-.64,1.01-.96,2.55-.96,4.62h0Z"/>
            <path d="M112.65,124.25c0,.33-.05.64-.15.93s-.24.55-.44.76c-.19.22-.45.39-.75.52-.31.13-.67.19-1.09.19,0-.18-.02-.36-.07-.54s-.12-.35-.24-.51-.27-.28-.46-.38-.45-.15-.76-.15c-.39,0-.74.04-1.06.13s-.62.23-.92.43c.52.64.96,1.4,1.29,2.28s.51,1.97.51,3.29c0,1.14-.17,2.19-.52,3.16-.34.97-.86,1.8-1.54,2.5s-1.54,1.25-2.58,1.65-2.26.6-3.65.6h-.61c-.22,0-.45,0-.67-.02-.22,0-.43-.02-.63-.04-.19-.02-.35-.04-.47-.06-.3.15-.58.31-.85.49-.27.18-.51.38-.71.61s-.36.48-.48.76-.18.6-.18.94c0,.37.07.67.21.9s.34.4.6.53.56.21.91.25c.35.04.73.06,1.13.06h5.21c1.38,0,2.55.17,3.5.52.96.34,1.74.82,2.35,1.43s1.05,1.33,1.33,2.18c.28.85.42,1.76.42,2.75,0,1.32-.24,2.51-.73,3.57-.49,1.06-1.23,1.97-2.24,2.71-1,.74-2.27,1.31-3.81,1.72-1.54.4-3.34.61-5.43.61-3.21,0-5.6-.59-7.19-1.77-1.59-1.18-2.38-2.83-2.38-4.94,0-.9.16-1.68.47-2.36.31-.67.74-1.25,1.27-1.73s1.14-.87,1.83-1.17,1.42-.52,2.18-.65c-.31-.14-.62-.31-.92-.54-.3-.22-.57-.49-.81-.81-.24-.31-.43-.67-.58-1.08s-.22-.85-.22-1.35c0-.91.24-1.7.72-2.37s1.24-1.31,2.29-1.94c-.66-.27-1.25-.64-1.76-1.11-.52-.47-.95-1.01-1.3-1.62-.35-.61-.62-1.27-.81-1.99-.19-.72-.28-1.46-.28-2.22,0-1.33.18-2.52.54-3.57s.9-1.94,1.62-2.67c.72-.73,1.62-1.29,2.7-1.68,1.08-.39,2.34-.58,3.8-.58.55,0,1.1.04,1.64.12s1.04.19,1.49.34c.46.14.87.3,1.24.48.37.18.66.37.89.56.22-.24.49-.51.79-.8s.64-.56,1.01-.81.78-.45,1.22-.62c.44-.16.92-.25,1.43-.25.46,0,.87.06,1.2.19.34.13.62.3.84.52s.39.47.51.76.17.6.17.91h-.02v-.02ZM93.25,151.99c0,.67.09,1.3.27,1.89.18.58.49,1.09.94,1.5s1.06.75,1.82.99,1.73.36,2.9.36c1.65,0,3.01-.14,4.08-.42s1.92-.66,2.55-1.16,1.07-1.08,1.33-1.76c.25-.68.38-1.43.38-2.24,0-.7-.1-1.28-.3-1.74-.2-.46-.5-.82-.9-1.08s-.89-.45-1.47-.55-1.26-.16-2.02-.16h-4.52c-.64,0-1.27.06-1.88.17s-1.15.33-1.62.64-.85.76-1.13,1.33-.43,1.31-.43,2.22h0ZM95.92,131.21c0,1.96.33,3.4.98,4.31s1.72,1.37,3.2,1.37c.75,0,1.38-.11,1.9-.34s.94-.57,1.27-1.03c.33-.46.57-1.06.71-1.79s.21-1.59.21-2.59c0-2.07-.31-3.59-.94-4.58-.63-.99-1.69-1.48-3.19-1.48s-2.54.51-3.18,1.52-.95,2.55-.95,4.62h0Z"/>
            <path d="M120,148.4c-1.66,0-3.16-.28-4.48-.84-1.33-.56-2.45-1.38-3.36-2.46s-1.61-2.4-2.1-3.96c-.49-1.56-.73-3.34-.73-5.34,0-4.3.88-7.53,2.65-9.7,1.77-2.17,4.28-3.26,7.55-3.26,1.48,0,2.82.23,4,.7,1.18.46,2.19,1.16,3.01,2.08s1.46,2.07,1.9,3.44.66,2.96.66,4.77v2.11h-15.32c.03,1.68.2,3.12.51,4.32.31,1.21.75,2.2,1.33,2.98s1.28,1.35,2.12,1.72c.84.37,1.8.55,2.9.55.79,0,1.53-.09,2.21-.27.68-.18,1.3-.42,1.85-.72.55-.3,1.04-.64,1.47-1.02s.77-.78,1.04-1.2c.21.09.41.28.6.56.19.28.28.62.28,1.01,0,.46-.17.96-.49,1.49-.33.53-.83,1.02-1.5,1.47s-1.52.82-2.53,1.12-2.2.45-3.56.45h-.01ZM119.44,125.31c-1.71,0-3.02.69-3.94,2.08-.92,1.39-1.46,3.41-1.63,6.08h10.58c0-1.21-.09-2.32-.27-3.32s-.46-1.86-.85-2.58-.9-1.27-1.54-1.66-1.42-.58-2.35-.58c0,0,0-.02,0-.02Z"/>
            <path d="M140.92,145.32c.54,0,.98-.1,1.34-.31.35-.21.64-.49.88-.83.23-.34.42-.75.56-1.2.14-.46.27-.93.37-1.43l.22-1.06h1.93l-.22,7.46h-18.78v-1.84l13.34-20.19h-7.19c-.6,0-1.09.08-1.48.24s-.71.39-.95.71-.45.7-.61,1.17c-.16.46-.32,1-.48,1.62l-.04.18h-1.93l.45-6.54h17.63v1.89l-13.39,20.15h8.36v-.02h-.01Z"/>
            <path d="M155.75,148.4c-1.66,0-3.16-.28-4.48-.84s-2.45-1.38-3.36-2.46-1.61-2.4-2.1-3.96c-.49-1.56-.73-3.34-.73-5.34,0-4.3.88-7.53,2.65-9.7,1.77-2.17,4.28-3.26,7.55-3.26,1.48,0,2.82.23,4,.7,1.18.46,2.19,1.16,3.01,2.08.82.92,1.46,2.07,1.9,3.44.44,1.37.66,2.96.66,4.77v2.11h-15.32c.03,1.68.2,3.12.51,4.32.31,1.21.75,2.2,1.33,2.98s1.28,1.35,2.12,1.72,1.8.55,2.9.55c.79,0,1.53-.09,2.21-.27s1.3-.42,1.85-.72,1.04-.64,1.47-1.02.78-.78,1.04-1.2c.21.09.41.28.6.56s.28.62.28,1.01c0,.46-.17.96-.49,1.49-.33.53-.83,1.02-1.5,1.47s-1.52.82-2.53,1.12-2.2.45-3.56.45h0ZM155.19,125.31c-1.71,0-3.02.69-3.94,2.08s-1.46,3.41-1.63,6.08h10.58c0-1.21-.09-2.32-.27-3.32s-.46-1.86-.85-2.58-.9-1.27-1.54-1.66-1.42-.58-2.35-.58v-.02h0Z"/>
            <path d="M162.68,146.02c.52,0,1.01-.04,1.47-.11s.85-.23,1.19-.46c.34-.23.61-.56.81-1,.2-.43.3-1.01.3-1.73v-24.67c0-.67-.1-1.22-.3-1.63s-.48-.73-.82-.96c-.34-.22-.75-.37-1.2-.44s-.94-.1-1.45-.1h-.58v-1.93h8.69v29.72c0,.72.1,1.3.29,1.73.2.43.46.77.81,1,.34.23.74.39,1.2.46.46.08.95.11,1.47.11h.58v1.93h-13.05v-1.93h.59Z"/>
            <path d="M172.91,146.02c.52,0,1.01-.04,1.47-.11s.85-.23,1.19-.46c.34-.23.61-.56.81-1,.2-.43.3-1.01.3-1.73v-24.67c0-.67-.1-1.22-.3-1.63s-.48-.73-.82-.96c-.34-.22-.75-.37-1.2-.44s-.94-.1-1.45-.1h-.58v-1.93h8.69v29.72c0,.72.1,1.3.29,1.73.2.43.46.77.81,1,.34.23.74.39,1.2.46.46.08.95.11,1.47.11h.58v1.93h-13.05v-1.93h.59Z"/>
            <path d="M183.38,146.02c.51,0,.99-.03,1.45-.1s.86-.21,1.2-.42c.34-.21.62-.52.82-.93.2-.41.3-.95.3-1.63v-14.58c0-.67-.1-1.22-.3-1.63s-.48-.73-.82-.96c-.34-.22-.75-.37-1.2-.45-.46-.07-.94-.11-1.45-.11h-.13v-1.93h8.22v19.43c0,.72.1,1.3.3,1.73s.47.77.81,1,.74.39,1.2.46c.46.08.95.11,1.46.11h.61v1.93h-13.07v-1.93h.61,0ZM186.51,115.83c0-.54.07-.99.2-1.35s.32-.65.56-.88c.24-.22.52-.38.83-.47s.66-.13,1.03-.13.7.04,1.01.13.59.25.82.47c.23.22.42.52.56.88s.21.81.21,1.35-.07.99-.21,1.35-.33.65-.56.88c-.23.22-.51.39-.82.48-.31.1-.65.15-1.01.15s-.72-.05-1.03-.15-.59-.26-.83-.48-.43-.52-.56-.88-.2-.81-.2-1.35Z"/>
            <path d="M215.6,124.25c0,.33-.05.64-.15.93s-.24.55-.44.76c-.19.22-.45.39-.75.52-.31.13-.67.19-1.09.19,0-.18-.02-.36-.07-.54s-.12-.35-.24-.51-.27-.28-.46-.38-.45-.15-.76-.15c-.39,0-.74.04-1.06.13s-.62.23-.92.43c.52.64.95,1.4,1.29,2.28s.51,1.97.51,3.29c0,1.14-.17,2.19-.52,3.16-.34.97-.86,1.8-1.54,2.5s-1.54,1.25-2.58,1.65c-1.04.4-2.26.6-3.65.6h-.61c-.22,0-.45,0-.67-.02-.22,0-.43-.02-.63-.04-.19-.02-.35-.04-.47-.06-.3.15-.58.31-.85.49-.27.18-.5.38-.71.61s-.36.48-.48.76-.18.6-.18.94c0,.37.07.67.21.9s.34.4.59.53.56.21.91.25.73.06,1.13.06h5.21c1.38,0,2.55.17,3.5.52.96.34,1.74.82,2.35,1.43s1.05,1.33,1.33,2.18c.28.85.42,1.76.42,2.75,0,1.32-.24,2.51-.73,3.57-.49,1.06-1.23,1.97-2.24,2.71-1,.74-2.27,1.31-3.81,1.72s-3.34.61-5.42.61c-3.21,0-5.6-.59-7.19-1.77-1.59-1.18-2.38-2.83-2.38-4.94,0-.9.16-1.68.47-2.36.31-.67.74-1.25,1.27-1.73s1.14-.87,1.83-1.17,1.42-.52,2.18-.65c-.31-.14-.62-.31-.92-.54-.3-.22-.57-.49-.81-.81-.24-.31-.43-.67-.58-1.08-.15-.4-.22-.85-.22-1.35,0-.91.24-1.7.72-2.37s1.24-1.31,2.29-1.94c-.66-.27-1.25-.64-1.76-1.11s-.95-1.01-1.3-1.62-.62-1.27-.81-1.99-.28-1.46-.28-2.22c0-1.33.18-2.52.54-3.57s.9-1.94,1.62-2.67c.72-.73,1.62-1.29,2.7-1.68s2.34-.58,3.8-.58c.55,0,1.1.04,1.64.12s1.04.19,1.49.34c.46.14.87.3,1.24.48.37.18.66.37.89.56.22-.24.49-.51.79-.8.3-.29.64-.56,1.01-.81s.78-.45,1.22-.62c.44-.16.92-.25,1.43-.25.46,0,.87.06,1.2.19.34.13.62.3.84.52.22.22.39.47.51.76s.17.6.17.91h-.02v-.02ZM196.19,151.99c0,.67.09,1.3.27,1.89s.49,1.09.94,1.5,1.06.75,1.82.99c.76.24,1.73.36,2.9.36,1.65,0,3.01-.14,4.08-.42s1.92-.66,2.55-1.16c.63-.49,1.07-1.08,1.33-1.76.25-.68.38-1.43.38-2.24,0-.7-.1-1.28-.3-1.74s-.5-.82-.9-1.08-.89-.45-1.47-.55-1.26-.16-2.02-.16h-4.52c-.64,0-1.27.06-1.88.17s-1.15.33-1.62.64-.85.76-1.13,1.33c-.29.57-.43,1.31-.43,2.22h0ZM198.87,131.21c0,1.96.33,3.4.98,4.31s1.72,1.37,3.2,1.37c.75,0,1.38-.11,1.9-.34.52-.22.94-.57,1.27-1.03.33-.46.57-1.06.71-1.79s.21-1.59.21-2.59c0-2.07-.31-3.59-.94-4.58-.63-.99-1.69-1.48-3.19-1.48s-2.54.51-3.18,1.52-.96,2.55-.96,4.62h0Z"/>
          </g>
        </g>
      </g>
    </g>
  </g>
</svg>