<?xml version="1.0" encoding="UTF-8"?>
<svg xmlns="http://www.w3.org/2000/svg" version="1.1" viewBox="0 0 538.58 538.58">
  <!-- Generator: Adobe Illustrator 28.7.1, SVG Export Plug-In . SVG Version: 1.2.0 Build 142)  -->
  <g>
    <g id="Layer_1">
      <g id="Layer_1-2" data-name="Layer_1">
        <g id="Layer_1-2">
          <g id="Layer_1-2-2" data-name="Layer_1-2">
            <g id="Layer_1-2-2">
              <g>
                <path d="M82.14,308.19c2.1-1.16,4.42-3.33,6.98-6.51,2.25-2.71,4.9-6.6,7.96-11.68s6.52-11.87,10.4-20.4c.31-.39.73-.58,1.28-.58s1.06.12,1.57.34c.5.24.89.6,1.16,1.11s.25,1.06-.05,1.69c-2.4,6.12-4.88,11.78-7.44,16.97s-5.1,9.76-7.61,13.71c-2.52,3.96-4.9,7.22-7.15,9.82-2.25,2.59-4.3,4.35-6.16,5.29-1.09.54-2.32.73-3.72.58s-2.75-.51-4.06-1.04c-1.32-.54-2.49-1.2-3.55-1.98-1.04-.77-1.72-1.59-2.03-2.44-.7-2.01-.82-4.76-.34-8.25.46-3.48,1.33-7.42,2.61-11.79s2.87-9.06,4.76-14.06,3.93-10.05,6.1-15.17c-1.09-.07-2.3-.07-3.66,0-1.35.08-2.71.22-4.06.41-1.36.19-2.66.44-3.89.75-1.24.31-2.25.62-3.02.93-1.24,3.26-2.81,6.86-4.71,10.81s-4.06,7.98-6.51,12.08c-2.44,4.11-5.15,8.16-8.14,12.14-2.98,3.99-6.14,7.65-9.47,10.98-3.72,3.64-7.48,6.54-11.27,8.72-3.79,2.17-7.38,3.66-10.75,4.47-3.37.82-6.39.97-9.06.46s-4.71-1.65-6.1-3.43c-1.55-1.79-2.29-4.2-2.2-7.27.07-3.06,1.28-6.69,3.6-10.87,2.87-5.12,7.48-10.84,13.83-17.2,5.34-5.27,11.31-10.11,17.9-14.53,6.59-4.42,13.86-8.02,21.85-10.81.31-.7.75-1.96,1.33-3.77.58-1.82,1.12-3.86,1.62-6.1.5-2.25.93-4.61,1.28-7.09.34-2.48.43-4.78.24-6.91s-.72-3.95-1.57-5.46-2.17-2.42-3.95-2.73c-2.25-.39-4.88-.02-7.9,1.11s-6.14,2.75-9.35,4.88-6.39,4.65-9.53,7.56c-3.14,2.9-5.87,5.94-8.19,9.12-2.32,3.18-4.15,6.37-5.46,9.59-1.32,3.21-1.74,6.21-1.28,9.01.39,2.17,1.62,3.82,3.72,4.94,2.1,1.12,4.45,1.22,7.09.29-1.09.93-2.4,1.65-3.95,2.15-1.55.51-3.19.77-4.94.82-1.74.04-3.47-.15-5.17-.58s-3.21-1.16-4.54-2.2c-1.32-1.04-2.34-2.4-3.08-4.06-.73-1.67-.99-3.67-.75-5.99.31-3.02,1.33-6.33,3.08-9.93s4.01-7.17,6.8-10.69,5.99-6.8,9.59-9.82,7.42-5.52,11.45-7.49,8.16-3.23,12.38-3.77,8.35-.04,12.38,1.52c4.73,1.79,8.23,3.82,10.52,6.1,2.29,2.29,3.72,4.81,4.3,7.56s.58,5.72,0,8.89-1.33,6.55-2.27,10.11c3.26-.31,5.99-.43,8.19-.34s4.16.31,5.87.7c1.62-3.33,3.19-6.52,4.71-9.59,1.52-3.06,2.92-5.85,4.25-8.36,1.32-2.51,2.51-4.71,3.6-6.57,1.08-1.86,2.01-3.26,2.79-4.18s1.84-1.2,3.19-.82c1.35.39,2.63,1.06,3.84,2.03,1.2.97,2.13,2.05,2.79,3.26.65,1.2.64,2.15-.05,2.85-1.32,1.32-3.1,3.84-5.34,7.56-2.25,3.72-4.61,8-7.09,12.84s-4.9,9.98-7.27,15.4c-2.37,5.43-4.35,10.53-5.99,15.34-1.62,4.81-2.71,8.99-3.26,12.55-.54,3.57-.24,5.92.93,7.09h0l-.06-.07h0ZM52.97,271.01c-1.71.62-3.86,1.74-6.45,3.37s-5.43,3.66-8.48,6.1-6.23,5.19-9.53,8.25-6.49,6.3-9.59,9.71c-5.12,5.81-8.36,10.4-9.76,13.77-1.4,3.37-1.42,5.38-.05,6.04,1.35.65,3.84-.08,7.44-2.2s7.85-5.79,12.73-10.98c2.63-2.71,5.12-5.6,7.44-8.66s4.49-6.1,6.51-9.12c2.01-3.02,3.86-5.92,5.52-8.72,1.66-2.79,3.08-5.31,4.24-7.56h-.02Z"/>
                <path d="M150.12,271.47c.24-.31.68-.44,1.33-.41s1.28.22,1.86.53,1.04.72,1.4,1.22c.34.51.36,1.03.05,1.57-1.47,2.56-3.16,5.41-5.05,8.54-1.9,3.14-3.91,6.21-6.04,9.24s-4.32,5.75-6.57,8.19-4.45,4.16-6.62,5.17c-1.16.54-2.39.72-3.66.53-1.28-.19-2.44-.62-3.48-1.28-1.04-.65-1.94-1.47-2.68-2.44s-1.14-1.91-1.22-2.85c-.15-1.23,0-2.94.46-5.12.46-2.17.97-4.15,1.52-5.92-.93,1.09-1.91,2.34-2.97,3.77-1.04,1.43-2.19,2.97-3.43,4.59s-2.54,3.26-3.89,4.88c-1.36,1.62-2.77,3.14-4.24,4.54-.7.7-1.76.97-3.19.82s-2.85-.56-4.25-1.22-2.61-1.52-3.66-2.56-1.49-2.15-1.33-3.31c.24-2.94.93-6.08,2.1-9.42,1.16-3.33,2.58-6.57,4.25-9.7,1.67-3.14,3.52-6.06,5.58-8.77,2.05-2.71,4.08-4.92,6.1-6.62,1.47-1.16,2.83-1.81,4.06-1.98,1.23-.15,2.44-.02,3.6.41s2.32,1.04,3.48,1.86,2.4,1.61,3.72,2.39c.85-.93,1.69-1.91,2.49-2.97.82-1.04,1.69-2.07,2.61-3.08.54-.7,1.42-.97,2.61-.82s2.34.58,3.43,1.28c1.08.7,1.96,1.53,2.61,2.49.65.97.72,1.88.17,2.73-2.63,4.49-4.74,8.48-6.33,11.97s-2.75,6.43-3.48,8.83-1.09,4.23-1.04,5.46c.04,1.24.33,1.86.87,1.86,1.55-.07,3.91-2.17,7.09-6.28,3.18-4.1,7.09-10.15,11.74-18.13h0ZM121.88,276.01c.24-.31.34-.85.34-1.62s-.14-1.49-.41-2.15c-.27-.65-.68-1.06-1.22-1.22s-1.24.24-2.1,1.16c-1.78,1.71-3.43,3.72-4.94,6.04-1.52,2.32-2.83,4.61-3.95,6.86-1.13,2.25-2.03,4.32-2.73,6.21-.7,1.9-1.04,3.31-1.04,4.24.85-.7,2-1.84,3.43-3.43s2.92-3.35,4.47-5.29c1.55-1.93,3.06-3.87,4.54-5.81,1.47-1.93,2.68-3.6,3.6-5h.01Z"/>
                <path d="M193.12,275.42c.24-.54.64-.77,1.22-.7.58.08,1.16.27,1.74.58s1.06.68,1.45,1.11.54.75.46.99c-1.09,2.25-2.42,4.73-4.01,7.44s-3.29,5.33-5.12,7.85-3.68,4.78-5.58,6.8-3.66,3.45-5.29,4.3c-1.09.54-2.32.75-3.72.64s-2.75-.41-4.06-.87-2.48-1.08-3.48-1.86c-1.01-.77-1.59-1.55-1.74-2.32-.31-1.32-.31-3.09,0-5.34s.75-4.49,1.33-6.74,1.16-4.28,1.74-6.1.99-3,1.22-3.55c-1.55,1.32-3.29,3.21-5.23,5.7-1.94,2.48-3.86,5.12-5.75,7.9s-3.64,5.54-5.23,8.25-2.81,4.96-3.66,6.74c-.39.7-1.16,1.06-2.32,1.11-1.16.04-2.32-.14-3.48-.53s-2.19-.93-3.08-1.62c-.89-.7-1.22-1.4-.99-2.1.46-1.86,1.16-4.32,2.1-7.38.93-3.06,2.01-6.39,3.26-10,1.24-3.6,2.63-7.3,4.18-11.1s3.26-7.32,5.12-10.58c.54-1.08,1.42-1.62,2.61-1.62s2.39.27,3.55.82,2.11,1.24,2.85,2.1.99,1.59.75,2.2c-.77,1.62-1.61,3.28-2.49,4.94-.89,1.67-1.74,3.21-2.56,4.65-.82,1.43-1.52,2.69-2.1,3.77-.58,1.09-.91,1.82-.99,2.2,1.24-1.78,2.58-3.57,4.01-5.34s2.87-3.45,4.3-5c1.43-1.55,2.89-2.94,4.35-4.18,1.47-1.23,2.9-2.29,4.3-3.14.93-.54,2.07-.7,3.43-.46,1.35.24,2.61.7,3.77,1.4s2.07,1.53,2.73,2.49c.65.97.79,1.91.41,2.85-.62,1.55-1.43,3.47-2.44,5.75s-1.98,4.69-2.9,7.2c-.93,2.52-1.74,4.94-2.44,7.27s-1.04,4.3-1.04,5.92c1.47-.85,3.06-2.05,4.76-3.6s3.38-3.33,5.05-5.34,3.28-4.18,4.83-6.51,2.94-4.65,4.18-6.98h0Z"/>
                <path d="M233.9,233.59c1.01-.54,2.2-.6,3.6-.17s2.65,1.09,3.77,1.98,1.91,1.86,2.38,2.9.31,1.88-.46,2.49c-3.1,2.4-6.18,5.99-9.24,10.75-3.07,4.76-5.87,10.02-8.43,15.75s-4.74,11.62-6.57,17.66c-1.82,6.04-3.02,11.59-3.6,16.62s-.43,9.2.46,12.49,2.73,5.05,5.52,5.29c-.62.7-1.55,1.14-2.79,1.33-1.24.19-2.58.04-4.01-.46-1.43-.51-2.83-1.42-4.18-2.73-1.36-1.32-2.46-3.09-3.31-5.34-.85-2.25-1.36-4.98-1.52-8.19s.27-7.03,1.28-11.45c0-.31-.04-.48-.12-.53-.08-.04-.19.1-.34.41-.62,1.09-1.32,2.25-2.1,3.48-.77,1.24-1.61,2.42-2.49,3.55s-1.74,2.11-2.56,2.97c-.82.85-1.53,1.4-2.15,1.62-.93.31-2.03.43-3.31.34-1.28-.07-2.51-.36-3.72-.87-1.2-.5-2.22-1.22-3.08-2.15s-1.32-2.1-1.4-3.48c-.07-1.86.14-4.06.64-6.62.51-2.56,1.24-5.23,2.2-8.02.97-2.79,2.15-5.58,3.55-8.36,1.4-2.79,2.92-5.29,4.59-7.49s3.45-4.03,5.34-5.46,3.86-2.22,5.87-2.39c1.55-.07,3,.19,4.35.82,1.35.62,2.65,1.24,3.89,1.86.31-.85.85-2.07,1.62-3.67.77-1.59,1.67-3.35,2.68-5.29,1.01-1.93,2.11-3.95,3.31-6.04s2.4-4.06,3.6-5.92,2.39-3.47,3.55-4.83c1.16-1.35,2.2-2.3,3.14-2.85h.04ZM211.71,270.66c.31-1.01.33-1.84.05-2.49s-.99-.79-2.15-.41c-1.09.39-2.23,1.28-3.43,2.68-1.21,1.4-2.39,3.04-3.55,4.94s-2.23,3.89-3.19,5.99c-.97,2.1-1.74,4.05-2.32,5.87s-.93,3.39-1.04,4.71c-.12,1.32.14,2.1.75,2.32.31.15.89-.24,1.74-1.16.85-.93,1.81-2.17,2.85-3.72s2.15-3.28,3.31-5.17,2.22-3.76,3.19-5.58,1.8-3.45,2.49-4.88,1.13-2.46,1.28-3.08h0l.02-.02h0Z"/>
                <path d="M261.33,257.3c.24-.54.82-.91,1.74-1.11.93-.19,2-.19,3.19,0,1.2.19,2.46.64,3.77,1.33s2.49,1.64,3.55,2.85c1.04,1.2,1.84,2.69,2.39,4.47.54,1.79.65,3.87.34,6.28-.46,3.57-1.55,7.27-3.26,11.1-1.71,3.84-3.58,7.42-5.63,10.75-2.05,3.33-4.03,6.21-5.92,8.66s-3.31,4.01-4.24,4.71c-1.09.85-2.13,1.26-3.14,1.22s-2.03-.43-3.08-1.16c-1.04-.73-2.11-1.8-3.19-3.19-1.09-1.4-2.17-2.98-3.26-4.76-1.62,1.79-3.08,3.47-4.35,5.05-1.28,1.59-2.61,2.92-4.01,4.01-.93.77-2.13.99-3.6.64-1.47-.34-2.9-1.04-4.3-2.1-1.4-1.04-2.59-2.32-3.6-3.84s-1.55-2.97-1.62-4.35c-.07-2.1.41-4.88,1.45-8.36s2.3-7.03,3.77-10.63,2.98-6.88,4.54-9.82c1.55-2.94,2.87-4.88,3.95-5.81.77-.62,1.78-.72,3.02-.29s2.39,1.09,3.43,1.98,1.82,1.9,2.32,3.02.41,2.08-.29,2.85c-1.09,1.16-2.34,2.97-3.77,5.41s-2.75,5.04-3.95,7.78c-1.21,2.75-2.2,5.39-3.02,7.9-.82,2.52-1.14,4.4-.99,5.63,1.32-.93,2.77-2.36,4.35-4.3,1.59-1.93,3.16-4.05,4.71-6.33,1.55-2.29,3.02-4.59,4.42-6.91s2.59-4.37,3.6-6.16c.54-.93,1.28-1.32,2.2-1.16s1.84.58,2.73,1.28,1.61,1.52,2.15,2.44.73,1.67.58,2.2c-.15.7-.56,1.88-1.22,3.55s-1.33,3.41-2.03,5.23-1.3,3.53-1.81,5.12-.72,2.66-.64,3.19c3.02-3.02,5.77-6.54,8.25-10.58,2.48-4.03,4.28-7.96,5.41-11.79s1.35-7.24.7-10.22c-.66-2.98-2.54-4.9-5.63-5.75h0v-.03h0Z"/>
                <path d="M308.28,284.03c.07.7.25,1.18.53,1.45s.54.46.82.58.5.24.7.34c.19.12.25.37.17.75-.15.62-.83.97-2.03,1.04-1.21.08-2.49-.04-3.89-.34s-2.69-.75-3.89-1.33c-1.21-.58-1.88-1.26-2.03-2.03-.39-1.32-.54-2.73-.46-4.25.07-1.52.07-3.04,0-4.59-4.11,4.49-7.63,9.35-10.58,14.58s-5.27,11.33-6.98,18.3c-.24.85-.87,1.3-1.91,1.33s-2.15-.17-3.31-.64-2.17-1.09-3.02-1.86c-.85-.77-1.2-1.59-1.04-2.44.7-4.18,1.69-8.56,2.97-13.13s2.77-9.08,4.47-13.54c1.71-4.45,3.52-8.69,5.46-12.73,1.93-4.03,3.84-7.63,5.7-10.81.39-.7.93-1.13,1.62-1.28.7-.15,1.43-.12,2.2.12,1.78.62,3.04,1.38,3.77,2.27s.83,1.91.29,3.08c-1.01,2.17-2.1,4.44-3.26,6.8-1.16,2.37-2.37,5.05-3.6,8.07,1.16-1.62,2.2-3.14,3.14-4.54.85-1.16,1.61-2.29,2.27-3.37.65-1.08,1.06-1.74,1.22-1.98.7-1.08,1.28-1.69,1.74-1.81s1.23.05,2.32.53c2.17.85,3.79,1.47,4.88,1.86,1.08.39,1.81.89,2.2,1.52.39.62.5,1.52.34,2.68-.15,1.16-.34,2.95-.58,5.34-.46,3.48-.54,6.82-.24,10h0v.03h0Z"/>
                <path d="M359.52,250.21c-5.89,9.06-10.65,18.67-14.29,28.82-1.86,5.19-3.28,10-4.24,14.41-.97,4.42-1.45,8.48-1.45,12.2,0,7.36,2.63,11.04,7.9,11.04-2.95,2.94-6.43,3.48-10.46,1.62-4.26-1.93-6.74-6.16-7.44-12.67-.15-1.78-.1-3.86.17-6.21s.75-5.02,1.45-7.96c-1.94,3.02-4.23,5.77-6.86,8.25-2.48,2.4-4.84,3.84-7.09,4.3-2.25.15-4.45-.77-6.62-2.79-2.1-2.25-3.1-4.57-3.02-6.98.46-3.48,2.17-8.91,5.12-16.27,3.09-7.29,6.01-13.06,8.72-17.31.85-.85,2.09-1.04,3.72-.58.85.15,1.64.43,2.38.82s1.42.82,2.03,1.28c1.4,1.09,1.78,2.17,1.16,3.26-8.52,15.5-11.93,24.44-10.22,26.85,1.16,1.47,2.71,1.04,4.65-1.28.93-1.16,1.93-2.54,3.02-4.13,1.08-1.59,2.17-3.38,3.26-5.41,1.09-2.01,2.15-3.99,3.19-5.92s2-3.87,2.85-5.81,1.61-3.58,2.27-4.94c.65-1.35,1.18-2.42,1.57-3.19.77-1.78,1.52-3.5,2.27-5.17.73-1.67,1.53-3.31,2.39-4.94-2.95.54-5.73,1.36-8.36,2.44-2.63,1.09-5.19,2.44-7.67,4.06-1.01.24-1.98-.15-2.9-1.16-.62-.54-1.14-1.14-1.57-1.81-.43-.65-.83-1.38-1.22-2.15-.39-.85-.66-1.67-.82-2.44-.15-.77-.27-1.52-.34-2.2,0-1.47.54-2.4,1.62-2.79,3.95-.85,8.09-1.53,12.44-2.03,4.34-.5,8.95-.91,13.83-1.22,2.63-4.49,5.27-8.25,7.9-11.27,1.08-1.08,2.59-1.16,4.54-.24,2.01.93,3.57,2.29,4.65,4.06,1.23,1.71,1.2,3.33-.12,4.88-.39.46-.8.93-1.22,1.4-.43.46-.87.93-1.33,1.4,2.1.15,4.01.41,5.75.75s3.35.72,4.83,1.11c2.71,1.16,4.61,2.79,5.7,4.88,1.09,2.25,1.47,4.42,1.16,6.51-.24,2.17-1.01,3.57-2.32,4.18.54-2.71-1.21-4.92-5.23-6.62-2.01-.85-4.32-1.53-6.91-2.03s-5.52-.83-8.77-.99l-.04-.04h0l-.03.03h0Z"/>
                <path d="M386.83,243c3.26.62,5.77,1.2,7.56,1.74,1.93.7,3.29,1.55,4.06,2.56.46.7.97,1.67,1.52,2.9.15.62.31,1.24.46,1.86s.27,1.2.34,1.74c0,1.16-.34,1.82-1.04,1.98-1.16-1.55-3.48-2.79-6.97-3.72-5.27-1.16-9.26-1.67-11.97-1.52-.62.93-1.24,1.86-1.86,2.79s-1.24,1.86-1.86,2.79c-3.79,6.51-7.05,13.17-9.76,19.99-2.71,7.05-4.84,13.87-6.39,20.45-1.4,6.59-1.82,11.89-1.28,15.92.54,4.26,2.32,6.54,5.34,6.86-1.16,1.01-2.87,1.35-5.12,1.04-2.01-.24-4.1-1.43-6.28-3.6-2.17-2.01-3.52-5.04-4.06-9.06-.31-3.02-.1-6.57.64-10.63.73-4.06,1.96-8.69,3.66-13.89,1.71-5.19,3.62-10.26,5.75-15.22,2.13-4.95,4.44-9.83,6.91-14.64.15-.39.34-.75.58-1.11.24-.34.43-.72.58-1.11-.39,0-.87.04-1.45.12-.58.08-1.22.19-1.91.34-.7.15-1.35.31-1.98.46-.62.15-1.24.34-1.86.58-.62.15-1.12.37-1.52.64-.39.27-.66.48-.82.64-.46.77-.89,1.01-1.28.7-.54-.39-1.01-.89-1.4-1.52-.15-.39-.34-.75-.58-1.11-.24-.34-.43-.72-.58-1.11s-.27-.73-.34-1.04-.15-.54-.24-.7c-.31-.85-.24-1.62.24-2.32.15-.39.39-.7.7-.93.31-.24.66-.46,1.04-.7,2.4-.93,5.04-1.62,7.9-2.1,1.4-.15,2.71-.31,3.95-.46,1.24-.15,2.4-.31,3.48-.46h.82c.31,0,.65-.04,1.04-.12,2.56-3.64,5.12-6.86,7.67-9.64.77-.77,1.9-.97,3.37-.58,1.24.24,2.56.97,3.96,2.2,1.32,1.24,2.1,2.32,2.32,3.26.24,1.09.04,1.82-.58,2.2-.62.77-1.16,1.45-1.62,2.03s-.85,1.06-1.16,1.45v.05h.02,0Z"/>
                <path d="M408.56,273.8c.31-.31.72-.43,1.22-.34s.99.27,1.45.58.82.72,1.04,1.22c.24.51.19,1.03-.12,1.57-1.01,3.02-2.42,6.02-4.24,9.01-1.82,2.98-3.89,5.79-6.21,8.43-2.32,2.63-4.76,5.04-7.32,7.2s-5.07,3.96-7.56,5.34c-1.16.62-2.4.85-3.72.7s-2.63-.53-3.95-1.11-2.52-1.26-3.6-2.03c-1.09-.77-1.98-1.52-2.68-2.2-1.47-1.55-2.29-3.62-2.44-6.21s.14-5.41.87-8.43,1.84-6.16,3.31-9.42,3.12-6.31,4.94-9.18,3.74-5.38,5.75-7.56c2.01-2.17,3.91-3.76,5.7-4.76,1.08-.54,2.1-.83,3.02-.87s1.9.12,2.9.46c1.01.34,2.03.85,3.08,1.52,1.04.66,2.22,1.38,3.55,2.15,1.86,1.16,2.71,2.63,2.56,4.42,0,.85-.33,2.37-.99,4.54s-1.59,4.44-2.79,6.8c-1.21,2.37-2.68,4.57-4.42,6.62-1.74,2.05-3.7,3.43-5.87,4.13-1.55.39-2.9.51-4.06.34-1.16-.15-2.44-.54-3.84-1.16-.39.77-.82,1.91-1.28,3.43s-.82,3.04-1.04,4.59c-.24,1.55-.31,2.92-.24,4.13.07,1.2.54,1.88,1.4,2.03,1.24.24,3-.43,5.29-1.98s4.66-3.58,7.15-6.1c2.48-2.51,4.92-5.36,7.32-8.54s4.34-6.28,5.81-9.3h0v-.02h.01ZM396.93,265.2c-.77.54-1.76,1.57-2.97,3.08-1.2,1.52-2.37,3.12-3.48,4.83-1.12,1.71-2.1,3.29-2.9,4.76-.82,1.47-1.22,2.4-1.22,2.79,1.4.24,2.69-.19,3.89-1.28,1.2-1.08,2.29-2.46,3.26-4.13.97-1.66,1.74-3.43,2.32-5.29s.94-3.45,1.11-4.76h-.01Z"/>
                <path d="M452.37,275.42c.24-.54.64-.77,1.22-.7.58.08,1.16.27,1.74.58s1.06.68,1.45,1.11.54.75.46.99c-1.09,2.25-2.42,4.73-4.01,7.44s-3.29,5.33-5.12,7.85-3.68,4.78-5.58,6.8-3.67,3.45-5.29,4.3c-1.09.54-2.32.75-3.72.64s-2.75-.41-4.06-.87-2.48-1.08-3.48-1.86c-1.01-.77-1.59-1.55-1.74-2.32-.31-1.32-.31-3.09,0-5.34s.75-4.49,1.33-6.74,1.16-4.28,1.74-6.1.99-3,1.22-3.55c-1.55,1.32-3.29,3.21-5.23,5.7-1.94,2.48-3.86,5.12-5.75,7.9s-3.64,5.54-5.23,8.25-2.81,4.96-3.66,6.74c-.39.7-1.16,1.06-2.32,1.11-1.16.04-2.32-.14-3.48-.53s-2.19-.93-3.08-1.62c-.89-.7-1.22-1.4-.99-2.1.46-1.86,1.16-4.32,2.1-7.38.93-3.06,2.01-6.39,3.26-10,1.24-3.6,2.63-7.3,4.18-11.1s3.26-7.32,5.12-10.58c.54-1.08,1.42-1.62,2.61-1.62s2.38.27,3.55.82c1.16.54,2.11,1.24,2.85,2.1.73.85.99,1.59.75,2.2-.77,1.62-1.61,3.28-2.49,4.94-.89,1.67-1.74,3.21-2.56,4.65s-1.52,2.69-2.09,3.77c-.58,1.09-.91,1.82-.99,2.2,1.23-1.78,2.58-3.57,4.01-5.34,1.43-1.78,2.87-3.45,4.3-5s2.89-2.94,4.35-4.18c1.47-1.23,2.9-2.29,4.3-3.14.93-.54,2.07-.7,3.43-.46,1.35.24,2.61.7,3.77,1.4s2.07,1.53,2.73,2.49c.65.97.8,1.91.41,2.85-.62,1.55-1.43,3.47-2.44,5.75-1.01,2.29-1.98,4.69-2.9,7.2-.93,2.52-1.74,4.94-2.44,7.27-.7,2.32-1.04,4.3-1.04,5.92,1.47-.85,3.06-2.05,4.76-3.6s3.38-3.33,5.05-5.34c1.66-2.01,3.28-4.18,4.83-6.51,1.55-2.32,2.94-4.65,4.18-6.98h-.02.01Z"/>
              </g>
            </g>
          </g>
        </g>
      </g>
    </g>
  </g>
</svg>