<?xml version="1.0" encoding="UTF-8"?>
<svg xmlns="http://www.w3.org/2000/svg" version="1.1" viewBox="0 0 48.12 19.28">
  <defs>
    <style>
      .cls-1 {
        fill: none;
        stroke: #ad0e1e;
        stroke-miterlimit: 10;
        stroke-width: .28px;
      }

      .cls-2 {
        fill: #868686;
      }
    </style>
  </defs>
  <!-- Generator: Adobe Illustrator 29.1.0, SVG Export Plug-In . SVG Version: 1.2.0 Build 2)  -->
  <g>
    <g id="Layer_1">
      <g>
        <g>
          <path d="M39.2,17.88h-1.37l-1.07-3.12h-3.96l-.96,3.12h-1.12l3.47-10.68h1.51l3.49,10.68ZM36.47,13.75l-1.65-5.13-1.65,5.13h3.31Z"/>
          <path d="M46.75,17.88h-1.21c-.05-.25-.09-.72-.14-1.42-.54,1.09-1.47,1.64-2.77,1.64-.89,0-1.57-.24-2.04-.71-.47-.47-.71-1.03-.71-1.69,0-.8.34-1.46,1.02-1.97.68-.51,1.83-.77,3.46-.77.22,0,.57.01,1.05.03,0-.63-.05-1.08-.14-1.36-.1-.28-.3-.5-.61-.67s-.72-.25-1.24-.25c-1.25,0-1.97.47-2.17,1.42l-1.13-.2c.28-1.45,1.44-2.18,3.49-2.18,1.09,0,1.86.24,2.32.72s.68,1.32.68,2.51v3.35c0,.56.05,1.07.16,1.53ZM45.4,13.93c-.5-.03-.88-.05-1.14-.05-.97,0-1.72.16-2.26.48s-.81.78-.81,1.4c0,.39.15.72.43.99.29.27.71.41,1.26.41.74,0,1.35-.27,1.83-.81.48-.54.72-1.17.72-1.9,0-.15,0-.32-.02-.52Z"/>
        </g>
        <g>
          <path class="cls-2" d="M35.23,1.18l.14-.03c.03.12.13.17.29.17.06,0,.11-.01.15-.04.04-.03.06-.06.06-.11,0-.07-.05-.12-.16-.14l-.19-.04c-.08-.01-.14-.04-.18-.09s-.07-.1-.07-.17c0-.08.03-.14.09-.19s.14-.08.25-.08c.2,0,.32.08.37.23l-.13.03c-.04-.1-.11-.14-.23-.14-.06,0-.11.01-.14.04-.04.02-.06.06-.06.1,0,.07.05.11.14.13l.18.03c.19.03.28.12.28.27,0,.08-.03.15-.1.2s-.16.08-.28.08c-.22,0-.35-.09-.4-.26Z"/>
          <path class="cls-2" d="M36.99,1.42h-.14s-.01-.08-.02-.17c-.06.13-.17.19-.32.19-.1,0-.18-.03-.24-.08-.06-.05-.08-.12-.08-.2,0-.09.04-.17.12-.23.08-.06.21-.09.4-.09.03,0,.07,0,.12,0,0-.07,0-.13-.02-.16s-.03-.06-.07-.08c-.04-.02-.08-.03-.14-.03-.14,0-.23.06-.25.17l-.13-.02c.03-.17.17-.25.4-.25.13,0,.22.03.27.08.05.06.08.15.08.29v.39c0,.06,0,.12.02.18ZM36.83.96c-.06,0-.1,0-.13,0-.11,0-.2.02-.26.06-.06.04-.09.09-.09.16,0,.04.02.08.05.11s.08.05.15.05c.09,0,.16-.03.21-.09s.08-.14.08-.22c0-.02,0-.04,0-.06Z"/>
          <path class="cls-2" d="M38,1.42h-.13v-.59c0-.08-.02-.14-.06-.18-.04-.03-.08-.05-.13-.05-.07,0-.13.03-.18.09s-.07.13-.07.23v.5h-.14V.5h.13v.17c.07-.13.17-.19.29-.19.07,0,.13.02.17.05.05.04.08.08.1.12.02.04.03.12.03.24v.53Z"/>
          <path class="cls-2" d="M38.2,1.18l.14-.03c.03.12.13.17.29.17.06,0,.11-.01.15-.04.04-.03.06-.06.06-.11,0-.07-.05-.12-.16-.14l-.19-.04c-.08-.01-.14-.04-.18-.09s-.07-.1-.07-.17c0-.08.03-.14.09-.19s.14-.08.25-.08c.2,0,.32.08.37.23l-.13.03c-.04-.1-.11-.14-.23-.14-.06,0-.11.01-.14.04-.04.02-.06.06-.06.1,0,.07.05.11.14.13l.18.03c.19.03.28.12.28.27,0,.08-.03.15-.1.2s-.16.08-.28.08c-.22,0-.35-.09-.4-.26Z"/>
          <path class="cls-2" d="M39.55.89v.11h-.41v-.11h.41Z"/>
          <path class="cls-2" d="M39.68,1.18l.14-.03c.03.12.13.17.29.17.06,0,.11-.01.15-.04.04-.03.06-.06.06-.11,0-.07-.05-.12-.16-.14l-.19-.04c-.08-.01-.14-.04-.18-.09s-.07-.1-.07-.17c0-.08.03-.14.09-.19s.14-.08.25-.08c.2,0,.32.08.37.23l-.13.03c-.04-.1-.11-.14-.23-.14-.06,0-.11.01-.14.04-.04.02-.06.06-.06.1,0,.07.05.11.14.13l.18.03c.19.03.28.12.28.27,0,.08-.03.15-.1.2s-.16.08-.28.08c-.22,0-.35-.09-.4-.26Z"/>
          <path class="cls-2" d="M41.33,1.14l.13.03c-.02.08-.07.14-.14.19-.07.05-.15.08-.25.08-.12,0-.23-.04-.3-.13-.08-.09-.12-.2-.12-.35s.04-.26.12-.35c.08-.09.18-.14.3-.14s.22.04.29.12.11.21.11.37h-.67c0,.14.03.23.09.28.06.05.12.07.18.07.12,0,.2-.06.25-.18ZM41.32.86c0-.05,0-.1-.03-.14s-.04-.07-.08-.1-.08-.04-.14-.04c-.07,0-.13.03-.18.08s-.08.12-.08.21h.5Z"/>
          <path class="cls-2" d="M41.86,1.42h-.14V.5h.13v.21c.04-.1.09-.17.13-.2.04-.03.09-.04.14-.04.01,0,.03,0,.06,0v.14h-.03c-.08,0-.14.03-.2.09-.05.06-.08.14-.08.23v.48Z"/>
          <path class="cls-2" d="M42.52.18v.16h-.15v-.16h.15ZM42.51.5v.92h-.14V.5h.14Z"/>
          <path class="cls-2" d="M43.22.5v.11h-.22v.81h-.14v-.81h-.16v-.11h.16c0-.15.03-.24.08-.28.05-.04.12-.06.2-.06.04,0,.08,0,.13.01v.11s-.06-.01-.09-.01c-.06,0-.11.01-.14.04-.03.03-.04.08-.04.15v.04h.22Z"/>
        </g>
      </g>
      <g>
        <g>
          <path d="M12.8,17.88h-4.61v-.56c.41-.03.74-.08,1.01-.16.27-.08.4-.17.4-.29,0-.05,0-.1-.02-.17-.01-.07-.03-.13-.05-.18l-.92-2.49h-3.9c-.15.37-.26.68-.36.95-.09.27-.17.52-.25.75-.07.22-.11.41-.14.55-.03.14-.04.26-.04.34,0,.21.16.37.49.48.33.11.7.18,1.11.2v.56H1.36v-.56c.14-.01.31-.04.51-.09.2-.05.37-.12.5-.2.21-.14.37-.29.48-.44.11-.15.23-.37.34-.64.56-1.39,1.17-2.96,1.85-4.69.67-1.74,1.27-3.28,1.8-4.64h.63l3.7,9.57c.08.2.17.37.27.49.1.13.24.25.41.37.12.07.28.13.47.18.19.05.35.08.49.08v.56ZM8.33,13.34l-1.68-4.31-1.66,4.31h3.34Z"/>
          <path d="M20.63,17.74c-.25.09-.46.16-.65.21-.19.05-.4.08-.63.08-.41,0-.73-.1-.97-.29-.24-.19-.4-.47-.47-.83h-.05c-.34.38-.7.66-1.09.86-.39.2-.86.3-1.4.3-.58,0-1.05-.18-1.43-.53-.37-.35-.56-.82-.56-1.39,0-.3.04-.56.13-.8.08-.23.21-.45.38-.63.13-.16.3-.3.52-.42s.41-.22.6-.29c.23-.09.71-.25,1.43-.49.72-.24,1.2-.43,1.45-.56v-.77c0-.07-.01-.2-.04-.39-.03-.19-.09-.38-.18-.55-.1-.19-.25-.36-.44-.5-.19-.14-.46-.22-.81-.22-.24,0-.46.04-.67.12-.21.08-.35.17-.43.25,0,.1.02.26.07.46.05.2.07.39.07.56,0,.18-.08.35-.25.5-.16.15-.39.23-.68.23-.26,0-.45-.09-.57-.28-.12-.19-.18-.39-.18-.62s.08-.47.25-.69c.17-.22.39-.41.66-.59.23-.15.52-.27.85-.37.33-.1.66-.15.98-.15.44,0,.82.03,1.15.09.33.06.62.19.89.39.27.19.47.46.61.79s.21.76.21,1.28c0,.75,0,1.41-.02,1.98s-.02,1.21-.02,1.89c0,.2.04.36.11.48.07.12.18.22.32.3.08.05.2.07.37.08.17,0,.34,0,.52,0v.5ZM17.9,13.61c-.44.13-.83.26-1.17.38s-.64.28-.93.47c-.26.18-.47.39-.62.63-.15.24-.23.53-.23.87,0,.43.11.75.34.96.23.2.51.31.86.31.37,0,.7-.09.98-.27.28-.18.52-.39.71-.64l.05-2.7Z"/>
        </g>
        <g>
          <path class="cls-2" d="M9.78.98s.04.05.06.08.02.06.02.1c0,.08-.03.15-.09.2-.06.05-.14.08-.24.08-.05,0-.1,0-.14-.03-.04-.02-.08-.04-.09-.05l-.02.06h-.07v-.31s.05,0,.05,0c0,.02.02.05.03.08.02.03.04.06.06.09.02.03.05.05.08.07.03.02.07.03.11.03.06,0,.1-.01.13-.04.03-.03.05-.06.05-.11,0-.03,0-.05-.01-.07-.01-.02-.02-.03-.04-.05-.02-.01-.04-.03-.07-.04-.03-.01-.06-.02-.1-.03-.03,0-.06-.02-.1-.03-.03-.02-.06-.03-.09-.05-.03-.02-.05-.05-.07-.08-.02-.03-.03-.07-.03-.11,0-.07.03-.14.08-.19.05-.05.13-.08.22-.08.04,0,.07,0,.11.01s.07.02.09.03l.02-.05h.07v.29s-.05,0-.05,0c-.01-.06-.04-.12-.08-.16-.04-.04-.09-.06-.15-.06-.05,0-.09.01-.12.04s-.04.06-.04.09c0,.03,0,.05.01.07,0,.02.02.03.04.05.02.01.04.02.07.03.03.01.06.02.1.04.04.01.08.03.11.04.04.02.06.04.09.06Z"/>
          <path class="cls-2" d="M10.83,1.2c-.04.07-.09.13-.15.17s-.14.06-.22.06c-.07,0-.14-.01-.19-.04s-.1-.06-.13-.1-.06-.09-.08-.15-.03-.12-.03-.18c0-.06,0-.12.03-.17.02-.06.05-.11.08-.15.03-.04.08-.08.13-.1s.11-.04.17-.04.12.01.17.03c.05.02.08.05.11.08.03.03.05.07.06.12s.02.1.02.15v.06h-.59c0,.06,0,.11.02.16.01.05.03.09.05.13.02.04.05.06.09.08.04.02.08.03.14.03s.1-.01.14-.04.08-.07.11-.14l.06.04ZM10.63.86s0-.07,0-.11c0-.04-.02-.07-.03-.1-.01-.03-.03-.05-.06-.07-.02-.02-.06-.03-.09-.03-.06,0-.12.03-.16.08-.04.05-.06.13-.07.22h.41Z"/>
          <path class="cls-2" d="M11.65.64s0,.06-.02.08-.04.04-.07.04c-.03,0-.06,0-.08-.03-.02-.02-.03-.04-.03-.06,0-.01,0-.03,0-.04,0-.01,0-.02,0-.03-.03,0-.06.01-.1.03-.04.02-.07.06-.1.1v.52s0,.04.01.05c0,.01.02.02.04.03.02,0,.03.01.06.01s.04,0,.06,0v.06h-.47v-.06s.03,0,.04,0c.02,0,.03,0,.04,0,.02,0,.03-.02.04-.03,0-.01.01-.03.01-.05v-.55s0-.04-.01-.06-.02-.03-.04-.04c-.01,0-.02-.01-.04-.02-.02,0-.03,0-.05,0v-.06l.3-.02h.01v.14h0s.08-.09.13-.11c.05-.03.09-.04.13-.04s.07.01.09.04.04.06.04.1Z"/>
          <path class="cls-2" d="M12.24,1.42h-.43v-.06s.03,0,.04,0c.01,0,.03,0,.04,0,.02,0,.03-.02.04-.03,0-.01.01-.03.01-.05v-.55s0-.04-.01-.05-.02-.03-.04-.04c-.01,0-.03-.01-.05-.02-.02,0-.04,0-.06,0v-.06l.32-.02h.01v.74s0,.04.01.05c0,.01.02.02.04.03.01,0,.03,0,.04.01s.03,0,.04,0v.06ZM12.13.16s-.01.06-.03.09c-.02.03-.05.04-.08.04-.03,0-.06-.01-.08-.04-.02-.02-.03-.05-.03-.08,0-.03.01-.06.03-.09.02-.02.05-.04.08-.04.03,0,.06.01.08.04.02.02.03.05.03.08Z"/>
          <path class="cls-2" d="M13.07.12s0,.05-.02.07c-.01.02-.04.03-.07.03-.02,0-.04,0-.05-.01s-.03-.02-.04-.03c-.01-.01-.02-.03-.03-.05-.01-.02-.02-.03-.03-.04-.04,0-.07.03-.09.08s-.03.14-.03.26v.09h.23v.09h-.23v.64s0,.04.01.05c0,.01.02.02.04.03.01,0,.03,0,.06.01.02,0,.05,0,.06,0v.06h-.47v-.06s.03,0,.04,0c.01,0,.03,0,.04,0,.02,0,.03-.02.04-.03s.01-.03.01-.05v-.65h-.18v-.09h.18v-.06c0-.14.04-.25.11-.33s.16-.13.26-.13c.05,0,.09.01.12.03.03.02.04.05.04.08Z"/>
        </g>
        <circle class="cls-1" cx="1.7" cy="17.61" r="1.51"/>
        <circle class="cls-1" cx="5.21" cy="17.61" r="1.51"/>
        <circle class="cls-1" cx="9.05" cy="17.61" r="1.51"/>
        <circle class="cls-1" cx="12.7" cy="17.61" r="1.51"/>
        <circle class="cls-1" cx="19.87" cy="17.61" r="1.51"/>
        <circle class="cls-1" cx="14.22" cy="11.81" r="1.51"/>
      </g>
    </g>
  </g>
</svg>