<?xml version="1.0" encoding="UTF-8"?>
<svg xmlns="http://www.w3.org/2000/svg" version="1.1" viewBox="0 0 469.46 107.03">
  <!-- Generator: Adobe Illustrator 29.0.0, SVG Export Plug-In . SVG Version: 1.2.0 Build 15)  -->
  <g>
    <g id="Layer_1">
      <g>
        <path d="M19.19,27.11l-3.08,2.97v9.28h-2.7V4.85h2.7v22.08l2.54-2.74,9.3-9.14h3.39l-10.31,10.24,11.21,14.06h-3.21l-9.84-12.24Z"/>
        <path d="M43.38,39.81c-2.07,0-3.94-.51-5.6-1.53s-2.97-2.44-3.9-4.26c-.93-1.82-1.39-3.86-1.39-6.12v-.97c0-2.34.45-4.44,1.36-6.31.91-1.87,2.17-3.34,3.79-4.41,1.62-1.07,3.37-1.61,5.26-1.61,2.95,0,5.29,1.01,7.02,3.02,1.73,2.01,2.59,4.77,2.59,8.26v1.5h-17.34v.52c0,2.76.79,5.05,2.37,6.89s3.57,2.75,5.96,2.75c1.44,0,2.71-.26,3.81-.79,1.1-.52,2.1-1.36,3-2.52l1.68,1.28c-1.98,2.86-4.84,4.29-8.6,4.29ZM42.88,16.89c-2.02,0-3.73.74-5.11,2.22s-2.23,3.47-2.53,5.98h14.58v-.29c-.08-2.34-.74-4.24-2-5.71-1.26-1.47-2.91-2.2-4.94-2.2Z"/>
        <path d="M68.3,17.34c-.57-.1-1.18-.16-1.82-.16-1.68,0-3.1.47-4.26,1.4-1.16.94-1.99,2.29-2.48,4.08v16.69h-2.67V15.05h2.63l.04,3.86c1.42-2.88,3.71-4.31,6.85-4.31.75,0,1.34.1,1.77.29l-.07,2.45Z"/>
        <path d="M74.52,15.05l.09,4.16c.91-1.5,2.05-2.64,3.41-3.43,1.36-.79,2.87-1.18,4.52-1.18,2.61,0,4.55.73,5.82,2.2,1.27,1.47,1.92,3.67,1.93,6.6v15.95h-2.67v-15.97c-.02-2.17-.48-3.79-1.38-4.85s-2.35-1.6-4.35-1.6c-1.66,0-3.13.52-4.41,1.56-1.28,1.04-2.23,2.44-2.84,4.21v16.65h-2.67V15.05h2.56Z"/>
        <path d="M95.95,8.03c0-.51.16-.93.49-1.28.33-.35.78-.52,1.35-.52s1.02.18,1.36.52.51.78.51,1.28-.17.93-.51,1.27-.79.51-1.36.51-1.02-.17-1.35-.51c-.33-.34-.49-.77-.49-1.27ZM99.12,39.36h-2.7V15.05h2.7v24.31Z"/>
        <path d="M107.97,15.05l.09,4.16c.91-1.5,2.05-2.64,3.41-3.43,1.36-.79,2.87-1.18,4.52-1.18,2.61,0,4.55.73,5.82,2.2,1.27,1.47,1.92,3.67,1.93,6.6v15.95h-2.67v-15.97c-.02-2.17-.48-3.79-1.38-4.85s-2.35-1.6-4.35-1.6c-1.66,0-3.13.52-4.41,1.56-1.28,1.04-2.23,2.44-2.84,4.21v16.65h-2.67V15.05h2.56Z"/>
        <path d="M128.77,26.98c0-3.8.84-6.82,2.53-9.04,1.69-2.22,3.97-3.34,6.86-3.34,3.31,0,5.83,1.32,7.55,3.95l.13-3.5h2.52v23.81c0,3.13-.88,5.61-2.63,7.44-1.75,1.83-4.13,2.74-7.12,2.74-1.69,0-3.31-.38-4.84-1.13-1.54-.76-2.74-1.76-3.63-3.02l1.51-1.62c1.9,2.34,4.16,3.5,6.78,3.5,2.25,0,4-.66,5.26-1.99,1.26-1.33,1.91-3.16,1.95-5.52v-3.06c-1.72,2.4-4.23,3.59-7.53,3.59-2.82,0-5.08-1.12-6.78-3.37-1.71-2.25-2.56-5.28-2.56-9.1v-.36ZM131.49,27.45c0,3.1.62,5.55,1.86,7.33s3,2.68,5.26,2.68c3.31,0,5.65-1.48,7.03-4.45v-11.3c-.63-1.56-1.54-2.74-2.72-3.56-1.18-.82-2.61-1.22-4.27-1.22-2.26,0-4.02.89-5.28,2.66-1.26,1.77-1.89,4.39-1.89,7.85Z"/>
        <path d="M154.36,45.47l-1.6-1.17c1.36-1.83,2.07-3.72,2.11-5.68v-3.48h2.63v2.81c0,3.11-1.05,5.62-3.15,7.53Z"/>
        <path d="M177.92,39.36h-2.7V4.85h2.7v34.5Z"/>
        <path d="M193.81,39.81c-2.07,0-3.94-.51-5.6-1.53s-2.97-2.44-3.9-4.26c-.93-1.82-1.39-3.86-1.39-6.12v-.97c0-2.34.45-4.44,1.36-6.31.91-1.87,2.17-3.34,3.79-4.41,1.62-1.07,3.37-1.61,5.26-1.61,2.95,0,5.29,1.01,7.02,3.02,1.73,2.01,2.59,4.77,2.59,8.26v1.5h-17.34v.52c0,2.76.79,5.05,2.37,6.89s3.57,2.75,5.96,2.75c1.44,0,2.71-.26,3.81-.79,1.1-.52,2.1-1.36,3-2.52l1.68,1.28c-1.98,2.86-4.84,4.29-8.6,4.29ZM193.31,16.89c-2.02,0-3.73.74-5.11,2.22s-2.23,3.47-2.53,5.98h14.58v-.29c-.08-2.34-.74-4.24-2-5.71-1.26-1.47-2.91-2.2-4.94-2.2Z"/>
        <path d="M211.45,8.83v6.22h5.03v2.2h-5.03v16.21c0,1.35.24,2.35.73,3.01s1.3.99,2.44.99c.45,0,1.18-.07,2.18-.22l.11,2.18c-.7.25-1.66.38-2.88.38-1.84,0-3.18-.54-4.02-1.61-.84-1.07-1.26-2.65-1.26-4.73v-16.22h-4.47v-2.2h4.47v-6.22h2.7Z"/>
        <path d="M226.5,8.83v6.22h5.03v2.2h-5.03v16.21c0,1.35.24,2.35.73,3.01.49.66,1.3.99,2.44.99.45,0,1.17-.07,2.18-.22l.11,2.18c-.71.25-1.66.38-2.88.38-1.84,0-3.18-.54-4.02-1.61-.84-1.07-1.26-2.65-1.26-4.73v-16.22h-4.47v-2.2h4.47v-6.22h2.7Z"/>
        <path d="M244.47,39.81c-2.07,0-3.94-.51-5.6-1.53-1.67-1.02-2.97-2.44-3.9-4.26-.93-1.82-1.39-3.86-1.39-6.12v-.97c0-2.34.45-4.44,1.36-6.31.91-1.87,2.17-3.34,3.79-4.41,1.62-1.07,3.37-1.61,5.26-1.61,2.95,0,5.29,1.01,7.02,3.02,1.73,2.01,2.59,4.77,2.59,8.26v1.5h-17.34v.52c0,2.76.79,5.05,2.37,6.89,1.58,1.83,3.57,2.75,5.96,2.75,1.44,0,2.71-.26,3.81-.79,1.1-.52,2.1-1.36,3-2.52l1.68,1.28c-1.98,2.86-4.84,4.29-8.6,4.29ZM243.97,16.89c-2.02,0-3.73.74-5.11,2.22-1.39,1.48-2.23,3.47-2.53,5.98h14.58v-.29c-.08-2.34-.74-4.24-2-5.71-1.26-1.47-2.91-2.2-4.94-2.2Z"/>
        <path d="M269.4,17.34c-.57-.1-1.18-.16-1.82-.16-1.68,0-3.1.47-4.26,1.4-1.16.94-1.99,2.29-2.48,4.08v16.69h-2.67V15.05h2.63l.04,3.86c1.42-2.88,3.71-4.31,6.85-4.31.75,0,1.34.1,1.77.29l-.07,2.45Z"/>
        <path d="M287.39,33.18c0-1.33-.54-2.4-1.61-3.21-1.07-.81-2.68-1.44-4.84-1.9-2.16-.46-3.83-.98-5.02-1.57-1.19-.59-2.07-1.31-2.65-2.17-.58-.85-.87-1.89-.87-3.1,0-1.92.8-3.5,2.4-4.75,1.6-1.25,3.65-1.88,6.16-1.88,2.71,0,4.89.67,6.53,2.01,1.64,1.34,2.46,3.09,2.46,5.25h-2.7c0-1.42-.6-2.61-1.79-3.55s-2.69-1.42-4.5-1.42-3.19.39-4.26,1.18c-1.07.79-1.61,1.81-1.61,3.07s.45,2.15,1.34,2.82c.89.67,2.52,1.28,4.87,1.83,2.36.55,4.13,1.15,5.3,1.77,1.18.63,2.05,1.39,2.62,2.27.57.88.85,1.95.85,3.21,0,2.05-.83,3.69-2.48,4.92s-3.82,1.84-6.48,1.84c-2.83,0-5.13-.69-6.89-2.06-1.76-1.37-2.64-3.1-2.64-5.2h2.7c.1,1.57.77,2.8,1.99,3.67,1.22.88,2.83,1.31,4.84,1.31,1.87,0,3.38-.41,4.54-1.24,1.15-.82,1.73-1.86,1.73-3.12Z"/>
        <path d="M314.77,27.45c0,3.79-.84,6.8-2.52,9.02-1.68,2.22-3.92,3.34-6.74,3.34-3.32,0-5.87-1.17-7.64-3.5v12.4h-2.67V15.05h2.49l.13,3.44c1.75-2.59,4.29-3.89,7.62-3.89,2.91,0,5.19,1.1,6.84,3.3,1.65,2.2,2.48,5.26,2.48,9.17v.38ZM312.07,26.98c0-3.1-.64-5.55-1.91-7.35-1.27-1.8-3.05-2.7-5.32-2.7-1.65,0-3.06.4-4.25,1.19-1.18.79-2.09,1.95-2.72,3.46v11.66c.64,1.39,1.56,2.46,2.76,3.19,1.2.73,2.61,1.1,4.25,1.1,2.26,0,4.02-.9,5.29-2.71s1.9-4.42,1.9-7.85Z"/>
        <path d="M335.1,39.36c-.27-.76-.44-1.89-.52-3.39-.94,1.23-2.15,2.18-3.61,2.84-1.46.67-3.01,1-4.64,1-2.34,0-4.23-.65-5.67-1.95-1.45-1.3-2.17-2.95-2.17-4.94,0-2.37.99-4.24,2.95-5.62,1.97-1.38,4.71-2.07,8.23-2.07h4.88v-2.76c0-1.74-.54-3.1-1.61-4.1-1.07-1-2.63-1.49-4.68-1.49-1.87,0-3.42.48-4.65,1.44-1.23.96-1.84,2.11-1.84,3.46l-2.7-.02c0-1.93.9-3.61,2.7-5.02,1.8-1.42,4.01-2.12,6.63-2.12s4.85.68,6.41,2.03c1.57,1.36,2.37,3.25,2.42,5.67v11.5c0,2.35.25,4.11.74,5.28v.27h-2.88ZM326.65,37.43c1.8,0,3.4-.43,4.82-1.3,1.42-.87,2.44-2.03,3.09-3.48v-5.35h-4.81c-2.68.03-4.78.52-6.29,1.47-1.51.95-2.27,2.26-2.27,3.92,0,1.36.5,2.49,1.52,3.39,1.01.9,2.33,1.35,3.94,1.35Z"/>
        <path d="M347.25,8.83v6.22h5.03v2.2h-5.03v16.21c0,1.35.24,2.35.73,3.01.49.66,1.3.99,2.44.99.45,0,1.17-.07,2.18-.22l.11,2.18c-.7.25-1.66.38-2.88.38-1.84,0-3.18-.54-4.02-1.61s-1.26-2.65-1.26-4.73v-16.22h-4.47v-2.2h4.47v-6.22h2.7Z"/>
        <path d="M356.43,8.03c0-.51.17-.93.5-1.28.33-.35.78-.52,1.35-.52s1.02.18,1.36.52c.34.35.51.78.51,1.28s-.17.93-.51,1.27c-.34.34-.79.51-1.36.51s-1.02-.17-1.35-.51c-.33-.34-.5-.77-.5-1.27ZM359.6,39.36h-2.7V15.05h2.7v24.31Z"/>
        <path d="M375.38,39.81c-2.07,0-3.94-.51-5.6-1.53-1.67-1.02-2.97-2.44-3.9-4.26-.93-1.82-1.39-3.86-1.39-6.12v-.97c0-2.34.45-4.44,1.36-6.31.91-1.87,2.17-3.34,3.79-4.41,1.62-1.07,3.37-1.61,5.26-1.61,2.95,0,5.29,1.01,7.02,3.02,1.73,2.01,2.59,4.77,2.59,8.26v1.5h-17.34v.52c0,2.76.79,5.05,2.37,6.89,1.58,1.83,3.57,2.75,5.96,2.75,1.44,0,2.71-.26,3.81-.79,1.1-.52,2.1-1.36,3-2.52l1.68,1.28c-1.98,2.86-4.84,4.29-8.6,4.29ZM374.88,16.89c-2.02,0-3.73.74-5.11,2.22-1.39,1.48-2.23,3.47-2.53,5.98h14.58v-.29c-.08-2.34-.74-4.24-2-5.71-1.26-1.47-2.91-2.2-4.94-2.2ZM368.46,8c0-.51.16-.94.49-1.29.33-.35.78-.53,1.35-.53s1.02.18,1.36.53c.34.35.5.78.5,1.29s-.17.91-.5,1.26c-.34.34-.79.52-1.36.52s-1.02-.17-1.35-.52c-.33-.34-.49-.76-.49-1.26ZM378.3,8.02c0-.51.17-.94.49-1.29.33-.35.78-.53,1.35-.53s1.02.18,1.36.53c.34.35.51.78.51,1.29s-.17.91-.51,1.26c-.34.34-.79.52-1.36.52s-1.02-.17-1.35-.52c-.33-.34-.49-.76-.49-1.26Z"/>
        <path d="M400.31,17.34c-.57-.1-1.18-.16-1.82-.16-1.68,0-3.1.47-4.26,1.4-1.16.94-1.99,2.29-2.48,4.08v16.69h-2.67V15.05h2.63l.04,3.86c1.42-2.88,3.71-4.31,6.85-4.31.75,0,1.34.1,1.77.29l-.07,2.45Z"/>
        <path d="M403.63,8.03c0-.51.17-.93.5-1.28.33-.35.78-.52,1.35-.52s1.02.18,1.36.52c.34.35.51.78.51,1.28s-.17.93-.51,1.27c-.34.34-.79.51-1.36.51s-1.02-.17-1.35-.51c-.33-.34-.5-.77-.5-1.27ZM406.8,39.36h-2.7V15.05h2.7v24.31Z"/>
        <path d="M415.65,15.05l.09,4.16c.91-1.5,2.05-2.64,3.41-3.43,1.36-.79,2.87-1.18,4.52-1.18,2.61,0,4.54.73,5.82,2.2,1.27,1.47,1.92,3.67,1.93,6.6v15.95h-2.67v-15.97c-.02-2.17-.48-3.79-1.38-4.85s-2.36-1.6-4.35-1.6c-1.66,0-3.13.52-4.41,1.56s-2.23,2.44-2.84,4.21v16.65h-2.67V15.05h2.56Z"/>
        <path d="M436.45,26.98c0-3.8.84-6.82,2.53-9.04,1.68-2.22,3.97-3.34,6.86-3.34,3.31,0,5.83,1.32,7.55,3.95l.13-3.5h2.52v23.81c0,3.13-.88,5.61-2.63,7.44s-4.13,2.74-7.12,2.74c-1.69,0-3.31-.38-4.84-1.13-1.54-.76-2.75-1.76-3.63-3.02l1.5-1.62c1.9,2.34,4.16,3.5,6.78,3.5,2.25,0,4-.66,5.26-1.99,1.26-1.33,1.91-3.16,1.95-5.52v-3.06c-1.72,2.4-4.23,3.59-7.53,3.59-2.82,0-5.08-1.12-6.78-3.37-1.71-2.25-2.56-5.28-2.56-9.1v-.36ZM439.17,27.45c0,3.1.62,5.55,1.86,7.33s3,2.68,5.26,2.68c3.31,0,5.65-1.48,7.03-4.45v-11.3c-.63-1.56-1.54-2.74-2.72-3.56-1.18-.82-2.61-1.22-4.27-1.22-2.26,0-4.02.89-5.28,2.66-1.26,1.77-1.89,4.39-1.89,7.85Z"/>
        <path d="M9.28,82.32l-3.08,2.97v9.28h-2.7v-34.5h2.7v22.08l2.54-2.74,9.3-9.14h3.39l-10.31,10.24,11.21,14.06h-3.21l-9.84-12.24Z"/>
        <path d="M35,95.01c-2.07,0-3.94-.51-5.6-1.53s-2.97-2.44-3.9-4.26c-.93-1.82-1.39-3.86-1.39-6.12v-.97c0-2.34.45-4.44,1.36-6.31.91-1.87,2.17-3.34,3.79-4.41,1.62-1.07,3.37-1.61,5.26-1.61,2.95,0,5.29,1.01,7.02,3.02,1.73,2.01,2.59,4.77,2.59,8.26v1.5h-17.34v.52c0,2.76.79,5.05,2.37,6.89s3.57,2.75,5.96,2.75c1.44,0,2.71-.26,3.81-.79,1.1-.52,2.1-1.36,3-2.52l1.68,1.28c-1.98,2.86-4.84,4.29-8.6,4.29ZM34.51,72.1c-2.02,0-3.73.74-5.11,2.22s-2.23,3.47-2.53,5.98h14.58v-.29c-.08-2.34-.74-4.24-2-5.71-1.26-1.47-2.91-2.2-4.94-2.2Z"/>
        <path d="M60.59,72.55c-.57-.1-1.18-.16-1.82-.16-1.68,0-3.1.47-4.26,1.4-1.16.94-1.99,2.29-2.48,4.08v16.69h-2.67v-24.31h2.63l.04,3.86c1.42-2.88,3.71-4.31,6.85-4.31.75,0,1.34.1,1.77.29l-.07,2.45Z"/>
        <path d="M67.39,70.26l.09,4.16c.91-1.5,2.05-2.64,3.41-3.43,1.36-.79,2.87-1.18,4.52-1.18,2.61,0,4.55.73,5.82,2.2,1.27,1.47,1.92,3.67,1.93,6.6v15.95h-2.67v-15.97c-.02-2.17-.48-3.79-1.38-4.85s-2.35-1.6-4.35-1.6c-1.66,0-3.13.52-4.41,1.56-1.28,1.04-2.23,2.44-2.84,4.21v16.65h-2.67v-24.31h2.56Z"/>
        <path d="M89.95,63.24c0-.51.16-.93.49-1.28.33-.35.78-.52,1.35-.52s1.02.18,1.36.52.51.78.51,1.28-.17.93-.51,1.27-.79.51-1.36.51-1.02-.17-1.35-.51c-.33-.34-.49-.77-.49-1.27ZM93.11,94.57h-2.7v-24.31h2.7v24.31Z"/>
        <path d="M102.98,70.26l.09,4.16c.91-1.5,2.05-2.64,3.41-3.43,1.36-.79,2.87-1.18,4.52-1.18,2.61,0,4.55.73,5.82,2.2,1.27,1.47,1.92,3.67,1.93,6.6v15.95h-2.67v-15.97c-.02-2.17-.48-3.79-1.38-4.85s-2.35-1.6-4.35-1.6c-1.66,0-3.13.52-4.41,1.56-1.28,1.04-2.23,2.44-2.84,4.21v16.65h-2.67v-24.31h2.56Z"/>
        <path d="M124.61,82.19c0-3.8.84-6.82,2.53-9.04,1.69-2.22,3.97-3.34,6.86-3.34,3.31,0,5.83,1.32,7.55,3.95l.13-3.5h2.52v23.81c0,3.13-.88,5.61-2.63,7.44-1.75,1.83-4.13,2.74-7.12,2.74-1.69,0-3.31-.38-4.84-1.13-1.54-.76-2.74-1.76-3.63-3.02l1.51-1.62c1.9,2.34,4.16,3.5,6.78,3.5,2.25,0,4-.66,5.26-1.99,1.26-1.33,1.91-3.16,1.95-5.52v-3.06c-1.72,2.4-4.23,3.59-7.53,3.59-2.82,0-5.08-1.12-6.78-3.37-1.71-2.25-2.56-5.28-2.56-9.1v-.36ZM127.33,82.66c0,3.1.62,5.55,1.86,7.33s3,2.68,5.26,2.68c3.31,0,5.65-1.48,7.03-4.45v-11.3c-.63-1.56-1.54-2.74-2.72-3.56-1.18-.82-2.61-1.22-4.27-1.22-2.26,0-4.02.89-5.28,2.66-1.26,1.77-1.89,4.39-1.89,7.85Z"/>
        <path d="M150.64,100.68l-1.6-1.17c1.36-1.83,2.07-3.72,2.11-5.68v-3.48h2.63v2.81c0,3.11-1.05,5.62-3.15,7.53Z"/>
        <path d="M174.21,94.57h-2.7v-34.5h2.7v34.5Z"/>
        <path d="M190.92,95.01c-2.07,0-3.94-.51-5.6-1.53s-2.97-2.44-3.9-4.26c-.93-1.82-1.39-3.86-1.39-6.12v-.97c0-2.34.45-4.44,1.36-6.31.91-1.87,2.17-3.34,3.79-4.41,1.62-1.07,3.37-1.61,5.26-1.61,2.95,0,5.29,1.01,7.02,3.02,1.73,2.01,2.59,4.77,2.59,8.26v1.5h-17.34v.52c0,2.76.79,5.05,2.37,6.89s3.57,2.75,5.96,2.75c1.44,0,2.71-.26,3.81-.79,1.1-.52,2.1-1.36,3-2.52l1.68,1.28c-1.98,2.86-4.84,4.29-8.6,4.29ZM190.43,72.1c-2.02,0-3.73.74-5.11,2.22s-2.23,3.47-2.53,5.98h14.58v-.29c-.08-2.34-.74-4.24-2-5.71-1.26-1.47-2.91-2.2-4.94-2.2Z"/>
        <path d="M209.46,64.04v6.22h5.03v2.2h-5.03v16.21c0,1.35.24,2.35.73,3.01s1.3.99,2.44.99c.45,0,1.18-.07,2.18-.22l.11,2.18c-.7.25-1.66.38-2.88.38-1.84,0-3.18-.54-4.02-1.61-.84-1.07-1.26-2.65-1.26-4.73v-16.22h-4.47v-2.2h4.47v-6.22h2.7Z"/>
        <path d="M224.24,64.04v6.22h5.03v2.2h-5.03v16.21c0,1.35.24,2.35.73,3.01.49.66,1.3.99,2.44.99.45,0,1.17-.07,2.18-.22l.11,2.18c-.71.25-1.66.38-2.88.38-1.84,0-3.18-.54-4.02-1.61-.84-1.07-1.26-2.65-1.26-4.73v-16.22h-4.47v-2.2h4.47v-6.22h2.7Z"/>
        <path d="M244.25,95.01c-2.07,0-3.94-.51-5.6-1.53-1.67-1.02-2.97-2.44-3.9-4.26-.93-1.82-1.39-3.86-1.39-6.12v-.97c0-2.34.45-4.44,1.36-6.31.91-1.87,2.17-3.34,3.79-4.41,1.62-1.07,3.37-1.61,5.26-1.61,2.95,0,5.29,1.01,7.02,3.02,1.73,2.01,2.59,4.77,2.59,8.26v1.5h-17.34v.52c0,2.76.79,5.05,2.37,6.89,1.58,1.83,3.57,2.75,5.96,2.75,1.44,0,2.71-.26,3.81-.79,1.1-.52,2.1-1.36,3-2.52l1.68,1.28c-1.98,2.86-4.84,4.29-8.6,4.29ZM243.76,72.1c-2.02,0-3.73.74-5.11,2.22-1.39,1.48-2.23,3.47-2.53,5.98h14.58v-.29c-.08-2.34-.74-4.24-2-5.71-1.26-1.47-2.91-2.2-4.94-2.2Z"/>
        <path d="M269.84,72.55c-.57-.1-1.18-.16-1.82-.16-1.68,0-3.1.47-4.26,1.4-1.16.94-1.99,2.29-2.48,4.08v16.69h-2.67v-24.31h2.63l.04,3.86c1.42-2.88,3.71-4.31,6.85-4.31.75,0,1.34.1,1.77.29l-.07,2.45Z"/>
        <path d="M288.64,88.39c0-1.33-.54-2.4-1.61-3.21-1.07-.81-2.68-1.44-4.84-1.9-2.16-.46-3.83-.98-5.02-1.57-1.19-.59-2.07-1.31-2.65-2.17-.58-.85-.87-1.89-.87-3.1,0-1.92.8-3.5,2.4-4.75,1.6-1.25,3.65-1.88,6.16-1.88,2.71,0,4.89.67,6.53,2.01,1.64,1.34,2.46,3.09,2.46,5.25h-2.7c0-1.42-.6-2.61-1.79-3.55s-2.69-1.42-4.5-1.42-3.19.39-4.26,1.18c-1.07.79-1.61,1.81-1.61,3.07s.45,2.15,1.34,2.82c.89.67,2.52,1.28,4.87,1.83,2.36.55,4.13,1.15,5.3,1.77,1.18.63,2.05,1.39,2.62,2.27.57.88.85,1.95.85,3.21,0,2.05-.83,3.69-2.48,4.92s-3.82,1.84-6.48,1.84c-2.83,0-5.13-.69-6.89-2.06-1.76-1.37-2.64-3.1-2.64-5.2h2.7c.1,1.57.77,2.8,1.99,3.67,1.22.88,2.83,1.31,4.84,1.31,1.87,0,3.38-.41,4.54-1.24,1.15-.82,1.73-1.86,1.73-3.12Z"/>
        <path d="M316.92,82.66c0,3.79-.84,6.8-2.52,9.02-1.68,2.22-3.92,3.34-6.74,3.34-3.32,0-5.87-1.17-7.64-3.5v12.4h-2.67v-33.65h2.49l.13,3.44c1.75-2.59,4.29-3.89,7.62-3.89,2.91,0,5.19,1.1,6.84,3.3,1.65,2.2,2.48,5.26,2.48,9.17v.38ZM314.23,82.19c0-3.1-.64-5.55-1.91-7.35-1.27-1.8-3.05-2.7-5.32-2.7-1.65,0-3.06.4-4.25,1.19-1.18.79-2.09,1.95-2.72,3.46v11.66c.64,1.39,1.56,2.46,2.76,3.19,1.2.73,2.61,1.1,4.25,1.1,2.26,0,4.02-.9,5.29-2.71s1.9-4.42,1.9-7.85Z"/>
        <path d="M338.22,94.57c-.27-.76-.44-1.89-.52-3.39-.94,1.23-2.15,2.18-3.61,2.84-1.46.67-3.01,1-4.64,1-2.34,0-4.23-.65-5.67-1.95-1.45-1.3-2.17-2.95-2.17-4.94,0-2.37.99-4.24,2.95-5.62,1.97-1.38,4.71-2.07,8.23-2.07h4.88v-2.76c0-1.74-.54-3.1-1.61-4.1-1.07-1-2.63-1.49-4.68-1.49-1.87,0-3.42.48-4.65,1.44-1.23.96-1.84,2.11-1.84,3.46l-2.7-.02c0-1.93.9-3.61,2.7-5.02,1.8-1.42,4.01-2.12,6.63-2.12s4.85.68,6.41,2.03c1.57,1.36,2.37,3.25,2.42,5.67v11.5c0,2.35.25,4.11.74,5.28v.27h-2.88ZM329.77,92.63c1.8,0,3.4-.43,4.82-1.3,1.42-.87,2.44-2.03,3.09-3.48v-5.35h-4.81c-2.68.03-4.78.52-6.29,1.47-1.51.95-2.27,2.26-2.27,3.92,0,1.36.5,2.49,1.52,3.39,1.01.9,2.33,1.35,3.94,1.35Z"/>
        <path d="M351.7,64.04v6.22h5.03v2.2h-5.03v16.21c0,1.35.24,2.35.73,3.01.49.66,1.3.99,2.44.99.45,0,1.17-.07,2.18-.22l.11,2.18c-.7.25-1.66.38-2.88.38-1.84,0-3.18-.54-4.02-1.61s-1.26-2.65-1.26-4.73v-16.22h-4.47v-2.2h4.47v-6.22h2.7Z"/>
        <path d="M362.14,63.24c0-.51.17-.93.5-1.28.33-.35.78-.52,1.35-.52s1.02.18,1.36.52c.34.35.51.78.51,1.28s-.17.93-.51,1.27c-.34.34-.79.51-1.36.51s-1.02-.17-1.35-.51c-.33-.34-.5-.77-.5-1.27ZM365.31,94.57h-2.7v-24.31h2.7v24.31Z"/>
        <path d="M382.03,95.01c-2.07,0-3.94-.51-5.6-1.53-1.67-1.02-2.97-2.44-3.9-4.26-.93-1.82-1.39-3.86-1.39-6.12v-.97c0-2.34.45-4.44,1.36-6.31.91-1.87,2.17-3.34,3.79-4.41,1.62-1.07,3.37-1.61,5.26-1.61,2.95,0,5.29,1.01,7.02,3.02,1.73,2.01,2.59,4.77,2.59,8.26v1.5h-17.34v.52c0,2.76.79,5.05,2.37,6.89,1.58,1.83,3.57,2.75,5.96,2.75,1.44,0,2.71-.26,3.81-.79,1.1-.52,2.1-1.36,3-2.52l1.68,1.28c-1.98,2.86-4.84,4.29-8.6,4.29ZM381.53,72.1c-2.02,0-3.73.74-5.11,2.22-1.39,1.48-2.23,3.47-2.53,5.98h14.58v-.29c-.08-2.34-.74-4.24-2-5.71-1.26-1.47-2.91-2.2-4.94-2.2ZM375.11,63.21c0-.51.16-.94.49-1.29.33-.35.78-.53,1.35-.53s1.02.18,1.36.53c.34.35.5.78.5,1.29s-.17.91-.5,1.26c-.34.34-.79.52-1.36.52s-1.02-.17-1.35-.52c-.33-.34-.49-.76-.49-1.26ZM384.95,63.23c0-.51.17-.94.49-1.29.33-.35.78-.53,1.35-.53s1.02.18,1.36.53c.34.35.51.78.51,1.29s-.17.91-.51,1.26c-.34.34-.79.52-1.36.52s-1.02-.17-1.35-.52c-.33-.34-.49-.76-.49-1.26Z"/>
        <path d="M407.61,72.55c-.57-.1-1.18-.16-1.82-.16-1.68,0-3.1.47-4.26,1.4-1.16.94-1.99,2.29-2.48,4.08v16.69h-2.67v-24.31h2.63l.04,3.86c1.42-2.88,3.71-4.31,6.85-4.31.75,0,1.34.1,1.77.29l-.07,2.45Z"/>
        <path d="M411.7,63.24c0-.51.17-.93.5-1.28.33-.35.78-.52,1.35-.52s1.02.18,1.36.52c.34.35.51.78.51,1.28s-.17.93-.51,1.27c-.34.34-.79.51-1.36.51s-1.02-.17-1.35-.51c-.33-.34-.5-.77-.5-1.27ZM414.87,94.57h-2.7v-24.31h2.7v24.31Z"/>
        <path d="M424.73,70.26l.09,4.16c.91-1.5,2.05-2.64,3.41-3.43,1.36-.79,2.87-1.18,4.52-1.18,2.61,0,4.54.73,5.82,2.2,1.27,1.47,1.92,3.67,1.93,6.6v15.95h-2.67v-15.97c-.02-2.17-.48-3.79-1.38-4.85s-2.36-1.6-4.35-1.6c-1.66,0-3.13.52-4.41,1.56s-2.23,2.44-2.84,4.21v16.65h-2.67v-24.31h2.56Z"/>
        <path d="M446.36,82.19c0-3.8.84-6.82,2.53-9.04,1.68-2.22,3.97-3.34,6.86-3.34,3.31,0,5.83,1.32,7.55,3.95l.13-3.5h2.52v23.81c0,3.13-.88,5.61-2.63,7.44s-4.13,2.74-7.12,2.74c-1.69,0-3.31-.38-4.84-1.13-1.54-.76-2.75-1.76-3.63-3.02l1.5-1.62c1.9,2.34,4.16,3.5,6.78,3.5,2.25,0,4-.66,5.26-1.99,1.26-1.33,1.91-3.16,1.95-5.52v-3.06c-1.72,2.4-4.23,3.59-7.53,3.59-2.82,0-5.08-1.12-6.78-3.37-1.71-2.25-2.56-5.28-2.56-9.1v-.36ZM449.08,82.66c0,3.1.62,5.55,1.86,7.33s3,2.68,5.26,2.68c3.31,0,5.65-1.48,7.03-4.45v-11.3c-.63-1.56-1.54-2.74-2.72-3.56-1.18-.82-2.61-1.22-4.27-1.22-2.26,0-4.02.89-5.28,2.66-1.26,1.77-1.89,4.39-1.89,7.85Z"/>
      </g>
    </g>
  </g>
</svg>