<?xml version="1.0" encoding="UTF-8"?>
<svg xmlns="http://www.w3.org/2000/svg" version="1.1" viewBox="0 0 512 512">
  <!-- Generator: Adobe Illustrator 28.7.1, SVG Export Plug-In . SVG Version: 1.2.0 Build 142)  -->
  <g>
    <g id="Layer_1">
      <path d="M308.37,394.36v-12.52c24.48,0,36.73-10.15,36.73-30.47l-2.92-194.07-88.9,237.06h-11.69l-95.16-233.3-1.67,184.05c-.28,24.49,13.63,36.73,41.74,36.73v12.52h-100.58v-12.52c25.31,0,38.67-13.38,40.07-40.13l3.34-186.46v-4.18c0-3.07-.35-5.85-1.04-8.36-.7-2.5-2.5-4.74-5.43-6.69s-7.16-3.41-12.74-4.39c-5.57-.98-13.08-1.47-22.54-1.47v-12.52h85.98l84.31,211.6,80.55-211.6h84.72v12.52c-9.18,0-16.42.63-21.7,1.88-5.29,1.25-9.25,3.07-11.89,5.44-2.65,2.37-4.32,5.09-5.01,8.16-.7,3.07-1.04,6.27-1.04,9.61l4.59,193.13c0,22.3,12.66,33.44,37.98,33.44v12.52h-117.71Z"/>
    </g>
  </g>
</svg>