<?xml version="1.0" encoding="UTF-8"?>
<svg xmlns="http://www.w3.org/2000/svg" version="1.1" viewBox="0 0 538.6 538.6">
  <!-- Generator: Adobe Illustrator 28.7.1, SVG Export Plug-In . SVG Version: 1.2.0 Build 142)  -->
  <g>
    <g id="Layer_1">
      <g id="Layer_1-2" data-name="Layer_1">
        <g id="Layer_1-2">
          <g id="Layer_1-2-2" data-name="Layer_1-2">
            <g id="Layer_1-2-2">
              <g id="Layer_1-2-2-2" data-name="Layer_1-2-2">
                <g>
                  <path d="M190.4,170.4c0,3.4-3.5,8.4-10.4,14.9s-15.4,12.7-25.4,18.7c-1.3,4.1-3.2,11.5-5.7,22.3-4,16.9-7.7,28.9-11.1,35.9-3.4,7.1-8.9,14.3-16.7,21.6-22.4,21.2-47.5,31.8-75.3,31.8s-15-1.3-21.1-4c-3.4,6.6-5.1,12.4-5.1,17.3s2.1,11.9,6.2,17.1c.4.4.6.9.6,1.5s-.4.9-1.1.9c-1.7,0-3.4-2.2-5.4-6.7-1.9-4.5-2.9-8.6-2.9-12.5,0-5.6,1.8-11.8,5.5-18.6-15-7.8-22.5-21.1-22.5-40s3.6-24.2,10.8-36.2c7.2-12,17.3-22.8,30.3-32.4,16.6-12.2,33-18.3,49.2-18.3s15.8,2.5,21.1,7.4c5.2,5,7.8,11.7,7.8,20.2s-.6,9.2-1.9,14.1c10.5-7,19.9-13,28-17.9,5.2-11.3,11.7-21,19.5-29.1s14.6-12.2,20.5-12.2,5.1,1.4,5.1,4.2h0ZM117.4,210.9c0-7.5-2.4-13.6-7.2-18.2s-11.1-6.9-18.9-6.9c-19.3,0-38,10.1-56.1,30.2-18.1,20.1-27.1,41-27.1,62.5s5.2,24.2,15.6,30.2c4.9-8,11.9-16.8,21-26.4-4.7-4.1-7.1-9-7.1-14.7s1.4-8,4.1-11c2.7-3.1,6-4.6,9.9-4.6s7.2,2.2,7.2,6.7-.9,4.3-2.7,6-3.9,2.5-6.4,2.5c-3.5,0-5.3-1.7-5.3-5.1s.4-2.2,1.1-3.4c.3-.9.4-1.5.4-1.6,0-.4-.2-.6-.6-.6-1.2,0-2.5,1.3-3.8,3.9s-1.9,5.1-1.9,7.6c0,4.7,2.2,9,6.6,12.7,14.4-15.2,37.2-33,68.4-53.4,1.8-6.3,2.7-11.8,2.7-16.4h.1ZM144.1,210.4c-8.4,5.3-17.6,11.4-27.6,18.1-4.7,15.2-13,28.6-24.9,40.1s-23.3,17.2-34.2,17.2-6.9-.9-10.9-2.6c-8.1,8.4-15,17.2-20.7,26.5,5.9,2.7,12.6,4,20,4,13.5,0,26.6-3.8,39.2-11.5,12.6-7.6,23.5-18.3,32.5-31.8,4.2-6.3,7.6-12.2,10-17.6s6.4-15.6,11.8-30.7c1.3-3.7,2.8-7.6,4.6-11.7h.2ZM113.7,230.3l-7.1,4.9c-27.1,18.7-46.6,34.2-58.6,46.7,3,1.6,6.3,2.4,9.7,2.4,10,0,20.6-5.3,31.6-15.8,11-10.6,19.1-23.2,24.4-38h0v-.2ZM188.4,170.7c0-1.7-1-2.6-3-2.6-4.8,0-10.2,3.3-16.1,10s-10.5,14.4-13.7,23.3c9.5-5.8,17.3-11.6,23.5-17.5,6.2-5.8,9.3-10.2,9.3-13.3h0v.1Z"/>
                  <path d="M200.6,277.5c0,.9-5.1,7-15.2,18.1-11.1,12.1-20.5,18.1-28.2,18.1s-9.3-1.9-12.9-5.8c-3.6-3.8-5.4-8.4-5.4-13.7s2.4-12.3,7.3-18.8c4.9-6.5,11.5-12,19.7-16.7,7-4,12.6-6,17-6s8,3.2,8,9.5-1.7,9.9-5,14.9-6.7,7.4-10,7.4-4.9-1.6-4.9-4.9,3.3-7.3,9.9-10.6c5.1-2.5,7.6-5.8,7.6-9.9s-1.8-4.9-5.3-4.9c-6,0-13.3,5.9-22,17.8-8.7,11.8-13,21.8-13,29.9s3.2,10.1,9.5,10.1c9.9,0,23.4-11.2,40.3-33.6.9-1.2,1.6-1.7,2.1-1.7.3,0,.4.3.4.6h0l.1.2Z"/>
                  <path d="M262,277.5c0,.6-2.2,3.2-6.5,7.9-5.5,6.1-10.6,9.1-15.4,9.1s-8.2-3.2-8.2-9.5.4-4.6,1.3-7.6c-4.5,4-8.2,7.9-11,11.7-2.8,3.9-7.7,11.8-14.7,23.7-3.8-.3-6-.4-6.7-.4s-2.5.1-6.6.4l17.7-28.7c8.8-14.4,13.2-23.3,13.2-26.7s-.8-3-2.5-3c-4,0-11.3,7.7-21.9,23.2-.6,1-1.2,1.5-1.7,1.5-.3,0-.4-.3-.4-.6,0-.4.2-.6.4-.9l1.9-2.7c11.1-14.8,18.6-22.1,22.6-22.1,5.8,0,8.6,3.7,8.6,11.1s-2.9,12.9-8.8,22c3.7-4.3,7.3-7.8,10.7-10.6,2.7-6.4,6.1-11.7,10.2-16.1,4.1-4.3,7.7-6.5,10.9-6.5s3.3,1,3.3,2.9c0,3.4-5,8.4-15,14.8-1.6,1-3.9,2.5-7.1,4.4l-1.3,1.1c-1,3.3-1.5,6-1.5,8.2,0,6,2.3,9.1,6.8,9.1s11.7-4.6,18.3-13.9c1.4-1.6,2.3-2.4,2.7-2.4s.6.2.6.6h.1Z"/>
                  <path d="M298.7,277.5c0,.2-.4.8-1.1,1.7l-4.6,6.4c-13.5,18.8-23.8,28.2-30.9,28.2s-6.2-1.2-8.5-3.6-3.4-5.4-3.4-9,2.5-10.5,7.4-19l16.8-28.6c2.2.5,4,.8,5.3.8,1.9,0,4.7-.2,8.2-.8l-24.4,40.2c-3.5,5.8-5.3,10.3-5.3,13.5s1.7,4.9,5.1,4.9c6.4,0,17.6-11.4,33.7-34.2.4-.7.7-1.1,1.1-1.1s.6.2.6.6h0ZM297.2,233c0,2.5-1.1,4.9-3.2,7.1-2.1,2.2-4.4,3.3-7,3.3s-4.9-1.6-4.9-4.9,1.1-4.7,3.3-6.8,4.6-3.3,7-3.3,4.6,1.5,4.6,4.6h.2Z"/>
                  <path d="M350.2,270c0,11.7-7.3,22.4-21.9,32-11.8,7.8-21.1,11.7-27.8,11.7s-6.9-2.2-6.9-6.5.4-3.1,1.1-5.3l-41.3,68.9c-2.5-.6-4.6-.9-6.1-.9-2.4,0-4.7.4-7,1.3l88.4-145.5c1.9.6,3.8,1,5.7,1s4.3-.3,7.1-1l-32,51.7c7.7-10.2,13.3-16.9,16.7-20,3.5-3.2,7-4.7,10.4-4.7s7,1.6,9.6,5c2.6,3.3,3.9,7.4,3.9,12.3h.1ZM342.2,261.4c0-4.7-2.1-7-6.3-7s-14,8.4-26.4,25.3c-9.5,13.1-14.3,22.1-14.3,26.9s1.7,5.5,5.1,5.5c6.6,0,15.2-6.4,25.9-19.3,10.7-12.9,16-23.4,16-31.4h0Z"/>
                  <path d="M397.1,252.8l-.9,1.6h-14.1l-24,41.1c-2.9,5-4.4,8.9-4.4,11.8s1.7,4.9,5.1,4.9c6.5,0,17.6-11.4,33.1-34.2.5-.7.9-1.1,1.3-1.1s.6.2.6.6c0,.2-.4.8-1.1,1.7l-4.6,6.4c-13.5,18.8-23.7,28.2-30.5,28.2s-6.2-1.2-8.5-3.7c-2.3-2.4-3.4-5.5-3.4-9.2s1.9-9.7,5.7-16.2l18.1-30.4h-11l1.1-1.6h10.8l12.6-20.9c2.2.6,4.2.9,6.1.9s4.1-.3,6.3-.9l-12.4,20.9h14.1v.1Z"/>
                </g>
              </g>
            </g>
          </g>
        </g>
      </g>
    </g>
  </g>
</svg>