<?xml version="1.0" encoding="UTF-8"?>
<svg xmlns="http://www.w3.org/2000/svg" version="1.1" viewBox="0 0 708.66 335.08">
  <defs>
    <style>
      .cls-1 {
        fill-opacity: .2;
      }
    </style>
  </defs>
  <!-- Generator: Adobe Illustrator 29.0.0, SVG Export Plug-In . SVG Version: 1.2.0 Build 15)  -->
  <g>
    <g id="Layer_1">
      <g id="Layer_1-2" data-name="Layer_1">
        <g id="Layer_1-2">
          <g>
            <path d="M235.3,64.32v-3.19h2.52c.45,0,.86-.04,1.23-.13s.69-.27.97-.54.49-.66.64-1.17c.16-.51.23-1.19.23-2.05v-28.68c0-.86-.08-1.54-.23-2.05-.16-.51-.37-.9-.64-1.17s-.6-.45-.97-.54-.78-.13-1.23-.13h-2.52v-3.16h20.71v3.16h-2.52c-.41,0-.81.04-1.19.13s-.71.26-.98.51c-.27.25-.49.62-.66,1.1s-.25,1.12-.25,1.92v32.34h11.16c1.41,0,2.5-.44,3.28-1.33.78-.89,1.35-2.18,1.7-3.88l.97-4.51h3.37l-.44,13.39h-35.16v-.02h0Z"/>
            <path d="M290.98,64.9c-2.54,0-4.78-.37-6.72-1.11-1.94-.74-3.57-1.82-4.88-3.22-1.31-1.41-2.3-3.13-2.96-5.17-.66-2.04-1-4.37-1-6.99,0-2.81.33-5.28,1-7.41.66-2.13,1.63-3.91,2.9-5.33,1.27-1.43,2.83-2.49,4.67-3.21,1.85-.71,3.95-1.07,6.31-1.07,2.17,0,4.12.31,5.86.92,1.74.62,3.21,1.53,4.42,2.74,1.21,1.21,2.14,2.71,2.78,4.51.64,1.8.97,3.89.97,6.27v3.08h-19.66c.06,2.01.28,3.74.66,5.19.38,1.45.91,2.64,1.58,3.57s1.49,1.63,2.46,2.08c.97.45,2.08.67,3.33.67,1.04,0,1.99-.12,2.87-.37.88-.24,1.67-.59,2.39-1.03.71-.44,1.34-.96,1.88-1.55.54-.6.98-1.23,1.33-1.92,1.07.59,1.61,1.56,1.61,2.93,0,.86-.23,1.67-.7,2.45-.47.77-1.19,1.45-2.17,2.04s-2.2,1.05-3.68,1.41c-1.48.35-3.23.53-5.26.53h.01ZM290.42,35.28c-1.68,0-3.01.83-4,2.49s-1.53,4.09-1.63,7.29h10.37c0-1.52-.09-2.89-.26-4.1-.18-1.21-.45-2.24-.83-3.08-.38-.84-.87-1.48-1.46-1.93-.6-.45-1.32-.67-2.18-.67,0,0-.01,0-.01,0Z"/>
            <path d="M322.73,35.05c-.76,0-1.4.16-1.92.48-.52.32-.93.77-1.25,1.35-.31.58-.53,1.26-.66,2.05s-.19,1.66-.19,2.59c-2.7,0-4.72-.3-6.08-.91-1.36-.6-2.04-1.64-2.04-3.11,0-1.09.33-2.03.98-2.81.65-.78,1.54-1.42,2.67-1.9,1.12-.49,2.43-.84,3.93-1.07,1.49-.22,3.09-.34,4.79-.34,2.11,0,3.95.18,5.52.54,1.57.36,2.88.94,3.93,1.74,1.04.8,1.83,1.85,2.36,3.15.53,1.3.79,2.89.79,4.76v15.29c0,.82.06,1.5.19,2.05s.33.98.6,1.3c.27.32.64.55,1.11.69.47.14,1.04.21,1.7.21h.23v3.19h-11.16l-1.26-4.13h-.53c-.66.8-1.29,1.5-1.88,2.09-.59.6-1.21,1.09-1.88,1.48-.66.39-1.41.68-2.24.86-.83.19-1.81.28-2.94.28-1.33,0-2.56-.2-3.71-.59s-2.14-.99-2.99-1.8c-.85-.81-1.52-1.83-2.01-3.05-.49-1.22-.73-2.66-.73-4.32,0-3.26,1.12-5.67,3.35-7.24,2.24-1.56,5.6-2.41,10.09-2.55l4.92-.18v-3.31c0-1-.04-1.91-.12-2.75s-.24-1.56-.5-2.17c-.25-.6-.63-1.07-1.13-1.41-.5-.33-1.16-.5-1.98-.5l.04.04ZM317.4,55.38c0,1.72.27,3.01.82,3.87.55.86,1.41,1.29,2.58,1.29.86,0,1.64-.18,2.33-.54.69-.36,1.29-.87,1.79-1.54.5-.66.88-1.47,1.14-2.42.26-.95.4-2.01.4-3.18v-4.51l-2.7.18c-1.19.06-2.2.25-3.02.57s-1.48.77-1.96,1.33c-.49.57-.84,1.26-1.05,2.08-.22.82-.32,1.78-.32,2.87h-.01Z"/>
            <path d="M372.47,56.93c0,.92.14,1.65.41,2.2s.64.97,1.1,1.26.99.49,1.58.59c.6.1,1.22.15,1.89.15h.23v3.19h-11.63l-1.67-4.69h-.56c-.45.82-.96,1.55-1.54,2.2s-1.24,1.2-1.99,1.66-1.6.81-2.54,1.05-1.99.37-3.16.37c-1.95,0-3.69-.33-5.21-.98s-2.81-1.66-3.85-3.02-1.84-3.08-2.37-5.17c-.54-2.09-.81-4.57-.81-7.44s.27-5.4.81-7.51c.54-2.12,1.32-3.87,2.36-5.24s2.3-2.4,3.81-3.08,3.22-1.01,5.16-1.01c1.13,0,2.15.12,3.06.37.91.24,1.73.58,2.46,1,.73.42,1.38.92,1.95,1.51s1.05,1.23,1.46,1.93h.41c-.08-1.11-.16-2.16-.23-3.13-.02-.41-.04-.83-.07-1.26-.03-.43-.06-.83-.09-1.22s-.05-.72-.06-1.01-.02-.53-.02-.7v-3.31c0-.82-.13-1.48-.39-1.98s-.62-.87-1.05-1.13c-.44-.25-.95-.42-1.54-.5s-1.21-.12-1.88-.12h-.47v-3.16h14.44v38.2-.02h0ZM357.18,60.42c1.19,0,2.18-.25,2.97-.75s1.43-1.25,1.9-2.27c.48-1.02.81-2.29,1.01-3.82s.29-3.33.29-5.41-.1-3.73-.29-5.26c-.2-1.53-.53-2.82-1.01-3.87-.48-1.04-1.11-1.84-1.9-2.37-.79-.54-1.78-.81-2.97-.81-1,0-1.85.27-2.56.81s-1.29,1.33-1.73,2.39-.76,2.35-.97,3.88c-.21,1.53-.31,3.3-.31,5.29,0,4.08.43,7.13,1.28,9.16s2.28,3.03,4.29,3.03Z"/>
            <path d="M381.32,61.12c.45,0,.92-.04,1.42-.13s.96-.27,1.38-.54.77-.66,1.05-1.17.42-1.19.42-2.05v-18.22c0-.8-.14-1.44-.42-1.92s-.64-.85-1.07-1.11-.89-.43-1.39-.51c-.5-.08-.96-.12-1.39-.12h-.7v-3.19h14.09v25.08c0,.86.14,1.54.42,2.05s.63.9,1.05,1.17c.42.27.88.45,1.39.54s.98.13,1.41.13h.7v3.19h-19.07v-3.19h.71ZM384.75,22.42c0-.76.13-1.42.4-1.96.26-.55.62-.99,1.08-1.33s1-.6,1.61-.76c.62-.17,1.28-.25,2.01-.25.68,0,1.34.08,1.96.25s1.17.42,1.64.76.84.79,1.13,1.33c.28.55.42,1.2.42,1.96s-.14,1.39-.42,1.93c-.28.55-.66,1-1.13,1.35s-1.02.62-1.64.79-1.28.26-1.96.26c-.72,0-1.39-.09-2.01-.26s-1.15-.44-1.61-.79-.82-.8-1.08-1.35c-.26-.55-.4-1.19-.4-1.93Z"/>
            <path d="M426.72,64.32v-19.75c0-1.29-.08-2.44-.25-3.44-.17-1.01-.44-1.85-.82-2.53s-.88-1.21-1.49-1.57c-.62-.36-1.36-.54-2.24-.54-1,0-1.83.25-2.49.76s-1.2,1.19-1.6,2.04-.69,1.84-.86,2.96c-.18,1.12-.26,2.3-.26,3.53v11.46c0,.84.1,1.51.31,2.02.21.51.49.9.86,1.19.37.28.83.47,1.36.56s1.14.13,1.8.13h.18v3.19h-18.43v-3.19h.12c.68,0,1.31-.04,1.88-.13s1.06-.28,1.48-.57.75-.71.98-1.26.35-1.27.35-2.17v-17.75c0-.84-.1-1.51-.31-2.02-.21-.51-.5-.9-.88-1.19-.38-.28-.83-.47-1.36-.56s-1.12-.13-1.79-.13h-.18v-3.19h12.6l.79,4.28h.29c.61-1.13,1.25-2.03,1.92-2.7.67-.66,1.39-1.17,2.15-1.52s1.57-.58,2.42-.67c.85-.1,1.74-.15,2.68-.15,1.54,0,2.93.22,4.16.67,1.23.45,2.27,1.14,3.12,2.08s1.5,2.13,1.95,3.59.67,3.2.67,5.23v13.92c0,.94.08,1.68.25,2.24s.42.98.75,1.27.75.49,1.26.59,1.1.15,1.79.15h.18v3.19h-13.33v-.02h-.01Z"/>
            <path d="M474.74,33.29c0,.45-.07.88-.21,1.3-.14.42-.37.79-.69,1.1-.32.31-.76.56-1.32.75s-1.25.28-2.07.28c0-.41-.06-.77-.19-1.08s-.3-.58-.51-.79c-.21-.21-.46-.38-.73-.48-.27-.11-.56-.16-.85-.16-.33,0-.69.07-1.07.21s-.68.28-.89.44c.41.45.79.96,1.14,1.54s.66,1.2.92,1.86.47,1.35.63,2.07c.16.71.23,1.44.23,2.18,0,1.5-.24,2.9-.72,4.17-.48,1.28-1.22,2.39-2.21,3.33s-2.26,1.67-3.78,2.2-3.33.79-5.42.79h-.82c-.33,0-.66-.02-1-.03-.33,0-.65-.03-.95-.06s-.53-.05-.69-.07c-.25.14-.51.31-.78.51s-.5.44-.7.69c-.21.25-.37.54-.5.85-.13.31-.19.64-.19,1,0,.66.26,1.15.78,1.46.52.31,1.2.47,2.04.47h7.27c1.99,0,3.71.21,5.16.63,1.45.42,2.64,1.02,3.59,1.8.95.78,1.65,1.74,2.09,2.89.44,1.15.67,2.43.67,3.85,0,1.86-.35,3.51-1.05,4.97-.7,1.45-1.77,2.69-3.21,3.69-1.44,1.01-3.24,1.78-5.42,2.31-2.18.54-4.75.81-7.72.81-4.73,0-8.25-.71-10.56-2.12-2.31-1.42-3.47-3.49-3.47-6.23,0-2.15.69-3.79,2.08-4.94s3.4-1.82,6.04-2.04c-.55-.21-1.08-.48-1.61-.79s-1-.69-1.41-1.13-.74-.94-1-1.51c-.25-.57-.38-1.2-.38-1.9,0-.66.13-1.28.4-1.85.26-.57.63-1.11,1.1-1.63s1.03-1.01,1.68-1.46c.65-.46,1.37-.91,2.15-1.36-.88-.31-1.69-.75-2.45-1.3s-1.4-1.23-1.93-2.01c-.54-.78-.96-1.67-1.27-2.67s-.47-2.1-.47-3.31c0-3.52,1.02-6.24,3.06-8.19,2.04-1.94,5.2-2.92,9.48-2.92,1.43,0,2.75.18,3.97.54,1.22.36,2.28.8,3.18,1.3.33-.35.7-.73,1.1-1.13.4-.4.85-.77,1.36-1.1.51-.33,1.07-.6,1.7-.82.62-.21,1.32-.32,2.08-.32s1.35.09,1.89.28.99.44,1.35.75c.36.31.63.67.82,1.08.19.41.28.85.28,1.32h0v-.02ZM448.64,70.26c0,1.66.6,2.89,1.8,3.68s2.95,1.19,5.26,1.19c3.52,0,6.07-.51,7.68-1.52,1.6-1.02,2.4-2.51,2.4-4.48,0-1.27-.4-2.16-1.2-2.67-.8-.51-2.01-.76-3.63-.76h-6.97c-.61,0-1.22.05-1.85.16-.62.11-1.2.33-1.71.66-.52.33-.94.8-1.27,1.39-.33.6-.5,1.38-.5,2.36h0ZM452.65,42.49c0,1.05.07,2.01.22,2.86s.39,1.58.72,2.18c.33.61.76,1.07,1.29,1.41.53.33,1.18.5,1.96.5s1.46-.16,1.99-.48.95-.79,1.26-1.41.53-1.36.66-2.23.19-1.84.19-2.92-.07-2.12-.21-3.03-.37-1.68-.69-2.33-.75-1.15-1.27-1.51c-.53-.36-1.19-.54-1.99-.54s-1.44.19-1.96.56c-.53.37-.95.89-1.27,1.55-.32.66-.55,1.46-.69,2.37-.14.92-.21,1.92-.21,3.02h0Z"/>
            <path d="M127.73,122.39c0,2.52-.31,4.79-.94,6.82-.63,2.03-1.57,3.76-2.81,5.19-1.24,1.43-2.8,2.53-4.67,3.3-1.87.77-4.06,1.16-6.56,1.16h-14.08v-1.93h.58c.52,0,1.01-.04,1.47-.11s.86-.23,1.2-.46c.34-.23.61-.56.81-1,.19-.43.29-1.01.29-1.73v-22.55c0-.67-.1-1.22-.3-1.63-.2-.41-.48-.73-.82-.95-.34-.22-.75-.37-1.2-.44-.46-.07-.94-.1-1.45-.1h-.58v-1.93h14.08c2.37,0,4.48.36,6.33,1.09,1.86.73,3.43,1.79,4.71,3.18s2.26,3.11,2.93,5.14c.67,2.04,1.01,4.36,1.01,6.96h0ZM111.67,136.52c1.83,0,3.43-.31,4.8-.93s2.51-1.53,3.43-2.73c.91-1.2,1.6-2.67,2.06-4.43.46-1.75.69-3.77.69-6.04,0-4.57-.91-8.06-2.73-10.47s-4.55-3.62-8.19-3.62h-4.04v28.21h4-.02Z"/>
            <path d="M143.05,139.3c-1.66,0-3.16-.28-4.48-.84-1.33-.56-2.45-1.38-3.36-2.46s-1.61-2.4-2.1-3.96c-.49-1.56-.73-3.34-.73-5.34,0-4.3.88-7.53,2.65-9.7,1.77-2.17,4.28-3.26,7.55-3.26,1.48,0,2.82.23,4,.7,1.18.46,2.19,1.16,3.01,2.08.82.92,1.46,2.07,1.9,3.44.44,1.37.66,2.96.66,4.77v2.11h-15.32c.03,1.68.2,3.12.51,4.32.31,1.21.75,2.2,1.33,2.98s1.28,1.35,2.12,1.72,1.8.55,2.9.55c.79,0,1.53-.09,2.21-.27.68-.18,1.3-.42,1.85-.72s1.04-.64,1.47-1.02.77-.78,1.04-1.2c.21.09.41.28.6.56s.28.62.28,1.01c0,.46-.17.96-.49,1.49-.33.53-.83,1.02-1.5,1.47s-1.52.82-2.53,1.12-2.2.45-3.56.45h0ZM142.49,116.21c-1.71,0-3.02.69-3.94,2.08s-1.46,3.41-1.63,6.08h10.58c0-1.21-.09-2.32-.27-3.32s-.46-1.86-.85-2.58-.9-1.27-1.54-1.66c-.64-.39-1.42-.58-2.35-.58v-.02h0Z"/>
            <path d="M181.22,138.85h-13.28v-1.93h.13c.52,0,1.01-.04,1.47-.11s.85-.23,1.19-.46c.34-.23.61-.56.81-1,.2-.43.3-1.01.3-1.73v-14.35c0-.67-.1-1.22-.3-1.63-.2-.41-.48-.73-.82-.96-.34-.22-.75-.37-1.2-.45-.46-.07-.94-.11-1.45-.11h-.13v-1.93h7.08l.88,4.56h.22c.3-.69.61-1.34.92-1.94.31-.61.7-1.14,1.16-1.6s1.02-.82,1.7-1.08,1.52-.39,2.54-.39c1.68,0,2.92.29,3.74.88.82.58,1.22,1.41,1.22,2.47,0,.48-.08.92-.24,1.33s-.41.75-.75,1.04-.79.52-1.33.67c-.54.16-1.2.24-1.98.24,0-1.27-.18-2.19-.54-2.75s-.99-.84-1.89-.84c-.57,0-1.08.16-1.53.48s-.84.75-1.18,1.28-.62,1.14-.85,1.83c-.23.69-.42,1.4-.56,2.12-.14.73-.24,1.45-.3,2.17s-.09,1.37-.09,1.95v7.23c0,.67.1,1.22.3,1.63s.48.72.82.93c.34.21.75.35,1.2.42.46.07.94.1,1.45.1h1.28v1.93h0Z"/>
            <path d="M213.55,133.84c0,.67.1,1.22.3,1.63s.48.72.82.93c.34.21.75.35,1.2.42.46.07.94.1,1.45.1h.13v1.93h-7.3l-.61-3.73h-.22c-.46.87-.98,1.57-1.54,2.11s-1.16.96-1.79,1.27c-.63.31-1.29.52-1.98.63s-1.41.17-2.16.17c-1.21,0-2.29-.17-3.23-.52-.94-.34-1.74-.88-2.38-1.62-.64-.73-1.13-1.67-1.47-2.81s-.51-2.49-.51-4.07v-11.03c0-.67-.1-1.22-.3-1.63-.2-.41-.48-.73-.82-.96-.34-.22-.75-.37-1.2-.45-.46-.07-.94-.11-1.45-.11h-.13v-1.93h8.24v15.88c0,1,.08,1.9.24,2.67.16.78.42,1.44.79,1.98s.86.95,1.48,1.22c.62.28,1.4.42,2.33.42,1.02,0,1.89-.18,2.62-.54s1.33-.86,1.8-1.52c.47-.65.82-1.43,1.04-2.35.22-.91.34-1.92.34-3.03v-9.48c0-.72-.1-1.3-.3-1.74s-.47-.78-.81-1.01-.73-.39-1.19-.46-.95-.11-1.47-.11h-.13v-1.93h8.22v19.66h0Z"/>
            <path d="M221.2,136.92c.51,0,.99-.03,1.45-.1.46-.07.86-.21,1.2-.42.34-.21.62-.52.82-.93.2-.41.3-.95.3-1.63v-14.58c0-.67-.1-1.22-.3-1.63-.2-.41-.48-.73-.82-.96-.34-.22-.75-.37-1.2-.45-.46-.07-.94-.11-1.45-.11h-.13v-1.93h8.22v19.43c0,.72.1,1.3.3,1.73s.47.77.81,1,.74.39,1.2.46c.46.08.95.11,1.46.11h.61v1.93h-13.07v-1.93h.61-.01ZM224.32,106.73c0-.54.07-.99.2-1.35.14-.36.32-.65.56-.88.24-.22.52-.38.83-.47s.66-.13,1.03-.13.7.04,1.01.13.59.25.82.47c.23.22.42.52.56.88s.21.81.21,1.35-.07.99-.21,1.35-.33.65-.56.88c-.23.22-.51.39-.82.48-.31.1-.65.15-1.01.15s-.72-.05-1.03-.15-.59-.26-.83-.48-.43-.52-.56-.88-.2-.81-.2-1.35Z"/>
            <path d="M249.08,136.92v1.93h-12.38v-1.93h.61c.52,0,1-.04,1.44-.11.43-.07.81-.23,1.12-.46.31-.23.56-.56.73-1,.17-.43.26-1.01.26-1.73v-14.35c0-.67-.09-1.22-.27-1.63-.18-.41-.43-.73-.74-.96-.31-.22-.69-.37-1.12-.45-.43-.07-.91-.11-1.42-.11h-.13v-1.93h7.21l.61,3.73h.22c.46-.85.95-1.55,1.46-2.1.51-.55,1.05-.97,1.63-1.28s1.18-.52,1.82-.63,1.31-.17,2.03-.17,1.46.07,2.13.22,1.3.39,1.88.72c.58.33,1.09.76,1.55,1.29s.83,1.18,1.11,1.94h.38c.46-.85.97-1.55,1.5-2.1.54-.55,1.11-.97,1.72-1.28.61-.31,1.24-.52,1.91-.63s1.36-.17,2.08-.17c1.17,0,2.22.18,3.15.53s1.71.89,2.36,1.62c.64.73,1.14,1.66,1.48,2.8s.52,2.49.52,4.07v10.87c0,.72.09,1.3.27,1.73s.43.77.74,1,.69.39,1.12.46c.43.08.91.11,1.42.11h.13v1.93h-8v-15.88c0-1-.09-1.89-.26-2.67s-.45-1.44-.83-1.98-.88-.95-1.49-1.22c-.61-.28-1.36-.42-2.25-.42-.96,0-1.76.18-2.42.55s-1.18.86-1.58,1.49-.69,1.36-.86,2.18c-.17.82-.26,1.7-.26,2.63v10.09c0,.72.09,1.3.27,1.73s.43.77.74,1,.69.39,1.12.46c.43.08.91.11,1.42.11h.13v1.93h-8v-15.88c0-1-.09-1.89-.26-2.67s-.45-1.44-.83-1.98-.88-.95-1.49-1.22c-.61-.28-1.36-.42-2.25-.42-1,0-1.85.2-2.53.61-.68.4-1.23.95-1.65,1.64s-.72,1.48-.9,2.38-.27,1.84-.27,2.83v9.7c0,.67.1,1.22.3,1.63s.48.72.82.93c.34.21.75.35,1.2.42.46.07.94.1,1.45.1h.15Z"/>
            <path d="M289.92,136.88c.55,0,1.06-.03,1.53-.09.46-.06.94-.13,1.42-.22v2.02c-.19.09-.45.18-.76.27s-.66.17-1.02.24c-.37.07-.75.12-1.16.16-.4.04-.79.06-1.15.06-1.17,0-2.17-.12-3.01-.37s-1.53-.65-2.07-1.2-.94-1.29-1.2-2.2-.39-2.03-.39-3.35v-15.37h-3.5v-1.84c.55,0,1.16-.11,1.83-.34.67-.22,1.25-.6,1.76-1.12.52-.57.95-1.25,1.27-2.03.32-.79.6-1.77.84-2.95h2.11v5.66h6.02v2.63h-6.02v15.5c0,1.57.32,2.73.95,3.46.64.73,1.49,1.1,2.55,1.1v-.02h0Z"/>
            <path d="M306.01,139.3c-1.66,0-3.16-.28-4.48-.84-1.33-.56-2.45-1.38-3.36-2.46-.91-1.08-1.61-2.4-2.1-3.96-.49-1.56-.73-3.34-.73-5.34,0-4.3.88-7.53,2.65-9.7s4.28-3.26,7.55-3.26c1.48,0,2.82.23,4,.7,1.18.46,2.19,1.16,3.01,2.08s1.46,2.07,1.9,3.44.66,2.96.66,4.77v2.11h-15.32c.03,1.68.2,3.12.51,4.32.31,1.21.75,2.2,1.33,2.98s1.28,1.35,2.12,1.72,1.8.55,2.9.55c.79,0,1.53-.09,2.21-.27.68-.18,1.3-.42,1.85-.72.55-.3,1.04-.64,1.47-1.02s.77-.78,1.04-1.2c.21.09.41.28.6.56s.28.62.28,1.01c0,.46-.17.96-.49,1.49-.33.53-.83,1.02-1.5,1.47s-1.52.82-2.53,1.12-2.2.45-3.56.45h0ZM305.44,116.21c-1.71,0-3.02.69-3.94,2.08s-1.46,3.41-1.63,6.08h10.58c0-1.21-.09-2.32-.27-3.32s-.46-1.86-.85-2.58-.9-1.27-1.54-1.66c-.64-.39-1.42-.58-2.35-.58v-.02h0Z"/>
            <path d="M341.57,136.88c.55,0,1.06-.03,1.53-.09.46-.06.94-.13,1.42-.22v2.02c-.19.09-.45.18-.76.27s-.66.17-1.02.24c-.37.07-.75.12-1.16.16-.41.04-.79.06-1.15.06-1.17,0-2.17-.12-3.01-.37s-1.53-.65-2.07-1.2-.94-1.29-1.2-2.2-.39-2.03-.39-3.35v-15.37h-3.5v-1.84c.55,0,1.16-.11,1.83-.34.67-.22,1.25-.6,1.76-1.12.52-.57.95-1.25,1.27-2.03.32-.79.6-1.77.84-2.95h2.11v5.66h6.02v2.63h-6.02v15.5c0,1.57.32,2.73.95,3.46.64.73,1.49,1.1,2.55,1.1v-.02h0Z"/>
            <path d="M370.6,133.84c0,.67.1,1.22.3,1.63.2.41.48.72.82.93.34.21.74.35,1.2.42s.94.1,1.45.1h.13v1.93h-7.3l-.61-3.73h-.22c-.46.87-.98,1.57-1.54,2.11s-1.16.96-1.79,1.27-1.29.52-1.98.63-1.41.17-2.16.17c-1.21,0-2.29-.17-3.24-.52-.94-.34-1.74-.88-2.38-1.62-.64-.73-1.13-1.67-1.47-2.81s-.5-2.49-.5-4.07v-11.03c0-.67-.1-1.22-.3-1.63-.2-.41-.48-.73-.82-.96-.34-.22-.75-.37-1.2-.45-.46-.07-.94-.11-1.45-.11h-.13v-1.93h8.24v15.88c0,1,.08,1.9.24,2.67.16.78.42,1.44.79,1.98s.86.95,1.48,1.22c.62.28,1.4.42,2.33.42,1.02,0,1.89-.18,2.62-.54s1.33-.86,1.8-1.52c.47-.65.82-1.43,1.04-2.35.22-.91.34-1.92.34-3.03v-9.48c0-.72-.1-1.3-.3-1.74s-.47-.78-.81-1.01-.73-.39-1.19-.46-.95-.11-1.47-.11h-.13v-1.93h8.22v19.66h0Z"/>
            <path d="M385.55,139.3c-1.15,0-2.2-.1-3.13-.3-.94-.2-1.73-.51-2.39-.92s-1.17-.92-1.53-1.53-.54-1.31-.54-2.12c0-.61.1-1.13.3-1.54.2-.41.45-.74.74-.98.29-.24.61-.41.94-.51.34-.1.64-.15.91-.15,0,.81.08,1.56.25,2.27.16.7.44,1.32.83,1.85.39.53.9.95,1.54,1.26s1.42.46,2.35.46c.82,0,1.55-.1,2.18-.3s1.16-.49,1.58-.85c.43-.37.75-.81.98-1.33s.34-1.08.34-1.7c0-.57-.09-1.06-.26-1.47s-.47-.8-.9-1.16-1.01-.73-1.74-1.1c-.73-.37-1.66-.8-2.76-1.28-1.18-.52-2.21-1.03-3.09-1.52s-1.6-1.01-2.17-1.58-1-1.22-1.28-1.94c-.28-.73-.43-1.59-.43-2.59s.21-1.98.62-2.79,1-1.49,1.76-2.03c.76-.55,1.68-.96,2.74-1.25s2.25-.43,3.55-.43c1.09,0,2.06.11,2.9.34s1.54.53,2.11.91,1,.83,1.28,1.35.43,1.06.43,1.63c0,.84-.29,1.51-.87,2.01s-1.4.75-2.46.75c0-1.54-.32-2.74-.96-3.59-.64-.85-1.64-1.28-3-1.28-.78,0-1.45.09-2,.27s-1.01.43-1.36.76c-.35.33-.61.72-.78,1.17s-.25.94-.25,1.48c0,.58.1,1.09.31,1.52s.54.82,1,1.18,1.05.71,1.77,1.04c.73.34,1.6.72,2.62,1.13,1.21.51,2.25,1.01,3.12,1.5s1.58,1.03,2.15,1.62c.57.59.98,1.24,1.25,1.98.27.73.4,1.58.4,2.54,0,1.2-.22,2.25-.65,3.15s-1.05,1.65-1.84,2.26-1.75,1.06-2.86,1.36c-1.12.3-2.35.45-3.72.45h.02Z"/>
            <path d="M406.25,139.3c-1.15,0-2.2-.1-3.13-.3-.94-.2-1.73-.51-2.39-.92s-1.17-.92-1.53-1.53-.54-1.31-.54-2.12c0-.61.1-1.13.3-1.54.2-.41.45-.74.74-.98.29-.24.61-.41.94-.51.34-.1.64-.15.91-.15,0,.81.08,1.56.25,2.27.16.7.44,1.32.83,1.85.39.53.9.95,1.54,1.26s1.42.46,2.35.46c.82,0,1.55-.1,2.18-.3s1.16-.49,1.58-.85c.43-.37.75-.81.98-1.33s.34-1.08.34-1.7c0-.57-.09-1.06-.26-1.47s-.47-.8-.9-1.16-1.01-.73-1.74-1.1c-.73-.37-1.66-.8-2.76-1.28-1.18-.52-2.21-1.03-3.09-1.52s-1.6-1.01-2.17-1.58-1-1.22-1.28-1.94c-.28-.73-.43-1.59-.43-2.59s.21-1.98.62-2.79,1-1.49,1.76-2.03c.76-.55,1.68-.96,2.74-1.25s2.25-.43,3.55-.43c1.09,0,2.06.11,2.9.34s1.54.53,2.11.91,1,.83,1.28,1.35.43,1.06.43,1.63c0,.84-.29,1.51-.87,2.01s-1.4.75-2.46.75c0-1.54-.32-2.74-.96-3.59-.64-.85-1.64-1.28-3-1.28-.78,0-1.45.09-2,.27s-1.01.43-1.36.76c-.35.33-.61.72-.78,1.17s-.25.94-.25,1.48c0,.58.1,1.09.31,1.52s.54.82,1,1.18,1.05.71,1.77,1.04c.73.34,1.6.72,2.62,1.13,1.21.51,2.25,1.01,3.12,1.5s1.58,1.03,2.15,1.62c.57.59.98,1.24,1.25,1.98.27.73.4,1.58.4,2.54,0,1.2-.22,2.25-.65,3.15s-1.05,1.65-1.84,2.26-1.75,1.06-2.86,1.36c-1.12.3-2.35.45-3.72.45h.02Z"/>
            <path d="M430.12,139.3c-1.66,0-3.16-.28-4.48-.84s-2.45-1.38-3.36-2.46c-.91-1.08-1.61-2.4-2.1-3.96-.49-1.56-.73-3.34-.73-5.34,0-4.3.88-7.53,2.65-9.7s4.28-3.26,7.55-3.26c1.48,0,2.82.23,4,.7,1.18.46,2.19,1.16,3.01,2.08s1.46,2.07,1.9,3.44.66,2.96.66,4.77v2.11h-15.32c.03,1.68.2,3.12.51,4.32.31,1.21.75,2.2,1.33,2.98s1.28,1.35,2.12,1.72,1.8.55,2.9.55c.79,0,1.53-.09,2.21-.27s1.3-.42,1.85-.72c.55-.3,1.04-.64,1.47-1.02s.78-.78,1.04-1.2c.21.09.41.28.6.56s.28.62.28,1.01c0,.46-.17.96-.49,1.49-.33.53-.83,1.02-1.5,1.47s-1.52.82-2.53,1.12-2.2.45-3.56.45h0ZM429.55,116.21c-1.71,0-3.02.69-3.94,2.08s-1.46,3.41-1.63,6.08h10.58c0-1.21-.09-2.32-.27-3.32s-.46-1.86-.85-2.58-.9-1.27-1.54-1.66c-.64-.39-1.42-.58-2.35-.58v-.02h0Z"/>
            <path d="M454.69,136.92v1.93h-12.38v-1.93h.38c.52,0,1.01-.04,1.47-.11s.85-.23,1.19-.46c.34-.23.61-.56.81-1,.2-.43.3-1.01.3-1.73v-14.35c0-.67-.1-1.22-.3-1.63-.2-.41-.48-.73-.82-.96-.34-.22-.75-.37-1.2-.45-.46-.07-.94-.11-1.45-.11h-.13v-1.93h7.44l.61,3.73h.22c.48-.85.99-1.55,1.52-2.1.53-.55,1.09-.97,1.68-1.28s1.22-.52,1.89-.63,1.37-.17,2.1-.17c1.21,0,2.29.18,3.25.53s1.76.89,2.43,1.62c.67.73,1.18,1.66,1.53,2.8s.53,2.49.53,4.07v10.87c0,.72.09,1.3.26,1.73s.42.77.73,1,.69.39,1.12.46c.43.08.91.11,1.42.11h.16v1.93h-8.02v-15.88c0-1-.09-1.89-.27-2.67s-.47-1.44-.87-1.98-.92-.95-1.56-1.22c-.64-.28-1.43-.42-2.36-.42-1.05,0-1.93.2-2.64.61-.71.4-1.28.95-1.72,1.64-.43.69-.75,1.48-.93,2.38s-.28,1.84-.28,2.83v9.7c0,.67.1,1.22.3,1.63.2.41.48.72.82.93.34.21.74.35,1.2.42s.94.1,1.45.1h.13-.01Z"/>
            <path d="M497.47,138.85h-13.28v-1.93h.13c.52,0,1.01-.04,1.47-.11s.85-.23,1.19-.46c.34-.23.61-.56.81-1,.2-.43.3-1.01.3-1.73v-14.35c0-.67-.1-1.22-.3-1.63-.2-.41-.48-.73-.82-.96-.34-.22-.75-.37-1.2-.45-.46-.07-.94-.11-1.45-.11h-.13v-1.93h7.08l.88,4.56h.22c.3-.69.61-1.34.92-1.94.31-.61.7-1.14,1.16-1.6s1.02-.82,1.7-1.08,1.52-.39,2.54-.39c1.68,0,2.92.29,3.74.88s1.22,1.41,1.22,2.47c0,.48-.08.92-.24,1.33s-.41.75-.75,1.04-.79.52-1.33.67c-.54.16-1.2.24-1.98.24,0-1.27-.18-2.19-.54-2.75s-.99-.84-1.89-.84c-.57,0-1.08.16-1.53.48s-.84.75-1.18,1.28-.62,1.14-.85,1.83-.42,1.4-.56,2.12c-.14.73-.24,1.45-.3,2.17s-.09,1.37-.09,1.95v7.23c0,.67.1,1.22.3,1.63.2.41.48.72.82.93.34.21.74.35,1.2.42s.94.1,1.45.1h1.28v1.93h0Z"/>
            <path d="M517.2,139.3c-1.66,0-3.16-.28-4.48-.84s-2.45-1.38-3.36-2.46c-.91-1.08-1.61-2.4-2.1-3.96-.49-1.56-.73-3.34-.73-5.34,0-4.3.88-7.53,2.65-9.7s4.28-3.26,7.55-3.26c1.48,0,2.82.23,4,.7,1.18.46,2.19,1.16,3.01,2.08s1.46,2.07,1.9,3.44.66,2.96.66,4.77v2.11h-15.32c.03,1.68.2,3.12.51,4.32.31,1.21.75,2.2,1.33,2.98s1.28,1.35,2.12,1.72c.84.37,1.8.55,2.9.55.79,0,1.53-.09,2.21-.27s1.3-.42,1.85-.72,1.04-.64,1.47-1.02.78-.78,1.04-1.2c.21.09.41.28.6.56s.28.62.28,1.01c0,.46-.17.96-.49,1.49-.33.53-.83,1.02-1.5,1.47s-1.52.82-2.53,1.12-2.2.45-3.56.45h-.01ZM516.64,116.21c-1.71,0-3.02.69-3.94,2.08s-1.46,3.41-1.63,6.08h10.58c0-1.21-.09-2.32-.27-3.32s-.46-1.86-.85-2.58-.9-1.27-1.54-1.66c-.64-.39-1.42-.58-2.35-.58v-.02h0Z"/>
            <path d="M552.05,115.15c0,.33-.05.64-.15.93s-.24.55-.44.76c-.19.22-.45.39-.75.52-.31.13-.67.19-1.09.19,0-.18-.02-.36-.07-.54s-.12-.35-.24-.51-.27-.28-.46-.38-.45-.15-.76-.15c-.39,0-.74.04-1.06.13s-.62.23-.92.43c.52.64.95,1.4,1.29,2.28s.51,1.97.51,3.29c0,1.14-.17,2.19-.52,3.16-.34.97-.86,1.8-1.54,2.5-.68.7-1.54,1.25-2.58,1.65-1.04.4-2.26.6-3.65.6h-.61c-.22,0-.45,0-.67-.02-.22,0-.43-.02-.63-.04-.19-.02-.35-.04-.47-.06-.3.15-.58.31-.85.49-.27.18-.5.38-.71.61s-.36.48-.48.76-.18.6-.18.94c0,.37.07.67.21.9s.34.4.59.53.56.21.91.25.73.06,1.13.06h5.21c1.38,0,2.55.17,3.5.52.96.34,1.74.82,2.35,1.43s1.05,1.33,1.33,2.18c.28.85.42,1.76.42,2.75,0,1.32-.24,2.51-.73,3.57-.49,1.06-1.23,1.97-2.24,2.71-1,.74-2.27,1.31-3.81,1.72s-3.34.61-5.42.61c-3.21,0-5.6-.59-7.19-1.77-1.59-1.18-2.38-2.83-2.38-4.94,0-.9.16-1.68.47-2.36.31-.67.74-1.25,1.27-1.73s1.14-.87,1.83-1.17,1.42-.52,2.18-.65c-.31-.14-.62-.31-.92-.54-.3-.22-.57-.49-.81-.81-.24-.31-.43-.67-.58-1.08-.15-.4-.22-.85-.22-1.35,0-.91.24-1.7.72-2.37s1.24-1.31,2.29-1.94c-.66-.27-1.25-.64-1.76-1.11s-.95-1.01-1.3-1.62-.62-1.27-.81-1.99-.28-1.46-.28-2.22c0-1.33.18-2.52.54-3.57s.9-1.94,1.62-2.67c.72-.73,1.62-1.29,2.7-1.68s2.34-.58,3.8-.58c.55,0,1.1.04,1.64.12s1.04.19,1.49.34c.46.14.87.3,1.24.48s.66.37.89.56c.22-.24.49-.51.79-.8s.64-.56,1.01-.81.78-.45,1.22-.62c.44-.16.92-.25,1.43-.25.46,0,.87.06,1.2.19.34.13.62.3.84.52.22.22.39.47.51.76s.17.6.17.91h-.02v-.02ZM532.64,142.9c0,.67.09,1.3.27,1.89s.49,1.09.94,1.5,1.06.75,1.82.99,1.73.36,2.9.36c1.65,0,3.01-.14,4.08-.42s1.92-.66,2.55-1.16c.63-.49,1.07-1.08,1.33-1.76.25-.68.38-1.43.38-2.24,0-.7-.1-1.28-.3-1.74s-.5-.82-.9-1.08-.89-.45-1.47-.55c-.58-.1-1.26-.16-2.02-.16h-4.52c-.64,0-1.27.06-1.88.17s-1.15.33-1.62.64-.85.76-1.13,1.33c-.29.57-.43,1.31-.43,2.22h0ZM535.31,122.12c0,1.96.33,3.4.98,4.31.65.91,1.72,1.37,3.2,1.37.75,0,1.38-.11,1.9-.34.52-.22.94-.57,1.27-1.03s.57-1.06.71-1.79.21-1.59.21-2.59c0-2.07-.31-3.59-.94-4.58-.63-.99-1.69-1.48-3.19-1.48s-2.54.51-3.18,1.52c-.64,1.01-.96,2.55-.96,4.62h0Z"/>
            <path d="M564.92,139.3c-1.66,0-3.16-.28-4.48-.84s-2.45-1.38-3.36-2.46-1.61-2.4-2.1-3.96c-.49-1.56-.73-3.34-.73-5.34,0-4.3.88-7.53,2.65-9.7s4.28-3.26,7.55-3.26c1.48,0,2.82.23,4,.7,1.18.46,2.19,1.16,3.01,2.08s1.46,2.07,1.9,3.44.66,2.96.66,4.77v2.11h-15.32c.03,1.68.2,3.12.51,4.32.31,1.21.75,2.2,1.33,2.98s1.28,1.35,2.12,1.72c.84.37,1.8.55,2.9.55.79,0,1.53-.09,2.21-.27s1.3-.42,1.85-.72,1.04-.64,1.47-1.02.78-.78,1.04-1.2c.21.09.41.28.6.56s.28.62.28,1.01c0,.46-.17.96-.49,1.49-.33.53-.83,1.02-1.5,1.47s-1.52.82-2.53,1.12-2.2.45-3.56.45h-.01ZM564.36,116.21c-1.71,0-3.02.69-3.94,2.08s-1.46,3.41-1.63,6.08h10.58c0-1.21-.09-2.32-.27-3.32s-.46-1.86-.85-2.58-.9-1.27-1.54-1.66c-.64-.39-1.42-.58-2.35-.58v-.02h0Z"/>
            <path d="M577.37,136.92c.52,0,1.01-.04,1.47-.11.46-.07.85-.23,1.19-.46.34-.23.61-.56.81-1,.2-.43.3-1.01.3-1.73v-24.67c0-.67-.1-1.22-.3-1.63s-.48-.73-.82-.96c-.34-.22-.75-.37-1.2-.44s-.94-.1-1.45-.1h-.58v-1.93h8.69v29.72c0,.72.1,1.3.29,1.73.2.43.46.77.81,1,.34.23.74.39,1.2.46.46.08.95.11,1.47.11h.58v1.93h-13.05v-1.93h.59Z"/>
            <path d="M600.66,139.3c-1.15,0-2.2-.1-3.13-.3-.94-.2-1.73-.51-2.39-.92-.66-.41-1.17-.92-1.53-1.53-.36-.61-.54-1.31-.54-2.12,0-.61.1-1.13.3-1.54.2-.41.45-.74.74-.98.29-.24.61-.41.94-.51.34-.1.64-.15.91-.15,0,.81.08,1.56.25,2.27.16.7.44,1.32.83,1.85s.9.95,1.54,1.26c.64.31,1.42.46,2.35.46.82,0,1.55-.1,2.18-.3s1.16-.49,1.58-.85c.43-.37.75-.81.98-1.33s.34-1.08.34-1.7c0-.57-.09-1.06-.26-1.47s-.47-.8-.9-1.16c-.43-.36-1.01-.73-1.74-1.1-.73-.37-1.66-.8-2.76-1.28-1.18-.52-2.21-1.03-3.09-1.52s-1.6-1.01-2.17-1.58-1-1.22-1.28-1.94c-.28-.73-.43-1.59-.43-2.59s.21-1.98.62-2.79,1-1.49,1.76-2.03c.76-.55,1.68-.96,2.74-1.25s2.25-.43,3.55-.43c1.09,0,2.06.11,2.9.34s1.54.53,2.11.91,1,.83,1.28,1.35.43,1.06.43,1.63c0,.84-.29,1.51-.87,2.01s-1.4.75-2.46.75c0-1.54-.32-2.74-.96-3.59s-1.64-1.28-3-1.28c-.78,0-1.45.09-2,.27s-1.01.43-1.36.76-.61.72-.78,1.17-.25.94-.25,1.48c0,.58.1,1.09.31,1.52s.54.82,1,1.18,1.05.71,1.77,1.04c.73.34,1.6.72,2.62,1.13,1.21.51,2.25,1.01,3.12,1.5s1.58,1.03,2.15,1.62c.57.59.98,1.24,1.25,1.98.27.73.4,1.58.4,2.54,0,1.2-.22,2.25-.65,3.15-.43.9-1.05,1.65-1.84,2.26-.79.61-1.75,1.06-2.86,1.36-1.12.3-2.35.45-3.72.45h.02Z"/>
            <path d="M255.23,186.12v-1.93h11.5v1.93h-.58c-.93,0-1.62.18-2.08.54s-.69.92-.69,1.69c0,.25.03.51.09.78.06.26.15.57.27.91l3.12,8.69c.19.54.4,1.13.61,1.79.21.65.41,1.29.6,1.92s.36,1.22.51,1.79c.15.56.25,1.04.31,1.43h.16c.07-.33.2-.74.37-1.22.17-.49.37-1.02.58-1.59.22-.58.44-1.17.67-1.76.23-.6.45-1.18.66-1.73l3.3-8.96c.15-.37.26-.73.33-1.08.07-.34.1-.64.1-.9,0-.79-.25-1.37-.75-1.73s-1.26-.54-2.28-.54h-.34v-1.93h9.86v1.93h-.56c-.45,0-.83.05-1.15.15-.31.1-.6.28-.85.55s-.5.64-.73,1.1-.49,1.06-.77,1.8l-7.26,19.14h-4.2l-7.39-20.29c-.18-.48-.37-.88-.56-1.19s-.42-.57-.67-.75c-.25-.19-.55-.32-.88-.39-.33-.07-.72-.11-1.17-.11h-.13v-.04h0Z"/>
            <path d="M293.73,186.03c-.88,0-1.6.12-2.15.37s-.97.6-1.28,1.04c-.31.45-.51.98-.62,1.59-.1.61-.16,1.28-.16,2-1.27,0-2.24-.22-2.91-.65s-1-1.18-1-2.25c0-.79.22-1.47.65-2.02s1.03-1.01,1.79-1.36,1.64-.61,2.64-.77,2.07-.25,3.21-.25c1.41,0,2.64.14,3.68.42,1.05.28,1.92.73,2.63,1.36.7.63,1.23,1.45,1.58,2.46.35,1.01.53,2.25.53,3.72v11.93c0,.64.05,1.18.16,1.59.1.42.27.76.49,1.01s.52.43.89.54c.37.1.8.16,1.31.16h.13v1.93h-6.22l-.72-3.95h-.38c-.48.64-.94,1.24-1.39,1.78s-.94,1-1.48,1.39-1.15.69-1.83.91-1.5.33-2.46.33c-1.02,0-1.97-.15-2.84-.44-.88-.29-1.63-.74-2.27-1.35s-1.13-1.37-1.49-2.29-.54-2.01-.54-3.27c0-2.44.87-4.25,2.61-5.44,1.74-1.18,4.37-1.83,7.89-1.93l3.82-.13v-2.76c0-.82-.04-1.58-.13-2.28s-.28-1.3-.58-1.8-.73-.89-1.29-1.17-1.31-.42-2.26-.42h-.01ZM288.16,202.18c0,1.44.3,2.51.91,3.22.61.71,1.55,1.07,2.82,1.07.93,0,1.77-.15,2.53-.45s1.4-.73,1.93-1.28.94-1.23,1.22-2.02c.28-.79.43-1.68.43-2.65v-3.73l-2.94.13c-1.3.06-2.39.22-3.27.48s-1.58.63-2.12,1.1-.92,1.05-1.16,1.74c-.23.69-.35,1.48-.35,2.38h0Z"/>
            <path d="M321.39,206.92v1.93h-12.38v-1.93h.38c.52,0,1.01-.04,1.47-.11.46-.08.85-.23,1.19-.46.34-.23.61-.57.81-1s.3-1.01.3-1.73v-14.35c0-.67-.1-1.22-.3-1.63-.2-.41-.48-.73-.82-.96-.34-.22-.75-.37-1.2-.45-.46-.07-.94-.11-1.45-.11h-.13v-1.93h7.44l.61,3.73h.22c.48-.85.98-1.55,1.52-2.1.53-.55,1.09-.97,1.69-1.28.59-.31,1.22-.52,1.89-.63s1.37-.17,2.1-.17c1.21,0,2.29.18,3.25.53.95.35,1.76.89,2.43,1.62.67.73,1.18,1.66,1.53,2.8s.53,2.49.53,4.07v10.87c0,.72.09,1.3.26,1.73s.42.77.73,1,.69.39,1.12.46c.43.08.91.11,1.42.11h.16v1.93h-8.02v-15.88c0-1-.09-1.89-.27-2.67s-.47-1.44-.86-1.98c-.4-.54-.92-.95-1.56-1.22-.64-.28-1.43-.42-2.36-.42-1.05,0-1.93.2-2.64.61-.71.4-1.28.95-1.72,1.64-.43.69-.75,1.48-.93,2.38-.19.9-.28,1.84-.28,2.83v9.7c0,.67.1,1.22.3,1.63s.48.72.82.93c.34.21.75.35,1.2.42.46.07.94.1,1.45.1h.13-.03Z"/>
            <path d="M361.56,206.88c.55,0,1.06-.03,1.53-.09s.94-.13,1.42-.22v2.02c-.19.09-.45.18-.76.27s-.66.17-1.02.24c-.37.07-.75.12-1.16.16-.4.04-.79.06-1.15.06-1.17,0-2.17-.12-3.01-.37s-1.53-.65-2.07-1.2-.94-1.29-1.2-2.2-.39-2.03-.39-3.35v-15.37h-3.5v-1.84c.55,0,1.16-.11,1.83-.34.67-.22,1.25-.6,1.76-1.12.52-.57.95-1.25,1.27-2.03s.6-1.77.84-2.95h2.11v5.66h6.02v2.63h-6.02v15.5c0,1.57.32,2.73.96,3.46.64.73,1.49,1.1,2.55,1.1v-.02h0Z"/>
            <path d="M377.64,209.3c-1.66,0-3.16-.28-4.48-.84-1.33-.56-2.45-1.38-3.36-2.46-.91-1.08-1.61-2.4-2.1-3.97-.49-1.56-.73-3.34-.73-5.33,0-4.3.88-7.53,2.65-9.7s4.28-3.26,7.55-3.26c1.48,0,2.82.23,4,.7,1.18.46,2.19,1.16,3.01,2.08s1.46,2.07,1.9,3.44.66,2.96.66,4.77v2.11h-15.32c.03,1.68.2,3.12.51,4.32.31,1.21.75,2.2,1.33,2.98s1.28,1.35,2.12,1.72,1.8.55,2.9.55c.79,0,1.53-.09,2.21-.27s1.3-.42,1.85-.72c.55-.3,1.04-.64,1.47-1.02s.78-.78,1.04-1.2c.21.09.41.28.6.56.19.29.28.62.28,1.01,0,.46-.17.96-.49,1.49-.33.53-.83,1.02-1.5,1.47s-1.52.82-2.53,1.12-2.2.45-3.56.45h0ZM377.08,186.21c-1.71,0-3.02.69-3.94,2.08s-1.46,3.41-1.63,6.08h10.58c0-1.21-.09-2.32-.27-3.33-.18-1-.46-1.86-.85-2.58s-.9-1.27-1.54-1.66-1.42-.58-2.35-.58h0Z"/>
            <path d="M404.37,194.05l6.13,9.1c.79,1.23,1.58,2.16,2.37,2.81.79.64,1.7.97,2.73.97h.13v1.93h-.65c-1.33,0-2.43-.04-3.29-.12-.86-.08-1.61-.28-2.24-.58-.63-.31-1.21-.76-1.73-1.35-.52-.59-1.11-1.4-1.75-2.42l-4.61-7.21-3.39,2.52v4.16c0,.67.1,1.22.3,1.63s.48.72.82.93c.34.21.74.35,1.2.42s.94.1,1.45.1h.13v1.93h-12.38v-1.93h.36c.52,0,1.01-.04,1.47-.11s.85-.23,1.19-.46c.34-.23.61-.57.81-1s.3-1.01.3-1.73v-24.67c0-.67-.1-1.22-.3-1.63s-.48-.73-.82-.96c-.34-.22-.75-.37-1.2-.44s-.94-.1-1.45-.1h-.36v-1.93h8.47v17.75c0,.42,0,.96-.02,1.61s-.04,1.29-.07,1.92c-.03.72-.06,1.48-.09,2.27l5.75-6.29c.49-.55.9-1.04,1.22-1.46.32-.42.58-.79.77-1.1.2-.31.33-.6.41-.84.07-.25.11-.48.11-.71,0-.39-.18-.64-.55-.75s-.93-.17-1.7-.17v-1.93h10.15v1.93c-1.06,0-2.11.37-3.13,1.12-1.03.75-2.14,1.8-3.34,3.17l-3.24,3.64.04-.02h0Z"/>
            <path d="M426.25,209.3c-1.15,0-2.2-.1-3.13-.3-.94-.2-1.73-.51-2.39-.92s-1.17-.92-1.53-1.53-.54-1.31-.54-2.12c0-.61.1-1.13.3-1.54s.45-.74.74-.98.61-.41.94-.51c.34-.1.64-.15.91-.15,0,.81.08,1.57.25,2.27.16.7.44,1.32.83,1.85.39.53.9.95,1.54,1.26s1.42.46,2.35.46c.82,0,1.55-.1,2.18-.3s1.16-.49,1.58-.85c.43-.37.75-.81.98-1.33s.34-1.08.34-1.7c0-.57-.09-1.06-.26-1.47s-.47-.8-.9-1.16-1.01-.73-1.74-1.1c-.73-.38-1.66-.8-2.76-1.28-1.18-.52-2.21-1.03-3.09-1.52s-1.6-1.01-2.17-1.58-1-1.22-1.28-1.94c-.28-.73-.43-1.59-.43-2.59s.21-1.98.62-2.79,1-1.49,1.76-2.03c.76-.55,1.68-.96,2.74-1.25s2.25-.43,3.55-.43c1.09,0,2.06.11,2.9.34s1.54.53,2.11.91,1,.83,1.28,1.35.43,1.06.43,1.63c0,.84-.29,1.51-.87,2.01s-1.4.75-2.46.75c0-1.54-.32-2.74-.96-3.59-.64-.85-1.64-1.28-3-1.28-.78,0-1.45.09-2,.27s-1.01.43-1.36.76c-.35.33-.61.72-.78,1.17s-.25.94-.25,1.48c0,.58.1,1.09.31,1.52s.54.82,1,1.18c.46.36,1.05.71,1.77,1.04s1.6.72,2.62,1.13c1.21.51,2.25,1.01,3.12,1.5s1.58,1.03,2.15,1.62.98,1.24,1.25,1.98c.27.73.4,1.58.4,2.54,0,1.2-.22,2.25-.65,3.14-.43.9-1.05,1.65-1.84,2.26s-1.75,1.06-2.86,1.36c-1.12.3-2.35.45-3.72.45h.02Z"/>
            <path d="M449.62,206.88c.55,0,1.06-.03,1.53-.09s.94-.13,1.42-.22v2.02c-.19.09-.45.18-.76.27s-.66.17-1.02.24c-.37.07-.75.12-1.16.16-.4.04-.79.06-1.15.06-1.17,0-2.17-.12-3.01-.37s-1.53-.65-2.07-1.2-.94-1.29-1.2-2.2-.39-2.03-.39-3.35v-15.37h-3.5v-1.84c.55,0,1.16-.11,1.83-.34.67-.22,1.25-.6,1.76-1.12.52-.57.95-1.25,1.27-2.03s.6-1.77.84-2.95h2.11v5.66h6.02v2.63h-6.02v15.5c0,1.57.32,2.73.96,3.46.64.73,1.49,1.1,2.55,1.1v-.02h0Z"/>
            <path d="M60.45,298.27c0,1.83.07,3.63.21,5.41s.45,3.47.93,5.07c.48,1.59,1.19,3.07,2.12,4.41s2.19,2.5,3.76,3.46v2.11c-2.11-.84-3.92-1.86-5.41-3.06-1.5-1.2-2.72-2.62-3.67-4.28-.95-1.65-1.64-3.56-2.08-5.73-.43-2.16-.65-4.63-.65-7.4s.22-5.23.65-7.38,1.13-4.05,2.08-5.69c.95-1.65,2.17-3.07,3.67-4.26s3.3-2.21,5.41-3.04v2.07c-1.57.96-2.83,2.11-3.76,3.45-.94,1.34-1.64,2.8-2.12,4.39-.48,1.59-.79,3.27-.93,5.05s-.21,3.59-.21,5.41h0Z"/>
            <path d="M93.88,300.47c0,2.22-.21,4.13-.62,5.75s-1.01,2.95-1.81,4c-.79,1.05-1.77,1.82-2.94,2.32-1.17.5-2.51.75-4.02.75-.88,0-1.69-.1-2.4-.29s-1.37-.47-1.94-.83c-.58-.36-1.09-.79-1.53-1.28s-.83-1.04-1.16-1.64h-.29l-.81,3.59h-7.37v-1.93h.36c.52,0,1.01-.04,1.47-.11.46-.08.85-.23,1.19-.46.34-.23.61-.57.81-1s.3-1.01.3-1.73v-24.67c0-.67-.1-1.22-.3-1.63s-.48-.73-.82-.96c-.34-.22-.75-.37-1.2-.44-.46-.07-.94-.1-1.45-.1h-.36v-1.93h8.47v8.45c0,.52,0,1.13-.02,1.81s-.04,1.34-.07,1.97c-.03.72-.06,1.46-.09,2.22h.18c.34-.7.73-1.34,1.17-1.91.43-.57.94-1.05,1.51-1.45.57-.4,1.21-.7,1.93-.92s1.53-.33,2.43-.33c1.51,0,2.85.25,4.02.75s2.15,1.27,2.94,2.31,1.4,2.36,1.81,3.96c.41,1.6.62,3.5.62,5.71v.02h-.01ZM83.7,290.68c-1.2,0-2.2.2-3,.59-.8.4-1.44,1-1.92,1.81-.48.81-.82,1.83-1.02,3.06s-.3,2.67-.3,4.33.1,3.02.3,4.25.55,2.26,1.03,3.1c.49.84,1.13,1.47,1.93,1.9s1.81.64,3.02.64c1.02,0,1.88-.21,2.59-.64s1.3-1.06,1.75-1.9c.46-.84.79-1.88,1-3.11.21-1.24.31-2.66.31-4.28s-.1-3.06-.31-4.28-.54-2.24-1-3.04c-.46-.81-1.05-1.42-1.77-1.82s-1.6-.61-2.62-.61h.01Z"/>
            <path d="M109.07,313.3c-1.66,0-3.16-.28-4.48-.84-1.33-.56-2.45-1.38-3.36-2.46s-1.61-2.4-2.1-3.97c-.49-1.56-.73-3.34-.73-5.33,0-4.3.88-7.53,2.65-9.7,1.77-2.17,4.28-3.26,7.55-3.26,1.48,0,2.82.23,4,.7,1.18.46,2.19,1.16,3.01,2.08.82.92,1.46,2.07,1.9,3.44s.66,2.96.66,4.77v2.11h-15.32c.03,1.68.2,3.12.51,4.32.31,1.21.75,2.2,1.33,2.98s1.28,1.35,2.12,1.72,1.8.55,2.9.55c.79,0,1.53-.09,2.21-.27s1.3-.42,1.85-.72c.55-.3,1.04-.64,1.47-1.02s.77-.78,1.04-1.2c.21.09.41.28.6.56.19.29.28.62.28,1.01,0,.46-.17.96-.49,1.49-.33.53-.83,1.02-1.5,1.47s-1.52.82-2.53,1.12-2.2.45-3.56.45h-.01ZM108.51,290.21c-1.71,0-3.02.69-3.94,2.08-.92,1.39-1.46,3.41-1.63,6.08h10.58c0-1.21-.09-2.32-.27-3.33-.18-1-.46-1.86-.85-2.58s-.9-1.27-1.54-1.66-1.42-.58-2.35-.58h0Z"/>
            <path d="M132.24,310.88c.55,0,1.06-.03,1.53-.09.46-.06.94-.13,1.42-.22v2.02c-.19.09-.45.18-.76.27s-.66.17-1.02.24c-.37.07-.75.12-1.16.16-.4.04-.79.06-1.15.06-1.17,0-2.17-.12-3.01-.37s-1.53-.65-2.07-1.2-.94-1.29-1.2-2.2c-.26-.91-.39-2.03-.39-3.35v-15.37h-3.5v-1.84c.55,0,1.16-.11,1.83-.34.67-.22,1.25-.6,1.76-1.12.52-.57.95-1.25,1.27-2.03.32-.79.6-1.77.84-2.95h2.11v5.66h6.02v2.63h-6.02v15.5c0,1.57.32,2.73.95,3.46.64.73,1.49,1.1,2.55,1.1v-.02h0Z"/>
            <path d="M148.33,313.3c-1.66,0-3.16-.28-4.48-.84-1.33-.56-2.45-1.38-3.36-2.46s-1.61-2.4-2.1-3.97c-.49-1.56-.73-3.34-.73-5.33,0-4.3.88-7.53,2.65-9.7,1.77-2.17,4.28-3.26,7.55-3.26,1.48,0,2.82.23,4,.7,1.18.46,2.19,1.16,3.01,2.08.82.92,1.46,2.07,1.9,3.44s.66,2.96.66,4.77v2.11h-15.32c.03,1.68.2,3.12.51,4.32.31,1.21.75,2.2,1.33,2.98s1.28,1.35,2.12,1.72,1.8.55,2.9.55c.79,0,1.53-.09,2.21-.27.68-.18,1.3-.42,1.85-.72s1.04-.64,1.47-1.02.77-.78,1.04-1.2c.21.09.41.28.6.56.19.29.28.62.28,1.01,0,.46-.17.96-.49,1.49-.33.53-.83,1.02-1.5,1.47s-1.52.82-2.53,1.12-2.2.45-3.56.45h0ZM147.76,290.21c-1.71,0-3.02.69-3.94,2.08-.92,1.39-1.46,3.41-1.63,6.08h10.58c0-1.21-.09-2.32-.27-3.33-.18-1-.46-1.86-.85-2.58s-.9-1.27-1.54-1.66-1.42-.58-2.35-.58h0Z"/>
            <path d="M173.9,312.85h-13.28v-1.93h.13c.52,0,1.01-.04,1.47-.11.46-.08.85-.23,1.19-.46.34-.23.61-.57.81-1s.3-1.01.3-1.73v-14.35c0-.67-.1-1.22-.3-1.63s-.48-.73-.82-.95c-.34-.22-.75-.37-1.2-.45-.46-.08-.94-.11-1.45-.11h-.13v-1.93h7.08l.88,4.56h.22c.3-.69.61-1.34.92-1.94s.7-1.14,1.16-1.59c.46-.46,1.02-.82,1.7-1.08s1.52-.39,2.54-.39c1.68,0,2.92.29,3.74.88.82.58,1.22,1.41,1.22,2.47,0,.48-.08.92-.24,1.33s-.41.75-.75,1.04-.79.52-1.33.67c-.54.16-1.2.24-1.98.24,0-1.27-.18-2.19-.54-2.75s-.99-.84-1.89-.84c-.57,0-1.08.16-1.53.48s-.84.75-1.18,1.28-.62,1.14-.85,1.83c-.23.69-.42,1.4-.56,2.12-.14.73-.24,1.45-.3,2.17s-.09,1.37-.09,1.95v7.23c0,.67.1,1.22.3,1.63s.48.72.82.93c.34.21.75.35,1.2.42.46.07.94.1,1.45.1h1.28v1.93-.02h0Z"/>
            <path d="M218.45,300.47c0,2.22-.21,4.13-.62,5.75s-1.01,2.95-1.81,4c-.79,1.05-1.77,1.82-2.94,2.32s-2.51.75-4.02.75c-.88,0-1.69-.1-2.4-.29s-1.37-.47-1.94-.83c-.58-.36-1.09-.79-1.53-1.28s-.83-1.04-1.16-1.64h-.29l-.81,3.59h-7.37v-1.93h.36c.52,0,1.01-.04,1.47-.11.46-.08.85-.23,1.19-.46.34-.23.61-.57.81-1s.3-1.01.3-1.73v-24.67c0-.67-.1-1.22-.3-1.63s-.48-.73-.82-.96c-.34-.22-.75-.37-1.2-.44-.46-.07-.94-.1-1.45-.1h-.36v-1.93h8.47v8.45c0,.52,0,1.13-.02,1.81s-.04,1.34-.07,1.97c-.03.72-.06,1.46-.09,2.22h.18c.34-.7.73-1.34,1.17-1.91.43-.57.94-1.05,1.51-1.45.57-.4,1.21-.7,1.93-.92s1.53-.33,2.43-.33c1.51,0,2.85.25,4.02.75s2.15,1.27,2.94,2.31c.79,1.04,1.4,2.36,1.81,3.96s.62,3.5.62,5.71v.02h0ZM208.27,290.68c-1.2,0-2.2.2-3,.59-.8.4-1.44,1-1.92,1.81s-.82,1.83-1.02,3.06-.3,2.67-.3,4.33.1,3.02.3,4.25.55,2.26,1.03,3.1c.49.84,1.13,1.47,1.93,1.9.8.43,1.81.64,3.02.64,1.02,0,1.88-.21,2.59-.64s1.3-1.06,1.75-1.9c.46-.84.79-1.88,1-3.11.21-1.24.31-2.66.31-4.28s-.1-3.06-.31-4.28c-.21-1.22-.54-2.24-1-3.04-.46-.81-1.05-1.42-1.77-1.82s-1.6-.61-2.62-.61h.01Z"/>
            <path d="M233.64,313.3c-1.66,0-3.16-.28-4.48-.84-1.33-.56-2.45-1.38-3.36-2.46s-1.61-2.4-2.1-3.97c-.49-1.56-.73-3.34-.73-5.33,0-4.3.88-7.53,2.65-9.7,1.77-2.17,4.28-3.26,7.55-3.26,1.48,0,2.82.23,4,.7,1.18.46,2.19,1.16,3.01,2.08.82.92,1.46,2.07,1.9,3.44s.66,2.96.66,4.77v2.11h-15.32c.03,1.68.2,3.12.51,4.32.31,1.21.75,2.2,1.33,2.98s1.28,1.35,2.12,1.72,1.8.55,2.9.55c.79,0,1.53-.09,2.21-.27.68-.18,1.3-.42,1.85-.72s1.04-.64,1.47-1.02.77-.78,1.04-1.2c.21.09.41.28.6.56.19.29.28.62.28,1.01,0,.46-.17.96-.49,1.49-.33.53-.83,1.02-1.5,1.47s-1.52.82-2.53,1.12-2.2.45-3.56.45h0ZM233.08,290.21c-1.71,0-3.02.69-3.94,2.08-.92,1.39-1.46,3.41-1.63,6.08h10.58c0-1.21-.09-2.32-.27-3.33-.18-1-.46-1.86-.85-2.58s-.9-1.27-1.54-1.66-1.42-.58-2.35-.58h0Z"/>
            <path d="M260.37,298.05l6.13,9.1c.79,1.23,1.58,2.16,2.37,2.81.79.64,1.7.97,2.73.97h.13v1.93h-.65c-1.33,0-2.43-.04-3.29-.12-.86-.08-1.61-.28-2.24-.58-.63-.31-1.21-.76-1.73-1.35-.52-.59-1.11-1.4-1.75-2.42l-4.6-7.21-3.39,2.52v4.16c0,.67.1,1.22.3,1.63s.48.72.82.93c.34.21.74.35,1.2.42.46.07.94.1,1.45.1h.13v1.93h-12.38v-1.93h.36c.52,0,1.01-.04,1.47-.11.46-.08.85-.23,1.19-.46.34-.23.61-.57.81-1s.3-1.01.3-1.73v-24.67c0-.67-.1-1.22-.3-1.63s-.48-.73-.82-.96c-.34-.22-.75-.37-1.2-.44-.46-.07-.94-.1-1.45-.1h-.36v-1.93h8.47v17.75c0,.42,0,.96-.02,1.61s-.04,1.29-.07,1.92c-.03.72-.06,1.48-.09,2.27l5.75-6.29c.49-.55.9-1.04,1.22-1.46.32-.42.58-.79.77-1.1s.33-.6.4-.84c.07-.25.11-.48.11-.71,0-.39-.18-.64-.55-.75s-.93-.17-1.7-.17v-1.93h10.15v1.93c-1.06,0-2.11.37-3.13,1.12-1.03.75-2.14,1.8-3.34,3.17l-3.23,3.64.03-.02h0Z"/>
            <path d="M284.17,313.3c-1.66,0-3.16-.28-4.48-.84-1.33-.56-2.45-1.38-3.36-2.46-.91-1.08-1.61-2.4-2.1-3.97-.49-1.56-.73-3.34-.73-5.33,0-4.3.88-7.53,2.65-9.7s4.28-3.26,7.55-3.26c1.48,0,2.82.23,4,.7,1.18.46,2.19,1.16,3.01,2.08.82.92,1.46,2.07,1.9,3.44s.66,2.96.66,4.77v2.11h-15.32c.03,1.68.2,3.12.51,4.32.31,1.21.75,2.2,1.33,2.98s1.28,1.35,2.12,1.72,1.8.55,2.9.55c.79,0,1.53-.09,2.21-.27s1.3-.42,1.85-.72c.55-.3,1.04-.64,1.47-1.02s.77-.78,1.04-1.2c.21.09.41.28.6.56.19.29.28.62.28,1.01,0,.46-.17.96-.49,1.49-.33.53-.83,1.02-1.5,1.47s-1.52.82-2.53,1.12-2.2.45-3.56.45h0ZM283.61,290.21c-1.71,0-3.02.69-3.94,2.08-.92,1.39-1.46,3.41-1.63,6.08h10.58c0-1.21-.09-2.32-.27-3.33-.18-1-.46-1.86-.85-2.58s-.9-1.27-1.54-1.66-1.42-.58-2.35-.58h0Z"/>
            <path d="M308.75,310.92v1.93h-12.38v-1.93h.38c.52,0,1.01-.04,1.47-.11.46-.08.85-.23,1.19-.46.34-.23.61-.57.81-1s.3-1.01.3-1.73v-14.35c0-.67-.1-1.22-.3-1.63-.2-.41-.48-.73-.82-.95s-.75-.37-1.2-.45c-.46-.08-.94-.11-1.45-.11h-.13v-1.93h7.44l.61,3.73h.22c.48-.85.98-1.55,1.52-2.1s1.09-.97,1.69-1.28c.59-.31,1.22-.52,1.89-.63s1.37-.17,2.1-.17c1.21,0,2.29.18,3.25.53.95.35,1.76.89,2.43,1.62.67.73,1.18,1.66,1.53,2.8.35,1.14.53,2.49.53,4.07v10.87c0,.72.09,1.3.26,1.73.17.43.42.77.73,1s.69.39,1.12.46c.43.08.91.11,1.42.11h.16v1.93h-8.02v-15.88c0-1-.09-1.89-.27-2.67s-.47-1.44-.86-1.98c-.4-.54-.92-.95-1.56-1.22-.64-.28-1.43-.42-2.36-.42-1.05,0-1.93.2-2.64.61-.71.4-1.28.95-1.72,1.64-.43.69-.75,1.48-.93,2.38-.19.9-.28,1.84-.28,2.83v9.7c0,.67.1,1.22.3,1.63s.48.72.82.93.75.35,1.2.42c.46.07.94.1,1.45.1h.13l-.03-.02h0Z"/>
            <path d="M346.95,307.8c0,.67.1,1.22.3,1.63.2.41.47.73.82.96.34.22.74.37,1.2.44s.94.1,1.45.1h.38v1.93h-7.79l-.49-4.13h-.18c-.34.7-.74,1.34-1.18,1.9s-.95,1.04-1.52,1.44c-.57.4-1.21.7-1.93.92s-1.53.33-2.43.33c-1.51,0-2.85-.25-4.02-.75-1.17-.5-2.15-1.27-2.94-2.31s-1.39-2.36-1.8-3.96-.61-3.5-.61-5.71.2-4.13.61-5.75c.4-1.62,1-2.95,1.8-4s1.77-1.82,2.94-2.33c1.17-.5,2.51-.75,4.02-.75.88,0,1.68.1,2.4.29.72.2,1.37.47,1.94.83.58.36,1.09.79,1.54,1.28s.84,1.04,1.17,1.64h.27c-.04-.75-.09-1.45-.13-2.11-.03-.57-.06-1.13-.09-1.7s-.04-.98-.04-1.25v-3.77c0-.67-.1-1.22-.3-1.63-.2-.41-.48-.73-.82-.96-.34-.22-.75-.37-1.2-.44-.46-.07-.94-.1-1.45-.1h-.38v-1.93h8.47v29.9h-.01ZM336.37,310.36c1.2,0,2.2-.2,3-.6s1.44-1,1.93-1.81.83-1.83,1.03-3.05c.2-1.23.3-2.67.3-4.34s-.1-3.02-.3-4.25c-.2-1.23-.55-2.26-1.03-3.09-.49-.83-1.13-1.46-1.94-1.9-.81-.43-1.82-.65-3.03-.65-1,0-1.86.22-2.58.65s-1.31,1.07-1.76,1.91-.79,1.88-1,3.11c-.21,1.24-.31,2.65-.31,4.26,0,3.27.44,5.71,1.33,7.32.88,1.62,2.34,2.43,4.38,2.43h-.02Z"/>
            <path d="M376.2,290.03c-.88,0-1.6.12-2.15.37s-.97.6-1.28,1.04c-.31.45-.51.98-.62,1.59s-.16,1.28-.16,2c-1.27,0-2.24-.22-2.91-.65s-1-1.18-1-2.25c0-.79.22-1.47.65-2.02s1.03-1.01,1.79-1.36c.76-.35,1.64-.61,2.64-.78,1-.16,2.07-.25,3.21-.25,1.41,0,2.64.14,3.68.42,1.05.28,1.92.73,2.63,1.36.7.63,1.23,1.45,1.58,2.46.35,1.01.53,2.25.53,3.72v11.93c0,.64.05,1.18.16,1.59.1.42.27.76.49,1.01s.52.43.89.54c.37.1.8.16,1.31.16h.13v1.93h-6.22l-.72-3.95h-.38c-.48.64-.94,1.24-1.39,1.78s-.94,1-1.48,1.39-1.15.69-1.83.91-1.5.33-2.46.33c-1.02,0-1.96-.15-2.84-.44s-1.63-.74-2.27-1.35-1.13-1.37-1.49-2.29-.54-2.01-.54-3.27c0-2.44.87-4.25,2.61-5.44,1.74-1.18,4.37-1.83,7.88-1.93l3.82-.13v-2.76c0-.82-.04-1.58-.13-2.28s-.28-1.3-.58-1.8-.73-.89-1.29-1.17-1.31-.42-2.26-.42h0ZM370.62,306.18c0,1.44.3,2.51.91,3.22.61.71,1.55,1.07,2.82,1.07.93,0,1.77-.15,2.53-.45.76-.3,1.4-.73,1.93-1.28s.94-1.23,1.22-2.02c.29-.79.43-1.68.43-2.65v-3.73l-2.94.13c-1.3.06-2.39.22-3.27.48s-1.58.63-2.12,1.1-.92,1.05-1.16,1.74c-.23.69-.35,1.48-.35,2.38h0Z"/>
            <path d="M391.73,310.92c.52,0,1.01-.04,1.47-.11s.85-.23,1.19-.46c.34-.23.61-.57.81-1s.3-1.01.3-1.73v-24.67c0-.67-.1-1.22-.3-1.63s-.48-.73-.82-.96c-.34-.22-.75-.37-1.2-.44s-.94-.1-1.45-.1h-.58v-1.93h8.69v29.72c0,.72.1,1.3.29,1.73.2.43.46.77.81,1,.34.23.74.39,1.2.46s.95.11,1.47.11h.58v1.93h-13.05v-1.93h.59Z"/>
            <path d="M415.02,313.3c-1.15,0-2.2-.1-3.13-.3-.94-.2-1.73-.51-2.39-.92s-1.17-.92-1.53-1.53-.54-1.31-.54-2.12c0-.61.1-1.13.3-1.54s.45-.74.74-.98.61-.41.94-.51c.34-.1.64-.15.91-.15,0,.81.08,1.57.25,2.27.16.7.44,1.32.83,1.85.39.53.9.95,1.54,1.26s1.42.46,2.35.46c.82,0,1.55-.1,2.18-.3s1.16-.49,1.58-.85c.43-.37.75-.81.98-1.33s.34-1.08.34-1.7c0-.57-.09-1.06-.26-1.47s-.47-.8-.9-1.16c-.43-.36-1.01-.73-1.74-1.1-.73-.38-1.66-.8-2.76-1.28-1.18-.52-2.21-1.03-3.09-1.52s-1.6-1.01-2.17-1.58c-.57-.57-1-1.22-1.28-1.94-.28-.73-.43-1.59-.43-2.59s.21-1.98.62-2.79,1-1.49,1.76-2.03,1.68-.96,2.74-1.25c1.06-.28,2.25-.43,3.55-.43,1.09,0,2.06.11,2.9.34s1.54.53,2.11.91,1,.83,1.28,1.35c.28.52.43,1.06.43,1.63,0,.84-.29,1.51-.87,2.01s-1.4.75-2.46.75c0-1.54-.32-2.74-.96-3.59s-1.64-1.28-3-1.28c-.78,0-1.45.09-2,.27s-1.01.43-1.36.76c-.35.33-.61.72-.78,1.17s-.25.94-.25,1.48c0,.58.1,1.09.31,1.52s.54.82,1,1.18,1.05.71,1.77,1.04,1.6.72,2.62,1.13c1.21.51,2.25,1.01,3.12,1.5s1.58,1.03,2.15,1.62.98,1.24,1.25,1.98c.27.73.4,1.58.4,2.54,0,1.2-.22,2.25-.65,3.14-.43.9-1.05,1.65-1.84,2.26s-1.75,1.06-2.86,1.36c-1.12.3-2.35.45-3.72.45h.02Z"/>
            <path d="M439.73,310.92c.51,0,.99-.03,1.45-.1s.86-.21,1.2-.42c.34-.21.62-.52.82-.93s.3-.96.3-1.63v-14.58c0-.67-.1-1.22-.3-1.63-.2-.41-.48-.73-.82-.95s-.75-.37-1.2-.45-.94-.11-1.45-.11h-.13v-1.93h8.22v19.43c0,.72.1,1.3.3,1.73.2.43.47.77.81,1s.74.39,1.2.46c.46.08.95.11,1.46.11h.61v1.93h-13.07v-1.93h.61,0ZM442.86,280.73c0-.54.07-.99.2-1.35s.32-.65.56-.88c.24-.22.52-.38.83-.47s.66-.13,1.03-.13.7.04,1.01.13.59.25.82.47.42.52.56.88.21.81.21,1.35-.07.99-.21,1.35c-.14.36-.33.65-.56.88-.23.22-.51.39-.82.48-.31.1-.65.15-1.01.15s-.72-.05-1.03-.15-.59-.26-.83-.48-.43-.52-.56-.88c-.13-.36-.2-.81-.2-1.35Z"/>
            <path d="M467.61,310.92v1.93h-12.38v-1.93h.38c.52,0,1.01-.04,1.47-.11s.85-.23,1.19-.46c.34-.23.61-.57.81-1s.3-1.01.3-1.73v-14.35c0-.67-.1-1.22-.3-1.63-.2-.41-.48-.73-.82-.95s-.75-.37-1.2-.45-.94-.11-1.45-.11h-.13v-1.93h7.44l.61,3.73h.22c.48-.85.99-1.55,1.52-2.1s1.09-.97,1.68-1.28,1.22-.52,1.89-.63c.67-.11,1.37-.17,2.1-.17,1.21,0,2.29.18,3.25.53s1.76.89,2.43,1.62c.67.73,1.18,1.66,1.53,2.8.35,1.14.53,2.49.53,4.07v10.87c0,.72.09,1.3.26,1.73.17.43.42.77.73,1s.69.39,1.12.46.91.11,1.42.11h.16v1.93h-8.02v-15.88c0-1-.09-1.89-.27-2.67s-.47-1.44-.87-1.98-.92-.95-1.56-1.22c-.64-.28-1.43-.42-2.36-.42-1.05,0-1.93.2-2.64.61-.71.4-1.28.95-1.72,1.64-.43.69-.75,1.48-.93,2.38-.19.9-.28,1.84-.28,2.83v9.7c0,.67.1,1.22.3,1.63s.48.72.82.93.74.35,1.2.42.94.1,1.45.1h.13v-.02h-.01Z"/>
            <path d="M494.68,310.88c.55,0,1.06-.03,1.53-.09s.94-.13,1.42-.22v2.02c-.19.09-.45.18-.76.27s-.66.17-1.02.24c-.37.07-.75.12-1.16.16-.4.04-.79.06-1.15.06-1.17,0-2.17-.12-3.01-.37s-1.53-.65-2.07-1.2-.94-1.29-1.2-2.2-.39-2.03-.39-3.35v-15.37h-3.5v-1.84c.55,0,1.16-.11,1.83-.34.67-.22,1.25-.6,1.76-1.12.52-.57.95-1.25,1.27-2.03.32-.79.6-1.77.84-2.95h2.11v5.66h6.02v2.63h-6.02v15.5c0,1.57.32,2.73.96,3.46.64.73,1.49,1.1,2.55,1.1v-.02h0Z"/>
            <path d="M510.77,313.3c-1.66,0-3.16-.28-4.48-.84-1.33-.56-2.45-1.38-3.36-2.46-.91-1.08-1.61-2.4-2.1-3.97-.49-1.56-.73-3.34-.73-5.33,0-4.3.88-7.53,2.65-9.7s4.28-3.26,7.55-3.26c1.48,0,2.82.23,4,.7,1.18.46,2.19,1.16,3.01,2.08.82.92,1.46,2.07,1.9,3.44s.66,2.96.66,4.77v2.11h-15.32c.03,1.68.2,3.12.51,4.32.31,1.21.75,2.2,1.33,2.98s1.28,1.35,2.12,1.72,1.8.55,2.9.55c.79,0,1.53-.09,2.21-.27s1.3-.42,1.85-.72,1.04-.64,1.47-1.02.78-.78,1.04-1.2c.21.09.41.28.6.56.19.29.28.62.28,1.01,0,.46-.17.96-.49,1.49-.33.53-.83,1.02-1.5,1.47s-1.52.82-2.53,1.12-2.2.45-3.56.45h0ZM510.2,290.21c-1.71,0-3.02.69-3.94,2.08-.92,1.39-1.46,3.41-1.63,6.08h10.58c0-1.21-.09-2.32-.27-3.33-.18-1-.46-1.86-.85-2.58s-.9-1.27-1.54-1.66c-.64-.39-1.42-.58-2.35-.58h0Z"/>
            <path d="M536.34,312.85h-13.28v-1.93h.13c.52,0,1.01-.04,1.47-.11s.85-.23,1.19-.46c.34-.23.61-.57.81-1s.3-1.01.3-1.73v-14.35c0-.67-.1-1.22-.3-1.63s-.48-.73-.82-.95-.75-.37-1.2-.45-.94-.11-1.45-.11h-.13v-1.93h7.08l.88,4.56h.22c.3-.69.61-1.34.92-1.94s.7-1.14,1.16-1.59,1.02-.82,1.7-1.08,1.52-.39,2.54-.39c1.68,0,2.92.29,3.74.88.82.58,1.22,1.41,1.22,2.47,0,.48-.08.92-.24,1.33s-.41.75-.75,1.04-.79.52-1.33.67-1.2.24-1.98.24c0-1.27-.18-2.19-.54-2.75s-.99-.84-1.89-.84c-.57,0-1.08.16-1.53.48s-.84.75-1.18,1.28c-.34.53-.62,1.14-.85,1.83-.23.69-.42,1.4-.56,2.12s-.24,1.45-.3,2.17-.09,1.37-.09,1.95v7.23c0,.67.1,1.22.3,1.63s.48.72.82.93.74.35,1.2.42.94.1,1.45.1h1.28v1.93-.02h.01Z"/>
            <path d="M543.57,310.92c.52,0,1.01-.04,1.47-.11s.85-.23,1.19-.46c.34-.23.61-.57.81-1s.3-1.01.3-1.73v-24.67c0-.67-.1-1.22-.3-1.63s-.48-.73-.82-.96c-.34-.22-.75-.37-1.2-.44s-.94-.1-1.45-.1h-.58v-1.93h8.69v29.72c0,.72.1,1.3.29,1.73.2.43.46.77.81,1,.34.23.74.39,1.2.46s.95.11,1.47.11h.58v1.93h-13.05v-1.93h.59Z"/>
            <path d="M559.57,310.92c.51,0,.99-.03,1.45-.1s.86-.21,1.2-.42c.34-.21.62-.52.82-.93s.3-.96.3-1.63v-14.58c0-.67-.1-1.22-.3-1.63s-.48-.73-.82-.95-.75-.37-1.2-.45-.94-.11-1.45-.11h-.13v-1.93h8.22v19.43c0,.72.1,1.3.3,1.73.2.43.47.77.81,1s.74.39,1.2.46c.46.08.95.11,1.46.11h.61v1.93h-13.07v-1.93h.61,0ZM562.69,280.73c0-.54.07-.99.2-1.35s.32-.65.56-.88c.24-.22.52-.38.83-.47s.66-.13,1.03-.13.7.04,1.01.13.59.25.82.47.42.52.56.88.21.81.21,1.35-.07.99-.21,1.35c-.14.36-.33.65-.56.88-.23.22-.51.39-.82.48-.31.1-.65.15-1.01.15s-.72-.05-1.03-.15c-.31-.1-.59-.26-.83-.48s-.43-.52-.56-.88c-.13-.36-.2-.81-.2-1.35Z"/>
            <path d="M587.45,310.92v1.93h-12.38v-1.93h.38c.52,0,1.01-.04,1.47-.11s.85-.23,1.19-.46c.34-.23.61-.57.81-1s.3-1.01.3-1.73v-14.35c0-.67-.1-1.22-.3-1.63s-.48-.73-.82-.95-.75-.37-1.2-.45-.94-.11-1.45-.11h-.13v-1.93h7.44l.61,3.73h.22c.48-.85.99-1.55,1.52-2.1s1.09-.97,1.68-1.28,1.22-.52,1.89-.63c.67-.11,1.37-.17,2.1-.17,1.21,0,2.29.18,3.25.53s1.76.89,2.43,1.62c.67.73,1.18,1.66,1.53,2.8.35,1.14.53,2.49.53,4.07v10.87c0,.72.09,1.3.26,1.73.17.43.42.77.73,1s.69.39,1.12.46.91.11,1.42.11h.16v1.93h-8.02v-15.88c0-1-.09-1.89-.27-2.67s-.47-1.44-.87-1.98-.92-.95-1.56-1.22c-.64-.28-1.43-.42-2.36-.42-1.05,0-1.93.2-2.64.61-.71.4-1.28.95-1.72,1.64-.43.69-.75,1.48-.93,2.38-.19.9-.28,1.84-.28,2.83v9.7c0,.67.1,1.22.3,1.63s.48.72.82.93.74.35,1.2.42.94.1,1.45.1h.13v-.02h0Z"/>
            <path d="M606.05,310.92c.51,0,.99-.03,1.45-.1s.86-.21,1.2-.42c.34-.21.62-.52.82-.93s.3-.96.3-1.63v-14.58c0-.67-.1-1.22-.3-1.63s-.48-.73-.82-.95-.75-.37-1.2-.45-.94-.11-1.45-.11h-.13v-1.93h8.22v19.43c0,.72.1,1.3.3,1.73.2.43.47.77.81,1s.74.39,1.2.46c.46.08.95.11,1.46.11h.61v1.93h-13.07v-1.93h.61,0ZM609.17,280.73c0-.54.07-.99.2-1.35s.32-.65.56-.88c.24-.22.52-.38.83-.47s.66-.13,1.03-.13.7.04,1.01.13.59.25.82.47.42.52.56.88.21.81.21,1.35-.07.99-.21,1.35c-.14.36-.33.65-.56.88-.23.22-.51.39-.82.48-.31.1-.65.15-1.01.15s-.72-.05-1.03-.15c-.31-.1-.59-.26-.83-.48s-.43-.52-.56-.88c-.13-.36-.2-.81-.2-1.35Z"/>
            <path d="M631.26,313.3c-1.66,0-3.16-.28-4.48-.84-1.33-.56-2.45-1.38-3.36-2.46s-1.61-2.4-2.1-3.97c-.49-1.56-.73-3.34-.73-5.33,0-4.3.88-7.53,2.65-9.7s4.28-3.26,7.55-3.26c1.48,0,2.82.23,4,.7,1.18.46,2.19,1.16,3.01,2.08.82.92,1.46,2.07,1.9,3.44s.66,2.96.66,4.77v2.11h-15.32c.03,1.68.2,3.12.51,4.32.31,1.21.75,2.2,1.33,2.98s1.28,1.35,2.12,1.72c.84.37,1.8.55,2.9.55.79,0,1.53-.09,2.21-.27s1.3-.42,1.85-.72,1.04-.64,1.47-1.02.78-.78,1.04-1.2c.21.09.41.28.6.56.19.29.28.62.28,1.01,0,.46-.17.96-.49,1.49-.33.53-.83,1.02-1.5,1.47s-1.52.82-2.53,1.12-2.2.45-3.56.45h-.01ZM630.7,290.21c-1.71,0-3.02.69-3.94,2.08-.92,1.39-1.46,3.41-1.63,6.08h10.58c0-1.21-.09-2.32-.27-3.33-.18-1-.46-1.86-.85-2.58s-.9-1.27-1.54-1.66c-.64-.39-1.42-.58-2.35-.58h0Z"/>
            <path d="M648.22,298.27c0-1.83-.07-3.63-.21-5.41s-.46-3.47-.94-5.05c-.49-1.59-1.2-3.05-2.12-4.39-.93-1.34-2.18-2.49-3.75-3.45v-2.07c2.11.84,3.92,1.85,5.41,3.04,1.5,1.19,2.72,2.61,3.66,4.26.94,1.65,1.64,3.55,2.08,5.69.44,2.15.66,4.61.66,7.38s-.22,5.24-.66,7.4c-.44,2.17-1.13,4.07-2.08,5.73-.94,1.66-2.17,3.08-3.66,4.28-1.5,1.2-3.3,2.22-5.41,3.06v-2.11c1.57-.96,2.82-2.11,3.75-3.46s1.64-2.82,2.12-4.41c.49-1.59.8-3.28.94-5.07.14-1.78.21-3.59.21-5.41h0Z"/>
          </g>
          <rect class="cls-1" x="-24.31" y="64.44" width="757.29" height="43.97"/>
          <rect class="cls-1" x="-24.31" y="138.92" width="757.29" height="40.73"/>
          <rect class="cls-1" x="-24.31" y="208.8" width="757.29" height="69.11"/>
        </g>
      </g>
    </g>
  </g>
</svg>