<?xml version="1.0" encoding="UTF-8"?>
<svg xmlns="http://www.w3.org/2000/svg" version="1.1" viewBox="0 0 512 512">
  <!-- Generator: Adobe Illustrator 28.7.1, SVG Export Plug-In . SVG Version: 1.2.0 Build 142)  -->
  <g>
    <g id="Layer_1">
      <g id="Layer_1-2" data-name="Layer_1">
        <g id="Layer_1-2">
          <path d="M413.54,375.12c-.31,6.93-2.34,12.14-6.11,15.6-3.77,3.47-7.9,5.2-12.43,5.2-4.22,0-8.22-1.58-11.99-4.74s-5.95-8.06-6.56-14.69c-1.52-14.46-3.39-29.76-5.65-45.89-2.26-16.12-4.82-32.4-7.69-48.82-2.87-16.42-6.04-32.62-9.49-48.6-3.47-15.97-7.16-30.9-11.08-44.77-5.72,13.87-11.46,28.42-17.18,43.62-5.72,15.23-11.52,30.6-17.41,46.12-5.87,15.52-11.68,30.97-17.41,46.35-5.72,15.37-11.61,29.99-17.63,43.86-4.82,5.72-10.11,8.59-15.82,8.59-4.52,0-9.49-2.41-14.92-7.23l-89.52-174.97c-1.52,14.46-3.02,29.69-4.52,45.67-1.52,15.98-2.95,32.1-4.29,48.37-1.36,16.27-2.79,32.4-4.29,48.37-1.52,15.98-3.02,31.19-4.52,45.67-2.11,5.13-4.82,8.89-8.14,11.3s-6.78,3.62-10.39,3.62c-4.22,0-8.14-1.66-11.76-4.97s-5.72-8.14-6.32-14.46c1.82-19.29,3.67-39.25,5.65-59.9,1.96-20.65,3.92-41.44,5.87-62.39,1.96-20.95,3.92-41.82,5.87-62.62,1.96-20.8,3.84-40.83,5.65-60.13,1.21-5.42,3.54-9.64,7.02-12.67,3.47-3.01,7.3-4.52,11.53-4.52,6.62,0,12.21,3.32,16.73,9.94,8.14,14.77,16.27,30.22,24.42,46.35,8.14,16.12,16.27,32.4,24.42,48.83,8.14,16.43,16.34,32.71,24.63,48.82,8.28,16.12,16.5,31.57,24.63,46.35,6.03-14.77,12.12-30.21,18.32-46.35,6.17-16.12,12.35-32.4,18.54-48.82,6.17-16.42,12.35-32.77,18.54-49.05,6.17-16.27,12.43-31.79,18.77-46.57,2.41-3.92,5.12-6.78,8.14-8.59,3.01-1.81,6.17-2.71,9.49-2.71,3.62,0,7.15,1.36,10.62,4.07,3.47,2.71,5.95,6.63,7.47,11.76,5.42,18.99,10.62,38.73,15.59,59.22,4.97,20.5,9.64,41.22,14.02,62.16,4.37,20.96,8.21,41.9,11.52,62.85,3.32,20.96,5.88,41.22,7.69,60.81h0l-.02-.02h.02Z"/>
        </g>
      </g>
    </g>
  </g>
</svg>