<?xml version="1.0" encoding="utf-8"?>
<!DOCTYPE svg PUBLIC "-//W3C//DTD SVG 1.0//EN" "http://www.w3.org/TR/2001/REC-SVG-20010904/DTD/svg10.dtd">
<svg version="1.0" xmlns="http://www.w3.org/2000/svg" width="1200px" height="630px" viewBox="0 0 1200 630" preserveAspectRatio="xMidYMid meet">
 <g fill="#ff1a5f">
  <path d="M0 315 l0 -315 600 0 600 0 0 315 0 315 -600 0 -600 0 0 -315z m238.80 245.05 c3.10 -0.60 24.15 -5 33.45 -7 3.85 -0.80 22.10 -4.65 40.50 -8.55 45.70 -9.60 52 -10.95 55.75 -11.75 1.80 -0.40 14.50 -3.05 28.25 -5.95 23.40 -4.90 32.65 -6.85 44.25 -9.35 2.60 -0.55 7.90 -1.65 11.75 -2.45 15.30 -3.20 26.35 -5.55 33.25 -7 13.75 -2.90 68.25 -14.40 91.25 -19.20 6.05 -1.30 13.05 -2.75 15.50 -3.30 2.50 -0.55 16.30 -3.45 30.75 -6.50 14.45 -3.05 30.55 -6.45 35.75 -7.55 5.25 -1.10 12.65 -2.65 16.50 -3.45 3.85 -0.80 10.25 -2.15 14.25 -3 10 -2.15 25.80 -5.45 28.50 -6 1.25 -0.25 5.50 -1.15 9.50 -2 7.15 -1.55 160.90 -33.95 172 -36.25 3.15 -0.70 9 -1.90 13 -2.75 4 -0.85 8.25 -1.75 9.50 -2 1.25 -0.25 5.50 -1.15 9.50 -2 4 -0.85 12.65 -2.65 19.25 -4.05 13.15 -2.70 16.60 -3.60 19.25 -4.95 2.60 -1.35 6.20 -4.65 7.90 -7.35 2.85 -4.40 3.10 -6.55 3.10 -25 0 -19.05 -0.25 -20.50 -4.25 -25.85 -1.90 -2.55 -6.45 -6.30 -7.65 -6.30 -0.25 0 -0.60 -6.25 -0.75 -13.85 -0.35 -14.75 -0.90 -19.55 -3.15 -27.10 -2.95 -9.70 -7.55 -17.40 -14.70 -24.55 -5.20 -5.25 -9.30 -8.20 -16.25 -11.60 -19.70 -9.80 -48.55 -10.95 -71.90 -2.90 -5.65 1.95 -14.85 6.25 -18.10 8.45 -2.20 1.55 -5.15 1.40 -7.10 -0.30 -2.90 -2.60 -3.90 -3.35 -7.65 -5.65 -6.85 -4.20 -14.10 -6.55 -23.40 -7.55 -13.30 -1.45 -27.70 2.45 -38 10.25 -4.75 3.60 -5.55 3.60 -10.20 0.05 -15.15 -11.50 -38.25 -13.90 -55.85 -5.75 -1.75 0.85 -3.70 1.50 -4.30 1.50 -0.65 0 -2.80 -0.80 -4.80 -1.75 -5.05 -2.40 -9.30 -2.85 -21.40 -2.45 l-9.70 0.35 0.35 -4 c0.25 -3.30 0.15 -4.60 -0.70 -7.30 -0.55 -1.80 -1.25 -3.45 -1.50 -3.60 -0.85 -0.50 -0.55 -4 0.40 -5.05 1.95 -2.10 3.05 -4.15 4.10 -7.40 1.05 -3.15 1.10 -4.10 0.85 -11.50 -0.25 -8.35 -1.15 -14.50 -2.90 -20.55 -5.20 -18 -15.45 -32.20 -29.75 -41.35 -14.45 -9.25 -36 -14.15 -55 -12.45 -12.45 1.05 -23.80 4.10 -33.30 8.80 -6.35 3.15 -6.90 3.10 -9.70 -1.30 -12.45 -19.25 -33.10 -32.45 -58.95 -37.70 -11.20 -2.25 -13.05 -2.35 -50.30 -2.60 -24.65 -0.15 -36.70 -0.05 -38.75 0.30 -5.90 1.10 -11.75 5.25 -14.20 10 -0.60 1.20 -3.95 9.95 -7.50 19.50 -6.50 17.55 -8.45 22.75 -22.50 60.55 -8.75 23.50 -18.25 49.10 -30.50 82 -4.45 11.95 -11.65 31.30 -16 43 -4.35 11.70 -11.20 30.15 -15.25 41 -4.05 10.85 -10.90 29.30 -15.25 41 -4.35 11.70 -11.20 30.15 -15.25 41 -6.90 18.60 -14.40 38.70 -27.15 73 -3.05 8.15 -5.65 15.80 -5.85 17.10 -0.65 4.35 1.95 10.65 6.05 14.75 2.50 2.45 5.10 3.85 8.85 4.90 3.25 0.85 3.20 0.85 6.15 0.30z"/>
 </g>
 <g fill="#000000">
  <path d="M231.15 561.25 c-7.30 -2 -12.30 -7 -14.45 -14.50 -1.55 -5.45 -1 -8.10 5.30 -25 8.45 -22.75 19.10 -51.30 27.25 -73.25 4.05 -10.85 10.90 -29.30 15.25 -41 4.35 -11.70 11.20 -30.15 15.25 -41 4.05 -10.85 10.90 -29.30 15.25 -41 4.35 -11.70 11.55 -31.05 16 -43 12.25 -32.90 21.75 -58.50 30.50 -82 14.05 -37.80 16 -43 22.50 -60.55 3.55 -9.55 6.90 -18.30 7.50 -19.50 2.45 -4.75 8.30 -8.90 14.20 -10 2.05 -0.35 14.55 -0.45 40.25 -0.30 38.90 0.25 40.50 0.30 51.80 2.60 25.85 5.25 46.50 18.45 58.90 37.70 l2.30 3.50 4.50 -2.25 c18.05 -8.95 41.60 -11.45 64.50 -6.90 15.20 3.05 30.95 11.45 39.65 21.25 8.10 9.20 13.40 18.80 16.85 30.70 1.90 6.50 2.65 12.30 2.90 22.10 0.25 8.85 0.20 9.80 -0.85 12.95 -1.05 3.25 -2.15 5.30 -4.10 7.40 -1 1.10 -1.10 1.60 -0.40 2.05 0.25 0.15 0.95 1.90 1.55 3.85 0.85 2.75 1.05 4.30 0.80 7.10 l-0.25 3.60 10.80 -0.15 c12.15 -0.15 15.55 0.30 20.40 2.75 l2.90 1.45 3 -1.40 c12.45 -5.75 30.25 -6.50 44.15 -1.75 5.30 1.80 10.55 4.55 14.50 7.55 l3.60 2.75 3.65 -2.80 c6.95 -5.30 16.40 -9 25.65 -10.15 14.15 -1.75 28.15 0.95 38.70 7.40 3.80 2.35 4.80 3.10 7.70 5.70 1.85 1.60 2.15 1.65 4.10 0.30 3.25 -2.20 12.45 -6.50 18.10 -8.45 23.80 -8.20 55.10 -7 74.90 2.85 6.95 3.50 11.10 6.45 16.25 11.65 7.15 7.15 11.75 14.85 14.70 24.55 2.50 8.30 3.25 15.55 3.30 31.35 0 6.30 0.20 9.60 0.50 9.60 1.30 0 5.80 3.65 7.75 6.30 4.05 5.40 4.25 6.60 4.25 27.35 0 20.05 -0.25 22.05 -3.10 26.50 -1.70 2.70 -5.30 6 -7.90 7.35 -2.65 1.35 -6.10 2.25 -19.25 4.95 -6.60 1.40 -15.25 3.20 -19.25 4.05 -4 0.85 -8.25 1.75 -9.50 2 -1.25 0.25 -5.50 1.15 -9.50 2 -4 0.85 -9.85 2.05 -13 2.75 -11.10 2.30 -164.85 34.70 -172 36.25 -4 0.85 -8.25 1.75 -9.50 2 -2.70 0.55 -18.50 3.85 -28.50 6 -4 0.85 -10.40 2.20 -14.25 3 -3.85 0.80 -11.25 2.35 -16.50 3.45 -5.20 1.10 -21.30 4.50 -35.75 7.55 -14.45 3.05 -28.25 5.95 -30.75 6.50 -2.45 0.55 -9.45 2 -15.50 3.30 -23 4.80 -77.50 16.30 -91.25 19.20 -6.90 1.45 -17.95 3.80 -33.25 7 -3.85 0.80 -9.15 1.90 -11.75 2.45 -11.60 2.50 -20.85 4.45 -44.25 9.35 -13.75 2.90 -26.45 5.55 -28.25 5.95 -3.75 0.80 -10.05 2.15 -55.75 11.75 -18.45 3.90 -36.65 7.75 -40.50 8.55 -9.30 2 -30.35 6.40 -33.45 7 -3.30 0.60 -6.05 0.55 -9.15 -0.30z m639.85 -170.50 c9.80 -1.95 19 -7.65 25.80 -16 2.50 -3 6.85 -10.55 8.15 -14 1.90 -5.10 1.85 -5.20 -0.50 -2.70 -2.75 2.90 -6.20 4.90 -9.90 5.75 -3.85 0.95 -11.75 0.90 -14.95 -0.05 -3 -0.90 -5.95 -3.30 -6.90 -5.60 -0.80 -1.90 -0.90 -8.10 -0.20 -10.70 1.35 -4.90 7.20 -8.60 19.05 -12 8.45 -2.40 12.85 -4.40 14.90 -6.70 1.20 -1.40 1.90 -1.75 3.30 -1.75 l1.75 0 -0.15 8.40 c-0.20 8.60 -0.90 12.65 -2.85 16.70 l-0.90 1.90 1.45 0 1.45 0 0 8.65 c0 11.10 0.95 14.90 4.85 19.70 4.65 5.80 16.15 8.85 28.50 7.65 5.15 -0.50 11.25 -1.50 15.30 -2.55 l1.85 -0.50 0 -13.60 0 -13.60 -4.15 0 c-4.35 0 -6.25 -0.75 -7.50 -2.95 -0.45 -0.75 -0.70 -7 -0.90 -22.05 -0.30 -22.95 -0.50 -25.05 -3.50 -32.80 -2.60 -6.75 -7.85 -13.20 -14.15 -17.40 -4.30 -2.85 -5.80 -3.55 -11.60 -5.50 -7.45 -2.50 -12.80 -3.25 -23.45 -3.25 -11.10 0 -16.40 0.75 -25.30 3.70 -11.60 3.85 -22.35 10.60 -30.50 19.15 -2.05 2.15 -2.50 2.40 -4.15 2.25 -1.80 -0.15 -1.95 -0.30 -2.80 -2.80 -1.70 -4.75 -5.50 -11 -8.85 -14.50 -1.10 -1.15 -5.75 -4.10 -8.05 -5.15 -4.20 -1.95 -10.85 -3.05 -16.35 -2.80 -6.05 0.30 -9.80 1.25 -14.70 3.70 -9.05 4.55 -17.45 16.75 -21.05 30.65 -0.85 3.15 -0.90 3.25 -2.60 3.40 l-1.75 0.15 -0.35 -3.15 c-1.30 -11.50 -5.20 -20.80 -11.35 -26.80 -2.50 -2.50 -8.55 -5.70 -12.95 -6.90 -5.10 -1.40 -14.70 -1.25 -19.50 0.20 -5.35 1.65 -9.25 4 -13.20 7.95 -5.40 5.35 -9.60 12.50 -12.45 21.40 -1.65 5.05 -2.50 8.95 -1.70 7.50 1.20 -2 4.50 -4.70 6.75 -5.50 5.40 -1.80 13.65 -1.45 17.90 0.85 2.35 1.25 2.90 1.90 4.50 5.30 2.50 5.15 2.65 7.75 2.70 42.50 l0 32.10 19.95 0 19.95 0 0.25 -31.10 c0.15 -27.05 0.30 -31.65 1.05 -34.90 1.75 -7.60 5 -12.50 9.80 -14.65 1.85 -0.85 3.30 -1.05 7.75 -1.05 7.95 -0.05 11.35 1.40 13.95 5.85 2.90 4.95 2.95 5.55 3.15 42.25 l0.20 33.60 20.25 0 20.20 0 0 -2.50 0 -2.50 1.95 0 c1.10 0 2.05 0.15 2.15 0.40 0.30 0.65 3.65 2.90 5.90 3.95 7.65 3.45 15.40 4.25 24.50 2.40z m-353.50 -0.65 c4.60 -1 8.85 -2.25 10.65 -3.15 0.75 -0.45 0.85 -1.35 0.85 -7.70 l0 -7.25 1.70 0 c1.35 0 2.25 0.55 4.60 2.75 12.15 11.40 29.10 16.80 50.10 16.10 14.60 -0.50 25.80 -3.80 36.20 -10.70 3.55 -2.35 10.35 -8.70 12.45 -11.65 2.10 -2.95 5.80 -9.20 6.15 -10.35 0.30 -0.90 0.75 -1.15 2.10 -1.15 l1.70 0 0 16 0 16 20 0 20 0 0 -28.60 c0 -31.45 0.40 -37.40 2.75 -43.50 0.30 -0.75 0.10 -0.90 -1.20 -0.90 l-1.55 0 0 -19.25 0 -19.25 -20 0 -20 0 0 16 0 16 -1.65 0 c-1.50 0 -1.75 -0.25 -3.05 -2.85 -3.65 -7.45 -10.30 -15.25 -16.80 -19.65 -3.95 -2.65 -8.90 -5.30 -11.35 -6.05 -2.05 -0.55 -2.15 -0.70 -2.15 -2.50 0 -1.75 0.15 -1.90 1.90 -2.45 5.40 -1.75 12.55 -5.45 16.85 -8.70 4.30 -3.30 10.85 -10.60 12.70 -14.15 0.75 -1.45 0.75 -1.45 -1.05 -2.20 -0.90 -0.35 -3.30 -1.40 -5.30 -2.30 -1.95 -0.90 -3.70 -1.65 -3.85 -1.65 -0.10 0 -1.60 -0.65 -3.35 -1.45 -11.25 -5.20 -20.65 -9.10 -20.80 -8.65 -0.40 1.30 -4.10 6.50 -5.65 8 -4.85 4.70 -14.65 6.40 -23.65 4.10 -6.55 -1.65 -10.50 -5.10 -12.60 -10.90 -1.15 -3.15 -1.40 -4.60 -1.45 -8.80 l0 -5.05 40.50 -0.10 c22.30 -0.10 40.90 -0.15 41.40 -0.15 0.75 0 0.85 -0.55 0.85 -5.10 -0.05 -12.55 -4.40 -25.75 -11.30 -34.20 -2.85 -3.45 -9.50 -9.10 -13.75 -11.65 -12.55 -7.45 -33.45 -10.40 -49.90 -7.05 -12.65 2.55 -24.70 8.75 -31.80 16.30 -2.80 2.95 -5 5.60 -6.05 7.30 -1 1.60 -1.50 1.90 -2.90 1.90 l-1.65 0 -0.85 -4.50 c-1.75 -9.60 -5.50 -18.65 -10.60 -25.80 -4.45 -6.20 -5.05 -6.80 -15.20 -15.30 -0.70 -0.60 -2.35 -1.60 -3.75 -2.30 -1.35 -0.70 -2.85 -1.50 -3.25 -1.85 -1.50 -1.20 -11.85 -5.15 -16.25 -6.20 -2.45 -0.60 -5.30 -1.30 -6.25 -1.55 -6.65 -1.85 -10.45 -2 -46 -2 l-35 0 0 128.50 0 128.50 20.75 0 20.75 0 0 -24.25 0 -24.30 7.30 0.15 7.30 0.15 1.65 5.80 c7.90 27.40 20.10 40.60 41.25 44.65 0.70 0.10 6.10 0.15 12 0.05 8.20 -0.15 11.85 -0.40 15.50 -1.15z"/>
  <path d="M836.50 336.60 c0 -8.50 -0.15 -18.20 -0.35 -21.50 l-0.30 -6.10 2.20 0 c1.40 0 2.65 0.35 3.45 1 0.70 0.55 1.40 1 1.60 1 0.20 0 1.35 0.70 2.55 1.50 1.25 0.85 2.35 1.50 2.50 1.50 0.20 0 1.25 0.60 2.45 1.40 1.20 0.75 2.60 1.60 3.15 1.95 3.55 2.10 10.65 6.45 11.55 7 0.95 0.60 1.15 0.40 3.10 -3 3.20 -5.65 7.30 -9.80 12 -12.20 5.30 -2.75 8.45 -3.35 15.85 -3.05 6.45 0.30 8.50 0.85 11.50 3.25 2.50 2 3.40 4.70 3.20 9.50 -0.15 3.10 -0.45 4.25 -1.35 5.55 -2.60 3.65 -10.20 6.15 -37 12.30 -8.75 2 -15.15 4.10 -20.85 6.80 -4.10 1.95 -10.60 6.40 -11.35 7.75 -0.30 0.45 -1.15 0.75 -2.15 0.75 l-1.75 0 0 -15.40z"/>
  <path d="M573.55 359.75 c-6.55 -1.85 -10.85 -7.30 -12.35 -15.70 -1.40 -8 -0.55 -21.50 1.75 -27.55 1.40 -3.75 4.90 -7.60 8.45 -9.35 2.75 -1.35 3.10 -1.40 10.85 -1.40 7.90 0 8.05 0 10.95 1.50 5.15 2.65 8.05 6.85 9.70 14 1.10 5 1.10 19.20 -0.10 24 -1.80 7.35 -4.85 11.70 -9.75 13.95 -3.05 1.35 -15.30 1.70 -19.50 0.55z"/>
  <path d="M485.75 354.15 c-7.85 -1 -17.85 -4.30 -22.35 -7.35 -4.20 -2.85 -4.40 -3.05 -4.40 -4.65 0 -1.30 0.25 -1.55 1.55 -1.85 0.85 -0.15 2.65 -0.30 4 -0.30 4.10 0 13.90 -1.45 20.35 -3 11.35 -2.75 20.80 -7.15 27.95 -13 2.95 -2.45 3.95 -3 5.45 -3 l1.85 0 -0.35 2.90 c-0.80 6.65 -0.90 12.60 -0.30 16.85 0.30 2.50 0.70 5.65 0.85 7.05 l0.25 2.60 -6.40 1.50 c-3.55 0.85 -8.20 1.80 -10.35 2.10 -3.70 0.45 -14.80 0.60 -18.10 0.15z"/>
  <path d="M432.75 334.40 c-0.15 -0.35 -0.20 -13 -0.15 -28.15 l0.15 -27.50 14 -0.15 c18.95 -0.20 24.10 0.55 30.45 4.35 3.60 2.15 6.80 5.95 8.35 9.90 0.95 2.45 1.15 4.10 1.35 10.65 0.15 6.65 0.05 8.40 -0.85 12.20 -2.70 11.25 -10.05 17.15 -23.55 18.80 -6.30 0.75 -29.45 0.65 -29.75 -0.10z"/>
  <path d="M528.85 289.65 c-0.50 -12.80 -4.70 -22.55 -13.25 -30.90 -3.90 -3.80 -3.95 -4.65 -0.70 -8.90 1.30 -1.75 3.25 -4.65 4.30 -6.55 1.80 -3.25 1.95 -3.35 3.60 -3.20 1.70 0.15 1.80 0.25 3 3.80 4.60 13.70 14.40 24.45 27.45 30.05 4.30 1.85 4.50 2 4.65 3.60 0.15 1.65 0.10 1.70 -3.25 2.95 -6.70 2.50 -15.30 8.15 -20.40 13.45 -1.45 1.55 -2.35 2.05 -3.55 2.05 l-1.55 0 -0.30 -6.35z"/>
  <path d="M432.90 242.70 c-0.25 -0.20 -0.40 -17.35 -0.40 -38.10 l0 -37.70 12.90 0.25 c15.10 0.30 18.20 0.80 24.95 4.15 6 3 8.90 5.80 11.60 11.25 2.60 5.30 3.50 9.40 3.90 18.25 0.85 19.90 -4.45 32.15 -16.60 38.15 -6.40 3.15 -9.70 3.70 -23.75 3.95 -6.75 0.10 -12.40 0 -12.60 -0.20z"/>
  <path d="M562.50 216.80 c0 -3.95 1.30 -10.15 2.75 -13.10 3.80 -7.80 11.05 -11.20 22.35 -10.50 12.75 0.80 18.40 7.35 18.40 21.25 l0 5.05 -21.75 0 -21.75 0 0 -2.70z"/>
 </g>
 <g fill="#ffffff">
  <path d="M491 392.90 c-11.20 -1.20 -20.75 -5.85 -28.10 -13.80 -6.65 -7.25 -11.60 -17 -15.65 -31.05 l-1.65 -5.80 -5.80 -0.15 -5.80 -0.15 0 24.30 0 24.25 -22.25 0 -22.25 0 0 -130 0 -130 36.50 0 c37.10 0 40.85 0.15 47.50 2 0.95 0.25 3.80 0.95 6.25 1.55 4.40 1.05 14.75 5 16.25 6.20 0.40 0.35 1.90 1.15 3.25 1.85 1.40 0.70 3.05 1.70 3.75 2.30 10.15 8.50 10.75 9.10 15.20 15.30 5.10 7.10 8.80 16.05 10.55 25.60 0.50 2.45 0.90 4.55 1 4.60 0.10 0.10 0.75 -0.70 1.40 -1.75 1.10 -1.75 3.30 -4.40 6.10 -7.35 5.15 -5.50 13.40 -10.55 22.40 -13.75 7.80 -2.75 13.55 -3.65 23.85 -3.85 9.25 -0.15 12 0.05 20 1.60 16.25 3.15 30.05 12.70 36.85 25.55 4.70 8.85 6.80 18.25 6.55 29.15 l-0.15 6.25 -41.25 0.05 -41.25 0 0.05 3.65 c0.25 12 8.70 19.35 21.70 18.80 4.75 -0.20 7.70 -1.05 11 -3.30 2.55 -1.75 5.65 -5.60 7.10 -8.85 0.80 -1.85 1.15 -2.10 2.05 -1.80 1.10 0.35 16.55 7.10 22.25 9.75 1.75 0.80 3.25 1.45 3.35 1.45 0.15 0 1.65 0.65 3.35 1.45 1.75 0.75 4.35 1.95 5.80 2.55 1.40 0.60 2.60 1.35 2.60 1.60 0 0.85 -2.15 4.70 -4.15 7.40 -2.35 3.15 -7.15 8.05 -10.10 10.30 -4.30 3.25 -11.45 6.95 -16.85 8.70 -1.05 0.30 -1.90 0.75 -1.90 0.95 0 0.20 0.95 0.65 2.15 1 1.15 0.35 3.55 1.45 5.35 2.40 10.30 5.65 17.10 12.50 22.60 22.90 l1.85 3.50 0.05 -16.10 0 -16.15 21.50 0 21.50 0 0.05 19.40 0.05 19.35 0.85 -3.50 c3 -12.15 7.70 -21.35 14.35 -27.90 3.95 -3.95 7.85 -6.25 13.20 -7.95 3.25 -1 4.75 -1.15 11.50 -1.10 9 0 12.10 0.65 18.10 3.75 4.35 2.30 7.05 4.75 10 9.15 3.75 5.45 6.20 13 7.20 21.65 0.15 1.75 0.50 3 0.75 2.85 0.25 -0.15 0.45 -0.70 0.45 -1.20 0 -1.55 3 -10 4.85 -13.75 6.10 -12.15 13.50 -18.90 23.65 -21.60 3.40 -0.90 15.10 -1.25 19.25 -0.55 6.30 1.05 13.30 4.60 16.85 8.55 3.25 3.65 8.40 12.85 8.40 15.05 0 1.65 1.20 1.30 3.40 -1.05 8.20 -8.55 18.95 -15.30 30.55 -19.15 9.25 -3.05 14.05 -3.75 26.80 -3.70 12.25 0 17.15 0.65 24.95 3.25 5.80 1.95 7.30 2.65 11.60 5.50 6.30 4.20 11.55 10.65 14.15 17.40 3 7.75 3.20 9.85 3.50 32.80 0.20 15.05 0.45 21.30 0.90 22.05 1.45 2.55 5.50 3.60 10.05 2.60 l1.60 -0.35 0 15.45 c0 14.25 -0.05 15.45 -0.85 15.70 -2.80 0.85 -11.25 2.30 -16.60 2.80 -17.05 1.65 -29.30 -2.45 -33.60 -11.25 -1.95 -3.95 -2.45 -7.30 -2.50 -16.30 l-0.05 -8.70 -1.35 4 c-4.80 13.80 -14.30 24.95 -25.60 29.95 -12.05 5.30 -26.50 5.50 -37.30 0.50 -2 -0.95 -5.30 -3.20 -5.55 -3.80 -0.55 -1.20 -1.10 -0.05 -1.10 2.10 l0 2.50 -21.70 0 -21.75 0 -0.20 -33.60 c-0.15 -29.95 -0.25 -34 -1.05 -36.90 -2.15 -8.15 -6.15 -11.20 -14.55 -11.15 -8.80 0 -13.75 5 -16.10 16.15 -0.80 3.85 -0.90 7.30 -0.90 34.85 l0 30.65 -21.60 0 -21.65 0 0 -32.10 c-0.05 -34.75 -0.20 -37.35 -2.70 -42.50 -0.65 -1.45 -1.55 -3 -1.90 -3.40 -2.20 -2.55 -7.95 -4.25 -12.55 -3.75 -8.95 1.05 -12.75 5.20 -14.80 16.25 -0.90 4.65 -1 8.35 -1 37.40 l-0.05 28.10 -21.50 0 -21.50 0 -0.05 -16.10 c0 -12.30 -0.15 -15.85 -0.55 -14.90 -0.75 1.65 -4.80 8.30 -6.40 10.50 -8.25 11.30 -22.70 19.20 -39.80 21.75 -10.15 1.50 -25.95 0.85 -35.35 -1.50 -10.20 -2.55 -19.65 -7.55 -26.60 -14.05 l-3 -2.80 -0.15 7.35 -0.15 7.30 -1.85 0.80 c-8.05 3.40 -25.80 5.30 -37.60 4.05z m402.10 -30.60 c5.70 -1.30 10.80 -5.50 13.60 -11.10 2.15 -4.30 2.90 -8.35 3 -15.85 0 -3.75 0 -6.85 -0.10 -6.85 -0.05 0 -0.80 0.80 -1.65 1.75 -2.05 2.30 -6.45 4.30 -14.90 6.70 -14.50 4.15 -19.55 8.30 -19.55 15.95 0 4.30 2.50 7.55 7.10 9.15 3.15 1.10 8.50 1.20 12.50 0.25z m-301.55 -4.65 c7.20 -3.25 10.60 -11 10.60 -24.40 0 -13.60 -3 -20.70 -10.45 -24.50 -2.85 -1.45 -3.20 -1.50 -9.45 -1.50 -6.10 0 -6.65 0.10 -9.35 1.40 -3.55 1.75 -7.05 5.60 -8.45 9.35 -1.40 3.65 -2.45 10.70 -2.45 16.25 0.05 13.40 4.55 21.60 13.05 24 4 1.10 13.45 0.75 16.50 -0.60z m-89.45 -5.15 c2.30 -0.30 7.05 -1.25 10.55 -2.10 6.30 -1.50 6.40 -1.55 6.10 -2.75 -1.15 -4.70 -1.60 -16.55 -0.80 -22.15 0.25 -1.50 0.35 -2.80 0.30 -2.90 -0.10 -0.10 -1.85 1.20 -3.85 2.85 -11.45 9.35 -27.45 14.55 -50.15 16.25 -1.90 0.15 -3.60 0.30 -3.70 0.30 -0.35 0 4.10 3.25 5.95 4.35 4.10 2.45 14.55 5.60 20.75 6.25 3.95 0.45 11.15 0.40 14.85 -0.10z m342.30 -7.20 c6.35 -4.20 14.55 -7.30 26.70 -10.10 26.65 -6.10 34.40 -8.65 36.95 -12.25 2.45 -3.45 1.60 -9.40 -1.80 -12.10 -2.75 -2.15 -5.05 -2.90 -9.95 -3.20 -5.80 -0.35 -9.30 0.40 -14.35 3 -5.50 2.80 -9.40 7.05 -13.20 14.25 -0.75 1.45 -1.55 2.60 -1.75 2.60 -0.25 0 -3.40 -1.80 -7.10 -4.05 -3.65 -2.20 -7.10 -4.30 -7.65 -4.60 -0.55 -0.35 -1.95 -1.20 -3.15 -1.95 -1.20 -0.80 -2.25 -1.40 -2.40 -1.40 -0.10 0 -1.15 -0.60 -2.35 -1.35 -1.15 -0.75 -2.55 -1.60 -3.10 -1.90 -0.55 -0.35 -1.50 -0.90 -2.10 -1.25 -0.60 -0.40 -1.20 -0.60 -1.25 -0.50 -0.10 0.15 -0.10 9.20 0 20.10 l0.20 19.90 1.45 -1.45 c0.80 -0.80 3 -2.50 4.85 -3.75z m-383.40 -12.30 c7.40 -0.90 12.60 -2.95 16.60 -6.45 5.65 -5 8.15 -12.45 7.80 -23.05 -0.20 -4.90 -0.50 -6.90 -1.40 -9.15 -1.50 -3.95 -4.65 -7.70 -8.30 -9.90 -6.25 -3.75 -11.65 -4.55 -28.95 -4.35 l-12.50 0.15 -0.15 26 c-0.05 14.30 0 26.30 0.15 26.65 0.30 0.75 20.45 0.85 26.75 0.10z m78 -46.05 c3.40 -2.70 8.85 -5.75 13.55 -7.70 l4.20 -1.70 -2 -0.80 c-8.55 -3.45 -14.20 -7.20 -19.35 -12.70 -5.20 -5.55 -8.65 -11.40 -11.10 -18.55 -0.65 -1.95 -1.30 -3.65 -1.45 -3.80 -0.15 -0.15 -1.10 1.25 -2.15 3.10 -1.05 1.85 -2.95 4.75 -4.25 6.45 l-2.35 3.10 3.05 2.95 c8.50 8.35 12.70 18.05 13.20 30.85 l0.30 6.45 3.05 -2.95 c1.65 -1.65 4.05 -3.75 5.30 -4.70z m-79 -46.65 c7.15 -1.65 14 -5.90 17.60 -10.80 4.90 -6.75 7.40 -17.35 6.70 -28.70 -0.45 -7.55 -1.40 -11.80 -3.85 -16.75 -2.70 -5.45 -5.60 -8.25 -11.60 -11.25 -6.50 -3.25 -10 -3.85 -23.45 -4.15 l-11.40 -0.25 0 36.20 c0 19.95 0.15 36.40 0.40 36.60 0.70 0.75 21.60 0 25.60 -0.90z m144.50 -25.85 c0 -6.55 -2.25 -12.40 -6.05 -15.65 -5.50 -4.70 -16.25 -5.50 -23.75 -1.80 -5.30 2.60 -8.55 7.45 -9.95 14.70 -0.40 2.15 -0.75 4.45 -0.75 5.10 l0 1.20 20.25 0 20.25 0 0 -3.55z"/>
 </g>
<g opacity="0.5" transform="rotate(-45, 600.0, 315.0)">
  <text x="50%" y="50%" font-size="20" text-anchor="middle" fill="lightgray" dominant-baseline="middle">
    generated by vectorizer.io
  </text>
</g>
</svg>