<?xml version="1.0" encoding="UTF-8"?>
<svg id="Layer_1" xmlns="http://www.w3.org/2000/svg" version="1.1" viewBox="0 0 566.9291339 138.8397879">
  <!-- Generator: Adobe Illustrator 29.0.1, SVG Export Plug-In . SVG Version: 2.1.0 Build 192)  -->
  <defs>
    <style>
      .st0 {
        fill: #fff8eb;
      }

      .st1 {
        fill: #8a6cd3;
      }
    </style>
  </defs>
  <path class="st0" d="M183.7836151,72.8258675c-2.5773294,0-4.8658859-.4600249-6.8533643-1.3682683-1.9935163-.9142592-3.5503688-2.2589236-4.676825-4.0400046-1.1264561-1.7810854-1.6868948-3.9398115-1.6868948-6.4875212v-.7608425c0-.2596299.2063975-.4660406.466023-.4660406h4.3054295c.259396,0,.4658111.2064107.4658111.4660406v.7608425c0,2.4181265.7254366,4.2285976,2.1763099,5.4318724,1.4508732,1.2090654,3.3853709,1.8104711,5.8035106,1.8104711,2.447499,0,4.2933892-.5130101,5.5320567-1.5392688,1.2384556-1.0262586,1.8576834-2.3591211,1.8576834-3.9928011,0-1.0792483-.294793-1.9581016-.8786238-2.642121-.5898332-.6842489-1.4214787-1.232665-2.4947245-1.6396958-1.0794778-.4068013-2.3651236-.7902327-3.8689953-1.1500601l-1.8107051-.4422028c-2.1881206-.5190303-4.0872036-1.1678733-5.7030748-1.9345021-1.6161007-.7668582-2.8663494-1.7870967-3.7452027-3.0609538-.8786238-1.2740866-1.3210605-2.9017509-1.3210605-4.8952584,0-2.0228976.4954352-3.7509889,1.4920609-5.1900646.9968729-1.4330555,2.3769344-2.5477097,4.1344291-3.3263699,1.7634972-.784442,3.8335983-1.1736596,6.2163056-1.1736596,2.382725,0,4.5118447.4070352,6.3873237,1.2268831,1.8754967.8138322,3.3557645,2.0228932,4.4292221,3.6211718,1.0792483,1.5982786,1.6158712,3.603588,1.6158712,6.0217145v1.2974566c0,.2594004-.2064152.4658067-.4658111.4658067h-4.3054119c-.2594136,0-.4658111-.2064063-.4658111-.4658067v-1.2974566c0-1.4686953-.3008308-2.6599387-.9084774-3.5741979-.6014145-.9140297-1.4448531-1.5804609-2.5183284-2.0053094-1.0792483-.424619-2.3355172-.636816-3.7685771-.636816-2.0879143,0-3.709788.4304052-4.8716412,1.297461-1.1558507.8670513-1.7399109,2.0643148-1.7399109,3.5975679,0,1.0440763.253623,1.8990962.7608513,2.5715476.5072283.6664312,1.2504782,1.2148473,2.2295379,1.6394663.9788125.4248485,2.1996843.8022597,3.6683708,1.1266812l1.8104756.4422072c2.2177271.4896401,4.1758463,1.1206699,5.8743047,1.8872942,1.6984761.7666287,3.0373499,1.8046849,4.0164095,3.1081616.9790596,1.3034723,1.468457,2.9843602,1.468457,5.0426593s-.5130013,3.8511864-1.5392688,5.384669c-1.0262498,1.533487-2.4889338,2.7305165-4.3820143,3.5975723-1.89331.86104-4.1283913,1.2916748-6.7057207,1.2916748Z"/>
  <path class="st0" d="M209.0378698,72.1418481c-1.4686865,0-2.6363304-.4424367-3.4973704-1.32129-.8670602-.8786282-1.2976861-2.0583035-1.2976861-3.5267649v-14.5617486c0-.259396-.2064152-.4658067-.4658111-.4658067h-5.7266787c-.2596255,0-.4660406-.2064063-.4660406-.4660406v-3.3263699c0-.259396.2064152-.4658067.4660406-.4658067h5.7266787c.259396,0,.4658111-.2064063.4658111-.4660362v-7.0477392c0-.2596299.2063975-.4660406.4660406-.4660406h4.1108075c.259396,0,.4658111.2064107.4658111.4660406v7.0477392c0,.2596299.2063975.4660362.4660406.4660362h6.2632839c.2596431,0,.4660406.2064107.4660406.4658067v3.3263699c0,.2596343-.2063975.4660406-.4660406.4660406h-6.2632839c-.2596431,0-.4660406.2064107-.4660406.4658067v13.6828953c0,.9790508.4542299,1.4686909,1.3682683,1.4686909h4.5766186c.2596255,0,.4660406.2064107.4660406.4658067v3.3263699c0,.2594004-.2064152.4660406-.4660406.4660406h-6.1924898Z"/>
  <path class="st0" d="M227.7395909,72.8258675c-1.7281002,0-3.2731419-.2950358-4.6238265-.8788577-1.3564576-.5898376-2.4299329-1.4508777-3.2319542-2.5949176-.8022685-1.1442694-1.1972679-2.5301215-1.1972679-4.1580198,0-1.6630702.4010195-3.0431361,1.1972679-4.1344159.8020214-1.0910503,1.8930805-1.9166844,3.2791621-2.4711161,1.3858521-.5544362,2.9607475-.8316499,4.7240152-.8316499h6.8771978c.2591665,0,.4651226-.2064107.4651226-.4658111v-1.1028478c0-1.4036698-.4234582-2.5301259-1.2727051-3.3795935-.8492292-.849238-2.1543301-1.2738527-3.9168917-1.2738527-1.7281002,0-3.0491607.4070308-3.9631815,1.220863-.8022685.7136347-1.3624954,1.6160963-1.6869125,2.7071421-.0765848.2536142-.3362279.4068013-.5956239.3244259l-3.7803703-1.2208674c-.2478324-.0768231-.3894559-.3480254-.3008308-.5898376.3949994-1.1264517.9730395-2.1645123,1.7396638-3.1021415.8670602-1.0616645,2.0171202-1.9169139,3.4504097-2.5715431,1.43306-.6546337,3.1669331-.9790552,5.1900558-.9790552,3.1324541,0,5.596866.8020346,7.3902168,2.4003088,1.7933508,1.5985081,2.695808,3.8690041,2.695808,6.8061609v9.9376881c0,.9790508.4535413,1.4686909,1.3675622,1.4686909h1.5920378c.2591665,0,.465105.2064107.465105.4658111v3.2791621c0,.2596299-.2059385.4660406-.465105.4660406h-3.3020775c-1.1454346,0-2.0710191-.2950358-2.7906827-.8788577-.719646-.5898376-1.0783126-1.3858521-1.0783126-2.4003088v-.1474009h-.4674353c-.1642918,0-.3170199.0883955-.4003133.2357965-.2522283.436421-.601644.9260611-1.0436217,1.4802634-.5252711.6548632-1.2912069,1.2150812-2.3001025,1.6869036-1.0144567.4658067-2.3531009.7018371-4.0164095.7018371ZM228.4710477,68.6678433c2.0228932,0,3.6574957-.5780357,4.8954923-1.7398933,1.2379789-1.1558419,1.8581424-2.7483342,1.8581424-4.7712274v-.4894106h-7.0486749c-1.3386443,0-2.4181221.2887861-3.2319542.8550199-.8138322.5722539-1.2208718,1.40969-1.2208718,2.518324,0,1.1088679.4246234,1.9935075,1.2738527,2.6423505.8494764.6604155,2.0053094.984837,3.4740136.984837Z"/>
  <path class="st0" d="M255.7891537,72.8258675c-1.9923334,0-3.8342868-.4896446-5.5327629-1.4684658-1.6984761-.9790508-3.0591001-2.3887363-4.0865151-4.2348429-1.0251023-1.845877-1.5388098-4.0693947-1.5388098-6.68213v-.7372386c0-2.5773294.5067693-4.7948313,1.5156649-6.6585216,1.0089132-1.8579085,2.3649117-3.2791665,4.0633878-4.2582173s3.5566185-1.4684614,5.579035-1.4684614c1.5688929,0,2.8786192.1946044,3.9407428.5896037,1.0598108.3894471,1.9344977.8906597,2.61714,1.4922993.6085645.5366141,1.0852508,1.0850301,1.4346665,1.657284.0809984.1413852.2290834.2239945.3933752.2239945h.5206633v-12.9456567c0-.259396.2059385-.4658067.465105-.4658067h4.1119727c.2591665,0,.4651226.2064107.4651226.4658067v33.334277c0,.2596299-.2059561.4660406-.4651226.4660406h-4.017098c-.2591665,0-.465105-.2064107-.465105-.4660406v-2.9605268h-.532227c-.1596663,0-.3008132.0823798-.3841243.2121926-.6178331.961467-1.5087267,1.8343046-2.681914,2.6245372-1.2518729.8552538-3.0544746,1.2798728-5.4031973,1.2798728ZM257.2099615,68.4202493c2.1890387,0,3.9870149-.7018371,5.4101178-2.1055069,1.4207902-1.4036698,2.1288725-3.4089792,2.1288725-6.0217145v-.4424367c0-2.5773294-.7034569-4.5706029-2.1057276-5.9742727-1.4046011-1.4036698-3.2141409-2.1055069-5.4332627-2.1055069-2.1520174,0-3.93843.7018371-5.3592202,2.1055069-1.4231029,1.4036698-2.1311852,3.3911615-2.1311852,5.9742727v.4424367c0,2.6127353.7080824,4.6180447,2.1311852,6.0217145,1.413852,1.409456,3.2025773,2.1055069,5.3592202,2.1055069Z"/>
  <path class="st0" d="M284.9663378,72.8258675c-3.0660383,0-5.6160563-.6842489-7.6384905-2.0583035-1.9159959-1.2974566-3.1262221-3.2201567-3.6376168-5.7798979-.0485849-.2418122.1110814-.4836244.3540588-.5426342l3.8042037-.9140297c.2522283-.0590054.4998135.1001975.5599797.3538117.2638096,1.1206699.6710611,2.0289133,1.2194771,2.7189485.6201635.784442,1.3976629,1.3386443,2.323265,1.6630658.9325403.3244215,1.9344977.4896446,3.0081848.4896446,1.5989759,0,2.8323294-.312624,3.6977654-.9318474.8677487-.6194573,1.2981628-1.4214875,1.2981628-2.4005427,0-.9790508-.4072692-1.6984717-1.2194771-2.1527104-.8145383-.4600205-2.0247469-.8314159-3.6214101-1.1264517l-1.6637676-.2948019c-1.6336845-.2950358-3.1146408-.7196548-4.4521199-1.2738571-1.3398095-.5544318-2.401933-1.32129-3.1863706-2.3003452-.7844553-.9788169-1.173205-2.2350857-1.173205-3.7685727,0-2.2825275.8492292-4.0575928,2.5477053-5.3138616s3.9453682-1.8872942,6.75224-1.8872942c2.7073893,0,4.9380747.6134372,6.6828229,1.8340706,1.6151827,1.1324719,2.7143275,2.6423549,3.2789326,4.5178472.0763729.2475984-.0763552.5072283-.3239581.5780357l-3.7810588,1.0614306c-.2522283.0708118-.5067693-.0883911-.5761864-.3420053-.3262708-1.2208674-.909413-2.0994912-1.7517041-2.6363392-.9510421-.6016396-2.1242471-.9082434-3.5288481-.9082434-1.3675622,0-2.4458924.2536142-3.23033.7608425-.7844553.5072283-1.1755177,1.2148473-1.1755177,2.1291064,0,.9790552.3841243,1.6984761,1.1500601,2.1527148.7682485.4600205,1.8049144.8020302,3.1100153,1.0262542l1.7146652.2948063c1.7285592.2948019,3.3159538.7018327,4.7483253,1.2266492,1.4323714.525046,2.5708502,1.2740866,3.4038904,2.2531374.8307274.9790508,1.2495602,2.2822936,1.2495602,3.9159781,0,2.4181221-.895519,4.2936187-2.695808,5.6264812-1.7979762,1.3624821-4.2160983,2.0289133-7.2474457,2.0289133Z"/>
  <path class="st0" d="M308.557531,72.8258675c-3.0683686,0-5.6160739-.6842489-7.6384905-2.0583035-1.9159959-1.2974566-3.1262044-3.2201567-3.6376168-5.7798979-.0485849-.2418122.1110814-.4836244.3540412-.5426342l3.8019086-.9140297c.254541-.0590054.5021262.1001975.5622924.3538117.2637919,1.1206699.6710787,2.0289133,1.2194948,2.7189485.6201282.784442,1.3976276,1.3386443,2.3232474,1.6630658.9325403.3244215,1.9344977.4896446,3.0082025.4896446,1.5989583,0,2.8323294-.312624,3.6977477-.9318474.8677487-.6194573,1.2981628-1.4214875,1.2981628-2.4005427,0-.9790508-.4072868-1.6984717-1.2217899-2.1527104-.812208-.4600205-2.0224518-.8314159-3.619115-1.1264517l-1.6637499-.2948019c-1.6336668-.2950358-3.1146231-.7196548-4.4544503-1.2738571-1.3374614-.5544318-2.3996203-1.32129-3.1840402-2.3003452-.7844553-.9788169-1.173205-2.2350857-1.173205-3.7685727,0-2.2825275.8492469-4.0575928,2.5477053-5.3138616,1.6984937-1.2562689,3.9453682-1.8872942,6.75224-1.8872942,2.7073716,0,4.9380747.6134372,6.6828229,1.8340706,1.615165,1.1324719,2.7119971,2.6423549,3.2789502,4.5178472.0763376.2475984-.0763729.5072283-.3239581.5780357l-3.7810764,1.0614306c-.252246.0708118-.506787-.0883911-.5784991-.3420053-.3239581-1.2208674-.9070827-2.0994912-1.7517041-2.6363392-.948747-.6016396-2.1219167-.9082434-3.5265354-.9082434-1.3675798,0-2.4458748.2536142-3.23033.7608425s-1.1755,1.2148473-1.1755,2.1291064c0,.9790552.3841243,1.6984761,1.1500424,2.1527148.7682485.4600205,1.8049144.8020302,3.1099977,1.0262542l1.7147005.2948063c1.7285415.2948019,3.3159538.7018327,4.74829,1.2266492,1.4323714.525046,2.5708679,1.2740866,3.403908,2.2531374.8307098.9790508,1.2495426,2.2822936,1.2495426,3.9159781,0,2.4181221-.8955014,4.2936187-2.6957903,5.6264812-1.7979939,1.3624821-4.2114905,2.0289133-7.2474457,2.0289133Z"/>
  <path class="st0" d="M333.4746574,72.8258675c-2.3163268,0-4.4104908-.4896446-6.2917781-1.4686953-1.8766266-.9788213-3.3622083-2.4003088-4.4544149-4.2579834-1.0899115-1.8579085-1.6383276-4.0932282-1.6383276-6.7059634v-.6368116c0-2.6127353.548416-4.836253,1.6383276-6.6823595,1.0922066-1.8400908,2.5777884-3.2613488,4.4544149-4.2582173,1.8743668-.996639,3.9754513-1.4920654,6.2917781-1.4920654,2.3186219,0,4.2947839.424619,5.9214949,1.2738571,1.6337021.8494676,2.9434108,1.9759193,3.9407428,3.3795891.9024572,1.2796433,1.5202903,2.6775269,1.8465788,4.1931962.0509153.2478279-.1133765.4954264-.3679175.5486455l-3.9731562.8374361c-.2545057.0529897-.5021262-.1180108-.5553366-.371625-.1828289-.8904257-.5021262-1.7162938-.9441216-2.4653343-.5252888-.8786238-1.2564984-1.5804609-2.1982896-2.1055025-.9510421-.5190303-2.1358283-.7842169-3.5751203-.7842169-1.4046187,0-2.6657426.3184058-3.7926577.9552174-1.1269151.6370455-2.015496,1.5513047-2.6657073,2.7425524-.654872,1.1914728-.9788301,2.6363348-.9788301,4.3348064v.4424367c0,1.6984761.3239581,3.1493493.9788301,4.3584148.654872,1.209061,1.5387921,2.1233202,2.6657073,2.742548,1.1269151.6192234,2.388039.9318474,3.7926577.9318474,2.1242471,0,3.7394121-.5484204,4.8478254-1.6397002,1.0019574-.9908527,1.6753312-2.2293039,2.0108706-3.7155831.0601309-.2536142.3007955-.4186033.559962-.3595979l3.96387.9082434c.254541.0587759.4188328.3184058.3471207.57202-.4049564,1.4862835-1.0598285,2.8663494-1.9622857,4.1344203-.9973319,1.4036698-2.3116661,2.5183196-3.9407428,3.3557557-1.6336668.8198523-3.602873,1.2326694-5.9214949,1.2326694Z"/>
  <path class="st0" d="M349.1404233,71.6758075v-33.3342726c0-.2596343.2059208-.4660406.4650873-.4660406h4.1119904c.2591665,0,.4651226.2064063.4651226.4660406v13.0930532h.5136722c.1643271,0,.3124121-.0883955.400331-.2357965.3124121-.536848.7381654-1.0616601,1.2611238-1.5806904.6016617-.5898376,1.4046187-1.0674463,2.4019506-1.4448619.9950015-.3776407,2.2584557-.5662337,3.7926224-.5662337,1.828077,0,3.4501625.4068013,4.8709527,1.2266492,1.4208255.8138322,2.5361593,1.9638878,3.3553231,3.4501713.814503,1.4862791,1.2264153,3.2733758,1.2264153,5.3610651v14.0249006c0,.2596299-.2059561.4660406-.4651226.4660406h-4.1119551c-.2591665,0-.4651226-.2064107-.4651226-.4660406v-13.6296717c0-2.0879187-.5252888-3.6329737-1.5689105-4.6238265-1.0435864-.9968685-2.4829137-1.4920654-4.3063299-1.4920654-2.0872435,0-3.7625746.6840194-5.019073,2.0582991-1.254168,1.3682683-1.8858775,3.3615463-1.8858775,5.9742771v11.7247893c0,.2596299-.2059561.4660406-.4651226.4660406h-4.1119904c-.2591665-.0060157-.4650873-.2124265-.4650873-.4718269Z"/>
  <path class="st0" d="M388.4482802,72.8258675c-2.4181574,0-4.5585759-.4954308-6.4352377-1.4922993-1.8743315-.996639-3.3552878-2.4239127-4.4289926-4.2815873-1.0783303-1.8579085-1.615165-4.0636085-1.615165-6.6115521v-.7372386c0-2.5477097.5368348-4.7418417,1.615165-6.5819325,1.0806253-1.8458726,2.5546611-3.2731463,4.4289926-4.2818168,1.8766619-1.0084409,4.0240362-1.5156693,6.4352377-1.5156693,2.4134966,0,4.5701218.5072283,6.4652855,1.5156693,1.8928686,1.0144567,3.3784504,2.4417304,4.4521199,4.2818168,1.0783303,1.8461065,1.6152003,4.040009,1.6152003,6.5819325v.7372386c0,2.5479436-.5368701,4.7478618-1.6152003,6.6115521-1.0806253,1.8636947-2.5592513,3.290964-4.4521199,4.2815873-1.8997891.9968685-4.0517889,1.4922993-6.4652855,1.4922993ZM388.4482802,68.325838c2.2167914,0,4.0217058-.7078528,5.4077874-2.1291108,1.3860816-1.4214875,2.082618-3.3853753,2.082618-5.8979131v-.4422028c0-2.5125378-.6849551-4.47643-2.0594554-5.8979175-1.3675798-1.4212536-3.1840755-2.1288769-5.43095-2.1288769-2.1867436,0-3.9754513.7076233-5.3615329,2.1288769-1.3860816,1.4214875-2.0802876,3.3853797-2.0802876,5.8979175v.4422028c0,2.5125378.694206,4.4764256,2.0802876,5.8979131,1.3860816,1.4154718,3.1747893,2.1291108,5.3615329,2.1291108Z"/>
  <path class="st0" d="M414.3858657,72.5840509c-1.828077,0-3.4617438-.4070308-4.8941152-1.2268787-1.439292-.8138322-2.5592866-1.9756898-3.3784504-3.4737709-.814503-1.4980811-1.2217899-3.2967503-1.2217899-5.384669v-14.024905c0-.259396.2059561-.4660362.4651226-.4660362h4.1119904c.2591665,0,.4650873.2066402.4650873.4660362v13.6828953c0,2.0876848.5183329,3.6329737,1.5689105,4.6238265,1.0435864.996639,2.494495,1.4920654,4.3595756,1.4920654,2.0571251,0,3.709329-.6900352,4.9658274-2.081903,1.2564984-1.3858521,1.8859128-3.3851458,1.8859128-5.9978766v-11.7247893c0-.2596299.2059208-.4660406.4674177-.4660406h4.10966c.2591665,0,.4651226.2064107.4651226.4660406v23.2017462c0,.2596299-.2059561.4660406-.4651226.4660406h-4.0171157c-.2591665,0-.4650873-.2064107-.4650873-.4660406v-3.1553651h-.5021615c-.1712123,0-.3239581.100427-.4049211.2478279-.4720784.8846439-1.2518729,1.7220756-2.3255777,2.518324-1.173205.8728376-2.9017465,1.3034723-5.1902853,1.3034723Z"/>
  <path class="st0" d="M435.6653752,71.7584168l-3.9499937-23.2019757c-.0486202-.2830043.1712123-.5426342.4581668-.5426342h4.0888278c.2290834,0,.4234582.1710049.4604972.3952289l2.9179532,19.95799c.0347085.2300102.2313785.3952289.4604619.3952289.2244579,0,.4119123-.1534167.4535413-.371625l4.0587447-20.0112092c.0416644-.2182127.2360392-.3713999.4535413-.3713999h7.4140678c.2244579,0,.411877.1592029.4535413.3713999l4.0101598,20.0054229c.0416291.2182083.2360039.3716294.4535413.3716294.2313785,0,.4257533-.1712388.4604619-.3952333l2.9202836-19.9582195c.0347085-.2300102.2290834-.3949994.4604972-.3949994h4.0864974c.2892496,0,.506787.2594004.4604972.5426342l-3.952324,23.2017462c-.0347085.2242284-.2290834.3892176-.4604619.3892176h-7.6963616c-.2244579,0-.4119123-.1531872-.4535413-.3713999l-4.0101598-19.9582195c-.0416644-.2182083-.2360392-.371625-.4535413-.371625h-.0254576c-.2244579,0-.411877.1534167-.4535413.371625l-4.0101598,19.9582195c-.0416644.2182127-.2360392.3713999-.4535413.3713999h-7.6963616c-.2244579,0-.4142073-.1592029-.4558364-.3832018Z"/>
  <path class="st0" d="M483.7039291,72.8258675c-2.348705,0-4.1513243-.424619-5.4078227-1.2738571-1.1685442-.7904622-2.0640809-1.6632997-2.6842091-2.6245328-.0833287-.1356034-.2290834-.2124265-.3841243-.2124265h-.5299142v2.9607563c0,.2594004-.2059561.4660406-.4651226.4660406h-4.0170803c-.2591665,0-.4651226-.2066402-.4651226-.4660406v-33.3342726c0-.2596343.2059561-.4660406.4651226-.4660406h4.10966c.2614615,0,.4674177.2064063.4674177.4660406v12.9456523h.5299142c.1596663,0,.3007955-.0826093.3887497-.2124265.372543-.5778062.8492116-1.1322379,1.4346665-1.6690859.654872-.6014057,1.5156649-1.1028478,2.5939951-1.4920654,1.0806253-.3892131,2.3996203-.5898376,3.96387-.5898376,2.0224165,0,3.8805766.4896446,5.579035,1.4686953,1.6984937.9790508,3.0498668,2.4003088,4.0634055,4.2582173,1.0088779,1.8576746,1.5156649,4.0811923,1.5156649,6.6585216v.737243c0,2.6127308-.5137075,4.8362486-1.5388274,6.6821256-1.027415,1.8461065-2.3834135,3.2555626-4.0633702,4.2346134-1.682287.973269-3.5334912,1.4626796-5.5559078,1.4626796ZM482.2345541,68.4202493c2.1890387,0,3.9869973-.7018371,5.4077874-2.1055069,1.4231205-1.4036698,2.1312029-3.4089792,2.1312029-6.0217145v-.4422028c0-2.5773294-.7034569-4.5708368-2.1057453-5.9745066-1.4045834-1.4036698-3.2141233-2.1055069-5.4332451-2.1055069-2.1520351,0-3.9384477.7018371-5.3615329,2.1055069-1.4207902,1.4036698-2.1288725,3.3911615-2.1288725,5.9745066v.4422028c0,2.6127353.7080824,4.6180447,2.1288725,6.0217145,1.4230852,1.409456,3.2094978,2.1055069,5.3615329,2.1055069Z"/>
  <path class="st0" d="M508.2808906,72.5840509c-1.8303721,0-3.4640742-.4070308-4.8964103-1.2268787-1.4393273-.8138322-2.5592866-1.9756898-3.3784504-3.4737709-.8145383-1.4980811-1.2217899-3.2967503-1.2217899-5.384669v-14.024905c0-.259396.2059561-.4660362.4651226-.4660362h4.1119551c.2591665,0,.4651226.2066402.4651226.4660362v13.6828953c0,2.0876848.5206633,3.6329737,1.5688752,4.6238265,1.0436217.996639,2.494495,1.4920654,4.3595756,1.4920654,2.0571604,0,3.7093643-.6900352,4.9658627-2.081903,1.2564984-1.3858521,1.8858775-3.3851458,1.8858775-5.9978766v-11.7247893c0-.2596299.2082865-.4660406.467453-.4660406h4.10966c.2591665,0,.4674177.2064107.4674177.4660406v23.2017462c0,.2596299-.2082512.4660406-.4674177.4660406h-4.0171157c-.2591665,0-.4651226-.2064107-.4651226-.4660406v-3.1553651h-.5021262c-.1689172,0-.3239581.100427-.4049564.2478279-.4720431.8846439-1.2518729,1.7220756-2.3255424,2.518324-1.1778304.8728376-2.9064072,1.3034723-5.1879902,1.3034723Z"/>
  <path class="st0" d="M526.9756559,71.6758075v-23.2019801c0-.259396.2059561-.4658067.4651226-.4658067h4.0170803c.2591665,0,.4651226.2064107.4651226.4658067v2.3769388h.478999c.1827936,0,.3471207-.112229.4234582-.2832338.3957055-.8668218.9857859-1.5156649,1.7632854-1.9462996.8677487-.4718269,1.9344977-.7076233,3.2094978-.7076233h2.4227475c.2614969,0,.467453.2064107.467453.4658111v3.6214013c0,.2594004-.2059561.4658067-.467453.4658067h-2.6171224c-1.6336668,0-2.9734939.4482229-4.0170803,1.3446644-1.0436217.8964415-1.5689105,2.2767413-1.5689105,4.1344203v13.7300943c0,.2594004-.2059561.4658111-.4651226.4658111h-4.1119551c-.2522106,0-.4651226-.2064107-.4651226-.4658111Z"/>
  <path class="st0" d="M541.7620919,60.1986166v-.7372386c0-2.5477097.5114124-4.7182378,1.5388274-6.5111207,1.0250846-1.7928874,2.388039-3.178969,4.0864974-4.1580242,1.6984937-.9788169,3.5566185-1.4684614,5.5790703-1.4684614,2.348705,0,4.1536194.4424367,5.4077874,1.3210605,1.1685795.8198523,2.0479095,1.6926899,2.6379546,2.6245372.0809984.135599.2290834.2182083.3887497.2182083h.5252888v-3.0077302c0-.2596343.2059561-.4660406.4651226-.4660406h3.96387c.2591665,0,.4651226.2064063.4651226.4660406v28.6100235c0,1.4686865-.4304141,2.6423505-1.2958677,3.5269856-.8677487.8786238-2.0478742,1.3210605-3.5519577,1.3210605h-15.7883934c-.2591665,0-.4651226-.2064063-.4651226-.4660318v-3.4737753c0-.259396.2059561-.4658111.4651226-.4658111h14.2194829c.9441216,0,1.4207902-.4896357,1.4207902-1.4686865v-7.6847847h-.5298789c-.1596663,0-.293875.0768231-.3841243.2064063-.3471207.5190303-.8075825,1.0558783-1.3860816,1.6042943-.6525769.6192278-1.5087443,1.1264561-2.5708679,1.5156693s-2.388039.5898376-3.9869973.5898376c-2.0224518,0-3.8921579-.4836244-5.6021976-1.4448619-1.7169955-.9614626-3.0776195-2.3473147-4.0865327-4.1580198-1.0088779-1.8164869-1.5156649-3.9809992-1.5156649-6.4935369ZM554.3409874,67.8834013c2.1890387,0,3.9869973-.6900352,5.4078227-2.081903,1.4230852-1.3858521,2.1288725-3.302766,2.1288725-5.7502826v-.4424367c0-2.5123038-.7011618-4.4468059-2.1034502-5.7974861-1.4045834-1.356462-3.2164537-2.0346952-5.4332451-2.0346952-2.1520351,0-3.9384124.6782332-5.3615329,2.0346952-1.4207902,1.3564664-2.1288725,3.2851822-2.1288725,5.7974861v.4424367c0,2.4475166.7080824,4.3644305,2.1288725,5.7502826,1.4231205,1.3918678,3.2094978,2.081903,5.3615329,2.081903Z"/>
  <path class="st0" d="M169.7526988,119.3122031l9.5250918-33.3342726c.0590186-.2006245.2418122-.3362279.4482274-.3362279h8.5990483c.2063975,0,.3892087.1356034.4479802.3362279l9.4779016,33.3342726c.0826049.2948019-.1416235.5898421-.4482274.5898421h-4.4646192c-.2064152,0-.3892087-.1416235-.4482274-.342248l-2.0643104-7.3957602c-.059001-.200395-.2418122-.3420097-.4482274-.3420097h-12.7038356c-.2064152,0-.3892087.1416147-.4482274.3420097l-2.0640809,7.3957602c-.059001.2006245-.2420417.342248-.4484569.342248h-4.5115975c-.3068333.0057818-.5308323-.2890201-.4484392-.5898421ZM179.2541867,106.9327846h9.5484838c.3066038,0,.5308323-.2950314.4482097-.5898332l-4.7358083-17.0858588c-.053228-.2006245-.2418299-.3420097-.4482274-.3420097h-.0768319c-.2063975,0-.3949994.1413852-.4482097.3420097l-4.735826,17.0858588c-.0826226.3008132.1413764.5898332.4482097.5898332Z"/>
  <path class="st0" d="M201.1112773,119.4417864v-23.2017462c0-.2596343.2064152-.4660406.4658111-.4660406h4.0163918c.2596431,0,.4660406.2064063.4660406.4660406v3.1553607h.5012258c.1710004,0,.3244171-.100427.407022-.2478235.4718313-.8846439,1.2502487-1.7162894,2.323724-2.4887043,1.1736463-.8494676,2.9193303-1.274091,5.2372637-1.274091,1.8282888,0,3.4501625.4070397,4.8714293,1.2268831,1.4214787.8138322,2.5361417,1.9638922,3.3559763,3.4501713.8138322,1.4862791,1.2266625,3.2731508,1.2266625,5.3610651v14.024905c0,.259396-.2064152.4660318-.4660406.4660318h-4.1105957c-.2596255,0-.466023-.2066358-.466023-.4660318v-13.6356874c0-2.0879231-.5248298-3.6271919-1.5686633-4.6238265-1.0440807-.9966434-2.4831608-1.4920698-4.3054295-1.4920698-2.0879143,0-3.7627865.6840194-5.0190554,2.0582991-1.2562689,1.3682683-1.8872898,3.3617758-1.8872898,5.9742816v11.7250144c0,.2594048-.2064152.4658111-.4660406.4658111h-4.110578c-.2654161-.011802-.4718313-.2182083-.4718313-.4778426Z"/>
  <path class="st0" d="M237.4831381,119.907827c-1.4693927,0-2.6356418-.4422072-3.4987651-1.3210605-.8654359-.8788533-1.2958324-2.0582991-1.2958324-3.5267649v-14.5617486c0-.259396-.2059561-.4658023-.4674353-.4658023h-5.725743c-.2596431,0-.4660406-.2066447-.4660406-.4660406v-3.3263699c0-.2594048.2063975-.4658111.4660406-.4658111h5.725743c.2614792,0,.4674353-.2064063.4674353-.4660406v-7.0477392c0-.2596255.2059385-.4660318.465105-.4660318h4.1119727c.2591665,0,.4651226.2064063.4651226.4660318v7.0477392c0,.2596343.2059385.4660406.465105.4660406h6.2639901c.2591665,0,.465105.2064063.465105.4658111v3.3263699c0,.259396-.2059385.4660406-.465105.4660406h-6.2639901c-.2591665,0-.465105.2064063-.465105.4658023v13.6828953c0,.9790508.4535413,1.468457,1.3675622,1.468457h4.5770953c.2591665,0,.465105.2064152.465105.4660406v3.3263699c0,.2594048-.2059385.4658111-.465105.4658111h-6.1922603Z"/>
  <path class="st0" d="M251.3185143,119.5186095l-3.9499937-23.2019757c-.0485849-.2829999.1712476-.5426342.4581844-.5426342h4.0888278c.2290834,0,.4234582.1710004.4581668.3952289l2.9202659,19.95799c.0347085.2300102.2313961.3952289.4604795.3952289.2244579,0,.4118946-.1534167.453559-.371625l4.0587447-20.0112092c.0416467-.2182083.2360216-.3713954.4535413-.3713954h7.4140502c.2244579,0,.411877.1591985.4535413.3713954l4.0101598,20.0112092c.0416467.2182083.2360216.371625.4535413.371625.2313961,0,.425771-.1710004.4604795-.3952289l2.9202659-19.95799c.0347085-.2300102.2290834-.3952289.4604795-.3952289h4.0865151c.2892496,0,.5067693.2596343.4604972.5426342l-3.9523064,23.2019757c-.0347085.2239989-.2290834.3892176-.4604972.3892176h-7.6963439c-.2244579,0-.4118946-.1534167-.4535413-.371625l-4.0101598-19.95799c-.0416467-.2182083-.2360216-.3716338-.4558541-.3716338h-.0231449c-.2244579,0-.4118946.1534255-.4535413.3716338l-4.0101598,19.95799c-.0416467.2182083-.2360216.371625-.4535413.371625h-7.6963439c-.2244579,0-.4188328-.1652186-.4558717-.3892176Z"/>
  <path class="st0" d="M296.1707153,120.5918464c-2.4458924,0-4.5817208-.513019-6.4097624-1.5450594-1.8280593-1.0262586-3.2558053-2.4771319-4.2809076-4.3586399-1.027415-1.8754967-1.5411225-4.0575972-1.5411225-6.5347291v-.5896037c0-2.5125378.509082-4.7064402,1.5156825-6.5819369,1.0088955-1.8754878,2.4250602-3.3263699,4.2346001-4.3586399,1.8118702-1.0260291,3.9106597-1.5392688,6.2940732-1.5392688,2.3186396,0,4.3456815.5132397,6.0927602,1.5392688,1.7447482,1.0262586,3.1077026,2.453528,4.0864974,4.2818168.9788301,1.8282888,1.4694104,3.963411,1.4694104,6.4109276v1.4450914c0,.259396-.2082512.4658111-.4674177.4658111h-17.5933254c-.2638096,0-.4882675.2300102-.4651226.4954264.1527281,1.89331.856185,3.4147655,2.0987894,4.5708368,1.3583289,1.2562689,3.0452237,1.8872898,5.0676579,1.8872898,1.8928509,0,3.3205969-.4246146,4.2808899-1.2740822.8376656-.7430292,1.5110394-1.5804653,2.0178264-2.5183196.1226274-.2239989.3956702-.3184146.6247536-.200395l3.32524,1.7220712c.2313785.1180196.3262532.4070397.2012954.6310298-.44196.7904577-1.0250846,1.6160919-1.7632501,2.4713501-.8677487,1.0084365-1.9992893,1.8576746-3.403908,2.5477053-1.4022884.6900396-3.1956215,1.0320493-5.3846602,1.0320493ZM289.6776418,105.3696824h12.2965665c.2777036,0,.5021615-.2418122.467453-.513019-.2059561-1.5864678-.8446214-2.8427367-1.906745-3.7688066-1.173205-1.0260203-2.7050766-1.5392688-4.6002226-1.5392688-1.8928509,0-3.4316607.5132485-4.6233675,1.5392688-1.066749.92607-1.7632677,2.1705369-2.0802876,3.7391914-.0717298.2772181.1573536.5426342.4466032.5426342Z"/>
  <path class="st0" d="M311.5934862,119.4417864v-23.2017462c0-.2596343.2082865-.4660406.467453-.4660406h4.0147853c.2614615,0,.4674177.2064063.4674177.4660406v2.3709231h.4766686c.1828289,0,.3494157-.1119995.4257886-.2832382.3933752-.8668218.9834556-1.5156649,1.7632501-1.9460701.8654536-.4718225,1.9344977-.7078528,3.2072028-.7078528h2.4250779c.2591665,0,.4651226.2064063.4651226.4660406v3.6211718c0,.259396-.2059561.4658111-.4651226.4658111h-2.6194528c-1.6336668,0-2.9711636.4482185-4.0147853,1.3446644-1.0459168.8966666-1.5688752,2.2767369-1.5688752,4.1344114v13.7301031c0,.259396-.2082512.4658023-.4674177.4658023h-4.10966c-.2591665.0060201-.467453-.2003862-.467453-.4600205Z"/>
  <path class="st0" d="M328.4324571,129.2323031v-32.9922629c0-.2596343.2059561-.4660406.4651226-.4660406h4.0170803c.2591665,0,.4674177.2064063.4674177.4660406v3.0077346h.5229937c.1596663,0,.3077514-.0823842.3910448-.2182171.6178331-.9906144,1.5087443-1.8754878,2.681914-2.6657161,1.2564984-.849238,3.0614128-1.2738615,5.4078227-1.2738615,2.0247469,0,3.8759511.4894151,5.5559078,1.4684658,1.682287.9790508,3.0382855,2.3887363,4.0633702,4.2346089,1.027415,1.8461109,1.5411225,4.0696286,1.5411225,6.6821344v.7372386c0,2.6127264-.509082,4.836253-1.5156649,6.6823551-1.0158337,1.8458726-2.3649117,3.2555582-4.0633702,4.2346178-1.6984937.9790508-3.5566185,1.468457-5.5813654,1.468457-1.5688752,0-2.8878701-.1946044-3.9615749-.5898332-1.0736695-.3949994-1.9414182-.8904257-2.5962902-1.4920698-.5831246-.5366141-1.0621235-1.0910503-1.4323714-1.6690815-.0879189-.1298127-.2313785-.2124265-.3887497-.2124265h-.5322093v12.603647c0,.2596255-.2059561.4660318-.4651226.4660318h-4.1119551c-.2591665-.0060113-.4651226-.2124176-.4651226-.4718225ZM340.9118525,116.1862282c2.2191218,0,4.0286616-.7018415,5.4332451-2.1055069,1.4022884-1.4036742,2.1057453-3.4087453,2.1057453-6.0214806v-.4424367c0-2.5773294-.7080824-4.5708368-2.1312029-5.9745111-1.4207902-1.4036654-3.2257046-2.1055069-5.4077874-2.1055069-2.1520351,0-3.9384477.7018415-5.3615329,2.1055069-1.4207902,1.4036742-2.1288725,3.3971817-2.1288725,5.9745111v.4424367c0,2.6127353.7080824,4.6178063,2.1288725,6.0214806,1.4230852,1.4036654,3.2094978,2.1055069,5.3615329,2.1055069Z"/>
  <path class="st0" d="M368.7677289,120.5918464c-2.4482052,0-4.5817031-.513019-6.4120752-1.5450594-1.828077-1.0262586-3.2534926-2.4771319-4.2809076-4.3586399-1.0250846-1.8754967-1.5387921-4.0575972-1.5387921-6.5347291v-.5896037c0-2.5125378.5067517-4.7064402,1.5156649-6.5819369,1.0088779-1.8754878,2.4227475-3.3263699,4.2346178-4.3586399,1.8095399-1.0260291,3.9106244-1.5392688,6.2917428-1.5392688,2.3186219,0,4.3479943.5132397,6.0927425,1.5392688,1.7470786,1.0262586,3.1077026,2.453528,4.0888278,4.2818168.9788301,1.8282888,1.46708,3.963411,1.46708,6.4109276v1.4450914c0,.259396-.2059561.4658111-.4651226.4658111h-17.5933078c-.266087,0-.4905449.2300102-.4650873.4954264.1527105,1.89331.853837,3.4147655,2.0987894,4.5708368,1.3559985,1.2562689,3.0428757,1.8872898,5.0653275,1.8872898,1.8928333,0,3.3205793-.4246146,4.2832027-1.2740822.8376656-.7430292,1.5087443-1.5804653,2.015496-2.5183196.1249578-.2239989.3957055-.3184146.627084-.200395l3.3252047,1.7220712c.2291187.1180196.3239581.4070397.2013307.6310298-.44196.7904577-1.027415,1.6160919-1.7632501,2.4713501-.8677487,1.0084365-1.9992893,1.8576746-3.403908,2.5477053-1.4045834.6900396-3.1956215,1.0320493-5.3846602,1.0320493ZM362.2746554,105.3696824h12.2965665c.2777036,0,.5021615-.2418122.4651226-.513019-.2059561-1.5864678-.842291-2.8427367-1.9044146-3.7688066-1.173205-1.0260203-2.7073716-1.5392688-4.6002402-1.5392688-1.8928333,0-3.4316607.5132485-4.6233675,1.5392688-1.0690441.92607-1.7632501,2.1705369-2.0825827,3.7391914-.0694171.2772181.1596663.5426342.4489159.5426342Z"/>
  <path class="st0" d="M384.1835793,119.4417864v-23.2017462c0-.2596343.2082512-.4660406.4674177-.4660406h4.0147853c.2614969,0,.4674177.2064063.4674177.4660406v3.1553607h.4998311c.1712476,0,.3262885-.100427.4072515-.2478235.4720784-.8846439,1.2518729-1.7162894,2.3232827-2.4887043,1.1755-.8494676,2.9202483-1.274091,5.2388702-1.274091,1.8280417,0,3.4501625.4070397,4.8709527,1.2268831,1.4207902.8138322,2.5361593,1.9638922,3.3552878,3.4501713.8145383,1.4862791,1.2264506,3.2731508,1.2264506,5.3610651v14.024905c0,.259396-.2059561.4660318-.4651226.4660318h-4.10966c-.2614969,0-.4674177-.2066358-.4674177-.4660318v-13.6356874c0-2.0879231-.5252888-3.6271919-1.5689105-4.6238265-1.0436217-.9966434-2.4829137-1.4920698-4.3040348-1.4920698-2.0895385,0-3.7625393.6840194-5.0190377,2.0582991-1.2564984,1.3682683-1.8882431,3.3617758-1.8882431,5.9742816v11.7250144c0,.2594048-.2059208.4658111-.4650873.4658111h-4.1119904c-.2591665-.011802-.4720431-.2182083-.4720431-.4778426Z"/>
  <path class="st1" d="M79.8645765,98.8409735c4.341983,0,7.8618009-3.5198267,7.8618009-7.8618097s-3.5198179-7.8618009-7.8618009-7.8618009-7.8618053,3.5198179-7.8618053,7.8618009,3.5198223,7.8618097,7.8618053,7.8618097Z"/>
  <path class="st1" d="M66.5121185,118.9935678c1.7359608,0,3.1435631-1.4073728,3.1435631-3.143338,0-1.7361859-1.4076023-3.1435587-3.1435631-3.1435587-1.7361903,0-3.1435631,1.4073728-3.1435631,3.1435587,0,1.7359652,1.4073728,3.143338,3.1435631,3.143338Z"/>
  <path class="st1" d="M40.5793923,135.8850429c1.7359608,0,3.1433336-1.4073728,3.1433336-3.1435587,0-1.7361947-1.4073728-3.1435675-3.1433336-3.1435675-1.7361903,0-3.1435631,1.4073728-3.1435631,3.1435675,0,1.7361859,1.4073728,3.1435587,3.1435631,3.1435587Z"/>
  <path class="st1" d="M95.1517617,104.6090694c1.7359564,0,3.1435587-1.4073728,3.1435587-3.1435675,0-1.7361859-1.4076023-3.1435587-3.1435587-3.1435587-1.7361947,0-3.1435675,1.4073728-3.1435675,3.1435587,0,1.7361947,1.4073728,3.1435675,3.1435675,3.1435675Z"/>
  <path class="st1" d="M91.2355497,35.2273575c1.7361947,0,3.1435675-1.4073728,3.1435675-3.1435653,0-1.7359608-1.4073728-3.1433336-3.1435675-3.1433336-1.7361859,0-3.1435587,1.4073728-3.1435587,3.1433336,0,1.7361925,1.4073728,3.1435653,3.1435587,3.1435653Z"/>
  <path class="st1" d="M114.6439405,32.3492083c1.7359564,0,3.1433292-1.4073728,3.1433292-3.1433336,0-1.7361903-1.4073728-3.1435631-3.1433292-3.1435631-1.7361947,0-3.1435675,1.4073728-3.1435675,3.1435631,0,1.7359608,1.4073728,3.1433336,3.1435675,3.1433336Z"/>
  <path class="st1" d="M32.180973,109.0676772c1.7359608,0,3.1433336-1.4073728,3.1433336-3.1435675,0-1.7361859-1.4073728-3.1435587-3.1433336-3.1435587-1.7361903,0-3.1435631,1.4073728-3.1435631,3.1435587,0,1.7361947,1.4073728,3.1435675,3.1435631,3.1435675Z"/>
  <path class="st1" d="M10.7128715,114.8771992c1.7361219,0,3.1435179-1.4076023,3.1435179-3.1435675,0-1.7361859-1.407396-3.1435587-3.1435179-3.1435587s-3.1435184,1.4073728-3.1435184,3.1435587c0,1.7359652,1.407396,3.1435675,3.1435184,3.1435675Z"/>
  <path class="st1" d="M80.2773891,136.0678541c2.6057883,0,4.7182422-2.1124539,4.7182422-4.7182422,0-2.6060178-2.1124539-4.7182422-4.7182422-4.7182422s-4.7182422,2.1122244-4.7182422,4.7182422c0,2.6057883,2.1124539,4.7182422,4.7182422,4.7182422Z"/>
  <path class="st1" d="M97.8350704,90.4661536c2.6057883,0,4.7182422-2.1124451,4.7182422-4.7182422,0-2.6057883-2.1124539-4.7182334-4.7182422-4.7182334s-4.7182422,2.1124451-4.7182422,4.7182334c0,2.6057971,2.1124539,4.7182422,4.7182422,4.7182422Z"/>
  <path class="st1" d="M45.0086145,120.9812847c2.6057883,0,4.7182378-2.1124451,4.7182378-4.7182334,0-2.6057971-2.1124495-4.7182422-4.7182378-4.7182422-2.6057927,0-4.7182422,2.1124451-4.7182422,4.7182422,0,2.6057883,2.1124495,4.7182334,4.7182422,4.7182334Z"/>
  <path class="st1" d="M83.7807796,119.5186095c3.4753906,0,6.2929168-2.8172879,6.2929168-6.292908,0-3.4753906-2.8175262-6.2929168-6.2929168-6.2929168-3.4756201,0-6.292908,2.8175262-6.292908,6.2929168,0,3.4756201,2.8172879,6.292908,6.292908,6.292908Z"/>
  <path class="st1" d="M90.9937375,75.9340291c3.4753906,0,6.2929168-2.8175262,6.2929168-6.2931464,0-3.4753951-2.8175262-6.2929168-6.2929168-6.2929168-3.4756201,0-6.2931464,2.8175218-6.2931464,6.2929168,0,3.4756201,2.8175262,6.2931464,6.2931464,6.2931464Z"/>
  <path class="st1" d="M103.7033638,123.8770198c3.4753906,0,6.2929168-2.8175174,6.2929168-6.292908,0-3.4756201-2.8175262-6.2929168-6.2929168-6.2929168s-6.2929168,2.8172967-6.2929168,6.2929168c0,3.4753906,2.8175262,6.292908,6.2929168,6.292908Z"/>
  <path class="st1" d="M57.5826374,138.8397879c4.341983,0,7.8618053-3.5198179,7.8618053-7.8618009s-3.5198223-7.8618009-7.8618053-7.8618009c-4.341749,0-7.8615714,3.5198179-7.8615714,7.8618009s3.5198223,7.8618009,7.8615714,7.8618009Z"/>
  <path class="st1" d="M25.5342511,129.0022928c4.341983,0,7.8618009-3.5198179,7.8618009-7.8618009s-3.5198179-7.8618009-7.8618009-7.8618009c-4.3419609,0-7.861781,3.5198179-7.861781,7.8618009s3.5198201,7.8618009,7.861781,7.8618009Z"/>
  <path class="st1" d="M115.0447217,106.8501709c5.2115853,0,9.4364755-4.2248902,9.4364755-9.4364755,0-5.2115765-4.2248902-9.4364755-9.4364755-9.4364755-5.2115765,0-9.4364755,4.224899-9.4364755,9.4364755,0,5.2115853,4.224899,9.4364755,9.4364755,9.4364755Z"/>
  <path class="st1" d="M62.2948594,83.9254133c7.8176075,0,14.1547133-6.3371146,14.1547133-14.1544882,0-7.8176031-6.3371058-14.1547133-14.1547133-14.1547133-7.8173736,0-14.1544838,6.3371102-14.1544838,14.1547133,0,7.8173736,6.3371102,14.1544882,14.1544838,14.1544882Z"/>
  <path class="st1" d="M44.7256101,56.4240282c4.3417534,0,7.8615714-3.5198223,7.8615714-7.8618053,0-4.341749-3.5198179-7.8615714-7.8615714-7.8615714-4.341983,0-7.8618031,3.5198223-7.8618031,7.8615714,0,4.341983,3.5198201,7.8618053,7.8618031,7.8618053Z"/>
  <path class="st1" d="M58.072048,26.8349539c1.7361903,0,3.1435631-1.4073728,3.1435631-3.1435631,0-1.7361219-1.4073728-3.143519-3.1435631-3.143519-1.7359608,0-3.1433336,1.4073971-3.1433336,3.143519,0,1.7361903,1.4073728,3.1435631,3.1433336,3.1435631Z"/>
  <path class="st1" d="M84.0105604,9.9436134c1.7361947,0,3.1435675-1.407396,3.1435675-3.1435184s-1.4073728-3.1435179-3.1435675-3.1435179-3.1435675,1.407396-3.1435675,3.1435179,1.4073728,3.1435184,3.1435675,3.1435184Z"/>
  <path class="st1" d="M29.438425,41.2196818c1.7361925,0,3.1435631-1.4076023,3.1435631-3.1435631,0-1.7361925-1.4073706-3.1435653-3.1435631-3.1435653s-3.1435653,1.4073728-3.1435653,3.1435653c0,1.7359608,1.4073728,3.1435631,3.1435653,3.1435631Z"/>
  <path class="st1" d="M44.3125636,12.9102718c2.6057927,0,4.7182378-2.1124241,4.7182378-4.7182151,0-2.6058147-2.1124451-4.7182389-4.7182378-4.7182389s-4.7182378,2.1124241-4.7182378,4.7182389c0,2.605791,2.1124451,4.7182151,4.7182378,4.7182151Z"/>
  <path class="st1" d="M26.7548824,58.5119469c2.6057927,0,4.71824-2.1124495,4.71824-4.7182378,0-2.6057927-2.1124473-4.7182422-4.71824-4.7182422-2.6057905,0-4.7182378,2.1124495-4.7182378,4.7182422,0,2.6057883,2.1124473,4.7182378,4.7182378,4.7182378Z"/>
  <path class="st1" d="M79.5813383,27.9968115c2.6057971,0,4.7182422-2.1124473,4.7182422-4.7182378,0-2.6058854-2.1124451-4.7183084-4.7182422-4.7183084-2.6057883,0-4.7182334,2.112423-4.7182334,4.7183084,0,2.6057905,2.1124451,4.7182378,4.7182334,4.7182378Z"/>
  <path class="st1" d="M40.8094026,32.6088382c3.4753906,0,6.2929124-2.8175218,6.2929124-6.2929124,0-3.4755782-2.8175218-6.2930294-6.2929124-6.2930294s-6.2929124,2.8174512-6.2929124,6.2930294c0,3.4753906,2.8175218,6.2929124,6.2929124,6.2929124Z"/>
  <path class="st1" d="M33.596213,76.1934251c3.4756224,0,6.2929146-2.8172923,6.2929146-6.2929124,0-3.4753951-2.8172923-6.2929168-6.2929146-6.2929168-3.4753906,0-6.2929124,2.8175218-6.2929124,6.2929168,0,3.4756201,2.8175218,6.2929124,6.2929124,6.2929124Z"/>
  <path class="st1" d="M20.880827,28.2444099c3.4755981,0,6.2928904-2.8172901,6.2928904-6.2928683,0-3.4755065-2.8172923-6.2929356-6.2928904-6.2929356-3.4754844,0-6.2929378,2.8174291-6.2929378,6.2929356,0,3.4755782,2.8174534,6.2928683,6.2929378,6.2928683Z"/>
  <path class="st1" d="M67.0073154,16.425302c4.341983,0,7.8618009-3.5198201,7.8618009-7.8617567,0-4.3419132-3.5198179-7.8617472-7.8618009-7.8617472s-7.8618053,3.5198341-7.8618053,7.8617472c0,4.3419366,3.5198223,7.8617567,7.8618053,7.8617567Z"/>
  <path class="st1" d="M99.0559334,26.2627022c4.3417534,0,7.8615714-3.5197738,7.8615714-7.8617093,0-4.3419145-3.5198179-7.8617336-7.8615714-7.8617336-4.341983,0-7.8618009,3.519819-7.8618009,7.8617336,0,4.3419355,3.5198179,7.8617093,7.8618009,7.8617093Z"/>
  <path class="st1" d="M9.5452056,51.5644052c5.2116063,0,9.4364546-4.224899,9.4364546-9.4364799s-4.2248483-9.4364777-9.4364546-9.4364777S.1087511,36.9163421.1087511,42.1279253s4.2248485,9.4364799,9.4364546,9.4364799Z"/>
  <path class="st1" d="M235.3889741,11.1232192v2.0583465c0,.241789-.1943749.4364188-.4350395.4364188h-4.3359716c-.1770206,0-.318397.1415474-.318397.3184753v10.0851365c0,.6960509.3244171,1.0380606.9730395,1.0380606h3.1306004c.2429774,0,.4373523.1946066.4373523.4364188v2.1409106c0,.2418122-.1943749.4364188-.4373523.4364188h-4.2746403c-1.0380606,0-1.8637035-.3126218-2.4771407-.9376314-.6134372-.6252413-.920041-1.4568912-.920041-2.4947201v-10.7104937c0-.176929-.1416235-.3184753-.3186441-.3184753h-2.7541205c-.2418122,0-.4364166-.1946308-.4364166-.4364431v-2.1408863c0-.2418133.1946044-.4364431.4364166-.4364431h2.7541205c.1770206,0,.3186441-.1415242.3186441-.3184753v-4.6356522c0-.2418128.1946044-.4364431.4364166-.4364431h2.695349c.2418122,0,.4364166.1946303.4364166.4364431v4.6356522c0,.1769511.1413764.3184753.318397.3184753h4.2573037c.2776683.005901.5137075.2359123.5137075.524907ZM224.8380739,25.5374973v2.1055047c0,.2418122-.1946044.4364188-.4364166.4364188h-2.3119132c-.8080592,0-1.4684747-.2064085-1.975703-.6252413-.0060025-.005784-.0117931-.011802-.0236039-.017586-.466023-.3894449-.7136258-.9142592-.7372298-1.639698,0-.0765936-.0647916-.1416169-.1416235-.1416169h-.294793c-.0529985,0-.1002063.0296197-.1238103.0708096-.1827936.3304373-.4482097.7078506-.7904577,1.1382537-.3713954.4600227-.9140208.8610378-1.6276643,1.1972613-.4896446.2300125-1.0910414.3774134-1.7988943.4482207-.3244348.0354059-.6722263.0532236-1.0438512.0532236-1.2268743,0-2.3179334-.2064085-3.2733714-.6252435-.9612463-.4188328-1.72208-1.0262564-2.2883093-1.8343046-.566247-.8078164-.8492469-1.7928829-.8492469-2.9429408,0-1.179512.2829999-2.1526397.8492469-2.9311388.5662293-.7726202,1.3388738-1.3565105,2.3237064-1.7516489.9790596-.3951616,2.0997251-.5897913,3.3441832-.5897913h4.8774495c.1767911,0,.318397-.1415474.318397-.3184753v-.7902989c0-1.2975272-.6134372-2.5950312-1.9402706-2.960689-.8198523-.2241115-1.6927031-.2771938-2.5301392-.1474484-.4188328.0648843-.8376656.1828289-1.2208542.35978-.7078528.3302773-1.3564752.9141444-1.9995188,1.3623883-.200395.1356464-.4718313.0884651-.6074347-.1120668l-1.3564576-1.9580806c-.1356034-.2005076-.0883955-.4718236.1119995-.60747,1.4686865-1.0144103,2.8841627-1.9344546,4.6828275-2.2057706,2.2589324-.3420549,4.7182422.1415474,6.4581355,1.6926645,1.268062,1.1323781,1.9051031,2.7365786,1.9051031,4.8185048v7.0359847c0,.4246168.1238103.7196526.3714131.8846395.1534167.100427.3540412.1534189.6016264.1534189h1.0970616c.2300191.0060157.4304141.2006223.4304141.4424367ZM218.8283953,20.9843148c0-.1769279-.1416235-.3184742-.3186441-.3184742h-4.6710343c-.9494355,0-1.7102692.2005296-2.2883093.60747-.5780401.4069624-.8670602.9967295-.8670602,1.7870283,0,.7844685.3008308,1.4094803.9024749,1.869503.6016264.4600205,1.4212492.6960487,2.4593098.6960487.5898332,0,1.1324586-.0708074,1.6278938-.2124243.7076233-.2003928,1.3210605-.5366163,1.8340795-1.0202407.8198347-.7666265,1.2562689-1.7988082,1.3094792-3.1022143.0057906-.088464.0057906-.1828289.0057906-.2771938v-.0295027h.0060201ZM186.9683615,14.2549583c0,5.03079-3.8983899,9.1120088-8.7110477,9.1120088-2.1642696,0-4.1402021-.8256341-5.6676601-2.1939223h-.2772269l-.6134372,1.3918921c-.0823754.1887299-.2711891.3066744-.4776043.3066744h-1.462684c-.2418122,0-.4364166-.1946088-.4364166-.436421V.4364359C169.3222848.1946256,169.5168891,0,169.7587013,0h2.6599519C172.6604655,0,172.8550698.1946256,172.8550698.4364359l.0117931,6.2457608c0,.165127.1888314.253591.3244348.1533256,1.4272693-1.0674927,3.1729356-1.6985428,5.0602431-1.6985428,4.8126402.005901,8.7168207,4.0812651,8.7168207,9.1179787ZM183.3589917,14.2549583c0-3.2143031-2.4535368-5.821112-5.4730734-5.821112-2.6659544,0-4.883452,2.0229186-5.372867,4.7064137-.0650211.3597811-.1004182.7313387-.1004182,1.1146983,0,.3833375.0353971.7548952.1004182,1.1146751.4894151,2.6834963,2.7069126,4.706438,5.372867,4.706438,3.0195366-.005901,5.4730734-2.6068332,5.4730734-5.8211132ZM203.4528146,20.3414633c.1356034.2005318.0883955.4718247-.1119995.60747-1.0558739.7313398-2.1173089,1.492136-3.3499738,1.8990984-1.3328713.4423418-2.7837445.5189354-4.1698261.3597325-1.2208542-.1415242-2.3177039-.4836023-3.2909552-1.026188-1.3034767-.7313376-2.323724-1.7693496-3.0549513-3.1081374-.7314568-1.3329077-1.0970616-2.8840016-1.1030817-4.6474525h-.0117931v-.4187412c0-1.7811295.3598318-3.3440486,1.0794778-4.6769331.7194165-1.3329088,1.72208-2.3650204,3.0077258-3.0963591,1.2858929-.7313155,2.7779539-1.0969733,4.4646368-1.0969733,1.6454776,0,3.0905602.3656578,4.3290158,1.0969733,1.4154762.8316041,2.6599343,2.1939924,3.2851822,3.7215078.2769798.6900572.4010195,1.4685552.495188,2.1939929.2066447,1.6041774-1.0438336,3.0314511-2.6657073,3.0314511h-9.9731073c-.1888137,0-.3362102.1533483-.318397.3361771.1119995,1.3505875.607417,2.441683,1.4978516,3.2673634.9672488.8964657,2.1705192,1.3447086,3.61539,1.3447086,1.6514978,0,3.0019352-.9731498,4.3054119-1.8695924.2006245-.1356696.4718313-.0884871.6074347.1120436l1.3624777,1.9698583ZM192.506456,12.1435294h8.734634c.1473965,0,.253623-.1297454.2300191-.2771938-.1770206-1.0262112-.6134372-1.8459907-1.3210605-2.4652626-.8316631-.731315-1.9227045-1.0969959-3.2673689-1.0969959s-2.441726.3656809-3.2851822,1.0969959c-.6900396.5956691-1.155833,1.3741903-1.4036654,2.3414181-.0529985.2064317.1062088.4010383.312624.4010383ZM205.458124,15.4816781c-.8022685.5367079-1.0204768,1.6278034-.4836244,2.4299042.5366052.8020997,1.6276643,1.0203102,2.4296857.4836255.8022685-.536709,1.0204768-1.6278045.4836244-2.4299053-.5366052-.8020997-1.6276643-1.0203102-2.4296857-.4836244Z"/>
</svg>