<?xml version="1.0" encoding="UTF-8"?>
<svg id="Layer_1" xmlns="http://www.w3.org/2000/svg" version="1.1" viewBox="0 0 569.7637795 336.5480797">
  <!-- Generator: Adobe Illustrator 29.0.1, SVG Export Plug-In . SVG Version: 2.1.0 Build 192)  -->
  <path d="M239.3188828,33.5070401c21.3438641-9.6606095,48.6868368-11.8185175,69.5630638.2014368,17.993299,10.3600441,28.518831,33.6484358,26.3867604,54.1540901-.4646266,4.4686472-4.0424135,9.101697-4.1600661,10.3062558-.1002325,1.0262076,1.5220091,4.308637,1.8479582,5.9709229.2181852,1.1127078-.1094929,4.5640878.0626022,4.7389532.5539691.5628867,13.1657141-.2428107,15.7950309.0792109,2.7522806.3370814,7.4307229,2.8080102,8.9433867,2.8086768,1.3827498.0006094,7.8275132-2.8844872,10.5608231-3.406221,9.004308-1.718741,17.588788-1.051891,26.1786716,2.168731,2.6362791.9884253,10.6033718,6.4900378,11.2528785,6.4897092.5658816-.0002863,7.6326216-4.9141156,9.7049556-5.822599,11.3516886-4.9764282,24.1146339-5.003834,35.6880738-.4604927,3.1715957,1.2450613,11.3482485,7.6532179,12.0604046,7.6152004,1.3414698-.0716127,8.5547611-4.4970434,10.8720817-5.3866729,36.6704046-14.0779287,81.3589343-3.4357882,84.8674702,41.3321351.3196766,4.0789828-.8659978,13.11541-.0160545,16.0995146.2026022.7113251,7.7318322,3.54734,8.8218133,11.2736067.7624487,5.4045728.8010208,23.322572.0837678,28.7434632-.6277299,4.7442889-4.2644546,8.7241034-8.3771551,10.8198015L20.8821175,335.3567099c-13.0365146,2.2816508-21.5611996-6.7111025-19.0151045-19.7534859C38.8329794,220.3478629,71.6440765,123.4012907,108.7534259,28.2130642c3.8309531-9.8266781,6.2850932-24.9136448,18.6413512-26.3976624,14.788054-1.7760824,53.9165388-1.1133185,68.3187384,1.8226761,17.2230134,3.5110383,35.5258538,13.7442475,43.6053674,29.8689621ZM185.7233356,17.3199802c-17.5258613-1.7812576-37.9162685,1.3290527-55.7450086,0v191.2312216h32.4871573v-35.4405353l8.7575197.1006207c6.0571928,24.3710746,17.0957191,38.8759843,44.0624293,37.5837062,2.117645-.1014802,18.0611215-2.3080208,18.0611215-4.0896528v-10.705995c4.1631674,2.3431861,6.9301589,5.8816254,11.3209676,8.2451613,18.9138509,10.1811689,51.1597982,8.0802686,65.4488072-9.3707296,2.5536386-3.1187287,3.915572-7.1066296,6.663152-9.9495989v23.6270235h31.0104684v-43.9314968c0-1.1141294,1.2365726-6.5237459,1.6849525-7.9135259,4.3000158-13.3281556,23.41876-10.6589484,23.41876,3.4834589v48.3615638h31.0104684v-43.1931524c0-4.6116715,2.7379245-13.3933361,7.1153995-15.7737776,8.9023094-4.8410161,17.988313,1.6201153,17.988313,11.3437107v47.6232193h31.0104684c.1887655,0-.4420314-3.7190758.3774472-3.699927,1.0778589.0251863,5.0147274,3.2976993,7.0229955,4.0521013,21.2101906,7.9675669,40.2866763-7.0325222,46.1335796-26.9284718-5.1752125,28.5314184,16.4019645,30.9822855,38.437806,25.1475485l.3154951-22.1954424c-2.2629194.7147659-5.3292054,1.1792836-7.3386861-.4143077-3.9120835-3.1024245-1.7039732-27.1518042-2.2302022-33.2070511-2.7852244-32.0492031-46.4258916-33.2920103-68.4449892-21.1432367-6.2973829,3.4745056-10.0626993,7.9727462-15.7405536,11.9353542-7.3551152-25.7036822-39.237408-25.290494-50.3522728-1.9786978-.9335308,1.9579437-3.3139476,11.5794597-3.9256329,11.5880259-.6802965.0095271-2.2426106-11.2704906-2.9736214-13.2783729-7.7949195-21.4104639-40.1322555-20.0151893-48.1228024.5674367l-5.3869243,14.917549v-28.7954349h-31.0104684v23.6270235c-2.9280747-4.2364998-5.1126136-9.2368469-8.8321822-12.9489801-3.9819525-3.9739926-10.254752-7.3011041-15.5311032-9.2113823,3.0487622-2.4281806,7.0730909-3.2584444,10.5560398-5.3062562,2.8800749-1.69335,15.2816441-12.2796127,13.4938608-15.3673156l-27.383638-12.5341697c-2.9432615,11.3526672-19.7284789,14.8601715-27.4137745,6.3738449-1.8405455-2.0323838-5.3181625-13.0266777-2.8492447-13.0266777h60.91342c.6593555-16.2586838-4.4743929-31.3641516-19.1858705-39.512516-17.1519006-9.5000612-44.8928954-8.058947-59.8221141,5.1743762-2.6889704,2.3835149-4.5673581,6.226148-6.5712583,8.0226983-.4940695.4429466-1.2883558.8215206-1.5403556.4752065-.2877251-.39541-1.2277404-7.729557-1.846919-9.6043113-6.4901381-19.6508952-24.7194284-31.894229-45.0430065-33.9598352Z"/>
  <path d="M162.4654843,99.2762181v-54.6374919h15.1360619c31.2484506,0,29.2680274,54.6374919,0,54.6374919h-15.1360619Z"/>
  <path d="M162.4654843,167.2039107v-39.8706022h23.2578513c17.7479785,0,21.5807373,31.1917019,3.3000955,38.0022863-.9516674.3545505-6.4270962,1.8683159-6.9918179,1.8683159h-19.5661288Z"/>
  <path d="M270.8600443,146.6968622c21.2347879-1.1349781,19.9341645,33.8105324,7.9346391,38.2678375-10.9251473,4.0582201-20.6541607-1.0488529-21.8514798-12.9310978-1.1032075-10.9482773.2805079-24.6078914,13.9168406-25.3367397Z"/>
  <path d="M460.0183117,149.483643l21.7928842,12.5054844c5.2752777-9.054943,12.0785207-16.0462026,23.5308576-14.6303769,9.1867627,1.1357381,12.3418793,10.2983907,3.1773807,14.8163025-12.3836908,6.1049082-28.5936112,5.0988933-41.7956459,12.8418484-1.1143464.6535609-6.7054765,6.176125-6.7054765,3.6313488v-29.1646071Z"/>
  <path d="M225.2215985,158.3491106c-1.0825956,4.2130134-.8248772,8.6417628-.7715779,12.9520873.0314629,2.5444152,1.9836027,6.3019185-.4794692,7.5731711-7.2259277,3.7294807-25.2410008,2.7725854-32.9114045-.0243485-1.2523768-.4566663-9.1593534-4.5357619-9.395316-5.0130762-.7673612-1.5522483,12.5299339-2.1233671,14.1762824-2.423012,5.9269698-1.0787426,13.1961658-3.086276,18.5412353-5.8241327,3.9257199-2.0108361,6.9301805-5.2976413,10.84025-7.2406891Z"/>
  <path d="M258.8194396,82.2942949c-2.4379625-.6701369,1.5988081-11.6333915,3.3113627-13.6705607,5.1818581-6.1640787,19.2894457-6.5443176,23.9700653.41768,1.3991241,2.0810704,4.5458211,13.2528807,1.5140069,13.2528807h-28.7954349Z"/>
  <path d="M513.9174591,162.7738437v11.4443395c0,.2919224-1.533685,4.8397002-1.8437701,5.5396747-6.0213466,13.592362-30.1351609,11.4971767-24.664273-2.5177235,3.2555293-8.3397648,20.9608369-7.2906816,26.5080432-14.4662907Z"/>
  <path d="M253.2797251,125.8465503l-10.7255465,5.1568017-9.2032691,7.4008234c1.07334-11.7400181-3.0868195-22.1986839-11.7606396-30.0049784l5.8600897-9.8590317c3.4848763,5.8982205,5.3471197,12.2966272,10.3051355,17.3699304,4.5722508,4.6785682,10.2667629,6.4407306,15.52423,9.9364546Z"/>
</svg>