<?xml version="1.0" encoding="UTF-8"?>
<svg id="Layer_1" xmlns="http://www.w3.org/2000/svg" version="1.1" viewBox="0 0 574.4302362 418.519685">
  <!-- Generator: Adobe Illustrator 29.8.1, SVG Export Plug-In . SVG Version: 2.1.1 Build 2)  -->
  <defs>
    <style>
      .st0 {
        fill: #fff;
      }
    </style>
  </defs>
  <rect class="st0" width="574.4302362" height="418.519685"/>
  <g id="Layer_11" data-name="Layer_1">
    <g id="Layer_1-2">
      <g>
        <path d="M53.1596849,40.2698485c-.3600006-6.7700005-.7900009-14.9099998-.7200012-20.9500008h-.2200012c-1.6599998,5.6900005-3.670002,11.7399998-6.1199989,18.4300003l-8.5699997,23.5499992h-4.75l-7.8500004-23.1100006c-2.3000002-6.8400002-4.25-13.1100006-5.6199999-18.8700008h-.1400003c-.1400003,6.0500011-.5,14.1900005-.9399996,21.460001l-1.3000002,20.8099976h-5.9799984l3.3799999-48.5299964h7.9899998l8.2799988,23.4699988c2.0200005,5.9799995,3.6700001,11.2999992,4.8999996,16.3499985h.2199993c1.2199993-4.9000015,2.9500008-10.2200012,5.1100006-16.3500004l8.6399994-23.4699993h7.9900017l3.0200005,48.5299988h-6.1199989l-1.2200012-21.3099976h.0200005v-.0099983Z"/>
        <path d="M70.2096841,26.7298476l7.6299973,20.5900002c.7900009,2.2999992,1.6600037,5.0400009,2.2300034,7.1300011h.1399994c.6500015-2.0900002,1.3700027-4.75,2.2300034-7.2700005l6.9100037-20.4500008h6.6999969l-9.5,24.8400002c-4.5400009,11.9500008-7.6299973,18.0699997-11.9499969,21.8199997-3.0999985,2.7399979-6.1899986,3.8199997-7.7799988,4.0999985l-1.5800018-5.3300018c1.5800018-.5,3.6699982-1.5099983,5.5400009-3.0999985,1.7300034-1.3699989,3.8899994-3.8199997,5.3300018-7.0600014.2900009-.6500015.5-1.1500015.5-1.5099983s-.1399994-.8600006-.4300003-1.6599998l-12.8899994-32.1100006h6.9199982l-.0000076.0100021Z"/>
        <path d="M100.6096856,37.5998484c0-4.1000004-.0699997-7.6299992-.2900009-10.8700008h5.5400009l.2200012,6.8400002h.2900009c1.5800018-4.6800003,5.4000015-7.6300011,9.6500015-7.6300011.7200012,0,1.2200012.0699997,1.8000031.2199993v5.9799995c-.6500015-.1399994-1.3000031-.2199993-2.1600037-.2199993-4.4599991,0-7.6299973,3.3800011-8.5,8.1399994-.1399994.8600006-.2900009,1.8699989-.2900009,2.9500008v18.579998h-6.2600021v-23.9799995h0v-.0099964Z"/>
        <path d="M129.4896829,16.9398476c.0699997,2.1599998-1.5100021,3.8900003-4.0299988,3.8900003-2.2300034,0-3.8199997-1.7299995-3.8199997-3.8900003s1.6600037-3.96,3.9599991-3.96,3.8899994,1.73,3.8899994,3.96ZM122.4296853,61.5798498V26.7298476h6.340004v34.8499985s-6.3399963,0-6.340004.0000038Z"/>
        <path d="M156.4596918,61.5798498l-.5-4.3899994h-.2200012c-1.9400024,2.7400017-5.6900024,5.1800003-10.6600037,5.1800003-7.0599976,0-10.6600037-4.9700012-10.6600037-10.0100021,0-8.4199982,7.4900055-13.0299988,20.9499969-12.9599991v-.7199993c0-2.8799992-.7899933-8.0599995-7.9199982-8.0599995-3.2400055,0-6.6199951,1.0100002-9.0699921,2.5900002l-1.4400024-4.1800003c2.8800049-1.8700008,7.0599976-3.1000004,11.4499969-3.1000004,10.6600037,0,13.25,7.2700005,13.25,14.2600002v13.0299988c0,3.0200005.1399994,5.9799995.5800018,8.3499985h-5.7599945v.0100021ZM155.5296838,43.7998472c-6.9100037-.1399994-14.7599945,1.0800018-14.7599945,7.8499985,0,4.0999985,2.7400055,6.0499992,5.9799957,6.0499992,4.5399933,0,7.4199982-2.8800011,8.4199982-5.8300018.2200012-.6500015.3600006-1.3699989.3600006-2.0200005,0,0,0-6.0499992,0-6.0499954Z"/>
        <path d="M200.3396814,10.4598481v42.119998c0,3.0999985.0700073,6.6199989.2899933,9h-5.6900024l-.2899933-6.0499992h-.1399994c-1.9400024,3.8899994-6.1900024,6.8400002-11.8800049,6.8400002-8.4199982,0-14.8999939-7.1300011-14.8999939-17.7099991-.0700073-11.5900002,7.1300049-18.7199993,15.6300049-18.7199993,5.3300018,0,8.9300079,2.5200005,10.5099945,5.3299999h.1399994V10.4598481h6.3399963-.0099945ZM193.999685,40.9198462c0-.7900009-.0700073-1.8700008-.2899933-2.6599998-.9400024-4.0300007-4.3899994-7.3400002-9.1499939-7.3400002-6.5500031,0-10.4400024,5.7600002-10.4400024,13.4700012,0,7.0600014,3.4600067,12.8899994,10.3000031,12.8899994,4.25,0,8.1399994-2.8100014,9.2899933-7.5600014.2200012-.8600006.2899933-1.7299995.2899933-2.7400017v-6.0499992h0v-.0099983Z"/>
        <path d="M226.3296869,13.6298481c3.0200043-.5,6.9799957-.9400001,12.0200043-.9400001,6.1900024,0,10.7299957,1.4400001,13.6100006,4.0300002,2.6600037,2.3000002,4.25,5.8299999,4.25,10.1499987s-1.3000031,7.8500004-3.75,10.3699989c-3.3099976,3.5299988-8.7100067,5.3300018-14.8300018,5.3300018-1.8699951,0-3.6000061-.0699997-5.0399933-.4300003v19.4400024h-6.2599945V13.6298481h-.0000153ZM232.5896814,37.0298487c1.3699951.3600006,3.1000061.5,5.1799927.5,7.5599976,0,12.1699982-3.6700001,12.1699982-10.3700008s-4.5399933-9.5-11.4499969-9.5c-2.7400055,0-4.8200073.2200003-5.8999939.5v18.8700008Z"/>
        <path d="M261.7996881,37.5998484c0-4.1000004-.0700073-7.6299992-.2899933-10.8700008h5.5400085l.2200012,6.8400002h.2900085c1.5799866-4.6800003,5.3999939-7.6300011,9.6499939-7.6300011.7200012,0,1.2200012.0699997,1.7999878.2199993v5.9799995c-.6499939-.1399994-1.2999878-.2199993-2.1600037-.2199993-4.4599915,0-7.6300049,3.3800011-8.5,8.1399994-.1400146.8600006-.2900085,1.8699989-.2900085,2.9500008v18.579998h-6.2599945v-23.9799995h0v-.0099964Z"/>
        <path d="M314.7596948,43.8698469c0,12.8899994-8.9299927,18.5099983-17.3500061,18.5099983-9.4299927,0-16.7099915-6.9099998-16.7099915-17.9300003,0-11.6700001,7.6300049-18.5100002,17.2799988-18.5100002s16.7799988,7.2700005,16.7799988,17.9300022ZM287.1096704,44.2298476c0,7.6300011,4.3900146,13.3899994,10.5799866,13.3899994s10.5799866-5.6899986,10.5799866-13.5400009c0-5.8999996-2.9500122-13.3899994-10.4400024-13.3899994s-10.730011,6.9099998-10.730011,13.5400009h.0100403Z"/>
        <path d="M18.8096855,147.9798437h-6.0100002v-47.9900055h29.3899984v5.2699966h-23.3799982v15.1500015h19.3699999v4.8499985h-19.3699999v22.7099991h0v.0100098Z"/>
        <path d="M50.4696863,147.9798437h-5.5200005v-35.5099945h4.8499985v8.3000031c1.7099991-3.9100037,3.4300003-6.4499969,5.1500015-7.6100006s3.4900017-1.7399979,5.2900009-1.7399979c.5600014,0,1.2900009.0500031,2.1800003.1399994v5.2699966h-1.1199989c-3.0499992,0-5.5800018,1.1399994-7.5900002,3.4100037-2.0200005,2.2699966-3.0900002,5.2600021-3.2299995,8.9599991v18.7699966h-.0099983l-.0000038.0099945Z"/>
        <path d="M95.3296869,147.9798437h-5.4499969c-.2099991-1.1199951-.4199982-3.2599945-.6299973-6.3999939-2.4400024,4.9199982-6.590004,7.3800049-12.4499969,7.3800049-3.9800034,0-7.0400009-1.0599976-9.1800003-3.1699982-2.1300011-2.1100006-3.2000008-4.6499939-3.2000008-7.6100006,0-3.5899963,1.5200005-6.5400009,4.5699997-8.8499985s8.2299995-3.4700012,15.5399971-3.4700012c.9800034,0,2.5500031.0500031,4.7099991.1399994,0-2.8099976-.2200012-4.8499985-.6500015-6.0999985s-1.3499985-2.2600021-2.7600021-3.0100021-3.2600021-1.1200027-5.5500031-1.1200027c-5.5999985,0-8.8600006,2.1299973-9.7700005,6.4000015l-5.0999985-.8799973c1.2400017-6.5400009,6.4699974-9.8099976,15.6799965-9.8099976,4.9000015,0,8.3700027,1.0800018,10.4199982,3.25,2.0500031,2.1699982,3.0800018,5.9199982,3.0800018,11.2700043v15.0800018c0,2.5099945.25,4.8000031.7399979,6.8899994h0l.0000076.0099792ZM89.249685,130.2298514c-2.25-.1399994-3.9599991-.2099991-5.1299973-.2099991-4.3600006,0-7.75.7200012-10.159996,2.1500015s-3.6199989,3.5199966-3.6199989,6.2699966c0,1.7400055.6500015,3.2200012,1.9500008,4.4400024,1.3000031,1.2200012,3.1800003,1.8300018,5.6399994,1.8300018,3.3300018,0,6.0599976-1.2100067,8.2099991-3.6300049,2.1399994-2.4199982,3.2200012-5.2600021,3.2200012-8.5299988,0-.6600037-.0400009-1.4300003-.1100006-2.3300018h0l-.0000076.0100021Z"/>
        <path d="M131.0596826,147.9798437h-5.1699982v-22.8199997c0-3.2799988-.7200012-5.590004-2.1399994-6.9300003-1.4300003-1.3399963-3.1600037-2-5.1999969-2-2.8099976,0-5.1699982,1.1200027-7.0800018,3.3799973-1.9100037,2.25-2.8700027,5.2200012-2.8700027,8.8899994v19.4800034h-5.5199966v-35.5099945h5.1299973v6.5400009c2.8799973-5.0199966,6.6200027-7.5199966,11.2099991-7.5199966,2.6500015,0,4.9000015.6900024,6.7699966,2.0599976s3.1399994,2.9100037,3.8300018,4.6200027,1.0400009,4.8000031,1.0400009,9.2799988v20.5300064h0v-.0000153Z"/>
        <path d="M168.8696802,147.9798437h-5.7200012l-10.3800049-19.8199997-7.6999969,8.859993v10.9700012h-5.5200043v-47.9900055h5.5200043v30.7600021l16.4900055-18.2799988h5.8999939l-11.0899963,12.4700012,12.5,23.0400009h0v-.0099945Z"/>
        <path d="M179.2396905,147.9798437h-5.5200043v-47.9900055h5.5200043v47.9900055Z"/>
        <path d="M193.499685,99.9898459v6.1500015h-5.9400024v-6.1500015h5.9400024ZM193.3196924,112.4698492v35.5099945h-5.5200043v-35.5099945h5.5200043Z"/>
        <path d="M229.8596856,147.9798437h-5.1699982v-22.8199997c0-3.2799988-.7100067-5.590004-2.1399994-6.9300003s-3.1600037-2-5.1999969-2c-2.8099976,0-5.1699982,1.1200027-7.0800018,3.3799973s-2.8699951,5.2200012-2.8699951,8.8899994v19.4800034h-5.5200043v-35.5099945h5.1300049v6.5400009c2.8800049-5.0199966,6.6199951-7.5199966,11.2100067-7.5199966,2.6499939,0,4.8999939.6900024,6.7700043,2.0599976s3.1399994,2.9100037,3.8300018,4.6200027,1.0399933,4.8000031,1.0399933,9.2799988v20.5300064h0l-.0000153-.0000153Z"/>
        <path d="M294.9396875,123.7998511v24.8600006h-3.6700134l-1.6499939-6.0099945c-2.9599915,4.2200012-7.3500061,6.3300018-13.1900024,6.3300018-6.3299866,0-11.2600098-2.3800049-14.7700043-7.1399994-3.5200043-4.7599945-5.2799988-10.5400009-5.2799988-17.3399963,0-7.2699966,1.8600006-13.3300018,5.5899963-18.1900024s8.7899933-7.2799988,15.1899872-7.2799988c8.8399963,0,14.6000061,4.6399994,17.2999878,13.9199982l-5.7000122,1.3700027c-.8200073-3.5599976-2.3599854-6.1500015-4.6099854-7.7699966s-4.7099915-2.4300003-7.3800049-2.4300003c-4.730011,0-8.230011,1.9100037-10.480011,5.7399979-2.25,3.8199997-3.3800049,8.6200027-3.3800049,14.3899994,0,6.2200012,1.2600098,11.0800018,3.7799988,14.5899963s5.9500122,5.2599945,10.2799988,5.2599945c3.3800049,0,6.1900024-1.1199951,8.4599915-3.3699951,2.2600098-2.2400055,3.3900146-5.3399963,3.3900146-9.2900009,0-.7300034-.019989-1.5999985-.0700073-2.6100006h-11.8800049v-5.0299988h18.0700073l.000061-.0000076Z"/>
        <path d="M316.8396814,148.9698492c-4.8800049,0-8.6799927-1.8099976-11.4100037-5.4199982s-4.1000061-8.0899963-4.1000061-13.4400024c0-5.6500015,1.5400085-10.1699982,4.6099854-13.5500031s6.8900146-5.0699997,11.4599915-5.0699997c4.8999939,0,8.7600098,1.7799988,11.5799866,5.3300018s4.2399902,7.9899979,4.2399902,13.3199997-1.519989,10.0599976-4.5700073,13.5699921-6.980011,5.2599945-11.8099976,5.2599945h0l.000061.0000153ZM317.2596948,144.3998419c2.8099976,0,5.1700134-1.1600037,7.0700073-3.4799957s2.8500061-5.9300003,2.8500061-10.8300018-1-8.4899979-2.9899902-10.7099991-4.3200073-3.3199997-7-3.3199997-5.0599976,1.1200027-6.9599915,3.3600006-2.8500061,5.7799988-2.8500061,10.6299973c0,5.1299973.9500122,8.8100052,2.8500061,11.0199966s4.2399902,3.3200073,7.0299988,3.3200073h0l-.0000305.0099945Z"/>
        <path d="M355.979696,144.2198492v4.3600006c-1.9500122.2599945-3.6300049.3899994-5.0599976.3899994-6.8699951,0-10.2999878-3.5899963-10.2999878-10.7700043v-21.4000015h-6.2900085v-4.3199997h6.2900085l.25-8.9300003,5.1300049-.4899979v9.4199982h7.9500122v4.3199997h-7.9500122v22.3199997c0,3.6600037,1.8999939,5.4900055,5.7000122,5.4900055,1.269989,0,2.7000122-.1300049,4.2900085-.3899994h-.0100403Z"/>
        <path d="M388.3796899,147.9798437h-5.519989v-21.5500031c0-2.5299988-.1600037-4.4300003-.4700012-5.6999969s-1.0700073-2.3600006-2.25-3.2900009-2.5499878-1.3899994-4.1000061-1.3899994c-2.8399963,0-5.2099915,1.1600037-7.1199951,3.4800034s-2.8699951,5.4300003-2.8699951,9.3199997v19.1200027h-5.519989v-47.9900055h5.519989v19.0200043c2.5100098-5.0199966,6.0899963-7.5199966,10.7600098-7.5199966,2.0899963,0,3.9400024.4100037,5.5700073,1.2300034s2.8800049,1.9000015,3.7399902,3.2300034,1.4599915,2.6500015,1.7799988,3.9599991.4700012,3.4800034.4700012,6.5199966v21.5499954h0l.0099792.0099945Z"/>
        <path d="M402.479696,99.9898459v6.1500015h-5.9400024v-6.1500015h5.9400024ZM402.3096826,112.4698492v35.5099945h-5.519989v-35.5099945h5.519989Z"/>
        <path d="M432.4096887,135.5398489l4.9899902.8799973c-.7000122,3.9299927-2.2600098,7-4.6799927,9.2200012-2.4100037,2.2200012-5.4299927,3.3300018-9.0400085,3.3300018-4.8999939,0-8.6300049-1.8099976-11.2000122-5.4199982s-3.8500061-8.0200043-3.8500061-13.2299957,1.3500061-9.8799973,4.0599976-13.4599991,6.3900146-5.3700027,11.0599976-5.3700027c3.8699951,0,6.9700012,1.1500015,9.2999878,3.4599991s3.7799988,5.2900009,4.3399963,8.9499969l-4.9899902.9499969c-.9400024-5.8600006-3.769989-8.7900009-8.4899902-8.7900009-3.0400085,0-5.3800049,1.3000031-7.019989,3.8799973-1.6400146,2.5899963-2.4599915,5.9499969-2.4599915,10.0699997,0,4.5500031.8099976,8.0800018,2.4400024,10.6000061s3.9100037,3.7799988,6.8599854,3.7799988c4.5599976,0,7.4500122-2.9499969,8.6700134-8.8600006h.0100098v.0100021Z"/>
        <path d="M50.1396844,234.3798529v-2.0200043c5.9000015-.5800018,6.1199989-1.0099945,6.0499992-8.7100067l.0699997-29.3800049c-5.9000015,13.1799927-15.4099998,33.7700043-17.9300003,40.1100006h-1.8700008c-2.4500008-6.5500031-10.5799999-26.3500061-16.0599995-39.3899994-1.2200003,25.1999969-1.3000002,30.8899994-1.3000002,32.2599945.0699997,4.0299988,1.8699999,4.6100006,6.7699995,5.1100006v2.0200043H8.799685v-2.0200043c4.1799996-.4299927,5.8999999-1.3000031,6.4799998-5.1799927.4300003-3.1699982.5-5.7599945,2.3800001-32.0400085.29-3.7400055-.4300003-4.9700012-6.77-5.5399933v-2.0200043h12.5300002l15.9100018,36.5099945,17.0699997-36.5099945h12.5999985v2.0200043c-6.1899986.7200012-6.9799995,1.3699951-6.8400002,6.4100037l.2900009,27.6499939c.2900009,7.6999969.5,8.0599976,6.8400002,8.7100067v2.0200043h-19.1500015v-.0099945Z"/>
        <path d="M73.6596887,234.3798529v-2.0200043c4.5400009-.4299927,5.0400009-.7899933,5.0400009-5.6900024v-14.8300018c0-4.4600067-.2200012-4.75-4.5400009-5.4700012v-1.7299957c3.7399979-.6499939,7.1299973-1.5800018,10.2299957-2.8800049v24.9100037c0,4.8999939.5,5.2599945,5.1800003,5.6900024v2.0200043h-15.909996ZM81.1496866,194.7098547c-2.0199966,0-3.8199997-1.8000031-3.8199997-3.8200073,0-2.3000031,1.8000031-3.9600067,3.8899994-3.9600067s3.6699982,1.6600037,3.6699982,3.9600067c0,2.0200043-1.6600037,3.8200073-3.7399979,3.8200073Z"/>
        <path d="M113.7096841,234.3798529v-2.0200043c4.1800003-.4299927,4.6100006-.9400024,4.6100006-5.8300018v-11.8800049c0-5.0399933-1.8000031-8.4199982-6.5500031-8.4199982-2.9499969,0-5.7600021,1.7299957-7.9899979,3.7400055v16.8500061c0,4.9700012.4300003,5.1100006,4.6800003,5.5399933v2.0200043h-15.5500031v-2.0200043c4.75-.5,5.1800003-.7899933,5.1800003-5.5399933v-14.8300018c0-4.6799927-.5-4.8999939-4.3899994-5.5399933v-1.8699951c3.5299988-.5800018,7.0599976-1.5099945,10.0800018-2.8800049v5.6900024c1.4400024-1.0099945,3.0199966-2.0899963,4.9000015-3.3099976,2.0199966-1.3000031,3.8899994-2.1600037,5.9800034-2.1600037,5.7600021,0,9.3600006,4.25,9.3600006,11.2299957v13.6800079c0,4.8999939.4300003,5.1100006,4.6100006,5.5399933v2.0200043h-14.9199982l-.0000076-.0100098Z"/>
        <path d="M132.3096826,234.3798529v-2.0200043c4.5399933-.4299927,5.0399933-.7899933,5.0399933-5.6900024v-14.8300018c0-4.4600067-.2200012-4.75-4.5400009-5.4700012v-1.7299957c3.7399979-.6499939,7.1299973-1.5800018,10.2300034-2.8800049v24.9100037c0,4.8999939.5,5.2599945,5.1799927,5.6900024v2.0200043h-15.9100037.0000153ZM139.7896783,194.7098547c-2.0200043,0-3.8200073-1.8000031-3.8200073-3.8200073,0-2.3000031,1.8000031-3.9600067,3.8899994-3.9600067s3.6699982,1.6600037,3.6699982,3.9600067c0,2.0200043-1.6600037,3.8200073-3.7400055,3.8200073h.0000153Z"/>
        <path d="M165.8596856,201.9098517c9,0,15.6999969,6.8399963,15.6999969,16.1300049,0,11.6699982-8.6399994,17.2099915-15.6999969,17.2099915-9.9400024,0-15.9900055-7.9900055-15.9900055-16.0599976,0-11.7400055,9.1399994-17.2799988,15.9900055-17.2799988h0ZM164.9896905,204.3598486c-4.3899994,0-8.3500061,4.25-8.3500061,12.6000061,0,9.1499939,4.0299988,15.7700043,9.9400024,15.7700043,4.4600067,0,8.2100067-3.2400055,8.2100067-13.1100006,0-8.4199982-3.4600067-15.2599945-9.7899933-15.2599945h-.0099945l-.0000153-.0000153Z"/>
        <path d="M204.999685,234.3798529v-2.0200043c4.1799927-.4299927,4.6100006-.9400024,4.6100006-5.8300018v-11.8800049c0-5.0399933-1.8000031-8.4199982-6.5500031-8.4199982-2.9499969,0-5.7599945,1.7299957-7.9900055,3.7400055v16.8500061c0,4.9700012.4299927,5.1100006,4.6799927,5.5399933v2.0200043h-15.5500031v-2.0200043c4.75-.5,5.1799927-.7899933,5.1799927-5.5399933v-14.8300018c0-4.6799927-.5-4.8999939-4.3899994-5.5399933v-1.8699951c3.5299988-.5800018,7.0599976-1.5099945,10.0800018-2.8800049v5.6900024c1.4400024-1.0099945,3.0200043-2.0899963,4.8999939-3.3099976,2.0200043-1.3000031,3.8899994-2.1600037,5.9799957-2.1600037,5.7599945,0,9.3600006,4.25,9.3600006,11.2299957v13.6800079c0,4.8999939.4299927,5.1100006,4.6100006,5.5399933v2.0200043h-14.9199982l.0000305-.0100098Z"/>
        <path d="M58.499685,300.8798529c-.5600014.0700073-1.3199997.1799927-2.2700005.3299866s-1.7200012.3699951-2.2999992.6499939c-.7000008.3500061-1.2000008.8500061-1.4900017,1.4899902-.2900009.6400146-.4399986,1.3999939-.4399986,2.269989v3.8699951c0,2.8099976.0200005,4.7099915.0499992,5.7000122s.0800018,1.7900085.1199989,2.4299927c-3.1199989,1.4100037-6.2200012,2.480011-9.3199997,3.230011s-6.1300011,1.1199951-9.1100006,1.1199951c-3.1900005,0-6.2600002-.6000061-9.2099991-1.7900085-2.9499998-1.2000122-5.5300007-2.8999939-7.7299995-5.1000061-2.23-2.230011-4-4.9400024-5.3099999-8.1300049s-1.97-6.75-1.97-10.7000122.6299999-7.3200073,1.8799999-10.5700073,3.0300002-6.0700073,5.3300004-8.4599915c2.2299995-2.3399963,4.8800001-4.1700134,7.9599991-5.4700012,3.0799999-1.2999878,6.3800011-1.9500122,9.8999996-1.9500122,2.8099995,0,5.2600002.3399963,7.3500004,1.019989s3.9300003,1.5,5.5200005,2.4599915l1.4399986-2.3900146h2.8100014l.3199997,17.4400024h-2.8800011c-.4900017-1.9200134-1.0999985-3.8099976-1.8300018-5.6799927-.7299995-1.8599854-1.6699982-3.5299988-2.8199997-5.0100098s-2.5499992-2.6499939-4.2099991-3.5299988c-1.6499996-.8800049-3.6300011-1.3200073-5.9300003-1.3200073-2.5100002,0-4.75.5100098-6.7199993,1.5299988s-3.6800003,2.5400085-5.1399994,4.5599976c-1.4300003,1.9500122-2.5299997,4.3800049-3.3099995,7.2799988s-1.1599998,6.1600037-1.1599998,9.75c0,3.1700134.3800001,6.1499939,1.1400003,8.9500122.7600002,2.7999878,1.8699999,5.2200012,3.3299999,7.269989,1.4499998,2.0899963,3.2699995,3.730011,5.46,4.9299927s4.6599998,1.7900085,7.4300003,1.7900085c2.0699997,0,3.9500008-.3200073,5.6500015-.9500122s2.9000015-1.2999878,3.6100006-2c.1899986-1.2200012.2900009-2.4500122.2999992-3.6900024s.0200005-2.2999878.0200005-3.1600037v-2.7399902c0-.980011-.1399994-1.8599854-.4000015-2.6199951-.2700005-.7600098-.8300018-1.3200073-1.6699982-1.6700134-.7700005-.3500061-1.8199997-.6199951-3.1500015-.7900085-1.3199997-.1799927-2.3600006-.2900085-3.1100006-.3299866v-2.5700073h21.8700027v2.5700073-.019989l-.0100021.0001221Z"/>
        <path d="M92.3296869,312.6298529c-1.4499969,2.769989-3.4000015,4.9700012-5.8399963,6.6099854-2.4400024,1.6400146-5.2399979,2.4599915-8.4000015,2.4599915-2.7900009,0-5.2300034-.4899902-7.3300018-1.480011-2.0999985-.980011-3.8300018-2.3200073-5.1899986-4.0100098-1.3600006-1.6900024-2.3699989-3.6600037-3.0400009-5.9100037s-1-4.6300049-1-7.1400146c0-2.25.3600006-4.4599915,1.0699997-6.6300049s1.7599983-4.1199951,3.1500015-5.8500061c1.3400002-1.6600037,2.9900017-3.0100098,4.9700012-4.0299988s4.2000008-1.5299988,6.6599998-1.5299988,4.6999969.3999939,6.5,1.2000122c1.8000031.7999878,3.2699966,1.8900146,4.3899994,3.269989,1.0800018,1.3099976,1.8799973,2.8599854,2.4100037,4.6400146s.7900009,3.7099915.7900009,5.7999878v2.3200073h-22.9599991c0,2.2799988.2200012,4.3500061.6500015,6.2000122.4300003,1.8599854,1.1199989,3.4899902,2.0599976,4.8999939.9100037,1.3599854,2.1100006,2.4400024,3.5899963,3.2200012,1.4800034.7900085,3.2300034,1.1799927,5.2699966,1.1799927s3.8799973-.4899902,5.4000015-1.4700012,2.9700012-2.7399902,4.3799973-5.2799988l2.4599991,1.5100098v.019989l.0100021.000061ZM84.5596826,299.4098517c0-1.3099976-.1100006-2.7099915-.3300018-4.2099915s-.5800018-2.75-1.0699997-3.75c-.5400009-1.0799866-1.2799988-1.9500122-2.2099991-2.6300049-.9400024-.6799927-2.1399994-1.019989-3.6200027-1.019989-2.4599991,0-4.5100021,1.019989-6.1299973,3.0700073-1.6300011,2.0400085-2.5099983,4.8900146-2.6500015,8.5400085h16.0299988-.0199966v-.0000305Z"/>
        <path d="M129.1196878,303.0998541c0,2.4400024-.3899994,4.8299866-1.1600037,7.1900024-.7699966,2.3599854-1.8799973,4.3500061-3.3099976,5.9899902-1.6200027,1.8800049-3.5,3.269989-5.6299973,4.1799927-2.1399994.9100037-4.5299988,1.3699951-7.1800003,1.3699951-2.2099991,0-4.3099976-.4200134-6.3000031-1.25-1.9899979-.8299866-3.7699966-2.0400085-5.3099976-3.6400146-1.5199966-1.5700073-2.7399979-3.4899902-3.6399994-5.75s-1.3499985-4.7999878-1.3499985-7.6099854c0-5.4100037,1.5800018-9.8399963,4.7300034-13.2900085,3.1600037-3.4500122,7.2900009-5.1700134,12.409996-5.1700134s8.8600006,1.6300049,12.0200043,4.8999939,4.7300034,7.6199951,4.7300034,13.0599976v.019989l-.0100098.000061ZM121.8396814,303.1698614c0-1.7600098-.1800003-3.6199951-.5299988-5.5700073s-.8799973-3.6199951-1.5800018-4.9700012c-.75-1.4500122-1.7399979-2.6199951-2.9599991-3.5s-2.7099991-1.3200073-4.4700012-1.3200073-3.3499985.4500122-4.6299973,1.3399963c-1.2799988.8900146-2.3199997,2.1099854-3.1200027,3.6600037-.75,1.4299927-1.2799988,3.0599976-1.5899963,4.8900146-.3099976,1.8299866-.4599991,3.6000061-.4599991,5.3099976,0,2.25.1800003,4.3299866.5500031,6.2399902.3600006,1.9100037.9400024,3.6199951,1.7399979,5.1199951.8000031,1.5,1.8000031,2.6799927,3.0100021,3.5299988,1.2099991.8599854,2.7099991,1.2799988,4.4899979,1.2799988,2.9400024,0,5.2600021-1.4200134,6.9700012-4.25s2.5699997-6.75,2.5699997-11.7399902v-.019989h.0099945Z"/>
        <path d="M157.9896905,290.5798346c0,1.2000122-.2899933,2.2600098-.8800049,3.1799927-.5899963.9299927-1.4900055,1.3900146-2.7100067,1.3900146-1.3099976,0-2.3099976-.3399963-3.0099945-1.019989-.6900024-.6799927-1.0399933-1.4299927-1.0399933-2.25,0-.519989.0399933-.980011.1199951-1.4100037.0800018-.4200134.1600037-.8399963.2299957-1.269989-1.1000061,0-2.3899994.4500122-3.8699951,1.3399963s-2.7299957,2.1600037-3.7599945,3.7999878v20.1799927c0,.8200073.1600037,1.4899902.4700012,2s.8099976.8999939,1.4900055,1.1600037c.5899963.230011,1.3399963.4100037,2.2700043.5299988.9299927.1199951,1.7299957.2000122,2.4100037.25v2.3200073h-18.2799988v-2.3200073c.5400009-.0499878,1.0999985-.0899963,1.6699982-.1400146.5699997-.0499878,1.0699997-.1400146,1.4899979-.2799988.659996-.2099915,1.140007-.5799866,1.4599991-1.1099854s.4700012-1.2099915.4700012-2.0499878v-21.3800049c0-.730011-.1699982-1.4400024-.5099945-2.1400146s-.8099976-1.2600098-1.4199982-1.6900024c-.4499969-.2799988-.9700012-.4899902-1.5800018-.6099854-.6100006-.1300049-1.2699966-.2200012-1.9700012-.2600098v-2.3200073l11.5299988-.769989.4900055.4899902v4.8900146h.1799927c1.4499969-1.8999939,3.0700073-3.3399963,4.8500061-4.3200073s3.4100037-1.480011,4.8899994-1.480011,2.6799927.480011,3.6000061,1.4400024c.9299927.9599915,1.3899994,2.25,1.3899994,3.8699951l.0200043-.019989h-.0000305Z"/>
        <path d="M189.699682,317.1998602c.9400024.8900146,1.6799927,1.8999939,2.2100067,3.019989s.8099976,2.519989.8099976,4.1799927-.3600006,3.230011-1.0899963,4.6900024-1.8300018,2.7399902-3.3000031,3.8099976c-1.5700073,1.1000061-3.4499969,1.9599915-5.6199951,2.5700073s-4.8800049.9100037-8.0899963.9100037c-5.25,0-9.1800079-.769989-11.7799988-2.2999878s-3.8999939-3.7799988-3.8999939-6.730011c0-2.3900146.9400024-4.2799988,2.8099976-5.6600037,1.8800049-1.3800049,4.2700043-2.1300049,7.1699982-2.25v-.4899902c-.6999969-.2099915-1.4299927-.4700012-2.1799927-.7900085s-1.3899994-.6900024-1.9299927-1.1099854c-.6100006-.4899902-1.1000061-1.0700073-1.4799957-1.7399902-.3800049-.6700134-.5599976-1.4899902-.5599976-2.480011,0-1.2399902.4400024-2.3800049,1.3200073-3.4299927s2.2100067-1.9400024,3.9900055-2.6900024v-.5299988c-2.25-1.0499878-4-2.4100037-5.2400055-4.0599976s-1.8600006-3.5700073-1.8600006-5.75c0-3.2799988,1.2200012-5.980011,3.6699982-8.0899963s5.5800018-3.1600037,9.3999939-3.1600037c1.0500031,0,2.1000061.1099854,3.1499939.3200073,1.0399933.2099915,2.1000061.480011,3.1799927.8099976h12.0899963v3.3800049h-8.1600037v.2099915c.8699951,1.0100098,1.5099945,2.1199951,1.9299927,3.3399963s.6300049,2.4100037.6300049,3.5899963c0,3.0499878-1.2400055,5.6199951-3.7100067,7.730011-2.4700012,2.1099854-5.3500061,3.1600037-8.6300049,3.1600037h-4.25c-.5399933.1900024-1.1000061.5299988-1.6900024,1.019989s-.8800049,1.1600037-.8800049,2,.25,1.5299988.7400055,1.9899902,1.0899963.769989,1.7899933.9299927c.6799927.1900024,1.4700012.2999878,2.3699951.3500061.8999939.0499878,1.8300018.0799866,2.7899933.1099854,1.0299988.019989,2.4400024.0899963,4.2400055.2099915s3.0599976.1900024,3.8099976.2099915c1.0800018.0499878,2.1600037.2999878,3.25.769989s2.0800018,1.1099854,2.9700012,1.9299927l.0299988.019989.0000153.000061ZM186.949682,325.6998602c0-1.3099976-.3000031-2.3900146-.9100037-3.230011s-1.5399933-1.4200134-2.7799988-1.7200012c-.6600037-.0899963-2-.2000122-4.0399933-.3200073s-4.4100037-.1799927-7.1000061-.1799927c-2.5299988.4899902-4.3300018,1.3200073-5.3999939,2.480011-1.0700073,1.1600037-1.6000061,2.6499939-1.6000061,4.480011,0,.8200073.1799927,1.6099854.5299988,2.3599854s.9600067,1.4400024,1.8300018,2.0700073c.8200073.6099854,1.9199982,1.1099854,3.3000031,1.4899902,1.3800049.3900146,3.0700073.5799866,5.0599976.5799866,3.4499969,0,6.1600037-.6600037,8.1399994-1.9899902s2.9700012-3.3299866,2.9700012-6.0299988h0v.0100098ZM180.199682,296.6298529c0-2.7399902-.5599976-4.9299927-1.6699982-6.5599976s-2.6799927-2.4400024-4.6900024-2.4400024c-1.1000061,0-2.0399933.230011-2.8300018.6900024-.7899933.4599915-1.4199982,1.1099854-1.9199982,1.9500122-.4700012.769989-.8000031,1.7099915-1,2.7900085-.1999969,1.0899963-.3000031,2.2099915-.3000031,3.3599854,0,2.6000061.5700073,4.7200012,1.7100067,6.3599854,1.1399994,1.6400146,2.6100006,2.4599915,4.4100037,2.4599915,2.0200043,0,3.5700073-.8099976,4.6600037-2.4400024s1.6300049-3.6900024,1.6300049-6.1700134h0l-.0000153.0000305Z"/>
        <path d="M213.2696893,320.7798468h-16.7299957v-2.3200073c.5399933-.0499878,1.1000061-.0899963,1.6699982-.1400146s1.0700073-.1400146,1.4900055-.2799988c.6600037-.2099915,1.1399994-.5799866,1.4600067-1.1099854s.4700012-1.2099915.4700012-2.0499878v-21.3800049c0-.75-.1699982-1.4299927-.5099945-2.0499878s-.8099976-1.1400146-1.4199982-1.5599976c-.4499969-.2799988-1.0899963-.519989-1.9299927-.7200012s-1.6199951-.3200073-2.3200073-.3699951v-2.3200073l12.2299957-.769989.4900055.4899902v28.269989c0,.8200073.1600037,1.5.4700012,2.0400085s.8099976.9400024,1.4799957,1.2000122c.5099945.2099915,1.0099945.3800049,1.5.5100098s1.0399933.2200012,1.6399994.2600098v2.3200073-.019989l.0099792-.000061ZM208.8796899,272.019837c0,1.3399963-.4400024,2.5-1.3200073,3.5s-1.9600067,1.4899902-3.25,1.4899902c-1.1999969,0-2.2299957-.4700012-3.1100006-1.4200134s-1.3200073-2.0299988-1.3200073-3.25c0-1.2900085.4400024-2.4100037,1.3200073-3.3800049s1.9199982-1.4400024,3.1100006-1.4400024c1.3399963,0,2.4299927.4500122,3.2899933,1.3500061s1.2799988,1.9500122,1.2799988,3.1499939h0l.0000153.0000305Z"/>
        <path d="M248.8796899,320.1498419c-1.1000061.3999939-2.0700073.7200012-2.8999939.9700012s-1.7799988.3699951-2.8300018.3699951c-1.8300018,0-3.2899933-.4299927-4.3800049-1.2799988s-1.7899933-2.1000061-2.0899963-3.7399902h-.2100067c-1.5200043,1.6900024-3.1600037,2.980011-4.8999939,3.8699951s-3.8500061,1.3399963-6.3099976,1.3399963c-2.6000061,0-4.7400055-.7999878-6.4199982-2.3900146s-2.5099945-3.6799927-2.5099945-6.2600098c0-1.3399963.1900024-2.5299988.5599976-3.5899963s.9400024-2,1.6900024-2.8500061c.5899963-.7000122,1.3600006-1.3299866,2.3200073-1.8800049s1.8600006-.9899902,2.7100067-1.3200073c1.0500031-.3999939,3.1900024-1.1400146,6.4199982-2.2099915s5.3999939-1.9200134,6.5200043-2.5299988v-3.480011c0-.2999878-.0599976-.8900146-.1900024-1.7600098s-.3999939-1.6900024-.8300018-2.4599915c-.4700012-.8699951-1.1300049-1.6199951-1.9900055-2.269989s-2.0700073-.9700012-3.6399994-.9700012c-1.0800018,0-2.0800018.1799927-3.0099945.5400085s-1.5800018.7399902-1.9499969,1.1400146c0,.4700012.1100006,1.1600037.3300018,2.0700073s.3300018,1.7600098.3300018,2.5299988c0,.8200073-.3699951,1.5700073-1.1100006,2.25s-1.7599945,1.019989-3.0800018,1.019989c-1.1699982,0-2.0299988-.4200134-2.5800018-1.25s-.8300018-1.7600098-.8300018-2.7900085.3800049-2.1099854,1.1399994-3.0899963,1.75-1.8599854,2.9700012-2.6400146c1.0500031-.6600037,2.3300018-1.2099915,3.8300018-1.6700134s2.9600067-.6900024,4.3899994-.6900024c1.9700012,0,3.6900024.1300049,5.1499939.3999939s2.7899933.8500061,3.9900055,1.7399902c1.1999969.8699951,2.1000061,2.0400085,2.7200012,3.5299988s.9299927,3.3999939.9299927,5.75c0,3.3500061-.0399933,6.3200073-.1100006,8.9100037s-.1100006,5.4200134-.1100006,8.4899902c0,.9100037.1600037,1.6400146.4700012,2.1799927s.8000031,1,1.4600067,1.3699951c.3500061.2099915.9100037.3299866,1.6699982.3500061s1.5399933.0400085,2.3399963.0400085v2.25h.0399933l-.0000153.0100708ZM236.6096856,301.5898444c-1.9900055.5899963-3.7400055,1.1600037-5.2400055,1.730011s-2.8899994,1.269989-4.1799927,2.1099854c-1.1699982.7999878-2.1000061,1.75-2.7799988,2.8399963s-1.0200043,2.3900146-1.0200043,3.8900146c0,1.9500122.5099945,3.3800049,1.5299988,4.2999878s2.3099976,1.3699951,3.8800049,1.3699951c1.6600037,0,3.1300049-.4100037,4.3899994-1.2200012,1.2700043-.8099976,2.3300018-1.769989,3.1999969-2.8699951l.2100067-12.1600037h0l.0099945.0100098Z"/>
        <path d="M12.8396852,407.1798407v-4.8200073h12.5299988v-40.6099854h-12.5299988v-4.8200073h31.1000023v4.8200073h-12.5299988v40.6099854h12.5299988v4.8200073H12.8396852Z"/>
        <path d="M56.3196847,356.9298407h17.0599976c4.3199997,0,7.6999969,1.1799927,10.1500015,3.5299988,2.4499969,2.3500061,3.6699982,5.5,3.6699982,9.4299927,0,3.019989-.7300034,5.3999939-2.1999969,7.1300049-1.4599991,1.730011-3.3499985,2.9500122-5.6500015,3.6700134v.2200012c2.8300018.6700134,5.159996,1.9299927,6.9800034,3.7799988,1.8199997,1.8500061,2.7399979,4.519989,2.7399979,8.0299988,0,2.019989-.3399963,3.9100037-1.0100021,5.6900024-.6699982,1.7799988-1.6200027,3.3099976-2.8399963,4.6099854-1.2200012,1.2999878-2.6600037,2.3200073-4.3199997,3.0599976-1.6600037.75-3.4400024,1.1199951-5.3600006,1.1199951h-19.2200012v-50.2600098h0v-.0099792ZM72.7396829,378.7398382c2.5400009,0,4.5400009-.5599976,5.9800034-1.6900024s2.1600037-2.8399963,2.1600037-5.1499939v-2.8099976c0-2.2999878-.7200012-4.0299988-2.1600037-5.1799927s-3.4300003-1.730011-5.9800034-1.730011h-10.3699989v16.5599976h10.3699989ZM73.749685,401.9298407c2.7799988,0,4.9700012-.6199951,6.5500031-1.8699951s2.3799973-3.1700134,2.3799973-5.7600098v-2.9500122c0-2.5400085-.7900009-4.4500122-2.3799973-5.7200012-1.5800018-1.269989-3.7699966-1.9100037-6.5500031-1.9100037h-11.3800011v18.2200012h11.3800011v-.0099792Z"/>
        <path d="M125.949682,381.979859v-15.9100037h-.5800018l-10.5800018,25.8500061-10.5800018-25.8500061h-.5800018v41.1099854h-5.5400009v-50.2600098h7.7799988l8.8600006,22.1799927h.4300003l8.8600006-22.1799927h7.4899979v50.2600098h-5.5400009v-25.2000122h-.0199966l.0000076.0000305Z"/>
        <path d="M186.0696924,407.1798407v-50.2600098h18.2900085c4.6600037,0,8.2100067,1.269989,10.6600037,3.8200073,2.4499969,2.5400085,3.6699982,6.1000061,3.6699982,10.6600037s-1.2200012,8.1099854-3.6699982,10.6600037c-2.4499969,2.5400085-6,3.8200073-10.6600037,3.8200073h-12.2400055v21.3099976h-6.0500031v-.0100098ZM192.1096856,380.6098334h12.1000061c2.5399933,0,4.5200043-.6400146,5.9400024-1.9100037s2.1199951-3.0799866,2.1199951-5.4400024v-3.7399902c0-2.3500061-.7100067-4.1600037-2.1199951-5.4400024-1.4199982-1.269989-3.3999939-1.9100037-5.9400024-1.9100037h-12.1000061v18.4299927h0v.0100098Z"/>
        <path d="M228.5496881,402.2098395h12.9600067v-43.3399963h-12.9600067v-4.9700012h18.7200012v48.3099976h12.9600067v4.9700012h-31.6799927v-4.9700012h-.0000153Z"/>
        <path d="M288.229696,408.0498358c-2.6900024,0-5.1000061-.4599915-7.2399902-1.3699951s-3.9599915-2.2200012-5.4700012-3.9200134-2.6799927-3.7399902-3.4899902-6.1199951c-.8200073-2.3800049-1.2200012-5.0299988-1.2200012-7.9599915s.4200134-5.6600037,1.2600098-8.0599976,2-4.4500122,3.4899902-6.1600037c1.4899902-1.7000122,3.2799988-3.0100098,5.3599854-3.9200134,2.0899963-.9100037,4.3999939-1.3699951,6.9500122-1.3699951s4.7600098.4599915,6.7999878,1.3699951c2.0400085.9100037,3.7799988,2.1700134,5.2200012,3.7799988s2.5400085,3.519989,3.3099976,5.7200012,1.1499939,4.6300049,1.1499939,7.269989v2.7399902h-27.5v1.730011c0,1.6300049.2600098,3.1400146.7900085,4.5400085.5299988,1.3900146,1.2799988,2.5899963,2.269989,3.6000061.980011,1.0100098,2.1799927,1.7900085,3.6000061,2.3399963s2.9899902.8299866,4.7200012.8299866c2.5,0,4.6600037-.5799866,6.480011-1.730011s3.2200012-2.7399902,4.1799927-4.75l4.25,2.8800049c-1.1099854,2.5-2.9400024,4.5499878-5.5100098,6.1600037-2.5700073,1.6099854-5.7000122,2.4100037-9.3999939,2.4100037h0v-.0099792ZM287.8696802,373.9198614c-1.5799866,0-3.0499878.2900085-4.3900146.8599854-1.3399963.5799866-2.5100098,1.3699951-3.4899902,2.3800049-.980011,1.0100098-1.75,2.2000122-2.2999878,3.5599976-.5499878,1.3699951-.8299866,2.8699951-.8299866,4.5v.5h21.3099976v-.7900085c0-1.6300049-.25-3.1199951-.7600098-4.4599915-.5-1.3399963-1.2000122-2.5100098-2.0899963-3.4899902-.8900146-.980011-1.9700012-1.7399902-3.2399902-2.269989s-2.6799927-.7900085-4.2099915-.7900085h-.0000305Z"/>
        <path d="M313.5796716,407.1798407l13.8200073-18.8599854-13.4599915-18.2900085h6.9100037l5.6199951,7.8500061,4.4599915,6.1900024h.2900085l4.3200073-6.1900024,5.5400085-7.8500061h6.6199951l-13.6099854,18.2200012,13.9700012,18.9400024h-6.9100037l-6.2600098-8.7099915-4.25-5.8999939h-.2900085l-4.1000061,5.8999939-6.0499878,8.7099915h-6.6199951l-.0000305-.0100098Z"/>
        <path d="M428.3396814,381.979859v-15.9100037h-.5799866l-10.5799866,25.8500061-10.5799866-25.8500061h-.5799866v41.1099854h-5.5400085v-50.2600098h7.7799988l8.8599854,22.1799927h.4299927l8.8599854-22.1799927h7.4899902v50.2600098h-5.5400085v-25.2000122h-.019989v.0000305Z"/>
        <path d="M460.3796899,408.0498358c-2.5899963,0-4.9299927-.4599915-7.019989-1.3699951s-3.8599854-2.2200012-5.3299866-3.9200134c-1.4599915-1.7000122-2.5799866-3.7399902-3.3500061-6.1199951-.769989-2.3800049-1.1499939-5.0499878-1.1499939-8.0299988s.3800049-5.5899963,1.1499939-7.9899902,1.8800049-4.4500122,3.3500061-6.1600037c1.4599915-1.7000122,3.2399902-3.0100098,5.3299866-3.9200134s4.4299927-1.3699951,7.019989-1.3699951,4.9299927.4599915,7.019989,1.3699951,3.8599854,2.2200012,5.3299866,3.9200134c1.4599915,1.7000122,2.5799866,3.7600098,3.3500061,6.1600037.769989,2.3999939,1.1499939,5.0700073,1.1499939,7.9899902s-.3800049,5.6499939-1.1499939,8.0299988-1.8800049,4.4200134-3.3500061,6.1199951c-1.4599915,1.7000122-3.2399902,3.0100098-5.3299866,3.9200134s-4.4299927,1.3699951-7.019989,1.3699951ZM460.3796899,403.0798346c3.2200012,0,5.8099976-.9599915,7.7799988-2.8800049s2.9500122-4.8999939,2.9500122-8.9299927v-5.3299866c0-4.0299988-.980011-7.0100098-2.9500122-8.9299927-1.9700012-1.9200134-4.5599976-2.8800049-7.7799988-2.8800049s-5.8099976.9599915-7.7799988,2.8800049-2.9500122,4.8999939-2.9500122,8.9299927v5.3299866c0,4.0299988.980011,7.0100098,2.9500122,8.9299927,1.9700012,1.9200134,4.5599976,2.8800049,7.7799988,2.8800049Z"/>
        <path d="M489.0396936,407.1798407v-37.1499939h5.7600098v6.0499878h.2900085c.3800049-.9100037.8599854-1.7900085,1.4400024-2.6300049.5799866-.8399963,1.2799988-1.5700073,2.1199951-2.2000122.8399963-.6199951,1.8399963-1.1300049,2.9899902-1.5100098s2.5-.5799866,4.0299988-.5799866c3.8900146,0,7.0100098,1.2399902,9.3599854,3.7099915,2.3500061,2.4700012,3.5299988,5.9599915,3.5299988,10.480011v23.8299866h-5.7600098v-22.8200073c0-3.4100037-.75-5.9400024-2.230011-7.6000061-1.4899902-1.6600037-3.6700134-2.480011-6.5499878-2.480011-1.1499939,0-2.2799988.1400146-3.3800049.4299927-1.1099854.2900085-2.0899963.7200012-2.9500122,1.2999878-.8599854.5799866-1.5599976,1.3200073-2.0899963,2.230011s-.7900085,1.9700012-.7900085,3.1700134v25.7799988h-5.769989l.0000305-.0099487Z"/>
        <path d="M546.7797143,408.0498358c-2.5900269,0-4.9299927-.4599915-7.0200195-1.3699951s-3.8599854-2.2200012-5.3300171-3.9200134c-1.460022-1.7000122-2.5800171-3.7399902-3.3499756-6.1199951-.7700195-2.3800049-1.1500244-5.0499878-1.1500244-8.0299988s.3800049-5.5899963,1.1500244-7.9899902,1.8800049-4.4500122,3.3499756-6.1600037c1.460022-1.7000122,3.2399902-3.0100098,5.3300171-3.9200134s4.4299927-1.3699951,7.0200195-1.3699951,4.9299927.4599915,7.0200195,1.3699951,3.8599854,2.2200012,5.3300171,3.9200134c1.460022,1.7000122,2.5800171,3.7600098,3.3499756,6.1600037.7700195,2.3999939,1.1500244,5.0700073,1.1500244,7.9899902s-.3800049,5.6499939-1.1500244,8.0299988-1.8800049,4.4200134-3.3499756,6.1199951c-1.460022,1.7000122-3.2399902,3.0100098-5.3300171,3.9200134s-4.4299927,1.3699951-7.0200195,1.3699951ZM546.7797143,403.0798346c3.2199707,0,5.8099976-.9599915,7.7800293-2.8800049,1.9699707-1.9200134,2.9500122-4.8999939,2.9500122-8.9299927v-5.3299866c0-4.0299988-.9799805-7.0100098-2.9500122-8.9299927-1.9699707-1.9200134-4.5599976-2.8800049-7.7800293-2.8800049s-5.8099976.9599915-7.7800293,2.8800049c-1.9699707,1.9200134-2.9500122,4.8999939-2.9500122,8.9299927v5.3299866c0,4.0299988.9799805,7.0100098,2.9500122,8.9299927,1.9699707,1.9200134,4.5599976,2.8800049,7.7800293,2.8800049Z"/>
      </g>
    </g>
  </g>
</svg>