<?xml version="1.0" encoding="UTF-8"?>
<svg id="Layer_1" data-name="Layer 1" xmlns="http://www.w3.org/2000/svg" viewBox="0 0 49.12 16.51">
  <defs>
    <style>
      .cls-1 {
        fill: #ad0e1e;
      }

      .cls-2 {
        fill: #fff;
      }

      .cls-3 {
        font-family: Georgia, Georgia;
      }

      .cls-3, .cls-4 {
        font-size: 16.02px;
      }

      .cls-5 {
        letter-spacing: 0em;
      }

      .cls-4 {
        font-family: FranklinGothicURW-Boo, 'FranklinGothic URW';
      }

      .cls-6 {
        letter-spacing: 0em;
      }

      .cls-7 {
        letter-spacing: .02em;
      }
    </style>
  </defs>
  <rect class="cls-2" x="0" width="49.12" height="16.51"/>
  <g>
    <text class="cls-4" transform="translate(29.65 13.26)"><tspan class="cls-6" x="0" y="0">A</tspan><tspan class="cls-5" x="8.79" y="0">a</tspan></text>
    <text class="cls-3" transform="translate(3.5 13.26)"><tspan class="cls-7" x="0" y="0">A</tspan><tspan x="11.08" y="0">a</tspan></text>
    <path class="cls-1" d="M3.51,11.68c.72,0,1.31.59,1.31,1.31s-.59,1.31-1.31,1.31-1.31-.59-1.31-1.31.59-1.31,1.31-1.31M3.51,11.48c-.84,0-1.51.68-1.51,1.51s.68,1.51,1.51,1.51,1.51-.68,1.51-1.51-.68-1.51-1.51-1.51h0Z"/>
    <path class="cls-1" d="M7.03,11.68c.72,0,1.31.59,1.31,1.31s-.59,1.31-1.31,1.31-1.31-.59-1.31-1.31.59-1.31,1.31-1.31M7.03,11.48c-.84,0-1.51.68-1.51,1.51s.68,1.51,1.51,1.51,1.51-.68,1.51-1.51-.68-1.51-1.51-1.51h0Z"/>
    <path class="cls-1" d="M10.87,11.68c.72,0,1.31.59,1.31,1.31s-.59,1.31-1.31,1.31-1.31-.59-1.31-1.31.59-1.31,1.31-1.31M10.87,11.48c-.84,0-1.51.68-1.51,1.51s.68,1.51,1.51,1.51,1.51-.68,1.51-1.51-.68-1.51-1.51-1.51h0Z"/>
    <path class="cls-1" d="M14.52,11.68c.72,0,1.31.59,1.31,1.31s-.59,1.31-1.31,1.31-1.31-.59-1.31-1.31.59-1.31,1.31-1.31M14.52,11.48c-.84,0-1.51.68-1.51,1.51s.68,1.51,1.51,1.51,1.51-.68,1.51-1.51-.68-1.51-1.51-1.51h0Z"/>
    <path class="cls-1" d="M21.69,11.68c.72,0,1.31.59,1.31,1.31s-.59,1.31-1.31,1.31-1.31-.59-1.31-1.31.59-1.31,1.31-1.31M21.69,11.48c-.84,0-1.51.68-1.51,1.51s.68,1.51,1.51,1.51,1.51-.68,1.51-1.51-.68-1.51-1.51-1.51h0Z"/>
    <path class="cls-1" d="M16.03,5.88c.72,0,1.31.59,1.31,1.31s-.59,1.31-1.31,1.31-1.31-.59-1.31-1.31.59-1.31,1.31-1.31M16.03,5.68c-.84,0-1.51.68-1.51,1.51s.68,1.51,1.51,1.51,1.51-.68,1.51-1.51-.68-1.51-1.51-1.51h0Z"/>
  </g>
</svg>