<?xml version="1.0" encoding="UTF-8"?>
<svg id="Layer_1" data-name="Layer 1" xmlns="http://www.w3.org/2000/svg" viewBox="0 0 512 256">
  <defs>
    <style>
      .cls-1 {
        fill: #fff;
      }
    </style>
  </defs>
  <rect class="cls-1" y="-128" width="512" height="512"/>
  <g>
    <path d="M34,102.51v57.11h8.78v9.49H13v-9.49h9.49v-57.11h-9.49v-9.49h30.8v9.49h-9.79ZM71.82,102.51l-23.58,26.46,24.23,30.65h8.13v9.49h-30.9v-9.49h8.38l-22.87-30.3,23.58-26.81h-8.78v-9.49h29.89v9.49h-8.08Z"/>
    <path d="M105.65,160.92c4.68,0,9.75-2.27,15.2-6.82v-28.73h-9.39v-9.34h19.84v43.78h9.09v9.29h-19.54v-6.11c-6.13,4.68-11.95,7.02-17.47,7.02-4.98,0-8.66-1.48-11.03-4.44-2.37-2.96-3.56-7.88-3.56-14.74v-25.45h-7.42v-9.34h17.87v36.96c0,2.73.5,4.73,1.49,6.01.99,1.28,2.63,1.92,4.92,1.92Z"/>
    <path d="M197.05,133.41v26.41h8.89v9.29h-19.34v-35.04c0-3.33-.48-5.72-1.44-7.17s-2.53-2.17-4.72-2.17c-4.65,0-9.86,2.29-15.65,6.87v28.23h9.14v9.29h-28.78v-9.29h9.34v-34.44h-9.34v-9.34h19.64v6.41c6.5-4.75,12.6-7.12,18.33-7.12,4.75,0,8.26,1.46,10.53,4.39,2.27,2.93,3.41,7.49,3.41,13.68Z"/>
    <path d="M242.95,118.31v-2.27h9.09v17.62h-9.09v-3.23c-3.03-4.34-7.17-6.51-12.42-6.51-2.76,0-5.02.61-6.77,1.82-1.75,1.21-2.63,2.78-2.63,4.69,0,1.72.66,3.06,1.99,4.04,1.33.98,4.32,1.84,8.96,2.58l7.02,1.36c10.47,1.92,15.7,7.05,15.7,15.4,0,4.88-1.89,8.8-5.68,11.76-3.79,2.96-8.81,4.44-15.07,4.44-2.49,0-4.94-.36-7.35-1.08-2.41-.72-4.42-1.62-6.03-2.7v2.88h-9.29v-18.18h9.29v1.82c.5,2.56,1.93,4.61,4.27,6.16,2.34,1.55,5.06,2.32,8.15,2.32,3.4,0,6.08-.6,8.03-1.79,1.95-1.2,2.93-2.97,2.93-5.33,0-1.72-.78-3.01-2.32-3.86-1.55-.86-4.66-1.74-9.34-2.65l-5.4-1.16c-5.35-1.08-9.27-2.93-11.76-5.55-2.49-2.63-3.74-5.97-3.74-10.05,0-3.3.92-6.12,2.75-8.46,1.83-2.34,4.18-4.1,7.04-5.28,2.86-1.18,5.81-1.77,8.84-1.77,5.08,0,9.36.99,12.82,2.98Z"/>
    <path d="M286.49,116.04v9.34h-9.69v27.82c0,2.89.31,4.77.93,5.63.62.86,1.69,1.29,3.21,1.29,1.85,0,3.7-.32,5.55-.96v9.44c-3.23.94-5.84,1.41-7.83,1.41-4.38,0-7.52-1.1-9.44-3.31s-2.88-5.98-2.88-11.33v-29.99h-6.92v-9.34h6.92v-8.03l10.45-9.54v17.57h9.69Z"/>
    <path d="M330.53,124.72h-8.38v-8.68h29.39v8.68h-8.18l-19.84,16.46,18.73,18.63h9.29v9.29h-13.78l-26.56-26.76v17.47h8.99v9.29h-28.93v-9.29h9.49v-57.61h-9.49v-9.19h19.94v47.97l19.34-16.26Z"/>
    <path d="M400.63,134.77v25.04h8.89v9.29h-18.07v-6.51c-5.05,4.95-10.67,7.42-16.86,7.42-3.27,0-6.25-.76-8.96-2.27-2.71-1.51-4.88-3.54-6.51-6.08-1.63-2.54-2.45-5.36-2.45-8.46,0-3.33.9-6.3,2.7-8.91,1.8-2.61,4.23-4.62,7.3-6.03,3.06-1.41,6.14-2.12,9.24-2.12,5.18,0,10.01,1.51,14.49,4.54v-5.71c0-4.14-.88-7.1-2.63-8.89-1.75-1.78-4.63-2.68-8.63-2.68-2.83,0-5.19.51-7.09,1.54-1.9,1.03-3.48,2.58-4.72,4.67l-10-2.47c2.25-4.21,5.3-7.35,9.14-9.42,3.84-2.07,8.4-3.11,13.68-3.11,7.1,0,12.29,1.62,15.58,4.85s4.92,8.33,4.92,15.3ZM375.99,161.98c5.12,0,9.91-2.14,14.39-6.41v-6.21c-4.54-3.53-9.09-5.3-13.63-5.3-2.76,0-5.14.87-7.14,2.6-2,1.74-3,3.91-3,6.54s.88,4.62,2.63,6.29c1.75,1.67,4,2.5,6.77,2.5Z"/>
    <path d="M458.69,134.77v25.04h8.89v9.29h-18.07v-6.51c-5.05,4.95-10.67,7.42-16.86,7.42-3.27,0-6.25-.76-8.96-2.27-2.71-1.51-4.88-3.54-6.51-6.08-1.63-2.54-2.45-5.36-2.45-8.46,0-3.33.9-6.3,2.7-8.91,1.8-2.61,4.23-4.62,7.3-6.03,3.06-1.41,6.14-2.12,9.24-2.12,5.18,0,10.01,1.51,14.49,4.54v-5.71c0-4.14-.88-7.1-2.63-8.89-1.75-1.78-4.63-2.68-8.63-2.68-2.83,0-5.19.51-7.09,1.54-1.9,1.03-3.48,2.58-4.72,4.67l-10-2.47c2.25-4.21,5.3-7.35,9.14-9.42s8.4-3.11,13.68-3.11c7.1,0,12.29,1.62,15.58,4.85s4.92,8.33,4.92,15.3ZM434.05,161.98c5.12,0,9.91-2.14,14.39-6.41v-6.21c-4.54-3.53-9.09-5.3-13.63-5.3-2.76,0-5.14.87-7.14,2.6-2,1.74-3,3.91-3,6.54s.88,4.62,2.63,6.29c1.75,1.67,4,2.5,6.77,2.5Z"/>
    <path d="M499,159.81v9.29h-26.81v-9.29h8.28v-34.44h-8.28v-9.34h18.73v43.78h8.08ZM491.53,98.16c0,1.72-.62,3.2-1.87,4.44s-2.73,1.87-4.44,1.87-3.18-.62-4.39-1.87c-1.21-1.24-1.82-2.73-1.82-4.44s.61-3.2,1.82-4.44,2.68-1.87,4.39-1.87,3.28.61,4.49,1.82,1.82,2.71,1.82,4.49Z"/>
  </g>
</svg>