<?xml version="1.0" encoding="UTF-8"?>
<svg id="Layer_1" data-name="Layer 1" xmlns="http://www.w3.org/2000/svg" viewBox="0 0 512 256">
  <defs>
    <style>
      .cls-1 {
        fill: #fff;
      }
    </style>
  </defs>
  <rect class="cls-1" y="-128" width="512" height="512"/>
  <g>
    <path d="M55.33,132.18h-19.48v37.59h-9.85v-79.72h9.85v33.29h19.25l21.74-33.29h10.98l-24.46,37.37,25.02,42.35h-10.98l-22.08-37.59Z"/>
    <path d="M107.17,162.18h25.48v-47.56h9.28v47.1h7.93v8.04h-51.18l-5.32-55.14h9.28l4.53,47.56Z"/>
    <path d="M193.42,122.67h-25.48v47.1h-9.28v-47.1h-8.15v-8.04h51.29l5.21,55.14h-9.17l-4.42-47.1Z"/>
    <path d="M217.76,114.63h32.95v8.04h-25.93l-1.93,11.44,30.69,8.61-4.53,27.06h-33.74v-8.04h26.84l2.04-12.91-30.69-8.61,4.3-25.59Z"/>
    <path d="M267.11,153.12v-30.46h-8.61v-8.04h8.61v-16.08h9.29v16.08h15.51v8.04h-15.51v29.44l1.13,9.63h14.38v8.04h-22.87l-1.93-16.65Z"/>
    <path d="M323.83,143.95h-13.81v25.82h-9.4v-81.64h9.4v48.01h13.47l10.08-21.51h14.72v8.04h-9.17l-8.04,16.65,20.04,30.46h-10.53l-16.76-25.82Z"/>
    <path d="M409.69,169.77h-51.63v-26.95l31.48-7.02-1.25-13.13h-27.97v-8.04h36.12l4.53,47.1h8.72v8.04ZM366.66,162.18h25.36l-1.81-18.91-23.55,5.21v13.7Z"/>
    <path d="M468,169.77h-51.63v-26.95l31.48-7.02-1.25-13.13h-27.97v-8.04h36.12l4.53,47.1h8.72v8.04ZM424.97,162.18h25.36l-1.81-18.91-23.55,5.21v13.7Z"/>
    <path d="M468.56,114.63h17.44v55.14h-9.28v-47.1h-8.15v-8.04ZM475.13,90.62h10.53v11.44h-10.53v-11.44Z"/>
  </g>
</svg>