<?xml version="1.0" encoding="UTF-8"?>
<svg id="Layer_1" data-name="Layer 1" xmlns="http://www.w3.org/2000/svg" viewBox="0 0 512 256">
  <defs>
    <style>
      .cls-1 {
        fill: #fff;
      }
    </style>
  </defs>
  <rect class="cls-1" y="-128" width="512" height="512"/>
  <g>
    <path d="M58.57,168.66v-3.8c4.81,0,7.22-.67,7.22-2.03,0-1.1-1.1-3.17-3.29-6.21l-22.8-29.38-5.7,5.19c-.93.84-1.75,1.82-2.47,2.91-.72,1.1-1.2,2.41-1.46,3.93v16.84c0,5.83,4.22,8.74,12.67,8.74v3.8H6.01v-3.8c7.77,0,11.65-2.92,11.65-8.75v-58.35c0-6.17-4.18-9.26-12.54-9.26v-3.8h36.09v3.8c-7.43,0-11.14,3.09-11.14,9.27v30.87l29.51-28.08c1.94-1.78,3.23-3.2,3.86-4.25.63-1.06.95-2.52.95-4.39,0-2.29-2.91-3.43-8.74-3.43v-3.8h32.8v3.8c-2.53.25-4.62.61-6.27,1.08s-3.19,1.14-4.62,2.03-2.96,2.07-4.56,3.55c-1.61,1.48-3.67,3.45-6.21,5.9l-17.86,17.38,28.88,37.68c1.18,1.27,2.28,2.45,3.29,3.55,1.01,1.1,2.09,2.03,3.23,2.79,1.14.76,2.41,1.35,3.8,1.78s3.1.63,5.13.63v3.8h-34.7Z"/>
    <path d="M134.31,169.16c-.25-.59-.38-1.73-.38-3.42v-4.81c-.85,1.44-1.77,2.72-2.79,3.86-1.01,1.14-2.21,2.09-3.61,2.85-1.39.76-3.02,1.35-4.88,1.77-1.86.42-4.05.63-6.59.63-3.21,0-5.95-.3-8.23-.89s-4.14-1.62-5.57-3.1c-1.44-1.48-2.47-3.46-3.1-5.95-.63-2.49-.95-5.59-.95-9.31v-25.58c0-2.87-2.74-4.31-8.23-4.31l-.51-3.29,19.38-1.52v32.29c0,2.03.06,3.97.19,5.83.13,1.86.51,3.48,1.13,4.88.63,1.39,1.66,2.51,3.09,3.36,1.43.85,3.49,1.27,6.17,1.27,6.8,0,11.47-4.31,13.99-12.92v-25.58c0-2.87-3.04-4.31-9.12-4.31l-.51-3.29,20.26-1.52v42.43c0,2.87,2.87,4.48,8.61,4.81l1.01,3.42-19.38,2.41Z"/>
    <path d="M192.36,168.66v-3.8c5.49,0,8.23-1.77,8.23-5.32v-20.77c0-11.57-4.14-17.35-12.41-17.35s-12.66,5.15-12.66,15.45v22.67c0,3.55,3.04,5.32,9.12,5.32v3.8h-26.85v-3.8c4.73,0,7.09-1.94,7.09-5.83v-32.29c0-2.95-2.28-4.43-6.84-4.43h-1.77v-3.29l18.24-4.43c.34.34.51,1.18.51,2.53v7.6c.67-1.27,1.54-2.51,2.6-3.74,1.05-1.22,2.36-2.3,3.93-3.23,1.56-.93,3.4-1.69,5.51-2.28,2.11-.59,4.52-.89,7.22-.89,1.52,0,3.25.32,5.19.95,1.94.63,3.8,1.65,5.57,3.04,1.77,1.39,3.25,3.19,4.43,5.38,1.18,2.2,1.77,4.86,1.77,7.98v27.99c0,3.29,2.74,4.94,8.23,4.94v3.8h-27.1Z"/>
    <path d="M256.49,131.42c-3.88-8.69-9.04-13.04-15.45-13.04-2.62,0-4.9.63-6.84,1.91-1.94,1.27-2.91,3.39-2.91,6.35,0,1.69.78,3.13,2.34,4.32s3.5,2.29,5.83,3.3c2.32,1.01,4.83,2.03,7.54,3.04,2.7,1.02,5.21,2.22,7.54,3.62,2.32,1.4,4.26,3.07,5.83,5.01,1.56,1.95,2.34,4.36,2.34,7.24,0,2.54-.46,4.82-1.39,6.85-.93,2.03-2.21,3.77-3.86,5.21s-3.55,2.6-5.7,3.49c-2.15.89-4.41,1.5-6.78,1.84-4.22,0-7.98-1.1-11.27-3.29-1.86,1.44-4.39,2.36-7.6,2.79-1.35-6.16-2.03-12.75-2.03-19.76h3.42c.93,3.04,1.94,5.59,3.04,7.66,1.1,2.07,2.32,3.72,3.67,4.94,1.35,1.23,2.87,2.09,4.56,2.6s3.59.76,5.7.76c7.01,0,10.51-2.74,10.51-8.23,0-1.6-.28-2.98-.82-4.12-.55-1.14-1.39-2.11-2.53-2.91-1.14-.8-2.55-1.56-4.24-2.28-1.69-.72-3.67-1.46-5.95-2.22-1.77-.59-3.67-1.33-5.7-2.22-2.03-.89-3.91-1.96-5.63-3.23-1.73-1.27-3.17-2.76-4.31-4.5-1.14-1.73-1.71-3.74-1.71-6.02s.34-4.39,1.01-6.33c.68-1.94,1.71-3.63,3.1-5.07,1.39-1.43,3.19-2.55,5.38-3.36,2.19-.8,4.81-1.2,7.85-1.2,3.63,0,7.18,1.01,10.64,3.04,1.35-1.1,3-1.94,4.94-2.53,1.52,5.74,2.28,11.19,2.28,16.34h-2.79Z"/>
    <path d="M301.64,155.74c-.51,2.2-1.14,4.2-1.9,6.02-.76,1.82-1.77,3.38-3.04,4.69-1.27,1.31-2.85,2.32-4.75,3.04-1.9.72-4.16,1.08-6.78,1.08-4.14,0-7.41-.99-9.81-2.98-2.41-1.98-3.61-5.17-3.61-9.56v-36.09h-8.23l.51-3.8c3.88-.76,7.01-2.98,9.37-6.65,2.36-3.67,4.05-7.92,5.07-12.73l3.93-.51v18.74h10c1.18,0,2.26-.09,3.23-.28.97-.18,1.84-.39,2.6-.61v5.83h-15.83v33.31c0,1.01.04,2.01.13,2.98.08.97.32,1.88.7,2.72.38.84.99,1.52,1.84,2.03.84.51,2.03.76,3.54.76,2.45,0,4.64-.84,6.59-2.53,1.94-1.69,3.12-3.84,3.55-6.46l2.91,1.01Z"/>
    <path d="M339.27,168.66v-3.8c2.95,0,4.43-.67,4.43-2.03l-14.06-20.26c-.93.68-1.96,1.33-3.1,1.96-1.14.63-2.55,1.29-4.24,1.96v12.54c0,3.88,3.08,5.83,9.24,5.83v3.8h-27.99v-3.8c5.4,0,8.11-2.11,8.11-6.33v-63.7c0-4.14-2.87-6.21-8.61-6.21v-3.93l19.25-3.29v59.27c1.6-.93,3.46-2.19,5.57-3.8,2.11-1.6,4.12-3.29,6.02-5.07,1.9-1.77,3.5-3.46,4.81-5.07,1.31-1.6,1.96-2.91,1.96-3.93,0-1.6-2.37-2.41-7.09-2.41v-3.29h27.36v3.29c-1.18,0-2.74.34-4.69,1.01-1.94.68-4.39,1.6-7.35,2.79-2.53,2.7-4.83,4.92-6.9,6.65-2.07,1.73-3.95,3.06-5.64,3.99l17.48,23.68c2.95,4.22,5.99,6.33,9.12,6.33h2.91v3.8h-26.6Z"/>
    <path d="M419.59,163.34c-1.27,4.48-4.64,6.71-10.13,6.71-4.81,0-7.85-2.74-9.12-8.23-6.08,5.49-12.54,8.23-19.38,8.23-4.48,0-7.77-.95-9.88-2.85-2.11-1.9-3.17-4.92-3.17-9.06,0-10.38,10.47-17.48,31.41-21.28v-4.94c0-8.27-3.23-12.41-9.69-12.41-2.8,0-5.23.46-7.27,1.39-2.04.93-3.06,2.7-3.06,5.32.51.34.89.87,1.14,1.58.25.72.38,1.46.38,2.22,0,3.21-1.94,4.81-5.83,4.81-1.44,0-2.66-.46-3.67-1.39-1.01-.93-1.52-2.36-1.52-4.31s.59-3.8,1.78-5.57c1.18-1.77,2.73-3.31,4.63-4.62,1.91-1.31,4.11-2.36,6.61-3.17,2.5-.8,5.06-1.2,7.69-1.2,7.03,0,12.03,1.31,14.99,3.93,2.96,2.62,4.45,6.97,4.45,13.04v27.48c0,3.12,1.44,4.69,4.31,4.69,1.35,0,2.66-.46,3.93-1.39l1.39,1.01ZM399.83,141.17c-2.63.25-5.22.7-7.77,1.33-2.55.63-4.82,1.52-6.82,2.66s-3.61,2.6-4.84,4.37c-1.23,1.77-1.85,3.97-1.85,6.59,0,5.49,2.68,8.23,8.03,8.23,2.38,0,4.35-.36,5.93-1.08,1.57-.72,2.84-1.67,3.82-2.85.98-1.18,1.74-2.49,2.29-3.93.55-1.43.96-2.87,1.21-4.31v-11.02Z"/>
    <path d="M474.57,163.34c-1.27,4.48-4.64,6.71-10.13,6.71-4.81,0-7.85-2.74-9.12-8.23-6.08,5.49-12.54,8.23-19.38,8.23-4.47,0-7.77-.95-9.88-2.85-2.11-1.9-3.17-4.92-3.17-9.06,0-10.38,10.47-17.48,31.41-21.28v-4.94c0-8.27-3.23-12.41-9.69-12.41-2.8,0-5.23.46-7.26,1.39-2.04.93-3.06,2.7-3.06,5.32.51.34.89.87,1.14,1.58.25.72.38,1.46.38,2.22,0,3.21-1.94,4.81-5.83,4.81-1.44,0-2.66-.46-3.67-1.39-1.01-.93-1.52-2.36-1.52-4.31s.59-3.8,1.78-5.57c1.19-1.77,2.73-3.31,4.64-4.62,1.91-1.31,4.11-2.36,6.61-3.17,2.5-.8,5.06-1.2,7.69-1.2,7.03,0,12.03,1.31,14.99,3.93,2.96,2.62,4.45,6.97,4.45,13.04v27.48c0,3.12,1.44,4.69,4.31,4.69,1.35,0,2.66-.46,3.93-1.39l1.39,1.01ZM454.81,141.17c-2.63.25-5.22.7-7.77,1.33-2.55.63-4.82,1.52-6.81,2.66-2,1.14-3.61,2.6-4.84,4.37-1.23,1.77-1.85,3.97-1.85,6.59,0,5.49,2.68,8.23,8.03,8.23,2.38,0,4.35-.36,5.92-1.08,1.57-.72,2.84-1.67,3.82-2.85.98-1.18,1.74-2.49,2.29-3.93.55-1.43.96-2.87,1.21-4.31v-11.02Z"/>
    <path d="M477.87,168.66v-3.8c5.83,0,8.74-2.57,8.74-7.72v-25.2c0-6.67-2.58-10-7.73-10v-3.42l18.37-3.93v43.06c0,4.81,3.21,7.22,9.62,7.22v3.8h-29ZM491.04,100.65c-4.47,0-6.71-2.58-6.71-7.73,0-4.81,2.41-7.22,7.22-7.22,4.56,0,6.84,2.41,6.84,7.22,0,5.15-2.45,7.73-7.35,7.73Z"/>
  </g>
</svg>