<?xml version="1.0" encoding="UTF-8"?>
<svg id="Layer_1" data-name="Layer 1" xmlns="http://www.w3.org/2000/svg" viewBox="0 0 512 256">
  <defs>
    <style>
      .cls-1 {
        fill: #fff;
      }
    </style>
  </defs>
  <rect class="cls-1" y="-128" width="512" height="512"/>
  <g>
    <path d="M81.12,139.62c-1.24-2.37-3.61-3.61-6.1-3.61-1.24,0-2.37.23-3.5.9l-.68-.9c1.13-3.05,4.74-5.31,7.79-5.31.9,0,1.81.23,2.48.68v-2.6c-.9-2.03-3.16-2.94-5.53-2.94-2.82,0-6.1,1.24-8.13,3.39l-.68-.9c1.92-5.87,6.66-9.37,11.52-9.37.9,0,1.92.11,2.82.34l-.11-13.89-3.95,1.81-.79-1.92c9.04-4.29,18.41-9.94,26.32-16.04,2.94,1.81,6.21,4.74,10.05,4.74,1.02,0,2.03-.23,3.28-1.69l.56-.56,1.58,1.13-3.28,4.52c-2.26,3.05-4.86,5.76-9.26,5.76-.45,0-2.82,0-5.53-1.02v10.39l13.44-7.34c4.29,4.97,12.88,10.17,12.88,17.96,0,4.52-3.61,7.23-7.57,8.92l-7.91,3.5c7.45,2.71,12.09,4.18,12.76,13.21l.45,6.21c.11,2.37,2.6,4.41,4.86,4.97l2.82-2.82,1.47,1.81-11.63,12.65c-4.63-2.26-9.6-6.66-9.94-12.54l-.45-8.13c-.34-6.66-4.97-8.92-11.18-11.75v10.96c0,10.96-5.65,22.02-14.34,22.02-5.08,0-9.37-3.95-14.68-3.95-1.81,0-3.5.79-4.74,2.26l-.56.68-1.69-1.47c3.84-4.41,7.23-9.83,13.33-11.63l1.36-1.13c1.69-1.36,2.37-4.07,2.37-7l.11-10.28ZM92.76,143.46c0,3.73-1.47,6.66-4.63,9.04l-8.02,5.99c4.18.34,8.13,3.61,11.97,3.61,4.97,0,6.1-6.78,6.1-10.84v-49.58c-1.81-.68-3.73-1.69-5.42-3.16v44.95ZM99.98,137.25l7.91-2.71c2.48-1.02,7.12-2.48,7.12-5.99,0-5.42-7.68-11.75-12.2-15.02l-2.82,1.36v22.36Z"/>
    <path d="M137.79,128.66c0-3.61-1.47-4.86-3.16-5.65l-1.47.79-.9-1.69,10.28-8.02,9.37,7-3.28,3.95v33.09l3.95,3.39,6.55-6.89v-29.7l-3.95-3.39,8.58-7.91,9.71,7.45-3.5,3.73v30.83c0,3.5,2.03,6.89,5.65,5.2l.68,1.47-8.58,8.47c-6.1-1.58-8.47-7.57-8.47-13.44l-12.88,13.89c-3.5-4.29-7.91-7-11.41-6.21l-.56-1.47c1.69-.68,3.39-2.82,3.39-5.2v-29.7Z"/>
    <path d="M215.61,154.3c0,6.1,1.24,8.81,5.42,7.34l.34,1.7-11.29,7.34c-5.08-4.18-5.31-9.6-5.31-15.7v-27.9l-3.84-2.94-6.66,6.44v29.25l3.95,3.39-8.58,7.91-9.71-7.45,3.5-3.73v-30.83c0-3.5-2.03-6.89-5.65-5.2l-.68-1.47,8.58-8.47c6.1,1.58,8.58,7.91,8.58,13.78l13.55-13.67c3.5,4.29,7.12,6.89,10.62,6.1l.56,1.47c-1.69.68-3.39,2.82-3.39,5.19v27.45Z"/>
    <path d="M229.3,122.34c7.12-1.92,13.44-4.74,18.41-8.47,1.81,1.58,6.21,5.08,10.17,5.08,3.28,0,4.63-3.61,4.52-6.55l1.58.23c0,4.07-1.81,6.78-4.52,10.05l-9.83,12.2c3.73,2.71,8.58,4.74,13.55,4.74l.23,1.58c-2.37,2.03-2.94,2.82-2.94,3.95v16.15c-5.99,1.69-12.31,4.97-18.3,10.28-2.15-2.82-8.13-7.23-12.88-7.23s-7.12,3.73-5.42,7.11l-1.58.79c-2.82-5.65,3.5-9.49,6.66-13.78l7.45-9.94c-3.28-1.58-6.78-3.61-10.5-4.63v-1.58c1.13-.34,3.39-1.13,3.39-2.82v-17.17ZM249.63,145.72c-2.48-.56-4.63-1.69-6.55-3.05l-12.2,16.38c6.44-1.92,14.34-.79,18.75,4.41v-17.73ZM253.7,126.97c-6.21.23-10.28-1.58-13.55-6.44v19.31l2.03,1.24,11.52-14.12Z"/>
    <path d="M271.62,123.13h-6.32v-1.81c4.63-1.81,11.86-8.58,16.26-15.7l2.94-4.74,1.47.9-.79,1.47c-2.15,4.07-2.94,7-2.94,11.86v1.24h10.28l-2.37,6.78h-7.68v36.14c2.48,1.24,4.07,1.92,5.99,3.39l2.6-1.81.9,1.69-10.28,8.02c-5.87-3.5-10.28-5.42-13.78-6.21v-1.92c2.6-.79,3.73-4.29,3.73-6.66v-32.64Z"/>
    <path d="M298.42,106.75c0-4.86-1.69-8.81-4.86-10.17l1.58-1.47c3.28,1.13,5.65,2.82,7.79,5.99,1.58-4.18,5.87-8.58,10.5-9.6l.79,1.13c-3.95,3.28-4.97,7.23-4.97,14.12v19.43l13.89-12.08c4.63,3.84,7.91,8.47,10.39,13.55l-12.31,8.92c10.05,5.2,7.79,21.01,11.86,27.22l4.07-2.37.68,1.7-10.96,7.45c-9.6-4.18-4.52-25.75-13.67-27.67l-3.95,3.5v14.01c1.02.45,1.81.79,3.73,2.26l2.6-1.81.9,1.69-10.28,8.02c-5.87-3.5-8.02-5.42-11.52-6.21v-1.92c2.6-.79,3.73-4.29,3.73-6.66v-49.02ZM309.27,128.21v15.92l14.12-11.41c-1.24-3.84-3.5-7.23-7.45-9.83l-6.66,5.31Z"/>
    <path d="M354.38,114.09c3.95,2.94,8.47,4.52,15.36,5.76,3.61-1.69,5.31-3.39,7-5.08l1.36.9c-2.71,3.39-5.99,7.68-5.99,14.12v23.94c0,5.65,1.36,7.91,3.5,8.92l3.84-2.6.9,1.7-11.41,8.81c-3.39-1.36-7.68-6.44-7.68-10.39l-11.07,10.39c-5.2-2.03-10.84-5.87-10.84-14.91s5.99-13.67,11.63-17.39c-4.63-4.97-7.34-10.84-8.81-17.73,6.78-1.47,9.94-3.84,12.2-6.44ZM361.27,141.43v-13.1c-5.99-1.69-12.09-3.5-16.72-6.1,2.15,9.6,8.02,17.28,16.72,19.2ZM361.27,143.57c-4.18-.68-5.99-1.92-9.04-4.18-1.47,3.16-2.03,6.55-2.03,9.83,0,7.91,2.03,11.75,5.42,13.78l5.65-5.31v-14.12Z"/>
    <path d="M396.86,114.09c3.95,2.94,8.47,4.52,15.36,5.76,3.61-1.69,5.31-3.39,7-5.08l1.36.9c-2.71,3.39-5.99,7.68-5.99,14.12v23.94c0,5.65,1.36,7.91,3.5,8.92l3.84-2.6.9,1.7-11.41,8.81c-3.39-1.36-7.68-6.44-7.68-10.39l-11.07,10.39c-5.2-2.03-10.84-5.87-10.84-14.91s5.99-13.67,11.63-17.39c-4.63-4.97-7.34-10.84-8.81-17.73,6.78-1.47,9.94-3.84,12.2-6.44ZM403.75,141.43v-13.1c-5.99-1.69-12.09-3.5-16.72-6.1,2.15,9.6,8.02,17.28,16.72,19.2ZM403.75,143.57c-4.18-.68-5.99-1.92-9.04-4.18-1.47,3.16-2.03,6.55-2.03,9.83,0,7.91,2.03,11.75,5.42,13.78l5.65-5.31v-14.12Z"/>
    <path d="M425,122.56l8.81-8.47,9.83,8.36-3.84,4.52v32.3c1.13.79,3.05,2.03,4.29,3.39l2.6-1.81.9,1.69-10.28,8.02c-5.87-3.5-8.58-5.42-12.09-6.21v-1.92c2.6-.79,3.73-4.29,3.73-6.66v-29.25l-3.95-3.95ZM433.93,108.67l-1.36-.68,5.87-14.23h9.6v1.58l-14.12,13.33Z"/>
  </g>
</svg>