<?xml version="1.0" encoding="UTF-8"?>
<svg id="Layer_1" data-name="Layer 1" xmlns="http://www.w3.org/2000/svg" viewBox="0 0 512 256">
  <defs>
    <style>
      .cls-1 {
        fill: #fff;
      }
    </style>
  </defs>
  <rect class="cls-1" y="-128" width="512" height="512"/>
  <g>
    <path d="M51.26,163.35c-.08,1.87-.63,3.28-1.65,4.21-1.02.94-2.14,1.4-3.36,1.4-1.14,0-2.24-.45-3.3-1.34-1.06-.89-1.71-2.24-1.95-4.03.08-10.58.12-21.08.12-31.5s-.04-21.28-.12-32.6c.41-1.63,1.06-2.85,1.95-3.66.89-.81,1.91-1.22,3.05-1.22,1.06,0,2.05.37,2.99,1.1.93.73,1.61,1.87,2.01,3.42,0,4.64-.02,9.08-.06,13.31-.04,4.23-.06,8.71-.06,13.43,3.58-1.55,6.65-3.3,9.22-5.25,2.56-1.95,4.94-4.13,7.14-6.53,2.2-2.4,4.4-5.05,6.59-7.94,2.2-2.89,4.72-6,7.57-9.34,1.3-1.06,2.64-1.59,4.03-1.59,1.3,0,2.4.45,3.3,1.34.89.9,1.34,2.04,1.34,3.42,0,.73-.2,1.63-.61,2.69-2.44,2.85-4.64,5.51-6.59,8-1.95,2.48-3.87,4.82-5.74,7.02-1.87,2.2-3.77,4.25-5.68,6.17s-4.01,3.68-6.29,5.31c4.8,5.13,9.56,10.19,14.28,15.2,4.72,5.01,9.44,10.07,14.16,15.2.89,1.14,1.34,2.4,1.34,3.78s-.45,2.5-1.34,3.36c-.9.85-2,1.28-3.3,1.28-.65,0-1.36-.14-2.14-.43-.77-.28-1.49-.79-2.14-1.53-.57-.65-1.63-1.79-3.17-3.42-1.55-1.63-3.32-3.52-5.31-5.68-2-2.16-4.11-4.44-6.35-6.84-2.24-2.4-4.35-4.68-6.35-6.84-2-2.16-3.77-4.05-5.31-5.68-1.55-1.63-2.61-2.77-3.17-3.42-1.55.73-3.42,1.51-5.62,2.32,0,4.72.04,9.22.12,13.49.08,4.27.2,8.73.37,13.37Z"/>
    <path d="M148.93,159.81c.89,1.14,1.34,2.4,1.34,3.78s-.45,2.5-1.34,3.36c-.9.85-2,1.28-3.3,1.28-1.79,0-3.34-.83-4.64-2.5-1.3-1.67-2.4-3.56-3.3-5.68-2.12,2.28-4.6,4.21-7.45,5.8-2.85,1.59-5.78,2.38-8.79,2.38-2.2,0-4.32-.39-6.35-1.16-2.04-.77-3.93-1.83-5.68-3.17-1.75-1.34-3.3-2.91-4.64-4.7-1.34-1.79-2.34-3.66-2.99-5.62-.65-2.12-1.1-4.46-1.34-7.02-.24-2.56-.37-5.23-.37-8,0-3.34.08-6.59.24-9.77.16-3.18.24-5.98.24-8.42.41-1.63,1.06-2.85,1.95-3.66.89-.81,1.91-1.22,3.05-1.22,1.06,0,2.05.37,2.99,1.1.94.73,1.61,1.87,2.01,3.42,0,3.83-.06,7.51-.18,11.05-.12,3.54-.18,7.31-.18,11.29,0,4.56.98,8.3,2.93,11.23s4.6,4.39,7.94,4.39c1.22,0,2.44-.24,3.66-.73,1.22-.49,2.36-1.14,3.42-1.95,1.06-.81,2.03-1.75,2.93-2.81.89-1.06,1.71-2.12,2.44-3.17.16-.16.37-.3.61-.43.24-.12.45-.26.61-.43-.49-4.07-.73-8.18-.73-12.33,0-2.36.02-4.74.06-7.14.04-2.4.24-4.6.61-6.59.37-1.99.98-3.62,1.83-4.88.85-1.26,2.05-1.89,3.6-1.89,1.22,0,2.32.47,3.3,1.4.98.94,1.47,2.3,1.47,4.09s-.14,4.15-.43,6.84c-.29,2.69-.43,5.49-.43,8.42,0,2.28.08,4.56.24,6.84.16,2.28.43,4.46.79,6.53.37,2.07.85,3.97,1.47,5.68s1.4,3.17,2.38,4.4Z"/>
    <path d="M199.27,168.78c-1.02.94-2.14,1.4-3.36,1.4-1.14,0-2.2-.43-3.17-1.28-.98-.85-1.59-2.18-1.83-3.97,0-3.74-.02-7.47-.06-11.17-.04-3.7-.06-7.43-.06-11.17,0-2.69.02-5.37.06-8.06.04-2.69-.14-5.37-.55-8.06-.65-1.22-1.36-1.97-2.14-2.26-.77-.28-1.69-.43-2.75-.43-2.77,0-5.49.67-8.18,2.01-2.69,1.34-4.8,3.2-6.35,5.56-.9,1.38-1.61,2.55-2.14,3.48-.53.94-.88,2.3-1.04,4.09v12.45c0,4.15.04,8.3.12,12.45-.08,1.87-.63,3.28-1.65,4.21-1.02.93-2.14,1.4-3.36,1.4-1.14,0-2.2-.43-3.17-1.28-.98-.85-1.59-2.18-1.83-3.97v-11.35c0-3.66-.02-7.28-.06-10.87-.04-3.58-.06-7.22-.06-10.93v-11.42c.41-1.63,1.06-2.85,1.95-3.66.89-.81,1.91-1.22,3.05-1.22,1.06,0,2.05.37,2.99,1.1.93.73,1.61,1.87,2.01,3.42v.98c2.36-2.03,5.02-3.64,8-4.82,2.97-1.18,5.96-1.77,8.97-1.77s5.84.69,8.49,2.08c2.64,1.38,4.78,3.62,6.41,6.71.57,1.06.96,2.38,1.16,3.97.2,1.59.32,3.26.37,5.01.04,1.75.02,3.54-.06,5.37-.08,1.83-.12,3.56-.12,5.19v22.59c-.08,1.87-.63,3.28-1.65,4.21Z"/>
    <path d="M208.7,159.32c-.73-1.47-.98-2.79-.73-3.97.24-1.18.75-2.12,1.53-2.81.77-.69,1.77-1.04,2.99-1.04s2.48.45,3.78,1.34c1.87,2.36,4.09,4.19,6.65,5.49,2.56,1.3,5.31,2.08,8.24,2.32l2.56-.73c.65-.49,1.1-.81,1.34-.98.24-.16.43-.31.55-.43.12-.12.28-.3.49-.55.2-.24.55-.69,1.04-1.34.16-.32.28-.65.37-.98.08-.32.2-.69.37-1.1,0-.41.02-.77.06-1.1.04-.32.06-.69.06-1.1l-.73-2.2c-.24-.32-.51-.65-.79-.98-.29-.32-.55-.65-.79-.98-2.04-1.3-4.07-2.24-6.1-2.81-2.04-.57-4.01-1.16-5.92-1.77-1.91-.61-3.78-1.4-5.62-2.38-1.83-.98-3.56-2.56-5.19-4.76-1.55-1.95-2.38-4.21-2.5-6.78-.12-2.56.28-5.02,1.22-7.39.93-2.36,2.32-4.46,4.15-6.29s3.93-2.99,6.29-3.48c3.42-.81,6.9-.89,10.44-.24,3.54.65,6.86,1.79,9.95,3.42,1.47,1.06,2.32,2.26,2.56,3.6.24,1.34.06,2.5-.55,3.48-.61.98-1.55,1.67-2.81,2.07-1.26.41-2.71.2-4.33-.61-1.95-1.06-4.01-1.75-6.17-2.08-2.16-.32-4.33-.32-6.53,0-.24.16-.51.29-.79.37-.29.08-.55.2-.79.37-.9.98-1.55,1.93-1.95,2.87-.41.94-.57,2.1-.49,3.48.08.33.28.81.61,1.47.24.33.49.61.73.85.24.24.49.53.73.85,1.95,1.06,4.09,1.89,6.41,2.5,2.32.61,4.58,1.3,6.78,2.07,2.2.77,4.23,1.79,6.1,3.05,1.87,1.26,3.34,3.11,4.4,5.56,1.95,4.64,2.26,8.91.92,12.82-1.34,3.91-4.05,7.2-8.12,9.89-1.06.65-2.24,1.2-3.54,1.65-1.3.45-2.52.67-3.66.67-4.4,0-8.71-1-12.94-2.99-4.23-1.99-7.65-4.78-10.26-8.36Z"/>
    <path d="M254.97,123.43c-.85-.98-1.28-2.03-1.28-3.18s.47-2.26,1.4-3.36c.93-1.1,2.34-1.65,4.21-1.65h6.84v-19.29c.41-1.63,1.06-2.85,1.95-3.66.89-.81,1.91-1.22,3.05-1.22,1.06,0,2.05.37,2.99,1.1.94.73,1.61,1.87,2.01,3.42v19.66h11.72c1.55.41,2.69,1.08,3.42,2.01.73.94,1.1,1.93,1.1,2.99,0,1.14-.41,2.16-1.22,3.05-.81.9-2.04,1.55-3.66,1.95h-11.35c-.08,6.27-.08,12.72,0,19.35.08,6.63.12,13.09.12,19.35,0,1.87-.55,3.28-1.65,4.21-1.1.93-2.22,1.4-3.36,1.4s-2.2-.43-3.17-1.28c-.98-.85-1.59-2.18-1.83-3.97,0-6.35-.02-12.86-.06-19.54-.04-6.67-.06-13.19-.06-19.53h-7.2c-1.79-.24-3.11-.85-3.97-1.83Z"/>
    <path d="M306.92,167.93c-.98.94-2.06,1.42-3.24,1.47-1.18.04-2.28-.37-3.3-1.22-1.02-.85-1.65-2.18-1.89-3.97v-69.59c.32-1.54.96-2.73,1.89-3.54.93-.81,1.91-1.24,2.93-1.28,1.02-.04,2.01.3,2.99,1.04.98.73,1.71,1.87,2.2,3.42v35.77c2.12-1.22,4.01-2.48,5.68-3.78,1.67-1.3,3.32-2.73,4.94-4.27,1.63-1.55,3.28-3.24,4.94-5.07,1.67-1.83,3.48-3.85,5.43-6.04,1.38-1.14,2.75-1.67,4.09-1.59,1.34.08,2.42.53,3.24,1.34.81.81,1.26,1.89,1.34,3.24.08,1.34-.45,2.71-1.59,4.09-3.09,3.58-5.94,6.7-8.55,9.34-2.61,2.65-5.37,5.03-8.3,7.14,4.15,4.64,8.08,9.02,11.78,13.13,3.7,4.11,7.63,8.49,11.78,13.13,1.06,1.47,1.48,2.87,1.28,4.21-.2,1.34-.73,2.4-1.59,3.18-.85.77-1.95,1.14-3.3,1.1-1.34-.04-2.67-.71-3.97-2.01-4.32-4.8-8.38-9.36-12.21-13.67-3.83-4.31-7.9-8.83-12.21-13.55-.49.24-.96.49-1.4.73-.45.24-.92.49-1.4.73v22.47c-.08,1.79-.61,3.16-1.59,4.09Z"/>
    <path d="M397.78,162.98c0,.08-.04.12-.12.12.49,1.14.61,2.2.37,3.17-.24.98-.71,1.77-1.4,2.38-.69.61-1.59,1-2.69,1.16-1.1.16-2.3-.08-3.6-.73-.73-.73-1.42-1.53-2.08-2.38-.65-.85-1.22-1.73-1.71-2.63-1.63,1.39-3.38,2.67-5.25,3.85-1.87,1.18-3.74,1.81-5.62,1.89-3.26.16-6.47.2-9.65.12-3.17-.08-6.19-1.14-9.04-3.17-2.36-1.71-4.17-3.74-5.43-6.1-1.26-2.36-2.08-4.86-2.44-7.51-.37-2.64-.35-5.35.06-8.12.41-2.77,1.1-5.41,2.08-7.94.41-1.14.94-2.24,1.59-3.3.65-1.06,1.3-2.16,1.95-3.3.89-1.63,1.91-3.15,3.05-4.58,1.14-1.42,2.44-2.67,3.91-3.72,1.06-.73,2.09-1.47,3.11-2.2,1.02-.73,2.05-1.42,3.11-2.08.73-.49,1.85-1,3.36-1.53,1.51-.53,3.13-.98,4.88-1.34,1.75-.37,3.5-.55,5.25-.55s3.24.24,4.46.73c1.14-.16,2.26.12,3.36.85s1.93,1.91,2.5,3.54c0,5.54-.04,11.11-.12,16.73-.08,5.62.28,11.19,1.1,16.73.08.73.39,1.61.92,2.62.53,1.02,1.1,2.01,1.71,2.99.61.98,1.16,1.87,1.65,2.69.49.81.73,1.34.73,1.59ZM382.28,154.56c.16-.08.28-.16.37-.24.08-.08.2-.16.37-.24-1.06-4.88-1.57-9.95-1.53-15.2.04-5.25.1-10.07.18-14.47-.73,0-1.55.08-2.44.24-.9.16-1.77.39-2.63.67-.85.29-1.63.55-2.32.79-.69.24-1.2.45-1.53.61-2.44,1.14-4.52,2.62-6.23,4.46-1.71,1.83-3.11,3.87-4.21,6.1-1.1,2.24-1.93,4.6-2.5,7.08-.57,2.48-.85,4.99-.85,7.51.16.65.37,1.3.61,1.95.24.65.45,1.3.61,1.95.41.41.83.85,1.28,1.34.45.49.92.94,1.4,1.34.73.33,1.47.61,2.2.85s1.47.49,2.2.73c1.38,0,2.73.04,4.03.12,1.3.08,2.6-.08,3.91-.49,1.22-.81,2.42-1.63,3.6-2.44,1.18-.81,2.34-1.71,3.48-2.69Z"/>
    <path d="M451.81,162.98c0,.08-.04.12-.12.12.49,1.14.61,2.2.37,3.17-.24.98-.71,1.77-1.4,2.38-.69.61-1.59,1-2.69,1.16-1.1.16-2.3-.08-3.6-.73-.73-.73-1.42-1.53-2.08-2.38-.65-.85-1.22-1.73-1.71-2.63-1.63,1.39-3.38,2.67-5.25,3.85-1.87,1.18-3.74,1.81-5.62,1.89-3.26.16-6.47.2-9.65.12-3.17-.08-6.19-1.14-9.04-3.17-2.36-1.71-4.17-3.74-5.43-6.1-1.26-2.36-2.08-4.86-2.44-7.51-.37-2.64-.35-5.35.06-8.12.41-2.77,1.1-5.41,2.08-7.94.41-1.14.94-2.24,1.59-3.3.65-1.06,1.3-2.16,1.95-3.3.89-1.63,1.91-3.15,3.05-4.58,1.14-1.42,2.44-2.67,3.91-3.72,1.06-.73,2.09-1.47,3.11-2.2,1.02-.73,2.05-1.42,3.11-2.08.73-.49,1.85-1,3.36-1.53,1.51-.53,3.13-.98,4.88-1.34,1.75-.37,3.5-.55,5.25-.55s3.24.24,4.46.73c1.14-.16,2.26.12,3.36.85s1.93,1.91,2.5,3.54c0,5.54-.04,11.11-.12,16.73-.08,5.62.28,11.19,1.1,16.73.08.73.39,1.61.92,2.62.53,1.02,1.1,2.01,1.71,2.99.61.98,1.16,1.87,1.65,2.69.49.81.73,1.34.73,1.59ZM436.31,154.56c.16-.08.28-.16.37-.24.08-.08.2-.16.37-.24-1.06-4.88-1.57-9.95-1.53-15.2.04-5.25.1-10.07.18-14.47-.73,0-1.55.08-2.44.24-.9.16-1.77.39-2.63.67-.85.29-1.63.55-2.32.79-.69.24-1.2.45-1.53.61-2.44,1.14-4.52,2.62-6.23,4.46-1.71,1.83-3.11,3.87-4.21,6.1-1.1,2.24-1.93,4.6-2.5,7.08-.57,2.48-.85,4.99-.85,7.51.16.65.37,1.3.61,1.95.24.65.45,1.3.61,1.95.41.41.83.85,1.28,1.34.45.49.92.94,1.4,1.34.73.33,1.47.61,2.2.85s1.47.49,2.2.73c1.38,0,2.73.04,4.03.12,1.3.08,2.6-.08,3.91-.49,1.22-.81,2.42-1.63,3.6-2.44,1.18-.81,2.34-1.71,3.48-2.69Z"/>
    <path d="M459.16,97.91c0-1.79.57-3.31,1.71-4.58,1.14-1.26,2.52-1.89,4.15-1.89s3.03.63,4.21,1.89c1.18,1.26,1.77,2.79,1.77,4.58s-.59,3.2-1.77,4.46c-1.18,1.26-2.59,1.89-4.21,1.89s-3.01-.63-4.15-1.89c-1.14-1.26-1.71-2.75-1.71-4.46ZM470.39,164.33c-.08,1.87-.63,3.28-1.65,4.21-1.02.94-2.14,1.4-3.36,1.4-1.14,0-2.2-.43-3.17-1.28-.98-.85-1.59-2.18-1.83-3.97-.08-7.65-.14-15.46-.18-23.44-.04-7.98-.1-15.79-.18-23.44.41-1.63,1.06-2.85,1.95-3.66.89-.81,1.91-1.22,3.05-1.22,1.06,0,2.05.37,2.99,1.1.94.73,1.61,1.87,2.01,3.42.08,7.65.14,15.47.18,23.44.04,7.98.1,15.79.18,23.44Z"/>
  </g>
</svg>