<?xml version="1.0" encoding="UTF-8"?>
<svg id="Layer_1" xmlns="http://www.w3.org/2000/svg" version="1.1" viewBox="0 0 338.1388976 193.5691339">
  <!-- Generator: Adobe Illustrator 29.8.1, SVG Export Plug-In . SVG Version: 2.1.1 Build 2)  -->
  <defs>
    <style>
      .st0 {
        fill: #fff;
      }
    </style>
  </defs>
  <rect class="st0" width="338.1388976" height="193.5691339"/>
  <g id="Layer_11" data-name="Layer_1">
    <g id="Layer_1-2">
      <g id="Layer_1-21" data-name="Layer_1-2">
        <g>
          <path d="M86.1694397,48.2995625c0,.7200012.0999985,1.2999992.3000031,1.7299995.1999969.4300003.4700012.7700005.8099976,1s.7399979.3899994,1.1999969.4599991c.4599991.0800018.9499969.1100006,1.4599991.1100006h1.0599976v1.9300003h-14.3100014v-1.9300003h1.0600014c.5099983,0,.9900017-.0299988,1.4500008-.0999985s.8599968-.2099991,1.2000008-.4199982c.3399963-.2099991.6200027-.5200005.8199997-.9300003s.3000031-.9500008.3000031-1.6300011v-25.5400004h-4.4000015c-.6699982,0-1.2400017.0999999-1.7000008.3000002s-.8300018.48-1.1199989.8200002c-.2900009.3400002-.5099983.75-.6500015,1.1999998-.1399994.46-.2400017.9399996-.2999992,1.4499998l-.25,1.9799995h-2.3800011l.2200012-8.04h25.9000015l.2200012,8.04h-2.3799973l-.2200012-1.9799995c-.0599976-.5100002-.1699982-.9899998-.3099976-1.4499998-.1500015-.46-.3700027-.8599997-.6500015-1.1999998s-.6600037-.6199999-1.1200027-.8200002-1.0400009-.3000002-1.7300034-.3000002h-4.4700012v25.3199992h-.0099945Z"/>
          <path d="M113.6394409,53.529562h-13.2799988v-1.9300003h.1299973c.5199966,0,1.0100021-.0400009,1.4700012-.1100006s.8499985-.2299995,1.1900024-.4599991c.3399963-.2299995.6100006-.5600014.8099976-1,.1999969-.4300003.3000031-1.0099983.3000031-1.7299995v-14.3500004c0-.6700001-.0999985-1.2199993-.3000031-1.6299992-.1999969-.4099998-.4800034-.7299995-.8199997-.96-.3399963-.2200003-.75-.3699999-1.1999969-.4499998-.4599991-.0699997-.9400024-.1099997-1.4499969-.1099997h-.1299973v-1.9300003h7.0800018l.8799973,4.5600004h.2200012c.3000031-.6900005.6100006-1.3400002.9199982-1.9400005.3099976-.6099997.6999969-1.1400003,1.1600037-1.6000004.4599991-.46,1.0199966-.8199997,1.6999969-1.0799999s1.5199966-.3900003,2.5400009-.3900003c1.6800003,0,2.9199982.29,3.7399979.8800001.8199997.5799999,1.2200012,1.4099998,1.2200012,2.4700003,0,.4800005-.0800018.9199991-.2399979,1.3300009s-.4100037.75-.75,1.039999c-.3399963.2900009-.7900009.5200005-1.3300018.6700001-.5400009.1599998-1.1999969.2399998-1.9800034.2399998,0-1.2700005-.1800003-2.1900005-.5400009-2.75s-.9899979-.8400002-1.8899994-.8400002c-.5699997,0-1.0800018.1599998-1.5299988.4799995s-.8399963.75-1.1800003,1.2800007c-.3399963.5300007-.6200027,1.1399994-.8499985,1.8299999-.2300034.6900005-.4199982,1.3999996-.5599976,2.1199989-.1399994.7299995-.2399979,1.4500008-.3000031,2.1700001-.0599976.7199993-.0899963,1.3700008-.0899963,1.9500008v7.2300014c0,.6699982.0999985,1.2200012.3000031,1.6300011.1999969.4099998.4800034.7200012.8199997.9300003s.75.3499985,1.1999969.4199982c.4599991.0699997.9400024.0999985,1.4499969.0999985h1.2799988v1.9300003h.0099945Z"/>
          <path d="M132.4094452,30.7095633c-.8799973,0-1.5999985.1199999-2.1500015.3699999s-.9700012.6000004-1.2799988,1.039999c-.3099976.4500008-.5100021.9799995-.6200027,1.5900002-.0999985.6100006-.1600037,1.2800007-.1600037,2-1.2699966,0-2.2399979-.2199993-2.9100037-.6499996-.6699982-.4300003-1-1.1800003-1-2.25,0-.7900009.2200012-1.4700003.6500015-2.0200005s1.0299988-1.0100002,1.7900009-1.3599997c.7600021-.3500004,1.6399994-.6099997,2.6399994-.7699995s2.0699997-.25,3.2099991-.25c1.4100037,0,2.6399994.1400003,3.6800003.4200001,1.0500031.2799997,1.9199982.7299995,2.6299973,1.3599997.6999969.6300001,1.2300034,1.4499998,1.5800018,2.46s.5299988,2.25.5299988,3.7199993v11.9300003c0,.6399994.0500031,1.1800003.1600037,1.5999985.0999985.4199982.2699966.7599983.4899979,1.0099983s.5199966.4300003.8899994.5400009c.3700027.0999985.8000031.1599998,1.3099976.1599998h.1299973v1.9300003h-6.2200012l-.7200012-3.9500008h-.3799973c-.4800034.6399994-.9400024,1.2400017-1.3899994,1.7700005-.4499969.5400009-.9400024,1-1.4800034,1.3899994s-1.1500015.6899986-1.8300018.9099998-1.5.3300018-2.4599991.3300018c-1.0199966,0-1.9700012-.1500015-2.8399963-.4399986s-1.6299973-.7400017-2.2699966-1.3499985c-.6399994-.6100006-1.1299973-1.3699989-1.4899979-2.2900009s-.5400009-2.0100002-.5400009-3.2700005c0-2.4400005.8700027-4.25,2.6100006-5.4400005,1.7399979-1.1800003,4.3700027-1.8299999,7.8899994-1.9300003l3.8199997-.1299992v-2.7600002c0-.8199997-.0400009-1.5799999-.1299973-2.2800007s-.2799988-1.2900009-.5800018-1.7999992c-.3000031-.5-.7300034-.8900003-1.2900009-1.1700001s-1.3099976-.4200001-2.2600021-.4200001h0l-.0099869.000001ZM126.8394378,46.8595639c0,1.4399986.3000031,2.5099983.9100037,3.2200012.6100006.7099991,1.5500031,1.0699997,2.8199997,1.0699997.9300003,0,1.7699966-.1500015,2.5299988-.4500008s1.4000015-.7299995,1.9300003-1.2799988.9400024-1.2299995,1.2200012-2.0200005.4300003-1.6800003.4300003-2.6499996v-3.7299995l-2.9400024.1299992c-1.3000031.0599995-2.3899994.2199993-3.2699966.4799995s-1.5800018.6299992-2.1200027,1.1000004c-.5400009.4699993-.9199982,1.0499992-1.1600037,1.7399998-.2300034.6900005-.3499985,1.4799995-.3499985,2.3800011h0v.0099983Z"/>
          <path d="M157.6894439,53.9795628c-1.5299988,0-2.9400024-.2400017-4.2200012-.7099991-1.2899933-.4700012-2.3999939-1.2200012-3.3200073-2.2400017-.9299927-1.0200005-1.6499939-2.3199997-2.1699982-3.9200001-.5200043-1.5900002-.7700043-3.5200005-.7700043-5.7800007,0-2.4599991.2599945-4.5100002.7700043-6.1700001s1.2400055-2.9799995,2.1600037-3.9899998c.9199982-1,2.0099945-1.71,3.2599945-2.1300001s2.6000061-.6300001,4.0500031-.6300001c.9600067,0,1.9100037.0900002,2.8600006.2799997s1.8099976.4799995,2.5700073.8599997c.7599945.3900003,1.3800049.8800001,1.8600006,1.4700003s.7200012,1.2799997.7200012,2.0800009c0,1.0599995-.3399963,1.8099995-1.0299988,2.25-.6900024.4300003-1.7100067.6499996-3.0800018.6499996,0-.7199993-.0599976-1.3999996-.1799927-2.039999s-.3300018-1.2099991-.6199951-1.7000008-.6900024-.8699999-1.1900024-1.1499996-1.1399994-.4200001-1.9199982-.4200001c-.8800049,0-1.6799927.1700001-2.3899994.4899998-.7100067.3299999-1.3200073.8999996-1.8300018,1.710001-.5099945.8099995-.8999939,1.8899994-1.1699982,3.2600002s-.3999939,3.0699997-.3999939,5.1200008c0,3.2700005.5399933,5.7000008,1.6300049,7.2999992,1.0899963,1.5999985,2.8600006,2.4000015,5.3300018,2.4000015,1.4199982,0,2.6699982-.2999992,3.7299957-.9000015,1.0599976-.5999985,1.8600006-1.3699989,2.3800049-2.3099995.2200012.1800003.4100037.4200001.5599976.7199993s.2200012.6599998.2200012,1.0800018c0,.5200005-.1699982,1.0499992-.4900055,1.5699997-.3300018.5200005-.8200073,1-1.4700012,1.4199982s-1.4600067.7599983-2.4400024,1.0200005-2.1100006.3899994-3.4100037.3899994v.0200005h-.0000153Z"/>
          <path d="M183.4694427,38.7295628l6.1300049,9.1000004c.7899933,1.2300014,1.5800018,2.1600018,2.3699951,2.8099995.7899933.6399994,1.6999969.9700012,2.7299957.9700012h.1300049v1.9300003h-.6499939c-1.3300018,0-2.4299927-.0400009-3.2899933-.1199989-.8600006-.0800018-1.6100006-.2799988-2.2400055-.5800018-.6300049-.3100014-1.2100067-.7599983-1.7299957-1.3499985-.5200043-.5900002-1.1100006-1.4000015-1.75-2.4099998l-4.6100006-7.2099991-3.3899994,2.5200005v4.1599998c0,.6699982.1000061,1.2200012.3000031,1.6300011s.4799957.7200012.8200073.9300003c.3399963.2099991.7400055.3499985,1.1999969.4199982s.9400024.0999985,1.4499969.0999985h.1300049v1.9300003h-12.3800049v-1.9300003h.3600006c.5200043,0,1.0099945-.0400009,1.4700012-.1100006s.8500061-.2299995,1.1900024-.4599991.6100006-.5600014.8099976-1c.1999969-.4300003.3000031-1.0099983.3000031-1.7299995v-24.7000017c0-.6700001-.1000061-1.2200003-.3000031-1.6300001s-.4799957-.73-.8200073-.96c-.3399963-.2199998-.75-.3699999-1.1999969-.4400001s-.9400024-.0999999-1.4499969-.0999999h-.3600006v-1.9299998h8.4700012v17.7499995c0,.4200001,0,.9500008-.0200043,1.6100006,0,.6499996-.0399933,1.2900009-.0700073,1.9200001-.0299988.7199993-.0599976,1.4799995-.0899963,2.2700005l5.75-6.289999c.4900055-.5499992.8999939-1.0400009,1.2200012-1.4599991.3200073-.4200001.5800018-.7900009.7700043-1.1000004.1999969-.3099995.3300018-.6000004.4100037-.8400002.0700073-.25.1100006-.4799995.1100006-.71,0-.3900003-.1799927-.6400003-.5500031-.75s-.9299927-.1700001-1.6999969-.1700001v-1.9300003h10.1499939v1.9300003c-1.0599976,0-2.1100006.3699999-3.1300049,1.1199999-1.0299988.75-2.1399994,1.7999992-3.3399963,3.1700001l-3.2400055,3.6399994s.0399933,0,.0399933-.0000019Z"/>
          <path d="M198.0594391,51.5995617c.5099945,0,.9900055-.0299988,1.4499969-.0999985s.8600006-.2099991,1.1999969-.4199982.6199951-.5200005.8200073-.9300003c.1999969-.4099998.3000031-.9500008.3000031-1.6300011v-14.5799999c0-.6700001-.1000061-1.2199993-.3000031-1.6299992s-.4799957-.7299995-.8200073-.96c-.3399963-.2200003-.75-.3699999-1.1999969-.4499998-.4600067-.0699997-.9400024-.1099997-1.4499969-.1099997h-.1300049v-1.9300003h8.2200012v19.4299994c0,.7200012.1000061,1.2999992.3000031,1.7299995s.4700012.7700005.8099976,1,.7400055.3899994,1.1999969.4599991c.4600067.0800018.9499969.1100006,1.4600067.1100006h.6100006v1.9300003h-13.0700073v-1.9300003h.6100006l-.0099945.0099983ZM201.1794342,21.4095631c0-.54.0700073-.9899998.1999969-1.3499999s.3200073-.6500001.5599976-.8800001c.2400055-.22.5200043-.3800001.8300018-.47s.6600037-.1299999,1.0299988-.1299999.6999969.04,1.0099945.1300001.5899963.25.8200073.47c.2299957.22.4199982.52.5599976.8799999.1399994.3600001.2100067.8099999.2100067,1.3499999s-.0700073.9899998-.2100067,1.3499999-.3300018.6500001-.5599976.8800001c-.2299957.2199998-.5099945.3899999-.8200073.48-.3099976.1000004-.6499939.1499996-1.0099945.1499996s-.7200012-.0500002-1.0299988-.1499996c-.3099976-.1000004-.5899963-.2600002-.8300018-.48s-.4299927-.52-.5599976-.8800001-.1999969-.8099999-.1999969-1.3499999Z"/>
          <path d="M225.9394439,51.5995617v1.9300003h-12.3800049v-1.9300003h.3800049c.5200043,0,1.0099945-.0400009,1.4700012-.1100006s.8500061-.2299995,1.1900024-.4599991.6100006-.5600014.8099976-1c.1999969-.4300003.3000031-1.0099983.3000031-1.7299995v-14.3500004c0-.6700001-.1000061-1.2199993-.3000031-1.6299992s-.4799957-.7299995-.8200073-.96c-.3399963-.2200003-.75-.3699999-1.1999969-.4499998-.4600067-.0699997-.9400024-.1099997-1.4499969-.1099997h-.1300049v-1.9300003h7.4400024l.6100006,3.7300005h.2200012c.4799957-.8500004.9900055-1.5500002,1.5200043-2.1000004s1.0899963-.9700003,1.6799927-1.2799997c.5899963-.3100004,1.2200012-.5199995,1.8899994-.6300001.6699982-.1099997,1.3699951-.1700001,2.1000061-.1700001,1.2100067,0,2.2899933.1800003,3.25.5299997s1.7599945.8900003,2.4299927,1.6199999,1.1799927,1.6599998,1.5299988,2.7999992.5299988,2.4899998.5299988,4.0699997v10.8699989c0,.7200012.0899963,1.2999992.2599945,1.7299995s.4199982.7700005.7299957,1,.6900024.3899994,1.1199951.4599991c.4299927.0800018.9100037.1100006,1.4199982.1100006h.1600037v1.9300003h-8.0200043v-15.8800011c0-1-.0899963-1.8899994-.2700043-2.6700001s-.4700012-1.4400005-.8699951-1.9799995-.9199982-.9500008-1.5599976-1.2200003c-.6399994-.2799997-1.4299927-.4200001-2.3600006-.4200001-1.0500031,0-1.9299927.1999998-2.6399994.6099997-.7100067.3999996-1.2799988.9500008-1.7200012,1.6399994-.4299927.6900005-.75,1.4799995-.9299927,2.3800011s-.2799988,1.8400002-.2799988,2.8299999v9.6999989c0,.6699982.1000061,1.2200012.3000031,1.6300011s.4799957.7200012.8200073.9300003c.3399963.2099991.7400055.3499985,1.1999969.4199982s.9400024.0999985,1.4499969.0999985h.1300049l-.0099945-.0099945Z"/>
          <path d="M266.2694458,29.8395634c0,.3299999-.0500031.6400003-.1499939.9300003s-.2400055.5500002-.4400024.7600002c-.1900024.2200003-.4499969.3900003-.75.5200005-.3099976.1299992-.6699982.1900005-1.0899963.1900005,0-.1800003-.0200043-.3599997-.0700073-.54s-.1199951-.3500004-.2400055-.5100002-.2700043-.2799997-.4600067-.3800001-.4499969-.1499996-.7599945-.1499996c-.3899994,0-.7400055.04-1.0599976.1300001s-.6199951.2299995-.9199982.4300003c.5200043.6400003.9499969,1.4000006,1.2899933,2.2799997s.5099945,1.9699993.5099945,3.289999c0,1.1399994-.1699982,2.1900005-.5200043,3.1599998-.3399963.9699993-.8600006,1.7999992-1.5399933,2.5s-1.5399933,1.25-2.5800018,1.6499996c-1.0399933.3999996-2.2599945.6000004-3.6499939.6000004-.1799927,0-.3800049,0-.6100006-.0100002-.2200012,0-.4499969-.0100002-.6699982-.0200005-.2200012,0-.4299927-.0200005-.6300049-.0400009-.1900024-.0200005-.3500061-.0400009-.4700012-.0599995-.3000031.1499996-.5800018.3099995-.8500061.4899998s-.5.3799992-.7100067.6100006-.3600006.4799995-.4799957.7600002-.1799927.6000004-.1799927.9400005c0,.3700008.0700073.6700001.2100067.8999996s.3399963.4000015.5899963.5299988.5599976.2099991.9100037.25.7299957.0600014,1.1300049.0600014h5.2100067c1.3800049,0,2.5500031.1699982,3.5.5200005.9600067.3400002,1.7400055.8199997,2.3500061,1.4300003s1.0500031,1.3300018,1.3300018,2.1800003.4199982,1.7599983.4199982,2.75c0,1.3199997-.2400055,2.5099983-.7299957,3.5699997-.4900055,1.0600014-1.2299957,1.9700012-2.2400055,2.7099991-1,.7400017-2.2700043,1.3100014-3.8099976,1.7200012s-3.3399963.6100006-5.4199982.6100006c-3.2100067,0-5.6000061-.5900002-7.1900024-1.7700005s-2.3800049-2.8300018-2.3800049-4.9399986c0-.9000015.1600037-1.6800003.4700012-2.3600006.3099976-.6699982.7400055-1.25,1.2700043-1.7299995s1.1399994-.8699989,1.8300018-1.1699982,1.4199982-.5200005,2.1799927-.6500015c-.3099976-.1399994-.6199951-.3100014-.9199982-.5400009-.3000031-.2200012-.5700073-.4900017-.8099976-.8100014-.2400055-.3100014-.4299927-.6699982-.5800018-1.0800018-.1499939-.4000015-.2200012-.8499985-.2200012-1.3499985,0-.9099998.2400055-1.7000008.7200012-2.3699989.4799957-.6700001,1.2400055-1.3099995,2.2899933-1.9400005-.6600037-.2700005-1.25-.6399994-1.7599945-1.1100006s-.9499969-1.0100002-1.3000031-1.6200008-.6199951-1.2700005-.8099976-1.9899998-.2799988-1.460001-.2799988-2.2199993c0-1.3299999.1799927-2.5200005.5399933-3.5699997s.8999939-1.9400005,1.6199951-2.6700001,1.6199951-1.29,2.6999969-1.6800003,2.3399963-.5799999,3.8000031-.5799999c.5500031,0,1.1000061.04,1.6399994.1199999s1.0399933.1899996,1.4900055.3400002c.4600067.1400003.8699951.3000002,1.2400055.4799995.3699951.1800003.6600037.3699999.8899994.5600004.2200012-.2399998.4900055-.5100002.7899933-.8000002.3000031-.29.6399994-.5600004,1.0099945-.8100004s.7799988-.4499998,1.2200012-.6199999c.4400024-.1599998.9199982-.25,1.4299927-.25.4600067,0,.8699951.0600004,1.1999969.1899996.3399963.1300001.6199951.3000002.8399963.5200005s.3899994.4700003.5099945.7600002.1699982.6000004.1699982.9099998h-.0200043l.0000305-.0100002ZM246.8594421,57.5795651c0,.6699982.0899963,1.2999992.2700043,1.8899994s.4900055,1.0900002.9400024,1.5,1.0599976.75,1.8200073.9900017c.7599945.2400017,1.7299957.3600006,2.8999939.3600006,1.6499939,0,3.0099945-.1399994,4.0800018-.4199982s1.9199982-.6599998,2.5500031-1.1599998c.6300049-.4900017,1.0700073-1.0800018,1.3300018-1.7599983.25-.6800003.3800049-1.4300003.3800049-2.2400017,0-.7000008-.1000061-1.2799988-.3000031-1.7400017s-.5-.8199997-.8999939-1.0800018c-.3999939-.2599983-.8899994-.4500008-1.4700012-.5499992s-1.2599945-.1599998-2.0200043-.1599998h-4.5200043c-.6399994,0-1.2700043.0600014-1.8800049.1699982s-1.1499939.3300018-1.6199951.6399994c-.4700012.3100014-.8500061.7599983-1.1300049,1.3300018-.2899933.5699997-.4299927,1.3100014-.4299927,2.2200012h0l-.0000153.0099983ZM249.5394348,36.7995625c0,1.9599991.3300018,3.3999996.9799957,4.3099995s1.7200012,1.3700008,3.1999969,1.3700008c.75,0,1.3800049-.1100006,1.8999939-.3400002.5200043-.2199993.9400024-.5699997,1.2700043-1.0300007.3300018-.4599991.5700073-1.0599995.7100067-1.789999s.2100067-1.5900002.2100067-2.5900002c0-2.0699997-.3099976-3.5900002-.9400024-4.5799999s-1.6900024-1.4799995-3.1900024-1.4799995-2.5399933.5100002-3.1799927,1.5200005-.9600067,2.5499992-.9600067,4.6200008h0v-.0100021Z"/>
          <path d="M25.9894413,109.1895657c-1.1499996,0-2.1999998-.0999985-3.1300001-.3000031-.9400001-.1999969-1.73-.5100021-2.3900003-.9199982-.6600001-.4100037-1.1700001-.9199982-1.53-1.5299988s-.54-1.3099976-.54-2.1200027c0-.6100006.0999999-1.1299973.3-1.5400009s.45-.7399979.74-.9800034c.29-.2399979.6099999-.4100037.9399998-.5100021.3400002-.0999985.6399999-.1500015.9099998-.1500015,0,.8099976.0799999,1.5599976.25,2.2699966.1599998.6999969.4400001,1.3199997.8299999,1.8499985s.9000001.9499969,1.54,1.2600021c.6400003.3099976,1.4200001.4599991,2.3499994.4599991.8199997,0,1.5500002-.0999985,2.1800003-.3000031.6300001-.1999969,1.1599998-.4899979,1.5799999-.8499985.4300003-.3700027.75-.8099976.9799995-1.3300018s.3400002-1.0800018.3400002-1.6999969c0-.5699997-.0900002-1.0599976-.2600002-1.4700012s-.4700003-.8000031-.8999996-1.1600037c-.4300003-.3600006-1.0100002-.7300034-1.7399998-1.0999985-.7299995-.3700027-1.6599998-.8000031-2.7600002-1.2799988-1.1800003-.5199966-2.21-1.0299988-3.0900002-1.5199966s-1.5999999-1.0100021-2.1700001-1.5800018c-.5699999-.5699997-1-1.2200012-1.28-1.9400024-.28-.7300034-.4300001-1.5899963-.4300001-2.5899963s.21-1.9800034.6199999-2.7900009c.4100001-.8099976,1-1.4899979,1.7600002-2.0299988.7600002-.5500031,1.6799998-.9599991,2.7399998-1.25,1.0599995-.2900009,2.25-.4300003,3.5500002-.4300003,1.0900002,0,2.0600004.1100006,2.9000006.3399963.8400002.2200012,1.54.5299988,2.1100006.9100037.5699997.3799973,1,.8300018,1.2800007,1.3499985s.4300003,1.0599976.4300003,1.6299973c0,.8399963-.2900009,1.5100021-.8600006,2.0100021-.5799999.5-1.3999996.75-2.46.75,0-1.5400009-.3199997-2.7399979-.9499998-3.5899963-.6400003-.8499985-1.6400003-1.2799988-3-1.2799988-.7799997,0-1.4499998.0899963-2,.2699966s-1.0100002.4300003-1.3600001.7600021-.6100001.7200012-.77,1.1699982c-.1700001.4499969-.25.9400024-.25,1.4800034,0,.5800018.0999999,1.0899963.3099999,1.5199966s.54.8199997,1,1.1800003c.4599996.3600006,1.0499997.7099991,1.77,1.0400009.7300005.3399963,1.6000004.7200012,2.6199999,1.1299973,1.21.5100021,2.25,1.0100021,3.1199999,1.5s1.5800009,1.0299988,2.1500006,1.6200027.9799995,1.2399979,1.25,1.9800034c.2700005.7300034.3999996,1.5800018.3999996,2.5400009,0,1.1999969-.2199993,2.25-.6499996,3.1500015s-1.0499992,1.6500015-1.8400002,2.2600021c-.79.6100006-1.75,1.0599976-2.8599997,1.3600006-1.1199999.3000031-2.3599997.4499969-3.7200003.4499969,0,0-.0100002,0-.0100002.0000076Z"/>
          <path d="M72.1294426,96.3595639c0,2.2200012-.2099991,4.1299973-.6199989,5.75s-1.0099983,2.9499969-1.8100014,4c-.7900009,1.0500031-1.7700005,1.8199997-2.9399986,2.3300018s-2.5099983.75-4.0200005.75c-.8800011,0-1.6899986-.0999985-2.4000015-.2900009s-1.3699989-.4700012-1.9399986-.8300018c-.5800018-.3600006-1.0900002-.7900009-1.5299988-1.2799988s-.8300018-1.0400009-1.1599998-1.6399994h-.1800003c.0299988.7900009.0600014,1.5400009.0900002,2.2200012,0,.2799988.0299988.5800018.0299988.8899994s0,.5999985.0200005.8600006c0,.2699966,0,.5100021.0200005.7300034v4.9100037c0,.6699982.0999985,1.2200012.2999992,1.6299973.2000008.4100037.4799995.7300034.8199997.9400024.3400002.2200012.7400017.3600006,1.2000008.4300003s.9399986.0999985,1.4500008.0999985h.1300011v1.9300003h-12.3800011v-1.9300003h.3600006c.5200005,0,1.0099983-.0400009,1.4700012-.1100006.4599991-.0800018.8499985-.2300034,1.1899986-.4599991.3400002-.2300034.6100006-.5699997.8100014-1.0100021s.2999992-1.0199966.2999992-1.7399979v-25.3799973c0-.6699982-.0999985-1.2200012-.2999992-1.6299973-.2000008-.4100037-.4799995-.7300034-.8199997-.9599991-.3400002-.2200012-.75-.3700027-1.2000008-.4499969-.4599991-.0699997-.9399986-.1100006-1.4500008-.1100006h-.5799999v-1.9300003h8.039999l.4700012,4.1600037h.1800003c.3400002-.6999969.7299995-1.3399963,1.1699982-1.9100037.4300003-.5699997.9399986-1.0500031,1.5099983-1.4499969.5699997-.4000015,1.2099991-.6999969,1.9300003-.9199982s1.5299988-.3300018,2.4300003-.3300018c1.5099983,0,2.8499985.25,4.0200005.75,1.1699982.5,2.1500015,1.2699966,2.9399986,2.3099976.7900009,1.0400009,1.4000015,2.3600006,1.8100014,3.9599991s.6199989,3.5.6199989,5.7099991h.0200005v-.0000153ZM61.9494423,86.569563c-1.2000008,0-2.2000008.1999969-3,.5999985s-1.4399986,1-1.9199982,1.8099976-.8199997,1.8300018-1.0200005,3.0599976c-.2000008,1.2300034-.2999992,2.6699982-.2999992,4.3399963s.0999985,3.0199966.2999992,4.25.5499992,2.2600021,1.0299988,3.0999985c.4900017.8399963,1.1300011,1.4700012,1.9300003,1.9000015s1.8100014.6399994,3.0200005.6399994c1.0200005,0,1.8800011-.2099991,2.5900002-.6399994s1.2999992-1.0599976,1.75-1.9000015c.4599991-.8399963.7900009-1.8799973,1-3.1100006.2099991-1.2399979.3100014-2.6600037.3100014-4.2799988s-.0999985-3.0599976-.3100014-4.2799988c-.2099991-1.2200012-.5400009-2.2399979-1-3.0400009-.4599991-.8099976-1.0499992-1.4199982-1.7700005-1.8199997s-1.5999985-.6100006-2.6199989-.6100006v-.0199966h0l.0099983.0000076Z"/>
          <path d="M95.649443,85.9195614c-.8799973,0-1.5999985.1200027-2.1500015.3700027s-.9700012.5999985-1.2799988,1.0400009c-.3099976.4499969-.5100021.9800034-.6200027,1.5899963-.0999985.6100006-.1600037,1.2799988-.1600037,2-1.2699966,0-2.2399979-.2200012-2.9100037-.6500015-.6699982-.4300003-1-1.1800003-1-2.25,0-.7900009.2200012-1.4700012.6500015-2.0199966.4300003-.5500031,1.0299988-1.0100021,1.7900009-1.3600006s1.6399994-.6100006,2.6399994-.7699966c1-.1600037,2.0699997-.25,3.2099991-.25,1.4100037,0,2.6399994.1399994,3.6800003.4199982,1.0500031.2799988,1.9199982.7300034,2.6299973,1.3600006.6999969.6299973,1.2300034,1.4499969,1.5800018,2.4599991s.5299988,2.25.5299988,3.7200012v11.9300003c0,.6399994.0500031,1.1800003.1600037,1.5999985.0999985.4199982.2699966.7600021.4899979,1.0100021s.5199966.4300003.8899994.5400009c.3700027.0999985.8000031.1600037,1.3099976.1600037h.1299973v1.9300003h-6.2200012l-.7200012-3.9499969h-.3799973c-.4800034.6399994-.9400024,1.2399979-1.3899994,1.7699966-.4499969.5400009-.9400024,1-1.4800034,1.3899994s-1.1500015.6900024-1.8300018.9100037-1.5.3300018-2.4599991.3300018c-1.0199966,0-1.9700012-.1500015-2.8399963-.4400024s-1.6299973-.7399979-2.2699966-1.3499985-1.1299973-1.3700027-1.4899979-2.2900009-.5400009-2.0100021-.5400009-3.2699966c0-2.4400024.8700027-4.25,2.6100006-5.4400024,1.7399979-1.1800003,4.3700027-1.8300018,7.8899994-1.9300003l3.8199997-.1299973v-2.7600021c0-.8199997-.0400009-1.5800018-.1299973-2.2799988s-.2799988-1.2900009-.5800018-1.8000031c-.3000031-.5-.7300034-.8899994-1.2900009-1.1699982s-1.3099976-.4199982-2.2600021-.4199982h0l-.0099869-.0000153ZM90.0794433,102.069563c0,1.4400024.3000031,2.5100021.9100037,3.2200012s1.5500031,1.0699997,2.8199997,1.0699997c.9300003,0,1.7699966-.1500015,2.5299988-.4499969.7600021-.3000031,1.4000015-.7300034,1.9300003-1.2799988s.9400024-1.2300034,1.2200012-2.0199966c.2799988-.7900009.4300003-1.6800003.4300003-2.6500015v-3.7300034l-2.9400024.1299973c-1.3000031.0599976-2.3899994.2200012-3.2699966.4800034s-1.5800018.6299973-2.1200027,1.0999985-.9199982,1.0500031-1.1600037,1.7399979c-.2300034.6900024-.3499985,1.4800034-.3499985,2.3799973h0v.0100021Z"/>
          <path d="M129.3294433,106.7695599c.5500031,0,1.0599976-.0299988,1.5299988-.0899963.4599991-.0599976.9400024-.1299973,1.4199982-.2200012v2.0199966c-.1900024.0899963-.4499969.1800003-.7600021.2699966s-.6600037.1699982-1.0199966.2399979c-.3700027.0699997-.75.1200027-1.1600037.1600037-.4000015.0400009-.7900009.0599976-1.1500015.0599976-1.1699982,0-2.1699982-.1200027-3.0100021-.3700027s-1.5299988-.6500015-2.0699997-1.1999969-.9400024-1.2900009-1.1999969-2.1999969c-.2600021-.9100037-.3899994-2.0299988-.3899994-3.3499985v-15.3700027h-3.5v-1.8399963c.5500031,0,1.1600037-.1100006,1.8300018-.3399963.6699982-.2200012,1.25-.5999985,1.7600021-1.1200027.5199966-.5699997.9499969-1.25,1.2699966-2.0299988.3199997-.7900009.5999985-1.7700005.8399963-2.9500008h2.1100006v5.6599998h6.0199966v2.6299973h-6.0199966v15.5c0,1.5699997.3199997,2.7300034.9499969,3.4599991.6399994.7300034,1.4899979,1.0999985,2.5500031,1.0999985,0,0,0-.0199966.0000076-.0199966Z"/>
          <path d="M145.239447,106.8095608c.5099945,0,.9900055-.0299988,1.4499969-.0999985.4600067-.0699997.8600006-.2099991,1.1999969-.4199982s.6199951-.5199966.8200073-.9300003c.1999969-.4100037.3000031-.9499969.3000031-1.6299973v-14.5800018c0-.6699982-.1000061-1.2200012-.3000031-1.6299973-.1999969-.4100037-.4799957-.7300034-.8200073-.9599991-.3399963-.2200012-.75-.3700027-1.1999969-.4499969-.4600067-.0699997-.9400024-.1100006-1.4499969-.1100006h-.1300049v-1.9300003h8.2200012v19.4300003c0,.7200012.1000061,1.3000031.3000031,1.7300034s.4700012.7699966.8099976,1,.7400055.3899994,1.1999969.4599991c.4600067.0800018.9499969.1100006,1.4600067.1100006h.6100006v1.9300003h-13.0699921v-1.9300003h.6100006-.0099945l-.0000153.0099869ZM148.3594421,76.6195622c0-.5400009.0700073-.9900017.1999969-1.3499985.1399994-.3600006.3200073-.6500015.5599976-.8800011.2400055-.2200012.5200043-.3800011.8300018-.4700012s.6600037-.1300011,1.0299988-.1300011.6999969.0400009,1.0099945.1300011.5899963.25.8200073.4700012c.2299957.2200012.4199982.5200005.5599976.8800011s.2100067.8100014.2100067,1.3499985-.0700073.9900017-.2100067,1.3499985-.3300018.6500015-.5599976.8800011c-.2299957.2200012-.5099945.3899994-.8200073.4799995-.3099976.0999985-.6499939.1500015-1.0099945.1500015s-.7200012-.0499992-1.0299988-.1500015-.5899963-.2599983-.8300018-.4799995-.4299927-.5200005-.5599976-.8800011-.1999969-.8100014-.1999969-1.3499985Z"/>
          <path d="M179.6594452,109.1895657c-1.6600037,0-3.1600037-.2799988-4.4799957-.8399963s-2.4499969-1.3799973-3.3600006-2.4599991-1.6100006-2.4000015-2.1000061-3.9599991-.7299957-3.3399963-.7299957-5.3399963c0-4.3000031.8800049-7.5299988,2.6499939-9.6999969,1.7700043-2.1699982,4.2799988-3.2600021,7.5500031-3.2600021,1.4799957,0,2.8200073.2300034,4,.6999969,1.1799927.4599991,2.1900024,1.1600037,3.0099945,2.0800018.8200073.9199982,1.4600067,2.0699997,1.8999939,3.4400024.4400024,1.3700027.6600037,2.9599991.6600037,4.7699966v2.1100006h-15.3199921c.0299988,1.6800003.1999969,3.1200027.5099945,4.3199997.3099976,1.2099991.75,2.1999969,1.3300018,2.9800034.5800018.7799988,1.2799988,1.3499985,2.1199951,1.7200012s1.8000031.5500031,2.8999939.5500031c.7899933,0,1.5299988-.0899963,2.2100067-.2699966s1.3000031-.4199982,1.8500061-.7200012,1.0399933-.6399994,1.4700012-1.0199966.7799988-.7799988,1.0399933-1.1999969c.2100067.0899963.4100037.2799988.6000061.5599976s.2799988.6200027.2799988,1.0100021c0,.4599991-.1699982.9599991-.4900055,1.4899979-.3300018.5299988-.8300018,1.0199966-1.5,1.4700012s-1.5200043.8199997-2.5299988,1.1200027-2.1999969.4499969-3.5599976.4499969h0l-.0099945-.0000229ZM172.1294464,77.0895634c0-.4799995.0599976-.8800011.1799927-1.2099991.1199951-.3300018.2799988-.5999985.4900055-.7999992s.4600067-.3499985.7400055-.4399986.5899963-.1300011.9199982-.1300011.6399994.0400009.9199982.1300011.5399933.2400017.75.4399986c.2200012.2000008.3899994.4700012.5099945.7999992.1199951.3300018.1799927.7299995.1799927,1.2099991s-.0599976.8600006-.1799927,1.1899986c-.1199951.3300018-.2899933.5999985-.5099945.8100014s-.4700012.3600006-.75.4500008-.5899963.1300011-.9199982.1300011c-.6699982,0-1.2299957-.1899986-1.6699982-.5800018s-.6600037-1.0600014-.6600037-2h0ZM179.0994476,86.0995617c-1.7100067,0-3.0200043.6900024-3.9400024,2.0800018s-1.4600067,3.4100037-1.6300049,6.0800018h10.5800018c0-1.2099991-.0899963-2.3199997-.2700043-3.3199997s-.4600067-1.8600006-.8500061-2.5800018-.8999939-1.2699966-1.5399933-1.6600037c-.6399994-.3899994-1.4199982-.5800018-2.3500061-.5800018v-.0199966h.0000153ZM180.8694366,77.0895634c0-.4799995.0599976-.8800011.1799927-1.2099991.1199951-.3300018.2799988-.5999985.4900055-.7999992s.4600067-.3499985.7400055-.4399986.5899963-.1300011.9199982-.1300011.6399994.0400009.9199982.1300011.5399933.2400017.75.4399986.3899994.4700012.5099945.7999992c.1199951.3300018.1799927.7299995.1799927,1.2099991s-.0599976.8600006-.1799927,1.1899986c-.1199951.3300018-.2899933.5999985-.5099945.8100014s-.4700012.3600006-.75.4500008c-.2899933.0900002-.5899963.1300011-.9199982.1300011-.6699982,0-1.2299957-.1899986-1.6699982-.5800018s-.6600037-1.0600014-.6600037-2h0Z"/>
          <path d="M214.4394439,108.7395611h-13.2799988v-1.9300003h.1300049c.5200043,0,1.0099945-.0400009,1.4700012-.1100006s.8500061-.2300034,1.1900024-.4599991c.3399963-.2300034.6100006-.5599976.8099976-1,.1999969-.4300003.3000031-1.0100021.3000031-1.7300034v-14.3499985c0-.6699982-.1000061-1.2200012-.3000031-1.6299973-.1999969-.4100037-.4799957-.7300034-.8200073-.9599991-.3399963-.2200012-.75-.3700027-1.1999969-.4499969-.4600067-.0699997-.9400024-.1100006-1.4499969-.1100006h-.1300049v-1.9300003h7.0800018l.8800049,4.5599976h.2200012c.3000031-.6900024.6100006-1.3399963.9199982-1.9400024.3099976-.6100006.6999969-1.1399994,1.1600037-1.5999985s1.0200043-.8199997,1.6999969-1.0800018,1.5200043-.3899994,2.5399933-.3899994c1.6799927,0,2.9199982.2900009,3.7400055.8799973s1.2200012,1.4100037,1.2200012,2.4700012c0,.4800034-.0800018.9199982-.2400055,1.3300018s-.4100037.75-.75,1.0400009-.7899933.5199966-1.3300018.6699982c-.5399933.1600037-1.1999969.2399979-1.9799957.2399979,0-1.2699966-.1799927-2.1900024-.5399933-2.75s-.9900055-.8399963-1.8899994-.8399963c-.5700073,0-1.0800018.1600037-1.5299988.4800034s-.8399963.75-1.1799927,1.2799988-.6199951,1.1399994-.8500061,1.8300018-.4199982,1.4000015-.5599976,2.1200027c-.1399994.7300034-.2400055,1.4499969-.3000031,2.1699982s-.0899963,1.3700027-.0899963,1.9499969v7.2300034c0,.6699982.1000061,1.2200012.3000031,1.6299973.1999969.4100037.4799957.7200012.8200073.9300003.3399963.2099991.7400055.3499985,1.1999969.4199982s.9400024.0999985,1.4499969.0999985h1.2799988v1.9300003h.0099792Z"/>
          <path d="M233.1194366,106.8095608c.5099945,0,.9900055-.0299988,1.4499969-.0999985s.8600006-.2099991,1.1999969-.4199982.6199951-.5199966.8200073-.9300003c.1999969-.4100037.3000031-.9499969.3000031-1.6299973v-14.5800018c0-.6699982-.1000061-1.2200012-.3000031-1.6299973-.1999969-.4100037-.4799957-.7300034-.8200073-.9599991-.3399963-.2200012-.75-.3700027-1.1999969-.4499969-.4600067-.0699997-.9400024-.1100006-1.4499969-.1100006h-.1300049v-1.9300003h8.2200012v19.4300003c0,.7200012.1000061,1.3000031.3000031,1.7300034s.4700012.7699966.8099976,1,.7400055.3899994,1.1999969.4599991c.4600067.0800018.9499969.1100006,1.4600067.1100006h.6100006v1.9300003h-13.0700073v-1.9300003h.6100006l-.0099945.0099869ZM236.239447,76.6195622c0-.5400009.0700073-.9900017.1999969-1.3499985s.3200073-.6500015.5599976-.8800011c.2400055-.2200012.5200043-.3800011.8300018-.4700012s.6600037-.1300011,1.0299988-.1300011.6999969.0400009,1.0099945.1300011.5899963.25.8200073.4700012c.2299957.2200012.4199982.5200005.5599976.8800011s.2100067.8100014.2100067,1.3499985-.0700073.9900017-.2100067,1.3499985-.3300018.6500015-.5599976.8800011c-.2299957.2200012-.5099945.3899994-.8200073.4799995-.3099976.0999985-.6499939.1500015-1.0099945.1500015s-.7200012-.0499992-1.0299988-.1500015-.5899963-.2599983-.8300018-.4799995-.4299927-.5200005-.5599976-.8800011-.1999969-.8100014-.1999969-1.3499985Z"/>
          <path d="M270.1994384,106.8095608v1.9300003h-12.3800049v-1.9300003h.3800049c.5200043,0,1.0099945-.0400009,1.4700012-.1100006s.8500061-.2300034,1.1900024-.4599991c.3399963-.2300034.6100006-.5599976.8099976-1,.1999969-.4300003.3000031-1.0100021.3000031-1.7300034v-14.3499985c0-.6699982-.1000061-1.2200012-.3000031-1.6299973-.1999969-.4100037-.4799957-.7300034-.8200073-.9599991-.3399963-.2200012-.75-.3700027-1.1999969-.4499969-.4600067-.0699997-.9400024-.1100006-1.4499969-.1100006h-.1300049v-1.9300003h7.4400024l.6100006,3.7300034h.2200012c.4799957-.8499985.9900055-1.5500031,1.5200043-2.0999985.5299988-.5500031,1.0899963-.9700012,1.6799927-1.2799988s1.2200012-.5199966,1.8899994-.6299973c.6700134-.1100006,1.3699951-.1699982,2.1000061-.1699982,1.2099915,0,2.2900085.1800003,3.25.5299988s1.7600098.8899994,2.4299927,1.6200027c.6700134.7300034,1.1799927,1.6600037,1.5299988,2.8000031s.5299988,2.4899979.5299988,4.0699997v10.8700027c0,.7200012.0899963,1.3000031.2600098,1.7300034s.4200134.7699966.730011,1,.6900024.3899994,1.1199951.4599991c.4299927.0800018.9100037.1100006,1.4200134.1100006h.1600037v1.9300003h-8.019989v-15.8799973c0-1-.0899963-1.8899994-.269989-2.6699982s-.4700012-1.4400024-.8699951-1.9800034-.9200134-.9499969-1.5599976-1.2200012c-.6400146-.2799988-1.4299927-.4199982-2.3600006-.4199982-1.0500031,0-1.9299927.1999969-2.6399994.6100006-.7100067.4000015-1.2799988.9499969-1.7200012,1.6399994-.4299927.6900024-.75,1.4800034-.9299927,2.3799973s-.2799988,1.8399963-.2799988,2.8300018v9.6999969c0,.6699982.1000061,1.2200012.3000031,1.6299973.1999969.4100037.4799957.7200012.8200073.9300003.3399963.2099991.7400055.3499985,1.1999969.4199982s.9400024.0999985,1.4499969.0999985h.1300049-.0099945l-.0000763-.0100174Z"/>
          <path d="M319.7294525,85.0395642c0,.3300018-.0499878.6399994-.1499939.9300003s-.2399902.5500031-.4400024.7600021c-.1900024.2200012-.4500122.3899994-.75.5199966-.3099976.1299973-.6700134.1900024-1.0899963.1900024,0-.1800003-.019989-.3600006-.0700073-.5400009s-.1199951-.3499985-.2399902-.5100021-.269989-.2799988-.4599915-.3799973-.4500122-.1500015-.7600098-.1500015c-.3900146,0-.7399902.0400009-1.0599976.1299973s-.6199951.2300034-.9200134.4300003c.519989.6399994.9500122,1.4000015,1.2900085,2.2799988s.5100098,1.9700012.5100098,3.2900009c0,1.1399994-.1700134,2.1900024-.519989,3.1600037-.3399963.9700012-.8599854,1.8000031-1.5400085,2.5s-1.5400085,1.25-2.5799866,1.6500015c-1.0400085.4000015-2.2600098.5999985-3.6499939.5999985-.1799927,0-.3800049,0-.6099854-.0100021-.2200012,0-.4500122-.0100021-.6700134-.0199966-.2200012,0-.4299927-.0199966-.6300049-.0400009-.1900024-.0199966-.3500061-.0400009-.4700012-.0599976-.2999878.1500015-.5799866.3099976-.8500061.4899979-.269989.1800003-.5.3799973-.7099915.6100006s-.3599854.4800034-.480011.7600021c-.1199951.2799988-.1799927.5999985-.1799927.9400024,0,.3700027.0700073.6699982.2099915.9000015.1400146.2300034.3399963.4000015.5899963.5299988s.5599976.2099991.9100037.25.730011.0599976,1.1300049.0599976h5.2099915c1.3800049,0,2.5499878.1699982,3.5.5199966.9599915.3399963,1.7399902.8199997,2.3500061,1.4300003s1.0499878,1.3300018,1.3299866,2.1800003.4200134,1.7600021.4200134,2.75c0,1.3199997-.2399902,2.5100021-.730011,3.5699997-.4899902,1.0599976-1.230011,1.9700012-2.2399902,2.7099991-1,.7399979-2.269989,1.3099976-3.8099976,1.7200012s-3.3399963.6100006-5.4200134.6100006c-3.2099915,0-5.6000061-.5899963-7.1900024-1.7699966s-2.3800049-2.8300018-2.3800049-4.9400024c0-.9000015.1600037-1.6800003.4700012-2.3600006.3099976-.6699982.7399902-1.25,1.269989-1.7300034s1.1400146-.8700027,1.8299866-1.1699982c.6900024-.3000031,1.4200134-.5199966,2.1799927-.6500015-.3099976-.1399994-.6199951-.3099976-.9200134-.5400009-.2999878-.2200012-.5700073-.4899979-.8099976-.8099976-.2399902-.3099976-.4299927-.6699982-.5799866-1.0800018-.1499939-.4000015-.2200012-.8499985-.2200012-1.3499985,0-.9100037.2399902-1.6999969.7200012-2.3700027.480011-.6699982,1.2399902-1.3099976,2.2900085-1.9400024-.6600037-.2699966-1.25-.6399994-1.7600098-1.1100006s-.9500122-1.0100021-1.2999878-1.6200027c-.3500061-.6100006-.6199951-1.2699966-.8099976-1.9899979s-.2799988-1.4599991-.2799988-2.2200012c0-1.3300018.1799927-2.5199966.5400085-3.5699997.3599854-1.0500031.8999939-1.9400024,1.6199951-2.6699982.7200012-.7300034,1.6199951-1.2900009,2.7000122-1.6800003,1.0799866-.3899994,2.3399963-.5800018,3.7999878-.5800018.5499878,0,1.1000061.0400009,1.6400146.1200027s1.0400085.1900024,1.4899902.3399963c.4599915.1399994.8699951.3000031,1.2399902.4800034s.6600037.3700027.8900146.5599976c.2200012-.2399979.4899902-.5100021.7900085-.8000031.2999878-.2900009.6400146-.5599976,1.0100098-.8099976s.7799988-.4499969,1.2200012-.6200027c.4400024-.1600037.9200134-.25,1.4299927-.25.4599915,0,.8699951.0599976,1.2000122.1900024.3399963.1299973.6199951.3000031.8399963.5199966.2200012.2200012.3900146.4700012.5100098.7600021s.1700134.5999985.1700134.9100037h-.019989l-.000061-.0099945ZM300.3194488,112.7895642c0,.6699982.0899963,1.3000031.269989,1.8899994s.4899902,1.0899963.9400024,1.5,1.0599976.75,1.8200073.9899979,1.730011.3600006,2.8999939.3600006c1.6499939,0,3.0100098-.1399994,4.0799866-.4199982,1.0700073-.2799988,1.9200134-.6600037,2.5499878-1.1600037.6300049-.4899979,1.0700073-1.0800018,1.3299866-1.7600021.25-.6800003.3800049-1.4300003.3800049-2.2399979,0-.6999969-.1000061-1.2799988-.2999878-1.7399979s-.5-.8199997-.8999939-1.0800018-.8900146-.4499969-1.4700012-.5500031c-.5799866-.0999985-1.2600098-.1600037-2.019989-.1600037h-4.519989c-.6400146,0-1.269989.0599976-1.8800049.1699982s-1.1499939.3300018-1.6199951.6399994-.8500061.7600021-1.1300049,1.3300018c-.2900085.5699997-.4299927,1.3099976-.4299927,2.2200012h0v.0100098ZM302.9994415,92.0095654c0,1.9599991.3299866,3.4000015.980011,4.3099976.6499939.9100037,1.7200012,1.3700027,3.2000122,1.3700027.75,0,1.3800049-.1100006,1.8999939-.3399963.519989-.2200012.9400024-.5699997,1.269989-1.0299988s.5700073-1.0599976.7099915-1.7900009c.1400146-.7300034.2099915-1.5899963.2099915-2.5899963,0-2.0699997-.3099976-3.5899963-.9400024-4.5800018-.6300049-.9899979-1.6900024-1.4800034-3.1900024-1.4800034s-2.5400085.5100021-3.1799927,1.5199966c-.6400146,1.0100021-.9599915,2.5500031-.9599915,4.6200027h0v-.0100021Z"/>
          <path d="M128.649443,140.2495633c0,.3300018-.0500031.6399994-.1500015.9300003s-.2399979.5500031-.4400024.7600021c-.1900024.2200012-.4499969.3899994-.75.5199966-.3099976.1299973-.6699982.1900024-1.0899963.1900024,0-.1800003-.0199966-.3600006-.0699997-.5400009s-.1200027-.3499985-.2399979-.5100021-.2699966-.2799988-.4599991-.3799973-.4499969-.1500015-.7600021-.1500015c-.3899994,0-.7399979.0400009-1.0599976.1299973s-.6200027.2300034-.9199982.4300003c.5199966.6399994.9599991,1.4000015,1.2900009,2.2799988s.5100021,1.9699936.5100021,3.2900009c0,1.1399994-.1699982,2.1900024-.5199966,3.1600037-.3399963.9700012-.8600006,1.8000031-1.5400009,2.5s-1.5400009,1.25-2.5800018,1.6499939-2.2600021.6000061-3.6500015.6000061h-.6100006c-.2200012,0-.4499969,0-.6699982-.0200043-.2200012,0-.4300003-.0200043-.6299973-.0399933-.1900024-.0200043-.3499985-.0399933-.4700012-.0599976-.3000031.1499939-.5800018.3099976-.8499985.4900055-.2699966.1799927-.5100021.3800049-.7099991.6100006s-.3600006.4799957-.4800034.7599945-.1800003.6000061-.1800003.9400024c0,.3699951.0699997.6699982.2099991.8999939s.3399963.3999939.5999985.5299988.5599976.2100067.9100037.25c.3499985.0399933.7300034.0599976,1.1299973.0599976h5.2099991c1.3799973,0,2.5500031.1699982,3.5.5200043.9599991.3399963,1.7399979.8200073,2.3499985,1.4299927s1.0500031,1.3300018,1.3300018,2.1799927c.2799988.8500061.4199982,1.7599945.4199982,2.75,0,1.3200073-.2399979,2.5099945-.7300034,3.5700073-.4899979,1.0599976-1.2300034,1.9700012-2.2399979,2.7100067-1,.7400055-2.2699966,1.3099976-3.8099976,1.7200012-1.5400009.3999939-3.3399963.6100006-5.4300003.6100006-3.2099991,0-5.5999985-.5899963-7.1900024-1.7700043-1.5899963-1.1799927-2.3799973-2.8300018-2.3799973-4.9400024,0-.8999939.1600037-1.6799927.4700012-2.3600006.3099976-.6699982.7399979-1.25,1.2699966-1.7299957s1.1399994-.8699951,1.8300018-1.1699982,1.4199982-.5200043,2.1800003-.6499939c-.3099976-.1399994-.6200027-.3099976-.9199982-.5399933-.3000031-.2200012-.5699997-.4900055-.8099976-.8099976-.2399979-.3099976-.4300003-.6699982-.5800018-1.0800018s-.2200012-.8500061-.2200012-1.3500061c0-.9100037.2399979-1.6999969.7200012-2.3699951s1.2399979-1.3099976,2.2900009-1.9400024c-.6600037-.2700043-1.25-.6399994-1.7600021-1.1100006-.5199966-.4700012-.9499969-1.0099945-1.3000031-1.6199951-.3499985-.6100006-.6200027-1.2700043-.8099976-1.9900055-.1900024-.7200012-.2799988-1.4600067-.2799988-2.2200012,0-1.3300018.1800003-2.5200043.5400009-3.5699997s.9000015-1.9400024,1.6200027-2.6699982c.7200012-.7300034,1.6200027-1.2900009,2.6999969-1.6800003,1.0800018-.3899994,2.3399963-.5800018,3.8000031-.5800018.5500031,0,1.0999985.0400009,1.6399994.1200027s1.0400009.1900024,1.4899979.3399963c.4599991.1399994.8700027.3000031,1.2399979.4800034.3700027.1800003.6600037.3700027.8899994.5599976.2200012-.2399979.4899979-.5100021.7900009-.8000031s.6399994-.5599976,1.0100021-.8099976.7799988-.4499969,1.2200012-.6200027c.4400024-.1600037.9199982-.25,1.4300003-.25.4599991,0,.8700027.0599976,1.1999969.1900024.3399963.1299973.6200027.3000031.8399963.5199966s.3899994.4700012.5100021.7600021.1699982.5999985.1699982.9100037h-.0199966v-.0199966l-.0000076-.0000153ZM109.2494415,167.9895688c0,.6699982.0899963,1.3000031.2699966,1.8899994.1800003.5800018.4899979,1.0899963.9400024,1.5s1.0599976.75,1.8199997.9900055,1.7300034.3600006,2.9000015.3600006c1.6500015,0,3.0100021-.1399994,4.0800018-.4199982s1.9199982-.6600037,2.5500031-1.1600037,1.0699997-1.0800018,1.3300018-1.7599945c.25-.6799927.3799973-1.4299927.3799973-2.2400055,0-.6999969-.0999985-1.2799988-.3000031-1.7400055-.1999969-.4600067-.5-.8200073-.9000015-1.0800018s-.8899994-.4499969-1.4700012-.5500031-1.2600021-.1600037-2.0199966-.1600037h-4.5199966c-.6399994,0-1.2699966.0599976-1.8799973.1699982s-1.1500015.3300018-1.6200027.6399994-.8499985.7599945-1.1299973,1.3300018-.4300003,1.3099976-.4300003,2.2200012h0l-.0000076.0100098ZM111.9194397,147.20957c0,1.9600067.3300018,3.3999939.9800034,4.3099976s1.7200012,1.3699951,3.1999969,1.3699951c.75,0,1.3799973-.1100006,1.9000015-.3399963s.9400024-.5700073,1.2699966-1.0299988c.3300018-.4600067.5699997-1.0599976.7099991-1.7899933s.2099991-1.5899963.2099991-2.5899963c0-2.0700073-.3099976-3.5899963-.9400024-4.5800018-.6299973-.9899979-1.6900024-1.4800034-3.1900024-1.4800034s-2.5400009.5100021-3.1800003,1.5199966-.9499969,2.5500031-.9499969,4.6199951h0l-.0099945-.0099945Z"/>
          <path d="M135.9994415,164.3995572c-1.6600037,0-3.1600037-.2799988-4.4800034-.8399963-1.3300018-.5599976-2.4499969-1.3800049-3.3600006-2.4600067s-1.6100006-2.3999939-2.0999985-3.9600067c-.4899979-1.5599976-.7300034-3.3399963-.7300034-5.3399963,0-4.3000031.8799973-7.5299988,2.6500015-9.6999969,1.7699966-2.1699982,4.2799988-3.2600021,7.5500031-3.2600021,1.4800034,0,2.8199997.2300034,4,.6999969,1.1800003.4599991,2.1900024,1.1600037,3.0100021,2.0800018s1.4599991,2.0699997,1.9000015,3.4399948.6600037,2.9600067.6600037,4.7700043v2.1100006h-15.3199997c.0299988,1.6799927.1999969,3.1199951.5100021,4.3200073.3099976,1.2100067.75,2.1999969,1.3300018,2.9799957s1.2799988,1.3500061,2.1200027,1.7200012c.8399963.3699951,1.8000031.5500031,2.9000015.5500031.7900009,0,1.5299988-.0899963,2.2099991-.2700043.6800003-.1799927,1.3000031-.4199982,1.8499985-.7200012.5500031-.3000031,1.0400009-.6399994,1.4700012-1.0200043s.7699966-.7799988,1.0400009-1.1999969c.2099991.0899963.4100037.2799988.5999985.5599976.1900024.2799988.2799988.6199951.2799988,1.0099945,0,.4600067-.1699982.9600067-.4899979,1.4900055-.3300018.5299988-.8300018,1.0200043-1.5,1.4700012s-1.5199966.8200073-2.5299988,1.1199951-2.1999969.4499969-3.5599976.4499969h-.0100021l-.0000153.0000153ZM135.4394439,141.3095608c-1.7099991,0-3.0199966.6900024-3.9400024,2.0800018-.9199982,1.3899994-1.4599991,3.4100037-1.6299973,6.0800018h10.5800018c0-1.2100067-.0899963-2.3200073-.2699966-3.3200073s-.4599991-1.8600006-.8499985-2.5800018-.9000015-1.2699966-1.5400009-1.6600037-1.4199982-.5800018-2.3499985-.5800018c0,0,0-.0199966-.0000076-.019989Z"/>
          <path d="M156.9194397,161.3195706c.5399933,0,.9799957-.1000061,1.3399963-.3099976.3500061-.2100067.6399994-.4900055.8800049-.8300018.2299957-.3399963.4199982-.75.5599976-1.1999969.1399994-.4600067.2700043-.9299927.3699951-1.4299927l.2200012-1.0599976h1.9299927l-.2200012,7.4600067h-18.7799988v-1.8399963l13.3399963-20.1900024h-7.1900024c-.6000061,0-1.0899963.0800018-1.4799957.2399979s-.7100067.3899994-.9499969.7099991-.4499969.6999969-.6100006,1.1699982c-.1600037.4600067-.3200073,1-.4799957,1.6199951l-.0399933.1799927h-1.9300003l.4500046-6.5400009h17.6300049v1.8899994l-13.3899994,20.1500015h8.3600006v-.0200043h-.0100098Z"/>
          <path d="M171.7494415,164.3995572c-1.6600037,0-3.1600037-.2799988-4.4799957-.8399963s-2.4499969-1.3800049-3.3600006-2.4600067-1.6100006-2.3999939-2.1000061-3.9600067c-.4900055-1.5599976-.7299957-3.3399963-.7299957-5.3399963,0-4.3000031.8800049-7.5299988,2.6499939-9.6999969,1.7700043-2.1699982,4.2799988-3.2600021,7.5500031-3.2600021,1.4799957,0,2.8200073.2300034,4,.6999969,1.1799927.4599991,2.1900024,1.1600037,3.0099945,2.0800018.8200073.9199982,1.4600067,2.0699997,1.8999939,3.4399948.4400024,1.3699951.6600037,2.9600067.6600037,4.7700043v2.1100006h-15.3199921c.0299988,1.6799927.1999969,3.1199951.5099945,4.3200073.3099976,1.2100067.75,2.1999969,1.3300018,2.9799957s1.2799988,1.3500061,2.1199951,1.7200012,1.8000031.5500031,2.8999939.5500031c.7899933,0,1.5299988-.0899963,2.2100067-.2700043s1.3000031-.4199982,1.8500061-.7200012,1.0399933-.6399994,1.4700012-1.0200043.7799988-.7799988,1.0399933-1.1999969c.2100067.0899963.4100037.2799988.6000061.5599976s.2799988.6199951.2799988,1.0099945c0,.4600067-.1699982.9600067-.4900055,1.4900055-.3300018.5299988-.8300018,1.0200043-1.5,1.4700012s-1.5200043.8200073-2.5299988,1.1199951-2.1999969.4499969-3.5599976.4499969h0l-.0099945.0000153ZM171.1894439,141.3095608c-1.7100067,0-3.0200043.6900024-3.9400024,2.0800018s-1.4600067,3.4100037-1.6300049,6.0800018h10.5800018c0-1.2100067-.0899963-2.3200073-.2700043-3.3200073s-.4600067-1.8600006-.8500061-2.5800018-.8999939-1.2699966-1.5399933-1.6600037-1.4199982-.5800018-2.3500061-.5800018v-.0199966h0l.0000153.0000076Z"/>
          <path d="M178.6794342,162.0195675c.5200043,0,1.0099945-.0399933,1.4700012-.1100006s.8500061-.2299957,1.1900024-.4600067c.3399963-.2299957.6100006-.5599976.8099976-1,.1999969-.4299927.3000031-1.0099945.3000031-1.7299957v-24.6699982c0-.6699982-.1000061-1.2200012-.3000031-1.6299973s-.4799957-.7300034-.8200073-.9599991c-.3399963-.2200012-.75-.3700027-1.1999969-.4400024s-.9400024-.0999985-1.4499969-.0999985h-.5800018v-1.9300003h8.6900024v29.7200012c0,.7200012.1000061,1.3000031.2899933,1.7299957.1999969.4299927.4600067.7700043.8099976,1,.3399963.2299957.7400055.3899994,1.1999969.4600067.4600067.0800018.9499969.1100006,1.4700012.1100006h.5800018v1.9299927h-13.0500031v-1.9299927h.5899963l.0000153.0099945Z"/>
          <path d="M188.9094452,162.0195675c.5200043,0,1.0099945-.0399933,1.4700012-.1100006s.8500061-.2299957,1.1900024-.4600067c.3399963-.2299957.6100006-.5599976.8099976-1,.1999969-.4299927.3000031-1.0099945.3000031-1.7299957v-24.6699982c0-.6699982-.1000061-1.2200012-.3000031-1.6299973s-.4799957-.7300034-.8200073-.9599991c-.3399963-.2200012-.75-.3700027-1.1999969-.4400024s-.9400024-.0999985-1.4499969-.0999985h-.5800018v-1.9300003h8.6900024v29.7200012c0,.7200012.1000061,1.3000031.2899933,1.7299957.1999969.4299927.4600067.7700043.8099976,1,.3399963.2299957.7400055.3899994,1.1999969.4600067.4600067.0800018.9499969.1100006,1.4700012.1100006h.5800018v1.9299927h-13.0500031v-1.9299927h.5899963l.0000153.0099945Z"/>
          <path d="M199.3794464,162.0195675c.5099945,0,.9900055-.0299988,1.4499969-.1000061s.8600006-.2100067,1.1999969-.4199982c.3399963-.2100067.6199951-.5200043.8200073-.9299927.1999969-.4100037.3000031-.9499969.3000031-1.6300049v-14.5800018c0-.6699982-.1000061-1.2200012-.3000031-1.6299973s-.4799957-.7300034-.8200073-.9599991c-.3399963-.2200012-.75-.3700027-1.1999969-.4499969-.4600067-.0699997-.9400024-.1100006-1.4499969-.1100006h-.1300049v-1.9300003h8.2200012v19.4300003c0,.7200012.1000061,1.3000031.3000031,1.7299957s.4700012.7700043.8099976,1,.7400055.3899994,1.1999969.4600067c.4600067.0800018.9499969.1100006,1.4600067.1100006h.6100006v1.9299927h-13.0700073v-1.9299927h.6100006l-.0099945.0099945ZM202.509436,131.8295651c0-.5400009.0700073-.9899979.1999969-1.3499985s.3200073-.6500015.5599976-.8799973c.2400055-.2200012.5200043-.3799973.8300018-.4700012s.6600037-.1299973,1.0299988-.1299973.6999969.0400009,1.0099945.1299973.5899963.25.8200073.4700012c.2299957.2200012.4199982.5199966.5599976.8799973s.2100067.8099976.2100067,1.3499985-.0700073.9899979-.2100067,1.3499985-.3300018.6500015-.5599976.8799973c-.2299957.2200012-.5099945.3899994-.8200073.4800034-.3099976.0999985-.6499939.1500015-1.0099945.1500015s-.7200012-.0500031-1.0299988-.1500015-.5899963-.2600021-.8300018-.4800034-.4299927-.5199966-.5599976-.8799973-.1999969-.8099976-.1999969-1.3499985Z"/>
          <path d="M231.5994476,140.2495633c0,.3300018-.0500031.6399994-.1499939.9300003s-.2400055.5500031-.4400024.7600021c-.1900024.2200012-.4499969.3899994-.75.5199966-.3099976.1299973-.6699982.1900024-1.0899963.1900024,0-.1800003-.0200043-.3600006-.0700073-.5400009s-.1199951-.3499985-.2400055-.5100021-.2700043-.2799988-.4600067-.3799973-.4499969-.1500015-.7599945-.1500015c-.3899994,0-.7400055.0400009-1.0599976.1299973s-.6199951.2300034-.9199982.4300003c.5200043.6399994.9499969,1.4000015,1.2899933,2.2799988s.5099945,1.9699936.5099945,3.2900009c0,1.1399994-.1699982,2.1900024-.5200043,3.1600037-.3399963.9700012-.8600006,1.8000031-1.5399933,2.5s-1.5399933,1.25-2.5800018,1.6499939c-1.0399933.3999939-2.2599945.6000061-3.6499939.6000061h-.6100006c-.2200012,0-.4499969,0-.6699982-.0200043-.2200012,0-.4299927-.0200043-.6300049-.0399933-.1900024-.0200043-.3500061-.0399933-.4700012-.0599976-.3000031.1499939-.5800018.3099976-.8500061.4900055-.2700043.1799927-.5.3800049-.7100067.6100006s-.3600006.4799957-.4799957.7599945-.1799927.6000061-.1799927.9400024c0,.3699951.0700073.6699982.2100067.8999939s.3399963.3999939.5899963.5299988.5599976.2100067.9100037.25.7299957.0599976,1.1300049.0599976h5.2100067c1.3800049,0,2.5500031.1699982,3.5.5200043.9600067.3399963,1.7400055.8200073,2.3500061,1.4299927s1.0500031,1.3300018,1.3300018,2.1799927c.2799988.8500061.4199982,1.7599945.4199982,2.75,0,1.3200073-.2400055,2.5099945-.7299957,3.5700073-.4900055,1.0599976-1.2299957,1.9700012-2.2400055,2.7100067-1,.7400055-2.2700043,1.3099976-3.8099976,1.7200012s-3.3399963.6100006-5.4199982.6100006c-3.2100067,0-5.6000061-.5899963-7.1900024-1.7700043-1.5899963-1.1799927-2.3800049-2.8300018-2.3800049-4.9400024,0-.8999939.1600037-1.6799927.4700012-2.3600006.3099976-.6699982.7400055-1.25,1.2700043-1.7299957s1.1399994-.8699951,1.8300018-1.1699982,1.4199982-.5200043,2.1799927-.6499939c-.3099976-.1399994-.6199951-.3099976-.9199982-.5399933-.3000031-.2200012-.5700073-.4900055-.8099976-.8099976-.2400055-.3099976-.4299927-.6699982-.5800018-1.0800018-.1499939-.3999939-.2200012-.8500061-.2200012-1.3500061,0-.9100037.2400055-1.6999969.7200012-2.3699951s1.2400055-1.3099976,2.2899933-1.9400024c-.6600037-.2700043-1.25-.6399994-1.7599945-1.1100006s-.9499969-1.0099945-1.3000031-1.6199951-.6199951-1.2700043-.8099976-1.9900055-.2799988-1.4600067-.2799988-2.2200012c0-1.3300018.1799927-2.5200043.5399933-3.5699997s.8999939-1.9400024,1.6199951-2.6699982c.7200012-.7300034,1.6199951-1.2900009,2.6999969-1.6800003s2.3399963-.5800018,3.8000031-.5800018c.5500031,0,1.1000061.0400009,1.6399994.1200027s1.0399933.1900024,1.4900055.3399963c.4600067.1399994.8699951.3000031,1.2400055.4800034.3699951.1800003.6600037.3700027.8899994.5599976.2200012-.2399979.4900055-.5100021.7899933-.8000031.3000031-.2900009.6399994-.5599976,1.0099945-.8099976s.7799988-.4499969,1.2200012-.6200027c.4400024-.1600037.9199982-.25,1.4299927-.25.4600067,0,.8699951.0599976,1.1999969.1900024.3399963.1299973.6199951.3000031.8399963.5199966.2200012.2200012.3899994.4700012.5099945.7600021s.1699982.5999985.1699982.9100037h-.0200043v-.0199966l.0000305-.0000153ZM212.1894439,167.9895688c0,.6699982.0899963,1.3000031.2700043,1.8899994s.4900055,1.0899963.9400024,1.5,1.0599976.75,1.8200073.9900055c.7599945.2400055,1.7299957.3600006,2.8999939.3600006,1.6499939,0,3.0099945-.1399994,4.0800018-.4199982s1.9199982-.6600037,2.5500031-1.1600037c.6300049-.4900055,1.0700073-1.0800018,1.3300018-1.7599945.25-.6799927.3800049-1.4299927.3800049-2.2400055,0-.6999969-.1000061-1.2799988-.3000031-1.7400055s-.5-.8200073-.8999939-1.0800018-.8899994-.4499969-1.4700012-.5500031-1.2599945-.1600037-2.0200043-.1600037h-4.5200043c-.6399994,0-1.2700043.0599976-1.8800049.1699982s-1.1499939.3300018-1.6199951.6399994-.8500061.7599945-1.1300049,1.3300018c-.2899933.5700073-.4299927,1.3099976-.4299927,2.2200012h0l-.0000153.0100098ZM214.8694366,147.20957c0,1.9600067.3300018,3.3999939.9799957,4.3099976s1.7200012,1.3699951,3.1999969,1.3699951c.75,0,1.3800049-.1100006,1.8999939-.3399963.5200043-.2200012.9400024-.5700073,1.2700043-1.0299988.3300018-.4600067.5700073-1.0599976.7100067-1.7899933s.2100067-1.5899963.2100067-2.5899963c0-2.0700073-.3099976-3.5899963-.9400024-4.5800018-.6300049-.9899979-1.6900024-1.4800034-3.1900024-1.4800034s-2.5399933.5100021-3.1799927,1.5199966-.9600067,2.5500031-.9600067,4.6199951h0v-.0099945Z"/>
        </g>
      </g>
    </g>
  </g>
</svg>