<?xml version="1.0" encoding="UTF-8"?>
<svg xmlns="http://www.w3.org/2000/svg" version="1.1" viewBox="0 0 538.58 538.58">
  <!-- Generator: Adobe Illustrator 29.0.0, SVG Export Plug-In . SVG Version: 1.2.0 Build 15)  -->
  <g>
    <g id="Layer_1">
      <g id="Layer_1-2" data-name="Layer_1">
        <g id="Layer_1-2">
          <g>
            <path d="M187.97,217.89l1.25,2.29-25.43,18.8c4.98,0,10.07,1.25,15.26,3.76s9.11,5.99,11.76,10.45,3.98,9.12,3.98,14c0,7.75-2.68,15.21-8.04,22.39-5.36,7.17-13,13.08-22.91,17.72s-19.25,6.96-28.03,6.96-16.07-1.88-23.01-5.64c-6.94-3.76-12.07-8.47-15.39-14.14-3.32-5.66-4.98-11.9-4.98-18.73,0-7.66,1.86-14.78,5.58-21.38,3.72-6.59,10.62-13.88,20.69-21.87l28.15-22.35c7.84,3.81,13.96,6.34,18.37,7.59,4.41,1.25,8.74,1.88,13.01,1.88,3.2,0,6.45-.58,9.74-1.74h0ZM120.49,235.02c-5.34,5.48-9.09,10.63-11.24,15.46-2.16,4.83-3.24,10.45-3.24,16.85,0,5.15.7,9.7,2.13,13.65,1.41,3.95,3.52,7.75,6.3,11.42,2.65-2.41,4.32-4.46,5.01-6.12.7-1.67,1.04-4.78,1.04-9.33v-41.93h0ZM144.17,254.88c-3.72,1.78-6.78,3.58-9.19,5.41v11.7c0,3.58-.25,5.98-.77,7.21-.51,1.23-1.6,2.52-3.27,3.86-1.02.79-1.86,1.44-2.51,1.95l-11.96,10.03c4.17,4.41,8.42,7.66,12.73,9.77s9.3,3.32,14.96,3.65v-53.59h0ZM136.16,222.2l-1.18,1.18v32.94l32.57-24.52c-10.16-2.55-20.63-5.75-31.38-9.6,0,0,0,0,0,0h0ZM147.24,270.25c3.25,2.23,6.22,3.81,8.91,4.74,2.69.93,5.66,1.39,8.91,1.39,2.97,0,5.71-.37,8.22-1.11s5.69-2.2,9.54-4.39c-1.16-4.86-3.29-8.81-6.41-11.81-5.06-4.91-11.38-7.37-18.94-7.37-3.2,0-6.62.63-10.24,1.88v16.68h0ZM147.24,289.61c5.8-3.11,11.31-4.67,16.5-4.67s10.33,1.42,15.95,4.24c2.37-4.92,3.55-9.61,3.55-14.07v-.91c-4.17,2.12-7.55,3.53-10.1,4.23-2.56.7-5.34,1.06-8.36,1.06s-5.78-.44-8.7-1.34-5.87-2.21-8.84-3.95v15.39h0ZM147.24,308.41c4.32-.23,7.84-.84,10.58-1.81,4.17-1.44,8.12-3.53,11.83-6.27,2.79-2.04,5.62-4.87,8.5-8.5-5.62-2.32-10.58-3.48-14.9-3.48-5.24,0-10.58,1.53-16.02,4.6v15.46h0,0Z"/>
            <path d="M253.26,250.19v52.08c-6.98,2.83-12.02,5.15-15.14,6.96-2.37,1.34-4.65,3.02-6.84,5.01-6.74-4.08-12.32-6.91-16.73-8.5-3.34-1.2-7.14-1.9-11.36-2.09l-.7-1.39c1.76-1.49,2.88-2.83,3.34-4.04.65-1.58.97-4.24.97-8.01v-38.23c8.51-2.83,15.78-6.82,21.83-11.97,6.6,4.36,14.8,7.75,24.61,10.17h0s0,.01,0,.01h0ZM220.88,295.52l18.18,7.45v-44.22c-5.71-2.68-9.75-4.43-12.12-5.27-1.67-.61-3.69-1.13-6.05-1.55v43.59h0Z"/>
            <path d="M262.92,247.62l19.43-23.96h2.02l-.7,19.22h14v7.8h-14v46.93l7.8,5.78,4.46-3.48,1.74,2.09-15.35,12.26c-5.22-5.34-11.12-8.96-17.72-10.86v-1.39c1.86-1.25,3.08-2.56,3.69-3.91.79-1.72,1.18-4.2,1.18-7.46v-39.95h-6.55v-3.06h0Z"/>
            <path d="M333.04,214.47l.7,1.67c-3.32,2.13-5.6,4.41-6.81,6.82-1.22,2.41-1.82,6.24-1.82,11.49v22.7l21.55-17.13c4.58,2.97,7.57,5.84,8.95,8.6,1.39,2.77,2.08,7.47,2.08,14.11v31.57c0,6.04-.63,10.45-1.88,13.24-2,4.55-5.69,8.83-11.07,12.82-7.05,5.29-16.04,9.87-26.95,13.73l-.97-2.65c8.86-3.67,15.04-7.01,18.52-10.02,3.48-3.02,5.76-6.22,6.82-9.61.79-2.56,1.18-9.19,1.18-19.92v-29.18c0-3.25-.32-5.5-.98-6.75-.98-1.72-2.77-3.41-5.36-5.08l-11.9,9.64v38.77l4.94,4.98-12.22,9.99-12.43-9.99,5.5-5.46v-63.31c0-5.75-.51-9.69-1.52-11.83s-3.01-4.05-6-5.77l.77-1.74c2.45.7,4.42,1.47,5.9,2.33s3.43,2.36,5.83,4.49c2.84-2.69,5.56-4.67,8.17-5.92s5.6-2.11,9-2.58h0Z"/>
            <path d="M379.73,240.03l12.36,10.27-5.5,5.33v37.88c0,3.99.34,6.59,1.01,7.8.67,1.21,1.36,1.81,2.08,1.81.5,0,.96-.11,1.39-.35.58-.32,1.8-1.25,3.65-2.79l1.7,2.16-14.94,12.12c-3.73-2.65-6.13-5.14-7.2-7.48-1.07-2.34-1.61-6.44-1.61-12.29v-38.85l-5.22-5.33,12.29-10.27h0ZM384.99,216.22h8.84l-9.61,15.04h-2.79l3.55-15.04h0Z"/>
            <path d="M427.38,240.03l18.07,10.34-7.41,10.83-13.61-7.87v44.42l13.7,6.12,7.29-5.27.74,2.98-17.23,12.67c-4.45-2.51-8.25-4.35-11.4-5.53s-7.02-2.22-11.61-3.1v-1.67c1.63-1.11,2.69-2.32,3.2-3.62.74-1.81,1.11-4.64,1.11-8.5v-39.62c5.79-2.65,11.51-6.71,17.16-12.19h0Z"/>
          </g>
        </g>
      </g>
    </g>
  </g>
</svg>