<?xml version="1.0" encoding="UTF-8"?>
<svg xmlns="http://www.w3.org/2000/svg" version="1.1" viewBox="0 0 538.6 538.6">
  <!-- Generator: Adobe Illustrator 29.1.0, SVG Export Plug-In . SVG Version: 1.2.0 Build 2)  -->
  <g>
    <g id="Layer_1">
      <g>
        <path d="M77.2,243.9h25.7c6.7,0,11.8.3,15.2,1,8.4,1.6,15.1,6.1,20.3,13.4,4,5.8,6.1,12.1,6.1,19.1s-2.1,13.5-6.3,19.3c-5,7-11.6,11.4-19.7,13.1-2.1.4-3.9.7-5.6.8-1.6,0-5.2.1-10.8.1h-24.8v-32.3c.1,0-.1-34.5-.1-34.5ZM107.1,247l-.3,39.3.3,21.2c4.4,0,7.5-.2,9.4-.5,1.9-.3,4.1-1,6.6-2.1,5.8-2.5,10.4-6.6,13.7-12.1,2.9-4.8,4.4-10,4.4-15.6s-1.7-11.6-5.1-16.7c-6.1-9-15.1-13.5-27.1-13.5h-1.9Z"/>
        <path d="M176.6,257.2v9c0,0-.2,11.8-.2,11.8v18c-.1,0,0,10.1,0,10.1v4.4c0,0-25,0-25,0l.2-18v-15.9c.1,0,0-8.4,0-8.4v-9.3c-.1,0,0-1.9,0-1.9h25ZM163.9,240.1c8.6,0,12.9,2.2,12.9,6.7s-1.1,3.9-3.4,5.1-5.5,1.8-9.6,1.8c-8.2,0-12.3-2.3-12.3-6.9s4.1-6.7,12.3-6.7Z"/>
        <path d="M185.2,301.6c.7,0,1.5.5,2.5,1.5,1.6,1.5,3.9,2.9,6.9,4s5.8,1.6,8.4,1.6,2.1-.2,2.7-.6c.6-.4.9-1,.9-1.8s-.4-1.7-1.2-2.8c-.8-1.1-2.7-3.2-5.6-6.3-7-7.5-11.6-12.8-13.6-15.8s-3.1-6-3.1-8.8.7-4.8,2.1-7c1.4-2.2,3.4-4.1,5.9-5.7,4.2-2.6,9-3.9,14.5-3.9s8.2.8,12.7,2.5c3.5,1.3,5.2,2.8,5.2,4.4s-.2.9-.6,1.3c-.4.4-.9.6-1.4.6s-1.8-.6-3.5-1.8c-3.5-2.5-7.2-3.7-11.3-3.7s-2.5.2-3.3.7c-.7.5-1.1,1.2-1.1,2.1s.7,2.5,2,4.2c1.4,1.7,4.1,4.6,8.2,8.6,4,3.9,6.6,6.5,7.7,7.8,1.1,1.2,2.1,2.6,3.2,4.2,1.7,2.7,2.6,5.7,2.6,8.9,0,5-2.4,9.1-7.3,12.2-4,2.6-8.9,3.9-14.7,3.9s-12.2-1.4-17.2-4.3c-1.5-.9-2.5-1.6-3-2.2-.5-.6-.8-1.2-.8-1.8,0-1.2.6-1.8,1.9-1.9Z"/>
        <path d="M232.1,257.2h25v6.4c3.1-2.8,6.2-4.8,8.9-6,2.7-1.2,5.8-1.7,9-1.7,6.7,0,12.2,2.5,16.4,7.5,3.8,4.5,5.7,10.2,5.7,17.2s-2.2,13.5-6.5,18.2c-4,4.4-9,6.6-15,6.6s-6.3-.7-9.4-2c-3.1-1.3-6.2-3.3-9.3-5.9v1.8s0,6.4,0,6.4v5.3c0,0,.1,1.8.1,1.8h-25v-13.9s.1-13,.1-13v-27c-.1,0-.1-1.7-.1-1.7ZM257,268v25.5c2.4,2.2,4.5,3.9,6.4,5,1.9,1.1,3.5,1.7,4.9,1.7s2.1-.6,2.3-1.9c0-.4.1-2.6.1-6.6v-23.9c0-2.8,0-4.5-.1-5.1-.2-1.4-.9-2.1-2.1-2.1s-3.2.7-5.3,2c-2.1,1.3-4.2,3.1-6.3,5.4Z"/>
        <path d="M328.5,243.9v2.5s0,17.2,0,17.2v7.4s-.1,13.5-.1,13.5l.2,24.2v1.9h-25v-10.1c.1,0,.2-14.1.2-14.1v-18.4c.1,0,0-9.9,0-9.9v-10.9c-.1,0,0-3.3,0-3.3h24.8Z"/>
        <path d="M372.5,278v-6c0-4.1,0-6.7-.2-7.6,0-.9-.4-1.8-.9-2.5-1.2-1.8-3.9-2.7-8.2-2.7-6.7,0-11.8,2.1-15.4,6.3-1.5,1.7-2.7,2.5-3.7,2.5s-1.4-.3-2-.8c-.6-.5-.8-1.1-.8-1.8,0-2.1,2.4-4.2,7.3-6.4,4.6-2.1,10.6-3.1,18-3.1,12.1,0,20.6,1.8,25.5,5.5,2.2,1.6,3.6,3.4,4.2,5.4.7,2,1,5.5,1,10.5v19.4c-.1,3.6,0,6.3.3,8.1.3,1.8,1.1,3.8,2.3,5.8h-27.4v-5.1c-3,2.1-6,3.6-8.9,4.6s-5.9,1.6-8.7,1.6c-4.9,0-9.2-1.4-13-4.3-4.9-3.7-7.4-8.5-7.4-14.5s2-9.5,6-12.7c4.6-3.8,10.4-5.7,17.2-5.7s5.3.3,7.4.8c2.2.5,4.6,1.4,7.4,2.8ZM372.5,281.6c-4.1-2.1-7.3-3.1-9.5-3.1s-3.1.8-3.7,2.2c-.3.8-.5,3.2-.5,7.1v11.7c0,2.6.1,4.1.2,4.7.3,1.5,1.4,2.2,3.3,2.2s3.2-.4,5-1.3c1.8-.9,3.5-2.1,5.1-3.5v-20Z"/>
        <path d="M441.8,281.6c6.4-9.7,11.1-17.1,14-22.2,1-1.7,1.7-2.7,2-3s.6-.4,1.1-.4,1.2.2,1.8.7.8,1,.8,1.7-.3,1.1-.8,1.8c-4.7,6.4-10.6,15.1-17.8,26l-8.6,13.2c-3,4.5-5.4,7.7-7.3,9.7-1.4,1.4-3.1,2.5-5.1,3.4-2,.9-3.9,1.3-5.7,1.3s-3.3-.4-4.4-1.1c-1.2-.7-1.7-1.6-1.7-2.7s.3-1.3.8-1.8,1.2-.7,1.9-.7,1.6.4,3.2,1.1c1,.5,1.9.7,2.7.7,1.5,0,2.9-.4,4.2-1.3,1.3-.9,2.8-2.4,4.3-4.4l-5.8-9c-12.4-19.3-20.7-31.7-24.9-37.3h31.1c2,4.3,4.2,8.5,6.7,12.8,2.5,4.3,5.1,8.1,7.7,11.5Z"/>
      </g>
    </g>
  </g>
</svg>