<?xml version="1.0" encoding="UTF-8"?>
<svg xmlns="http://www.w3.org/2000/svg" version="1.1" viewBox="0 0 538.58 538.58">
  <!-- Generator: Adobe Illustrator 29.0.0, SVG Export Plug-In . SVG Version: 1.2.0 Build 15)  -->
  <rect width="512" height="512" fill="white" />
  <g>
    <g id="Layer_1">
      <g id="Layer_1-2" data-name="Layer_1">
        <g id="Layer_1-2">
          <g id="Layer_1-2-2" data-name="Layer_1-2">
            <g id="Layer_1-2-2">
              <g id="Layer_1-2-2-2" data-name="Layer_1-2-2">
                <g>
                  <path d="M56.51,273.59v-21.62h-.76l-13.93,35.13-13.93-35.13h-.76v55.87h-7.29v-68.3h10.23l11.65,30.13h.56l11.66-30.13h9.86v68.29h-7.3v-34.25h0Z" />
                  <path d="M98.68,309c-3.41,0-6.49-.62-9.24-1.86s-5.09-3.02-7.02-5.33-3.4-5.09-4.41-8.32-1.51-6.86-1.51-10.91.5-7.6,1.51-10.86c1.01-3.26,2.48-6.05,4.41-8.37,1.93-2.31,4.26-4.09,7.02-5.33,2.75-1.24,5.83-1.86,9.24-1.86s6.49.62,9.24,1.86,5.08,3.02,7.02,5.33c1.93,2.32,3.4,5.1,4.41,8.37,1.01,3.26,1.51,6.88,1.51,10.86s-.5,7.68-1.51,10.91-2.48,6.01-4.41,8.32c-1.93,2.32-4.26,4.09-7.02,5.33-2.75,1.24-5.83,1.86-9.24,1.86ZM98.68,302.26c4.23,0,7.64-1.3,10.23-3.91s3.88-6.65,3.88-12.14v-7.24c0-5.48-1.3-9.52-3.88-12.14-2.59-2.61-6-3.91-10.23-3.91s-7.64,1.3-10.23,3.91-3.88,6.65-3.88,12.14v7.24c0,5.48,1.29,9.52,3.88,12.14,2.59,2.61,6,3.91,10.23,3.91Z" />
                  <path d="M136.39,307.83v-50.48h7.58v8.22h.38c.5-1.24,1.14-2.43,1.9-3.57.76-1.15,1.69-2.13,2.79-2.99,1.11-.84,2.42-1.53,3.93-2.05s3.29-.78,5.3-.78c5.12,0,9.22,1.68,12.32,5.04s4.65,8.11,4.65,14.24v32.38h-7.58v-31.02c0-4.63-.98-8.08-2.93-10.33s-4.83-3.37-8.62-3.37c-1.51,0-3,.2-4.46.58-1.45.4-2.75.98-3.88,1.76-1.14.78-2.06,1.79-2.75,3.03s-1.04,2.68-1.04,4.31v35.03h-7.59Z" />
                  <path d="M212.39,309c-3.41,0-6.49-.62-9.24-1.86s-5.09-3.02-7.02-5.33-3.4-5.09-4.41-8.32-1.51-6.86-1.51-10.91.5-7.6,1.51-10.86c1.01-3.26,2.48-6.05,4.41-8.37,1.93-2.31,4.26-4.09,7.02-5.33,2.75-1.24,5.83-1.86,9.24-1.86s6.49.62,9.24,1.86,5.08,3.02,7.02,5.33c1.93,2.32,3.4,5.1,4.41,8.37,1.01,3.26,1.51,6.88,1.51,10.86s-.5,7.68-1.51,10.91-2.48,6.01-4.41,8.32c-1.93,2.32-4.26,4.09-7.02,5.33-2.75,1.24-5.83,1.86-9.24,1.86ZM212.39,302.26c4.23,0,7.64-1.3,10.23-3.91s3.88-6.65,3.88-12.14v-7.24c0-5.48-1.3-9.52-3.88-12.14-2.59-2.61-6-3.91-10.23-3.91s-7.64,1.3-10.23,3.91-3.88,6.65-3.88,12.14v7.24c0,5.48,1.29,9.52,3.88,12.14,2.59,2.61,6,3.91,10.23,3.91Z" />
                  <path d="M269.81,309c-5.12,0-9.53-.9-13.22-2.69s-6.83-4.19-9.43-7.19l5.12-4.6c2.34,2.54,4.9,4.5,7.67,5.87,2.78,1.37,6.13,2.05,10.04,2.05s6.91-.7,9.33-2.1,3.65-3.6,3.65-6.6c0-1.3-.24-2.39-.72-3.28-.47-.88-1.12-1.58-1.95-2.1s-1.73-.93-2.75-1.22c-1.01-.29-2.09-.54-3.23-.74l-7.67-1.18c-1.7-.26-3.55-.61-5.54-1.07-1.99-.46-3.81-1.19-5.45-2.21-1.64-1.01-3.01-2.36-4.12-4.06s-1.66-3.91-1.66-6.65c0-2.54.48-4.75,1.47-6.61.98-1.86,2.35-3.42,4.12-4.69,1.76-1.27,3.85-2.22,6.25-2.84s5.02-.93,7.86-.93c4.43,0,8.26.72,11.51,2.15s6.05,3.42,8.39,5.96l-4.93,4.8c-.56-.72-1.28-1.45-2.13-2.2-.86-.75-1.9-1.44-3.13-2.05s-2.67-1.12-4.31-1.52-3.54-.58-5.69-.58c-3.85,0-6.8.69-8.86,2.05-2.06,1.37-3.07,3.36-3.07,5.96,0,1.3.23,2.39.71,3.28.47.88,1.12,1.58,1.95,2.1.82.52,1.75.93,2.79,1.23,1.04.29,2.1.54,3.18.73l7.67,1.18c1.76.26,3.63.62,5.59,1.07,1.96.46,3.76,1.19,5.4,2.21,1.64,1.01,3.01,2.36,4.12,4.06s1.65,3.91,1.65,6.65c0,5.03-1.89,8.9-5.64,11.65-3.76,2.74-8.77,4.11-15.02,4.11h.05Z" />
                  <path d="M306.68,257.34h7.58v8.22h.38c3.16-6.27,8.18-9.39,15.07-9.39,6,0,10.7,2.32,14.07,6.94,3.38,4.63,5.07,11.13,5.07,19.48s-1.69,14.84-5.07,19.48-8.07,6.94-14.07,6.94c-6.89,0-11.91-3.13-15.07-9.39h-.38v27.79h-7.58v-70.07ZM326.77,302.06c4.43,0,7.85-1.38,10.28-4.16,2.43-2.77,3.65-6.44,3.65-11.01v-8.61c0-4.57-1.22-8.23-3.65-11s-5.86-4.16-10.28-4.16c-1.7,0-3.32.23-4.83.69s-2.84,1.12-3.98,2.01-2.04,1.96-2.7,3.23-1,2.76-1,4.46v18.2c0,1.7.33,3.17,1,4.46.67,1.27,1.56,2.35,2.7,3.23s2.46,1.55,3.98,2.01c1.51.46,3.13.69,4.83.69h0v-.04h0Z" />
                  <path d="M401.44,307.83c-2.97,0-5.09-.78-6.35-2.35-1.26-1.56-2.06-3.52-2.37-5.87h-.47c-1.08,2.94-2.79,5.24-5.16,6.9s-5.54,2.5-9.53,2.5c-5.12,0-9.19-1.37-12.23-4.11-3.03-2.74-4.55-6.48-4.55-11.25s1.65-8.32,4.97-10.86,8.67-3.82,16.06-3.82h10.42v-4.95c0-3.7-1.01-6.46-3.03-8.32-2.03-1.84-4.9-2.77-8.62-2.77-3.29,0-5.97.67-8.05,2.01-2.09,1.34-3.76,3.14-5.02,5.43l-5.12-3.91c.64-1.3,1.48-2.58,2.56-3.83s2.4-2.35,3.98-3.31,3.38-1.72,5.4-2.28,4.26-.84,6.72-.84c5.75,0,10.31,1.51,13.69,4.51,3.38,3.01,5.07,7.19,5.07,12.55v27.84h6.82v6.76h-5.21v-.02h.02,0ZM378.89,302.45c1.96,0,3.74-.25,5.35-.74s3.01-1.15,4.21-1.96,2.13-1.79,2.79-2.94,1-2.36,1-3.66v-8.32h-10.42c-4.55,0-7.86.66-9.95,1.96s-3.13,3.2-3.13,5.67v2.05c0,2.61.9,4.58,2.7,5.92,1.8,1.34,4.27,2.01,7.44,2.01h.01Z" />
                  <path d="M441.52,309c-3.54,0-6.68-.63-9.43-1.9s-5.07-3.05-6.97-5.33-3.34-5.06-4.31-8.32-1.47-6.88-1.47-10.86.5-7.6,1.51-10.86c1.01-3.26,2.46-6.05,4.35-8.37,1.9-2.31,4.2-4.09,6.92-5.33,2.71-1.24,5.81-1.86,9.28-1.86,4.74,0,8.59,1.07,11.56,3.23s5.15,4.95,6.54,8.41l-6.07,3.33c-.89-2.61-2.36-4.63-4.41-6.07-2.06-1.44-4.6-2.15-7.63-2.15-2.21,0-4.18.37-5.93,1.12-1.73.75-3.21,1.81-4.41,3.19-1.2,1.37-2.1,3-2.7,4.89s-.9,3.95-.9,6.16v8.61c0,2.22.3,4.28.9,6.16.59,1.89,1.5,3.52,2.7,4.89s2.68,2.44,4.46,3.17c1.76.75,3.79,1.12,6.07,1.12,3.29,0,6-.78,8.15-2.35,2.15-1.56,3.85-3.72,5.12-6.45l5.4,3.82c-1.45,3.39-3.71,6.2-6.77,8.41-3.06,2.22-7.06,3.33-11.99,3.33h.03,0Z" />
                  <path d="M497.52,309c-3.54,0-6.71-.62-9.53-1.86-2.81-1.24-5.21-3.02-7.2-5.33s-3.52-5.09-4.6-8.32-1.61-6.83-1.61-10.82.55-7.69,1.66-10.96c1.11-3.26,2.64-6.05,4.6-8.37,1.96-2.31,4.31-4.09,7.06-5.33s5.8-1.86,9.14-1.86,6.27.62,8.95,1.86c2.68,1.24,4.97,2.96,6.88,5.14,1.9,2.19,3.35,4.78,4.35,7.78s1.51,6.3,1.51,9.88v3.72h-36.2v2.35c0,2.22.34,4.28,1.04,6.16.7,1.89,1.69,3.52,2.98,4.89s2.87,2.44,4.74,3.17c1.86.75,3.93,1.12,6.21,1.12,3.29,0,6.13-.78,8.53-2.35,2.4-1.56,4.23-3.72,5.49-6.45l5.59,3.91c-1.45,3.39-3.87,6.18-7.25,8.37s-7.5,3.28-12.37,3.28h.01l.02.02h0ZM497.04,262.63c-2.09,0-4.01.4-5.78,1.18s-3.31,1.86-4.6,3.23c-1.3,1.37-2.31,2.99-3.03,4.84-.73,1.86-1.09,3.9-1.09,6.12v.69h28.04v-1.07c0-2.22-.33-4.24-1-6.07-.67-1.82-1.58-3.4-2.75-4.75-1.17-1.33-2.59-2.36-4.26-3.08s-3.52-1.07-5.54-1.07h.01v-.02h0Z" />
                </g>
              </g>
            </g>
          </g>
        </g>
      </g>
    </g>
  </g>
</svg>