<?xml version="1.0" encoding="UTF-8"?>
<svg xmlns="http://www.w3.org/2000/svg" version="1.1" viewBox="0 0 255.12 170.08">
  <defs>
    <style>
      .cls-1 {
        fill: #74d7c1;
      }

      .cls-2 {
        fill: #3e3e3e;
      }

      .cls-3 {
        fill: #fff;
      }

      .cls-4 {
        fill: #ed1c24;
      }
    </style>
  </defs>
  <!-- Generator: Adobe Illustrator 29.1.0, SVG Export Plug-In . SVG Version: 1.2.0 Build 2)  -->
  <g>
    <g id="Layer_1">
      <rect class="cls-1" width="255.12" height="170.08"/>
      <rect class="cls-3" x="7.09" y="7.09" width="240.94" height="155.91"/>
      <g>
        <path class="cls-2" d="M26.72,44.24c.09.06.39.19.89.4.5.2,1.08.3,1.75.3.48,0,.87-.08,1.17-.24.3-.16.52-.41.67-.75.15-.34.25-.78.3-1.33.05-.55.08-1.21.08-2v-8.34h4.55v8.36c0,1.25-.07,2.38-.22,3.4-.15,1.02-.45,1.9-.9,2.64-.45.74-1.13,1.31-2.03,1.7s-2.11.59-3.62.59c-.72,0-1.37-.09-1.96-.26-.59-.17-1.14-.43-1.63-.77l.96-3.71Z"/>
        <path class="cls-2" d="M44.41,49.09c-1.09,0-2.05-.17-2.89-.51-.84-.34-1.54-.8-2.11-1.39-.57-.59-1-1.26-1.28-2.01-.29-.75-.43-1.54-.43-2.37s.14-1.62.43-2.38c.29-.76.72-1.43,1.28-2.01.57-.58,1.27-1.04,2.11-1.38s1.81-.51,2.89-.51,2.07.17,2.91.51c.83.34,1.53.8,2.1,1.38s1,1.25,1.28,2.01c.29.76.43,1.55.43,2.38s-.14,1.62-.43,2.37c-.29.75-.72,1.42-1.28,2.01s-1.27,1.05-2.1,1.39c-.83.34-1.8.51-2.91.51ZM42.24,42.83c0,.52.09.98.28,1.36.19.38.44.67.77.87s.7.3,1.12.3.79-.1,1.12-.3.58-.49.77-.87c.19-.38.28-.83.28-1.36s-.09-.97-.28-1.36c-.19-.38-.44-.67-.77-.87s-.7-.3-1.12-.3-.79.1-1.12.3-.58.49-.77.87c-.19.38-.28.83-.28,1.36Z"/>
        <path class="cls-2" d="M64.97,48.86h-4.44v-6.74c0-.59-.14-1.02-.41-1.29-.27-.27-.61-.4-1.02-.4-.19,0-.42.07-.69.2-.27.13-.53.32-.78.57-.25.25-.44.54-.58.88v6.77h-4.44v-17.04h4.44v6.76c.44-.66,1.01-1.16,1.72-1.5.71-.34,1.49-.52,2.35-.52s1.56.14,2.08.42c.51.28.89.65,1.14,1.09.25.44.42.92.5,1.42.09.5.13.98.13,1.42v7.94Z"/>
        <path class="cls-2" d="M79.43,48.86h-4.44v-6.74c0-.59-.14-1.02-.41-1.29-.27-.27-.59-.4-.95-.4-.25,0-.51.07-.79.21s-.54.34-.77.59c-.23.25-.42.54-.56.86v6.77h-4.44v-12.12h3.99v1.83c.29-.44.67-.81,1.12-1.11s.97-.52,1.56-.68c.59-.15,1.24-.23,1.94-.23.84,0,1.51.15,2.01.44.5.29.87.67,1.12,1.12.25.46.41.94.49,1.43.08.5.12.95.12,1.37v7.94Z"/>
        <path class="cls-2" d="M87.14,48.86v-16.58h6.37c1.84,0,3.37.37,4.61,1.11,1.24.74,2.17,1.74,2.8,2.99.63,1.25.95,2.64.95,4.17,0,1.68-.35,3.14-1.04,4.39-.69,1.25-1.67,2.21-2.92,2.89-1.25.69-2.72,1.03-4.4,1.03h-6.37ZM97.24,40.55c0-.86-.15-1.61-.44-2.25-.3-.65-.72-1.15-1.28-1.51-.56-.36-1.23-.54-2.01-.54h-1.82v8.64h1.82c.79,0,1.47-.19,2.02-.56.55-.37.98-.89,1.27-1.55.29-.66.44-1.4.44-2.23Z"/>
        <path class="cls-2" d="M109.59,49.09c-1.09,0-2.05-.17-2.89-.51-.84-.34-1.54-.8-2.11-1.39s-1-1.26-1.28-2.01c-.29-.75-.43-1.54-.43-2.37s.14-1.62.43-2.38c.29-.76.72-1.43,1.28-2.01s1.27-1.04,2.11-1.38c.84-.34,1.8-.51,2.89-.51s2.07.17,2.91.51c.83.34,1.53.8,2.1,1.38.57.58,1,1.25,1.28,2.01.29.76.43,1.55.43,2.38s-.14,1.62-.43,2.37c-.29.75-.72,1.42-1.28,2.01-.57.59-1.27,1.05-2.1,1.39-.83.34-1.8.51-2.91.51ZM107.42,42.83c0,.52.09.98.28,1.36.19.38.44.67.77.87.33.2.7.3,1.12.3s.79-.1,1.12-.3c.33-.2.58-.49.77-.87.19-.38.28-.83.28-1.36s-.09-.97-.28-1.36c-.19-.38-.44-.67-.77-.87-.33-.2-.7-.3-1.12-.3s-.79.1-1.12.3c-.33.2-.58.49-.77.87-.19.38-.28.83-.28,1.36Z"/>
        <path class="cls-2" d="M123.85,49.09c-1.07,0-2.03-.17-2.87-.49-.84-.33-1.54-.78-2.11-1.35-.57-.57-1-1.22-1.29-1.95-.3-.74-.44-1.51-.44-2.32,0-1.16.26-2.23.77-3.2s1.27-1.75,2.26-2.34c1-.59,2.23-.88,3.69-.88s2.69.29,3.69.87c1,.58,1.75,1.35,2.26,2.3.51.95.77,1.98.77,3.1,0,.23-.01.46-.03.7-.02.24-.05.45-.08.63h-8.61c.03.41.15.75.36,1.01.21.26.47.45.79.57.32.12.65.18.99.18.48,0,.94-.11,1.37-.33.43-.22.71-.52.85-.91l3.76,1.07c-.33.65-.78,1.23-1.37,1.73-.58.5-1.27.89-2.07,1.18-.79.29-1.69.43-2.69.43ZM121.75,41.51h4.06c-.05-.38-.16-.7-.34-.96-.18-.26-.41-.47-.7-.61-.29-.15-.62-.22-.99-.22s-.71.07-.99.22c-.29.15-.52.35-.7.61-.18.26-.29.58-.34.96Z"/>
      </g>
      <g>
        <path class="cls-2" d="M29.77,58.73h1.02l1.13,2.96,1.14-2.96h1.02l-1.48,3.71,1.46,3.52,2.88-7.27h1.18l-3.56,8.52h-.94l-1.69-4.02-1.7,4.02h-.94l-3.55-8.52h1.16l2.89,7.27,1.45-3.52-1.48-3.71Z"/>
        <path class="cls-2" d="M41.13,67.32c-.47,0-.9-.09-1.29-.26-.39-.17-.72-.4-1.01-.7-.28-.3-.5-.64-.66-1.03-.16-.39-.23-.8-.23-1.24,0-.59.14-1.12.41-1.61.27-.48.65-.87,1.13-1.17.48-.29,1.04-.44,1.66-.44s1.18.15,1.65.45c.47.3.83.69,1.09,1.17.26.48.39,1,.39,1.56,0,.08,0,.16,0,.23,0,.08,0,.13-.02.17h-5.2c.03.4.15.76.34,1.07s.45.56.76.74c.31.18.65.27,1.01.27.38,0,.75-.1,1.09-.29.34-.19.57-.44.7-.76l.91.25c-.14.3-.34.58-.61.82-.27.24-.58.43-.95.56s-.76.2-1.18.2ZM39.02,63.72h4.27c-.03-.4-.15-.76-.35-1.07s-.46-.55-.77-.72c-.31-.17-.66-.26-1.03-.26s-.71.09-1.02.26c-.31.17-.57.42-.76.72s-.31.66-.34,1.07Z"/>
        <path class="cls-2" d="M48.67,67.32c-.49,0-.93-.12-1.33-.36-.4-.24-.72-.55-.95-.94v1.18h-.94v-8.76h1.06v3.79c.26-.41.59-.74.97-.98.38-.25.83-.37,1.34-.37.43,0,.82.09,1.16.27s.64.42.88.73c.24.31.43.65.56,1.04.13.38.2.79.2,1.21s-.07.85-.22,1.23c-.15.39-.36.73-.63,1.02-.27.3-.59.53-.94.7-.36.17-.75.25-1.17.25ZM48.41,66.41c.31,0,.6-.06.86-.19.26-.13.49-.3.68-.51.19-.21.34-.46.44-.74.1-.28.16-.56.16-.85,0-.4-.09-.78-.26-1.14-.17-.36-.41-.64-.72-.86s-.67-.33-1.07-.33c-.3,0-.57.07-.83.2-.26.13-.48.31-.68.53s-.36.46-.49.72v1.79c.04.2.12.38.25.55.13.17.28.31.47.43.18.12.38.22.58.29s.4.11.59.11Z"/>
        <path class="cls-2" d="M56.13,67.2v-8.52h2.95c.91,0,1.67.19,2.29.57.61.38,1.07.89,1.37,1.54.3.64.46,1.36.46,2.14,0,.86-.17,1.62-.5,2.26-.34.64-.81,1.14-1.43,1.49-.62.35-1.34.53-2.18.53h-2.95ZM62.11,62.93c0-.64-.12-1.21-.35-1.7s-.58-.88-1.03-1.16c-.45-.28-1-.42-1.64-.42h-1.87v6.6h1.87c.66,0,1.21-.15,1.66-.44s.79-.69,1.02-1.19c.23-.5.35-1.06.35-1.69Z"/>
        <path class="cls-2" d="M67.37,67.32c-.47,0-.9-.09-1.29-.26-.39-.17-.72-.4-1.01-.7-.28-.3-.5-.64-.66-1.03-.16-.39-.23-.8-.23-1.24,0-.59.14-1.12.41-1.61.27-.48.65-.87,1.13-1.17.48-.29,1.04-.44,1.66-.44s1.18.15,1.65.45c.47.3.83.69,1.09,1.17.26.48.39,1,.39,1.56,0,.08,0,.16,0,.23,0,.08,0,.13-.02.17h-5.2c.03.4.15.76.34,1.07s.45.56.76.74c.31.18.65.27,1.01.27.38,0,.75-.1,1.09-.29.34-.19.57-.44.7-.76l.91.25c-.14.3-.34.58-.61.82-.27.24-.58.43-.95.56s-.76.2-1.18.2ZM65.25,63.72h4.27c-.03-.4-.15-.76-.35-1.07s-.46-.55-.77-.72c-.31-.17-.66-.26-1.03-.26s-.71.09-1.02.26c-.31.17-.57.42-.76.72s-.31.66-.34,1.07Z"/>
        <path class="cls-2" d="M73.73,67.32c-.52,0-1.01-.09-1.46-.26-.46-.17-.85-.43-1.18-.77l.41-.74c.36.34.72.58,1.08.72s.73.22,1.1.22c.43,0,.78-.08,1.06-.24.27-.16.41-.4.41-.72,0-.23-.07-.4-.21-.51-.14-.11-.34-.2-.59-.28-.26-.08-.56-.16-.91-.26-.43-.13-.8-.26-1.09-.4-.3-.14-.52-.32-.67-.54-.15-.21-.23-.48-.23-.81,0-.4.1-.73.31-1.01.21-.27.49-.48.86-.62.36-.14.78-.21,1.24-.21s.88.07,1.26.22.7.36.97.64l-.48.73c-.25-.26-.52-.45-.82-.57s-.63-.19-1-.19c-.22,0-.43.03-.64.08-.21.05-.38.14-.52.27-.14.13-.2.32-.2.55,0,.2.05.35.16.47.11.11.27.21.48.29.21.08.47.17.77.26.47.13.88.27,1.23.4.35.13.62.31.81.52.19.21.29.51.29.89,0,.59-.22,1.04-.67,1.37-.45.33-1.04.49-1.78.49Z"/>
        <path class="cls-2" d="M77.43,59.76v-1.32h1.06v1.32h-1.06ZM77.43,67.2v-6.26h1.06v6.26h-1.06Z"/>
        <path class="cls-2" d="M82.66,67.32c-.42,0-.81-.09-1.17-.26-.36-.17-.66-.41-.92-.71-.26-.3-.45-.64-.59-1.03-.14-.38-.21-.78-.21-1.2,0-.44.07-.86.21-1.25s.34-.74.6-1.04c.26-.3.57-.54.92-.71.35-.17.74-.26,1.18-.26.52,0,.97.13,1.36.38.39.25.71.57.98.97v-1.25h.94v6.17c0,.59-.14,1.09-.43,1.49-.28.41-.67.71-1.15.93-.48.21-1.02.32-1.61.32-.7,0-1.28-.12-1.73-.37-.45-.25-.82-.58-1.12-1.01l.61-.54c.25.37.57.64.97.83.4.18.82.28,1.27.28.38,0,.74-.07,1.06-.2.32-.14.58-.34.78-.62s.29-.63.29-1.05v-1.1c-.23.38-.55.69-.95.91-.4.22-.83.34-1.28.34ZM82.98,66.46c.22,0,.44-.04.65-.12.21-.08.4-.19.58-.32.18-.13.32-.28.44-.45.12-.17.2-.34.24-.52v-1.8c-.11-.29-.27-.54-.48-.76s-.44-.39-.71-.52c-.26-.12-.54-.19-.82-.19-.32,0-.61.07-.86.2-.25.14-.47.32-.64.55s-.31.48-.41.76c-.1.28-.14.56-.14.85,0,.31.06.61.17.88.11.28.26.52.46.74.19.22.42.38.68.5.26.12.54.18.84.18Z"/>
        <path class="cls-2" d="M93.01,67.2h-1.06v-3.47c0-.66-.1-1.14-.31-1.44s-.51-.46-.93-.46c-.29,0-.57.07-.86.21-.28.14-.54.33-.76.58s-.38.52-.47.84v3.75h-1.06v-6.23h.96v1.35c.17-.29.38-.55.65-.76.26-.21.56-.38.9-.5.34-.12.69-.18,1.06-.18s.66.07.91.2.44.31.58.55c.14.23.24.51.3.83.06.32.09.66.09,1.04v3.72Z"/>
        <path class="cls-2" d="M97.41,67.32c-.47,0-.9-.09-1.29-.26-.39-.17-.72-.4-1.01-.7s-.5-.64-.66-1.03-.23-.8-.23-1.24c0-.59.14-1.12.41-1.61.27-.48.65-.87,1.13-1.17.48-.29,1.04-.44,1.66-.44s1.18.15,1.65.45.83.69,1.09,1.17c.26.48.39,1,.39,1.56,0,.08,0,.16,0,.23,0,.08-.01.13-.02.17h-5.2c.03.4.15.76.34,1.07.2.31.45.56.76.74.31.18.65.27,1.01.27.38,0,.75-.1,1.09-.29s.57-.44.7-.76l.91.25c-.14.3-.34.58-.61.82-.27.24-.58.43-.95.56-.36.14-.76.2-1.18.2ZM95.3,63.72h4.27c-.03-.4-.15-.76-.35-1.07-.2-.31-.46-.55-.77-.72-.31-.17-.66-.26-1.03-.26s-.71.09-1.02.26c-.31.17-.57.42-.76.72-.2.31-.31.66-.34,1.07Z"/>
        <path class="cls-2" d="M105.04,61.86c-.53,0-.99.14-1.4.4-.4.26-.69.62-.86,1.07v3.86h-1.06v-6.23h.98v1.42c.22-.43.5-.78.86-1.05.36-.27.73-.42,1.12-.45h.2c.06,0,.1,0,.14.01v.96Z"/>
      </g>
      <g>
        <path class="cls-2" d="M52.42,101.95v.58h-.96v1.04h-.65v-1.04h-.96v-.58h.96v-1.04h.65v1.04h.96Z"/>
        <path class="cls-2" d="M55.51,103.15c.23.04.43.13.6.26s.3.31.39.51c.09.21.14.44.14.7,0,.34-.08.63-.24.89-.16.26-.38.45-.68.59-.29.14-.63.21-1.02.21-.41,0-.77-.08-1.08-.23-.31-.15-.55-.37-.73-.65l.48-.48c.12.22.29.39.51.52.21.13.49.19.82.19.37,0,.67-.09.88-.26.21-.18.32-.43.32-.78s-.11-.63-.34-.84c-.23-.21-.56-.31-1-.31h-.21v-.6h.23c.39,0,.69-.1.9-.29s.31-.43.31-.72c0-.2-.05-.36-.14-.49-.09-.13-.22-.22-.37-.29-.16-.06-.34-.1-.54-.1-.3,0-.56.06-.78.19-.22.13-.4.3-.52.53l-.44-.45c.1-.18.24-.34.42-.48.18-.14.39-.24.63-.32s.5-.11.77-.11c.34,0,.64.06.9.18.26.12.47.29.61.51.15.22.22.48.22.77,0,.21-.04.42-.12.6-.08.19-.2.35-.35.48s-.34.21-.55.25Z"/>
        <path class="cls-2" d="M57.44,105.12c0-.22.02-.42.05-.62.04-.19.1-.37.2-.55.09-.17.23-.34.4-.5.17-.16.4-.32.67-.47.16-.09.33-.18.49-.26.17-.08.32-.17.46-.26.14-.09.26-.2.34-.31.09-.11.13-.24.13-.39,0-.13-.04-.25-.11-.37-.07-.12-.18-.22-.32-.29s-.32-.11-.53-.11c-.16,0-.31.02-.44.06-.13.04-.25.1-.36.17-.11.07-.2.14-.28.21-.08.07-.14.14-.2.2l-.45-.5s.12-.11.22-.2c.1-.08.23-.17.39-.26.16-.09.34-.16.55-.22.21-.06.44-.09.69-.09.33,0,.62.06.86.18s.43.28.56.48c.13.2.19.42.19.67,0,.21-.04.4-.13.56-.09.16-.2.3-.34.42-.14.12-.28.22-.43.31-.15.09-.28.16-.4.22-.24.12-.45.23-.62.33-.17.1-.32.2-.43.29-.11.1-.2.2-.27.3-.07.1-.12.23-.15.37h2.86v.65h-3.61Z"/>
        <path class="cls-2" d="M66.94,104.47v.65h-2.91v-.65h1.15v-3.16c-.05.06-.12.13-.23.21-.1.07-.22.14-.35.21s-.26.12-.39.16-.25.06-.36.06v-.68c.12,0,.25-.03.39-.1.14-.07.28-.15.42-.24s.25-.18.34-.26.15-.14.17-.17h.73v3.98h1.03Z"/>
        <path class="cls-2" d="M67.67,105.12c0-.22.02-.42.05-.62.04-.19.1-.37.19-.55.09-.17.23-.34.4-.5.17-.16.4-.32.67-.47.16-.09.33-.18.49-.26.17-.08.32-.17.46-.26.14-.09.26-.2.34-.31s.13-.24.13-.39c0-.13-.04-.25-.11-.37-.07-.12-.18-.22-.32-.29-.14-.07-.32-.11-.53-.11-.16,0-.31.02-.44.06-.13.04-.25.1-.36.17-.11.07-.2.14-.28.21-.08.07-.14.14-.2.2l-.45-.5s.12-.11.22-.2c.1-.08.23-.17.39-.26s.34-.16.55-.22c.21-.06.44-.09.68-.09.34,0,.62.06.86.18.24.12.43.28.56.48.13.2.19.42.19.67,0,.21-.04.4-.13.56-.09.16-.2.3-.34.42s-.28.22-.43.31c-.15.09-.28.16-.4.22-.24.12-.45.23-.62.33-.17.1-.31.2-.43.29-.11.1-.2.2-.27.3-.07.1-.12.23-.15.37h2.86v.65h-3.61Z"/>
        <path class="cls-2" d="M74.59,103.15c.23.04.43.13.6.26.17.13.3.31.39.51.09.21.14.44.14.7,0,.34-.08.63-.24.89-.16.26-.38.45-.68.59-.29.14-.63.21-1.02.21-.41,0-.77-.08-1.08-.23-.31-.15-.55-.37-.73-.65l.48-.48c.12.22.29.39.51.52.21.13.49.19.82.19.37,0,.67-.09.88-.26.21-.18.32-.43.32-.78s-.12-.63-.34-.84c-.23-.21-.56-.31-1-.31h-.21v-.6h.23c.39,0,.69-.1.9-.29.21-.19.31-.43.31-.72,0-.2-.05-.36-.14-.49s-.22-.22-.37-.29c-.16-.06-.34-.1-.54-.1-.3,0-.56.06-.78.19s-.4.3-.52.53l-.44-.45c.1-.18.24-.34.42-.48.18-.14.39-.24.63-.32.24-.08.5-.11.77-.11.34,0,.64.06.9.18.26.12.47.29.61.51.15.22.22.48.22.77,0,.21-.04.42-.12.6-.08.19-.2.35-.35.48-.15.13-.34.21-.55.25Z"/>
        <path class="cls-2" d="M80.91,106.15v-1.37h-2.6v-.63l2.83-3.66h.49v3.64h.71v.65h-.71v1.37h-.71ZM79.05,104.13h1.94v-2.54l-1.94,2.54Z"/>
        <path class="cls-2" d="M84.84,106.33c-.41,0-.78-.1-1.11-.29-.33-.19-.58-.45-.75-.78l.45-.39c.15.25.35.45.6.6.25.15.52.23.82.23.25,0,.47-.05.67-.16.19-.11.35-.26.46-.45s.17-.41.17-.66-.05-.46-.17-.64c-.11-.18-.26-.33-.45-.43-.19-.1-.4-.15-.63-.15s-.45.05-.65.15c-.2.1-.37.25-.5.44h-.64l.65-3.3h2.8v.66h-2.27l-.35,1.83c.12-.12.27-.22.45-.3.18-.07.38-.11.6-.11.36,0,.68.08.96.24.28.16.51.37.67.65.16.28.25.59.25.96s-.09.71-.27,1c-.18.29-.43.51-.73.67-.31.16-.65.24-1.03.24Z"/>
        <path class="cls-2" d="M93.5,104.22c-.18.3-.43.54-.74.72-.31.18-.66.27-1.05.27-.41,0-.77-.1-1.09-.3s-.56-.48-.73-.86c-.18-.37-.26-.82-.26-1.33,0-.76.09-1.39.27-1.89.18-.5.43-.88.75-1.13s.7-.38,1.14-.38c.37,0,.71.09,1.02.27.31.18.54.43.72.75l-.44.43c-.12-.25-.29-.46-.53-.6-.23-.15-.49-.22-.78-.22s-.55.09-.77.27-.39.44-.51.77c-.12.33-.19.74-.19,1.22.08-.19.19-.35.34-.49.15-.14.32-.24.51-.32s.41-.11.63-.11c.37,0,.71.09,1.01.26.3.17.54.41.71.7.18.29.26.62.26.98s-.09.7-.27,1ZM92.4,104.4c.21-.12.37-.29.5-.5.12-.21.19-.44.19-.69s-.06-.48-.19-.68c-.12-.21-.29-.37-.5-.49s-.44-.19-.69-.19-.48.06-.68.19c-.21.12-.38.29-.5.49-.12.21-.19.43-.19.68s.06.48.19.69c.12.21.29.37.5.5.21.12.44.19.68.19s.48-.06.69-.19Z"/>
        <path class="cls-2" d="M97.32,101.15h-2.96v-.66h4.09l-2.89,5.66h-.81l2.58-5Z"/>
        <path class="cls-2" d="M104.98,103.5c0,.34-.09.64-.28.89-.19.25-.44.45-.75.59-.31.14-.65.21-1.02.21s-.73-.08-1.03-.23c-.3-.15-.54-.36-.72-.62s-.26-.55-.26-.88c0-.24.05-.45.16-.64.11-.19.25-.35.41-.48.16-.13.33-.23.51-.3-.16-.07-.3-.16-.44-.28s-.24-.25-.32-.4-.12-.32-.12-.5c0-.24.05-.46.16-.65.11-.19.25-.35.43-.48.18-.13.38-.23.59-.29.22-.06.43-.1.65-.1s.43.03.65.1c.22.07.41.16.6.29.18.13.33.28.43.47s.16.4.16.65c0,.18-.04.35-.12.5-.08.15-.19.29-.33.4-.14.11-.29.21-.45.28.2.08.38.18.54.32s.3.3.4.49c.1.19.15.4.15.64ZM104.26,103.45c0-.17-.04-.33-.11-.47-.08-.14-.18-.25-.31-.35-.13-.1-.27-.17-.43-.22-.15-.05-.31-.07-.47-.07-.22,0-.42.05-.62.14-.2.09-.36.22-.48.39-.12.17-.19.36-.19.59,0,.17.04.32.11.46.08.14.18.25.3.35s.27.17.42.22.31.07.47.07c.22,0,.42-.05.62-.14s.36-.22.49-.39c.13-.17.19-.36.19-.58ZM101.85,100.9c0,.19.06.35.17.49.11.14.26.24.43.31s.34.1.51.1.34-.04.52-.11c.17-.07.31-.17.42-.31.11-.14.17-.3.17-.5,0-.18-.05-.34-.16-.47-.11-.13-.24-.23-.41-.3-.17-.07-.35-.11-.55-.11s-.37.04-.54.11c-.17.07-.31.18-.41.31-.1.13-.15.29-.15.48Z"/>
        <path class="cls-2" d="M108.31,106.15v-1.37h-2.6v-.63l2.83-3.66h.49v3.64h.71v.65h-.71v1.37h-.71ZM106.44,104.13h1.94v-2.54l-1.94,2.54Z"/>
        <path class="cls-2" d="M49.48,119.63c-.18,0-.36-.03-.53-.08-.17-.05-.32-.14-.45-.26l.33-.48c.08.07.16.12.26.15.1.03.2.04.3.04.12,0,.23-.03.33-.09s.19-.14.25-.25c.07-.1.1-.22.1-.35v-4.4h.71v4.35c0,.26-.06.5-.19.71-.12.21-.29.37-.48.48-.2.12-.41.17-.65.17ZM50.08,113.12v-.89h.71v.89h-.71Z"/>
        <path class="cls-2" d="M53.91,118.2c-.32,0-.61-.06-.87-.17-.26-.12-.48-.27-.67-.48s-.33-.43-.44-.7c-.1-.26-.15-.54-.15-.83s.05-.57.15-.84c.1-.26.25-.49.44-.7.19-.2.42-.36.68-.48.26-.12.55-.17.87-.17s.6.06.86.17c.26.12.49.27.68.48.19.2.34.43.44.7.1.26.15.54.15.84s-.05.57-.15.83c-.1.26-.25.5-.44.7s-.42.36-.68.48c-.26.12-.55.17-.87.17ZM52.51,116.04c0,.29.06.55.19.79.13.24.3.42.51.56s.45.2.71.2.5-.07.71-.21c.21-.14.38-.33.51-.57.13-.24.19-.5.19-.79s-.06-.55-.19-.79-.3-.42-.51-.56c-.21-.14-.45-.21-.71-.21s-.5.07-.71.21c-.21.14-.38.33-.51.57s-.19.5-.19.79Z"/>
        <path class="cls-2" d="M60.7,118.12h-.71v-2.35c0-.43-.08-.75-.23-.96-.15-.21-.38-.32-.66-.32-.18,0-.37.05-.56.14s-.35.23-.49.39-.24.35-.31.56v2.54h-.71v-5.92h.71v2.62c.17-.3.4-.54.69-.71s.6-.26.94-.26c.25,0,.47.04.64.13.17.09.31.21.41.37s.18.35.22.56c.05.21.07.44.07.7v2.51Z"/>
        <path class="cls-2" d="M65.59,118.12h-.71v-2.35c0-.44-.07-.77-.21-.98-.14-.21-.35-.31-.63-.31-.19,0-.39.05-.58.14-.19.1-.36.23-.51.39s-.25.35-.32.56v2.54h-.71v-4.21h.65v.91c.11-.2.26-.37.44-.52s.38-.26.61-.34c.23-.08.46-.12.71-.12s.45.04.61.13c.16.09.29.21.39.37s.16.34.2.56c.04.21.06.45.06.7v2.51Z"/>
        <path class="cls-2" d="M69.65,113.23c.4,0,.78.07,1.14.21.36.14.67.35.95.62.28.27.49.6.65.98.16.38.24.81.24,1.28,0,.09,0,.22-.02.37s-.04.32-.08.5c-.04.18-.11.35-.19.51-.09.16-.2.29-.35.39-.15.1-.33.15-.55.15-.18,0-.33-.04-.42-.11-.1-.07-.17-.16-.2-.27-.04-.11-.06-.23-.08-.34-.15.16-.35.3-.59.41-.24.11-.5.17-.79.17-.39,0-.7-.11-.91-.32s-.32-.47-.32-.79c0-.29.08-.51.23-.67.15-.16.34-.28.58-.35.24-.07.47-.11.71-.11s.44.02.61.07.3.08.39.12c0-.24-.03-.45-.08-.63-.05-.18-.15-.32-.3-.43-.14-.1-.34-.15-.6-.15-.22,0-.42.03-.61.1-.19.07-.36.16-.51.27l-.16-.4c.19-.13.41-.23.63-.3.23-.07.46-.11.71-.11.32,0,.57.05.75.15s.32.23.41.4c.09.17.14.35.17.54s.04.39.04.58v.97c0,.16,0,.3.02.43.02.13.05.23.11.3.06.07.15.11.28.11.16,0,.3-.06.4-.17.11-.11.19-.25.24-.42s.1-.35.12-.53.04-.34.04-.47c0-.39-.07-.75-.2-1.08-.13-.33-.32-.62-.56-.87-.24-.25-.52-.44-.84-.58-.32-.14-.67-.21-1.06-.21s-.72.07-1.05.2c-.32.13-.61.32-.85.56-.24.24-.43.53-.57.86-.14.33-.21.69-.21,1.08s.06.73.19,1.06.31.62.54.87.51.44.83.58c.32.14.67.21,1.05.21.24,0,.46-.03.65-.08s.4-.13.6-.22l.11.31c-.22.11-.44.19-.67.24-.23.05-.46.08-.7.08-.41,0-.79-.07-1.14-.22-.35-.15-.67-.36-.94-.63-.27-.27-.48-.6-.64-.97-.15-.37-.23-.78-.23-1.22s.08-.88.25-1.26.39-.69.67-.95c.28-.26.61-.46.97-.6.36-.14.74-.21,1.13-.21ZM70.12,117.5c.14-.06.25-.14.32-.22.07-.08.12-.17.14-.27s.04-.19.04-.28v-.3c-.07-.01-.19-.04-.37-.1-.18-.05-.38-.08-.63-.08-.18,0-.36.02-.52.06-.16.04-.29.12-.38.22s-.15.25-.15.43c0,.14.03.26.1.36.07.11.16.19.28.26.12.06.26.09.42.09.13,0,.26-.02.39-.05.13-.04.25-.08.35-.13Z"/>
        <path class="cls-2" d="M73.48,116.03c0-.4.08-.76.25-1.09s.39-.59.68-.79c.29-.2.62-.3.99-.3.34,0,.65.09.92.27.27.18.48.4.63.65v-2.56h.71v5.11c0,.09.02.15.05.19.04.04.09.06.17.07v.55c-.13.02-.24.03-.32.03-.14,0-.26-.05-.37-.15-.11-.1-.16-.21-.16-.32v-.36c-.17.27-.39.48-.67.64s-.57.24-.88.24-.56-.06-.81-.17c-.25-.12-.46-.28-.64-.48-.18-.2-.32-.44-.42-.7-.1-.26-.15-.54-.15-.83ZM76.95,116.65v-1.2c-.07-.18-.17-.35-.32-.49-.15-.15-.31-.26-.49-.35-.18-.09-.36-.13-.54-.13-.21,0-.4.04-.57.13-.17.09-.32.21-.44.35-.12.15-.21.31-.28.5-.07.19-.1.38-.1.59s.04.41.11.59c.07.19.18.35.31.5.13.14.29.26.46.34.18.08.37.12.57.12.13,0,.26-.02.4-.07s.27-.11.39-.2c.12-.09.23-.19.32-.3.09-.12.14-.24.17-.37Z"/>
        <path class="cls-2" d="M80.79,118.2c-.32,0-.61-.06-.87-.17-.26-.12-.48-.27-.67-.48-.19-.2-.33-.43-.44-.7-.1-.26-.15-.54-.15-.83s.05-.57.15-.84c.1-.26.25-.49.44-.7.19-.2.42-.36.68-.48.26-.12.55-.17.87-.17s.6.06.86.17c.26.12.49.27.68.48.19.2.34.43.44.7.1.26.15.54.15.84s-.05.57-.15.83c-.1.26-.25.5-.44.7s-.42.36-.68.48c-.26.12-.55.17-.87.17ZM79.39,116.04c0,.29.06.55.19.79.13.24.3.42.51.56s.45.2.71.2.5-.07.71-.21c.21-.14.38-.33.51-.57.13-.24.19-.5.19-.79s-.06-.55-.19-.79-.3-.42-.51-.56c-.21-.14-.45-.21-.71-.21s-.49.07-.71.21c-.21.14-.38.33-.51.57s-.19.5-.19.79Z"/>
        <path class="cls-2" d="M85.8,118.2c-.32,0-.61-.06-.87-.17-.26-.12-.49-.27-.68-.48-.19-.2-.34-.43-.45-.7-.11-.26-.16-.54-.16-.84,0-.4.09-.76.28-1.09.18-.33.44-.59.77-.79.33-.2.7-.3,1.12-.3s.8.1,1.12.3c.32.2.56.46.74.79.18.32.26.68.26,1.05,0,.05,0,.11,0,.16,0,.05,0,.09-.01.12h-3.51c.02.27.1.51.23.73.13.21.3.38.51.5.21.12.44.18.68.18.26,0,.5-.06.73-.19.23-.13.39-.3.47-.51l.62.17c-.09.21-.23.39-.41.55-.18.16-.39.29-.64.38s-.51.14-.8.14ZM84.38,115.77h2.89c-.02-.27-.1-.51-.24-.72s-.31-.37-.52-.49c-.21-.12-.44-.18-.7-.18s-.48.06-.69.18c-.21.12-.38.28-.52.49-.13.21-.21.45-.23.72Z"/>
        <path class="cls-2" d="M88.7,118.12v-.91h.6v.91h-.6Z"/>
        <path class="cls-2" d="M92.29,118.2c-.32,0-.61-.06-.87-.17-.26-.12-.49-.28-.68-.48-.19-.2-.34-.44-.45-.7-.11-.26-.16-.54-.16-.84,0-.4.09-.76.27-1.09.18-.33.43-.59.75-.79s.7-.29,1.13-.29.78.09,1.09.28.54.44.69.75l-.7.22c-.11-.2-.26-.36-.45-.47s-.41-.17-.65-.17c-.26,0-.5.07-.71.2s-.38.32-.51.55c-.12.23-.19.5-.19.8s.06.56.19.8c.13.24.3.43.51.57.21.14.45.21.71.21.17,0,.33-.03.48-.09s.29-.14.41-.24.2-.21.24-.33l.7.21c-.09.21-.22.39-.39.55-.18.16-.38.29-.62.38-.24.09-.5.14-.79.14Z"/>
        <path class="cls-2" d="M96.83,118.2c-.32,0-.61-.06-.87-.17-.26-.12-.48-.27-.67-.48s-.33-.43-.44-.7c-.1-.26-.15-.54-.15-.83s.05-.57.15-.84c.1-.26.25-.49.44-.7.19-.2.42-.36.68-.48.26-.12.55-.17.87-.17s.6.06.86.17c.26.12.49.27.68.48.19.2.34.43.44.7.1.26.15.54.15.84s-.05.57-.15.83c-.1.26-.25.5-.44.7s-.42.36-.68.48c-.26.12-.55.17-.87.17ZM95.42,116.04c0,.29.06.55.19.79.13.24.3.42.51.56s.45.2.71.2.5-.07.71-.21c.21-.14.38-.33.51-.57.13-.24.19-.5.19-.79s-.06-.55-.19-.79-.3-.42-.51-.56c-.21-.14-.45-.21-.71-.21s-.5.07-.71.21c-.21.14-.38.33-.51.57s-.19.5-.19.79Z"/>
        <path class="cls-2" d="M106.32,118.12h-.71v-2.35c0-.44-.07-.76-.21-.97-.14-.21-.36-.31-.64-.31s-.55.1-.78.31c-.23.21-.4.47-.49.8v2.52h-.71v-2.35c0-.44-.07-.77-.21-.98-.14-.21-.35-.31-.63-.31s-.54.1-.77.3-.4.47-.5.8v2.54h-.71v-4.21h.65v.91c.17-.31.4-.55.67-.72.28-.17.59-.25.93-.25s.63.1.84.29.34.44.39.74c.19-.33.42-.59.69-.76.27-.17.58-.26.92-.26.24,0,.45.04.61.13.17.09.3.21.39.37s.17.34.21.56c.04.21.06.45.06.7v2.51Z"/>
        <path class="cls-2" d="M55.33,126.91h.69l-1.8,4.21h-.62l-.82-1.98-.81,1.98h-.62l-1.8-4.21h.68l1.46,3.51.68-1.73-.71-1.77h.62l.5,1.34.5-1.34h.62l-.71,1.77.68,1.73,1.45-3.51Z"/>
        <path class="cls-2" d="M62.31,126.91h.69l-1.8,4.21h-.62l-.82-1.98-.81,1.98h-.62l-1.8-4.21h.68l1.46,3.51.68-1.73-.71-1.77h.62l.5,1.34.5-1.34h.62l-.71,1.77.68,1.73,1.45-3.51Z"/>
        <path class="cls-2" d="M69.3,126.91h.69l-1.8,4.21h-.62l-.82-1.98-.81,1.98h-.62l-1.8-4.21h.68l1.46,3.51.68-1.73-.71-1.77h.62l.5,1.34.5-1.34h.62l-.71,1.77.68,1.73,1.45-3.51Z"/>
        <path class="cls-2" d="M70.25,131.12v-.91h.6v.91h-.6Z"/>
        <path class="cls-2" d="M71.5,132.63c-.18,0-.36-.03-.53-.08-.17-.05-.32-.14-.45-.26l.33-.48c.08.07.16.12.26.15.1.03.2.04.3.04.12,0,.23-.03.33-.09s.19-.14.25-.25c.07-.1.1-.22.1-.35v-4.4h.71v4.35c0,.26-.06.5-.19.71-.12.21-.29.37-.48.48-.2.12-.41.17-.65.17ZM72.1,126.12v-.89h.71v.89h-.71Z"/>
        <path class="cls-2" d="M75.93,131.2c-.32,0-.61-.06-.87-.17-.26-.12-.48-.27-.67-.48-.19-.2-.33-.43-.44-.7-.1-.26-.15-.54-.15-.83s.05-.57.15-.84c.1-.26.25-.49.44-.7.19-.2.42-.36.68-.48.26-.12.55-.17.87-.17s.6.06.86.17c.26.12.49.27.68.48.19.2.34.43.44.7.1.26.15.54.15.84s-.05.57-.15.83c-.1.26-.25.5-.44.7s-.42.36-.68.48c-.26.12-.55.17-.87.17ZM74.53,129.04c0,.29.06.55.19.79.13.24.3.42.51.56s.45.2.71.2.5-.07.71-.21c.21-.14.38-.33.51-.57.13-.24.19-.5.19-.79s-.06-.55-.19-.79-.3-.42-.51-.56c-.21-.14-.45-.21-.71-.21s-.49.07-.71.21c-.21.14-.38.33-.51.57s-.19.5-.19.79Z"/>
        <path class="cls-2" d="M82.72,131.12h-.71v-2.35c0-.43-.08-.75-.23-.96-.15-.21-.38-.32-.66-.32-.18,0-.37.05-.56.14s-.35.23-.49.39-.24.35-.31.56v2.54h-.71v-5.92h.71v2.62c.17-.3.4-.54.69-.71s.6-.26.94-.26c.25,0,.47.04.64.13.17.09.31.21.41.37s.18.35.22.56c.05.21.07.44.07.7v2.51Z"/>
        <path class="cls-2" d="M87.61,131.12h-.71v-2.35c0-.44-.07-.77-.21-.98-.14-.21-.35-.31-.63-.31-.2,0-.39.05-.58.14-.19.1-.36.23-.51.39-.15.16-.26.35-.32.56v2.54h-.71v-4.21h.65v.91c.11-.2.26-.37.44-.52.18-.15.38-.26.61-.34.23-.08.46-.12.71-.12s.45.04.61.13c.17.09.29.21.39.37s.16.34.2.56c.04.21.06.45.06.7v2.51Z"/>
        <path class="cls-2" d="M88.56,129.03c0-.4.08-.76.25-1.09s.39-.59.68-.79c.29-.2.62-.3.99-.3.34,0,.65.09.92.27.27.18.48.4.63.65v-2.56h.71v5.11c0,.09.02.15.05.19.04.04.09.06.17.07v.55c-.13.02-.24.03-.32.03-.14,0-.26-.05-.37-.15-.11-.1-.16-.21-.16-.32v-.36c-.17.27-.39.48-.67.64-.28.16-.57.24-.88.24s-.56-.06-.81-.17c-.25-.12-.46-.28-.64-.48-.18-.2-.32-.44-.42-.7-.1-.26-.15-.54-.15-.83ZM92.03,129.65v-1.2c-.06-.18-.17-.35-.32-.49-.15-.15-.31-.26-.49-.35-.18-.09-.36-.13-.54-.13-.21,0-.4.04-.57.13-.17.09-.32.21-.44.35-.12.15-.21.31-.28.5-.06.19-.1.38-.1.59s.04.41.11.59c.07.19.18.35.31.5.13.14.29.26.46.34.18.08.37.12.57.12.13,0,.26-.02.4-.07s.27-.11.39-.2c.12-.09.23-.19.32-.3.09-.12.14-.24.17-.37Z"/>
        <path class="cls-2" d="M95.87,131.2c-.32,0-.61-.06-.87-.17-.26-.12-.48-.27-.67-.48-.19-.2-.33-.43-.44-.7-.1-.26-.15-.54-.15-.83s.05-.57.15-.84c.1-.26.25-.49.44-.7.19-.2.42-.36.68-.48.26-.12.55-.17.87-.17s.6.06.86.17c.26.12.49.27.68.48.19.2.34.43.44.7.1.26.15.54.15.84s-.05.57-.15.83c-.1.26-.25.5-.44.7s-.42.36-.68.48c-.26.12-.55.17-.87.17ZM94.47,129.04c0,.29.06.55.19.79.13.24.3.42.51.56s.45.2.71.2.5-.07.71-.21c.21-.14.38-.33.51-.57.13-.24.19-.5.19-.79s-.06-.55-.19-.79-.3-.42-.51-.56c-.21-.14-.45-.21-.71-.21s-.49.07-.71.21c-.21.14-.38.33-.51.57s-.19.5-.19.79Z"/>
        <path class="cls-2" d="M100.88,131.2c-.32,0-.61-.06-.87-.17-.26-.12-.49-.27-.68-.48-.19-.2-.34-.43-.45-.7-.11-.26-.16-.54-.16-.84,0-.4.09-.76.28-1.09s.44-.59.77-.79c.33-.2.7-.3,1.12-.3s.8.1,1.12.3c.32.2.56.46.74.79.18.32.26.68.26,1.05,0,.05,0,.11,0,.16,0,.05,0,.09-.01.12h-3.51c.02.27.1.51.23.73.13.21.3.38.51.5.21.12.44.18.68.18.26,0,.5-.06.73-.19.23-.13.39-.3.47-.51l.62.17c-.09.21-.23.39-.41.55-.18.16-.4.29-.64.38-.25.09-.51.14-.8.14ZM99.46,128.77h2.89c-.02-.27-.1-.51-.23-.72-.14-.21-.31-.37-.52-.49s-.44-.18-.7-.18-.48.06-.69.18-.38.28-.51.49c-.13.21-.21.45-.23.72Z"/>
        <path class="cls-2" d="M103.78,131.12v-.91h.6v.91h-.6Z"/>
        <path class="cls-2" d="M107.37,131.2c-.32,0-.61-.06-.87-.17-.26-.12-.49-.28-.68-.48-.19-.2-.34-.44-.45-.7-.11-.26-.16-.54-.16-.84,0-.4.09-.76.27-1.09.18-.33.43-.59.75-.79.32-.2.7-.29,1.13-.29s.78.09,1.09.28c.31.19.54.44.69.75l-.7.22c-.11-.2-.26-.36-.45-.47-.2-.11-.41-.17-.65-.17-.26,0-.5.07-.71.2-.21.13-.38.32-.51.55-.12.23-.19.5-.19.8s.06.56.19.8c.13.24.3.43.51.57.21.14.45.21.71.21.17,0,.33-.03.48-.09.15-.06.29-.14.41-.24s.2-.21.24-.33l.7.21c-.09.21-.22.39-.39.55-.18.16-.38.29-.62.38-.24.09-.5.14-.79.14Z"/>
        <path class="cls-2" d="M111.91,131.2c-.32,0-.61-.06-.87-.17-.26-.12-.48-.27-.67-.48s-.33-.43-.44-.7c-.1-.26-.15-.54-.15-.83s.05-.57.15-.84c.1-.26.25-.49.44-.7.19-.2.42-.36.68-.48.26-.12.55-.17.87-.17s.6.06.86.17c.26.12.49.27.68.48.19.2.34.43.44.7.1.26.15.54.15.84s-.05.57-.15.83c-.1.26-.25.5-.44.7s-.42.36-.68.48c-.26.12-.55.17-.87.17ZM110.5,129.04c0,.29.06.55.19.79.13.24.3.42.51.56s.45.2.71.2.5-.07.71-.21c.21-.14.38-.33.51-.57.13-.24.19-.5.19-.79s-.06-.55-.19-.79-.3-.42-.51-.56c-.21-.14-.45-.21-.71-.21s-.5.07-.71.21c-.21.14-.38.33-.51.57s-.19.5-.19.79Z"/>
        <path class="cls-2" d="M121.4,131.12h-.71v-2.35c0-.44-.07-.76-.21-.97-.14-.21-.36-.31-.64-.31s-.55.1-.78.31c-.23.21-.4.47-.49.8v2.52h-.71v-2.35c0-.44-.07-.77-.21-.98-.14-.21-.35-.31-.63-.31s-.54.1-.77.3-.4.47-.5.8v2.54h-.71v-4.21h.65v.91c.17-.31.4-.55.67-.72.28-.17.59-.25.93-.25s.63.1.84.29.34.44.39.74c.19-.33.42-.59.69-.76.27-.17.58-.26.92-.26.24,0,.45.04.61.13.17.09.3.21.39.37s.17.34.21.56c.04.21.06.45.06.7v2.51Z"/>
      </g>
      <g>
        <g>
          <circle class="cls-1" cx="170.23" cy="110.57" r="16.8"/>
          <path class="cls-2" d="M178.03,103.05h-15.59c-.29,0-.52.23-.52.52v11.63c0,.29.23.52.52.52h3.68c-.19.33-.3.71-.3,1.09v.75c0,.29.23.52.52.52h7.8c.29,0,.52-.23.52-.52v-.75c0-.39-.11-.77-.31-1.1h3.69c.29,0,.52-.23.52-.52v-11.62c0-.29-.23-.52-.52-.52ZM173.61,116.81v.23h-6.76v-.23c0-.61.49-1.1,1.1-1.1h4.57c.6,0,1.09.5,1.09,1.1ZM177.51,114.67h-14.55v-10.58h14.55v10.58ZM168.04,113.11h4.44c1.45,0,2.62-1.17,2.62-2.62,0-.03,0-.07,0-.1-.08-1.37-1.2-2.45-2.57-2.49-.26-1.5-1.69-2.5-3.18-2.24-1.29.23-2.25,1.33-2.28,2.64v.03l-.13.04c-.94.3-1.57,1.17-1.58,2.15v.04c.05,1.44,1.24,2.57,2.68,2.56v-.02ZM167.26,109.35c.04.1.09.21.14.3.14.25.46.34.71.2.24-.13.34-.44.21-.69-.14-.26-.21-.56-.19-.85.1-.94.94-1.62,1.88-1.52.83.09,1.47.76,1.52,1.6,0,.1.03.2.08.28v.02c.11.15.28.24.45.24h.35c.86,0,1.57.65,1.64,1.5.02.44-.14.86-.44,1.17-.3.31-.71.49-1.14.49h-4.43c-.87.01-1.59-.67-1.63-1.54v-.03c0-.53.35-.99.84-1.16v-.02Z"/>
        </g>
        <g>
          <circle class="cls-1" cx="215.28" cy="110.57" r="16.8"/>
          <path class="cls-2" d="M220.33,103.27c-.14-.08-.32-.08-.46,0l-5.63,3.02h-3.06c-.82,0-1.48.66-1.48,1.48v5.59c0,.82.66,1.48,1.48,1.48h3.06l5.64,3.03c.14.08.32.08.46,0,.14-.08.23-.23.23-.4v-13.81c0-.16-.09-.32-.24-.4ZM210.61,113.36v-5.59c0-.31.25-.56.56-.56h2.72v6.71h-2.72c-.31,0-.56-.25-.56-.56h0ZM219.63,116.69l-4.83-2.59v-7.08l4.83-2.59v12.26Z"/>
        </g>
        <g>
          <circle class="cls-1" cx="215.28" cy="62.35" r="16.8"/>
          <path class="cls-2" d="M217.67,60.92v-.71c0-.13.1-.23.23-.23h.71c.13,0,.23.1.23.23v.71c0,.13-.1.23-.23.23h-.71c-.13,0-.23-.1-.23-.23ZM218.66,62.1v.71c0,.13.1.23.23.23h.72c.13,0,.23-.1.23-.23v-.71c0-.13-.1-.23-.23-.23h-.72c-.13,0-.23.1-.23.23h0ZM216.68,62.1v.71c0,.13.1.23.23.23h.71c.13,0,.23-.1.23-.23v-.71c0-.13-.1-.23-.23-.23h-.71c-.13,0-.23.1-.23.23h0ZM219.88,61.15h.71c.13,0,.23-.1.23-.23v-.71c0-.13-.1-.23-.23-.23h-.71c-.13,0-.23.1-.23.23v.71c0,.13.1.23.23.23ZM219.83,63.74h-.7c-.13,0-.23.1-.23.23v.71c0,.13.1.23.23.23h.7c.13,0,.23-.1.23-.23v-.71c0-.13-.1-.23-.23-.23ZM215.92,61.15h.71c.13,0,.23-.1.23-.23v-.71c0-.13-.1-.23-.23-.23h-.71c-.13,0-.23.1-.23.23v.71c0,.13.1.23.23.23ZM217.96,63.74h-5.33c-.13,0-.23.1-.23.23v.71c0,.13.1.23.23.23h5.34c.13,0,.23-.1.23-.23v-.71c0-.13-.1-.23-.23-.23h0ZM211.43,63.74h-.7c-.13,0-.23.1-.23.23v.71c0,.13.1.23.23.23h.71c.13,0,.23-.1.23-.23v-.71c0-.13-.1-.23-.23-.23,0,0,0,0,0,0h0ZM210.73,62.1v.71c0,.13.1.23.23.23h.71c.13,0,.23-.1.23-.23v-.71c0-.13-.1-.23-.23-.23h-.71c-.13,0-.23.1-.23.23ZM209.97,61.15h.71c.13,0,.23-.1.23-.23v-.71c0-.13-.1-.23-.23-.23h-.71c-.13,0-.23.1-.23.23v.71c0,.13.1.23.23.23h0ZM214.69,62.1v.71c0,.13.1.23.23.23h.71c.13,0,.23-.1.23-.23v-.71c0-.13-.1-.23-.23-.23h-.71c-.13,0-.23.1-.23.23h0ZM222.57,58.71v7.27c0,.25-.2.46-.46.46h-13.66c-.25,0-.46-.2-.46-.46v-7.27c0-.25.2-.46.46-.46h13.66c.25,0,.46.2.46.46ZM221.65,59.17h-12.74v6.36h12.74v-6.36ZM211.96,61.15h.71c.13,0,.23-.1.23-.23v-.71c0-.13-.1-.23-.23-.23h-.71c-.13,0-.23.1-.23.23v.71c0,.13.1.23.23.23ZM213.94,61.15h.71c.13,0,.23-.1.23-.23v-.71c0-.13-.1-.23-.23-.23h-.71c-.13,0-.23.1-.23.23v.71c0,.13.1.23.23.23ZM212.72,62.1v.71c0,.13.1.23.23.23h.71c.13,0,.23-.1.23-.23v-.71c0-.13-.1-.23-.23-.23h-.71c-.13,0-.23.1-.23.23h0Z"/>
        </g>
        <g>
          <circle class="cls-1" cx="170.23" cy="62.35" r="16.8"/>
          <path class="cls-2" d="M166.8,56.21c-.2-.2-.2-.53,0-.73,0,0,0,0,0,0,1.9-1.89,4.97-1.89,6.86,0,.2.2.2.53,0,.73-.2.2-.53.2-.73,0h0c-1.49-1.49-3.9-1.49-5.39,0-.2.2-.53.2-.73,0,0,0,0,0,0,0ZM168.33,56.76c-.19.21-.18.54.04.73.2.18.5.18.7,0,.64-.64,1.69-.64,2.33,0,.1.1.23.15.37.15.14,0,.27-.05.37-.15.2-.2.2-.53,0-.73-1.05-1.05-2.75-1.05-3.8,0,0,0,0,0,0,0ZM174.19,62.98v3.71c0,2.19-1.77,3.96-3.96,3.96s-3.96-1.77-3.96-3.96v-3.71c0-2.19,1.77-3.96,3.96-3.96s3.96,1.77,3.96,3.96ZM173.15,62.98c0-1.61-1.31-2.92-2.92-2.92s-2.92,1.31-2.92,2.92v3.71c0,1.61,1.31,2.92,2.92,2.92s2.92-1.31,2.92-2.92v-3.71ZM170.23,61.21c-.29,0-.52.23-.52.52v1.97c0,.29.23.52.52.52s.52-.23.52-.52v-1.97c0-.29-.23-.52-.52-.52Z"/>
        </g>
      </g>
      <path class="cls-4" d="M53.49,92.8c-4.36-.94-8.95-.16-10.78,4.37-1.66,4.1-.82,9.11.55,13.17.17.51.36,1.02.56,1.52.1.24.2.49.31.73.04.09.13.23.15.33.05.38,0-.27-.04.13-.14,1.13-.69,2.32-.94,3.45-.52,2.33-.84,4.72-.92,7.11-.14,4.14.38,8.84,3.04,12.19,3.44,4.33,9.2,3.73,13.85,1.97.84-.32.48-1.69-.38-1.37-3.83,1.45-8.7,2.37-11.88-.92-2.63-2.72-3.21-6.96-3.24-10.58-.02-2.22.2-4.43.6-6.61.19-1.02.42-2.04.69-3.05s.84-1.98.48-2.93c-1.47-3.86-2.71-7.86-2.17-12.06.25-1.96.98-4.03,2.61-5.26,2.03-1.53,4.78-1.34,7.13-.84.89.19,1.27-1.17.38-1.37h0Z"/>
      <path class="cls-4" d="M30.47,74.66c-7.64-1.61-11.51-9-12.93-16.09-1.56-7.81-.81-16.61,2.61-23.85,1.67-3.53,4.11-6.83,7.65-8.64.81-.42.1-1.64-.72-1.22-7.02,3.61-10.15,12.24-11.22,19.58-1.19,8.16-.44,17.59,4.28,24.6,2.36,3.5,5.77,6.11,9.94,6.99.89.19,1.27-1.18.38-1.37h0Z"/>
      <path class="cls-4" d="M143.25,67.19c-1.07-9.43,1.74-18.65,8.45-25.46s15.95-10.56,25.23-12.06c10.42-1.69,21.32-.57,31.2,3.1,10.58,3.92,19.91,10.96,26.26,20.32,7.84,11.56,10.66,25.64,10.33,39.44-.3,12.69-5.04,25.51-14.42,34.28-8.02,7.5-18.74,11.46-29.59,12.38s-22.71-1.12-32.96-5.73-19.11-11.58-24.81-21.09c-6.05-10.08-7.36-22.01-4.62-33.36.8-3.31,1.91-6.53,3.23-9.67.35-.84-1.02-1.21-1.37-.38-4.95,11.72-6.49,24.94-1.9,37.03,4,10.53,12,19.03,21.53,24.86s21.39,9.42,32.94,9.9,22.8-1.94,32.31-8.09c10.32-6.67,17.02-17.3,19.73-29.18,1.73-7.59,1.73-15.52.8-23.23-.84-6.95-2.62-13.78-5.57-20.14-5.03-10.81-13.48-19.73-23.98-25.36-9.7-5.2-20.84-7.65-31.82-7.24-10.05.37-20.35,3.11-28.6,9.02-7.68,5.5-12.92,13.66-13.86,23.14-.25,2.49-.2,5,.09,7.49.1.9,1.52.91,1.42,0h0Z"/>
    </g>
  </g>
</svg>