<?xml version="1.0" encoding="UTF-8"?>
<svg xmlns="http://www.w3.org/2000/svg" version="1.1" viewBox="0 0 512 512">
  <!-- Generator: Adobe Illustrator 28.7.1, SVG Export Plug-In . SVG Version: 1.2.0 Build 142)  -->
  <g>
    <g id="Layer_1">
      <path d="M340.44,128.38c0-2.15-2.87-2.15-2.87-2.15-20.81,0-99.75,119.6-166.97,193.76-6.7,7.18-8.37,8.61-15.07,8.61-7.42,0-13.87-.72-13.87-5.74,0-2.15,1.19-4.31,1.19-4.31,97.36-131.57,126.78-176.3,127.74-177.98,0,0,0-.72-.48-.72-.72,0-1.43.72-1.43.72-47.6,39.95-115.3,66.74-153.57,66.74-11,0-29.19-2.63-29.19-10.76,0-2.87,2.63-7.66,5.5-7.66,3.59,0,3.11,9.57,30.38,9.57,53.58,0,137.79-44.49,173.67-92.81.48-.72,1.19-.95,1.91-.95,2.15,0,4.78,1.91,4.78,4.54,0,.72-.24,1.67-.72,2.39-39.71,60.28-83.72,137.3-98.07,157.88.24,0,2.39-.24,3.83-1.67,34.69-39.47,115.06-160.75,145.91-160.75,4.07,0,8.85,3.35,8.85,8.13,0,1.19-.48,2.39-.95,3.59-6.94,13.87-35.4,63.87-65.78,112.43,1.19,0,1.67-.48,2.63-1.91,13.87-18.66,89.94-118.65,118.65-118.65,4.31,0,9.57,1.43,9.57,5.98,0,.95-.24,1.91-.72,2.87-7.18,18.42-97.83,189.69-97.83,255.23,0,15.55,5.26,25.36,17.94,25.36,19.61,0,38.52-16.51,45.93-45.69.72-2.63,3.35-4.54,5.74-4.54,1.91,0,3.59,1.19,3.59,4.31,0,9.33-13.87,53.1-64.83,53.1-25.36,0-34.93-12.92-34.93-33.49,0-57.65,76.31-175.58,100.23-239.69,0-1.43-1.43-2.39-3.35-2.39-28.47,0-119.84,144.48-158.83,189.69-6.46,7.42-8.37,8.61-15.07,8.61-7.42,0-13.87-.72-13.87-5.74,0-2.15,1.19-4.31,1.19-4.31,0-3.35,27.03-39.23,27.27-39.47,82.77-111.95,96.64-140.65,101.66-150.94.24-.48.24-.72.24-1.19h0Z"/>
    </g>
  </g>
</svg>