<?xml version="1.0" encoding="UTF-8"?>
<svg xmlns="http://www.w3.org/2000/svg" version="1.1" viewBox="0 0 538.58 538.58">
  <!-- Generator: Adobe Illustrator 29.0.0, SVG Export Plug-In . SVG Version: 1.2.0 Build 15)  -->
  <g>
    <g id="Layer_1">
      <g id="Layer_1-2" data-name="Layer_1">
        <g id="Layer_1-2">
          <g>
            <path d="M63.3,249.23c-.47-4.22-2.39-7.49-5.76-9.82s-7.5-3.49-12.4-3.49c-3.58,0-6.71.61-9.38,1.83-2.67,1.22-4.75,2.9-6.23,5.04s-2.23,4.57-2.23,7.28c0,2.28.52,4.23,1.56,5.85s2.37,2.97,4.01,4.04c1.63,1.06,3.34,1.94,5.13,2.62s3.44,1.22,4.93,1.64l8.21,2.33c2.1.59,4.46,1.38,7.04,2.42,2.6,1.02,5.08,2.42,7.46,4.18,2.38,1.76,4.34,4.01,5.9,6.76s2.32,6.11,2.32,10.1c0,4.6-1.14,8.76-3.41,12.48s-5.59,6.67-9.95,8.86c-4.35,2.19-9.64,3.29-15.85,3.29-5.79,0-10.8-.98-15.02-2.95-4.22-1.97-7.54-4.72-9.95-8.24-2.4-3.52-3.77-7.61-4.08-12.27h10.1c.26,3.22,1.29,5.87,3.1,7.96s4.09,3.64,6.87,4.66c2.78,1.01,5.77,1.52,8.98,1.52,3.74,0,7.09-.65,10.06-1.94s5.32-3.09,7.06-5.41c1.74-2.31,2.61-5.03,2.61-8.13,0-2.83-.75-5.13-2.25-6.91s-3.48-3.22-5.92-4.32-5.09-2.08-7.93-2.92l-9.95-2.99c-6.31-1.92-11.32-4.64-15-8.2-3.69-3.55-5.53-8.2-5.53-13.94,0-4.77,1.23-8.93,3.69-12.5,2.47-3.57,5.78-6.34,9.95-8.32,4.17-1.98,8.83-2.97,13.99-2.97s9.84.98,13.89,2.93c4.05,1.96,7.26,4.62,9.65,8.01s3.64,7.23,3.77,11.52h-9.48s.04,0,.04,0Z"/>
            <path d="M104.33,314.62c-3.84,0-7.32-.77-10.46-2.31s-5.62-3.77-7.46-6.7-2.76-6.47-2.76-10.63c0-3.66.69-6.63,2.05-8.92s3.19-4.08,5.49-5.39c2.29-1.3,4.82-2.28,7.6-2.93s5.57-1.17,8.39-1.57c3.69-.5,6.68-.88,8.98-1.14,2.3-.27,3.99-.71,5.05-1.35,1.07-.64,1.6-1.75,1.6-3.32v-.33c0-4.1-1.06-7.29-3.18-9.57s-5.32-3.41-9.61-3.41-7.93,1.02-10.46,3.08-4.3,4.25-5.32,6.57l-8.84-3.33c1.58-3.89,3.69-6.91,6.33-9.09,2.65-2.17,5.54-3.71,8.68-4.58s6.24-1.31,9.3-1.31c1.95,0,4.19.24,6.73.72,2.54.49,5,1.48,7.39,2.97,2.38,1.5,4.36,3.76,5.94,6.78s2.36,7.07,2.36,12.15v42.1h-9.32v-8.66h-.47c-.64,1.38-1.69,2.87-3.16,4.45-1.48,1.59-3.44,2.93-5.88,4.04s-5.44,1.66-8.96,1.66h0v.02h-.01ZM105.75,305.8c3.69,0,6.8-.77,9.34-2.29,2.54-1.52,4.47-3.49,5.76-5.91,1.3-2.42,1.95-4.95,1.95-7.61v-8.99c-.39.5-1.25.95-2.59,1.35s-2.86.75-4.58,1.04-3.39.54-5.01.75-2.93.38-3.93.52c-2.42.33-4.68.86-6.77,1.6s-3.78,1.83-5.05,3.29-1.92,3.43-1.92,5.93c0,3.41,1.2,5.98,3.61,7.72s5.47,2.6,9.17,2.6c0,0,.02,0,.02,0Z"/>
            <path d="M156.29,274.69v38.44h-9.32v-63.9h9v9.99h.79c1.42-3.25,3.58-5.86,6.48-7.84,2.89-1.98,6.63-2.97,11.21-2.97,4.1,0,7.7.88,10.78,2.64s5.48,4.42,7.18,7.99c1.71,3.57,2.57,8.06,2.57,13.5v40.6h-9.32v-39.94c0-5.02-1.23-8.93-3.71-11.76s-5.87-4.23-10.18-4.23c-2.97,0-5.63.68-7.95,2.04-2.32,1.36-4.16,3.34-5.51,5.95s-2.01,5.77-2.01,9.49h-.02,0Z"/>
            <path d="M251.87,263.54l-8.37,2.49c-.53-1.47-1.29-2.91-2.31-4.3-1.01-1.39-2.38-2.56-4.12-3.47s-3.96-1.37-6.67-1.37c-3.71,0-6.8.89-9.25,2.68-2.47,1.79-3.69,4.06-3.69,6.8,0,2.44.84,4.37,2.53,5.78s4.31,2.6,7.89,3.54l9,2.33c5.43,1.38,9.46,3.5,12.11,6.35,2.66,2.84,3.99,6.5,3.99,10.96,0,3.66-.99,6.93-2.98,9.82s-4.76,5.15-8.3,6.83c-3.56,1.66-7.69,2.49-12.4,2.49-6.18,0-11.31-1.42-15.36-4.24-4.05-2.83-6.62-6.96-7.7-12.39l8.84-2.33c.84,3.44,2.45,6.02,4.8,7.74s5.44,2.58,9.25,2.58c4.34,0,7.8-.98,10.37-2.93,2.57-1.96,3.85-4.3,3.85-7.05,0-2.21-.74-4.08-2.21-5.59s-3.74-2.64-6.79-3.39l-10.1-2.49c-5.56-1.38-9.63-3.55-12.21-6.46-2.6-2.93-3.89-6.59-3.89-11,0-3.61.97-6.79,2.9-9.57,1.93-2.77,4.58-4.95,7.93-6.53,3.35-1.58,7.16-2.37,11.43-2.37,6,0,10.72,1.38,14.15,4.16,3.44,2.77,5.87,6.43,7.32,10.98v-.05h-.01Z"/>
            <path d="M343.76,249.23c-.47-4.22-2.39-7.49-5.76-9.82-3.36-2.33-7.5-3.49-12.4-3.49-3.58,0-6.71.61-9.38,1.83-2.67,1.22-4.75,2.9-6.23,5.04s-2.23,4.57-2.23,7.28c0,2.28.52,4.23,1.56,5.85s2.37,2.97,4.01,4.04c1.63,1.06,3.34,1.94,5.13,2.62s3.44,1.22,4.93,1.64l8.21,2.33c2.1.59,4.46,1.38,7.04,2.42,2.6,1.02,5.08,2.42,7.46,4.18,2.38,1.76,4.34,4.01,5.9,6.76s2.33,6.11,2.33,10.1c0,4.6-1.14,8.76-3.41,12.48s-5.6,6.67-9.95,8.86-9.64,3.29-15.85,3.29c-5.79,0-10.8-.98-15.02-2.95-4.22-1.97-7.54-4.72-9.94-8.24s-3.77-7.61-4.08-12.27h10.1c.26,3.22,1.29,5.87,3.1,7.96s4.09,3.64,6.87,4.66c2.78,1.01,5.77,1.52,8.98,1.52,3.74,0,7.09-.65,10.06-1.94s5.32-3.09,7.06-5.41c1.74-2.31,2.61-5.03,2.61-8.13,0-2.83-.75-5.13-2.25-6.91-1.51-1.78-3.48-3.22-5.92-4.32-2.45-1.11-5.09-2.08-7.93-2.92l-9.94-2.99c-6.31-1.92-11.32-4.64-15-8.2s-5.53-8.2-5.53-13.94c0-4.77,1.23-8.93,3.69-12.5,2.47-3.57,5.78-6.34,9.95-8.32s8.83-2.97,13.99-2.97,9.84.98,13.89,2.93c4.05,1.95,7.27,4.62,9.65,8.01s3.64,7.23,3.77,11.52h-9.48.01Z"/>
            <path d="M392.32,314.46c-5.84,0-10.87-1.36-15.09-4.1s-7.48-6.56-9.75-11.48c-2.27-4.92-3.41-10.66-3.41-17.21s1.14-12.32,3.41-17.32,5.46-8.91,9.55-11.73,8.87-4.23,14.35-4.23c3.16,0,6.27.55,9.36,1.66,3.08,1.11,5.88,2.91,8.41,5.39s4.54,5.76,6.04,9.84c1.51,4.08,2.25,9.09,2.25,15.06v4.16h-46.74v-8.49h37.26c0-3.6-.68-6.83-2.03-9.65-1.35-2.83-3.27-5.06-5.76-6.7-2.49-1.64-5.42-2.46-8.78-2.46-3.71,0-6.91.97-9.61,2.9s-4.77,4.43-6.21,7.51-2.17,6.38-2.17,9.9v5.65c0,4.82.8,8.91,2.38,12.26,1.6,3.34,3.81,5.88,6.65,7.61,2.84,1.74,6.14,2.6,9.91,2.6,2.45,0,4.67-.36,6.65-1.11,1.99-.73,3.71-1.84,5.15-3.33,1.44-1.48,2.57-3.33,3.35-5.56l9,2.66c-.95,3.22-2.54,6.04-4.78,8.47-2.23,2.43-5,4.31-8.29,5.65-3.29,1.34-6.99,2.01-11.09,2.01v.03h-.01Z"/>
            <path d="M429.54,313.13v-63.9h9v9.65h.63c1.1-3.16,3.1-5.73,6-7.7s6.15-2.95,9.79-2.95c.69,0,1.54.01,2.57.04s1.8.07,2.32.13v9.99c-.31-.09-1.03-.21-2.15-.39s-2.29-.27-3.54-.27c-2.95,0-5.57.65-7.87,1.94s-4.12,3.07-5.45,5.32-1.99,4.83-1.99,7.72v40.43h-9.32,0Z"/>
            <path d="M473.6,238.58c-1.82,0-3.37-.65-4.68-1.96-1.3-1.3-1.95-2.87-1.95-4.7s.65-3.4,1.95-4.71c1.3-1.3,2.86-1.96,4.68-1.96s3.37.65,4.68,1.96,1.95,2.87,1.95,4.71-.65,3.4-1.95,4.7c-1.3,1.3-2.86,1.96-4.68,1.96ZM468.86,313.13v-63.9h9.32v63.9h-9.32Z"/>
            <path d="M519.99,249.23v8.32h-32.68v-8.32s32.68,0,32.68,0ZM497.1,313.13v-72.72c0-3.66.82-6.71,2.45-9.16,1.64-2.44,3.75-4.27,6.36-5.49,2.61-1.22,5.35-1.83,8.25-1.83,2.29,0,4.16.19,5.61.59s2.53.75,3.23,1.09l-2.69,8.49c-.47-.17-1.12-.37-1.95-.63-.83-.24-1.92-.37-3.25-.37-3.08,0-5.29.82-6.65,2.45-1.35,1.64-2.03,4.04-2.03,7.2v70.38h-9.33Z"/>
          </g>
        </g>
      </g>
    </g>
  </g>
</svg>