<?xml version="1.0" encoding="UTF-8"?>
<svg xmlns="http://www.w3.org/2000/svg" version="1.1" viewBox="0 0 754.02 337.32">
  <!-- Generator: Adobe Illustrator 29.0.0, SVG Export Plug-In . SVG Version: 1.2.0 Build 15)  -->
  <g>
    <g id="Layer_1">
      <g id="Layer_1-2" data-name="Layer_1">
        <g>
          <path d="M44.86,58.15L17.86,16.66v33.29c0,1.12.16,2.03.47,2.71.32.68.74,1.2,1.27,1.56s1.15.6,1.88.72c.73.12,1.49.18,2.29.18h.95v3.02H6.65v-3.02h.91c.82,0,1.59-.06,2.3-.18s1.34-.36,1.88-.72.96-.88,1.27-1.56c.3-.68.46-1.58.46-2.71V14.66c0-1.05-.16-1.9-.47-2.55-.32-.64-.74-1.14-1.28-1.49-.54-.35-1.17-.58-1.88-.69-.72-.11-1.47-.16-2.27-.16h-.91v-3.02h13.18l25.77,39.8V14.66c0-1.05-.16-1.9-.47-2.55-.32-.64-.74-1.14-1.28-1.49-.54-.35-1.17-.58-1.88-.69-.72-.11-1.47-.16-2.27-.16h-.95v-3.02h18.07v3.02h-.91c-.82,0-1.59.06-2.3.18-.72.12-1.34.36-1.88.72-.54.36-.96.88-1.27,1.56-.3.68-.46,1.58-.46,2.71v43.21h-5.15Z"/>
          <path d="M93.19,38.78c0,6.77-1.44,11.81-4.31,15.12-2.87,3.3-7.07,4.96-12.6,4.96-2.6,0-4.93-.41-7-1.23-2.06-.82-3.81-2.06-5.26-3.73-1.44-1.66-2.54-3.76-3.3-6.28s-1.14-5.47-1.14-8.84c0-6.73,1.42-11.73,4.27-15.01,2.85-3.28,7.06-4.92,12.64-4.92,2.6,0,4.93.4,7,1.21,2.06.81,3.81,2.04,5.26,3.69s2.54,3.73,3.3,6.22c.76,2.5,1.14,5.43,1.14,8.81ZM66.54,38.78c0,2.67.18,5.03.53,7.07s.92,3.74,1.71,5.12c.79,1.37,1.8,2.41,3.06,3.11,1.25.7,2.78,1.05,4.59,1.05s3.33-.35,4.57-1.05,2.25-1.74,3.02-3.11,1.33-3.08,1.67-5.12.51-4.39.51-7.07-.18-5.02-.53-7.03c-.35-2.02-.91-3.7-1.69-5.04-.77-1.35-1.79-2.36-3.04-3.04s-2.78-1.02-4.59-1.02-3.33.34-4.57,1.02-2.25,1.69-3.02,3.04-1.34,3.03-1.69,5.04c-.35,2.02-.53,4.36-.53,7.03Z"/>
          <path d="M114.27,55.06c.87,0,1.66-.05,2.39-.14.73-.09,1.46-.21,2.21-.35v3.16c-.3.14-.7.28-1.2.42s-1.03.26-1.6.37-1.18.19-1.81.25-1.23.09-1.79.09c-1.83,0-3.4-.19-4.71-.58-1.31-.39-2.39-1.01-3.23-1.88-.84-.87-1.47-2.02-1.88-3.45-.41-1.43-.62-3.18-.62-5.24v-24.05h-5.48v-2.88c.87,0,1.82-.18,2.87-.53,1.04-.35,1.96-.94,2.76-1.76.82-.89,1.48-1.95,1.99-3.18.5-1.23.94-2.77,1.32-4.62h3.3v8.86h9.42v4.11h-9.42v24.26c0,2.46.5,4.27,1.49,5.41,1,1.15,2.33,1.72,3.99,1.72h0Z"/>
          <path d="M155.69,38.78c0,6.77-1.44,11.81-4.31,15.12-2.87,3.3-7.07,4.96-12.6,4.96-2.6,0-4.93-.41-7-1.23-2.06-.82-3.81-2.06-5.26-3.73-1.44-1.66-2.54-3.76-3.3-6.28s-1.14-5.47-1.14-8.84c0-6.73,1.42-11.73,4.27-15.01s7.06-4.92,12.64-4.92c2.6,0,4.93.4,7,1.21,2.06.81,3.81,2.04,5.26,3.69s2.54,3.73,3.3,6.22c.76,2.5,1.14,5.43,1.14,8.81h0ZM129.04,38.78c0,2.67.18,5.03.53,7.07s.92,3.74,1.71,5.12c.79,1.37,1.8,2.41,3.06,3.11,1.25.7,2.78,1.05,4.59,1.05s3.33-.35,4.57-1.05,2.25-1.74,3.02-3.11,1.33-3.08,1.67-5.12.51-4.39.51-7.07-.18-5.02-.53-7.03c-.35-2.02-.91-3.7-1.69-5.04-.77-1.35-1.79-2.36-3.04-3.04s-2.78-1.02-4.59-1.02-3.33.34-4.57,1.02-2.25,1.69-3.02,3.04-1.34,3.03-1.69,5.04c-.35,2.02-.53,4.36-.53,7.03Z"/>
          <path d="M196.15,58.85c-2.34,0-4.41-.25-6.21-.74s-3.29-1.18-4.5-2.06-2.12-1.95-2.72-3.2c-.61-1.25-.91-2.63-.91-4.13s.45-2.62,1.35-3.52c.9-.89,2.19-1.34,3.85-1.34.07,1.5.3,2.94.69,4.32s.97,2.6,1.74,3.66,1.76,1.9,2.95,2.53,2.64.95,4.32.95c3.23,0,5.76-.78,7.58-2.34s2.72-3.8,2.72-6.73c0-1.31-.19-2.47-.56-3.48-.38-1.01-1-1.94-1.86-2.79-.87-.86-2.01-1.68-3.43-2.46-1.42-.79-3.18-1.61-5.29-2.48-2.23-.91-4.17-1.89-5.84-2.94-1.66-1.04-3.05-2.2-4.15-3.48-1.1-1.28-1.92-2.7-2.46-4.27-.54-1.57-.81-3.34-.81-5.31s.39-3.9,1.18-5.52,1.88-2.98,3.29-4.1c1.41-1.11,3.07-1.96,4.99-2.55s4.02-.88,6.29-.88,4.07.22,5.73.67c1.66.45,3.07,1.04,4.22,1.79s2.02,1.61,2.62,2.58c.6.97.9,1.99.9,3.04,0,1.55-.51,2.71-1.53,3.5-1.02.79-2.4,1.18-4.13,1.18,0-1.12-.13-2.23-.4-3.32s-.72-2.06-1.35-2.92c-.63-.86-1.46-1.55-2.5-2.09-1.03-.54-2.31-.81-3.83-.81-1.38,0-2.62.19-3.71.58s-2.01.94-2.76,1.65c-.75.72-1.32,1.58-1.72,2.58-.4,1.01-.6,2.13-.6,3.38,0,1.43.19,2.69.56,3.78s1,2.07,1.88,2.95,2.03,1.71,3.46,2.5c1.43.79,3.19,1.6,5.27,2.44,2.11.87,3.99,1.78,5.64,2.74,1.65.96,3.05,2.03,4.2,3.22,1.15,1.18,2.03,2.51,2.64,3.97.61,1.46.91,3.12.91,4.97,0,2.27-.42,4.31-1.25,6.1s-2.02,3.31-3.57,4.55c-1.55,1.24-3.41,2.19-5.59,2.83s-4.62.97-7.31.97v.03Z"/>
          <path d="M236.84,58.85c-2.6,0-4.94-.44-7.01-1.32s-3.83-2.16-5.26-3.85-2.53-3.76-3.29-6.21-1.14-5.23-1.14-8.35c0-6.73,1.38-11.79,4.15-15.19,2.77-3.4,6.7-5.1,11.81-5.1,2.32,0,4.41.36,6.26,1.09,1.85.73,3.42,1.81,4.71,3.25s2.28,3.23,2.97,5.38c.69,2.15,1.04,4.64,1.04,7.47v3.3h-23.98c.05,2.62.31,4.88.79,6.77s1.17,3.44,2.07,4.66c.9,1.22,2.01,2.12,3.32,2.69,1.31.57,2.82.86,4.54.86,1.24,0,2.4-.14,3.46-.42s2.03-.66,2.9-1.12c.87-.47,1.63-1,2.3-1.6s1.21-1.22,1.63-1.88c.33.14.64.43.93.88s.44.97.44,1.58c0,.73-.26,1.51-.77,2.34-.52.83-1.3,1.6-2.36,2.3s-2.37,1.29-3.96,1.76-3.44.7-5.57.7h.02ZM235.97,22.71c-2.67,0-4.73,1.08-6.17,3.25s-2.29,5.34-2.55,9.51h16.56c0-1.9-.14-3.63-.42-5.2s-.73-2.92-1.34-4.04-1.41-1.99-2.41-2.6-2.22-.91-3.67-.91h0Z"/>
          <path d="M276.24,58.15h-20.78v-3.02h.21c.82,0,1.59-.06,2.3-.18.71-.12,1.34-.36,1.86-.72.53-.36.95-.88,1.27-1.56.32-.68.47-1.58.47-2.71v-22.46c0-1.05-.16-1.9-.47-2.55-.32-.64-.74-1.14-1.28-1.49s-1.17-.59-1.88-.7c-.71-.12-1.47-.18-2.27-.18h-.21v-3.02h11.07l1.37,7.14h.35c.47-1.08.95-2.09,1.44-3.04s1.1-1.78,1.81-2.5c.71-.71,1.6-1.28,2.65-1.69s2.38-.62,3.97-.62c2.62,0,4.58.46,5.85,1.37s1.92,2.2,1.92,3.87c0,.75-.12,1.44-.37,2.07s-.64,1.18-1.18,1.63-1.23.81-2.07,1.05-1.88.37-3.09.37c0-1.99-.28-3.43-.84-4.31s-1.55-1.32-2.95-1.32c-.89,0-1.69.25-2.39.76-.7.5-1.32,1.17-1.85,2s-.97,1.79-1.34,2.87c-.36,1.08-.66,2.19-.88,3.32-.22,1.14-.38,2.27-.47,3.39s-.14,2.14-.14,3.06v11.32c0,1.05.16,1.9.47,2.55.32.65.74,1.13,1.28,1.46.54.33,1.17.54,1.88.65s1.47.16,2.27.16h2v3.02h.02Z"/>
          <path d="M290.54,55.13c.8,0,1.55-.05,2.27-.16s1.34-.32,1.88-.65.97-.81,1.28-1.46c.32-.64.47-1.49.47-2.55v-22.82c0-1.05-.16-1.9-.47-2.55-.32-.64-.74-1.14-1.28-1.49s-1.17-.59-1.88-.7c-.71-.12-1.47-.18-2.27-.18h-.21v-3.02h12.87v30.41c0,1.12.16,2.03.47,2.71.32.68.74,1.2,1.27,1.56s1.15.6,1.88.72c.73.12,1.49.18,2.29.18h.95v3.02h-20.46v-3.02h.95-.01ZM295.43,7.88c0-.84.11-1.55.32-2.11s.5-1.02.88-1.37.81-.6,1.3-.74,1.03-.21,1.62-.21,1.09.07,1.58.21.92.39,1.28.74c.36.35.66.81.88,1.37s.33,1.27.33,2.11-.11,1.55-.33,2.11-.52,1.02-.88,1.37-.79.6-1.28.76c-.49.15-1.02.23-1.58.23s-1.12-.08-1.62-.23c-.49-.15-.93-.4-1.3-.76s-.67-.81-.88-1.37-.32-1.27-.32-2.11Z"/>
          <path d="M336.51,55.13v3.02h-22.25v-3.02h.95c.82,0,1.59-.06,2.3-.18s1.34-.36,1.86-.72c.53-.36.95-.88,1.27-1.56.32-.68.47-1.58.47-2.71v-27h-6.57v-3.41h6.57v-3.59c0-2.16.29-4.05.88-5.7.59-1.64,1.43-3.02,2.53-4.15s2.44-1.97,4.01-2.55c1.57-.57,3.34-.86,5.31-.86s3.46.12,4.75.37,2.33.59,3.11,1.04c.79.45,1.35.97,1.71,1.58.35.61.53,1.29.53,2.04,0,.66-.15,1.24-.44,1.74s-.7.93-1.23,1.27c-.53.34-1.15.6-1.86.77s-1.51.26-2.37.26c0-.73-.08-1.44-.23-2.13-.15-.69-.41-1.31-.77-1.85s-.85-.97-1.46-1.3-1.37-.49-2.29-.49c-1.03,0-1.89.2-2.58.6-.69.4-1.25.99-1.67,1.78s-.72,1.75-.9,2.9c-.18,1.15-.26,2.48-.26,4.01v4.25h10.16v3.41h-10.16v27c0,1.12.16,2.03.47,2.71.32.68.74,1.2,1.27,1.56s1.15.6,1.88.72c.73.12,1.49.18,2.29.18h2.74-.02Z"/>
          <path d="M397.5,49.36c1.22,1.92,2.4,3.36,3.55,4.32s2.48,1.44,4.01,1.44h.21v3.02h-1.02c-2.25,0-4.1-.08-5.54-.25-1.44-.16-2.67-.48-3.67-.95-1.01-.47-1.87-1.12-2.58-1.97s-1.48-1.95-2.3-3.3l-9.74-16.21h-5.98v14.84c0,1.05.16,1.9.47,2.55.32.65.74,1.13,1.28,1.46.54.33,1.17.54,1.88.65s1.47.16,2.27.16h.95v3.02h-20.95v-3.02h.91c.8,0,1.55-.05,2.27-.16s1.34-.32,1.88-.65.97-.81,1.28-1.46c.32-.64.47-1.49.47-2.55V14.66c0-1.05-.16-1.9-.47-2.55-.32-.64-.74-1.14-1.28-1.49s-1.17-.58-1.88-.69-1.47-.16-2.27-.16h-.91v-3.02h19.37c6.23,0,10.88,1.15,13.92,3.46,3.05,2.31,4.57,5.78,4.57,10.42,0,1.92-.31,3.6-.93,5.04s-1.44,2.69-2.44,3.74c-1,1.05-2.14,1.93-3.41,2.64s-2.53,1.27-3.8,1.69l9.88,15.61h0ZM374.44,32.1h5.06c2.11,0,3.87-.23,5.27-.7,1.41-.47,2.53-1.17,3.38-2.11.84-.94,1.45-2.11,1.81-3.52s.54-3.05.54-4.92-.2-3.56-.6-4.9c-.4-1.35-1.04-2.45-1.93-3.3-.89-.86-2.04-1.48-3.46-1.86s-3.15-.58-5.19-.58h-4.89v21.9h.01Z"/>
          <path d="M423.98,58.85c-2.6,0-4.94-.44-7.01-1.32s-3.83-2.16-5.26-3.85-2.53-3.76-3.29-6.21-1.14-5.23-1.14-8.35c0-6.73,1.38-11.79,4.15-15.19,2.77-3.4,6.7-5.1,11.81-5.1,2.32,0,4.41.36,6.26,1.09s3.42,1.81,4.71,3.25,2.28,3.23,2.97,5.38c.69,2.15,1.04,4.64,1.04,7.47v3.3h-23.98c.05,2.62.31,4.88.79,6.77s1.17,3.44,2.07,4.66,2.01,2.12,3.32,2.69,2.82.86,4.54.86c1.24,0,2.4-.14,3.46-.42s2.03-.66,2.9-1.12c.87-.47,1.63-1,2.3-1.6s1.21-1.22,1.63-1.88c.33.14.64.43.93.88.29.45.44.97.44,1.58,0,.73-.26,1.51-.77,2.34-.52.83-1.3,1.6-2.36,2.3s-2.37,1.29-3.96,1.76-3.44.7-5.57.7h.02ZM423.1,22.71c-2.67,0-4.73,1.08-6.17,3.25s-2.29,5.34-2.55,9.51h16.56c0-1.9-.14-3.63-.42-5.2s-.73-2.92-1.34-4.04-1.41-1.99-2.41-2.6-2.22-.91-3.67-.91h0Z"/>
          <path d="M477.88,21.06c0,.52-.08,1-.23,1.46s-.38.86-.69,1.2c-.3.34-.7.61-1.18.81-.48.2-1.05.3-1.71.3,0-.28-.04-.56-.11-.84s-.19-.54-.37-.79-.42-.44-.72-.6c-.3-.15-.7-.23-1.2-.23-.61,0-1.16.07-1.65.21s-.97.36-1.44.67c.82,1.01,1.49,2.2,2.02,3.57s.79,3.09.79,5.15c0,1.78-.27,3.43-.81,4.94s-1.34,2.82-2.41,3.92c-1.07,1.1-2.41,1.96-4.04,2.58-1.63.62-3.53.93-5.71.93-.28,0-.6,0-.95-.02-.35,0-.7-.02-1.05-.04-.35,0-.68-.04-.98-.07s-.55-.06-.74-.09c-.47.23-.91.49-1.34.77s-.79.6-1.11.95-.57.75-.76,1.2-.28.94-.28,1.48c0,.59.11,1.05.33,1.41s.53.63.93.83.87.33,1.42.39c.55.06,1.14.09,1.78.09h8.16c2.16,0,3.98.27,5.48.81s2.72,1.28,3.67,2.23,1.64,2.09,2.07,3.41.65,2.76.65,4.31c0,2.06-.38,3.93-1.14,5.59-.76,1.66-1.93,3.08-3.5,4.24s-3.56,2.06-5.96,2.69-5.23.95-8.49.95c-5.02,0-8.77-.93-11.25-2.78s-3.73-4.43-3.73-7.73c0-1.41.25-2.64.74-3.69s1.15-1.96,1.99-2.71,1.79-1.36,2.87-1.83,2.21-.81,3.41-1.02c-.49-.21-.97-.49-1.44-.84s-.89-.77-1.27-1.27-.68-1.05-.91-1.69-.35-1.34-.35-2.11c0-1.43.38-2.67,1.12-3.71.75-1.04,1.95-2.06,3.59-3.04-1.03-.42-1.95-1-2.76-1.74s-1.49-1.58-2.04-2.53-.97-1.99-1.27-3.11-.44-2.29-.44-3.48c0-2.09.28-3.95.84-5.59s1.41-3.04,2.53-4.18c1.12-1.15,2.53-2.03,4.22-2.64,1.69-.61,3.67-.91,5.94-.91.87,0,1.72.06,2.57.19.84.13,1.62.3,2.34.53.71.22,1.36.47,1.93.76s1.04.57,1.39.88c.35-.37.76-.79,1.23-1.25s1-.88,1.58-1.27,1.22-.71,1.92-.97c.69-.26,1.44-.39,2.23-.39.73,0,1.35.1,1.88.3.53.2.97.47,1.32.81s.62.74.79,1.2.26.93.26,1.42l.04-.02ZM447.5,64.48c0,1.05.14,2.04.42,2.95s.77,1.7,1.48,2.36c.7.66,1.65,1.17,2.85,1.55,1.2.37,2.71.56,4.54.56,2.58,0,4.71-.22,6.38-.65,1.68-.43,3.01-1.04,3.99-1.81s1.68-1.69,2.07-2.76c.4-1.07.6-2.23.6-3.5,0-1.1-.16-2.01-.47-2.72-.32-.72-.79-1.28-1.41-1.69s-1.39-.7-2.3-.86c-.91-.16-1.97-.25-3.16-.25h-7.07c-1.01,0-1.99.09-2.94.26s-1.79.51-2.53,1-1.33,1.18-1.78,2.07-.67,2.05-.67,3.48h0ZM451.68,31.96c0,3.07.51,5.32,1.53,6.75s2.69,2.14,5.01,2.14c1.17,0,2.16-.18,2.97-.53s1.47-.89,1.99-1.62.88-1.66,1.11-2.79c.22-1.14.33-2.49.33-4.06,0-3.23-.49-5.62-1.48-7.17s-2.65-2.32-4.99-2.32-3.98.79-4.97,2.37-1.49,3.99-1.49,7.22h0Z"/>
          <path d="M518.19,50.31c0,1.05.16,1.9.47,2.55.32.65.74,1.13,1.28,1.46.54.33,1.17.54,1.88.65s1.47.16,2.27.16h.21v3.02h-11.43l-.95-5.84h-.35c-.73,1.36-1.53,2.46-2.41,3.3s-1.81,1.51-2.79,1.99c-.98.48-2.02.81-3.09.98s-2.2.26-3.38.26c-1.9,0-3.59-.27-5.06-.81s-2.72-1.38-3.73-2.53c-1.01-1.15-1.78-2.61-2.3-4.39-.53-1.78-.79-3.9-.79-6.36v-17.26c0-1.05-.16-1.9-.47-2.55-.32-.64-.74-1.14-1.28-1.49s-1.17-.59-1.88-.7c-.71-.12-1.47-.18-2.27-.18h-.21v-3.02h12.9v24.86c0,1.57.12,2.97.37,4.18.25,1.22.66,2.25,1.23,3.09s1.35,1.48,2.32,1.92c.97.43,2.19.65,3.64.65,1.59,0,2.96-.28,4.1-.84s2.07-1.35,2.81-2.37,1.28-2.24,1.63-3.67.53-3.01.53-4.75v-14.84c0-1.12-.16-2.03-.47-2.72-.32-.69-.74-1.22-1.27-1.58s-1.15-.6-1.86-.72c-.71-.12-1.48-.18-2.3-.18h-.21v-3.02h12.87v30.76h-.01Z"/>
          <path d="M529.26,55.13c.82,0,1.59-.06,2.3-.18.71-.12,1.34-.36,1.86-.72.53-.36.95-.88,1.27-1.56s.47-1.58.47-2.71V11.36c0-1.05-.16-1.9-.47-2.55-.32-.64-.74-1.14-1.28-1.49s-1.17-.58-1.88-.69-1.47-.16-2.27-.16h-.91v-3.02h13.61v46.51c0,1.12.15,2.03.46,2.71.3.68.73,1.2,1.27,1.56.54.36,1.17.6,1.88.72.71.12,1.48.18,2.3.18h.91v3.02h-20.43v-3.02h.91Z"/>
          <path d="M568.59,22.43c-1.38,0-2.5.19-3.36.58s-1.52.93-2,1.63-.8,1.54-.97,2.5c-.16.96-.25,2-.25,3.13-1.99,0-3.51-.34-4.55-1.02s-1.56-1.85-1.56-3.52c0-1.24.34-2.3,1.02-3.16.68-.87,1.61-1.58,2.79-2.13,1.18-.55,2.56-.95,4.13-1.21,1.57-.26,3.25-.39,5.03-.39,2.2,0,4.12.22,5.77.65,1.64.43,3.01,1.14,4.11,2.13s1.93,2.27,2.48,3.85.83,3.52.83,5.82v18.67c0,1.01.08,1.84.25,2.5.16.66.42,1.18.77,1.58.35.4.81.68,1.39.84.57.16,1.26.25,2.06.25h.21v3.02h-9.74l-1.12-6.19h-.6c-.75,1.01-1.48,1.93-2.18,2.78s-1.48,1.57-2.32,2.18-1.8,1.08-2.87,1.42-2.35.51-3.85.51c-1.59,0-3.08-.23-4.45-.69s-2.55-1.16-3.55-2.11-1.78-2.14-2.34-3.59-.84-3.15-.84-5.12c0-3.82,1.36-6.66,4.08-8.51,2.72-1.85,6.83-2.86,12.34-3.02l5.98-.21v-4.32c0-1.29-.07-2.48-.21-3.57s-.45-2.03-.91-2.81c-.47-.79-1.14-1.39-2.02-1.83-.88-.43-2.06-.65-3.53-.65h-.02ZM559.87,47.71c0,2.25.47,3.93,1.42,5.04s2.42,1.67,4.41,1.67c1.45,0,2.77-.23,3.96-.7,1.18-.47,2.19-1.14,3.02-2,.83-.87,1.47-1.92,1.92-3.16s.67-2.62.67-4.15v-5.84l-4.61.21c-2.04.09-3.74.35-5.12.76-1.37.41-2.48.98-3.32,1.72s-1.45,1.65-1.81,2.72c-.36,1.08-.54,2.32-.54,3.73Z"/>
          <path d="M612.88,58.15h-20.78v-3.02h.21c.82,0,1.59-.06,2.3-.18.71-.12,1.34-.36,1.86-.72.53-.36.95-.88,1.27-1.56s.47-1.58.47-2.71v-22.46c0-1.05-.16-1.9-.47-2.55-.32-.64-.74-1.14-1.28-1.49s-1.17-.59-1.88-.7c-.71-.12-1.47-.18-2.27-.18h-.21v-3.02h11.07l1.37,7.14h.35c.47-1.08.95-2.09,1.44-3.04s1.1-1.78,1.81-2.5c.71-.71,1.6-1.28,2.65-1.69,1.05-.41,2.38-.62,3.97-.62,2.62,0,4.58.46,5.85,1.37s1.92,2.2,1.92,3.87c0,.75-.12,1.44-.37,2.07s-.64,1.18-1.18,1.63-1.23.81-2.07,1.05-1.88.37-3.09.37c0-1.99-.28-3.43-.84-4.31s-1.55-1.32-2.95-1.32c-.89,0-1.69.25-2.39.76-.7.5-1.32,1.17-1.85,2-.53.83-.97,1.79-1.34,2.87-.36,1.08-.66,2.19-.88,3.32-.22,1.14-.38,2.27-.47,3.39s-.14,2.14-.14,3.06v11.32c0,1.05.16,1.9.47,2.55.32.65.74,1.13,1.28,1.46.54.33,1.17.54,1.88.65s1.47.16,2.27.16h2v3.02h.02Z"/>
          <path d="M50.56,101.06c.19-.89.28-1.56.28-2,0-1.92-1.72-2.88-5.17-2.88h-.95l.67-3.02h18.07l-.67,3.02h-.91c-2.3,0-3.94.44-4.94,1.32s-1.68,2.16-2.06,3.85l-9.14,43.21h-4.68l-18.53-42.19-7.24,34.28c-.21,1.01-.32,1.68-.32,2,0,1.92,1.73,2.88,5.2,2.88h.91l-.63,3.02H2.46l.63-3.02h.95c2.25,0,3.87-.44,4.85-1.32s1.68-2.16,2.07-3.85l7.49-35.3c.19-.89.28-1.56.28-2,0-1.92-1.73-2.88-5.2-2.88h-.91l.63-3.02h13.11l17.44,39.73,6.75-31.82h.01Z"/>
          <path d="M80.28,105.24c4.24,0,7.58,1.28,10.02,3.83,2.44,2.55,3.66,6.25,3.66,11.07,0,6.4-1.96,12.18-5.87,17.35-3.91,5.17-9.06,7.75-15.43,7.75-4.34,0-7.72-1.31-10.16-3.94-2.44-2.62-3.66-6.27-3.66-10.93,0-6.47,1.97-12.27,5.92-17.42,3.95-5.14,9.12-7.72,15.52-7.72h0ZM73.46,141.74c3.96,0,7.12-2.35,9.47-7.05,2.36-4.7,3.53-9.91,3.53-15.63,0-6.68-2.34-10.02-7.03-10.02-3.91,0-7.08,2.36-9.49,7.07-2.41,4.71-3.62,9.95-3.62,15.71,0,6.61,2.38,9.91,7.14,9.91h0Z"/>
          <path d="M116.58,139.14l1.23,2.67c-3.23,2.3-6.47,3.45-9.7,3.45-5.23,0-7.84-2.8-7.84-8.4,0-1.8.23-3.82.7-6.05l4.39-20.74h-5.48l.67-2.88c4.69,0,8.35-3.36,11-10.09h3.3l-1.86,8.86h8.72l-.88,4.11h-8.72l-4.36,20.53c-.59,2.77-.88,4.83-.88,6.19,0,2.62,1.28,3.94,3.83,3.94,1.95,0,3.9-.53,5.87-1.58h0Z"/>
          <path d="M142.98,105.24c4.24,0,7.58,1.28,10.02,3.83s3.66,6.25,3.66,11.07c0,6.4-1.96,12.18-5.87,17.35-3.91,5.17-9.06,7.75-15.43,7.75-4.34,0-7.72-1.31-10.16-3.94-2.44-2.62-3.66-6.27-3.66-10.93,0-6.47,1.97-12.27,5.92-17.42,3.95-5.14,9.12-7.72,15.52-7.72h0ZM136.16,141.74c3.96,0,7.12-2.35,9.47-7.05,2.36-4.7,3.53-9.91,3.53-15.63,0-6.68-2.34-10.02-7.03-10.02-3.91,0-7.08,2.36-9.49,7.07s-3.62,9.95-3.62,15.71c0,6.61,2.38,9.91,7.14,9.91h0Z"/>
          <path d="M184.53,129.5c0,3.68.97,6.64,2.92,8.88s4.62,3.36,8.02,3.36,6.02-.83,8-2.5c1.98-1.66,2.97-3.93,2.97-6.79,0-2.27-.57-4.2-1.71-5.77s-3.59-3.42-7.37-5.55c-3.84-2.23-6.51-4.51-8-6.86-1.49-2.34-2.23-4.99-2.23-7.95,0-4.15,1.57-7.51,4.71-10.07s7.39-3.85,12.76-3.85c4.17,0,7.5.73,9.98,2.18s3.73,3.32,3.73,5.59c0,3.33-2.12,4.99-6.36,4.99,0-2.81-.67-5.04-2-6.68-1.34-1.64-3.3-2.46-5.91-2.46-2.86,0-5.2.82-7.03,2.46s-2.74,3.84-2.74,6.61c0,2.04.49,3.8,1.46,5.29s3.45,3.39,7.44,5.71c3.77,2.2,6.5,4.39,8.17,6.57s2.51,4.66,2.51,7.45c0,4.76-1.66,8.47-4.99,11.13s-7.96,3.99-13.89,3.99c-4.9,0-8.79-.97-11.67-2.9s-4.32-4.39-4.32-7.37c0-1.66.52-2.99,1.56-3.99s2.37-1.49,3.99-1.49v.02Z"/>
          <path d="M245.23,135.55c.49.3.74.9.74,1.79,0,1.92-1.13,3.72-3.39,5.4s-5.29,2.51-9.09,2.51c-4.2,0-7.58-1.32-10.16-3.97s-3.87-6.28-3.87-10.9c0-6.28,2.03-12.04,6.08-17.28s9.18-7.86,15.36-7.86c3.05,0,5.41.73,7.08,2.18,1.68,1.45,2.51,3.48,2.51,6.08,0,3.89-2.02,7.28-6.06,10.16-4.04,2.88-8.98,4.32-14.82,4.32h-1.23c-.42,0-.86-.02-1.3-.07-.09.66-.14,1.66-.14,3.02,0,6.52,2.64,9.77,7.91,9.77,4.1,0,7.56-1.72,10.37-5.17v.02ZM227.75,124.62h.7c4.24,0,7.74-1.03,10.49-3.09s4.13-4.73,4.13-8.02-1.39-4.82-4.18-4.82c-2.32,0-4.49,1.46-6.5,4.38s-3.56,6.77-4.64,11.55h0Z"/>
          <path d="M279.15,115.69c0-3.8-.96-5.7-2.88-5.7-2.23,0-4.59,2.19-7.08,6.57-2.5,4.38-4.34,9.34-5.54,14.87l-2.71,13.11h-6.71l6.05-28.93c.28-1.34.42-2.41.42-3.23,0-2.27-1.91-3.41-5.73-3.41h-.6l.67-3.02h12.73l-1.51,10.37h.74c1.92-4.29,3.82-7.21,5.7-8.75s4.05-2.32,6.54-2.32c3.94,0,5.91,1.65,5.91,4.96,0,3.66-1.99,5.48-5.98,5.48h-.02Z"/>
          <path d="M289.04,108.97l.63-3.02h12.9l-4.89,23.13c-.73,3.45-1.09,6.11-1.09,7.98,0,2.44.8,3.66,2.39,3.66,1.38,0,3.11-.62,5.17-1.86l1.3,2.11c-3.33,2.86-6.57,4.29-9.74,4.29-1.78,0-3.22-.64-4.32-1.93s-1.65-2.92-1.65-4.89c0-2.16.54-5.93,1.62-11.32l2.78-13.22c.16-.77.25-1.41.25-1.9,0-2.02-1.46-3.02-4.39-3.02h-.96ZM300.71,98.74c-2.7,0-4.04-1.31-4.04-3.94,0-1.52.39-2.75,1.18-3.67.79-.93,1.83-1.39,3.15-1.39,2.7,0,4.04,1.32,4.04,3.97,0,1.64-.4,2.89-1.21,3.74-.81.86-1.85,1.28-3.11,1.28h-.01Z"/>
          <path d="M331.33,110.06h-8.09l-7.49,35.05c-1.24,5.79-3.06,10.03-5.45,12.71s-5.78,4.03-10.16,4.03c-1.36,0-2.75-.2-4.18-.6l.67-3.3c1.2.33,2.3.49,3.3.49,2.32,0,4.15-1,5.48-2.99s2.53-5.41,3.59-10.27l7.56-35.12h-6.54l.42-2.6,6.93-1.51.77-3.94c1.69-8.6,6.25-12.9,13.68-12.9,3.07,0,5.38.49,6.94,1.46s2.34,2.27,2.34,3.88c0,3.12-1.99,4.68-5.98,4.68,0-4.48-1.22-6.71-3.66-6.71-1.76,0-3.12.73-4.1,2.18-.97,1.45-1.74,3.7-2.3,6.75l-.95,4.61h7.98l-.77,4.11h.01Z"/>
          <path d="M377.95,93.15l-.63,3.02h-.95c-2.3,0-3.95.43-4.96,1.3-1.01.87-1.69,2.16-2.04,3.87l-7.45,35.3c-.21,1.01-.32,1.68-.32,2,0,1.92,1.73,2.88,5.2,2.88h.91l-.63,3.02h-20.95l.56-3.02h.95c3.98,0,6.34-1.72,7.07-5.17l7.49-35.3c.19-.89.28-1.56.28-2,0-1.92-1.73-2.88-5.2-2.88h-.91l.63-3.02h20.95Z"/>
          <path d="M392.27,139.14l1.23,2.67c-3.23,2.3-6.47,3.45-9.7,3.45-5.23,0-7.84-2.8-7.84-8.4,0-1.8.23-3.82.7-6.05l4.39-20.74h-5.48l.67-2.88c4.69,0,8.36-3.36,11-10.09h3.3l-1.86,8.86h8.72l-.88,4.11h-8.72l-4.36,20.53c-.59,2.77-.88,4.83-.88,6.19,0,2.62,1.28,3.94,3.83,3.94,1.95,0,3.9-.53,5.87-1.58h0Z"/>
          <path d="M420.94,133.69h-.46c-3.45,7.71-7.93,11.57-13.46,11.57-2.93,0-5.21-1.15-6.84-3.46-1.63-2.31-2.44-5.54-2.44-9.69,0-6.61,2.06-12.74,6.17-18.39,4.11-5.65,9.21-8.47,15.28-8.47,3.26,0,6.07.87,8.44,2.6l3.16-1.83h2.32l-4.92,23.06c-.7,3.3-1.05,5.96-1.05,7.98,0,2.44.79,3.66,2.36,3.66,1.36,0,3.09-.62,5.2-1.86l1.3,2.11c-3.45,2.86-6.83,4.29-10.16,4.29-3.75,0-5.62-1.99-5.62-5.98,0-1.52.25-3.39.74-5.59h-.02ZM425.02,111.08c-1.1-1.73-2.92-2.6-5.45-2.6-4.1,0-7.54,2.61-10.32,7.82-2.78,5.22-4.17,10.58-4.17,16.08s1.51,8.33,4.54,8.33c2.39,0,4.9-1.77,7.52-5.31s4.36-7.41,5.2-11.6l2.67-12.73h.01Z"/>
          <path d="M442.57,92.87l.63-3.02h13.61l-8.33,39.23c-.73,3.42-1.09,6.08-1.09,7.98,0,2.44.8,3.66,2.39,3.66,1.38,0,3.11-.62,5.17-1.86l1.3,2.11c-3.33,2.86-6.57,4.29-9.74,4.29-1.73,0-3.16-.63-4.27-1.9s-1.67-2.91-1.67-4.92c0-2.27.53-6.05,1.58-11.32l5.87-27.63c.3-1.43.46-2.51.46-3.23,0-2.25-1.69-3.38-5.06-3.38h-.85Z"/>
          <path d="M460.32,108.97l.63-3.02h12.9l-4.89,23.13c-.73,3.45-1.09,6.11-1.09,7.98,0,2.44.8,3.66,2.39,3.66,1.38,0,3.11-.62,5.17-1.86l1.3,2.11c-3.33,2.86-6.57,4.29-9.74,4.29-1.78,0-3.22-.64-4.32-1.93s-1.65-2.92-1.65-4.89c0-2.16.54-5.93,1.62-11.32l2.78-13.22c.16-.77.25-1.41.25-1.9,0-2.02-1.46-3.02-4.39-3.02h-.96ZM472,98.74c-2.7,0-4.04-1.31-4.04-3.94,0-1.52.39-2.75,1.18-3.67.79-.93,1.83-1.39,3.15-1.39,2.7,0,4.04,1.32,4.04,3.97,0,1.64-.4,2.89-1.21,3.74-.81.86-1.85,1.28-3.11,1.28h-.01Z"/>
          <path d="M505.1,135.55c.49.3.74.9.74,1.79,0,1.92-1.13,3.72-3.39,5.4s-5.29,2.51-9.09,2.51c-4.2,0-7.58-1.32-10.16-3.97s-3.87-6.28-3.87-10.9c0-6.28,2.03-12.04,6.08-17.28s9.18-7.86,15.36-7.86c3.3,0,5.88.66,7.73,1.97s2.78,2.95,2.78,4.92c0,1.45-.58,2.66-1.74,3.62s-2.71,1.44-4.66,1.44c0-2.55-.49-4.61-1.48-6.17-.98-1.56-2.34-2.34-4.08-2.34-3.35,0-6.28,2.51-8.77,7.52-2.5,5.02-3.74,9.93-3.74,14.73,0,6.52,2.64,9.77,7.91,9.77,4.2,0,7.65-1.72,10.37-5.17v.02Z"/>
          <path d="M46.09,230.95l-28.09-39.66v31.15c0,1.03.1,1.85.3,2.46.2.61.46,1.08.79,1.41.33.33.72.54,1.18.65s.93.16,1.42.16h3.02v3.83H5.91v-3.83h3.02c.52,0,1-.05,1.44-.16.44-.11.84-.32,1.18-.65.34-.33.6-.8.79-1.41s.28-1.43.28-2.46v-34.7c0-.96-.1-1.73-.3-2.3s-.47-1.01-.81-1.32c-.34-.3-.73-.51-1.18-.62-.45-.11-.91-.16-1.41-.16h-3.02v-3.8h16l25.42,35.93v-27.74c0-.96-.1-1.73-.3-2.3s-.47-1.01-.81-1.32c-.34-.3-.73-.51-1.18-.62s-.91-.16-1.41-.16h-3.02v-3.8h18.81v3.8h-3.02c-.49,0-.96.05-1.41.16s-.84.32-1.18.65c-.34.33-.6.8-.79,1.41-.19.61-.28,1.43-.28,2.46v42.93h-6.64Z"/>
          <path d="M98.72,211.51c0,6.77-1.59,11.82-4.76,15.15-3.18,3.33-7.85,4.99-14.01,4.99-2.88,0-5.47-.42-7.77-1.25-2.3-.83-4.25-2.08-5.85-3.74-1.61-1.66-2.84-3.76-3.69-6.29-.86-2.53-1.28-5.48-1.28-8.86,0-6.77,1.59-11.81,4.76-15.12,3.18-3.3,7.86-4.96,14.04-4.96,2.88,0,5.47.41,7.75,1.23s4.23,2.06,5.84,3.73c1.6,1.66,2.84,3.76,3.69,6.28.86,2.52,1.28,5.47,1.28,8.84h0ZM72.53,211.51c0,2.55.13,4.8.4,6.75.27,1.95.7,3.57,1.3,4.89s1.38,2.3,2.34,2.97,2.13,1,3.52,1,2.55-.33,3.5-1,1.72-1.66,2.32-2.97,1.02-2.94,1.28-4.89.39-4.2.39-6.75-.14-4.83-.4-6.77c-.27-1.93-.7-3.54-1.3-4.83s-1.38-2.26-2.34-2.9-2.13-.97-3.52-.97-2.55.32-3.52.97c-.96.64-1.73,1.61-2.32,2.9s-1.01,2.9-1.27,4.83c-.26,1.93-.39,4.19-.39,6.77h0Z"/>
          <path d="M122.57,225.85c.94,0,1.83-.06,2.69-.19s1.66-.29,2.41-.47v4.68c-.38.19-.88.39-1.53.6s-1.39.4-2.25.58c-.86.18-1.82.32-2.9.44s-2.25.18-3.52.18c-1.62,0-3.08-.19-4.39-.58s-2.43-1.03-3.34-1.93-1.62-2.07-2.11-3.52-.74-3.22-.74-5.33v-23.03h-5.41v-3.69c1.55,0,2.93-.3,4.15-.91s2.19-1.31,2.92-2.11c1.48-1.55,2.58-3.93,3.3-7.14h5.98v8.93h9.21v4.92h-9.21v22.29c0,2.18.37,3.77,1.11,4.78s1.95,1.51,3.64,1.51h-.01Z"/>
          <path d="M168,211.51c0,6.77-1.59,11.82-4.76,15.15-3.18,3.33-7.85,4.99-14.01,4.99-2.88,0-5.47-.42-7.77-1.25s-4.25-2.08-5.85-3.74c-1.61-1.66-2.84-3.76-3.69-6.29-.86-2.53-1.28-5.48-1.28-8.86,0-6.77,1.59-11.81,4.76-15.12,3.18-3.3,7.86-4.96,14.04-4.96,2.88,0,5.47.41,7.75,1.23s4.23,2.06,5.84,3.73c1.6,1.66,2.84,3.76,3.69,6.28.86,2.52,1.28,5.47,1.28,8.84h0ZM141.81,211.51c0,2.55.13,4.8.4,6.75.27,1.95.7,3.57,1.3,4.89s1.38,2.3,2.34,2.97c.96.67,2.13,1,3.52,1s2.55-.33,3.5-1,1.72-1.66,2.32-2.97,1.02-2.94,1.28-4.89.39-4.2.39-6.75-.14-4.83-.4-6.77c-.27-1.93-.7-3.54-1.3-4.83s-1.38-2.26-2.34-2.9c-.96-.64-2.13-.97-3.52-.97s-2.55.32-3.52.97c-.96.64-1.73,1.61-2.32,2.9-.59,1.29-1.01,2.9-1.27,4.83-.26,1.93-.39,4.19-.39,6.77h.01Z"/>
          <path d="M209.1,231.65c-3.23,0-5.93-.3-8.09-.91s-3.88-1.39-5.19-2.36-2.23-2.04-2.78-3.23-.83-2.38-.83-3.55c0-1.24.23-2.29.69-3.13s1.07-1.54,1.83-2.07,1.63-.93,2.6-1.16,1.99-.35,3.04-.35c0,2.06.25,3.87.74,5.43s1.17,2.86,2.04,3.9,1.9,1.83,3.11,2.36,2.53.79,3.96.79,2.66-.2,3.76-.6,2.04-.95,2.81-1.65,1.36-1.53,1.76-2.48.6-1.97.6-3.08c0-1.22-.25-2.3-.74-3.25s-1.24-1.83-2.23-2.64-2.25-1.58-3.76-2.32-3.28-1.53-5.29-2.37c-2.51-1.03-4.62-2.09-6.35-3.18s-3.11-2.27-4.17-3.53-1.81-2.64-2.27-4.11-.69-3.09-.69-4.85c0-2.2.45-4.2,1.34-5.98s2.12-3.3,3.69-4.57,3.43-2.24,5.59-2.92,4.5-1.02,7.03-1.02,4.93.22,6.86.65,3.51,1.03,4.76,1.78,2.19,1.63,2.79,2.65.91,2.12.91,3.29c0,.84-.18,1.63-.54,2.36s-.91,1.36-1.65,1.9-1.66.96-2.78,1.27-2.41.46-3.88.46c0-1.01-.13-2.09-.4-3.25s-.71-2.24-1.32-3.23-1.4-1.82-2.37-2.48-2.15-.98-3.53-.98c-.96,0-1.88.14-2.74.42s-1.62.7-2.27,1.27-1.15,1.26-1.53,2.09-.56,1.79-.56,2.87c0,1.01.16,1.96.49,2.85s.93,1.76,1.81,2.62,2.09,1.71,3.62,2.57,3.52,1.78,5.96,2.76c2.46,1.01,4.56,2.04,6.29,3.09s3.16,2.19,4.27,3.39,1.92,2.53,2.43,3.97.76,3.04.76,4.8c0,2.32-.46,4.45-1.37,6.38s-2.23,3.59-3.94,4.97-3.77,2.46-6.17,3.23-5.1,1.16-8.1,1.16v-.03Z"/>
          <path d="M253.04,231.65c-3.05,0-5.74-.45-8.07-1.34s-4.28-2.18-5.85-3.87-2.75-3.76-3.55-6.21-1.2-5.24-1.2-8.38c0-3.38.4-6.34,1.2-8.89s1.96-4.69,3.48-6.4,3.39-2.99,5.61-3.85,4.74-1.28,7.58-1.28c2.6,0,4.95.37,7.03,1.11,2.08.74,3.86,1.83,5.31,3.29s2.57,3.26,3.34,5.41,1.16,4.66,1.16,7.52v3.69h-23.59c.07,2.41.33,4.49.79,6.22s1.09,3.16,1.9,4.29,1.79,1.96,2.95,2.5,2.49.81,3.99.81c1.24,0,2.39-.15,3.45-.44s2.01-.7,2.87-1.23,1.61-1.15,2.25-1.86,1.18-1.48,1.6-2.3c1.29.7,1.93,1.88,1.93,3.52,0,1.03-.28,2.01-.84,2.94s-1.43,1.74-2.6,2.44-2.64,1.27-4.41,1.69-3.87.63-6.31.63h-.02ZM252.37,196.11c-2.02,0-3.62,1-4.8,2.99s-1.83,4.91-1.95,8.75h12.45c0-1.83-.11-3.47-.32-4.92s-.54-2.68-1-3.69-1.04-1.78-1.76-2.32-1.59-.81-2.62-.81Z"/>
          <path d="M296.2,230.95h-24.05v-3.83h.21c.82,0,1.57-.06,2.25-.18s1.27-.36,1.76-.72.87-.88,1.14-1.56.4-1.58.4-2.71v-20.88c0-1.05-.12-1.9-.37-2.55s-.6-1.14-1.05-1.49-1-.58-1.63-.69-1.35-.16-2.14-.16h-.21v-3.83h14.55l1.44,5.62h.35c.47-1.08.98-2.02,1.55-2.83s1.24-1.48,2.02-2.02,1.71-.94,2.78-1.21,2.34-.4,3.81-.4c2.84,0,4.92.5,6.26,1.49s2,2.44,2,4.34c0,2.2-.8,3.91-2.39,5.13s-3.84,1.83-6.75,1.83c0-.98-.05-1.85-.16-2.6s-.29-1.37-.56-1.86-.63-.87-1.09-1.12-1.03-.39-1.71-.39c-.84,0-1.57.21-2.18.63s-1.12.97-1.55,1.63-.77,1.42-1.04,2.27-.48,1.69-.63,2.55-.25,1.67-.3,2.44-.07,1.44-.07,2v12.45c0,1.05.13,1.9.39,2.55s.61,1.13,1.05,1.46.98.54,1.6.65,1.28.16,1.99.16h2.32v3.83h0Z"/>
          <path d="M311.46,227.12c.54,0,1.11-.05,1.71-.16s1.15-.32,1.65-.65.93-.8,1.27-1.41.51-1.43.51-2.46v-21.87c0-.96-.17-1.73-.51-2.3s-.77-1.02-1.28-1.34-1.07-.52-1.67-.62-1.15-.14-1.67-.14h-.84v-3.83h16.91v30.09c0,1.03.17,1.85.51,2.46s.76,1.08,1.27,1.41,1.06.54,1.67.65,1.17.16,1.69.16h.84v3.83h-22.89v-3.83h.84,0ZM315.58,180.68c0-.91.16-1.7.47-2.36s.75-1.19,1.3-1.6,1.2-.71,1.93-.91,1.54-.3,2.41-.3c.82,0,1.61.1,2.36.3s1.41.5,1.97.91,1.01.94,1.35,1.6.51,1.44.51,2.36-.17,1.66-.51,2.32-.79,1.2-1.35,1.62-1.22.74-1.97.95-1.54.32-2.36.32c-.87,0-1.67-.11-2.41-.32s-1.38-.53-1.93-.95-.98-.96-1.3-1.62-.47-1.43-.47-2.32Z"/>
          <path d="M336.97,230.95v-3.83h1.58c.52,0,1.07-.05,1.67-.16s1.15-.32,1.65-.65.93-.8,1.27-1.41.51-1.43.51-2.46v-25.17h-6.4v-4.92h6.4v-2.67c0-2.23.29-4.21.86-5.96s1.46-3.22,2.67-4.43,2.74-2.13,4.59-2.76,4.04-.95,6.57-.95c2.32,0,4.25.13,5.8.4s2.78.64,3.69,1.12,1.56,1.04,1.95,1.67.58,1.32.58,2.07c0,1.62-.73,2.8-2.2,3.55s-3.69,1.12-6.66,1.12c0-.59-.06-1.22-.18-1.9s-.32-1.31-.6-1.9-.65-1.07-1.11-1.46-1.03-.58-1.71-.58c-.59,0-1.09.16-1.51.47s-.77.82-1.04,1.51-.46,1.59-.58,2.69-.18,2.45-.18,4.04v3.94h9.91v4.92h-9.91v25.17c0,1.03.17,1.85.51,2.46s.76,1.08,1.27,1.41,1.05.54,1.65.65,1.15.16,1.67.16h3.38v3.83h-26.12l.02.03Z"/>
          <path d="M427.25,192.63c0,1.59-.22,2.98-.65,4.17s-1.05,2.2-1.85,3.06-1.75,1.59-2.87,2.2-2.35,1.12-3.71,1.55v.35c1.66.42,3.18,1,4.55,1.74s2.55,1.64,3.55,2.71,1.77,2.3,2.32,3.71.83,2.99.83,4.75c0,4.73-1.72,8.27-5.17,10.6s-8.59,3.5-15.43,3.5h-23.2v-3.83h2.95c.54,0,1.04-.05,1.49-.16s.85-.32,1.18-.65.59-.8.79-1.41.3-1.43.3-2.46v-34.49c0-.96-.1-1.74-.3-2.34s-.47-1.06-.81-1.39-.74-.56-1.2-.69-.94-.19-1.46-.19h-2.95v-3.8h21.02c6.84,0,11.99,1.05,15.43,3.16s5.17,5.41,5.17,9.91h.02ZM403.7,201.87h2.74c1.69,0,3.09-.18,4.2-.53s2-.9,2.67-1.63,1.14-1.69,1.42-2.87.42-2.58.42-4.22-.16-3.01-.47-4.11-.83-1.99-1.53-2.67-1.62-1.17-2.74-1.46-2.5-.44-4.11-.44h-2.6v17.93h0ZM403.7,226.55h4.78c1.59,0,2.95-.18,4.08-.53s2.04-.92,2.74-1.71,1.21-1.81,1.53-3.08.47-2.81.47-4.64-.14-3.29-.42-4.59-.76-2.37-1.44-3.22-1.57-1.48-2.67-1.9-2.48-.63-4.15-.63h-4.92v20.29h0Z"/>
          <path d="M472,211.51c0,6.77-1.59,11.82-4.76,15.15s-7.85,4.99-14.01,4.99c-2.88,0-5.47-.42-7.77-1.25s-4.25-2.08-5.85-3.74-2.84-3.76-3.69-6.29-1.28-5.48-1.28-8.86c0-6.77,1.59-11.81,4.76-15.12s7.86-4.96,14.04-4.96c2.88,0,5.47.41,7.75,1.23s4.23,2.06,5.84,3.73,2.84,3.76,3.69,6.28,1.28,5.47,1.28,8.84h0ZM445.8,211.51c0,2.55.13,4.8.4,6.75s.7,3.57,1.3,4.89,1.38,2.3,2.34,2.97,2.13,1,3.52,1,2.55-.33,3.5-1,1.72-1.66,2.32-2.97,1.03-2.94,1.28-4.89.39-4.2.39-6.75-.13-4.83-.4-6.77-.7-3.54-1.3-4.83-1.38-2.26-2.34-2.9-2.13-.97-3.52-.97-2.55.32-3.52.97-1.73,1.61-2.32,2.9-1.01,2.9-1.27,4.83-.39,4.19-.39,6.77h0Z"/>
          <path d="M474.95,227.12c.54,0,1.11-.05,1.71-.16s1.15-.32,1.65-.65.93-.8,1.27-1.41.51-1.43.51-2.46v-38c0-.96-.17-1.73-.51-2.3s-.77-1.02-1.28-1.34-1.07-.52-1.67-.62-1.15-.14-1.67-.14h-.84v-3.8h16.91v46.2c0,1.03.17,1.85.51,2.46s.76,1.08,1.27,1.41,1.06.54,1.67.65,1.17.16,1.69.16h.84v3.83h-22.89v-3.83h.84,0Z"/>
          <path d="M535.76,222.09c0,1.1.16,1.98.49,2.64s.77,1.16,1.32,1.51,1.18.59,1.9.7,1.47.18,2.27.18h.28v3.83h-13.96l-2-5.62h-.67c-.54.98-1.15,1.86-1.85,2.64s-1.49,1.44-2.39,1.99-1.92.97-3.04,1.27-2.39.44-3.8.44c-2.34,0-4.43-.39-6.26-1.18s-3.37-1.99-4.62-3.62-2.2-3.7-2.85-6.21-.97-5.48-.97-8.93.32-6.47.97-9.02,1.59-4.64,2.83-6.29,2.77-2.88,4.57-3.69,3.87-1.21,6.19-1.21c1.36,0,2.58.15,3.67.44s2.07.69,2.95,1.2,1.66,1.11,2.34,1.81,1.27,1.48,1.76,2.32h.49c-.09-1.34-.19-2.59-.28-3.76-.02-.49-.05-1-.09-1.51s-.07-1-.11-1.46-.06-.86-.07-1.21-.02-.63-.02-.84v-3.97c0-.98-.16-1.78-.47-2.37s-.74-1.05-1.27-1.35-1.14-.5-1.85-.6-1.45-.14-2.25-.14h-.56v-3.8h17.33v45.84l.02-.03ZM517.41,226.27c1.43,0,2.62-.3,3.57-.9s1.71-1.51,2.29-2.72.98-2.75,1.21-4.59.35-4,.35-6.49-.12-4.47-.35-6.31-.64-3.39-1.21-4.64-1.34-2.2-2.29-2.85-2.14-.97-3.57-.97c-1.2,0-2.22.32-3.08.97s-1.55,1.6-2.07,2.87-.91,2.82-1.16,4.66-.37,3.96-.37,6.35c0,4.9.51,8.56,1.53,10.99s2.74,3.64,5.15,3.64h0Z"/>
          <path d="M42.37,317.35l-19.51-40.75-6.79,32.24c-.12.54-.21,1-.26,1.39-.06.39-.09.67-.09.86,0,.52.13.93.39,1.25s.62.56,1.09.74,1.02.29,1.67.35c.64.06,1.34.09,2.09.09h.25l-.81,3.83H2.25l.77-3.83h.95c.75,0,1.48-.05,2.2-.14.71-.09,1.37-.29,1.95-.6.59-.3,1.1-.74,1.53-1.3s.74-1.31.93-2.25l7.35-34.56c.3-1.24.46-2.06.46-2.46,0-.52-.13-.94-.39-1.27s-.62-.58-1.07-.76-1.01-.29-1.65-.35c-.65-.06-1.34-.09-2.09-.09h-.91l.77-3.8h16l17.54,36.91,6.05-28.44c.26-1.1.39-1.84.39-2.21,0-.52-.14-.94-.4-1.27-.27-.33-.64-.58-1.11-.76-.47-.18-1.03-.29-1.67-.35-.65-.06-1.34-.09-2.09-.09h-.21l.81-3.8h18.14l-.81,3.8h-.91c-.75,0-1.48.05-2.2.16-.72.11-1.37.31-1.95.62-.59.3-1.1.74-1.53,1.3s-.76,1.31-.97,2.25l-9.14,43.28h-6.62Z"/>
          <path d="M61.9,302.94c0-1.8.21-3.67.63-5.59s1.06-3.81,1.92-5.66c.86-1.85,1.93-3.6,3.22-5.26,1.29-1.65,2.81-3.1,4.55-4.34,1.75-1.24,3.73-2.23,5.94-2.95s4.67-1.09,7.37-1.09c2.06,0,4.01.29,5.84.86s3.42,1.47,4.78,2.69,2.44,2.78,3.23,4.69c.8,1.91,1.2,4.2,1.2,6.87,0,1.73-.2,3.55-.6,5.45-.4,1.9-1.01,3.77-1.85,5.61-.83,1.84-1.89,3.6-3.16,5.27-1.28,1.68-2.78,3.15-4.52,4.41-1.73,1.27-3.7,2.27-5.91,3.02-2.2.75-4.66,1.12-7.38,1.12-2.25,0-4.31-.31-6.19-.93-1.88-.62-3.48-1.56-4.82-2.81s-2.38-2.83-3.13-4.73c-.75-1.9-1.12-4.11-1.12-6.64h0ZM78.46,312.88c1.29,0,2.46-.37,3.5-1.11s1.98-1.71,2.81-2.92c.83-1.21,1.55-2.58,2.16-4.13.61-1.55,1.11-3.14,1.49-4.78s.68-3.25.88-4.83.3-3.01.3-4.27c0-2.84-.49-4.88-1.46-6.12s-2.3-1.86-3.99-1.86c-1.22,0-2.34.35-3.38,1.05-1.03.7-1.96,1.64-2.79,2.81-.83,1.17-1.56,2.51-2.2,4.03s-1.17,3.08-1.6,4.69c-.43,1.62-.76,3.23-.97,4.83s-.32,3.08-.32,4.41c0,2.93.49,5.03,1.48,6.29s2.34,1.9,4.08,1.9h0Z"/>
          <path d="M121.08,312.18c1.12,0,2.14-.19,3.06-.56s1.77-.82,2.57-1.34l1.65,2.74c-.8.68-1.63,1.32-2.51,1.93s-1.83,1.14-2.87,1.6c-1.03.46-2.14.82-3.32,1.09s-2.47.4-3.85.4-2.54-.17-3.67-.51c-1.14-.34-2.13-.86-2.97-1.55s-1.51-1.56-1.99-2.62c-.48-1.05-.72-2.3-.72-3.73,0-.42.02-.89.05-1.41s.09-1.04.16-1.58.15-1.07.25-1.6c.09-.53.19-1.01.28-1.46l4.32-19.93h-5.55l.77-3.69c1.03,0,2.16-.18,3.38-.53,1.22-.35,2.47-.93,3.74-1.72,1.28-.8,2.55-1.84,3.83-3.13s2.48-2.86,3.6-4.71h4.18l-1.86,8.86h8.68l-.98,4.92h-8.79l-4.32,19.72c-.26,1.05-.44,2.01-.54,2.87s-.16,1.62-.16,2.3c0,1.2.33,2.1.98,2.71.66.61,1.52.91,2.6.91v.02Z"/>
          <path d="M131.91,302.94c0-1.8.21-3.67.63-5.59s1.06-3.81,1.92-5.66,1.93-3.6,3.22-5.26c1.29-1.65,2.81-3.1,4.55-4.34,1.75-1.24,3.73-2.23,5.94-2.95s4.67-1.09,7.37-1.09c2.06,0,4.01.29,5.84.86s3.42,1.47,4.78,2.69,2.44,2.78,3.23,4.69c.8,1.91,1.2,4.2,1.2,6.87,0,1.73-.2,3.55-.6,5.45-.4,1.9-1.01,3.77-1.85,5.61-.83,1.84-1.89,3.6-3.16,5.27-1.28,1.68-2.78,3.15-4.52,4.41-1.73,1.27-3.7,2.27-5.91,3.02-2.2.75-4.66,1.12-7.38,1.12-2.25,0-4.31-.31-6.19-.93s-3.48-1.56-4.82-2.81-2.38-2.83-3.13-4.73c-.75-1.9-1.12-4.11-1.12-6.64h0ZM148.47,312.88c1.29,0,2.46-.37,3.5-1.11s1.98-1.71,2.81-2.92c.83-1.21,1.55-2.58,2.16-4.13.61-1.55,1.11-3.14,1.49-4.78s.68-3.25.88-4.83c.2-1.58.3-3.01.3-4.27,0-2.84-.49-4.88-1.46-6.12s-2.3-1.86-3.99-1.86c-1.22,0-2.34.35-3.38,1.05-1.03.7-1.96,1.64-2.79,2.81-.83,1.17-1.56,2.51-2.2,4.03s-1.17,3.08-1.6,4.69c-.43,1.62-.76,3.23-.97,4.83s-.32,3.08-.32,4.41c0,2.93.49,5.03,1.48,6.29s2.34,1.9,4.08,1.9h.01Z"/>
          <path d="M211.05,318.05c-2.98,0-5.58-.27-7.8-.81s-4.08-1.28-5.55-2.21-2.58-2.04-3.32-3.32-1.11-2.67-1.11-4.17c0-1.12.23-2.11.69-2.95s1.1-1.55,1.93-2.11,1.82-.98,2.95-1.27,2.4-.42,3.78-.42c0,2.2.23,4.11.7,5.73s1.12,2.96,1.97,4.03,1.85,1.86,3.02,2.37,2.46.77,3.87.77,2.57-.19,3.62-.58,1.95-.91,2.69-1.58,1.3-1.45,1.69-2.36.58-1.87.58-2.9-.12-1.93-.37-2.78-.7-1.66-1.35-2.46-1.56-1.61-2.71-2.43-2.62-1.72-4.43-2.71c-1.88-1.03-3.52-2.09-4.94-3.18s-2.6-2.27-3.55-3.53-1.66-2.65-2.14-4.17-.72-3.22-.72-5.12c0-2.16.43-4.14,1.3-5.94s2.11-3.36,3.73-4.66,3.57-2.31,5.87-3.02,4.88-1.07,7.73-1.07c2.67,0,5,.21,7,.63s3.65,1,4.97,1.72,2.31,1.58,2.97,2.57.98,2.04.98,3.16c0,1.95-.74,3.47-2.21,4.59s-3.89,1.67-7.24,1.67c0-1.08-.11-2.2-.32-3.38s-.59-2.24-1.12-3.22-1.27-1.78-2.18-2.41-2.07-.95-3.48-.95c-.96,0-1.92.15-2.87.46s-1.8.76-2.55,1.37-1.36,1.38-1.83,2.3-.7,2.02-.7,3.29.2,2.34.6,3.23,1,1.72,1.79,2.48,1.79,1.5,2.99,2.21,2.6,1.51,4.22,2.37c3.63,1.97,6.32,4.14,8.05,6.52s2.6,5.1,2.6,8.17c0,2.55-.46,4.83-1.39,6.82s-2.25,3.67-3.97,5.03-3.8,2.4-6.24,3.11-5.17,1.07-8.19,1.07v.04Z"/>
          <path d="M255.3,312.6c1.17,0,2.29-.17,3.34-.51,1.05-.34,2.03-.79,2.94-1.34s1.71-1.17,2.43-1.86,1.33-1.4,1.85-2.13c.28.35.5.8.67,1.35s.25,1.13.25,1.74c0,.87-.28,1.78-.84,2.74s-1.42,1.85-2.58,2.65-2.64,1.48-4.43,2-3.92.79-6.38.79c-2.2,0-4.28-.3-6.22-.91s-3.65-1.53-5.12-2.76-2.62-2.78-3.46-4.64-1.27-4.05-1.27-6.56c0-1.78.23-3.64.7-5.59s1.17-3.85,2.09-5.71,2.07-3.63,3.45-5.31,2.96-3.15,4.76-4.41,3.83-2.27,6.06-3.01,4.68-1.11,7.33-1.11c3.45,0,6.12.74,8.02,2.23s2.85,3.57,2.85,6.24c0,1.95-.54,3.81-1.62,5.59s-2.57,3.35-4.46,4.69-4.16,2.42-6.79,3.22-5.48,1.2-8.58,1.2h-1.3c-.47,0-.93-.02-1.37-.07-.07.47-.11.94-.12,1.42s-.02.92-.02,1.32c0,2.79.65,4.94,1.95,6.45s3.26,2.27,5.89,2.27l-.02.02ZM257.83,282.37c-1.17,0-2.29.44-3.34,1.32s-2,2.02-2.85,3.43-1.57,2.98-2.18,4.73-1.05,3.47-1.34,5.19h.63c1.78,0,3.44-.23,4.97-.7s2.87-1.14,4.01-2.02,2.03-1.93,2.67-3.15.97-2.59.97-4.11-.31-2.62-.93-3.45-1.49-1.23-2.62-1.23h0Z"/>
          <path d="M280.59,285.08c0-.89-.29-1.53-.88-1.92s-1.56-.58-2.92-.58h-1.3l.63-3.83h15.93l-1.51,9.88h.35c.82-1.73,1.65-3.26,2.48-4.57s1.75-2.41,2.74-3.3,2.13-1.56,3.39-2.02,2.74-.69,4.43-.69c2.55,0,4.45.48,5.7,1.44s1.86,2.36,1.86,4.18c0,2.48-.73,4.34-2.18,5.55s-3.56,1.83-6.33,1.83c0-1.08-.05-2.06-.16-2.94s-.29-1.63-.56-2.25-.63-1.1-1.09-1.42-1.03-.49-1.71-.49-1.39.28-2.14.83-1.5,1.31-2.25,2.27-1.48,2.1-2.2,3.43-1.4,2.77-2.06,4.32-1.25,3.19-1.79,4.9-1,3.45-1.37,5.2l-2.74,12.45h-10.86l6.12-28.93c.07-.4.16-.93.26-1.58s.16-1.24.16-1.76h0Z"/>
          <path d="M332.77,278.75l-4.99,23.41c-.28,1.31-.52,2.54-.7,3.67s-.28,2.21-.28,3.22.22,1.86.65,2.43,1.05.84,1.85.84c.75,0,1.44-.14,2.07-.42s1.36-.69,2.18-1.23l1.72,2.43c-.56.61-1.21,1.21-1.93,1.81s-1.55,1.13-2.46,1.6-1.92.84-3.01,1.12-2.29.42-3.6.42c-2.77,0-4.89-.65-6.36-1.95s-2.21-3.11-2.21-5.43c0-1.03.09-2.26.28-3.69s.48-3.06.88-4.89l2.81-13.39c.07-.3.13-.62.19-.95s.11-.64.16-.93.08-.54.11-.76.04-.36.04-.46c0-.66-.07-1.18-.21-1.58s-.36-.7-.67-.91-.7-.35-1.18-.42-1.06-.11-1.74-.11h-1.3l.63-3.83h17.09-.02ZM327.78,272.28c-.8,0-1.54-.09-2.21-.26s-1.27-.45-1.78-.83-.9-.84-1.2-1.41-.44-1.22-.44-1.97c0-1.05.18-1.95.54-2.69s.85-1.35,1.46-1.83,1.32-.83,2.14-1.05,1.68-.33,2.57-.33c.77,0,1.51.08,2.2.25s1.3.43,1.83.81.95.85,1.27,1.42.47,1.26.47,2.06c0,.98-.19,1.85-.58,2.58s-.9,1.35-1.55,1.83-1.38.84-2.2,1.07-1.66.35-2.53.35h0Z"/>
          <path d="M366.07,283.67h-9.14l-6.82,32.17c-.54,2.55-1.24,4.79-2.09,6.71s-1.82,3.58-2.88,4.97-2.22,2.55-3.46,3.46-2.52,1.64-3.83,2.18-2.65.92-4.01,1.14-2.68.33-3.97.33c-.35,0-.74-.02-1.16-.05s-.83-.08-1.23-.14-.77-.12-1.12-.19-.64-.14-.88-.21l.88-4.18c.4.12.91.23,1.55.35s1.22.18,1.76.18c1.17,0,2.21-.2,3.11-.6s1.71-1.07,2.43-2.02,1.36-2.22,1.93-3.81,1.11-3.59,1.6-5.98l7.28-34.31h-6.54l.7-3.41,6.93-1.51.56-2.67c.56-2.37,1.31-4.44,2.25-6.21s2.1-3.25,3.48-4.43,3.01-2.07,4.87-2.65,4.01-.88,6.45-.88c1.85,0,3.49.16,4.9.49s2.6.77,3.55,1.34,1.66,1.22,2.14,1.99.72,1.58.72,2.44c0,1.59-.7,2.84-2.11,3.73s-3.46,1.34-6.15,1.34c0-.91-.05-1.8-.16-2.65s-.29-1.61-.54-2.27-.6-1.18-1.02-1.56-.96-.58-1.62-.58c-1.52,0-2.69.66-3.5,1.97s-1.46,3.32-1.95,6.01l-.95,4.61h9.07l-1.02,4.92v-.02Z"/>
          <path d="M382.38,313.52h.95c.75,0,1.48-.05,2.2-.14s1.37-.29,1.95-.6,1.1-.74,1.53-1.3.74-1.31.93-2.25l7.35-34.66c.12-.47.22-.93.32-1.39s.14-.78.14-.97c0-.52-.13-.94-.39-1.27s-.62-.58-1.07-.76-1.01-.29-1.65-.35-1.34-.09-2.09-.09h-.91l.77-3.8h22.32c5.58,0,9.78.91,12.6,2.72s4.24,4.51,4.24,8.07c0,1.97-.3,3.7-.9,5.2s-1.42,2.79-2.48,3.88-2.3,1.99-3.73,2.69-2.98,1.24-4.64,1.62l-.07.28c1.29.23,2.47.63,3.55,1.2s2,1.28,2.78,2.16,1.38,1.92,1.81,3.11.65,2.54.65,4.04c0,2.62-.45,4.96-1.34,7s-2.2,3.76-3.94,5.15-3.9,2.46-6.49,3.18-5.58,1.09-8.98,1.09h-26.19l.77-3.83v.02ZM400.45,312.95h4.99c2.04,0,3.77-.27,5.19-.81s2.57-1.34,3.46-2.39,1.54-2.36,1.95-3.92.62-3.36.62-5.4c0-2.62-.6-4.58-1.79-5.85s-3.05-1.92-5.55-1.92h-4.54l-4.32,20.29h0ZM405.73,288.2h4.04c3.4,0,5.85-.88,7.37-2.65s2.27-4.29,2.27-7.58c0-2.55-.57-4.46-1.72-5.73s-2.82-1.9-5.03-1.9h-3.2l-3.73,17.86h0Z"/>
          <path d="M434.56,302.94c0-1.8.21-3.67.63-5.59s1.06-3.81,1.92-5.66,1.93-3.6,3.22-5.26,2.81-3.1,4.55-4.34,3.73-2.23,5.94-2.95,4.67-1.09,7.37-1.09c2.06,0,4.01.29,5.84.86s3.42,1.47,4.78,2.69,2.44,2.78,3.23,4.69,1.2,4.2,1.2,6.87c0,1.73-.2,3.55-.6,5.45s-1.01,3.77-1.85,5.61-1.89,3.6-3.16,5.27-2.78,3.15-4.52,4.41-3.7,2.27-5.91,3.02-4.66,1.12-7.38,1.12c-2.25,0-4.31-.31-6.19-.93s-3.48-1.56-4.82-2.81-2.38-2.83-3.13-4.73-1.12-4.11-1.12-6.64h0ZM451.12,312.88c1.29,0,2.46-.37,3.5-1.11s1.98-1.71,2.81-2.92,1.55-2.58,2.16-4.13,1.11-3.14,1.49-4.78.68-3.25.88-4.83.3-3.01.3-4.27c0-2.84-.49-4.88-1.46-6.12s-2.3-1.86-3.99-1.86c-1.22,0-2.34.35-3.38,1.05s-1.96,1.64-2.79,2.81-1.56,2.51-2.2,4.03-1.17,3.08-1.6,4.69-.76,3.23-.97,4.83-.32,3.08-.32,4.41c0,2.93.49,5.03,1.48,6.29s2.34,1.9,4.08,1.9h.01Z"/>
          <path d="M491.92,312.32c.75,0,1.44-.14,2.07-.42s1.36-.69,2.18-1.23l1.72,2.43c-.56.61-1.21,1.21-1.93,1.81s-1.54,1.13-2.44,1.6-1.9.84-3.01,1.12-2.31.42-3.62.42c-2.77,0-4.89-.65-6.36-1.95s-2.21-3.11-2.21-5.43c0-2.06.39-4.92,1.16-8.58l6.26-29.53c.07-.3.14-.62.21-.95s.13-.64.18-.93.08-.54.11-.76.04-.36.04-.46c0-.66-.07-1.18-.21-1.58s-.36-.7-.67-.91-.7-.35-1.2-.42-1.08-.11-1.76-.11h-1.51l.67-3.8h17.4l-8.58,39.52c-.28,1.31-.52,2.54-.7,3.67s-.28,2.21-.28,3.22.22,1.86.65,2.43,1.05.84,1.85.84h-.02Z"/>
          <path d="M537.03,301.88l-.3,1.49c-.13.64-.25,1.32-.37,2.02s-.22,1.39-.3,2.07-.12,1.24-.12,1.69c0,1.12.26,1.95.77,2.46s1.1.77,1.76.77c.61,0,1.28-.16,2.02-.49s1.4-.67,1.99-1.02l1.58,2.81c-.63.52-1.35,1.03-2.14,1.55s-1.67.98-2.62,1.41-1.97.76-3.08,1.02-2.27.39-3.52.39c-1.05,0-2.02-.12-2.88-.37s-1.61-.6-2.23-1.07-1.1-1.06-1.44-1.78-.51-1.55-.51-2.51c0-.45.01-.84.04-1.2s.05-.7.09-1.04.08-.7.14-1.09.13-.84.23-1.35h-.42c-.89,1.85-1.83,3.43-2.81,4.75s-2.03,2.39-3.15,3.23-2.31,1.46-3.59,1.85-2.65.58-4.13.58c-1.85,0-3.44-.35-4.76-1.05s-2.41-1.65-3.27-2.85-1.48-2.59-1.88-4.18-.6-3.28-.6-5.06c0-1.88.22-3.84.65-5.89s1.08-4.07,1.93-6.06,1.91-3.89,3.16-5.7,2.7-3.39,4.34-4.75,3.46-2.44,5.47-3.25,4.19-1.21,6.56-1.21c1.41,0,2.72.15,3.94.46s2.3.73,3.23,1.27c.07-.3.14-.66.21-1.07s.15-.82.23-1.23.16-.8.25-1.16.15-.65.19-.86l.63-2.88c.07-.3.14-.62.21-.95s.13-.64.18-.93.08-.54.11-.76.04-.36.04-.46c0-.66-.07-1.18-.21-1.58s-.36-.7-.67-.91-.7-.35-1.2-.42-1.08-.11-1.76-.11h-1.65l.67-3.8h17.33l-8.33,39.23h0ZM512.46,304.97c0,1.36.1,2.51.3,3.45s.47,1.69.81,2.27.75.99,1.23,1.25,1,.39,1.56.39c1.05,0,2.14-.46,3.25-1.37s2.16-2.11,3.15-3.59,1.87-3.15,2.65-5.03,1.39-3.79,1.81-5.73l2.53-11.95c-.52-.66-1.22-1.15-2.11-1.49s-1.77-.51-2.64-.51c-1.36,0-2.61.37-3.76,1.11s-2.19,1.71-3.11,2.92-1.75,2.59-2.46,4.15-1.31,3.16-1.78,4.82-.83,3.29-1.07,4.92-.37,3.1-.37,4.41v-.02Z"/>
          <path d="M563.58,317.35l.77-3.83h.95c.75,0,1.48-.05,2.2-.14s1.37-.29,1.95-.6,1.1-.74,1.53-1.3.74-1.31.93-2.25l7.49-35.37c.09-.26.17-.55.23-.88s.09-.59.09-.77c0-.52-.13-.94-.39-1.27s-.62-.58-1.07-.76-1.01-.29-1.65-.35-1.34-.09-2.09-.09h-.91l.77-3.8h24.86l-.81,3.8h-.91c-.8,0-1.56.05-2.3.16s-1.41.31-2.02.62-1.14.75-1.58,1.34-.76,1.35-.95,2.29l-7.42,35.3c-.05.26-.11.55-.18.88s-.11.59-.11.77c0,.52.13.93.39,1.25s.62.56,1.09.74,1.03.29,1.67.35,1.34.09,2.09.09h.95l-.81,3.83h-24.76Z"/>
          <path d="M611.47,312.18c1.12,0,2.14-.19,3.06-.56s1.77-.82,2.57-1.34l1.65,2.74c-.8.68-1.63,1.32-2.51,1.93s-1.83,1.14-2.87,1.6-2.14.82-3.32,1.09-2.47.4-3.85.4-2.54-.17-3.67-.51-2.13-.86-2.97-1.55-1.51-1.56-1.99-2.62-.72-2.3-.72-3.73c0-.42.02-.89.05-1.41s.09-1.04.16-1.58.15-1.07.25-1.6.19-1.01.28-1.46l4.32-19.93h-5.55l.77-3.69c1.03,0,2.16-.18,3.38-.53s2.47-.93,3.74-1.72,2.55-1.84,3.83-3.13,2.48-2.86,3.6-4.71h4.18l-1.86,8.86h8.68l-.98,4.92h-8.79l-4.32,19.72c-.26,1.05-.44,2.01-.54,2.87s-.16,1.62-.16,2.3c0,1.2.33,2.1.98,2.71s1.52.91,2.6.91v.02Z"/>
          <path d="M654.04,318.05c-2.13,0-3.84-.49-5.13-1.46s-1.93-2.4-1.93-4.27c0-.75.04-1.48.11-2.2s.2-1.54.39-2.48h-.49c-.89,1.66-1.78,3.15-2.65,4.45s-1.86,2.39-2.94,3.27-2.28,1.55-3.6,2-2.87.69-4.62.69-3.21-.33-4.5-1-2.36-1.59-3.22-2.76-1.5-2.56-1.93-4.17-.65-3.35-.65-5.22.22-3.84.65-5.89,1.08-4.07,1.95-6.06,1.94-3.89,3.22-5.7,2.75-3.39,4.43-4.75,3.54-2.44,5.61-3.25,4.31-1.21,6.75-1.21c.94,0,1.89.08,2.87.23s1.9.35,2.79.58,1.73.5,2.51.79,1.45.59,1.99.9l3.8-1.72h3.83l-4.75,22.46c-.09.4-.21.93-.35,1.58s-.28,1.35-.4,2.09-.24,1.45-.33,2.14-.14,1.27-.14,1.74c0,1.2.23,2.09.7,2.67s1.08.88,1.83.88c.68,0,1.33-.15,1.95-.44s1.31-.65,2.06-1.07l1.58,2.88c-.61.47-1.3.96-2.07,1.46s-1.63.97-2.58,1.39-1.98.77-3.09,1.04-2.31.4-3.6.4h-.05ZM633.79,304.97c0,1.38.1,2.54.3,3.48s.47,1.69.81,2.27.75.98,1.23,1.23,1,.37,1.56.37c1.05,0,2.14-.46,3.27-1.37s2.18-2.12,3.16-3.6,1.87-3.17,2.65-5.04,1.38-3.77,1.78-5.7l2.53-11.95c-.47-.68-1.12-1.18-1.95-1.51s-1.72-.49-2.65-.49c-1.41,0-2.69.36-3.85,1.09s-2.21,1.7-3.15,2.92-1.76,2.6-2.48,4.15-1.31,3.15-1.79,4.82-.84,3.3-1.07,4.92-.35,3.09-.35,4.43v-.02Z"/>
          <path d="M683.55,312.32c.75,0,1.44-.14,2.07-.42s1.36-.69,2.18-1.23l1.72,2.43c-.56.61-1.21,1.21-1.93,1.81s-1.54,1.13-2.44,1.6-1.9.84-3.01,1.12-2.31.42-3.62.42c-2.77,0-4.89-.65-6.36-1.95s-2.21-3.11-2.21-5.43c0-2.06.39-4.92,1.16-8.58l6.26-29.53c.07-.3.14-.62.21-.95s.13-.64.18-.93.08-.54.11-.76.04-.36.04-.46c0-.66-.07-1.18-.21-1.58s-.36-.7-.67-.91-.7-.35-1.2-.42-1.08-.11-1.76-.11h-1.51l.67-3.8h17.4l-8.58,39.52c-.28,1.31-.52,2.54-.7,3.67s-.28,2.21-.28,3.22.22,1.86.65,2.43,1.05.84,1.85.84h-.02Z"/>
          <path d="M711.67,278.75l-4.99,23.41c-.28,1.31-.52,2.54-.7,3.67s-.28,2.21-.28,3.22.22,1.86.65,2.43,1.05.84,1.85.84c.75,0,1.44-.14,2.07-.42s1.36-.69,2.18-1.23l1.72,2.43c-.56.61-1.21,1.21-1.93,1.81s-1.55,1.13-2.46,1.6-1.92.84-3.01,1.12-2.29.42-3.6.42c-2.77,0-4.89-.65-6.36-1.95s-2.21-3.11-2.21-5.43c0-1.03.09-2.26.28-3.69s.48-3.06.88-4.89l2.81-13.39c.07-.3.13-.62.19-.95s.11-.64.16-.93.08-.54.11-.76.04-.36.04-.46c0-.66-.07-1.18-.21-1.58s-.36-.7-.67-.91-.7-.35-1.18-.42-1.06-.11-1.74-.11h-1.3l.63-3.83h17.09-.02ZM706.67,272.28c-.8,0-1.54-.09-2.21-.26s-1.27-.45-1.78-.83-.9-.84-1.2-1.41-.44-1.22-.44-1.97c0-1.05.18-1.95.54-2.69s.85-1.35,1.46-1.83,1.32-.83,2.14-1.05,1.68-.33,2.57-.33c.77,0,1.51.08,2.2.25s1.3.43,1.83.81.95.85,1.27,1.42.47,1.26.47,2.06c0,.98-.19,1.85-.58,2.58s-.9,1.35-1.55,1.83-1.38.84-2.2,1.07-1.66.35-2.53.35h.01Z"/>
          <path d="M735.59,312.6c1.27,0,2.41-.17,3.43-.51s1.94-.79,2.76-1.35,1.55-1.2,2.18-1.9,1.2-1.42,1.69-2.14c.3.28.56.7.77,1.25s.32,1.19.32,1.92c0,.94-.28,1.89-.83,2.87s-1.41,1.85-2.57,2.64-2.63,1.43-4.41,1.93-3.9.76-6.36.76c-2.18,0-4.24-.3-6.17-.91s-3.62-1.54-5.06-2.78-2.58-2.79-3.43-4.64-1.27-4.03-1.27-6.54c0-1.78.22-3.64.67-5.57s1.11-3.83,2-5.7,2-3.63,3.32-5.31,2.87-3.15,4.62-4.41,3.73-2.27,5.91-3.02,4.57-1.12,7.17-1.12c1.99,0,3.71.21,5.15.62s2.62.96,3.55,1.65,1.61,1.5,2.06,2.43.67,1.9.67,2.94c0,.75-.16,1.48-.47,2.2s-.83,1.36-1.53,1.93-1.61,1.04-2.72,1.39-2.47.53-4.06.53c0-1.27-.11-2.47-.33-3.6s-.56-2.13-1-2.99-.99-1.53-1.63-2.02-1.4-.74-2.27-.74c-1.03,0-2,.35-2.9,1.04s-1.73,1.61-2.48,2.74-1.41,2.44-1.99,3.9-1.07,2.98-1.48,4.54-.72,3.09-.93,4.61-.32,2.89-.32,4.13c0,2.93.67,5.21,2,6.84s3.32,2.44,5.94,2.44v-.05Z"/>
        </g>
      </g>
    </g>
  </g>
</svg>