<?xml version="1.0" encoding="UTF-8"?>
<svg xmlns="http://www.w3.org/2000/svg" version="1.1" viewBox="0 0 45.12 12.51">
  <defs>
    <style>
      .cls-1 {
        fill: #ad0e1e;
      }
    </style>
  </defs>
  <!-- Generator: Adobe Illustrator 28.7.1, SVG Export Plug-In . SVG Version: 1.2.0 Build 142)  -->
  <g>
    <g id="Layer_1">
      <g>
        <g>
          <path d="M34.8,11.26l-1.07-3.12h-3.96l-.95,3.12h-1.12L31.16.57h1.54l3.48,10.69h-1.38ZM31.8,2l-1.65,5.13h3.28l-1.63-5.13Z"/>
          <path d="M42.64,11.26c-.08-.38-.08-.53-.14-1.43-.64,1.17-1.43,1.63-2.77,1.63-1.63,0-2.76-.98-2.76-2.39,0-.9.51-1.75,1.33-2.16.72-.38,1.79-.58,3.17-.58.29,0,.53,0,1.03.03v-.26c0-1.49-.56-2.03-2.07-2.03-1.19,0-1.91.5-2.11,1.44l-1.14-.19c.11-.59.26-.9.59-1.23.62-.64,1.62-.96,2.93-.96,1.19,0,1.99.3,2.45.93.38.53.53,1.15.53,2.31v3.35c0,.58.05,1.06.18,1.54h-1.22ZM41.45,7.27c-2.05,0-3.17.64-3.17,1.84,0,.85.66,1.41,1.68,1.41,1.44,0,2.55-1.19,2.55-2.71,0-.14,0-.3-.02-.51-.43-.02-.85-.03-1.04-.03Z"/>
        </g>
        <g>
          <path d="M12.62,11.26h-4.61v-.56c.41-.03.74-.08,1.01-.16.27-.08.4-.17.4-.29,0-.05,0-.1-.02-.17-.01-.07-.03-.13-.05-.18l-.92-2.49h-3.9c-.15.37-.26.68-.36.95-.09.27-.17.52-.25.75-.07.22-.11.41-.14.55-.03.14-.04.26-.04.34,0,.21.16.37.49.48.33.11.7.18,1.11.2v.56H1.18v-.56c.14-.01.31-.04.51-.09.2-.05.37-.12.5-.2.21-.14.37-.29.48-.44.11-.15.23-.37.34-.64.56-1.39,1.17-2.96,1.85-4.69C5.53,2.91,6.13,1.36,6.66,0h.63l3.7,9.57c.08.2.17.37.27.49.1.13.24.25.41.37.12.07.28.13.47.18.19.05.35.08.49.08v.56ZM8.15,6.72l-1.68-4.31-1.66,4.31h3.34Z"/>
          <path d="M20.45,11.12c-.25.09-.46.16-.65.21-.19.05-.4.08-.63.08-.41,0-.73-.1-.97-.29-.24-.19-.4-.47-.47-.83h-.05c-.34.38-.7.66-1.09.86-.39.2-.86.3-1.4.3-.58,0-1.05-.18-1.43-.53-.37-.35-.56-.82-.56-1.39,0-.3.04-.56.13-.8.08-.23.21-.45.38-.63.13-.16.3-.3.52-.42s.41-.22.6-.29c.23-.09.71-.25,1.43-.49.72-.24,1.2-.43,1.45-.56v-.77c0-.07-.01-.2-.04-.39-.03-.19-.09-.38-.18-.55-.1-.19-.25-.36-.44-.5-.19-.14-.46-.22-.81-.22-.24,0-.46.04-.67.12-.21.08-.35.17-.43.25,0,.1.02.26.07.46.05.2.07.39.07.56,0,.18-.08.35-.25.5-.16.15-.39.23-.68.23-.26,0-.45-.09-.57-.28-.12-.19-.18-.39-.18-.62s.08-.47.25-.69c.17-.22.39-.41.66-.59.23-.15.52-.27.85-.37.33-.1.66-.15.98-.15.44,0,.82.03,1.15.09.33.06.62.19.89.39.27.19.47.46.61.79s.21.76.21,1.28c0,.75,0,1.41-.02,1.98s-.02,1.21-.02,1.89c0,.2.04.36.11.48.07.12.18.22.32.3.08.05.2.07.37.08.17,0,.34,0,.52,0v.5ZM17.72,6.99c-.44.13-.83.26-1.17.38s-.64.28-.93.47c-.26.18-.47.39-.62.63-.15.24-.23.53-.23.87,0,.43.11.75.34.96.23.2.51.31.86.31.37,0,.7-.09.98-.27.28-.18.52-.39.71-.64l.05-2.7Z"/>
        </g>
        <path class="cls-1" d="M1.51,9.68c.72,0,1.31.59,1.31,1.31s-.59,1.31-1.31,1.31-1.31-.59-1.31-1.31.59-1.31,1.31-1.31M1.51,9.48c-.84,0-1.51.68-1.51,1.51s.68,1.51,1.51,1.51,1.51-.68,1.51-1.51-.68-1.51-1.51-1.51h0Z"/>
        <path class="cls-1" d="M5.03,9.68c.72,0,1.31.59,1.31,1.31s-.59,1.31-1.31,1.31-1.31-.59-1.31-1.31.59-1.31,1.31-1.31M5.03,9.48c-.84,0-1.51.68-1.51,1.51s.68,1.51,1.51,1.51,1.51-.68,1.51-1.51-.68-1.51-1.51-1.51h0Z"/>
        <path class="cls-1" d="M8.87,9.68c.72,0,1.31.59,1.31,1.31s-.59,1.31-1.31,1.31-1.31-.59-1.31-1.31.59-1.31,1.31-1.31M8.87,9.48c-.84,0-1.51.68-1.51,1.51s.68,1.51,1.51,1.51,1.51-.68,1.51-1.51-.68-1.51-1.51-1.51h0Z"/>
        <path class="cls-1" d="M12.52,9.68c.72,0,1.31.59,1.31,1.31s-.59,1.31-1.31,1.31-1.31-.59-1.31-1.31.59-1.31,1.31-1.31M12.52,9.48c-.84,0-1.51.68-1.51,1.51s.68,1.51,1.51,1.51,1.51-.68,1.51-1.51-.68-1.51-1.51-1.51h0Z"/>
        <path class="cls-1" d="M19.69,9.68c.72,0,1.31.59,1.31,1.31s-.59,1.31-1.31,1.31-1.31-.59-1.31-1.31.59-1.31,1.31-1.31M19.69,9.48c-.84,0-1.51.68-1.51,1.51s.68,1.51,1.51,1.51,1.51-.68,1.51-1.51-.68-1.51-1.51-1.51h0Z"/>
        <path class="cls-1" d="M14.03,3.88c.72,0,1.31.59,1.31,1.31s-.59,1.31-1.31,1.31-1.31-.59-1.31-1.31.59-1.31,1.31-1.31M14.03,3.68c-.84,0-1.51.68-1.51,1.51s.68,1.51,1.51,1.51,1.51-.68,1.51-1.51-.68-1.51-1.51-1.51h0Z"/>
      </g>
    </g>
  </g>
</svg>