<?xml version="1.0" encoding="UTF-8"?>
<svg xmlns="http://www.w3.org/2000/svg" version="1.1" viewBox="0 0 512 512">
  <!-- Generator: Adobe Illustrator 28.7.1, SVG Export Plug-In . SVG Version: 1.2.0 Build 142)  -->
  <rect width="512" height="512" fill="white"/>
  <g>
    <g id="Layer_1">
      <g id="Layer_1-2" data-name="Layer_1">
        <g id="Layer_1-2">
          <path d="M130.43,265.92c-9.72,0-19.05,4.67-23.33,13.61l-2.72-2.72c4.27-22.56,19.82-36.15,38.1-36.15,1.56,0,3.11.38,5.05.38-2.33-14-7.38-48.2-7.38-54.82,0-17.88,14-26.43,28.76-34.99l62.59-36.93c22.16,11.66,48.6,26.43,54.43,54.43,22.56-16.33,47.43-35.37,66.49-52.88,12.83,10.88,27.61,23.33,47.82,28.38l-.77,7c-7.38,3.11-17.49,7.78-17.49,24.11v153.58c0,18.28,11.66,24.89,20.21,26.83l8.56-9.72,5.83,4.67-37.71,47.05c-21.77-8.56-37.32-26.05-37.32-52.48v-75.43h-21.77v93.32c-15.17,9.72-30.32,23.33-42.38,34.61-10.88-10.11-31.88-24.49-47.82-28.76v-7c7.78-2.72,16.72-8.17,16.72-18.66v-73.48h-26.83v42.77c0,41.21-16.33,85.15-53.65,85.15-10.11,0-18.66-3.5-26.05-6.22-11.27-4.27-16.72-5.83-21.38-5.83-5.05,0-10.88,1.94-14.39,6.22l-3.11,3.5-5.45-5.05,18.66-24.11c7.78-10.11,17.49-16.33,30.71-16.33h3.5c9.72-9.72,12.44-18.28,12.44-29.16,0-5.45-2.72-28.38-4.27-40.44-5.45-9.72-15.94-14.39-26.05-14.39h0v-.03ZM213.25,153.57c-5.45-2.72-10.88-5.45-16.72-7-10.5,6.22-15.55,17.49-15.55,28.76s2.33,22.94,5.05,40.05l9.32,58.32c2.33,15.17,2.72,21,2.72,24.49,0,20.61-16.33,33.05-40.44,54.04,9.32,3.5,20.61,9.32,31.88,9.32,20.21,0,23.33-33.83,23.71-48.6v-159.4h0l.02.02ZM246.29,243.37v-55.59c0-15.55-13.22-24.49-26.83-31.88v87.48h26.83ZM286.33,177.28v173.4c5.83,5.05,13.22,8.94,21.77,11.27l5.45-3.5v-201.4l-27.22,20.21h0ZM341.94,243.37v-78.93c-8.56-2.33-15.94-5.83-22.16-10.11v89.04h22.16Z"/>
        </g>
      </g>
    </g>
  </g>
</svg>