<?xml version="1.0" encoding="UTF-8"?>
<svg xmlns="http://www.w3.org/2000/svg" version="1.1" viewBox="0 0 512 512">
  <!-- Generator: Adobe Illustrator 28.7.1, SVG Export Plug-In . SVG Version: 1.2.0 Build 142)  -->
  <rect width="512" height="512" fill="white" />
  <g>
    <g id="Layer_1">
      <g id="Layer_1-2" data-name="Layer_1">
        <g id="Layer_1-2">
          <g id="Layer_1-2-2" data-name="Layer_1-2">
            <g id="Layer_1-2-2">
              <path d="M326.6,178.97c0-2.02-2.69-2.02-2.69-2.02-19.49,0-93.44,112.03-156.41,181.51-6.27,6.72-7.84,8.07-14.12,8.07-6.95,0-12.99-.67-12.99-5.37,0-2.02,1.12-4.03,1.12-4.03,91.2-123.25,118.77-165.15,119.66-166.72,0,0,0-.67-.45-.67-.67,0-1.34.67-1.34.67-44.59,37.42-108.01,62.52-143.86,62.52-10.31,0-27.34-2.47-27.34-10.08,0-2.69,2.47-7.17,5.15-7.17,3.37,0,2.92,8.97,28.46,8.97,50.19,0,129.07-41.67,162.69-86.94.45-.67,1.12-.89,1.79-.89,2.02,0,4.47,1.79,4.47,4.25,0,.67-.22,1.57-.67,2.24-37.2,56.47-78.42,128.62-91.87,147.9.23,0,2.24-.22,3.59-1.57,32.5-36.97,107.78-150.58,136.68-150.58,3.82,0,8.29,3.14,8.29,7.62,0,1.12-.45,2.24-.89,3.37-6.5,12.99-33.16,59.83-61.62,105.32,1.12,0,1.57-.45,2.47-1.79,12.99-17.48,84.25-111.15,111.15-111.15,4.03,0,8.97,1.34,8.97,5.6,0,.89-.22,1.79-.67,2.69-6.72,17.26-91.64,177.69-91.64,239.09,0,14.57,4.92,23.76,16.81,23.76,18.37,0,36.08-15.47,43.02-42.8.67-2.47,3.14-4.25,5.37-4.25,1.79,0,3.37,1.12,3.37,4.03,0,8.74-12.99,49.74-60.73,49.74-23.76,0-32.72-12.1-32.72-31.37,0-54.01,71.48-164.47,93.89-224.53,0-1.34-1.34-2.24-3.14-2.24-26.67,0-112.26,135.34-148.78,177.69-6.05,6.95-7.84,8.07-14.12,8.07-6.95,0-12.99-.67-12.99-5.37,0-2.02,1.12-4.03,1.12-4.03,0-3.14,25.32-36.75,25.54-36.97,77.53-104.87,90.52-131.76,95.23-141.39.22-.45.22-.67.22-1.12h-.02v-.06Z" />
            </g>
          </g>
        </g>
      </g>
    </g>
  </g>
</svg>