<?xml version="1.0" encoding="UTF-8"?>
<svg xmlns="http://www.w3.org/2000/svg" version="1.1" viewBox="0 0 228 285.6">
  <defs>
    <style>
      .cls-1 {
        fill: #191723;
      }

      .cls-2 {
        fill: #28282e;
      }
    </style>
  </defs>
  <!-- Generator: Adobe Illustrator 29.0.0, SVG Export Plug-In . SVG Version: 1.2.0 Build 15)  -->
  <g>
    <g id="Layer_1">
      <g>
        <path class="cls-2" d="M3.5,285.1c-1.71-2.29-3.19-4.36-2.98-4.96.1-.29.91-.5,1.85-.75.63-.16,1.4-.37,2.27-.66,4.75-1.62,6.4-1.65,9.4-1.69,1.08-.01,2.31-.03,3.92-.12.14,0,.26-.05.46-.13.52-.19,1.6-.6,3.92-.6.7,0,1.47.04,2.28.11,1.4.38,2.9.43,4.17.43.53,0,1.06-.01,1.58-.02.52-.01,1.04-.02,1.56-.02,1.26,0,2.2.07,3.05.21.25.04,1.26.52,2,.87,1.18.55,1.91.9,2.28.96,1.86.33,3.76.63,5.59.91,1.3.2,2.6.4,3.9.62l1.54.26c4.94.83,8.2,1.38,13.13,1.38,1.25,0,2.59-.03,4.09-.1.18,0,.71-.14,2.44-.6.96-.25,2.26-.6,2.47-.62,2.26-.13,4.5-.2,6.68-.26,6.8-.19,13.23-.38,20.63-2.51l1.34-.39-1.28-.55c-8.85-3.78-17.63-8.23-19.28-17.37-1.5-8.29,3.1-16.44,12.3-21.8.76-.44,1.59-.5,1.99-.52.2-.01.32-.02.44-.08.69-.36,1.3-.73,1.16-1.28-.14-.55-.83-.55-1.17-.55-1.24,0-3.76.44-5.26.71-.55.1-.96.17-1.13.19-2.82.33-5.21.41-7.75.51-.84.03-1.71.06-2.62.1-.36.02-.55.31-.7.53-.02.03-.04.06-.06.09-.29,0-.66.01-1.09.01-7.13,0-26.29-1.03-29.18-5.75-.45-.73-.45-1.52,0-2.41,1.98-3.9,9.99-5.36,17.06-6.65,3.75-.68,7.3-1.33,9.6-2.29l1.82-.76-1.96-.19c-9.4-.91-15.65-4.12-22.31-11.46-4.42-4.88-9.49-12.29-8.48-19.88.64-4.8,3.66-8.97,9-12.39,7.97-5.12,15.93-5.48,18.92-5.62.83-.04,1.21-.06,1.45-.13.24-.08.41-.28.63-.53.14-.16.29-.35.45-.47l.78-.62-.97-.25c-3.37-.87-6.83-1.6-10.18-2.31-3.7-.78-7.52-1.59-11.22-2.58l-1.13-.3c-8.67-2.32-14.94-3.99-21.89-10.59-1.52-1.45-5.57-5.29-5.32-8.01.07-.78.49-1.41,1.28-1.92.3-.14,3.71-1.09,4.07-1.15.19-.01.42-.02.68-.02,5.34,0,20.16,3.16,29.97,5.25,2.86.61,5.34,1.14,7.11,1.49,2.15.43,4.36.81,6.49,1.18,2.29.4,4.66.8,6.96,1.27.91.18,1.83.45,2.81.74.97.29,1.98.58,3,.79,2.84.58,5.67,1.2,8.5,1.82,2.87.63,5.74,1.25,8.62,1.85.96.2,1.95.49,2.91.76.96.28,1.95.57,2.91.76.21.04.44.06.71.06.31,0,.63-.03.96-.05.3-.02.6-.05.88-.05.18,0,.35.01.51.04.16.04.93.36,1.43.58.96.41,1.41.6,1.63.64.21.04.44.06.71.06.31,0,.63-.03.96-.05.3-.02.59-.05.88-.05.18,0,.35.01.52.04,1.52.29,3.1.7,4.64,1.1,3.22.83,6.54,1.68,9.76,1.68.23,0,.46,0,.7-.01l2.31-.09-2.14-.86c-10.05-4.05-18.6-13.59-20.8-23.2-3.44-15.03,1.87-25.25,16.22-31.23.03,0,.19-.04.41-.09,2.57-.55,3.17-.81,3.2-1.38,0-.18-.05-.51-.59-.69-.69-.22-4.64-.28-11.56-.35-4.79-.05-10.21-.11-13.49-.28-.02-.03-.04-.06-.06-.09-.14-.21-.34-.51-.69-.53-3.76-.2-7.6-.28-11.32-.36-2.86-.06-5.82-.13-8.72-.24-.02-.03-.04-.06-.06-.09-.14-.22-.34-.51-.7-.53-.59-.02-1.17-.03-1.76-.03-.77,0-1.54.02-2.31.03-.76.02-1.53.03-2.29.03-.53,0-1.06,0-1.6-.03-1.67-.06-3.34-.13-5.01-.2-4.5-.19-9.16-.39-13.96-.41h-.39c-3.32,0-6.84.15-10.23.29-3.44.15-7,.29-10.42.29-5.39,0-9.55-.38-13.1-1.18-7.85-1.79-16.7-7.32-16.84-12.4-.08-2.87,2.79-5.23,8.3-6.82,4.38-1.26,7.76-1.44,10.74-1.6,1.12-.06,2.17-.11,3.23-.22.35-.03.53-.32.67-.53.02-.03.04-.07.06-.1,2.95-.26,6.73-.32,10.39-.38,2.67-.04,5.44-.09,7.81-.21,2.61-.14,5.18-.23,7.75-.32,5.92-.22,12.05-.44,18.28-1.21l3.88-.48-3.88-.5c-10.98-1.42-27.41-10.21-35.17-18.8-11.73-13-9.5-26.09,7-41.19,4.56-4.17,11.58-9.35,16.97-11.52,2.95-1.19,5.92-1.82,9.05-2.49.8-.17,1.61-.35,2.43-.53,9.49.45,14.21,2.34,21.03,8.43,7.24,6.47,12.07,14.73,13.6,23.26,1.72,9.61-.17,12.56-.88,13.67-.25.39-.44.69-.33,1.06.18.57.72.62,1.01.65.08,0,.22.02.26.04.46,1.04-2.5,8.27-3.97,10.84-2.69,4.71-7.78,9.55-12.95,12.35-5.41,2.92-8.32,3.16-9.42,3.24-.28.02-.45.04-.6.08-.4.13-.64.43-.64.78,0,.35.25.65.64.77l.08.03h.08c23.73-.55,48.16-.91,69.71-1.23,3.2-.05,7.41-.21,11.87-.39,5.99-.24,12.17-.48,16.92-.48,2.77,0,4.74.08,6,.25,1.96.27,7.34,2.67,8.9,4.15,2.21,2.1,3.36,4.67,3.24,7.23-.12,2.5-1.48,4.88-3.81,6.69-7.52,5.84-33.07,10.29-42.98,10.29h-.34s-1.75,1.75-1.75,1.75l.95.16c9,1.48,16.93,5.55,22.34,11.47,5.89,6.44,10.77,17.94,7.54,27.95-3.35,10.4-20.87,18.15-31.7,19.54l-.46.06.03.46c.05.95,1.69,1.22,6,1.67.99.11,1.94.21,2.67.32,1.23.19,2.54.37,3.9.55,7.42,1.02,16.66,2.29,22.19,6.09,5.03,3.46,7.57,10.12,5.9,15.49-1.23,3.96-4.56,6.23-9.14,6.23h-.14c-4.58-.04-8.96-1.52-13.2-2.94-2.03-.68-4.14-1.39-6.25-1.94-3.57-.92-7.19-1.78-10.69-2.6-2.35-.55-4.7-1.1-7.06-1.68-17.29-4.25-34.06-8.26-49.85-11.93-1.91-.44-2.65-.6-3-.6-.44,0-.57.27-.61.39-.14.43.18.65.95,1.19.74.51,1.85,1.28,2.8,2.3l.16.17.18.12c2.14,1.6,2.64,3.89,3.22,6.54l.25,1.1s.15.23.16.24c0,.2.02.4.03.58.65,2.87,1.15,5.38.97,7.99-.24,3.36-.74,6.14-1.53,8.5-.11.36-.22.66-.35.95-.72,1.84-1.66,3.41-2.78,4.67-2.83,3.89-8.06,8.89-11.11,9.93l-.32.11v.34c-.02.18.04.34.17.47.23.24.61.27.91.27,1.45,0,4.94-.9,7.03-1.43.63-.16,1.12-.29,1.35-.33,1.11-.23,2.23-.42,3.34-.61,1.13-.19,2.27-.38,3.38-.62,1.94-.4,3.86-.84,5.78-1.28,2.7-.61,5.49-1.25,8.28-1.78,2.79-.53,5.58-1.01,8.37-1.5,3.84-.67,7.8-1.36,11.69-2.15l.14.05.12-.02c1.15-.19,2.38-.34,3.76-.46h.12s.31-.21.31-.21c.24-.02.45-.04.63-.04.37,0,.58.04.7.08l.09.03h.09c.75-.05,1.49-.09,2.24-.13.73-.04,1.45-.08,2.18-.12.07,0,.13,0,.2,0,.67,0,1.21.22,1.61.65l.11.12.16.03c2.45.47,6.15,2.45,6.73,4.94.39,1.66-.6,3.41-2.94,5.19-5.61,4.26-22.06,8.57-34.07,11.72-3.76.99-7.01,1.84-9.5,2.57l-2.16.63,2.22.33c8.71,1.3,13.83,3.37,17.67,11.05,5.29,10.58,4.42,25.38-6.21,30.83l-.52.26.34.47c.5.69.91.99,1.34.99s.66-.3.79-.48c4.73.11,13.86.28,23.18.28,6.87,0,12.38-.1,16.4-.29.14,0,.39-.06,1.1-.21,1.47-.32,4.22-.92,6.24-1.01l2.05-.1c5.11-.25,15.74-.77,21.79-.77,1.71,0,2.92.04,3.6.13h.4c.54,0,1.08.03,1.63.07.56.04,1.12.07,1.69.07.33,0,.67-.01,1.01-.04.94-.09,1.91-.12,2.84-.15l.65-.02.13-.12c.61-.53,1.88-.56,3.36-.6,1.13-.03,2.42-.06,3.73-.32,1.45-.29,2.77-.61,4.04-.93,2.52-.62,4.71-1.17,6.99-1.17,2.53,0,4.96.7,7.61,2.18l-.84,8.72-223.14,2.44Z"/>
        <path class="cls-1" d="M74.89,1c9.3.44,13.96,2.32,20.66,8.3,7.16,6.39,11.93,14.55,13.44,22.98,1.69,9.42-.12,12.25-.81,13.32-.27.42-.57.89-.39,1.48.23.76.9.93,1.27.98-.08,1.77-2.67,7.96-3.93,10.16-2.65,4.63-7.66,9.4-12.76,12.16-5.32,2.87-8.15,3.1-9.22,3.19-.31.02-.51.04-.71.11-.6.2-.98.69-.98,1.25,0,.19.04.36.12.52l-6.96-.9c-10.88-1.41-27.17-10.12-34.86-18.64-6.35-7.03-8.51-13.98-6.6-21.25,1.59-6.05,6.02-12.35,13.57-19.25,4.53-4.14,11.48-9.28,16.82-11.43,2.91-1.17,5.86-1.8,8.97-2.47.78-.17,1.57-.34,2.37-.51M181.26,74.12c2.71,0,4.71.08,5.93.25,1.86.25,7.15,2.62,8.62,4.02,2.11,2,3.2,4.43,3.08,6.85-.12,2.36-1.4,4.61-3.62,6.33-7.45,5.78-32.82,10.19-42.68,10.19h-.13s-.41,0-.41,0l-.29.29-.92.92-1.37,1.37,1.91.31c8.89,1.46,16.72,5.48,22.06,11.31,5.8,6.34,10.6,17.64,7.43,27.46-3.29,10.21-20.59,17.83-31.29,19.2l-.92.12.05.92c.08,1.41,1.92,1.66,6.45,2.14.99.11,1.93.2,2.65.31,1.23.19,2.55.37,3.91.56,7.37,1.01,16.54,2.27,21.97,6.01,4.86,3.34,7.31,9.76,5.7,14.93-1.18,3.79-4.26,5.88-8.67,5.88h-.13c-4.5-.04-8.65-1.44-13.05-2.91-2.04-.69-4.15-1.4-6.28-1.95-3.57-.92-7.18-1.77-10.68-2.6-2.31-.54-4.71-1.11-7.07-1.69-17.25-4.24-34.03-8.25-49.85-11.93-2.02-.47-2.71-.61-3.11-.61-.63,0-.97.38-1.08.74-.24.78.34,1.18,1.14,1.74.72.5,1.8,1.25,2.72,2.23l.05.06.07.07.08.09.1.06.06.04.05.03c1.99,1.49,2.48,3.7,3.03,6.25.06.26.12.53.18.79l.03.12.02.11.04.17.09.15s.03.04.04.06c0,.16.02.31.03.47v.07s.02.07.02.07c.62,2.75,1.13,5.23.95,7.76-.23,3.32-.72,6.06-1.52,8.41-.09.32-.2.6-.33.91-.69,1.77-1.6,3.28-2.68,4.5l-.03.04-.03.04c-3.1,4.26-8.16,8.8-10.84,9.71l-.65.22-.03.68c-.01.31.1.61.32.83.36.38.87.42,1.27.42,1.4,0,4.3-.71,7.15-1.45.62-.16,1.1-.28,1.33-.33,1.09-.23,2.23-.42,3.32-.6,1.12-.19,2.27-.38,3.4-.62,1.95-.41,3.9-.85,5.79-1.28,2.69-.61,5.48-1.25,8.26-1.77,2.78-.52,5.61-1.02,8.36-1.49,3.8-.66,7.73-1.34,11.58-2.12l.14.05.24-.04c1.14-.19,2.35-.34,3.72-.46l.24-.02.2-.13s.08-.05.12-.07c.17-.01.32-.02.46-.02.33,0,.5.04.55.06l.18.06h.18c.74-.06,1.49-.1,2.23-.14.73-.04,1.46-.08,2.18-.12.06,0,.11,0,.16,0,.53,0,.94.17,1.24.49l.22.24.32.06c2.32.45,5.81,2.28,6.34,4.56.34,1.46-.59,3.03-2.76,4.68-5.53,4.2-21.92,8.5-33.89,11.63-3.77.99-7.02,1.84-9.52,2.58l-4.31,1.27,4.44.66c8.72,1.3,13.54,3.25,17.3,10.78,5.18,10.37,4.37,24.85-5.99,30.17l-1.03.53.68.94c.4.56.97,1.2,1.74,1.2.49,0,.82-.25,1.02-.47,4.81.11,13.79.28,22.95.28,6.87,0,12.4-.1,16.42-.29.18,0,.41-.06,1.18-.23,1.46-.32,4.18-.91,6.15-1,.47-.02,1.19-.06,2.1-.1,5.1-.25,15.7-.77,21.72-.77,1.69,0,2.89.04,3.55.12h.07s.07,0,.07,0c.1,0,.21,0,.31,0,.52,0,1.04.03,1.59.07.56.03,1.13.07,1.72.07.38,0,.72-.01,1.06-.05.91-.08,1.85-.11,2.77-.14l.52-.02h.35s.27-.24.27-.24c.47-.41,1.72-.44,3.04-.47,1.15-.03,2.46-.06,3.81-.33,1.46-.29,2.79-.62,4.07-.93,2.49-.62,4.65-1.15,6.87-1.15,2.35,0,4.62.63,7.09,1.97l-.77,7.95-222.44,2.43c-1.02-1.36-2.63-3.57-2.74-4.26.25-.14.93-.32,1.49-.47.63-.17,1.42-.37,2.3-.67,4.67-1.6,6.3-1.62,9.25-1.66,1.09-.01,2.33-.03,3.94-.12.21-.01.39-.08.6-.16.49-.18,1.51-.57,3.74-.57.66,0,1.39.04,2.15.1,1.51.39,3.02.44,4.3.44.53,0,1.06-.01,1.59-.02.52-.01,1.03-.02,1.55-.02,1.23,0,2.14.06,2.95.2.25.06,1.24.53,1.89.83,1.36.64,1.99.93,2.4,1,1.86.34,3.76.63,5.59.91,1.3.2,2.6.4,3.9.62l1.55.26c4.96.83,8.23,1.39,13.2,1.39,1.26,0,2.61-.03,4.11-.1.22-.01.58-.1,2.54-.62.92-.24,2.18-.58,2.36-.61,2.26-.13,4.5-.2,6.67-.26,6.53-.19,13.29-.38,20.76-2.53l2.68-.77-2.57-1.1c-8.73-3.72-17.38-8.1-18.98-17-1.46-8.08,3.05-16.04,12.06-21.29.66-.38,1.41-.43,1.77-.45.24-.01.42-.03.64-.14.62-.32,1.65-.87,1.41-1.84-.23-.92-1.3-.92-1.65-.92-1.28,0-3.73.43-5.35.72-.49.09-.96.17-1.1.19-2.79.32-5.18.41-7.7.5-.84.03-1.71.06-2.62.1-.52.02-.82.36-1,.62-.24,0-.51,0-.83,0-9.81,0-26.29-1.5-28.76-5.52-.22-.37-.47-.96.02-1.93,1.87-3.68,10.09-5.18,16.71-6.38,3.78-.69,7.35-1.34,9.7-2.32l3.64-1.52-3.93-.38c-9.26-.9-15.42-4.06-21.99-11.3-4.35-4.8-9.34-12.07-8.36-19.48.62-4.65,3.57-8.7,8.77-12.04,7.86-5.04,15.72-5.41,18.68-5.54.9-.04,1.28-.06,1.57-.15.38-.12.61-.39.86-.68.12-.15.26-.31.38-.4l1.56-1.24-1.93-.5c-3.38-.87-6.84-1.6-10.19-2.31-3.7-.78-7.52-1.59-11.2-2.58l-1.13-.3c-8.93-2.38-14.82-3.96-21.69-10.47-1.48-1.4-5.4-5.12-5.17-7.6.05-.61.37-1.09,1-1.51.55-.21,3.45-1.01,3.92-1.11.19-.01.4-.02.63-.02,5.29,0,20.08,3.16,29.87,5.24,2.86.61,5.34,1.14,7.11,1.49,2.16.43,4.37.81,6.51,1.18,2.29.39,4.65.8,6.94,1.27.89.18,1.8.45,2.77.73.98.29,2,.59,3.04.8,2.84.59,5.73,1.22,8.51,1.82,2.81.62,5.73,1.25,8.61,1.84.95.19,1.92.48,2.87.76.97.28,1.96.57,2.94.77.24.05.51.07.81.07.34,0,.67-.03,1-.06.3-.03.58-.05.83-.05.17,0,.31.01.39.03.17.05.89.36,1.36.56,1.04.45,1.46.62,1.72.67.24.05.51.07.81.07.33,0,.67-.03,1-.05.3-.02.58-.05.83-.05.17,0,.31.01.42.03,1.5.29,3.01.68,4.61,1.09,3.25.83,6.6,1.69,9.89,1.69.24,0,.48,0,.71-.01l4.62-.18-4.29-1.73c-9.91-4-18.34-13.39-20.5-22.85-3.37-14.74,1.82-24.76,15.87-30.64.08-.02.21-.05.38-.08,2.39-.51,3.54-.8,3.59-1.84.01-.2-.03-.89-.93-1.18-.72-.24-3.79-.29-11.71-.38-4.67-.05-9.93-.11-13.23-.26-.18-.26-.48-.6-1-.63-3.77-.2-7.61-.28-11.33-.36-2.78-.06-5.65-.12-8.46-.23-.18-.26-.49-.61-1.01-.63-.55-.02-1.13-.03-1.78-.03-.77,0-1.54.02-2.32.03-.76.01-1.52.03-2.28.03-.53,0-1.05,0-1.57-.03-1.67-.06-3.33-.13-5-.2-4.51-.19-9.17-.39-13.99-.41h-.39c-3.33,0-6.85.15-10.25.29-3.44.14-6.99.29-10.4.29-5.35,0-9.48-.37-12.99-1.17-8.49-1.93-16.33-7.62-16.45-11.94-.09-3.31,4.27-5.27,7.95-6.33,4.32-1.24,7.68-1.42,10.64-1.58,1.12-.06,2.18-.12,3.25-.22.5-.05.79-.39.97-.64,2.89-.24,6.56-.3,10.12-.36,2.68-.04,5.45-.09,7.83-.21,2.6-.14,5.21-.23,7.74-.32,5.93-.22,12.07-.44,18.32-1.21l7.08-.88c.17.24.43.43.75.53l.16.05h.17c23.7-.56,48.15-.91,69.71-1.23,3.21-.05,7.42-.21,11.88-.39,5.98-.24,12.17-.48,16.9-.48M74.8,0c-3.97.9-7.83,1.54-11.62,3.06-5.55,2.23-12.65,7.53-17.12,11.62-13.49,12.35-21.11,26.29-7.03,41.89,7.59,8.41,24.02,17.47,35.47,18.96-8.85,1.1-17.23,1.07-25.99,1.53-5.64.29-13.21.14-18.35.61-.22.02-.39.59-.61.61-3.96.39-8.03.1-14.07,1.83-18,5.18-4.37,17.24,8.56,20.18,4.05.92,8.55,1.2,13.21,1.2,6.81,0,13.99-.59,20.65-.59.13,0,.26,0,.39,0,6.55.02,12.71.38,18.96.61.54.02,1.07.03,1.61.03,1.53,0,3.07-.06,4.6-.06.58,0,1.16,0,1.74.03.21,0,.4.6.61.61,6.71.27,13.48.26,20.18.61.21.01.4.6.61.61,7.03.37,23.86.22,25.07.61,1.29.42-2.86,1.14-3.06,1.22-14.36,5.99-20.03,16.42-16.51,31.8,2.37,10.38,11.44,19.65,21.1,23.55-.22,0-.45.01-.68.01-4.71,0-9.64-1.86-14.31-2.77-.19-.04-.4-.05-.61-.05-.59,0-1.24.1-1.83.1-.22,0-.42-.01-.62-.05-.38-.07-2.67-1.15-3.06-1.22-.19-.04-.4-.05-.61-.05-.59,0-1.25.11-1.83.11-.22,0-.42-.01-.61-.05-1.89-.39-3.85-1.13-5.81-1.53-5.74-1.18-11.4-2.49-17.12-3.67-1.98-.41-3.94-1.15-5.81-1.53-4.45-.9-8.99-1.56-13.45-2.45-7.93-1.57-30.23-6.75-37.17-6.75-.27,0-.52,0-.74.02-.22.02-4.05,1.07-4.28,1.22-4.3,2.81,1.68,8.52,3.98,10.7,7.34,6.96,13.78,8.47,23.24,11.01,7.06,1.89,14.32,3.07,21.4,4.89-.4.32-.72.85-.92.92-1.04.32-10.65-.5-20.49,5.81-14.17,9.1-10.46,22.17-.61,33.02,6.48,7.15,12.85,10.67,22.63,11.62-6.56,2.74-23.73,2.91-26.91,9.17-3.9,7.69,22.32,8.88,29.62,8.88.52,0,.95,0,1.26-.02.21,0,.4-.6.61-.61,3.69-.17,6.64-.18,10.4-.61.65-.08,4.7-.9,6.34-.9.86,0,1.06.22-.22.9-.11.06-1.33-.04-2.45.61-8.1,4.73-14.28,12.67-12.54,22.32,1.76,9.74,11.33,14.22,19.57,17.74-9.79,2.81-18.1,2.21-27.21,2.75-.37.02-4.58,1.21-4.89,1.22-1.5.07-2.84.1-4.07.1-5.37,0-8.64-.64-14.59-1.63-3.16-.53-6.33-.96-9.48-1.53-.64-.12-3.66-1.73-4.28-1.83-1.02-.18-2.07-.22-3.13-.22s-2.09.04-3.14.04c-1.4,0-2.79-.08-4.12-.43-.88-.08-1.65-.12-2.33-.12-3.08,0-4.11.71-4.4.73-6.14.35-6.94-.39-13.45,1.83-4.8,1.64-6.51.27-1.22,7.34l223.83-2.45.92-9.48c-3.11-1.79-5.68-2.41-8.14-2.41-3.51,0-6.8,1.25-11.13,2.1-3.07.61-6.05-.08-7.32,1.02-1.12.04-2.23.06-3.35.16-.32.03-.64.04-.97.04-1.11,0-2.21-.14-3.31-.14-.11,0-.23,0-.34,0-.75-.09-2.04-.13-3.67-.13-7.14,0-20.8.73-23.86.87-2.81.13-6.96,1.2-7.34,1.22-4.41.21-10.26.29-16.37.29-8.27,0-17.02-.14-23.38-.29h0c-.15,0-.26.48-.59.48-.21,0-.5-.19-.94-.79,11.29-5.8,11.58-21.18,6.42-31.5-4-8-9.37-10.02-18.04-11.31,10.65-3.13,36.31-8.74,43.73-14.37,7.66-5.82-.27-10.29-4-11.01-.45-.49-1.11-.81-1.97-.81-.07,0-.15,0-.23,0-1.47.09-2.94.16-4.41.25-.2-.06-.48-.1-.85-.1-.22,0-.48.01-.77.05-.05,0-.15.09-.33.2-1.27.11-2.54.25-3.8.47l-.15-.05c-6.7,1.37-13.46,2.4-20.18,3.67-4.75.9-9.35,2.07-14.07,3.06-2.22.46-4.5.76-6.73,1.22-.98.2-6.44,1.76-8.27,1.76-.38,0-.6-.07-.6-.23,3.12-1.06,8.37-6,11.32-10.07,1.25-1.39,2.18-3.03,2.87-4.8.14-.32.26-.65.36-.99.94-2.79,1.36-5.81,1.55-8.63.19-2.75-.37-5.4-.97-8.05h0c-.02-.23-.03-.47-.04-.71-.06-.1-.12-.18-.19-.28-.02-.07-.03-.15-.05-.22-.66-2.94-1.07-5.73-3.58-7.61-.05-.04-.1-.07-.15-.1-.04-.04-.08-.09-.12-.13-1.83-1.96-4.24-3.03-3.5-3.03.31,0,1.18.19,2.89.59,16.65,3.87,33.28,7.86,49.84,11.93,5.94,1.46,11.83,2.75,17.74,4.28,6.52,1.69,12.7,4.83,19.57,4.89.05,0,.09,0,.14,0,12.68,0,13.02-16.11,3.53-22.63-6.64-4.56-18.23-5.5-26.3-6.73-2.69-.41-8.21-.67-8.26-1.53,10.66-1.36,28.59-8.97,32.11-19.88,3.09-9.59-1.03-21.21-7.64-28.44-5.85-6.39-14.12-10.22-22.63-11.62l.92-.92s.09,0,.13,0c10.31,0,35.78-4.57,43.29-10.4,5.16-4.01,5.32-10.21.61-14.68-1.6-1.52-7.04-3.99-9.17-4.28-1.37-.19-3.5-.26-6.07-.26-8.33,0-21.34.76-28.79.87-23.24.34-46.48.68-69.72,1.22-.4-.13-.4-.48,0-.61.51-.17,3.46.22,10.09-3.36,5.03-2.72,10.29-7.54,13.15-12.54,1.14-2,4.63-9.86,3.98-11.31-.24-.53-1.07-.1-1.22-.61-.22-.73,3.44-2.32,1.22-14.68-1.66-9.23-6.86-17.38-13.76-23.55C89.26,2.35,84.37.44,74.8,0h0Z"/>
      </g>
    </g>
  </g>
</svg>