<?xml version="1.0" encoding="UTF-8"?>
<svg id="Layer_1" xmlns="http://www.w3.org/2000/svg" version="1.1" viewBox="0 0 566.9291339 333.9867328">
  <!-- Generator: Adobe Illustrator 29.0.1, SVG Export Plug-In . SVG Version: 2.1.0 Build 192)  -->
  <path d="M563.7878628,172.0329965c-1.4412981-1.9586478-4.7673498-4.6564633-5.7282001-4.6564633-.2217278,0-.3695613-2.4390955-.3695613-7.0955589-.0369471-11.6781731-.5912891-17.0368119-2.4390955-23.1715205-2.1804207-7.1694531-5.5803666-12.8607061-10.8651112-18.1454507-3.8064994-3.8434014-6.8738311-6.0238221-12.0107422-8.6107512-14.6346635-7.2803846-37.7691917-8.1672957-55.3603005-2.1065265-4.1760156,1.4412981-10.9759525,4.6195162-13.378101,6.245595-1.441253.9978426-1.6630258.9608955-3.0303846-.2217278-2.1434736-1.9217007-2.8825962-2.4760427-5.691253-4.2130078-7.7977344-4.7673047-18.1454507-6.7629447-28.6040535-5.4694801-6.836884.8499639-13.8216016,3.5847265-18.9585126,7.5020673l-2.6978155,2.0695342-2.6608233-2.0325871c-2.9195433-2.2173678-6.7999369-4.2499549-10.7172776-5.5803666-10.2738221-3.5108323-23.4301953-2.9564904-32.6322807,1.2934645l-2.2173678,1.0347897-2.1434736-1.0717368c-3.5847717-1.8108594-6.0977614-2.1434736-15.078119-2.0325871l-7.982515.1108413.1847806-2.6608233c.1847806-2.0695342.0369471-3.2152104-.5912891-5.2477975-.4434555-1.4412981-.9608504-2.7347626-1.145631-2.845604-.5173497-.3326142-.4434555-.7021755.2956671-1.5151923,1.441253-1.5521845,2.2543149-3.0673768,3.0303846-5.4695253.7760697-2.3282091.8130168-3.0303846.6282362-9.5716466-.1847806-7.2433924-.7391226-11.5302945-2.1434736-16.3345913-2.5499369-8.7955769-6.4673227-15.8911358-12.4541977-22.6910727-6.4303756-7.2433924-18.0715565-13.4520403-29.306229-15.7063552-16.9259255-3.3629988-34.3322536-1.5151923-47.6734075,5.099964l-3.3260517,1.6630258-1.6999729-2.5869291c-9.1651382-14.22811-24.4279928-23.9845373-43.534339-27.8649309-8.3520763-1.6999729-9.5346544-1.7369652-38.2865415-1.9217458-18.9954598-.1108413-28.2344922-.0369471-29.7496845.2217729-4.3608414.8130168-8.6846905,3.8803936-10.4955499,7.391226-.4434555.886911-2.9195433,7.3542337-5.5434195,14.4128906-4.8042969,12.9715925-6.245595,16.8150391-16.6302584,44.7538642-6.4673227,17.369381-13.4889874,36.2909014-22.5432392,60.6080529-3.2891046,8.832524-8.6107512,23.1345282-11.8259615,31.7822716-3.2151652,8.6477434-8.2781821,22.2845192-11.2716196,30.3040265-2.9934375,8.0194621-8.0564092,21.6562831-11.2716196,30.3040265-3.2151652,8.6477434-8.2781821,22.2845192-11.2716196,30.3040265-6.0238221,16.22375-13.8954958,37.3256911-20.1410908,54.1407302-4.6564633,12.4911899-5.0629717,14.4498377-3.9173407,18.4780649,1.5890865,5.5434195,5.2846995,9.2390325,10.6803305,10.7172776h.0000902c2.291262.6282362,4.3238491.6651833,6.7629447.2217278,2.2913071-.4434555,17.8498287-3.695613,24.7236599-5.1738582,2.8456491-.5912891,16.2976442-3.436893,29.9344652-6.3194892,33.7779117-7.0955589,38.434375-8.0934015,41.2060848-8.6846905,1.3304117-.2956671,10.7172776-2.2543149,20.8802133-4.3977885,17.2954868-3.6216737,24.1323708-5.0629717,32.7061749-6.9107782,1.9217458-.4065084,5.8390866-1.2195703,8.6846905-1.8108594,11.3085667-2.3651562,19.4759075-4.1021214,24.5758263-5.1738582,10.1629357-2.1434736,50.4451172-10.6433834,67.4449369-14.1911629,4.4716827-.9608504,9.6455409-2.0325871,11.4564002-2.4390955,1.8478065-.4065084,12.0476893-2.549982,22.7280198-4.8042969,10.6803305-2.2543149,22.5801863-4.7673047,26.4236328-5.5803666,3.8803936-.8130168,9.3499189-1.9586929,12.1955228-2.549982s7.5760066-1.5890865,10.532497-2.2173678c7.391226-1.5890865,19.069354-4.0282272,21.064994-4.4347356.9239032-.1847806,4.0651743-.8499639,7.0216647-1.4782452,5.2847446-1.145631,118.9248438-25.0932212,127.1290866-26.7931941,2.3282542-.5173948,6.6521034-1.4043059,9.6085938-2.0325871,2.9564904-.6282362,6.0977614-1.2934645,7.0216647-1.4782452s4.0651743-.8499639,7.0216647-1.4782452c2.9564904-.6282362,9.3499189-1.9586478,14.22811-2.9934375,9.7194802-1.99564,12.2694171-2.6608233,14.22811-3.6586659,1.9217458-.9977975,4.5825691-3.436893,5.8390866-5.432533,2.1064814-3.2891046,2.291262-4.7673498,2.291262-19.5867488,0-15.3367939-.1478335-16.22375-3.141271-20.2150301ZM551.7768048,192.5066564c0,10.532497-.0369471,11.4194531-.6282362,11.6042338-2.0695342.6282813-8.3151292,1.6999729-12.2694171,2.0695342-12.6020312,1.2195703-21.6562831-1.8108594-24.8345012-8.3151292-1.4412981-2.9195433-1.8108594-5.3955859-1.8478065-12.0476893l-.0369471-6.4303756-.9977975,2.9564904c-3.5477794,10.1998828-10.5694441,18.4411178-18.9215204,22.1367308-8.9064183,3.9173407-19.5867488,4.0651743-27.5692638.3695613-1.4782452-.7021755-3.9173407-2.3652013-4.1021214-2.8086568-.4065084-.8869561-.8130168-.0369471-.8130168,1.5521845v1.8478065h-32.1148858l-.1478335-24.8345463c-.1108864-22.1367308-.1847806-25.1301683-.7760697-27.2735967-1.5891316-6.0238672-4.545622-8.2781821-10.7542248-8.241235-6.5042698,0-10.1629357,3.695613-11.8998558,11.936848-.5912891,2.845604-.6652284,5.3955859-.6652284,25.7584044v22.6541256h-31.9670523v-23.7258624c-.0369471-25.6845102-.1478335-27.6062109-1.99564-31.4127103-.4804477-1.0717368-1.145631-2.2173678-1.404351-2.5129898-1.6260787-1.8847536-5.8760337-3.141271-9.2759796-2.7717097-6.6151563.7760697-9.4238131,3.8434465-10.9390054,12.0107422-.6652284,3.436893-.7391226,6.1716556-.7391226,27.643158l-.0369471,20.769372h-31.7822716l-.0369471-11.8999009c0-9.0911989-.1108864-11.7150751-.4065084-11.0128996-.5543419,1.2195252-3.5477794,6.1347085-4.7304027,7.7607873-6.0977614,8.3520763-16.778092,14.1911629-29.4170703,16.0759165-7.5021124,1.1086839-19.1802404.6282362-26.1279657-1.1086839-7.5390595-1.8847536-14.5237771-5.5803666-19.660643-10.3846635l-2.2173678-2.0695342-.1108864,5.432533-.1108864,5.3955859-1.3673588.5912891c-5.9499279,2.5130349-19.069354,3.9173407-27.7909916,2.9934375h.0000451c-8.2781821-.8869561-15.3367939-4.3238491-20.7693269-10.1998828-4.9151833-5.3586388-8.5738492-12.5650841-11.5672867-22.9497476l-1.2195252-4.286902-4.286902-.1108413-4.286902-.1108864v35.884393h-32.8909555V13.2694719h26.9779748c27.4214303,0,30.19314.1108864,35.1083233,1.4782452.7021755.1847806,2.8086568.7021755,4.6195162,1.1456761,3.2521124.7760697,10.9020583,3.695613,12.0107422,4.582524.295622.25872,1.4043059.850009,2.4021484,1.3674039,1.0347446.5173948,2.2543149,1.2565174,2.7717097,1.6999729,7.5020673,6.2825421,7.9455228,6.7260427,11.2346274,11.3085667,3.7695072,5.2477975,6.5042698,11.8629538,7.7977344,18.9215655.3695613,1.8108594.6652284,3.3629988.7391226,3.3999459.0738942.0739393.5543419-.5173497,1.0347897-1.2934645.8130168-1.2934645,2.4390955-3.2521124,4.5086298-5.432533,3.8064994-4.0651743,9.9042608-7.7977344,16.5563642-10.1629357,5.7651472-2.0325871,10.0151022-2.6978155,17.6280559-2.8456491,6.836884-.1108413,8.8694712.0369922,14.7824519,1.1826232,12.0107422,2.3282091,22.210625,9.386866,27.2366496,18.8845733,3.4738852,6.541262,5.0260246,13.4889874,4.841244,21.5454417l-.1108864,4.6195162-30.4888071.0369471h-30.4888071l.0369471,2.6977704c.1847806,8.8694712,6.4303756,14.3020493,16.0389694,13.8955409,3.5108323-.1478335,5.691253-.7761148,8.1303486-2.4391407,1.8847536-1.2934645,4.1760607-4.1390685,5.2477524-6.5412169.5912891-1.3674039.850009-1.5521845,1.5151923-1.3304117.8130168.2586749,12.2324699,5.2477524,16.4454778,7.2064453,1.2934645.5912891,2.4021484,1.0716917,2.4760427,1.0716917.1108864,0,1.2195703.4804477,2.4760427,1.0717368,1.2934645.5543419,3.2151652,1.4412981,4.286902,1.8847536,1.0347897.4435006,1.9217007.9978426,1.9217007,1.1826232,0,.6282362-1.5891316,3.4738852-3.0673768,5.4694801-1.7369201,2.3282542-5.2847446,5.9499279-7.4651202,7.6129537-3.1782181,2.4021484-8.4629628,5.1369111-12.4541977,6.4303756-.7760697.2217278-1.404351.5543419-1.404351.7021755s.7021755.4804477,1.5891316.7391226c.850009.25872,2.6238762,1.0717368,3.9542878,1.7739123,7.6129537,4.1760156,12.6389784,9.2390325,16.7041526,16.9258804l1.3673588,2.5869291.0369471-11.8998558v-11.936848h31.7822716l.0369471,14.3389964.0369471,14.3020042.6282362-2.5869291c2.2173678-8.9803125,5.691253-15.7802494,10.6063912-20.6214934,2.9195433-2.9195433,5.8020943-4.6195162,9.7564273-5.8760337,2.4021484-.7391226,3.5108323-.850009,8.4999099-.8130619,6.6521034,0,8.9433654.4804477,13.378101,2.7717097,3.2151652,1.6999729,5.2108053,3.5108323,7.391226,6.7629898,2.7717097,4.0282272,4.5825691,9.6085938,5.3216917,16.0019771.1108864,1.2934645.3695613,2.2173678.5543419,2.1065265.1847806-.1108864.3326142-.5173948.3326142-.8869561,0-1.145631,2.2173678-7.391226,3.5847265-10.1629357,4.5086298-8.9803576,9.9781551-13.9694351,17.4802675-15.9650752,2.5130349-.6651833,11.1607332-.9239032,14.22811-.4065084,4.6564633.7760697,9.8303215,3.399991,12.4541977,6.3194892,2.4021484,2.6978155,6.2086479,9.4977524,6.2086479,11.1237861,0,1.2195703.8869561.9608504,2.5130349-.7760697,6.0608143-6.3194892,14.0063822-11.3085667,22.5801863-14.1541707,6.836884-2.2543149,10.3846635-2.7717097,19.8084766-2.7347626,9.0542518,0,12.6759706.4804026,18.4411178,2.4021484,4.286902,1.4412981,5.3955859,1.9586478,8.5738041,4.0651743,4.6564633,3.1043239,8.536857,7.8716286,10.4586028,12.8607061,2.2173678,5.7282001,2.3652013,7.2803846,2.5869291,24.2432121.1478335,11.1237861.3326142,15.7433023.6652284,16.2976442,1.0717368,1.8847536,4.0651743,2.6608684,7.4281731,1.9217458l1.1825781-.25872v11.4194531Z"/>
  <path d="M236.0977875,111.9792856c-3.8434465-4.1021214-6.3934285-8.4260156-8.2042428-13.7107151-.4804477-1.4412981-.9608504-2.6978155-1.0717368-2.808702-.1108864-.1108413-.8130168.9239032-1.5891316,2.2913071-.7760697,1.3673588-2.1804207,3.5108323-3.141271,4.7673498l-1.7369201,2.291262,2.2543149,2.1804207c6.2825421,6.1716556,9.386866,13.3411538,9.7564273,22.8019141l.2217278,4.7673498,2.2543149-2.1804207c1.2195703-1.2195252,2.9934375-2.7717097,3.9173407-3.4738852v.0000451c2.5130349-1.99564,6.5412169-4.2499549,10.0151022-5.691253l3.1043239-1.2565174-1.4782452-.5912891c-6.3194892-2.549982-10.4955499-5.3216917-14.3020042-9.386866Z"/>
  <path d="M223.2000441,157.3983782c.1847806-1.1086839.2586749-2.0695342.2217278-2.1434736-.0738942-.0738942-1.3673588.8869561-2.845604,2.1065265-8.4629628,6.9107782-20.2889243,10.7542248-37.0669711,12.0107422-1.404351.1108413-2.6608684.2217278-2.7347626.2217278-.25872,0,3.0303846,2.4021484,4.3977885,3.2151652,3.0303846,1.8108594,10.7542248,4.1391136,15.3367939,4.6195162,2.9195433.3326142,8.2411899.2956671,10.9759525-.0738942,1.6999729-.2217278,5.2108053-.9239032,7.7977344-1.5521845,4.6564633-1.1086839,4.7304027-1.145631,4.5086298-2.0325871-.850009-3.4738852-1.1825781-12.2324699-.5912891-16.3715384Z"/>
  <path d="M180.3679257,94.4251239c5.2847446-1.2195252,10.3477164-4.3607963,13.0085848-7.982515,3.6216737-4.9890775,5.4694801-12.823759,4.9521304-21.2128275-.3326142-5.5803666-1.0347897-8.7216376-2.8456491-12.3803035-1.99564-4.0281821-4.1390685-6.0977614-8.5738041-8.3151292-4.8042969-2.4021484-7.391226-2.845604-17.3324339-3.0673317l-8.4260156-.1847806v26.756247c0,14.7454597.1108864,26.9040354.2956671,27.051869.5173948.5543419,15.96503,0,18.9215204-.6652284Z"/>
  <path d="M287.1711409,77.942699v-2.6238762c0-4.841244-1.6630258-9.1651382-4.4716827-11.5672867-4.0651743-3.4738401-12.0107422-4.0651743-17.5541617-1.3304117-3.9173407,1.9217458-6.3194892,5.5064724-7.3542789,10.8651112-.2956671,1.5890865-.5543419,3.2891046-.5543419,3.7695072v.8869561h29.9344652Z"/>
  <path d="M193.3764654,158.1744479c4.1760607-3.695613,6.0238672-9.2020853,5.7651472-17.0367668-.1478335-3.6217188-.3695613-5.099964-1.0347446-6.7629898-1.1086839-2.9195433-3.4369381-5.691253-6.1347085-7.3172866-4.6195162-2.7717097-8.6107963-3.3629988-21.3976082-3.2152104l-9.2390325.1108864-.1108864,19.2171875c-.0369471,10.5694441,0,19.4389153.1108864,19.6975901.2217278.5543419,15.1150661.6282813,19.7715295.0739393,5.4694801-.6652284,9.3129267-2.1804207,12.2694171-4.7673498Z"/>
  <path d="M511.4578567,160.9091654c-1.5151923,1.6999729-4.7673498,3.1782181-11.0129447,4.9521304-10.7172776,3.0673768-14.4498377,6.1347085-14.4498377,11.7890144,0,3.1782181,1.8478065,5.5803666,5.2477524,6.7629898,2.3282542.8130168,6.2825421.8869561,9.2390325.1847806h.0000451c4.2130078-.9608504,7.982515-4.0651743,10.0520493-8.2042879,1.5891316-3.1782181,2.1434736-6.1716556,2.2173678-11.7150751,0-2.7717097,0-5.0630169-.0738942-5.0630169-.0369471,0-.5912891.5912891-1.2195703,1.2934645Z"/>
  <path d="M277.7103356,145.0180747c-2.1064814-1.0717368-2.3652013-1.1086839-6.9847176-1.1086839-4.5086298,0-4.9151833.0738942-6.9107782,1.0347446-2.6238762,1.2934645-5.2108053,4.1391136-6.245595,6.9108233-1.0347897,2.6977704-1.8108594,7.9086208-1.8108594,12.0107422.0369471,9.9042157,3.3629988,15.96503,9.6455409,17.7389423,2.9564904.8130168,9.9412079.5543419,12.1955228-.4435006h.0000451c5.3216917-2.4021484,7.8346815-8.1303486,7.8346815-18.0345643,0-10.0520944-2.2173678-15.2998468-7.7238402-18.1085036Z"/>
  <path d="M511.531796,155.5135794c1.8108594-2.549982,1.1825781-6.9477253-1.3304117-8.9433654-2.0325871-1.5891316-3.7325601-2.1434736-7.3542789-2.3652013-4.286902-.25872-6.8738311.295622-10.6063912,2.2173678-4.0651743,2.0695342-6.9477705,5.2108053-9.7564273,10.532497-.5543419,1.0717368-1.145631,1.9217007-1.2934645,1.9217007-.1847806,0-2.5130349-1.3304117-5.2477524-2.9934375-2.6978155-1.6260787-5.2477524-3.1782181-5.6543059-3.3999459-.4065084-.25872-1.4412981-.8869561-2.3282542-1.4412981-.8869561-.5912891-1.6630258-1.0347897-1.7739123-1.0347897-.0738942,0-.850009-.4434555-1.7369201-.9977975-.850009-.5543419-1.8847536-1.1826232-2.291262-1.404351-.4065084-.2586749-1.1086839-.6651833-1.5521394-.9239032-.4434555-.295622-.8869561-.4434555-.9239032-.3695613-.0738942.1108864-.0738942,6.7999369,0,14.8563913l.1478335,14.7085126,1.0717368-1.0717368c.5912891-.5912891,2.2173678-1.8478065,3.5847265-2.7717097l-.0000451.0000451c4.6934104-3.1043239,10.7542248-5.3955859,19.7345823-7.4651653,19.6976352-4.5086298,25.4258354-6.3933834,27.310589-9.0542518Z"/>
</svg>