<?xml version="1.0" encoding="UTF-8"?>
<svg id="Layer_1" xmlns="http://www.w3.org/2000/svg" version="1.1" viewBox="0 0 566.9291339 240.9448819">
  <!-- Generator: Adobe Illustrator 29.0.1, SVG Export Plug-In . SVG Version: 2.1.0 Build 192)  -->
  <path d="M213.9679045,68.0598432h-23.5169328v31.5318904h24.3212542c3.0614117,0,5.796856-1.4527554,8.0539328-4.528346,2.2535489-2.9090521,3.3803099-6.792519,3.3803099-11.4803141,0-4.8543337-1.2862168-8.5748034-3.8622053-11.4803141-2.5795298-2.5866126-5.3149606-4.042916-8.3763588-4.042916Z"/>
  <path d="M550.096641.4641751H16.8289312C7.9706635.4641751.7246002,7.7421275.7246002,16.6358291v172.5413341c0,8.8936948,7.2460633,16.1716506,16.104331,16.1716506h208.895669c8.8582677,0,21.2598425,5.1732251,27.5421353,11.4803209l18.8433099,18.9212604c6.2822928,6.3070823,16.589761,6.3070823,22.709043,0l18.8433099-18.9212604c6.2822928-6.3070823,18.6838676-11.4803209,27.5421353-11.4803209h208.8921074c8.8582677,0,16.1078926-7.2779558,16.1078926-16.1716506V16.6358291c0-8.8937008-7.2496249-16.171654-16.1078926-16.171654ZM105.8970384,160.2318921h-26.7377936v-70.9901569h26.5748031v70.9901569h.1629904ZM140.8446725,68.0598432H44.0486168v-23.4496064h96.7960692s0,23.4496064-.0000135,23.4496064ZM231.0395609,160.2318921l-23.1909384-37.3535427h-17.3976373v37.3535427h-26.5748031V44.6137815h51.8633895c5.474403,0,10.4669241,1.1303158,14.9775633,3.3909441,4.6700816,2.2677178,8.5393831,5.3362223,11.9196794,8.8937016,3.3803234,3.7204697,5.9598397,7.9263762,7.8909356,12.6141713,1.9310959,4.6913365,2.898428,9.3791316,2.898428,14.2299172,0,3.5574793-.4818954,6.9555095-1.2862168,10.3499983-.826705,3.2728323-2.0724259,6.4252583-3.7062908,9.3791316-1.6086699,2.9126002-3.5433071,5.4992128-5.9598397,7.9228349-2.344597,2.345969-4.9996173,4.359584-7.8909626,5.9846495l26.4153608,43.0157459h-29.9586679s0-.1629972,0-.1629837ZM437.6781464,44.6137781l11.9196794,18.917719-14.1732283,20.0515762-26.5748031-38.9728332h28.8283521v.003538ZM309.3147698,160.2318921h-33.3389643l81.8149477-115.618114h33.501975l-81.9779584,115.618114ZM486.6395665,160.2318921l-10.7893636-17.3019664,14.1732283-20.0551176,25.285045,37.357084h-28.6689097ZM440.5765744,160.2318921h-31.7303214l81.8220304-115.618114h31.8897638s-81.9814997,115.618114-81.9814727,115.618114Z"/>
</svg>