<?xml version="1.0" encoding="UTF-8"?>
<svg id="Layer_1" xmlns="http://www.w3.org/2000/svg" version="1.1" viewBox="0 0 300.0000339 70.8939733">
  <!-- Generator: Adobe Illustrator 29.1.0, SVG Export Plug-In . SVG Version: 2.1.0 Build 142)  -->
  <defs>
    <style>
      .st0 {
        fill: #e21f26;
      }

      .st1 {
        fill: #010101;
      }

      .st2, .st3 {
        fill: #219cd8;
      }

      .st4, .st5, .st6, .st7, .st8, .st9, .st10 {
        fill: none;
      }

      .st4, .st5, .st6, .st7, .st8, .st9, .st10, .st11, .st3 {
        stroke: #010101;
      }

      .st4, .st5, .st6, .st3 {
        stroke-miterlimit: 23.5978928;
      }

      .st4, .st7, .st11, .st3 {
        stroke-width: .6548415px;
      }

      .st5 {
        stroke-width: .2182805px;
      }

      .st12 {
        fill: #0a9748;
      }

      .st6, .st8 {
        stroke-width: .436561px;
      }

      .st7, .st8, .st9, .st10, .st11 {
        stroke-linejoin: round;
      }

      .st9 {
        stroke-width: 1.7462441px;
      }

      .st10 {
        stroke-width: 1.3096831px;
      }

      .st13 {
        fill: #fdec09;
      }

      .st14 {
        fill: #fff;
      }

      .st11 {
        fill: #f29220;
      }
    </style>
  </defs>
  <g id="g7869">
    <g id="g7875">
      <path id="path7877" class="st13" d="M294.9441854.873122c2.3007945,0,4.1591285,1.8642336,4.1591285,4.1650279l.0235979,60.8176713c0,2.3007966-1.8642336,4.16503-4.1650279,4.16503H5.0322614c-2.2948947,0-4.1591394-1.8642334-4.1591394-4.16503l.0176887-60.8176692C.8908107,2.7373576,2.7550554.8731242,5.0558464.8731242l289.888339-.0000021Z"/>
    </g>
    <g id="g7879">
      <path id="path7881" class="st9" d="M294.9441854.873122c2.3007945,0,4.1591285,1.8642336,4.1591285,4.1650279l.0235979,60.8176713c0,2.3007966-1.8642336,4.16503-4.1650279,4.16503H5.0322614c-2.2948947,0-4.1591394-1.8642334-4.1591394-4.16503l.0176887-60.8176692C.8908107,2.7373576,2.7550554.8731242,5.0558464.8731242l289.888339-.0000021Z"/>
    </g>
    <g id="g7883">
      <path id="path7885" class="st1" d="M22.987362,41.6633442l4.7962718-2.8317471-.0530953,6.7548969-4.7431766-3.9231498Z"/>
    </g>
    <g id="g7887">
      <path id="path7889" class="st4" d="M22.987362,41.6633442l4.7962718-2.8317471-.0530953,6.7548969-4.7431766-3.9231498Z"/>
    </g>
    <g id="g7891">
      <path id="path7893" class="st2" d="M53.6734258,51.5290669c1.0914026.3834657,3.9231498.2713758,4.6310866-.873122.7079365-1.1444978-1.2506884-2.2889957-1.2506884-2.2889957l-2.9969325-.8141274-.985212,1.5751595.6017463,2.4010856Z"/>
    </g>
    <g id="g7895">
      <path id="path7897" class="st7" d="M53.6734258,51.5290669c1.0914026.3834657,3.9231498.2713758,4.6310866-.873122.7079365-1.1444978-1.2506884-2.2889957-1.2506884-2.2889957l-2.9969325-.8141274-.985212,1.5751595.6017463,2.4010856Z"/>
    </g>
    <g id="g7899">
      <path id="path7901" class="st7" d="M55.0905019,47.8222798c-.33627.4483599-.3716668,3.3155038.3834657,3.8700545"/>
    </g>
    <g id="g7903">
      <path id="path7905" class="st1" d="M51.7172262,51.1253803c.6961378.6548415,1.7108472.7079368,2.2653977.1179895.5545504-.5899473.436561-1.5987572-.2595768-2.2535987-.7020373-.6548415-1.7167467-.7079368-2.2653977-.1179895-.5545505.5899473-.436561,1.5987572.2595768,2.2535988"/>
    </g>
    <g id="g7909">
      <path id="path7911" class="st2" d="M52.4198247,43.5168598v-3.8700545l-2.2889957,2.8317471v2.8376466l2.2889957-1.7993392Z"/>
    </g>
    <g id="g7913">
      <path id="path7915" class="st7" d="M52.4198247,43.5168598v-3.8700545l-2.2889957,2.8317471v2.8376466l2.2889957-1.7993392Z"/>
    </g>
    <g id="g7917">
      <path id="path7919" class="st2" d="M53.7826177,44.1705464l-3.3273029,2.9969325.2772752,1.3627783,3.3744988.11209,1.0383073-1.2565878-1.3627783-3.215213Z"/>
    </g>
    <g id="g7921">
      <path id="path7923" class="st7" d="M53.7826177,44.1705464l-3.3273029,2.9969325.2772752,1.3627783,3.3744988.11209,1.0383073-1.2565878-1.3627783-3.215213Z"/>
    </g>
    <g id="g7925">
      <path id="path7927" class="st2" d="M51.3302366,43.3527973c.873122-.5427515,3.4865888-1.6341541,3.8169592,0,.3775663,1.8996303-4.8670653,1.9645246-3.651774,5.7755841.9675136,3.0441277-2.1297098,2.9969325-2.7786518,0-.2949737-1.3273813.1061904-4.3066153,2.6134666-5.7755841"/>
    </g>
    <g id="g7929">
      <path id="path7931" class="st7" d="M51.3302366,43.3527973c.873122-.5427515,3.4865888-1.6341541,3.8169592,0,.3775663,1.8996303-4.8670653,1.9645246-3.651774,5.7755841.9675136,3.0441277-2.1297098,2.9969325-2.7786518,0-.2949737-1.3273813.1061904-4.3066153,2.6134666-5.7755841Z"/>
    </g>
    <g id="g7933">
      <path id="path7935" class="st1" d="M61.1953107,47.8771504H12.1411936s-4.0352398-.0530953-6.3242326-.761032v3.1031229s1.7462413-.6548415,6.3242382-.5958469h49.2724015l-.21829-1.7462441Z"/>
    </g>
    <g id="g7937">
      <path id="path7939" class="st2" d="M24.5678235,52.1283711c1.9055299-.436561,7.3566429-3.7579646,7.9052943-5.5573036l2.3951862.1061902c-.0530956,1.7993394-9.645639,9.2680726-11.391883,9.2680726l1.0914026-3.8169592Z"/>
    </g>
    <g id="g7941">
      <path id="path7943" class="st4" d="M24.5678235,52.1283711c1.9055299-.436561,7.3566429-3.7579646,7.9052943-5.5573036l2.3951862.1061902c-.0530956,1.7993394-9.645639,9.2680726-11.391883,9.2680726l1.0914026-3.8169592Z"/>
    </g>
    <g id="g7945">
      <path id="path7947" class="st2" d="M42.7181379,62.8116596c-1.5810589-1.0914026-6.7607964-3.0087313-7.2504524.1651853-.3244707,2.1238104,1.1444978,2.5072762,1.9645246,2.5072762.8141274,0,2.0176199-.548651,2.1238104-1.7462441.1356879-1.4748683,1.9055299-.2713758,2.6724614-.1061906.7610317.1592857.4896559-.8200268.4896559-.8200268"/>
    </g>
    <g id="g7949">
      <path id="path7951" class="st7" d="M42.7181379,62.8116596c-1.5810589-1.0914026-6.7607964-3.0087313-7.2504524.1651853-.3244707,2.1238104,1.1444978,2.5072762,1.9645246,2.5072762.8141274,0,2.0176199-.548651,2.1238104-1.7462441.1356879-1.4748683,1.9055299-.2713758,2.6724614-.1061906.7610317.1592857.4896559-.8200268.4896559-.8200268Z"/>
    </g>
    <g id="g7953">
      <path id="path7955" class="st2" d="M45.3345319,63.9561604c.1651853-.873122,2.2359004-5.9407693,3.4334935-6.866987s-1.9055299-.0530949-1.9055299-.0530949c0,0-6.1590502,5.9407693-5.8345791,9.1559827l4.3066155-2.2359007Z"/>
    </g>
    <g id="g7957">
      <path id="path7959" class="st7" d="M45.3345319,63.9561604c.1651853-.873122,2.2359004-5.9407693,3.4334935-6.866987s-1.9055299-.0530949-1.9055299-.0530949c0,0-6.1590502,5.9407693-5.8345791,9.1559827l4.3066155-2.2359007Z"/>
    </g>
    <g id="g7961">
      <path id="path7963" class="st7" d="M53.455763,50.329665c1.0914026.1061905,3.5455835-.2182805,4.4128061-1.3096831M55.9099439,50.1113845c-.0530953.8200268,1.0147093,1.197593,1.4689689,1.197593"/>
    </g>
    <g id="g7965">
      <path id="path7967" class="st2" d="M55.0905019,48.5314472c-.648942-.324471-2.2417998-3.8582554.2713758-4.5779913,3.0559272-.873122,4.2122238,1.8111383,3.9821445,2.0707152,0,0-2.8848423-.3775663-2.7255567,2.2889957.0530953.9262173-1.0206089.4719579-1.5279636.2182805"/>
    </g>
    <g id="g7969">
      <path id="path7971" class="st7" d="M55.0905019,48.5314472c-.648942-.324471-2.2417998-3.8582554.2713758-4.5779913,3.0559272-.873122,4.2122238,1.8111383,3.9821445,2.0707152,0,0-2.8848423-.3775663-2.7255567,2.2889957.0530953.9262173-1.0206089.4719579-1.5279636.2182805Z"/>
    </g>
    <g id="g7973">
      <path id="path7975" class="st2" d="M59.2874509,46.0235127c-.9321168-.33627-2.9969325.3834657-2.7255567,2.5072762s2.1828051,2.2535989,2.6193661,2.1238104c.9262173-.2713758,2.230001-3.8700546.1061906-4.6310866"/>
    </g>
    <g id="g7977">
      <path id="path7979" class="st7" d="M59.2874509,46.0235127c-.9321168-.33627-2.9969325.3834657-2.7255567,2.5072762s2.1828051,2.2535989,2.6193661,2.1238104c.9262173-.2713758,2.230001-3.8700546.1061906-4.6310866Z"/>
    </g>
    <g id="g7981">
      <path id="path7983" class="st2" d="M54.9814016,32.1798847l3.1621177-3.5986787,1.5810589-9.1028863-5.6693939-3.2683076c0-1.038308.2713758-1.9645242-1.7993394-2.0707155-2.0707152-.1120903-3.8169589,1.6341538-3.8169589,1.6341538l2.0176195,2.5072758-4.14143,4.035239-.2713758,2.1769061,8.9377018,7.6870134Z"/>
    </g>
    <g id="g7985">
      <path id="path7987" class="st7" d="M54.9814016,32.1798847l3.1621177-3.5986787,1.5810589-9.1028863-5.6693939-3.2683076c0-1.038308.2713758-1.9645242-1.7993394-2.0707155-2.0707152-.1120903-3.8169589,1.6341538-3.8169589,1.6341538l2.0176195,2.5072758-4.14143,4.035239-.2713758,2.1769061,8.9377018,7.6870134Z"/>
    </g>
    <g id="g7989">
      <path id="path7991" class="st2" d="M54.818556,26.5653828l.0235979-.0294974c-.5427515.5604499-1.3037836.9085189-2.1474082.9085189-1.6636513,0-3.0087314-1.3450799-3.0087314-3.002832,0-1.6636515,1.3450798-3.0087313,3.0087313-3.0087313.6784395,0,1.3096831.2241799,1.8111383.6076457h-.0117989l5.5042086-3.3214035,5.7224892,3.3744988c1.4158736.873122,1.4158736,2.2359004-.0530956,3.3803982l-6.3242351,4.5248961-4.5248961-3.4334935Z"/>
    </g>
    <g id="g7993">
      <path id="path7995" class="st7" d="M54.818556,26.5653828l.0235979-.0294974c-.5427515.5604499-1.3037836.9085189-2.1474082.9085189-1.6636513,0-3.0087314-1.3450799-3.0087314-3.002832,0-1.6636515,1.3450798-3.0087313,3.0087313-3.0087313.6784395,0,1.3096831.2241799,1.8111383.6076457h-.0117989l5.5042086-3.3214035,5.7224892,3.3744988c1.4158736.873122,1.4158736,2.2359004-.0530956,3.3803982l-6.3242351,4.5248961-4.5248961-3.4334935Z"/>
    </g>
    <g id="g7997">
      <path id="path7999" class="st12" d="M52.9649793,29.890334l-3.9526471-3.2919062-15.5510112,19.2440817,3.8582557,3.6163766,15.6454026-19.5685521Z"/>
    </g>
    <g id="g8001">
      <path id="path8003" class="st0" d="M52.9206907,29.9475849l4.3479117,3.651774-15.9108794,19.6216473-4.0352398-3.763864,15.5982074-19.5095574Z"/>
    </g>
    <g id="g8005">
      <path id="path8007" class="st1" d="M60.6501561,53.6002339c6.4835209-2.6134666,38.8067351-3.8700545,38.8067351-3.8700545l194.476129-1.9645246-194.0395687-.4306616s-34.7714953-.6017463-39.2432954-3.4924882v9.7577289Z"/>
    </g>
    <g id="g8009">
      <path id="path8011" class="st5" d="M60.6501561,53.6002339c6.4835209-2.6134666,38.8067351-3.8700545,38.8067351-3.8700545l194.476129-1.9645246-194.0395687-.4306616s-34.7714953-.6017463-39.2432954-3.4924882v9.7577289Z"/>
    </g>
    <g id="g8013">
      <path id="path8015" class="st0" d="M68.1720373,45.5332783c.6017463.1651853,4.2535203.5427515,4.6900813.6017463l-2.1828051,5.6103989c-.4896563-.1061906-6.3242354.9852123-6.6487065,1.0383073l4.1414303-7.2504524Z"/>
    </g>
    <g id="g8017">
      <path id="path8019" class="st0" d="M77.9285451,46.569167c.761032.0530953,3.3803982.324471,7.0321722.3834657l-.7079368,3.3744988c-3.651774.0117988-7.5749237.8259262-7.9583896.873122l1.6341541-4.6310866Z"/>
    </g>
    <g id="g8021">
      <path id="path8023" class="st4" d="M52.6924001,26.2130879c.9793125,0,1.7757414-.7964289,1.7757414-1.7757414s-.7964289-1.769842-1.7757414-1.769842-1.7757414.7905294-1.7757414,1.769842.7964289,1.7757414,1.7757414,1.7757414Z"/>
    </g>
    <g id="g8025">
      <path id="path8027" class="st7" d="M44.9528524,23.1319111l12.3181004,10.4656657-15.9167791,19.621647-11.769449-11.0084166,15.3681278-19.0788961ZM52.9643372,29.8927075l-15.6395036,19.5626523M49.0411871,26.6184988l-15.5864079,19.2971763"/>
    </g>
    <g id="g8029">
      <path id="path8031" class="st1" d="M49.0135137,26.6006611l-4.0588377-3.4688902-15.3740265,19.0788958,3.8818533,3.6340765,15.5510108-19.244082Z"/>
    </g>
    <path id="path8033" class="st11" d="M43.8608356,22.3672758h-16.8960819v24.742392h16.8960819v-24.742392Z"/>
    <g id="g8059">
      <path id="path8061" class="st1" d="M65.0753881,24.3311299c0,.2772752-.22418.5014552-.5014552.5014552s-.5014552-.22418-.5014552-.5014552v-1.0914026c0-.2772752.22418-.5014553.5014552-.5014553s.5014552.2241801.5014552.5014553v1.0914026Z"/>
    </g>
    <g id="g8063">
      <path id="path8065" class="st6" d="M65.0753881,24.3311299c0,.2772752-.22418.5014552-.5014552.5014552s-.5014552-.22418-.5014552-.5014552v-1.0914026c0-.2772752.22418-.5014553.5014552-.5014553s.5014552.2241801.5014552.5014553v1.0914026Z"/>
    </g>
    <g id="g8067">
      <path id="path8069" class="st1" d="M61.8501073,25.8137348c0,.2772752.22418.5014552.5014552.5014552s.5014552-.22418.5014552-.5014552v-4.0529379c0-.2772755-.22418-.5014554-.5014552-.5014554s-.5014552.2241799-.5014552.5014554v4.0529379Z"/>
    </g>
    <g id="g8071">
      <path id="path8073" class="st6" d="M61.8501073,25.8137348c0,.2772752.22418.5014552.5014552.5014552s.5014552-.22418.5014552-.5014552v-4.0529379c0-.2772755-.22418-.5014554-.5014552-.5014554s-.5014552.2241799-.5014552.5014554v4.0529379Z"/>
    </g>
    <g id="g8075">
      <path id="path8077" class="st1" d="M59.6266424,24.7335346c0,.2772752.22418.5014552.5014552.5014552s.5014552-.22418.5014552-.5014552v-1.893731c0-.2772752-.22418-.5014551-.5014552-.5014551s-.5014552.2241799-.5014552.5014551v1.893731Z"/>
    </g>
    <g id="g8079">
      <path id="path8081" class="st6" d="M59.6266424,24.7335346c0,.2772752.22418.5014552.5014552.5014552s.5014552-.22418.5014552-.5014552v-1.893731c0-.2772752-.22418-.5014551-.5014552-.5014551s-.5014552.2241799-.5014552.5014551v1.893731Z"/>
    </g>
    <g id="g8083">
      <path id="path8085" class="st14" d="M32.4164716,28.6367329l-3.0500278,2.1828051v3.8700545l3.0500278,2.5072758,3.0500278-2.5072758v-3.8700545l-3.0500278-2.1828051Z"/>
    </g>
    <g id="g8087">
      <path id="path8089" class="st8" d="M32.4164716,28.6367329l-3.0500278,2.1828051v3.8700545l3.0500278,2.5072758,3.0500278-2.5072758v-3.8700545l-3.0500278-2.1828051Z"/>
    </g>
    <g id="g8091">
      <path id="path8093" class="st14" d="M38.5212804,28.6367329l3.0500278,2.1828051v3.8700545l-3.0500278,2.5072758-3.0500278-2.5072758v-3.8700545l3.0500278-2.1828051Z"/>
    </g>
    <g id="g8095">
      <path id="path8097" class="st8" d="M38.5212804,28.6367329l3.0500278,2.1828051v3.8700545l-3.0500278,2.5072758-3.0500278-2.5072758v-3.8700545l3.0500278-2.1828051Z"/>
    </g>
    <g id="g8099">
      <path id="path8101" class="st14" d="M35.4688321,34.6870869l3.0500278,2.1828051v4.0824356l-3.0500278,2.5072758-3.0500278-2.5072758v-4.0824353l3.0500278-2.1828055Z"/>
    </g>
    <g id="g8103">
      <path id="path8105" class="st8" d="M35.4688321,34.6870869l3.0500278,2.1828051v4.0824356l-3.0500278,2.5072758-3.0500278-2.5072758v-4.0824353l3.0500278-2.1828055Z"/>
    </g>
    <g id="g8107">
      <path id="path8109" class="st1" d="M34.0901929,34.2506855h-2.6606624v-3.1326204h2.6252655v.3716668h-2.1356092v.9616142h1.970424v.3775663h-1.970424v1.0442068h2.1710061s0,.3775663,0,.3775663Z"/>
    </g>
    <g id="g8111">
      <path id="path8113" class="st1" d="M38.348982,34.1963032h-.4837568v-3.1326204h1.6164556c.6666404,0,1.0678045.3716668,1.0678045.8790214,0,.436561-.2831748.9321168-1.0678046.9321168h-1.1326987v1.3214821ZM38.348982,32.5090538h.9675136c.436561,0,.7315346-.1356879.7315346-.5604499,0-.3952647-.3067726-.5250532-.7138362-.5250532l-.985212.0000002v1.085503Z"/>
    </g>
    <g id="g8115">
      <path id="path8117" class="st1" d="M36.8528692,40.3553608v-1.8524346c0-.088492.0117989-.4896563.0117989-.7787305h-.0117989l-1.0147094,2.6311651h-.4778574l-1.0147093-2.6252655h-.011799c0,.2831748.011799.6843389.011799.7728309v1.8524346h-.4719578v-3.1326204h.6961378l1.0265083,2.6488635h.011799l1.0265083-2.6488635h.6902384v3.1326204h-.4719578Z"/>
    </g>
    <g id="g8119">
      <path id="path8121" class="st2" d="M44.5168935,49.3484638c1.3096831.3834657,4.4718008,3.3803982,4.7431766,4.4718008l2.1238104-1.2565878-.3244707,5.1797379-6.2711398-1.0383073,2.2359004-1.3627787c-.0530953-1.0324079-2.7255567-3.651774-4.1414303-3.9762451l1.6341534-2.0176199Z"/>
    </g>
    <g id="g8123">
      <path id="path8125" class="st4" d="M44.5168935,49.3484638c1.3096831.3834657,4.4718008,3.3803982,4.7431766,4.4718008l2.1238104-1.2565878-.3244707,5.1797379-6.2711398-1.0383073,2.2359004-1.3627787c-.0530953-1.0324079-2.7255567-3.651774-4.1414303-3.9762451l1.6341534-2.0176199Z"/>
    </g>
    <g id="g8127">
      <path id="path8129" class="st3" d="M51.3845197,52.5642842l-3.4334935,1.9645246"/>
    </g>
    <g id="g8131">
      <path id="path8133" class="st2" d="M41.0285741,66.1909626h14.0643445c-3.710769-5.1207426-13.1381271-2.9438372-14.0643445,0"/>
    </g>
    <g id="g8135">
      <path id="path8137" class="st7" d="M41.0285741,66.1909626h14.0643445c-3.710769-5.1207426-13.1381271-2.9438372-14.0643445,0Z"/>
    </g>
    <g id="g8139">
      <path id="path8141" class="st7" d="M44.625456,66.1909626c0-.7079368,1.0914026-2.6134666,3.1621177-3.0500278M49.9113841,66.1909626c-.0530953-.873122.436561-2.2359004,2.1297095-2.3420909"/>
    </g>
    <g id="g8143">
      <path id="path8145" class="st1" d="M36.4753324,65.064101c.997011.5722489,2.1533078.2772752,2.6547629-.5899473.4955557-.8672225.0884922-1.8170377-.9085188-2.3892866s-1.9350272-.3893651-2.430583.4837567c-.5014553.8672226-.3126721,1.9232283.6843389,2.4954772"/>
    </g>
    <g id="g8147">
      <path id="path8149" class="st7" d="M36.4753324,65.064101c.997011.5722489,2.1533078.2772752,2.6547629-.5899473.4955557-.8672225.0884922-1.8170377-.9085188-2.3892866s-1.9350272-.3893651-2.430583.4837567c-.5014553.8672226-.3126721,1.9232283.6843389,2.4954772Z"/>
    </g>
    <g id="g8151">
      <path id="path8153" class="st2" d="M37.2127668,64.005843c.3008731,0,.5427515-.2418784.5427515-.5427515,0-.2949737-.2418784-.536852-.5427515-.536852s-.5427515.2418784-.5427515.536852c0,.3008731.2418784.5427515.5427515.5427515"/>
    </g>
    <g id="g8157">
      <path id="path8159" class="st2" d="M23.3690416,41.3907612s-6.0174625-2.9379376-11.4449783,7.1383628c-.7669322,1.4217727.8023286,4.9260603,1.3096831,4.1414303,2.7196569-4.2476209,5.6634941-7.5159291,7.6280187-7.4097386,2.3420913.1297881,2.5072765-3.8700545,2.5072765-3.8700545"/>
    </g>
    <g id="g8161">
      <path id="path8163" class="st4" d="M23.3690416,41.3907612s-6.0174625-2.9379376-11.4449783,7.1383628c-.7669322,1.4217727.8023286,4.9260603,1.3096831,4.1414303,2.7196569-4.2476209,5.6634941-7.5159291,7.6280187-7.4097386,2.3420913.1297881,2.5072765-3.8700545,2.5072765-3.8700545Z"/>
    </g>
    <g id="g8165">
      <path id="path8167" class="st2" d="M20.4257871,41.1181782c-.873122,1.7462441-.2536774,9.362464.6548415,10.4656657l1.6341541-.5427516s-.6548415-5.7814838.6548415-9.1618817c.5604498-1.4512708-2.9438372-.7610324-2.9438372-.7610324"/>
    </g>
    <g id="g8169">
      <path id="path8171" class="st4" d="M20.4257871,41.1181782c-.873122,1.7462441-.2536774,9.362464.6548415,10.4656657l1.6341541-.5427516s-.6548415-5.7814838.6548415-9.1618817c.5604498-1.4512708-2.9438372-.7610324-2.9438372-.7610324Z"/>
    </g>
    <g id="g8173">
      <path id="path8175" class="st4" d="M17.3734285,42.1541279c.1946826-.7374341-1.2506883,4.0647371.1061905,5.0145524"/>
    </g>
    <g id="g8177">
      <path id="path8179" class="st6" d="M14.0484935,45.2608784c-.548651,2.2712971-.1061905,4.9378591.6548415,5.2328329"/>
    </g>
    <g id="g8181">
      <path id="path8183" class="st2" d="M26.80254,47.3319843l-8.8551095,6.5425156,5.5868013,2.2889957,3.2683083-8.8315112Z"/>
    </g>
    <g id="g8185">
      <path id="path8187" class="st4" d="M26.80254,47.3319843l-8.8551095,6.5425156,5.5868013,2.2889957,3.2683083-8.8315112Z"/>
    </g>
    <g id="g8189">
      <path id="path8191" class="st0" d="M44.7918111,17.3291157c.1592858.6784394,1.7934398,1.769842,1.7934398,1.769842,1.4217732-2.7255567,3.7284671-2.3361915,5.4511135-3.763864,1.9114293-1.5751595,1.0383073-3.7048693.2772748-4.3007161-.6194448-.4896559-1.2034925-1.0501061-3.9939433-1.0442063-2.2241013.005899-5.2210337-.8141274-2.8199481-3.6458746,0,0-.985212-.1651852-2.0707151,1.3096831,0,0-.6548415-.3834654,0-1.2565874,0,0-1.5810589,1.1444978-2.4541809,2.5603715-.2713758.4424608.5073548-1.0855032.5722489-1.5751591.2418785-1.9114286-3.1149222-3.9703446-5.3685208,0-1.5810589,2.7786516-5.3980177,2.5072758-4.0352398-.9852123,0,0-2.1238111.1651852-2.8907419,1.6931485-.7610317,1.5220642-.1238884.0058997-.5427516-.873122,0,0-.1061899,1.362778-.7079361,1.0914022,0,0,0-.2772755-.1651859-.7669315,0,0-.3775656.6548412-.7079361.926217-.9203172.7669315-4.3479117-.837725-5.3390231,1.1444978-.5486506,1.0914022-2.7255574,2.1828051-3.7107683,1.2565881,0,0,.8731206,2.6134664,2.5072772,2.8317472,0,0-.7079361.8023284-1.4689693.7079368-.4365603-.0530953,1.728547,1.4276724,3.1621177.873122,0,0,.0530956,1.2565878.4896559,2.1297098,0-.0058995-.1651859-.8200268.3244714-1.2034925.0825923-.0589948.5309521-.2890742.5604501-.0058995.0412961.4424605.4306613.8613231.4306613.8613231.1002908-.3067726.3067729-.6017463.3067729-.6017463.8318259.1828837,2.8435453,1.0324078,3.7166688,1.7639425.7610317.6371431,2.0766146,1.097302,2.8376463,1.297884.6548419.1769842-.1651859.7669315-.1651859.7669315,1.0914022-.5899473,1.4630688-.460159,1.7462441-.4306616,0,0,.4365617.8200268-.6017463,1.2034925,0,0,1.1444978.2713758,2.5603715-.2772752,1.4217727-.5427516,3.763864.0589947,5.8876744-.2713758.6253442-.0943914,2.5603713-1.2919845,2.9438372-1.958625.383464-.6607408,1.4748665-1.2270903,1.4748665-1.2270903"/>
    </g>
    <g id="g8193">
      <path id="path8195" class="st4" d="M44.7918111,17.3291157c.1592858.6784394,1.7934398,1.769842,1.7934398,1.769842,1.4217732-2.7255567,3.7284671-2.3361915,5.4511135-3.763864,1.9114293-1.5751595,1.0383073-3.7048693.2772748-4.3007161-.6194448-.4896559-1.2034925-1.0501061-3.9939433-1.0442063-2.2241013.005899-5.2210337-.8141274-2.8199481-3.6458746,0,0-.985212-.1651852-2.0707151,1.3096831,0,0-.6548415-.3834654,0-1.2565874,0,0-1.5810589,1.1444978-2.4541809,2.5603715-.2713758.4424608.5073548-1.0855032.5722489-1.5751591.2418785-1.9114286-3.1149222-3.9703446-5.3685208,0-1.5810589,2.7786516-5.3980177,2.5072758-4.0352398-.9852123,0,0-2.1238111.1651852-2.8907419,1.6931485-.7610317,1.5220642-.1238884.0058997-.5427516-.873122,0,0-.1061899,1.362778-.7079361,1.0914022,0,0,0-.2772755-.1651859-.7669315,0,0-.3775656.6548412-.7079361.926217-.9203172.7669315-4.3479117-.837725-5.3390231,1.1444978-.5486506,1.0914022-2.7255574,2.1828051-3.7107683,1.2565881,0,0,.8731206,2.6134664,2.5072772,2.8317472,0,0-.7079361.8023284-1.4689693.7079368-.4365603-.0530953,1.728547,1.4276724,3.1621177.873122,0,0,.0530956,1.2565878.4896559,2.1297098,0-.0058995-.1651859-.8200268.3244714-1.2034925.0825923-.0589948.5309521-.2890742.5604501-.0058995.0412961.4424605.4306613.8613231.4306613.8613231.1002908-.3067726.3067729-.6017463.3067729-.6017463.8318259.1828837,2.8435453,1.0324078,3.7166688,1.7639425.7610317.6371431,2.0766146,1.097302,2.8376463,1.297884.6548419.1769842-.1651859.7669315-.1651859.7669315,1.0914022-.5899473,1.4630688-.460159,1.7462441-.4306616,0,0,.4365617.8200268-.6017463,1.2034925,0,0,1.1444978.2713758,2.5603715-.2772752,1.4217727-.5427516,3.763864.0589947,5.8876744-.2713758.6253442-.0943914,2.5603713-1.2919845,2.9438372-1.958625.383464-.6607408,1.4748665-1.2270903,1.4748665-1.2270903Z"/>
    </g>
    <g id="g8197">
      <path id="path8199" class="st0" d="M86.594927,35.9950703c1.3096831,0,4.9083618.5427515,5.0145524-3.8169592v-11.6632588c-.2182805-3.7048693-3.2683083-3.4865877-5.0145524-3.4865877v-3.7048693h23.6568888c3.0500288,0,4.2476223,2.3951855,4.2476223,5.0145516v6.866987c-.0000028,3.0500274-1.085506,4.6841819-4.2476223,4.6841819h-9.3742628s-.1120903,1.0914026,0,2.8376466c.2005802,3.2624084,2.7963488,3.2683079,4.6841798,3.2683079v3.2683083h-18.9668058v-3.2683083ZM105.6738231,24.8745634v-5.8876737c-.0589947-.9911128-.5132535-1.4807687-1.4571698-1.6341552h-3.3391017v9.3742628l3.3155041-.0058997c1.2329905-.171085,1.4807673-.6843392,1.4807673-1.8465349"/>
    </g>
    <g id="g8201">
      <path id="path8203" class="st10" d="M86.594927,35.9950703c1.3096831,0,4.9083618.5427515,5.0145524-3.8169592v-11.6632588c-.2182805-3.7048693-3.2683083-3.4865877-5.0145524-3.4865877v-3.7048693h23.6568888c3.0500288,0,4.2476223,2.3951855,4.2476223,5.0145516v6.866987c-.0000028,3.0500274-1.085506,4.6841819-4.2476223,4.6841819h-9.3742628s-.1120903,1.0914026,0,2.8376466c.2005802,3.2624084,2.7963488,3.2683079,4.6841798,3.2683079v3.2683083h-18.9668058v-3.2683083ZM105.6738231,24.8745634v-5.8876737c-.0589947-.9911128-.5132535-1.4807687-1.4571698-1.6341552h-3.3391017v9.3742628l3.3155041-.0058997c1.2329891-.1710836,1.4807673-.6843378,1.4807673-1.8465342Z"/>
    </g>
    <g id="g8205">
      <path id="path8207" class="st0" d="M133.2508718,35.9950703v3.2683083h-16.45953v-3.2683083c2.1769054,0,3.9231494.1061905,4.902462-3.3803982.9852116-3.4865888,6.1059546-19.2912769,6.1059546-19.2912769h13.733974l5.7814838,19.7278389c.8672216,2.6193651,2.8317472,2.9438361,5.2328318,2.9438361v3.2683083h-17.8813026v-3.2683083c1.6341541,0,5.0145524.324471,4.1414303-2.5072762l-1.3037837-3.3803982h-6.1059546l-1.4158736,3.3803982c-1.2034929,2.5072762,2.0707149,2.5072762,3.2683079,2.5072762M132.0532788,27.2756486h4.6841818l-2.1769057-8.3949502-2.5072761,8.3949502Z"/>
    </g>
    <g id="g8209">
      <path id="path8211" class="st10" d="M133.2508718,35.9950703v3.2683083h-16.45953v-3.2683083c2.1769054,0,3.9231494.1061905,4.902462-3.3803982.9852116-3.4865888,6.1059546-19.2912769,6.1059546-19.2912769h13.733974l5.7814838,19.7278389c.8672216,2.6193651,2.8317472,2.9438361,5.2328318,2.9438361v3.2683083h-17.8813026v-3.2683083c1.6341541,0,5.0145524.324471,4.1414303-2.5072762l-1.3037837-3.3803982h-6.1059546l-1.4158736,3.3803982c-1.2034929,2.5072762,2.0707149,2.5072762,3.2683079,2.5072762ZM132.0532788,27.2756486h4.6841818l-2.1769057-8.3949502-2.5072761,8.3949502Z"/>
    </g>
    <g id="g8213">
      <path id="path8215" class="st0" d="M156.5791646,13.3211201v3.7048693c2.0707152,0,4.7962718-.1061906,4.7962718,3.8169596v11.2266968c0,4.6900816-4.7962718,3.9231494-4.7962718,3.9231494v3.2742066h17.0081806v-3.274208c-2.1828044,0-4.6900816.3303705-4.6900816-3.9231494v-4.2476209l10.5718563,11.4449783h12.6484722v-3.274208c-1.3096838,0-4.6900816.6548419-4.6900816-3.1562187v-13.1912224c0-3.4924882,2.1828044-2.7255567,4.4718001-2.7255567v-3.5986787h-16.5716203v3.5986787c1.6341538,0,4.3597112-.6548415,4.3597112,2.7255567v5.993865l-11.4449783-12.3180976h-11.6632585Z"/>
    </g>
    <g id="g8217">
      <path id="path8219" class="st10" d="M156.5791646,13.3211201v3.7048693c2.0707152,0,4.7962718-.1061906,4.7962718,3.8169596v11.2266968c0,4.6900816-4.7962718,3.9231494-4.7962718,3.9231494v3.2742066h17.0081806v-3.274208c-2.1828044,0-4.6900816.3303705-4.6900816-3.9231494v-4.2476209l10.5718563,11.4449783h12.6484722v-3.274208c-1.3096838,0-4.6900816.6548419-4.6900816-3.1562187v-13.1912224c0-3.4924882,2.1828044-2.7255567,4.4718001-2.7255567v-3.5986787h-16.5716203v3.5986787c1.6341538,0,4.3597112-.6548415,4.3597112,2.7255567v5.993865l-11.4449783-12.3180976h-11.6632585Z"/>
    </g>
    <g id="g8221">
      <path id="path8223" class="st0" d="M198.5480062,13.3211201v3.5986787c1.4158735,0,4.7962718-.436561,4.7962718,2.7255567v12.4242902c0,4.6900816-3.2683083,3.9231494-5.0145524,3.9231494v3.2742066h19.1850877v-3.274208c-2.3951855,0-4.6841826.4365617-4.6841826-3.9231494v-12.4242902c0-2.7255567,3.2683076-2.7255567,4.465901-2.7255567v-3.5986773h-18.7485256Z"/>
    </g>
    <g id="g8225">
      <path id="path8227" class="st10" d="M198.5480062,13.3211201v3.5986787c1.4158735,0,4.7962718-.436561,4.7962718,2.7255567v12.4242902c0,4.6900816-3.2683083,3.9231494-5.0145524,3.9231494v3.2742066h19.1850877v-3.274208c-2.3951855,0-4.6841826.4365617-4.6841826-3.9231494v-12.4242902c0-2.7255567,3.2683076-2.7255567,4.465901-2.7255567v-3.5986773h-18.7485256Z"/>
    </g>
    <g id="g8229">
      <path id="path8231" class="st0" d="M223.1487905,13.3211201v3.7048693c2.0707152,0,4.7962718-.1061906,4.7962718,3.8169596v11.2266968c0,4.6900816-4.7962718,3.9231494-4.7962718,3.9231494v3.2742066h17.0081806v-3.274208c-2.1828044,0-4.6900816.3303705-4.6900816-3.9231494v-4.2476209l10.5718563,11.4449783h12.6484722v-3.274208c-1.3096838,0-4.6900816.6548419-4.6900816-3.1562187v-13.1912224c0-3.4924882,2.1828044-2.7255567,4.4718001-2.7255567v-3.5986787h-16.5716203v3.5986787c1.6341538,0,4.3597112-.6548415,4.3597112,2.7255567v5.993865l-11.4449783-12.3180976h-11.6632585Z"/>
    </g>
    <g id="g8233">
      <path id="path8235" class="st10" d="M223.1487905,13.3211201v3.7048693c2.0707152,0,4.7962718-.1061906,4.7962718,3.8169596v11.2266968c0,4.6900816-4.7962718,3.9231494-4.7962718,3.9231494v3.2742066h17.0081806v-3.274208c-2.1828044,0-4.6900816.3303705-4.6900816-3.9231494v-4.2476209l10.5718563,11.4449783h12.6484722v-3.274208c-1.3096838,0-4.6900816.6548419-4.6900816-3.1562187v-13.1912224c0-3.4924882,2.1828044-2.7255567,4.4718001-2.7255567v-3.5986787h-16.5716203v3.5986787c1.6341538,0,4.3597112-.6548415,4.3597112,2.7255567v5.993865l-11.4449783-12.3180976h-11.6632585Z"/>
    </g>
    <g id="g8237">
      <path id="path8239" class="st0" d="M265.1176473,13.3211201v3.5986787c1.4158735,0,4.7962718-.436561,4.7962718,2.7255567v12.4242902c0,4.6900816-3.2683083,3.9231494-5.0145524,3.9231494v3.2742066h19.1850877v-3.274208c-2.3951855,0-4.6841826.4365617-4.6841826-3.9231494v-12.4242902c0-2.7255567,3.2683076-2.7255567,4.465901-2.7255567v-3.5986773h-18.7485256Z"/>
    </g>
    <g id="g8241">
      <path id="path8243" class="st10" d="M265.1176473,13.3211201v3.5986787c1.4158735,0,4.7962718-.436561,4.7962718,2.7255567v12.4242902c0,4.6900816-3.2683083,3.9231494-5.0145524,3.9231494v3.2742066h19.1850877v-3.274208c-2.3951855,0-4.6841826.4365617-4.6841826-3.9231494v-12.4242902c0-2.7255567,3.2683076-2.7255567,4.465901-2.7255567v-3.5986773h-18.7485256Z"/>
    </g>
    <g id="g8245">
      <path id="path8247" class="st4" d="M60.6501561,53.6002339c6.4835209-2.6134666,38.8067351-3.8700545,38.8067351-3.8700545l194.476129-1.9645246-194.0395687-.4306616s-34.7714953-.6017463-39.2432954-3.4924882v9.7577289Z"/>
    </g>
    <path id="path8249" class="st14" d="M34.3804138,30.8742341h-3.2683132v3.5985922h3.2683132v-3.5985922Z"/>
    <path id="path8251" class="st14" d="M40.5926124,30.6560285h-3.3803866v4.0351835h3.3803866v-4.0351835Z"/>
    <path id="path8253" class="st14" d="M37.648727,36.9744492h-4.1414057v3.4866088h4.1414057v-3.4866088Z"/>
    <g id="g8255">
      <path id="path8257" class="st1" d="M31.006508,31.3686054h2.7373555v.4542594h-2.2417998v1.1444978h2.0707152v.4424606h-2.0707152v1.2683866h2.2712971v.4424604h-2.7668528v-3.7520648Z"/>
    </g>
    <g id="g8259">
      <path id="path8261" class="st1" d="M37.7820455,30.9716328h1.6813498c.3303705,0,.5958469.0943916.8023284.2831747.2064815.1887831.3067725.4542594.3067725.7905295,0,.2949736-.088492.548651-.2713758.7669315-.1828836.2182805-.4660584.3244711-.8377251.3244711h-1.1680957v1.5869584l-.5132542-.0000004v-3.7520648ZM39.7524695,31.4966859c-.11209-.0530953-.2654762-.0825926-.4542594-.0825926h-1.0029105v1.2978842h1.0029105c.2241799,0,.4070637-.0530953.548651-.1474869s.2123809-.2654763.2123809-.5132542c0-.2713758-.100291-.4601589-.3067725-.5545505"/>
    </g>
    <g id="g8263">
      <path id="path8265" class="st1" d="M33.873068,36.6917866h.7256352l1.0737041,3.1739165,1.0678046-3.1739165h.7256354v3.7520648h-.4837569v-2.2123024c0-.0766931,0-.2064815.0058994-.3834657s.0058994-.3657674.0058994-.5663494l-1.073704,3.1621176h-.5014553l-1.0737041-3.1621177v.11209c0,.0943915,0,.2359789.0058995.4188626.0058995.1887832.0058995.3303705.0058995.4188627v2.2123024h-.4837568v-3.7520648Z"/>
    </g>
  </g>
</svg>