<?xml version="1.0" encoding="UTF-8"?>
<svg version="1.1" viewBox="0 0 332 278" xmlns="http://www.w3.org/2000/svg">
	<path d="m179 240-105-200c-7-14 21-13 24-16v-10l-84-1-4 5s4 8 10 10c9 2 15 4 20 7l126 233h10l9-14 101-210 9-15 6-3 11-2 10-5v-6l-8-3h-62s-2.82714 2.18929-5 4c-6 5 3 8 3 8l20 4 4 4v6z" fill="#000000" fill-rule="evenodd" style="paint-order:normal"/>
	<path d="m109.05469 70.54102c-12.81483-.15326-25.63502 2.1745-32.05469 5.45898-43 22-38 72-22 92 19.61582 24.51978 44 35 82 22 32.33611-11.06235 44.60148-74.18047 3-112-5.5-5-18.13048-7.30573-30.94531-7.45898zm-17.83985 8.80859c16.8086-.51416 35.59766 12.58789 47.78516 29.65039 15 21 22 61-4 75s-56-6-66-31-8-62 11-71c3.5625-1.6875 7.33594-2.53174 11.21484-2.65039z"/>
	<path d="m282 132h7l15-43h-14l-1 2s-10.03001-6.62209-15-10c-25-16.99151-60-13-79 13-10.50495 14.37519-21 44-6 74 4.47214 8.94427 24.29118 21.78735 35 25 50 15 55-24 55-24l-6-4s-15 22-34 22c-23 0-40.14286-22-39-38l1-14 8-25c5.44-17 33.56701-36.11052 52-28 25 11 21 50 21 50z"/>
</svg>