<?xml version="1.0" encoding="UTF-8"?>
<svg xmlns="http://www.w3.org/2000/svg" version="1.1" viewBox="0 0 775.5 424.1">
  <defs>
    <style>
      .cls-1 {
        fill: #b4ccb9;
      }

      .cls-2 {
        fill: none;
        stroke: #000;
        stroke-width: 3px;
      }

      .cls-3, .cls-4 {
        fill: #f9ebb2;
      }

      .cls-5 {
        fill: #394240;
      }

      .cls-4 {
        stroke: #f9ebb2;
        stroke-miterlimit: 10;
      }

      .cls-6 {
        fill: #45aab8;
      }

      .cls-7 {
        opacity: .3;
      }

      .cls-7, .cls-8 {
        isolation: isolate;
      }

      .cls-8 {
        opacity: .2;
      }

      .cls-9 {
        fill: #506c7f;
      }

      .cls-10 {
        fill: #f76d57;
      }
    </style>
  </defs>
  <!-- Generator: Adobe Illustrator 29.0.0, SVG Export Plug-In . SVG Version: 1.2.0 Build 15)  -->
  <g>
    <g id="Layer_1">
      <g id="Layer_1-2" data-name="Layer_1">
        <g id="_x36_9429c1b">
          <path class="cls-6" d="M373.3,132.8s77.4,6.1,77.4,78-76.9,79.1-76.9,79.1c0,0-77.8-3.9-77.8-78.6s77.3-78.5,77.3-78.5h0Z"/>
          <path class="cls-8" d="M373.3,132.8s44,23.8,42.6,78.6c-1.4,54.7-40.1,78.6-40.1,78.6,0,0,76.2-9.2,76.2-76.1s-65.1-82.9-78.7-81h0v-.1Z"/>
          <path id="_x30_2892d89" class="cls-5" d="M373.3,131.3c-44.2,0-80,35.8-80,80s35.8,80,80,80,80-35.8,80-80-35.8-80-80-80h0ZM418.3,208.8c-.4-14-3.5-27.2-9-39.2,6.6-2.6,12.9-5.8,18.8-9.6,12.1,12.9,19.6,29.9,20.3,48.8h-30.1,0ZM376.6,286.2h-.8v-29.9c8.3.2,16.4,1.5,24,3.7-6,10.1-13.9,19-23.2,26.1h0v.1ZM404.7,261.7c5.7,2,11.1,4.5,16.3,7.5-10,8.2-22.1,13.9-35.5,16.1,7.5-6.8,14-14.8,19.1-23.6h.1ZM346.8,260.1c7.6-2.2,15.7-3.5,24-3.7v29.9h-.8c-9.2-7.2-17.1-16.1-23.2-26.1h0v-.1ZM361.1,285.3c-13.3-2.2-25.5-7.9-35.4-16.1,5.1-3,10.6-5.5,16.3-7.5,5.2,8.8,11.6,16.8,19.1,23.6h0ZM298.4,208.8c.6-18.9,8.2-35.9,20.2-48.8,5.9,3.8,12.1,7.1,18.8,9.6-5.5,12-8.7,25.2-9,39.2h-30ZM402.2,166.8c-8.4,2.7-17.2,4.2-26.4,4.4v-34.8h.8c10.5,8.2,19.3,18.6,25.6,30.4h0ZM385.6,137.3c14.9,2.4,28.2,9.2,38.8,19.1-5.4,3.5-11.2,6.4-17.4,8.8-5.5-10.5-12.8-19.9-21.4-27.8h0v-.1ZM370.8,136.4v34.8c-9.2-.2-18.1-1.7-26.4-4.4,6.3-11.9,15.1-22.2,25.6-30.4h.8ZM339.6,165.1c-6.1-2.3-11.9-5.3-17.4-8.8,10.6-9.8,23.9-16.6,38.8-19.1-8.7,7.9-16,17.3-21.4,27.8h0v.1ZM342.1,171.3c9.1,3,18.7,4.7,28.7,4.9v32.6h-37.4c.4-13.4,3.4-26,8.8-37.5h-.1ZM370.8,213.8v37.6c-9.2.2-18.1,1.7-26.5,4.2-6.6-12.5-10.5-26.7-10.9-41.8h37.4ZM375.8,251.4v-37.6h37.4c-.4,15.1-4.2,29.3-10.9,41.8-8.4-2.6-17.3-4-26.5-4.2h0ZM375.8,208.8v-32.6c10-.2,19.6-2,28.7-4.9,5.3,11.4,8.4,24.1,8.8,37.5h-37.5ZM298.4,213.8h30c.4,15.6,4.4,30.4,11.1,43.4-6.2,2.2-12.2,5.1-17.8,8.5-13.9-13.1-22.7-31.5-23.4-51.9h.1ZM424.9,265.7c-5.6-3.4-11.5-6.2-17.8-8.5,6.8-13.1,10.7-27.8,11.1-43.4h30c-.7,20.4-9.5,38.8-23.4,51.9h.1Z"/>
        </g>
        <g id="_x34_145918b">
          <g id="_x38_3b647ac">
            <path id="_x30_520a1ab" class="cls-9" d="M2.8,72.8v10.5c0,2.9,1.7,5.2,3.8,5.2h106.8c2.1,0,3.8-2.3,3.8-5.2v-10.5H2.8Z"/>
            <path id="_x37_2b77286" class="cls-9" d="M66.5,87.5h-13.2v23.8h13.2v-23.8Z"/>
            <path id="_x33_71c6989" class="cls-9" d="M84.4,110.4h-48.8c-2.2,0-4.1,3.6-4.1,8h57c0-4.4-1.8-8-4.1-8h0Z"/>
          </g>
          <path id="_x34_81cd9a1" class="cls-1" d="M1.7,6.2v66.6h116.5V6.2c0-2.2-1.7-3.9-3.9-3.9H5.6c-2.1,0-3.9,1.8-3.9,3.9Z"/>
          <path id="_x34_f9dfb66" class="cls-5" d="M60,84.4c2.1,0,3.8-1.7,3.8-3.8s-1.7-3.8-3.8-3.8-3.8,1.7-3.8,3.8,1.7,3.8,3.8,3.8Z"/>
          <path id="_x31_fcc2b86" class="cls-7" d="M67.3,87.3h-14.5v24.2h14.5v-24.2Z"/>
          <path id="f6bf949c" class="cls-5" d="M112.5,0H7.5C3.4,0,0,3.3,0,7.5v75c0,4.2,3.4,7.5,7.5,7.5h45v18.8h-15c-4.1,0-7.5,3.4-7.5,7.5v1.9c0,1,.8,1.9,1.9,1.9h56.3c1,0,1.9-.8,1.9-1.9v-1.9c0-4.1-3.4-7.5-7.5-7.5h-15v-18.8h45c4.1,0,7.5-3.3,7.5-7.5V7.5c0-4.2-3.4-7.5-7.5-7.5h-.1ZM82.5,112.5c2.1,0,3.8,1.7,3.8,3.8h-52.5c0-2.1,1.7-3.8,3.8-3.8h45-.1ZM63.7,89.9v18.8h-7.5v-18.8M116.3,82.5c0,2.1-1.7,3.8-3.8,3.8H7.5c-2.1,0-3.8-1.7-3.8-3.8v-7.5h112.5v7.5h.1ZM116.3,71.3H3.7V7.5c0-2.1,1.7-3.8,3.8-3.8h105c2.1,0,3.8,1.7,3.8,3.8v63.8Z"/>
        </g>
        <g id="_x30_0197322">
          <path id="_x34_915808c" class="cls-6" d="M103.4,340H16.6v63.1h86.8v-63.1h0Z"/>
          <g id="f6eca631">
            <path id="dbfac728" class="cls-4" d="M54.4,410.9v1.9h11.2v-1.9c0-1,.8-1.9,1.9-1.9h41.2v-71.2c0-2.1-1.7-3.8-3.8-3.8H15c-2.1,0-3.8,1.7-3.8,3.8v71.2h41.2c1,0,1.9.8,1.9,1.9h.1ZM15,403.4v-63.8c0-1,.8-1.9,1.9-1.9h86.3c1,0,1.9.8,1.9,1.9v63.8c0,1-.8,1.9-1.9,1.9H16.9c-1,0-1.9-.8-1.9-1.9Z"/>
            <path id="_x36_7fdc9de" class="cls-3" d="M69.4,412.8v1.9c0,1-.8,1.9-1.9,1.9h-15c-1,0-1.9-.8-1.9-1.9v-1.9H3.7v3.8c0,2.1,1.7,3.8,3.8,3.8h105c2.1,0,3.8-1.7,3.8-3.8v-3.8h-46.9Z"/>
          </g>
          <path id="_x33_3848d1a" class="cls-5" d="M118.1,409.1h-5.6v-71.2c0-4.1-3.4-7.5-7.5-7.5H15c-4.2,0-7.5,3.4-7.5,7.5v71.2H1.9c-1,0-1.9.8-1.9,1.9v5.6c0,4.1,3.4,7.5,7.5,7.5h105c4.1,0,7.5-3.4,7.5-7.5v-5.6c0-1-.8-1.9-1.9-1.9h0ZM11.3,337.8c0-2.1,1.7-3.8,3.8-3.8h90c2.1,0,3.8,1.7,3.8,3.8v71.2h-41.2c-1,0-1.9.8-1.9,1.9v1.9h-11.2v-1.9c0-1-.8-1.9-1.9-1.9H11.5v-71.2h-.2ZM116.3,416.6c0,2.1-1.7,3.8-3.8,3.8H7.5c-2.1,0-3.8-1.7-3.8-3.8v-3.8h46.9v1.9c0,1,.8,1.9,1.9,1.9h15c1,0,1.9-.8,1.9-1.9v-1.9h46.9v3.8h0Z"/>
          <path id="_x38_8bf5654" class="cls-5" d="M105,403.4v-63.8c0-1-.8-1.9-1.9-1.9H16.9c-1,0-1.9.8-1.9,1.9v63.8c0,1,.8,1.9,1.9,1.9h86.3c1,0,1.9-.8,1.9-1.9h-.1ZM101.3,401.6H18.7v-60h82.5v60h.1Z"/>
        </g>
        <g id="e8081a83">
          <path id="ef0431b6" class="cls-9" d="M89.1,189.3H30.9v65.9h58.2v-65.9h0Z"/>
          <g id="_x31_5a6d3ab">
            <path id="_x30_ea16030" class="cls-3" d="M30.5,181.1v8h58.9v-8c0-2.2-1.5-4-3.3-4h-52.3c-1.8,0-3.3,1.8-3.3,4Z"/>
            <path id="_x39_5be792c" class="cls-3" d="M89.4,270.1v-14.8H30.5v14.8c0,2,1.5,3.7,3.3,3.7h52.3c1.8,0,3.3-1.7,3.3-3.7Z"/>
          </g>
          <path id="_x36_516c903" class="cls-5" d="M61.6,181.6h-9.4c-.9,0-1.6.7-1.6,1.6s.7,1.6,1.6,1.6h9.4c.9,0,1.6-.7,1.6-1.6s-.7-1.6-1.6-1.6Z"/>
          <path id="_x36_77d4a3a" class="cls-5" d="M67.8,184.7c.9,0,1.6-.7,1.6-1.6s-.7-1.6-1.6-1.6-1.6.7-1.6,1.6.7,1.6,1.6,1.6Z"/>
          <path id="_x39_f333b2f" class="cls-1" d="M60,267.4c1.6,0,2.8-1.3,2.8-2.8s-1.3-2.8-2.8-2.8-2.8,1.3-2.8,2.8,1.3,2.8,2.8,2.8Z"/>
          <path id="_x31_a6c2213" class="cls-5" d="M60,269.3c2.6,0,4.7-2.1,4.7-4.7s-2.1-4.7-4.7-4.7-4.7,2.1-4.7,4.7,2.1,4.7,4.7,4.7ZM60,263c.9,0,1.6.7,1.6,1.6s-.7,1.6-1.6,1.6-1.6-.7-1.6-1.6.7-1.6,1.6-1.6Z"/>
          <path id="_x37_1afaccd" class="cls-5" d="M85.1,175.3h-50.1c-3.5,0-6.3,2.8-6.3,6.3v87.7c0,3.5,2.8,6.3,6.3,6.3h50.1c3.5,0,6.3-2.8,6.3-6.3v-87.7c0-3.5-2.8-6.3-6.3-6.3h0ZM88.2,269.3c0,1.7-1.4,3.1-3.1,3.1h-50.1c-1.7,0-3.1-1.4-3.1-3.1v-12.5h56.4v12.5h-.1ZM88.2,253.6H31.8v-62.6h56.4v62.6ZM88.2,187.8H31.8v-6.3c0-1.7,1.4-3.1,3.1-3.1h50.1c1.7,0,3.1,1.4,3.1,3.1v6.3h.1Z"/>
        </g>
        <g id="_x30_7c3dad7">
          <path id="df7dcef5" class="cls-1" d="M772,129h-42.5l-3.1,3.5v71.2c0,1.5,1.2,2.7,2.7,2.7h42.7c1.5,0,2.7-1.2,2.7-2.7v-71.4l-2.4-3.3h-.1Z"/>
          <path id="_x32_20261b4" class="cls-8" d="M770.3,128.1h-40.2l-4.2,3.8v42.2h48.8v-42.6l-4.5-3.3h.1v-.1Z"/>
          <path id="_x39_048bc5d" class="cls-6" d="M740.3,199.4c1.6,0,2.9-1.3,2.9-2.9s-1.3-2.9-2.9-2.9-2.9,1.3-2.9,2.9,1.3,2.9,2.9,2.9Z"/>
          <path id="f139cbe4" class="cls-10" d="M750.4,198.9c1.3,0,2.3-1,2.3-2.3s-1-2.3-2.3-2.3-2.3,1-2.3,2.3,1,2.3,2.3,2.3Z"/>
          <path id="_x39_8285738" class="cls-3" d="M760.5,199.3c1.5,0,2.7-1.2,2.7-2.7s-1.2-2.7-2.7-2.7-2.7,1.2-2.7,2.7,1.2,2.7,2.7,2.7Z"/>
          <g id="aad97dfc">
            <path id="_x32_0971e9d" class="cls-5" d="M770.5,127.2h-40.3c-2.8,0-5,2.3-5,5v70.6c0,2.8,2.3,5,5,5h40.3c2.8,0,5-2.3,5-5v-70.6c0-2.8-2.3-5-5-5h0ZM773.1,202.9c0,1.4-1.1,2.5-2.5,2.5h-40.3c-1.4,0-2.5-1.1-2.5-2.5v-27.7h45.4v27.7h-.1ZM773.1,172.6h-45.4v-12.6h45.4v12.6ZM773.1,157.5h-45.4v-12.6h45.4v12.6ZM773.1,142.3h-45.4v-10.1c0-1.4,1.1-2.5,2.5-2.5h40.3c1.4,0,2.5,1.1,2.5,2.5v10.1h.1Z"/>
            <path id="b44164cc" class="cls-5" d="M764.2,134.8h-27.7c-.7,0-1.3.6-1.3,1.3s.6,1.3,1.3,1.3h27.7c.7,0,1.3-.6,1.3-1.3s-.6-1.3-1.3-1.3Z"/>
            <path id="_x35_518097a" class="cls-5" d="M736.5,152.4h27.7c.7,0,1.3-.6,1.3-1.3s-.6-1.3-1.3-1.3h-27.7c-.7,0-1.3.6-1.3,1.3s.6,1.3,1.3,1.3Z"/>
            <path id="f5a01f00" class="cls-5" d="M736.5,167.6h27.7c.7,0,1.3-.6,1.3-1.3s-.6-1.3-1.3-1.3h-27.7c-.7,0-1.3.6-1.3,1.3s.6,1.3,1.3,1.3Z"/>
            <path id="c32fc328" class="cls-5" d="M750.4,200.3c2.1,0,3.8-1.7,3.8-3.8s-1.7-3.8-3.8-3.8-3.8,1.7-3.8,3.8,1.7,3.8,3.8,3.8ZM750.4,195.3c.7,0,1.3.6,1.3,1.3s-.6,1.3-1.3,1.3-1.3-.6-1.3-1.3.6-1.3,1.3-1.3Z"/>
            <path id="_x37_c87fa71" class="cls-5" d="M760.5,200.3c2.1,0,3.8-1.7,3.8-3.8s-1.7-3.8-3.8-3.8-3.8,1.7-3.8,3.8,1.7,3.8,3.8,3.8ZM760.5,195.3c.7,0,1.3.6,1.3,1.3s-.6,1.3-1.3,1.3-1.3-.6-1.3-1.3.6-1.3,1.3-1.3Z"/>
            <path id="f51499d1" class="cls-5" d="M740.3,200.3c2.1,0,3.8-1.7,3.8-3.8s-1.7-3.8-3.8-3.8-3.8,1.7-3.8,3.8,1.7,3.8,3.8,3.8ZM740.3,195.3c.7,0,1.3.6,1.3,1.3s-.6,1.3-1.3,1.3-1.3-.6-1.3-1.3.6-1.3,1.3-1.3Z"/>
          </g>
        </g>
        <g id="_x30_7c3dad7-2">
          <path id="df7dcef5-2" class="cls-1" d="M736.9,149.7h-50.3l-3.7,4.2v84.2c0,1.8,1.4,3.2,3.2,3.2h50.5c1.7,0,3.2-1.4,3.2-3.2v-84.4l-2.8-3.9h-.1v-.1Z"/>
          <path id="_x32_20261b4-2" class="cls-8" d="M734.9,148.6h-47.5l-5,4.5v49.8h57.7v-50.4l-5.3-3.9h.1Z"/>
          <path id="_x39_048bc5d-2" class="cls-6" d="M699.4,233c1.9,0,3.4-1.5,3.4-3.4s-1.5-3.4-3.4-3.4-3.4,1.5-3.4,3.4,1.5,3.4,3.4,3.4Z"/>
          <path id="f139cbe4-2" class="cls-10" d="M711.3,232.3c1.5,0,2.7-1.2,2.7-2.7s-1.2-2.7-2.7-2.7-2.7,1.2-2.7,2.7,1.2,2.7,2.7,2.7Z"/>
          <path id="_x39_8285738-2" class="cls-3" d="M723.2,232.8c1.8,0,3.2-1.4,3.2-3.2s-1.4-3.2-3.2-3.2-3.2,1.4-3.2,3.2,1.4,3.2,3.2,3.2Z"/>
          <g id="aad97dfc-2">
            <path id="_x32_0971e9d-2" class="cls-5" d="M735.1,147.6h-47.7c-3.3,0-6,2.7-6,6v83.4c0,3.3,2.7,6,6,6h47.7c3.3,0,6-2.7,6-6v-83.4c0-3.3-2.7-6-6-6ZM738.1,237c0,1.6-1.3,3-3,3h-47.7c-1.6,0-3-1.3-3-3v-32.8h53.7v32.8h0ZM738.1,201.3h-53.7v-14.9h53.7v14.9ZM738.1,183.4h-53.7v-14.9h53.7v14.9ZM738.1,165.5h-53.7v-11.9c0-1.6,1.3-3,3-3h47.7c1.7,0,3,1.3,3,3v11.9h0Z"/>
            <path id="b44164cc-2" class="cls-5" d="M727.7,156.5h-32.8c-.8,0-1.5.7-1.5,1.5s.7,1.5,1.5,1.5h32.8c.8,0,1.5-.7,1.5-1.5s-.7-1.5-1.5-1.5h0Z"/>
            <path id="_x35_518097a-2" class="cls-5" d="M694.9,177.4h32.8c.8,0,1.5-.7,1.5-1.5s-.7-1.5-1.5-1.5h-32.8c-.8,0-1.5.7-1.5,1.5s.7,1.5,1.5,1.5Z"/>
            <path id="f5a01f00-2" class="cls-5" d="M694.9,195.3h32.8c.8,0,1.5-.7,1.5-1.5s-.7-1.5-1.5-1.5h-32.8c-.8,0-1.5.7-1.5,1.5s.7,1.5,1.5,1.5Z"/>
            <path id="c32fc328-2" class="cls-5" d="M711.3,234c2.5,0,4.5-2,4.5-4.5s-2-4.5-4.5-4.5-4.5,2-4.5,4.5,2,4.5,4.5,4.5ZM711.3,228.1c.8,0,1.5.7,1.5,1.5s-.7,1.5-1.5,1.5-1.5-.7-1.5-1.5.7-1.5,1.5-1.5Z"/>
            <path id="_x37_c87fa71-2" class="cls-5" d="M723.2,234c2.5,0,4.5-2,4.5-4.5s-2-4.5-4.5-4.5-4.5,2-4.5,4.5,2,4.5,4.5,4.5ZM723.2,228.1c.8,0,1.5.7,1.5,1.5s-.7,1.5-1.5,1.5-1.5-.7-1.5-1.5.7-1.5,1.5-1.5Z"/>
            <path id="f51499d1-2" class="cls-5" d="M699.4,234c2.5,0,4.5-2,4.5-4.5s-2-4.5-4.5-4.5-4.5,2-4.5,4.5,2,4.5,4.5,4.5ZM699.4,228.1c.8,0,1.5.7,1.5,1.5s-.7,1.5-1.5,1.5-1.5-.7-1.5-1.5.7-1.5,1.5-1.5Z"/>
          </g>
        </g>
        <path id="_x32_1eca9ed" class="cls-2" d="M162.8,52.8h211v61M162.8,211.8h115M162.8,369.3h211v-58M478.8,211.8h115"/>
        <g id="_x30_7c3dad7-3">
          <path id="df7dcef5-3" class="cls-1" d="M688.9,166.6h-59.5l-4.4,5v99.7c0,2.1,1.7,3.8,3.7,3.8h59.7c2.1,0,3.7-1.7,3.7-3.8v-100l-3.3-4.7h.1Z"/>
          <path id="_x32_20261b4-3" class="cls-8" d="M686.5,165.3h-56.2l-5.9,5.3v59h68.3v-59.7l-6.3-4.6h.1Z"/>
          <path id="_x39_048bc5d-3" class="cls-6" d="M644.5,265.1c2.2,0,4-1.8,4-4s-1.8-4-4-4-4,1.8-4,4,1.8,4,4,4Z"/>
          <path id="f139cbe4-3" class="cls-10" d="M658.6,264.3c1.8,0,3.2-1.4,3.2-3.2s-1.4-3.2-3.2-3.2-3.2,1.4-3.2,3.2,1.4,3.2,3.2,3.2Z"/>
          <path id="_x39_8285738-3" class="cls-3" d="M672.7,264.9c2.1,0,3.8-1.7,3.8-3.8s-1.7-3.8-3.8-3.8-3.8,1.7-3.8,3.8,1.7,3.8,3.8,3.8Z"/>
          <g id="aad97dfc-3">
            <path id="_x32_0971e9d-3" class="cls-5" d="M686.8,164h-56.5c-3.9,0-7.1,3.2-7.1,7.1v98.8c0,3.9,3.2,7.1,7.1,7.1h56.5c3.9,0,7.1-3.2,7.1-7.1v-98.8c0-3.9-3.2-7.1-7.1-7.1h0ZM690.4,269.9c0,2-1.6,3.5-3.5,3.5h-56.5c-2,0-3.5-1.6-3.5-3.5v-38.8h63.5v38.8ZM690.4,227.6h-63.5v-17.6h63.5v17.6ZM690.4,206.4h-63.5v-17.6h63.5v17.6ZM690.4,185.2h-63.5v-14.1c0-1.9,1.6-3.5,3.5-3.5h56.5c2,0,3.5,1.6,3.5,3.5v14.1Z"/>
            <path id="b44164cc-3" class="cls-5" d="M678,174.6h-38.8c-1,0-1.8.8-1.8,1.8s.8,1.8,1.8,1.8h38.8c1,0,1.8-.8,1.8-1.8s-.8-1.8-1.8-1.8Z"/>
            <path id="_x35_518097a-3" class="cls-5" d="M639.2,199.3h38.8c1,0,1.8-.8,1.8-1.8s-.8-1.8-1.8-1.8h-38.8c-1,0-1.8.8-1.8,1.8s.8,1.8,1.8,1.8Z"/>
            <path id="f5a01f00-3" class="cls-5" d="M639.2,220.5h38.8c1,0,1.8-.8,1.8-1.8s-.8-1.8-1.8-1.8h-38.8c-1,0-1.8.8-1.8,1.8s.8,1.8,1.8,1.8Z"/>
            <path id="c32fc328-3" class="cls-5" d="M658.6,266.4c2.9,0,5.3-2.4,5.3-5.3s-2.4-5.3-5.3-5.3-5.3,2.4-5.3,5.3,2.4,5.3,5.3,5.3ZM658.6,259.3c1,0,1.8.8,1.8,1.8s-.8,1.8-1.8,1.8-1.8-.8-1.8-1.8.8-1.8,1.8-1.8Z"/>
            <path id="_x37_c87fa71-3" class="cls-5" d="M672.7,266.4c2.9,0,5.3-2.4,5.3-5.3s-2.4-5.3-5.3-5.3-5.3,2.4-5.3,5.3,2.4,5.3,5.3,5.3ZM672.7,259.3c1,0,1.8.8,1.8,1.8s-.8,1.8-1.8,1.8-1.8-.8-1.8-1.8.8-1.8,1.8-1.8Z"/>
            <path id="f51499d1-3" class="cls-5" d="M644.5,266.4c2.9,0,5.3-2.4,5.3-5.3s-2.4-5.3-5.3-5.3-5.3,2.4-5.3,5.3,2.4,5.3,5.3,5.3ZM644.5,259.3c1,0,1.8.8,1.8,1.8s-.8,1.8-1.8,1.8-1.8-.8-1.8-1.8.8-1.8,1.8-1.8Z"/>
          </g>
        </g>
      </g>
    </g>
  </g>
</svg>