<?xml version="1.0" encoding="UTF-8"?>
<svg xmlns="http://www.w3.org/2000/svg" version="1.1" xmlns:cc="http://creativecommons.org/ns#" xmlns:dc="http://purl.org/dc/elements/1.1/" xmlns:inkscape="http://www.inkscape.org/namespaces/inkscape" xmlns:rdf="http://www.w3.org/1999/02/22-rdf-syntax-ns#" xmlns:sodipodi="http://sodipodi.sourceforge.net/DTD/sodipodi-0.dtd" xmlns:svg="http://www.w3.org/2000/svg" viewBox="0 0 471.7 316.8">
  <defs>
    <style>
      .st0 {
        fill: #b4ddc6;
      }

      .st1 {
        fill: #96d7db;
      }

      .st2 {
        fill: #fff;
      }

      .st3 {
        fill: #0b291a;
      }

      .st4 {
        fill: #c8e7d3;
      }

      .st5 {
        fill: #1a3b2a;
      }

      .st6 {
        fill: #aff1f5;
      }
    </style>
  </defs>
  <!-- Generator: Adobe Illustrator 29.1.0, SVG Export Plug-In . SVG Version: 2.0.0 Build 28)  -->
  <g>
    <g id="svg3255">
      <g>
        <g>
          <path class="st5" d="M206.4,254.7l-8.5,21.8c-1.6,4.1,1.4,8.6,5.8,8.6h121.7c4.4,0,7.4-4.4,5.8-8.6l-8.5-21.8h-116.3Z"/>
          <g id="rect3263-1">
            <path class="st2" d="M100,251.8c-5.1,0-9.3-4.2-9.3-9.3V13.5c0-5.1,4.2-9.3,9.3-9.3h331.6c5.1,0,9.3,4.2,9.3,9.3v229.1c0,5.1-4.2,9.3-9.3,9.3H100Z"/>
            <path class="st3" d="M431.6,8.5c2.8,0,5,2.2,5,5v229.1c0,2.8-2.2,5-5,5H100c-2.8,0-5-2.2-5-5V13.5c0-2.8,2.2-5,5-5h331.6M431.6,0H100c-7.4,0-13.5,6.1-13.5,13.5v229.1c0,7.4,6.1,13.5,13.5,13.5h331.6c7.4,0,13.5-6.1,13.5-13.5V13.5c0-7.4-6-13.5-13.5-13.5h0Z"/>
          </g>
          <rect id="rect4182-1" class="st1" x="119.6" y="62.4" width="292.5" height="37.5"/>
          <g id="rect4182-11" data-name="rect4182-1">
            <path class="st6" d="M119.6,18.7c0-2.8,2.2-5,5-5h99.2c2.8,0,5,2.2,5,5v35.6c0,2.8-2.2,5-5,5h-99.2c-2.8,0-5-2.2-5-5V18.7Z"/>
          </g>
          <rect id="rect4182-4-51-2-2" class="st4" x="341.8" y="103.7" width="70.3" height="139"/>
          <rect id="rect4182-4-51-2-21" data-name="rect4182-4-51-2-2" class="st0" x="267.7" y="103.7" width="70.3" height="139"/>
          <rect id="rect4182-4-51-2-22" data-name="rect4182-4-51-2-2" class="st4" x="193.7" y="103.7" width="70.3" height="139"/>
          <rect id="rect4182-4-51-2-23" data-name="rect4182-4-51-2-2" class="st0" x="119.6" y="103.7" width="70.3" height="139"/>
        </g>
        <g>
          <g id="rect3263-1-4-9">
            <path class="st2" d="M403.9,295.8c-3.1,0-5.7-2.6-5.7-5.7v-117.3c0-3.1,2.6-5.7,5.7-5.7h61.4c3.1,0,5.7,2.6,5.7,5.7v117.3c0,3.1-2.6,5.7-5.7,5.7h-61.4Z"/>
            <path class="st3" d="M465.3,167.8c2.8,0,5,2.2,5,5v117.3c0,2.8-2.2,5-5,5h-61.4c-2.8,0-5-2.2-5-5v-117.3c0-2.8,2.2-5,5-5h61.4M465.3,166.4h-61.4c-3.5,0-6.4,2.9-6.4,6.4v117.3c0,3.5,2.9,6.4,6.4,6.4h61.4c3.5,0,6.4-2.9,6.4-6.4v-117.3c0-3.6-2.9-6.4-6.4-6.4h0Z"/>
          </g>
          <rect id="rect4182-16" class="st1" x="401.7" y="202.9" width="65.8" height="30.2"/>
          <g id="rect4182-161" data-name="rect4182-16">
            <path class="st6" d="M401.7,178c0-2.8,2.2-5,5-5h22.9c2.8,0,5,2.2,5,5v16.2c0,2.8-2.2,5-5,5h-22.9c-2.8,0-5-2.2-5-5v-16.2Z"/>
          </g>
          <rect id="rect4182-16-8" class="st4" x="401.7" y="236.8" width="65.8" height="51.8"/>
        </g>
        <g>
          <g id="rect3263-1-4">
            <path class="st2" d="M7.8,315.5c-3.5,0-6.4-2.9-6.4-6.4v-162.7c0-3.5,2.9-6.4,6.4-6.4h234.3c3.5,0,6.4,2.9,6.4,6.4v162.7c0,3.5-2.9,6.4-6.4,6.4H7.8Z"/>
            <path class="st3" d="M242.1,141.4c2.8,0,5,2.2,5,5v162.7c0,2.8-2.2,5-5,5H7.8c-2.8,0-5-2.2-5-5v-162.7c0-2.8,2.2-5,5-5h234.3M242.1,138.5H7.8c-4.3,0-7.8,3.5-7.8,7.8v162.7c0,4.3,3.5,7.8,7.8,7.8h234.3c4.3,0,7.8-3.5,7.8-7.8v-162.6c0-4.4-3.5-7.9-7.8-7.9h0Z"/>
          </g>
          <rect id="rect4182" class="st1" x="7.3" y="186.7" width="235.4" height="43.2"/>
          <g id="rect41821" data-name="rect4182">
            <path class="st6" d="M7.3,152.5c0-2.8,2.2-5,5-5h37.7c2.8,0,5,2.2,5,5v26c0,2.8-2.2,5-5,5H12.3c-2.8,0-5-2.2-5-5v-26Z"/>
          </g>
          <rect id="rect4182-4" class="st4" x="7.3" y="234.2" width="75.5" height="75.6"/>
          <rect id="rect4182-4-5" class="st0" x="87.2" y="234.2" width="75.5" height="75.6"/>
          <rect id="rect4182-4-51" class="st4" x="167.2" y="234.2" width="75.5" height="75.6"/>
        </g>
      </g>
    </g>
  </g>
</svg>