<?xml version="1.0" encoding="UTF-8"?>
<svg xmlns="http://www.w3.org/2000/svg" version="1.1" xmlns:cc="http://creativecommons.org/ns#" xmlns:dc="http://purl.org/dc/elements/1.1/" xmlns:rdf="http://www.w3.org/1999/02/22-rdf-syntax-ns#" xmlns:xlink="http://www.w3.org/1999/xlink" viewBox="0 0 512 528.76">
  <defs>
    <style>
      .cls-1 {
        fill: url(#radial-gradient-10);
      }

      .cls-2 {
        fill: url(#linear-gradient-2);
      }

      .cls-3 {
        fill: url(#radial-gradient-9);
      }

      .cls-4 {
        fill: url(#radial-gradient-5);
      }

      .cls-5 {
        fill: url(#radial-gradient);
      }

      .cls-6 {
        fill: url(#radial-gradient-3);
      }

      .cls-7 {
        fill: url(#radial-gradient-8);
      }

      .cls-8 {
        fill: url(#radial-gradient-2);
      }

      .cls-9 {
        fill: url(#radial-gradient-4);
      }

      .cls-10 {
        fill: url(#radial-gradient-6);
      }

      .cls-11 {
        fill: url(#radial-gradient-7);
      }

      .cls-12 {
        fill: url(#linear-gradient);
      }
    </style>
    <linearGradient id="linear-gradient" x1="481.35" y1="316.71" x2="48.04" y2="-101.36" gradientTransform="translate(-13.24 392.95) scale(.98 -.98)" gradientUnits="userSpaceOnUse">
      <stop offset=".05" stop-color="#fff44f"/>
      <stop offset=".11" stop-color="#ffe847"/>
      <stop offset=".23" stop-color="#ffc830"/>
      <stop offset=".37" stop-color="#ff980e"/>
      <stop offset=".4" stop-color="#ff8b16"/>
      <stop offset=".46" stop-color="#ff672a"/>
      <stop offset=".53" stop-color="#ff3647"/>
      <stop offset=".7" stop-color="#e31587"/>
    </linearGradient>
    <radialGradient id="radial-gradient" cx="-7510.64" cy="8863.43" fx="-7510.64" fy="8863.43" r="544.14" gradientTransform="translate(7818.38 8763.39) scale(.98 -.98)" gradientUnits="userSpaceOnUse">
      <stop offset=".13" stop-color="#ffbd4f"/>
      <stop offset=".19" stop-color="#ffac31"/>
      <stop offset=".25" stop-color="#ff9d17"/>
      <stop offset=".28" stop-color="#ff980e"/>
      <stop offset=".4" stop-color="#ff563b"/>
      <stop offset=".47" stop-color="#ff3750"/>
      <stop offset=".71" stop-color="#f5156c"/>
      <stop offset=".78" stop-color="#eb0878"/>
      <stop offset=".86" stop-color="#e50080"/>
    </radialGradient>
    <radialGradient id="radial-gradient-2" cx="-7712.67" cy="8641.2" fx="-7712.67" fy="8641.2" r="544.14" gradientTransform="translate(7818.38 8763.39) scale(.98 -.98)" gradientUnits="userSpaceOnUse">
      <stop offset=".3" stop-color="#960e18"/>
      <stop offset=".35" stop-color="#b11927" stop-opacity=".74"/>
      <stop offset=".43" stop-color="#db293d" stop-opacity=".34"/>
      <stop offset=".5" stop-color="#f5334b" stop-opacity=".09"/>
      <stop offset=".53" stop-color="#ff3750" stop-opacity="0"/>
    </radialGradient>
    <radialGradient id="radial-gradient-3" cx="-7645.33" cy="8984.65" fx="-7645.33" fy="8984.65" r="394.16" gradientTransform="translate(7818.38 8763.39) scale(.98 -.98)" gradientUnits="userSpaceOnUse">
      <stop offset=".13" stop-color="#fff44f"/>
      <stop offset=".25" stop-color="#ffdc3e"/>
      <stop offset=".51" stop-color="#ff9d12"/>
      <stop offset=".53" stop-color="#ff980e"/>
    </radialGradient>
    <radialGradient id="radial-gradient-4" cx="-7773.28" cy="8499.77" fx="-7773.28" fy="8499.77" r="259.07" gradientTransform="translate(7818.38 8763.39) scale(.98 -.98)" gradientUnits="userSpaceOnUse">
      <stop offset=".35" stop-color="#3a8ee6"/>
      <stop offset=".47" stop-color="#5c79f0"/>
      <stop offset=".67" stop-color="#9059ff"/>
      <stop offset="1" stop-color="#c139e6"/>
    </radialGradient>
    <radialGradient id="radial-gradient-5" cx="-7843.57" cy="8592.72" fx="-7843.57" fy="8592.72" r="137.38" gradientTransform="translate(10077.53 8024.31) rotate(-13.59) scale(.98 -1.15)" gradientUnits="userSpaceOnUse">
      <stop offset=".21" stop-color="#9059ff" stop-opacity="0"/>
      <stop offset=".28" stop-color="#8c4ff3" stop-opacity=".06"/>
      <stop offset=".75" stop-color="#7716a8" stop-opacity=".45"/>
      <stop offset=".97" stop-color="#6e008b" stop-opacity=".6"/>
    </radialGradient>
    <radialGradient id="radial-gradient-6" cx="-7719.41" cy="8883.63" fx="-7719.41" fy="8883.63" r="186.41" gradientTransform="translate(7818.38 8763.39) scale(.98 -.98)" gradientUnits="userSpaceOnUse">
      <stop offset="0" stop-color="#ffe226"/>
      <stop offset=".12" stop-color="#ffdb27"/>
      <stop offset=".29" stop-color="#ffc82a"/>
      <stop offset=".5" stop-color="#ffa930"/>
      <stop offset=".73" stop-color="#ff7e37"/>
      <stop offset=".79" stop-color="#ff7139"/>
    </radialGradient>
    <radialGradient id="radial-gradient-7" cx="-7571.25" cy="9004.85" fx="-7571.25" fy="9004.85" r="795.33" gradientTransform="translate(7818.38 8763.39) scale(.98 -.98)" gradientUnits="userSpaceOnUse">
      <stop offset=".11" stop-color="#fff44f"/>
      <stop offset=".46" stop-color="#ff980e"/>
      <stop offset=".62" stop-color="#ff5634"/>
      <stop offset=".72" stop-color="#ff3647"/>
      <stop offset=".9" stop-color="#e31587"/>
    </radialGradient>
    <radialGradient id="radial-gradient-8" cx="-8216" cy="10717.16" fx="-8216" fy="10717.16" r="582.52" gradientTransform="translate(-5706.47 8717.87) rotate(83.98) scale(.98 -.64)" gradientUnits="userSpaceOnUse">
      <stop offset="0" stop-color="#fff44f"/>
      <stop offset=".06" stop-color="#ffe847"/>
      <stop offset=".17" stop-color="#ffc830"/>
      <stop offset=".3" stop-color="#ff980e"/>
      <stop offset=".36" stop-color="#ff8b16"/>
      <stop offset=".46" stop-color="#ff672a"/>
      <stop offset=".57" stop-color="#ff3647"/>
      <stop offset=".74" stop-color="#e31587"/>
    </radialGradient>
    <radialGradient id="radial-gradient-9" cx="-7719.41" cy="8816.29" fx="-7719.41" fy="8816.29" r="496.46" gradientTransform="translate(7818.38 8763.39) scale(.98 -.98)" gradientUnits="userSpaceOnUse">
      <stop offset=".14" stop-color="#fff44f"/>
      <stop offset=".48" stop-color="#ff980e"/>
      <stop offset=".59" stop-color="#ff5634"/>
      <stop offset=".66" stop-color="#ff3647"/>
      <stop offset=".9" stop-color="#e31587"/>
    </radialGradient>
    <radialGradient id="radial-gradient-10" cx="-7591.45" cy="8789.35" fx="-7591.45" fy="8789.35" r="543.4" gradientTransform="translate(7818.38 8763.39) scale(.98 -.98)" gradientUnits="userSpaceOnUse">
      <stop offset=".09" stop-color="#fff44f"/>
      <stop offset=".23" stop-color="#ffe141"/>
      <stop offset=".51" stop-color="#ffaf1e"/>
      <stop offset=".63" stop-color="#ff980e"/>
    </radialGradient>
    <linearGradient id="linear-gradient-2" x1="476.13" y1="318.89" x2="107.49" y2="-49.82" gradientTransform="translate(-13.24 392.95) scale(.98 -.98)" gradientUnits="userSpaceOnUse">
      <stop offset=".17" stop-color="#fff44f" stop-opacity=".8"/>
      <stop offset=".27" stop-color="#fff44f" stop-opacity=".63"/>
      <stop offset=".49" stop-color="#fff44f" stop-opacity=".22"/>
      <stop offset=".6" stop-color="#fff44f" stop-opacity="0"/>
    </linearGradient>
  </defs>
  <!-- Generator: Adobe Illustrator 29.0.0, SVG Export Plug-In . SVG Version: 1.2.0 Build 15)  -->
  <g>
    <g id="Layer_1">
      <g>
        <path class="cls-12" d="M493.44,177.55c-11.14-26.8-33.73-55.73-51.42-64.87,12.61,24.43,21.37,50.66,25.96,77.77l.05.43c-28.98-72.21-78.1-101.38-118.24-164.8-2.03-3.21-4.06-6.42-6.04-9.81-1.13-1.94-2.04-3.68-2.82-5.29-1.66-3.22-2.95-6.63-3.82-10.15,0-.34-.25-.62-.58-.66-.16-.04-.32-.04-.48,0-.03,0-.09.06-.13.07s-.13.07-.19.1l.1-.17c-64.38,37.69-86.23,107.46-88.22,142.38-25.72,1.76-50.31,11.24-70.56,27.19-2.11-1.79-4.32-3.46-6.61-5.01-5.84-20.44-6.09-42.08-.72-62.65-23.64,11.45-44.65,27.69-61.69,47.68h-.12c-10.16-12.88-9.44-55.33-8.86-64.2-3,1.21-5.87,2.73-8.56,4.54-8.97,6.4-17.35,13.58-25.05,21.46-8.77,8.9-16.79,18.51-23.96,28.75v.04-.05c-16.48,23.35-28.16,49.74-34.39,77.64l-.34,1.69c-.48,2.26-2.22,13.55-2.52,16,0,.19-.04.37-.06.56-2.24,11.66-3.63,23.47-4.16,35.33v1.32c.25,141.56,115.21,256.12,256.77,255.87,124.49-.22,230.83-89.86,252.1-212.53.43-3.31.78-6.58,1.16-9.92,5.28-43.63-.44-87.89-16.63-128.76l.03.04ZM198.03,378.19c1.2.58,2.32,1.2,3.55,1.75l.18.11c-1.24-.6-2.49-1.21-3.73-1.86ZM468.03,190.94v-.24l.05.27-.05-.03Z"/>
        <path class="cls-5" d="M493.44,177.55c-11.14-26.8-33.73-55.73-51.42-64.87,12.61,24.43,21.37,50.66,25.96,77.77v.24l.05.27c19.76,56.54,16.9,118.52-7.98,173-29.38,63.03-100.45,127.63-211.75,124.46-120.23-3.41-226.17-92.65-245.94-209.5-3.6-18.43,0-27.77,1.81-42.75-2.47,11.63-3.85,23.48-4.12,35.37v1.32c.25,141.56,115.21,256.12,256.77,255.87,124.49-.22,230.83-89.86,252.1-212.53.43-3.31.78-6.58,1.16-9.92,5.28-43.63-.44-87.89-16.63-128.76l-.03.03Z"/>
        <path class="cls-8" d="M493.44,177.55c-11.14-26.8-33.73-55.73-51.42-64.87,12.61,24.43,21.37,50.66,25.96,77.77v.24l.05.27c19.76,56.54,16.9,118.52-7.98,173-29.38,63.03-100.45,127.63-211.75,124.46-120.23-3.41-226.17-92.65-245.94-209.5-3.6-18.43,0-27.77,1.81-42.75-2.47,11.63-3.85,23.48-4.12,35.37v1.32c.25,141.56,115.21,256.12,256.77,255.87,124.49-.22,230.83-89.86,252.1-212.53.43-3.31.78-6.58,1.16-9.92,5.28-43.63-.44-87.89-16.63-128.76l-.03.03Z"/>
        <path class="cls-6" d="M368.85,207.64c.56.39,1.07.78,1.59,1.17-6.44-11.42-14.45-21.87-23.81-31.05C266.95,98.07,325.76,5.03,335.67.26l.1-.15c-64.38,37.69-86.23,107.46-88.22,142.38,2.99-.21,5.95-.46,9.01-.46,46.5.09,89.37,25.13,112.29,65.58h0Z"/>
        <path class="cls-9" d="M256.69,223.57c-.42,6.37-22.95,28.36-30.82,28.36-72.88,0-84.71,44.09-84.71,44.09,3.23,37.13,29.1,67.72,60.37,83.85,1.43.74,2.88,1.41,4.32,2.06,2.51,1.11,5.02,2.14,7.53,3.08,10.73,3.8,21.97,5.97,33.35,6.43,127.76,5.99,152.5-152.76,60.3-198.85,21.75-2.83,43.77,2.52,61.8,15.01-22.92-40.45-65.79-65.49-112.29-65.58-3.04,0-6.02.25-9.01.46-25.72,1.76-50.31,11.24-70.56,27.19,3.91,3.31,8.32,7.72,17.61,16.88,17.39,17.13,62,34.88,62.1,36.97v.05Z"/>
        <path class="cls-4" d="M256.69,223.57c-.42,6.37-22.95,28.36-30.82,28.36-72.88,0-84.71,44.09-84.71,44.09,3.23,37.13,29.1,67.72,60.37,83.85,1.43.74,2.88,1.41,4.32,2.06,2.51,1.11,5.02,2.14,7.53,3.08,10.73,3.8,21.97,5.97,33.35,6.43,127.76,5.99,152.5-152.76,60.3-198.85,21.75-2.83,43.77,2.52,61.8,15.01-22.92-40.45-65.79-65.49-112.29-65.58-3.04,0-6.02.25-9.01.46-25.72,1.76-50.31,11.24-70.56,27.19,3.91,3.31,8.32,7.72,17.61,16.88,17.39,17.13,62,34.88,62.1,36.97v.05Z"/>
        <path class="cls-10" d="M165.04,161.21c2.08,1.32,3.79,2.47,5.29,3.51-5.84-20.44-6.09-42.08-.72-62.65-23.64,11.45-44.65,27.69-61.69,47.68,1.25-.03,38.43-.7,57.12,11.45Z"/>
        <path class="cls-11" d="M2.31,278.92c19.78,116.85,125.71,206.13,245.94,209.5,111.3,3.15,182.39-61.46,211.75-124.46,24.88-54.48,27.73-116.46,7.98-173v-.24c0-.19-.04-.3,0-.24l.05.43c9.09,59.37-21.1,116.85-68.31,155.8l-.15.33c-91.99,74.93-180.01,45.19-197.8,33.07-1.24-.6-2.49-1.21-3.73-1.86-53.63-25.63-75.79-74.46-71.02-116.39-26.01.38-49.8-14.58-60.71-38.19,28.63-17.54,64.3-18.97,94.24-3.78,30.35,13.78,64.88,15.13,96.22,3.78-.1-2.08-44.7-19.84-62.1-36.97-9.29-9.16-13.7-13.57-17.61-16.88-2.11-1.79-4.32-3.46-6.61-5.01-1.52-1.04-3.23-2.16-5.29-3.51-18.7-12.15-55.87-11.49-57.1-11.45h-.12c-10.16-12.88-9.44-55.33-8.86-64.2-3,1.21-5.87,2.73-8.56,4.54-8.97,6.4-17.35,13.58-25.05,21.46-8.81,8.87-16.85,18.47-24.06,28.68v.04-.05c-16.48,23.35-28.16,49.74-34.39,77.64-.13.52-9.23,40.33-4.74,60.98h.05Z"/>
        <path class="cls-7" d="M346.63,177.75c9.36,9.19,17.37,19.65,23.81,31.08,1.41,1.06,2.72,2.12,3.84,3.15,58.11,53.57,27.66,129.29,25.39,134.64,47.2-38.89,77.37-96.42,68.31-155.8-28.99-72.28-78.17-101.44-118.24-164.86-2.03-3.21-4.06-6.42-6.04-9.81-1.13-1.94-2.04-3.68-2.82-5.29-1.66-3.22-2.95-6.63-3.82-10.15,0-.34-.25-.62-.58-.66-.16-.04-.32-.04-.48,0-.03,0-.09.06-.13.07s-.13.07-.19.1c-9.91,4.7-68.71,97.81,10.98,177.43l-.03.11Z"/>
        <path class="cls-3" d="M374.27,212c-1.12-1.03-2.43-2.08-3.84-3.15-.52-.39-1.04-.78-1.59-1.17-18.03-12.49-40.05-17.83-61.8-15.01,92.19,46.09,67.45,204.81-60.3,198.85-11.38-.47-22.62-2.64-33.35-6.43-2.51-.94-5.02-1.97-7.53-3.08-1.45-.66-2.9-1.32-4.32-2.06l.18.11c17.82,12.16,105.81,41.87,197.8-33.07l.15-.33c2.29-5.36,32.74-81.08-25.39-134.64v-.03Z"/>
        <path class="cls-1" d="M141.16,295.99s11.83-44.09,84.71-44.09c7.88,0,30.42-21.99,30.82-28.36-31.34,11.35-65.87,9.99-96.22-3.78-29.94-15.18-65.61-13.75-94.24,3.78,10.92,23.61,34.71,38.57,60.71,38.19-4.75,41.91,17.41,90.73,71.02,116.39,1.2.58,2.32,1.2,3.55,1.75-31.3-16.17-57.14-46.75-60.37-83.85v-.02Z"/>
        <path class="cls-2" d="M493.44,177.55c-11.14-26.8-33.73-55.73-51.42-64.87,12.61,24.43,21.37,50.66,25.96,77.77l.05.43c-28.98-72.21-78.1-101.38-118.24-164.8-2.03-3.21-4.06-6.42-6.04-9.81-1.13-1.94-2.04-3.68-2.82-5.29-1.66-3.22-2.95-6.63-3.82-10.15,0-.34-.25-.62-.58-.66-.16-.04-.32-.04-.48,0-.03,0-.09.06-.13.07s-.13.07-.19.1l.1-.17c-64.38,37.69-86.23,107.46-88.22,142.38,2.99-.21,5.95-.46,9.01-.46,46.5.09,89.37,25.13,112.29,65.58-18.03-12.49-40.05-17.83-61.8-15.01,92.19,46.09,67.45,204.81-60.3,198.85-11.38-.47-22.62-2.64-33.35-6.43-2.51-.94-5.02-1.97-7.53-3.08-1.45-.66-2.9-1.32-4.32-2.06l.18.11c-1.24-.6-2.49-1.21-3.73-1.86,1.2.58,2.32,1.2,3.55,1.75-31.3-16.18-57.14-46.75-60.37-83.85,0,0,11.83-44.09,84.71-44.09,7.88,0,30.42-21.99,30.82-28.36-.1-2.08-44.7-19.84-62.1-36.97-9.29-9.16-13.7-13.57-17.61-16.88-2.11-1.79-4.32-3.46-6.61-5.01-5.84-20.44-6.09-42.08-.72-62.65-23.64,11.45-44.65,27.69-61.69,47.68h-.12c-10.16-12.88-9.44-55.33-8.86-64.2-3,1.21-5.87,2.73-8.56,4.54-8.97,6.4-17.35,13.58-25.05,21.46-8.77,8.9-16.79,18.51-23.96,28.75v.04-.05c-16.48,23.35-28.16,49.74-34.39,77.64l-.34,1.69c-.48,2.26-2.65,13.71-2.96,16.17-1.98,11.82-3.24,23.76-3.78,35.73v1.32c.25,141.56,115.21,256.12,256.77,255.87,124.49-.22,230.83-89.86,252.1-212.53.43-3.31.78-6.58,1.16-9.92,5.28-43.63-.44-87.89-16.63-128.76h.01ZM468.01,190.71l.05.27-.05-.27Z"/>
      </g>
    </g>
  </g>
</svg>