<?xml version="1.0" encoding="UTF-8"?>
<svg xmlns="http://www.w3.org/2000/svg" version="1.1" xmlns:cc="http://creativecommons.org/ns#" xmlns:dc="http://purl.org/dc/elements/1.1/" xmlns:rdf="http://www.w3.org/1999/02/22-rdf-syntax-ns#" viewBox="0 0 512 502.8">
  <defs>
    <style>
      .cls-1 {
        fill: #1ebbee;
      }
    </style>
  </defs>
  <!-- Generator: Adobe Illustrator 29.0.0, SVG Export Plug-In . SVG Version: 1.2.0 Build 15)  -->
  <g>
    <g id="svg3769">
      <path id="svg" class="cls-1" d="M511.99,263.18c0-40.47-10.46-78.5-28.82-111.54C561.39-25.39,399.36.54,390.34,2.31c-34.33,6.72-66.09,17.5-95.38,31.17-4.32-.24-8.67-.38-13.05-.38-109.33,0-200.84,76.25-224.26,178.48,57.62-64.65,97.95-90.73,122.1-101.17-3.85,3.44-7.63,6.93-11.34,10.44-1.24,1.17-2.43,2.35-3.64,3.52-2.45,2.35-4.89,4.71-7.28,7.09-1.42,1.41-2.8,2.84-4.2,4.26-2.12,2.15-4.23,4.31-6.29,6.47-1.47,1.54-2.9,3.08-4.34,4.62-1.93,2.07-3.85,4.13-5.73,6.21-1.46,1.61-2.9,3.22-4.34,4.84-1.78,2.01-3.55,4.02-5.3,6.03-1.45,1.67-2.88,3.34-4.3,5.01-1.65,1.95-3.28,3.9-4.9,5.85-1.43,1.73-2.85,3.45-4.25,5.18-1.51,1.87-2.99,3.73-4.47,5.59-1.43,1.8-2.86,3.6-4.26,5.41-1.33,1.72-2.62,3.42-3.93,5.13-1.47,1.93-2.95,3.86-4.38,5.79-1.02,1.38-2.01,2.74-3.01,4.11-9.09,12.4-17.4,24.57-24.9,36.25-.02.03-.04.06-.05.09-1.98,3.08-3.88,6.11-5.75,9.11-.1.16-.21.33-.31.49-1.87,3.02-3.68,5.98-5.44,8.92-.06.1-.13.21-.19.31-4.73,7.9-9.12,15.51-13.07,22.68-20.72,37.55-30.81,63.79-31.25,65.35-65.44,233.94,138.79,135.15,167.29,120.4,30.69,15.16,65.23,23.69,101.77,23.69,100.04,0,185.16-63.86,216.84-153.03h-120.89c-17.89,30.22-52.33,50.69-91.89,50.69-57.97,0-104.96-43.92-104.96-98.1h329.08c1.25-9.7,1.89-19.59,1.89-29.63h0ZM469.01,36.77c19.81,13.37,35.7,34.37,8.41,105.1-26.17-42.09-65.55-75.11-112.36-93.26,21.29-10.28,74.02-32.03,103.95-11.83ZM47.95,469.09c-16.14-16.55-18.99-56.86,16.62-130.31,17.97,51.67,53.83,94.96,100.18,122.44-23.05,12.69-84.25,41.25-116.8,7.87h0ZM180.5,229.89c1.84-52.66,47.67-94.82,103.97-94.82s102.13,42.16,103.97,94.82h-207.95Z"/>
    </g>
  </g>
</svg>