<?xml version="1.0" encoding="UTF-8"?>
<svg xmlns="http://www.w3.org/2000/svg" version="1.1" xmlns:ev="http://www.w3.org/2001/xml-events" viewBox="0 0 86.1 28.7">
  <defs>
    <style>
      .cls-1 {
        fill: #89b6ae;
      }

      .cls-1, .cls-2, .cls-3, .cls-4, .cls-5, .cls-6, .cls-7, .cls-8, .cls-9, .cls-10, .cls-11 {
        stroke: #000;
      }

      .cls-1, .cls-2, .cls-3, .cls-4, .cls-5, .cls-6, .cls-8, .cls-9, .cls-11 {
        stroke-width: .3px;
      }

      .cls-2 {
        fill: #ff9052;
      }

      .cls-3 {
        fill: #c4dbd7;
      }

      .cls-4 {
        fill: #f2d9bb;
      }

      .cls-5, .cls-7 {
        fill: #fff;
      }

      .cls-6 {
        fill: #ffc376;
      }

      .cls-7 {
        stroke-miterlimit: 10;
        stroke-width: .3px;
      }

      .cls-12 {
        fill: #a7c8c2;
      }

      .cls-13 {
        fill: #cadeda;
      }

      .cls-8 {
        fill: #6d8d9a;
      }

      .cls-14 {
        stroke: #ffbea8;
        stroke-width: .6px;
      }

      .cls-14, .cls-10 {
        fill: none;
      }

      .cls-9 {
        fill: #6ca49a;
      }

      .cls-10 {
        stroke-width: .3px;
      }

      .cls-11 {
        fill: #faf0e4;
      }
    </style>
  </defs>
  <!-- Generator: Adobe Illustrator 29.0.0, SVG Export Plug-In . SVG Version: 1.2.0 Build 38)  -->
  <g>
    <g id="Layer_1">
      <g>
        <rect class="cls-7" x="60.1" y="5.3" width="23.4" height="18.1" transform="translate(38.3 79.4) rotate(-74.1)"/>
        <rect class="cls-11" x="70.9" y="1.3" width="5.3" height="13.3" transform="translate(45.8 76.6) rotate(-74.1)"/>
        <rect class="cls-4" x="68.7" y="9" width="5.3" height="13.3" transform="translate(36.8 80) rotate(-74.1)"/>
        <rect class="cls-1" x="68.3" y="15.4" width="2.7" height="13.3" transform="translate(29.4 82.9) rotate(-74.1)"/>
      </g>
      <g>
        <rect class="cls-12" x="3.5" y=".3" width="21.7" height="28.1"/>
        <path d="M24.9.6v27.5H3.8V.6h21.1M25.5,0H3.2v28.7h22.3V0h0Z"/>
      </g>
      <rect class="cls-13" x="3.8" y="6.4" width="21.1" height="6.4"/>
      <rect class="cls-13" x="3.8" y="19.1" width="21.1" height="6.4"/>
      <g>
        <line class="cls-10" x1="3.2" y1="25.5" x2="25.5" y2="25.5"/>
        <line class="cls-10" x1="3.2" y1="19.1" x2="25.5" y2="19.1"/>
        <line class="cls-10" x1="3.2" y1="12.8" x2="25.5" y2="12.8"/>
        <line class="cls-10" x1="3.2" y1="6.4" x2="25.5" y2="6.4"/>
      </g>
      <line class="cls-10" x1="19.1" y1="0" x2="19.1" y2="28.7"/>
      <line class="cls-10" x1="12.8" y1="0" x2="12.8" y2="28.7"/>
      <line class="cls-10" x1="6.9" y1="28.7" x2="6.9" y2="0"/>
      <g>
        <rect class="cls-7" x="52.5" y="4.4" width="25.8" height="20" transform="translate(45.6 78.3) rotate(-85.2)"/>
        <rect class="cls-9" x="63.1" y="-.3" width="5.9" height="14.7" transform="translate(53.5 72.2) rotate(-85.2)"/>
        <rect class="cls-6" x="62.3" y="8.5" width="5.9" height="14.7" transform="translate(44.1 79.5) rotate(-85.2)"/>
        <rect class="cls-3" x="63.2" y="15.8" width="2.9" height="14.7" transform="translate(36.2 85.6) rotate(-85.2)"/>
      </g>
      <g>
        <rect class="cls-7" x="45" y=".3" width="21.7" height="28.1"/>
        <rect class="cls-2" x="47.8" y="3.2" width="15.9" height="6.4"/>
        <rect class="cls-8" x="47.8" y="12.8" width="15.9" height="6.4"/>
        <rect class="cls-5" x="47.8" y="22.3" width="15.9" height="3.2"/>
      </g>
      <g>
        <line class="cls-14" x1="28.7" y1="14.4" x2="41.5" y2="14.4"/>
        <polyline class="cls-14" points="38.3 12.8 41.5 14.4 38.3 15.9"/>
      </g>
    </g>
  </g>
</svg>