<svg width="164" height="28" fill="none" xmlns="http://www.w3.org/2000/svg"><path d="M58.305 11.957h-4.33a5.502 5.502 0 0 0-1.842-2.402c-.834-.624-1.85-.935-3.05-.935-1.591 0-2.886.513-3.883 1.539-.988 1.017-1.482 2.292-1.482 3.827 0 1.534.494 2.814 1.481 3.84.998 1.017 2.293 1.525 3.885 1.525 1.198 0 2.215-.306 3.05-.92a5.488 5.488 0 0 0 1.84-2.417h4.33c-.412 2.158-1.438 3.87-3.078 5.136-1.64 1.256-3.687 1.884-6.142 1.884-2.81 0-5.131-.858-6.963-2.575-1.822-1.726-2.733-3.884-2.733-6.473 0-2.59.91-4.743 2.733-6.46 1.832-1.726 4.153-2.589 6.963-2.589 2.455 0 4.497.633 6.128 1.899 1.63 1.256 2.661 2.963 3.093 5.121ZM60.362 22.53V5.47h4.187v2.359h.057c1.122-1.909 2.566-2.863 4.33-2.863h.417V9.21h-1.035c-.998 0-1.856.34-2.575 1.02a3.747 3.747 0 0 0-1.194 2.518v9.783h-4.187ZM88.473 13.986c0 .546-.077 1.165-.23 1.855H74.474c.24.979.806 1.818 1.698 2.518.892.7 1.918 1.05 3.078 1.05.844 0 1.597-.192 2.259-.575.671-.384 1.194-.859 1.568-1.425h4.546c-.604 1.707-1.674 3.074-3.208 4.1-1.535 1.017-3.256 1.525-5.165 1.525-2.57 0-4.757-.868-6.56-2.604-1.793-1.745-2.69-3.893-2.69-6.444 0-2.552.902-4.69 2.705-6.416 1.813-1.736 4.013-2.604 6.603-2.604 2.532 0 4.69.877 6.473 2.632 1.794 1.746 2.69 3.875 2.69 6.388Zm-13.94-1.655h9.466a4.785 4.785 0 0 0-1.583-2.719c-.834-.738-1.87-1.107-3.107-1.107-1.218 0-2.263.369-3.136 1.107-.873.73-1.42 1.636-1.64 2.72ZM104.427 13.986c0-1.439-.509-2.671-1.525-3.697-1.007-1.027-2.235-1.54-3.683-1.54-1.438 0-2.67.518-3.697 1.554-1.017 1.026-1.525 2.254-1.525 3.683 0 1.457.508 2.704 1.525 3.74 1.026 1.026 2.259 1.54 3.697 1.54 1.458 0 2.69-.514 3.697-1.54 1.007-1.036 1.511-2.283 1.511-3.74Zm0 8.545v-2.734h-.058c-.546.902-1.304 1.67-2.273 2.302-.959.623-2.095.935-3.41.935-2.512 0-4.65-.863-6.415-2.59-1.755-1.735-2.633-3.888-2.633-6.458 0-2.552.878-4.69 2.633-6.416 1.765-1.736 3.903-2.604 6.416-2.604 2.321 0 4.215.992 5.682 2.978h.058V5.469h4.186v17.062h-4.186ZM112.21 8.836h-1.539V5.469h1.539V1.614h4.186v3.855h2.92v3.367h-2.92v8.947c0 .298.096.547.288.748a.989.989 0 0 0 .705.288h1.927v3.712h-1.927c-1.554 0-2.805-.456-3.755-1.367-.949-.911-1.424-2.134-1.424-3.668v-8.66ZM138.608 13.986c0 .546-.077 1.165-.23 1.855h-13.767c.24.979.806 1.818 1.697 2.518.892.7 1.919 1.05 3.079 1.05.844 0 1.597-.192 2.259-.575.671-.384 1.194-.859 1.568-1.425h4.545c-.604 1.707-1.673 3.074-3.208 4.1-1.534 1.017-3.256 1.525-5.164 1.525-2.57 0-4.757-.868-6.56-2.604-1.793-1.745-2.69-3.893-2.69-6.444 0-2.552.902-4.69 2.705-6.416 1.812-1.736 4.013-2.604 6.603-2.604 2.531 0 4.689.877 6.473 2.632 1.793 1.746 2.69 3.875 2.69 6.388Zm-13.94-1.655h9.466a4.784 4.784 0 0 0-1.582-2.719c-.835-.738-1.87-1.107-3.107-1.107-1.218 0-2.264.369-3.137 1.107-.872.73-1.419 1.636-1.64 2.72ZM140.968 22.53V.435h4.186v22.097h-4.186ZM164 5.47l-8.545 22.096h-4.301l2.085-5.424-6.473-16.673h4.33l4.273 11.38h.057l4.244-11.38H164Z" fill="#06263D"/><path fill-rule="evenodd" clip-rule="evenodd" d="M19.29 11.903H15.5l-.21.002a7.537 7.537 0 0 1-.255 0 1.06 1.06 0 0 1-.373-.061c-.246-.099-.392-.324-.576-.648v-.002a4.993 4.993 0 0 0-9.35 2.351v.329a4.765 4.765 0 0 0 4.792 4.897h.006c.798.016 1.631-.067 2.407-.41.77-.342 1.5-.947 2.083-2.002.187-.334.346-.574.593-.707.241-.13.533-.14.908-.14h3.78v.116c-.831 4.242-4.456 7.425-9.565 7.425-5.379 0-9.74-4.14-9.74-9.25 0-5.105 4.044-9.254 9.74-9.254 5.014 0 8.46 2.909 9.441 6.866a3.015 3.015 0 0 1 .076.24h-.002c.013.049.024.098.034.147v.101Zm-1.287-2.31c-1.43-2.727-4.325-4.584-8.263-4.584-5.454 0-9.28 3.955-9.28 8.794 0 4.833 4.133 8.79 9.28 8.79 3.937 0 6.925-1.962 8.354-4.818-.283.333-.579.642-.839.914l-.094.098v.001c-.222.23-.443.43-.666.626l-.086.077c-.195.172-.39.345-.594.542-1.59 1.54-3.758 2.263-6.132 2.255-4.666 0-8.562-3.458-8.82-7.998v-.54c0-4.758 3.754-8.464 8.836-8.473 2.476 0 4.64.744 6.233 2.292l.002.002c.212.21.406.381.601.553l.01.009c.198.174.397.35.605.56v.001l.027.027c.253.257.543.552.826.872Zm-.273 7.709c.117-.082.239-.168.358-.254a4.25 4.25 0 0 1-.04.054c-.354.462-.765.892-1.127 1.27l-.092.097c-.208.216-.418.405-.639.6l-.085.076c-.195.172-.398.352-.61.557-1.487 1.44-3.53 2.133-5.811 2.125-4.441 0-8.115-3.283-8.361-7.557v-.52c0-4.489 3.533-8.004 8.377-8.012 2.382 0 4.42.713 5.91 2.16.222.22.425.398.618.569l.013.011c.198.175.386.341.582.54l.02.019c.381.388.826.84 1.205 1.33l.08.105a10.11 10.11 0 0 0-.07-.05c-.127-.092-.249-.177-.367-.259a19.42 19.42 0 0 1-.404-.285c-.238-.174-.422-.327-.53-.462l-.031-.04-.045-.022a3.386 3.386 0 0 1-1.137-.925l-.004-.004-.003-.003c-1.506-1.742-3.651-2.42-5.91-2.42h-.002c-4.478.02-7.92 3.297-7.92 7.696v.488c.192 4.235 3.761 7.32 7.92 7.34 2.227.013 4.324-.624 5.842-2.353l.003-.003.003-.004c.35-.43.777-.791 1.261-1.061l.04-.022.028-.035c.108-.134.292-.288.53-.463.117-.086.243-.175.374-.267l.024-.016Zm-2.12-9.404.002.001h-.001ZM1.324 14.27v.006-.013.007Zm16.434 2.45-.202.078c-.228.089-.445.174-.635.257a3.384 3.384 0 0 0-.33.161.62.62 0 0 0-.154.113l-.046.056-.07.02c-.49.139-.912.455-1.183.888l-.005.008-.006.008c-1.444 1.92-3.49 2.473-5.522 2.452-3.673-.033-6.895-2.746-7.025-6.7v-.412c0-4.044 3.145-6.889 7.033-6.922 2.072-.021 4.179.619 5.604 2.546l.006.008.005.009a1.639 1.639 0 0 0 1.066.749l.081.017.052.065a.575.575 0 0 0 .148.109c.086.05.196.102.327.16.191.082.41.166.641.255l.077.029-.18-.125c-.148-.103-.295-.205-.424-.3a3.545 3.545 0 0 1-.584-.505 3.844 3.844 0 0 1-1.245-1.025l.003.004-.006-.008.003.004c-1.393-1.608-3.39-2.257-5.559-2.257-4.242.02-7.462 3.108-7.462 7.236v.472-.005.01-.005c.183 3.964 3.527 6.877 7.463 6.896 2.136.012 4.086-.597 5.49-2.193l-.002.003.005-.007-.003.004a4.811 4.811 0 0 1 1.354-1.149c.15-.173.363-.345.587-.51.122-.09.252-.181.383-.272l.023-.017.292-.206Zm-.414-.351.078-.013-.024.01c-.231.09-.462.18-.661.267-.138.06-.268.122-.376.185-.08.046-.161.1-.226.162a2.518 2.518 0 0 0-1.382 1.06c-1.325 1.758-3.202 2.28-5.143 2.261-3.452-.031-6.447-2.571-6.57-6.251v-.401c0-3.77 2.92-6.43 6.577-6.462 1.974-.02 3.913.585 5.224 2.352a2.1 2.1 0 0 0 1.287.934c.063.06.14.11.216.155.108.063.237.124.375.184.164.07.35.144.542.217a27.15 27.15 0 0 1-.775-.134 4.283 4.283 0 0 1-.353-.081.794.794 0 0 1-.086-.029l-.038-.048-.092-.012c-.358-.05-.51-.073-.632-.14-.113-.062-.219-.174-.42-.48C13.5 8 11.443 7.41 9.566 7.44c-3.287.038-6.13 2.456-6.13 6.141v.374a6.076 6.076 0 0 0 6.127 6.026c1.853.04 3.845-.419 5.211-2.534l.009-.014.006-.014a1.26 1.26 0 0 1 1.106-.725l.108-.004.048-.06a.765.765 0 0 1 .085-.03c.085-.025.206-.052.353-.081.243-.048.542-.098.853-.149Zm-2.503-6.83-.005-.009.011.017-.006-.008Zm-11.8 4.51v.005l-.001-.008v.004Zm11.712 3.991.006-.007-.011.016.005-.009Zm2.172-2.068a19.38 19.38 0 0 0-.523.094c-.152.03-.288.06-.395.092a1.169 1.169 0 0 0-.197.078 1.722 1.722 0 0 0-1.429.973c-1.247 1.92-3.048 2.35-4.81 2.31h-.006a5.616 5.616 0 0 1-5.667-5.567v-.372c0-3.408 2.615-5.645 5.675-5.68h.001c1.774-.028 3.653.524 4.905 2.457l.001.002c.203.306.362.507.584.63.2.11.434.143.731.183a.51.51 0 0 0 .06.031c.045.02.096.038.149.053.106.03.243.061.394.09.162.032.347.065.543.097H15.5l-.23.002a6.221 6.221 0 0 1-.224 0 .627.627 0 0 1-.213-.03c-.073-.028-.15-.099-.346-.446a5.453 5.453 0 0 0-10.212 2.57v.325a5.226 5.226 0 0 0 5.253 5.367c.832.016 1.739-.069 2.599-.45.866-.383 1.67-1.06 2.3-2.198.19-.34.293-.464.41-.526.12-.066.29-.085.688-.085h1.399Z" fill="#06263D"/><path fill-rule="evenodd" clip-rule="evenodd" d="M14.316 11.903H18.104l.212.002c.096.001.182.002.254 0a1.06 1.06 0 0 0 .372-.061c.247-.099.393-.324.577-.648v-.002a4.992 4.992 0 0 1 9.35 2.351v.329a4.766 4.766 0 0 1-4.792 4.897h-.006c-.799.016-1.631-.067-2.407-.41-.77-.342-1.5-.947-2.083-2.002-.187-.334-.346-.574-.593-.707-.241-.13-.533-.14-.908-.14H14.299v.116c.832 4.242 4.457 7.425 9.566 7.425 5.379 0 9.74-4.14 9.74-9.25 0-5.105-4.044-9.254-9.74-9.254-5.014 0-8.46 2.909-9.442 6.866-.021.06-.04.12-.058.182a.272.272 0 0 0-.017.057h.002a2.622 2.622 0 0 0-.034.148v.101Zm1.285-2.31c.284-.32.574-.615.827-.872l.026-.027c.21-.211.408-.387.606-.561l.01-.009c.195-.172.39-.344.6-.553l.002-.002c1.595-1.548 3.758-2.292 6.233-2.292 5.083.009 8.837 3.715 8.837 8.473v.54c-.258 4.54-4.154 7.998-8.82 7.998-2.375.008-4.542-.715-6.132-2.255-.204-.198-.4-.37-.594-.542l-.087-.077a11.348 11.348 0 0 1-.665-.626l-.094-.1c-.26-.27-.556-.58-.84-.913 1.43 2.856 4.418 4.817 8.355 4.817 5.147 0 9.28-3.956 9.28-8.79 0-4.838-3.827-8.793-9.28-8.793-3.938 0-6.833 1.857-8.263 4.584Zm-.043 7.509a5.46 5.46 0 0 1-.041-.054c.12.087.24.172.358.254l.024.016c.13.092.256.18.374.267.238.175.422.329.53.463l.028.035.04.022c.484.27.912.63 1.26 1.061l.003.004.004.003c1.518 1.729 3.615 2.366 5.841 2.354 4.16-.021 7.729-3.106 7.921-7.341v-.488c0-4.399-3.442-7.675-7.92-7.696h-.002c-2.259 0-4.405.678-5.91 2.42l-.004.003-.003.004a3.384 3.384 0 0 1-1.137.925l-.045.023-.032.04c-.107.134-.291.287-.53.461-.131.097-.264.19-.402.285-.119.082-.24.166-.369.259a8.133 8.133 0 0 0-.07.05l.08-.106c.38-.49.825-.941 1.207-1.33l.019-.019c.196-.198.384-.364.582-.539l.013-.011c.193-.17.396-.35.617-.569 1.49-1.447 3.53-2.16 5.911-2.16 4.844.008 8.377 3.523 8.377 8.012v.52c-.247 4.274-3.92 7.557-8.36 7.557h-.001c-2.281.008-4.324-.686-5.81-2.125a18.134 18.134 0 0 0-.61-.557l-.086-.075c-.221-.196-.431-.385-.639-.6v-.001l-.092-.096c-.362-.38-.773-.809-1.126-1.271Zm16.724-2.832v-.007.013-.006ZM17.994 7.898V7.9v-.001Zm-2.146 8.821c.096.07.194.138.292.206l.023.017c.13.09.26.182.382.272.225.165.439.337.587.51a4.81 4.81 0 0 1 1.354 1.149l-.003-.004.006.007-.003-.003c1.405 1.596 3.355 2.205 5.491 2.193 3.936-.02 7.28-2.932 7.463-6.896v.005-.01.005-.473c0-4.127-3.22-7.215-7.462-7.235-2.168 0-4.166.649-5.559 2.257l.003-.004-.006.008.003-.004a3.846 3.846 0 0 1-1.245 1.025 3.553 3.553 0 0 1-.585.506c-.128.094-.275.196-.422.298l-.18.126.075-.03c.231-.088.45-.172.642-.255.13-.057.241-.11.327-.16a.573.573 0 0 0 .148-.108l.052-.065.081-.017a1.64 1.64 0 0 0 1.065-.75l.006-.008.006-.008c1.425-1.927 3.531-2.567 5.604-2.546 3.888.033 7.033 2.878 7.033 6.922v.412c-.13 3.954-3.352 6.667-7.025 6.7-2.032.021-4.079-.531-5.522-2.452l-.006-.008-.005-.008a2.057 2.057 0 0 0-1.184-.888l-.069-.02-.046-.056a.617.617 0 0 0-.155-.113 3.37 3.37 0 0 0-.33-.162c-.189-.082-.406-.167-.634-.256l-.202-.079Zm.36-.353-.024-.01.077.013c.312.051.611.1.854.149.147.029.267.056.353.082a.77.77 0 0 1 .085.029l.047.06.109.004a1.26 1.26 0 0 1 1.105.725l.007.015.009.013c1.366 2.115 3.358 2.575 5.21 2.534a6.074 6.074 0 0 0 6.128-6.026v-.374c0-3.685-2.843-6.103-6.13-6.14-1.877-.03-3.933.56-5.297 2.666-.201.305-.307.417-.42.479-.122.067-.274.09-.633.14l-.091.012-.038.048a.798.798 0 0 1-.086.029 4.302 4.302 0 0 1-.354.08 27.1 27.1 0 0 1-.774.135c.19-.073.378-.146.542-.217.138-.06.267-.121.374-.184.077-.044.154-.095.217-.155a2.1 2.1 0 0 0 1.287-.934c1.31-1.767 3.25-2.372 5.223-2.352 3.658.031 6.578 2.692 6.578 6.462v.4c-.123 3.68-3.119 6.22-6.57 6.252-1.941.02-3.819-.503-5.144-2.26a2.517 2.517 0 0 0-1.38-1.061 1.22 1.22 0 0 0-.227-.162 3.836 3.836 0 0 0-.376-.185c-.199-.087-.43-.177-.66-.267Zm2.644 1.674.006.009-.011-.016.005.007Zm11.714-3.99v-.004.008-.004ZM18.765 9.54l-.006.007.01-.017-.004.01Zm-2.084 6.432c.188.032.367.063.523.094.151.03.288.06.395.092a1.18 1.18 0 0 1 .197.078 1.721 1.721 0 0 1 1.428.973c1.248 1.92 3.049 2.35 4.81 2.31h.007a5.616 5.616 0 0 0 5.666-5.567v-.372c0-3.408-2.614-5.645-5.675-5.68-1.774-.028-3.653.524-4.905 2.457l-.001.002c-.203.306-.362.507-.584.63-.2.11-.434.143-.732.183a.517.517 0 0 1-.06.031c-.044.02-.095.038-.148.053a4.75 4.75 0 0 1-.394.09c-.162.032-.348.065-.543.097h1.439l.232.002c.086.001.157.002.223 0a.626.626 0 0 0 .213-.03c.073-.028.15-.099.346-.446a5.453 5.453 0 0 1 10.212 2.57v.325a5.226 5.226 0 0 1-5.253 5.367c-.832.016-1.739-.069-2.6-.45-.865-.383-1.668-1.06-2.299-2.198-.19-.34-.294-.464-.41-.526-.12-.066-.29-.085-.688-.085h-1.4Z" fill="#F05251"/></svg>