<svg width="24" height="22" viewBox="0 0 24 22" fill="none" xmlns="http://www.w3.org/2000/svg">
    <path d="M7.81379 3.80716C8.2384 2.73095 9.7616 2.73095 10.1862 3.80716L10.2596 3.99376C11.2964 6.62257 13.3774 8.70358 16.0062 9.74039L16.1928 9.81379C17.2691 10.2384 17.2691 11.7616 16.1928 12.1862L16.0062 12.2596C13.3774 13.2964 11.2964 15.3774 10.2596 18.0062L10.1862 18.1928C9.7616 19.2691 8.2384 19.2691 7.81379 18.1928L7.74039 18.0062C6.70358 15.3774 4.62257 13.2964 1.99376 12.2596L1.80716 12.1862C0.730948 11.7616 0.730948 10.2384 1.80716 9.81379L1.99376 9.74039C4.62257 8.70358 6.70358 6.62257 7.74039 3.99376L7.81379 3.80716Z" stroke="url(#paint0_linear_900_634)" stroke-width="1.2" stroke-linecap="round" stroke-linejoin="round"/>
    <path d="M19 1L19.2948 1.7966C19.6813 2.84117 19.8746 3.36345 20.2556 3.74445C20.6366 4.12545 21.1588 4.31871 22.2034 4.70523L23 5L22.2034 5.29477C21.1588 5.68129 20.6366 5.87455 20.2556 6.25555C19.8746 6.63655 19.6813 7.15883 19.2948 8.2034L19 9L18.7052 8.2034C18.3187 7.15883 18.1254 6.63655 17.7444 6.25555C17.3634 5.87455 16.8412 5.68129 15.7966 5.29477L15 5L15.7966 4.70523C16.8412 4.31871 17.3634 4.12545 17.7444 3.74445C18.1254 3.36345 18.3187 2.84117 18.7052 1.7966L19 1Z" stroke="url(#paint1_linear_900_634)" stroke-width="1.2" stroke-linejoin="round"/>
    <path d="M16.5552 15.3027C16.7144 14.8991 17.2856 14.8991 17.4448 15.3027L17.4724 15.3727C17.8612 16.3585 18.6415 17.1388 19.6273 17.5276L19.6973 17.5552C20.1009 17.7144 20.1009 18.2856 19.6973 18.4448L19.6273 18.4724C18.6415 18.8612 17.8612 19.6415 17.4724 20.6273L17.4448 20.6973C17.2856 21.1009 16.7144 21.1009 16.5552 20.6973L16.5276 20.6273C16.1388 19.6415 15.3585 18.8612 14.3727 18.4724L14.3027 18.4448C13.8991 18.2856 13.8991 17.7144 14.3027 17.5552L14.3727 17.5276C15.3585 17.1388 16.1388 16.3585 16.5276 15.3727L16.5552 15.3027Z" stroke="url(#paint2_linear_900_634)" stroke-width="1.2" stroke-linecap="round" stroke-linejoin="round"/>
    <defs>
    <linearGradient id="paint0_linear_900_634" x1="1" y1="11" x2="13.8768" y2="17.3417" gradientUnits="userSpaceOnUse">
    <stop stop-color="#EC5688"/>
    <stop offset="1" stop-color="#ED7E4E"/>
    </linearGradient>
    <linearGradient id="paint1_linear_900_634" x1="15" y1="5" x2="21.4384" y2="8.17083" gradientUnits="userSpaceOnUse">
    <stop stop-color="#EC5688"/>
    <stop offset="1" stop-color="#ED7E4E"/>
    </linearGradient>
    <linearGradient id="paint2_linear_900_634" x1="14" y1="18" x2="18.8288" y2="20.3781" gradientUnits="userSpaceOnUse">
    <stop stop-color="#EC5688"/>
    <stop offset="1" stop-color="#ED7E4E"/>
    </linearGradient>
    </defs>
</svg>
