<svg xmlns="http://www.w3.org/2000/svg" xmlns:xlink="http://www.w3.org/1999/xlink" width="1125.797" height="312.595" viewBox="0 0 1125.797 312.595">
  <defs>
    <clipPath id="clip-path">
      <rect id="Rectangle_26" data-name="Rectangle 26" width="1125.797" height="312.595" fill="#2d303e"/>
    </clipPath>
  </defs>
  <g id="Group_483" data-name="Group 483" clip-path="url(#clip-path)" style="isolation: isolate">
    <path id="Path_471" data-name="Path 471" d="M771.639,171.3c0-24.024.162-43.735.366-44.027.111-.213,1.567-2.091,3.255-4.2a50.376,50.376,0,0,1,6.056-6.292,47.9,47.9,0,0,1,7.706-5.583,16.507,16.507,0,0,1,8.425-2.439,8.157,8.157,0,0,1,4.405,1.182,9.5,9.5,0,0,1,3.06,3.065,16.074,16.074,0,0,1,1.818,4.169,17.189,17.189,0,0,1,.617,4.484v105.1a22.8,22.8,0,0,0,1.739,8.889c.552,1.952,2.907,5.193,5.268,7.238,1.368,1.493,5.24,3.672,8.652,4.878a36.267,36.267,0,0,0,12.037,1.813,41.85,41.85,0,0,0,14.717-2.444,47.4,47.4,0,0,0,11.481-6.056,56.018,56.018,0,0,0,8.574-7.632,65.94,65.94,0,0,0,5.819-7.312l-1.887-1.651c-1.043-.913-2.193-1.331-2.573-.923-.478.566-2.147,2.175-3.714,3.6a7.841,7.841,0,0,1-5.356,2.119,6.082,6.082,0,0,1-3.538-.941A5.529,5.529,0,0,1,856.6,225.9a10.324,10.324,0,0,1-.779-3.148,30.365,30.365,0,0,1-.162-3.065V122.295c.2-3.028-.6-9.227-1.813-13.846-.543-3.19-3.121-8.759-5.741-12.431-1.437-2.652-6.084-6.631-10.382-8.889a33.294,33.294,0,0,0-15.58-3.38,35.172,35.172,0,0,0-9.362,1.261,53.889,53.889,0,0,0-9.125,3.38,70.894,70.894,0,0,0-8.564,4.795,86.905,86.905,0,0,0-7.554,5.509,126.224,126.224,0,0,0-13.382,12.167c-1.386,1.539-2.513,2.216-2.513,1.521.2-.8-.607-4.22-1.813-7.628-.552-2.3-3.121-6.663-5.74-9.756-1.437-2.184-6.084-5.74-10.387-7.943a33.845,33.845,0,0,0-15.575-3.306,36.011,36.011,0,0,0-9.441,1.261,50.594,50.594,0,0,0-9.121,3.38,80.1,80.1,0,0,0-8.578,4.795,81.884,81.884,0,0,0-7.628,5.509,113.587,113.587,0,0,0-13.428,12.167c-1.363,1.539-2.467,2.267-2.467,1.628.065-.686-.186-4.011-.552-7.419,0-2.286-1.437-6.691-3.223-9.839-.835-2.216-4.563-5.842-8.337-8.1s-9.074-3.38-15.9-3.38a53.859,53.859,0,0,0-12.585,1.419A68.764,68.764,0,0,0,635.7,88.784a62.927,62.927,0,0,0-9.673,5.11,87.9,87.9,0,0,0-8.1,5.9l1.651,1.971c.913,1.085,1.98,1.706,2.388,1.391a19.309,19.309,0,0,1,3.357-2.1,10.084,10.084,0,0,1,4.563-.946,7.826,7.826,0,0,1,7.155,3.385c1.173,1.349,2.124,4.906,2.124,7.943V232.9a21.5,21.5,0,0,0,.631,4.563c.06,1.257,1.47,3.723,3.144,5.5.844,1.257,4.118,3.334,7.322,4.642s7.572,1.971,13.141,1.971a39.287,39.287,0,0,0,13.141-1.813,19.716,19.716,0,0,0,7.224-4.326,11.277,11.277,0,0,0,3.079-5.351,23.423,23.423,0,0,0,.621-4.873V176.741c0-27.028.167-49.174.371-49.466.107-.213,1.6-2.091,3.325-4.2a57.22,57.22,0,0,1,6.139-6.292,49.284,49.284,0,0,1,7.632-5.583,16.08,16.08,0,0,1,8.332-2.439,8.146,8.146,0,0,1,4.414,1.182,10.23,10.23,0,0,1,3.139,3.065,14.091,14.091,0,0,1,1.887,4.169,16.767,16.767,0,0,1,.631,4.484V232.9a21.823,21.823,0,0,0,.631,4.563c.07,1.257,1.442,3.723,3.07,5.5.793,1.257,4.034,3.334,7.238,4.642s7.572,1.971,13.136,1.971a39.889,39.889,0,0,0,13.215-1.813,19.777,19.777,0,0,0,7.322-4.326,11.34,11.34,0,0,0,3.07-5.351,23.433,23.433,0,0,0,.626-4.873ZM564.5,189.789a123.765,123.765,0,0,1-3.385,22.03,42.274,42.274,0,0,1-7.238,15.733,15.063,15.063,0,0,1-12.431,5.977c-3.714.658-9.283-1.91-12.422-5.745-2.323-2.087-5.564-8.884-7.238-15.181-1.3-3.835-2.787-13.447-3.306-21.473s-.784-16.234-.784-24.622c-.093-5.587.255-16.577.784-24.548a109.956,109.956,0,0,1,3.306-21.316,39.923,39.923,0,0,1,7.238-15.107,15.29,15.29,0,0,1,12.422-5.745c3.719-.617,9.283,1.813,12.431,5.434,2.318,1.952,5.56,8.467,7.238,14.551,1.289,3.7,2.805,13.034,3.385,20.843.478,5.036.862,15.923.862,24.316.1,5.546-.288,16.679-.862,24.854m-89.918,12.9c2.161,7.414,9.306,19.034,15.974,25.957,4,5.133,14.393,12.144,23.2,15.654a74.033,74.033,0,0,0,27.687,5.277c6.487.635,18.881-1.864,27.7-5.592,6.153-1.836,16.544-9.2,23.2-16.438,4.836-4.178,11.986-16.15,15.974-26.75s5.972-22.758,5.972-36.5c.686-9.737-1.989-25.832-5.972-35.95-2.161-7.257-9.311-18.492-15.974-25.1-4-4.924-14.393-11.509-23.2-14.708a80.414,80.414,0,0,0-27.7-4.8,74.984,74.984,0,0,0-27.687,5.193c-6.158,1.679-16.549,8.648-23.2,15.571-4.836,3.965-11.986,15.552-15.974,25.888-3.3,6.2-5.982,22.364-5.982,36.107-.686,9.6,2,25.8,5.982,36.186M362.708,28.208a65.327,65.327,0,0,0-.547-7.943c0-2.017-1.442-5.824-3.227-8.5-.83-1.9-4.563-4.929-8.337-6.765s-9.074-2.75-15.9-2.75a54.045,54.045,0,0,0-12.58,1.414,71.749,71.749,0,0,0-11.254,3.621A57.35,57.35,0,0,0,301.2,12.4a93.659,93.659,0,0,0-8.026,5.9l1.572,1.887c.872,1.043,1.9,1.632,2.309,1.312a15.8,15.8,0,0,1,3.431-2.017,11.507,11.507,0,0,1,4.646-.867,7.811,7.811,0,0,1,7.155,3.385c1.178,1.349,2.128,4.906,2.128,7.943V232.9a23.793,23.793,0,0,0,.547,4.563c.046,1.257,1.312,3.723,2.833,5.5.719,1.257,3.858,3.334,7.006,4.642s7.493,1.971,13.057,1.971a40.61,40.61,0,0,0,13.294-1.813,21.423,21.423,0,0,0,7.554-4.326,11.319,11.319,0,0,0,3.3-5.351,20.789,20.789,0,0,0,.7-4.873v-40.6c0-22.419.427-41.625.946-42.9.538-1.59,3.357-7.424,6.292-13.039a118.59,118.59,0,0,1,9.839-15.728,69.585,69.585,0,0,1,11.4-12.274q5.975-4.959,11.8-4.957a8.438,8.438,0,0,1,4.642,1.1,8.346,8.346,0,0,1,2.518,2.518,7.054,7.054,0,0,1,1.025,2.912c.1,1,.158,1.706.158,2.124a56.737,56.737,0,0,1-1.1,10.229c-.107,2.42-2.574,8.55-5.509,13.688-1.442,3.172-7.289,10.883-13.057,17.226a146.068,146.068,0,0,1-18.724,16.966c-2.777,2.059-3.366,7.716-1.312,12.64,2.926,7.563,10.911,24.492,17.833,37.814A344.759,344.759,0,0,0,409.675,255.4a169.147,169.147,0,0,0,19.2,23.912,102.808,102.808,0,0,0,18.483,15.1c4.011,2.875,12.144,6.4,18.177,7.869a77.074,77.074,0,0,0,18.329,2.2,142.5,142.5,0,0,0,17.62-.941,95.633,95.633,0,0,0,13.062-2.518,60.7,60.7,0,0,0,10.062-3.7c1.947-.9,5.824-2.917,8.657-4.488l-1.493-2.75c-.825-1.526-1.781-2.615-2.128-2.444a27.251,27.251,0,0,1-2.986,1.261,26.635,26.635,0,0,1-3.464,1.1,15.475,15.475,0,0,1-3.774.473c-4.632.793-14.843-2.3-22.813-6.923-5.119-2.156-16.285-11.773-24.942-21.473-5.56-5.453-17.643-22.076-26.982-37.128s-18.928-33.015-23.861-43.457c-2.717-5.764-3.283-11.277-1.257-12.32,3.227-1.308,9.756-6.06,14.578-10.623A65.6,65.6,0,0,0,445.708,144.4c2.179-3.186,4.924-9.8,6.135-14.787a61.418,61.418,0,0,0,1.808-14.4c.172-1.475-.5-5.555-1.493-9.125-.408-2.383-2.731-7-5.193-10.3-1.359-2.332-5.694-6.139-9.677-8.5s-8.972-3.538-14.945-3.538c-4.59-.45-12.9,1.312-18.566,3.937-3.867,1.465-10.911,5.977-15.733,10.062-3.278,2.518-9.339,8.685-13.535,13.772s-8.128,10.1-9.96,12.561c-1.02,1.359-1.841-17.017-1.841-41.041ZM127.414,156.534c-5.207,2.986-9.431,4.753-9.431,3.941-.019-.89.051-5.063.158-9.311,0-2.722.417-8.676.946-13.294a136.006,136.006,0,0,1,2.277-13.767,54.664,54.664,0,0,1,4.09-12.195,26.219,26.219,0,0,1,6.612-8.731,14.528,14.528,0,0,1,9.673-3.385c2.073-.32,5.458.946,7.553,2.833,1.5,1.08,3.83,4.247,5.193,7.081a35.013,35.013,0,0,1,2.912,9.051,49.712,49.712,0,0,1,.862,8.731,39.343,39.343,0,0,1-.389,6.051,15.515,15.515,0,0,1-1.182,4.1,8.783,8.783,0,0,1-2.124,2.833,24.608,24.608,0,0,1-3.385,2.434ZM181.7,138.186c3.427-1.757,8.495-6.371,11.328-10.3a22.192,22.192,0,0,0,4.247-13.3c.325-2.75-.941-8-2.828-11.717-.909-2.6-4.748-7.006-8.574-9.839-2.189-2.054-8.634-5.082-14.4-6.761a73,73,0,0,0-20.3-2.518c-3.779-.278-11.982.816-18.33,2.439-4.215.8-12.561,4.034-18.64,7.238-4.094,1.822-11.884,7.21-17.384,12.033-3.858,2.9-10.336,10.438-14.476,16.836-3.019,3.932-7.424,13.586-9.835,21.557a90.421,90.421,0,0,0-3.621,26.273c-.691,9.26,2.017,24.756,6.06,34.614,2.189,7.034,9.413,18.093,16.127,24.7,4.076,4.91,14.393,11.564,23.045,14.866a74.157,74.157,0,0,0,26.667,4.961c6.339.385,17.258-1.131,24.39-3.385,4.994-1.28,13.373-5.087,18.724-8.5a75.48,75.48,0,0,0,13.688-10.934,108.625,108.625,0,0,0,9.283-10.7l-1.966-1.887c-1.085-1.043-2.532-1.4-3.227-.788-.96.886-3.774,3.176-6.292,5.11a56.433,56.433,0,0,1-7.864,5.119,40.363,40.363,0,0,1-8.815,3.459,39.338,39.338,0,0,1-10.224,1.261c-3.589.287-10.071-.839-14.476-2.518-3.028-.909-8.416-3.937-12.037-6.765a53.623,53.623,0,0,1-9.594-9.677,62.354,62.354,0,0,1-7-11.407,64.553,64.553,0,0,1-4.331-11.88,45.607,45.607,0,0,1-1.493-9.255c0-.923,10.489-7.864,23.421-15.492Z" transform="translate(250.162 8.089)" fill="#2d303e"/>
    <path id="Path_472" data-name="Path 472" d="M101.8,223.624a66.352,66.352,0,0,0,.547,7.943c0,2.017,1.447,5.824,3.227,8.495.83,1.906,4.563,4.934,8.342,6.77s9.07,2.754,15.891,2.754a54.372,54.372,0,0,0,12.589-1.414,72.978,72.978,0,0,0,11.244-3.621,58.3,58.3,0,0,0,9.677-5.114,93.649,93.649,0,0,0,8.022-5.9l-1.572-1.887c-.867-1.043-1.9-1.632-2.3-1.317a15.768,15.768,0,0,1-3.436,2.022,11.413,11.413,0,0,1-4.646.867,7.83,7.83,0,0,1-7.155-3.385c-1.173-1.345-2.128-4.9-2.128-7.943V18.929a23.8,23.8,0,0,0-.547-4.563c-.042-1.257-1.312-3.723-2.833-5.509-.719-1.247-3.858-3.325-7-4.637s-7.5-1.966-13.062-1.966a40.348,40.348,0,0,0-13.294,1.808,21.393,21.393,0,0,0-7.553,4.331,11.364,11.364,0,0,0-3.306,5.342,20.863,20.863,0,0,0-.7,4.878Z" transform="translate(370.187 8.085)" fill="#2d303e"/>
    <path id="Path_473" data-name="Path 473" d="M319.059,58.919V55.841a40.418,40.418,0,0,0-.218-4.155c-.065-.951-.352-3-.64-4.577a32.748,32.748,0,0,0-1.15-4.507c-.413-2.1-2.907-4.73-5.578-5.875a24.7,24.7,0,0,0-9.737-1.72,24.414,24.414,0,0,0-5.439.649,18.13,18.13,0,0,0-5.3,2.073,13.464,13.464,0,0,0-4.016,3.505,8.185,8.185,0,0,0-1.572,5.087,11.679,11.679,0,0,0,1.289,5.012c.524,1.015,1.832,4.127,2.931,6.946a63.7,63.7,0,0,1,2.94,10.521,80.528,80.528,0,0,1,1.284,15.747,128.825,128.825,0,0,1-1.359,17.968q-1.363,9.814-3.723,20.546c-.946,4.651-3.408,14.462-5.509,21.909-1.349,4.92-4.3,14.8-6.584,22.044-1.493,4.836-4.632,14.319-7.016,21.191s-4.683,13.271-5.782,16.229c-.6,1.637-9.037-22.619-18.835-54.168L221.7,75.1a18.676,18.676,0,0,0-3-6.084,12.379,12.379,0,0,0-4.651-3.649,22.325,22.325,0,0,0-6.515-1.79,63.148,63.148,0,0,0-8.453-.5A45.853,45.853,0,0,0,188.7,64.215a26.117,26.117,0,0,0-8.518,3.51,14.246,14.246,0,0,0-5.226,5.87c-1.076,1.4-1.168,5.082-.218,8.235l6.946,22.762c3.839,12.571,6.58,24.3,6.135,26.2-.547,2.578-2.648,10.433-4.7,17.537-1.326,4.711-4.173,14.129-6.371,21.051-1.424,4.618-4.438,13.628-6.728,20.115s-4.488,12.552-5.541,15.367c-.575,1.558-5.351-11.142-10.656-28.364l-13.011-42.191c-1.836-7.771-5.708-21.65-8.648-31a353.4,353.4,0,0,0-14.254-38.319,172.851,172.851,0,0,0-15.1-27.515,105.414,105.414,0,0,0-15.946-18.51c-3.524-3.607-11.1-8.606-16.92-11.161C66.2,5.878,58.1,3.43,51.863,2.326A147.059,147.059,0,0,0,33.933.147,97,97,0,0,0,20.323.365,62.214,62.214,0,0,0,9.52,2.3C7.4,2.864,3.135,4.2,0,5.285L1.02,8.326c.556,1.679,1.326,2.944,1.706,2.833a28.176,28.176,0,0,1,3.237-.737,27.714,27.714,0,0,1,3.682-.492,15.6,15.6,0,0,1,3.89.19c4.808.028,14.546,4.961,21.766,11.031,4.771,3.088,14.314,14.764,21.316,26.082,4.642,6.482,13.86,25.382,20.6,42.214.937,2.337,2.838,7.345,4.243,11.18l44.319,148.139a26.869,26.869,0,0,0,1.646,3.584,12.08,12.08,0,0,0,3.218,3.719c.77.816,3.366,2.1,5.8,2.866a32.114,32.114,0,0,0,9.38,1.141c1.331.032,3.955-.093,5.866-.283a18.112,18.112,0,0,0,5.374-1.363,14.868,14.868,0,0,0,4.577-3.079c.983-.709,2.555-3.148,3.505-5.434.64-1.363,3.009-7.614,5.3-13.962,1.4-3.8,4.892-13.767,7.8-22.262,1.855-5.309,5.991-17.778,9.237-27.849s6.441-20.31,8.017-25.507c.867-2.879,6.533,11.1,12.654,31.211l17.411,57.219a33.974,33.974,0,0,0,1.577,3.584,11.166,11.166,0,0,0,3.148,3.719c.765.816,3.366,2.1,5.8,2.866a32.158,32.158,0,0,0,9.38,1.141c1.4.032,4.127-.093,6.084-.283a18.1,18.1,0,0,0,5.439-1.363,13.249,13.249,0,0,0,4.442-3.079c.932-.709,2.314-3.148,3.079-5.434.575-1.461,2.791-7.706,4.938-13.962,1.294-3.761,4.628-13.507,7.442-21.761s5.8-17.254,8.954-26.991c2.073-6.325,6.274-19.684,9.376-29.852,2.082-6.7,6.084-20.259,8.949-30.279,1.985-6.807,5.416-19.4,7.655-28.137,1.637-6.042,4.016-16.586,5.3-23.551a96.144,96.144,0,0,0,1.929-16.466" transform="translate(0 0.001)" fill="#2d303e"/>
  </g>
</svg>
