<?xml version="1.0" encoding="UTF-8"?>
<svg xmlns="http://www.w3.org/2000/svg" version="1.1" viewBox="0 0 595.28 841.89">
  <!-- Generator: Adobe Illustrator 30.4.0, SVG Export Plug-In . SVG Version: 2.1.4 Build 226)  -->
  <defs>
    <style>
      .st0, .st1 {
        stroke: #000;
        stroke-miterlimit: 10;
        stroke-width: 2px;
      }

      .st1 {
        fill: none;
      }
    </style>
  </defs>
  <g id="Layer_3">
    <g>
      <path d="M261.94,575.62c5.12-2.18,8.63,2.64,8.34,11.42l-2.84,84.3-14.68,6.02c-4.86,2.14-8.26-2.9-8.07-11.61l.91-41.93-1.7.71c-1.02.43-1.65,2.59-1.7,5.25l-1.13,52.39-14.4,5.92c-4.85,2.14-8.33-2.83-8.26-11.46l.34-41.52-1.69.71c-1.1,1.19-1.62,2.57-1.64,5.2l-.34,51.83-20.85,8.6c-1.15.62-2.06-.75-2.07-2.77l-.43-78.29c-.05-8.54,3.62-16.35,8.71-18.52l32.14-13.74-1.51,15.82c-.2,1.69.3,3.08,1.23,2.98.86-.22,1.64-1.57,1.84-3.26l1.6-14.55c.2-1.54.9-2.72,1.68-3.05l24.52-10.45Z"/>
      <path d="M296.94,636.67c1-.41,1.73-1.74,1.86-4.46l.52-10.69,21.26-8.81c1.27-.52,2.1.76,1.87,3.08-1.34,16.85-5.05,36.88-26.54,45.65-21.62,8.84-25.78-11.94-24.81-30.26.69-17.48,4.69-44.42,28.91-54.64,23.4-9.85,24.05,10,23.08,30.09l-23.51,9.61.64-12.95c.13-2.71-.5-3.48-1.52-3.05-1.02.43-1.75,1.77-1.88,4.47l-1.37,28.88c-.13,2.71.49,3.48,1.5,3.07Z"/>
      <path d="M346.98,616.08l1.68-.69,2.37-32.2c.14-1.84-.88-2.6-2.43-1.96-6.85,3-12.1,5.78-18.48,11.99-1.24,1.26-2.36.54-2.3-1.71l-.16-17.56c0-1.33.51-2.73,1.31-3.51,4.47-4.24,14.84-12.3,22.55-15.53,22.9-9.59,23.9,11.9,23.09,21.33l-4.01,49.11c-.2,2.32-1.25,4.39-2.5,4.9l-21.35,8.68c2.57-4.32,3.98-9.06,4.88-14.64l-3.01,1.23c-1.48,8.04-5.49,16.67-12.28,19.44-13.41,5.47-15.56-7.29-14.91-18.08,1.42-23.54,9.69-32.75,26.13-39.58l-1.95,24.73c-.2,2.76.33,4.47,1.34,4.06Z"/>
      <path d="M402.59,533.55c5.93-2.62,14.93-1.88,20.03,2.45l-2.11,19.63c-.32,2.98-1.96,5.31-3.28,4.65-2.65-1.31-5.98-2.48-9.34-3.34l-4.9-1.27c-.73-.15-1.55.64-2.12,2.22-.67,1.77-.33,3.43.79,3.71l4.54,1.42c10.62,3.42,13.12,6.75,11.76,19.47-.37,3.46-.92,29.69-22.99,38.63-8.98,3.64-15.72,1.89-20.45-2.91l1.63-18.89c.26-2.94,1.84-5.24,3.17-4.59,2.58,1.18,5.75,2.12,9.3,3.21l4.72,1.51c.78.28,1.6-.65,2.16-2.23.67-1.92.34-3.59-.68-3.92l-4.58-1.42c-8.8-5.51-12.16-4.42-10.59-22.38.88-10.07,5.86-28.55,22.93-35.97Z"/>
      <path d="M456.14,541.65c.35-2.86-.08-4.64-1.12-4.22l-1.72.71-4.06,33.34c-.23,1.91.71,2.73,2.24,2.11,6.79-2.91,13.15-6.1,19.76-12.42,1.3-1.28,2.32-.49,2.08,1.88l-1.26,18.54c-.11,1.41-.7,2.86-1.52,3.64-4.53,4.25-14.83,12.19-22.26,15.19-22.03,8.89-25.51-9.57-23.36-29.25,3-27.23,10.04-50.27,37.19-61.55,14.17-5.87,21.88,4.85,19.46,22.64-2.49,18.44-12.35,28.36-28.76,35.04l3.33-25.66Z"/>
    </g>
  </g>
  <g id="Layer_2">
    <path class="st1" d="M184.26,230.22c1.07,2.94,4.52,9.39,5.53,12.96,6.57,75.85,19.2,227.32,24.46,288.16,9.22.35,130.26-18.61,169.76-23.83,20.77-3.31,33.71-4.31,38.13-5.8-.15-19.6.18-55.89.03-84.69.02-42.57.02-164.53-.03-170.93-.23-.56-1.14-1.32-1.83-1.7-2.15-1.42-7.41-4.67-9.65-6.02-1.17-.5-1.91-1.29-2.86-1.19-10.53-.27-128.87-4.82-171.43-6.3-27.52-1.01-48.29-1.79-51.95-1.9-.56.05-.41.32-.21,1.05l.06.18Z"/>
    <path class="st1" d="M200.16,398.03"/>
    <path class="st1" d="M157.43,267.92c-.04.06,28.38-41.88,26.27-38.76-7.57,11.16-19.18,28.3-26.27,38.76h0Z"/>
    <path class="st1" d="M408.99,503.82c.02,6.38,0,19.71,0,25.27-.11,1.48.25,2.54-.72,2.97-18.36,3.3-44.61,8.18-69.85,12.73-53.9,9.36-117.55,22.28-122.85,21.85-7.7-14.28-23.91-45.32-31.59-59.96-1.68-11.53-20.06-182.98-26.54-240.81"/>
    <path class="st1" d="M215.75,567.06c-.09-2.53-1.19-32.6-1.28-35.13"/>
    <path class="st0" d="M205.19,265.98c47.52-.26,162.62-.08,198.46-.13,1.45.08,2.28-.44,2.24,1.01.14,8.83,2.14,100.31,2.77,131.6.18,10.18.41,16.74.32,17.69-.09.35-.29.36-.67.42-12.83,1.05-141.48,13.82-184.39,17.74-1.25-2.24-15.01-134.94-18.76-168.3l.02-.02Z"/>
    <path class="st1" d="M321.06,463.57c-.22,1.83-.25,5.91.19,7.04.29.73.87.59,1.53.54,10.37-1.16,72.4-7.87,79.67-8.76.6-.1.87-.8.94-1.45.04-2.28.65-6.83-.49-8.38-16.91,1.46-47.01,5.7-65.21,7.71-7.98,1-13.97,1.64-15.81,1.96-.5.17-.64.49-.77,1.11l-.04.22Z"/>
    <path class="st1" d="M234.02,540.63c2.32-.45,7.52-1.47,9.66-1.57.26,2.58.11,7.58.06,10.26-.28.44-2.1.14-2.91.22-1.33-.05-4.91.13-5.18-.12-.62-1.76-1.33-6.58-1.69-8.7l.05-.08Z"/>
  </g>
</svg>