<?xml version="1.0" encoding="UTF-8"?>
<svg id="Layer_1" xmlns="http://www.w3.org/2000/svg" version="1.1" viewBox="0 0 501.4598425 139.0305512">
  <!-- Generator: Adobe Illustrator 29.8.1, SVG Export Plug-In . SVG Version: 2.1.1 Build 2)  -->
  <defs>
    <style>
      .st0 {
        fill: #fff;
      }
    </style>
  </defs>
  <rect class="st0" width="501.4598425" height="139.0305512"/>
  <g id="Layer_11" data-name="Layer_1">
    <g>
      <path d="M35.1899261,43.1102768l-3.0799999,2.9699993v9.2800007h-2.6999998V20.8502761h2.6999998v22.0800004l2.5400009-2.7399998,9.2999992-9.1400003h3.3899994l-10.3100014,10.2400007,11.2099991,14.0600014h-3.2099991s-9.8400002-12.2399998-9.8399982-12.2400017Z"/>
      <path d="M59.3799266,55.8102776c-2.0699997,0-3.9399986-.5099983-5.5999985-1.5299988s-2.9700012-2.4399986-3.9000015-4.2599983-1.3899994-3.8600006-1.3899994-6.1199989v-.9699993c0-2.3400002.4500008-4.4400005,1.3600006-6.3099995.9099998-1.8700008,2.170002-3.3400002,3.7900009-4.4099998s3.3699989-1.6099997,5.2599983-1.6099997c2.9500008,0,5.2900009,1.0100002,7.0200005,3.0199995,1.7299995,2.0100002,2.5900002,4.7700005,2.5900002,8.2600002v1.5h-17.3400002v.5200005c0,2.7600002.7900009,5.0500011,2.3699989,6.8900013s3.5699997,2.75,5.9599991,2.75c1.4399986,0,2.7099991-.2599983,3.8100014-.7900009,1.0999985-.5200005,2.0999985-1.3600006,3-2.5200005l1.6800003,1.2799988c-1.9799995,2.8600006-4.8400002,4.2900009-8.6000023,4.2900009l-.0099983.0099945ZM58.8799266,32.8902756c-2.0200005,0-3.7299995.7399998-5.1100006,2.2199993s-2.2299995,3.4699993-2.5299988,5.9799995h14.579998v-.2900009c-.0800018-2.3400002-.7400017-4.2399998-2-5.710001-1.2599983-1.4699993-2.9099998-2.2000008-4.9399986-2.1999969Z"/>
      <path d="M84.2999286,33.3402764c-.5699997-.1000004-1.1800003-.1599998-1.8199997-.1599998-1.6800003,0-3.0999985.4699993-4.2600021,1.3999996-1.1599998.9400005-1.9900017,2.289999-2.4799995,4.0799999v16.6899986h-2.670002v-24.2999983h2.6300011l.0400009,3.8599997c1.4199982-2.8800011,3.7099991-4.3099995,6.8500023-4.3099995.75,0,1.3399963.1000004,1.7699966.29l-.0699997,2.4499998h.0100021Z"/>
      <path d="M90.5199222,31.0502764l.0899963,4.1599989c.9100037-1.5,2.0500031-2.6399994,3.4100037-3.4300003,1.3600006-.79,2.8700027-1.1800003,4.5199966-1.1800003,2.6100006,0,4.5500031.7299995,5.8199997,2.2000008,1.2699966,1.4699993,1.9199982,3.6700001,1.9300003,6.6000004v15.9499989h-2.6699982v-15.9700012c-.0199966-2.1700001-.4800034-3.7900009-1.3799973-4.8500004s-2.3499985-1.6000004-4.3499985-1.6000004c-1.6600037,0-3.1299973.5200005-4.4100037,1.5599995-1.2799988,1.039999-2.2300034,2.4400005-2.8399963,4.210001v16.6500015h-2.6699982v-24.2999983h2.5599976-.0100021Z"/>
      <path d="M111.9499225,24.0302759c0-.5100002.1600037-.9299998.4899979-1.2799997.3300018-.3499999.7799988-.52,1.3499985-.52s1.0199966.1799998,1.3600006.52.5100021.7799997.5100021,1.2799997-.1699982.9300003-.5100021,1.2699995-.7900009.5100002-1.3600006.5100002-1.0199966-.1700001-1.3499985-.5100002-.4899979-.7700005-.4899979-1.2699995ZM115.1199283,55.3602768h-2.6999969v-24.3100004h2.6999969v24.3100004Z"/>
      <path d="M123.9699268,31.0502764l.0899963,4.1599989c.9100037-1.5,2.0500031-2.6399994,3.4100037-3.4300003,1.3600006-.79,2.8700027-1.1800003,4.5199966-1.1800003,2.6100006,0,4.5500031.7299995,5.8199997,2.2000008,1.2699966,1.4699993,1.9199982,3.6700001,1.9300003,6.6000004v15.9499989h-2.6699982v-15.9700012c-.0199966-2.1700001-.4800034-3.7900009-1.3799973-4.8500004s-2.3499985-1.6000004-4.3499985-1.6000004c-1.6600037,0-3.1299973.5200005-4.409996,1.5599995s-2.2300034,2.4400005-2.8399963,4.210001v16.6500015h-2.6699982v-24.2999983h2.5599976-.0100098Z"/>
      <path d="M144.7699298,42.9802757c0-3.7999992.8399963-6.8199997,2.5299988-9.0400009,1.6900024-2.2200003,3.9700012-3.3400002,6.8600006-3.3400002,3.3099976,0,5.8300018,1.3199997,7.5500031,3.9500008l.1300049-3.5h2.5200043v23.8100014c0,3.1300011-.8800049,5.6100006-2.6300049,7.4399986-1.75,1.8300018-4.1300049,2.7400017-7.1199951,2.7400017-1.6900024,0-3.3099976-.3800011-4.8399963-1.1300011-1.5399933-.7599983-2.7400055-1.7599983-3.6300049-3.0200005l1.5099945-1.6199989c1.8999939,2.3400002,4.1600037,3.5,6.7799988,3.5,2.25,0,4-.6599998,5.2599945-1.9900017s1.9100037-3.1599998,1.9499969-5.5200005v-3.0600014c-1.7200012,2.4000015-4.2299957,3.5900002-7.5299988,3.5900002-2.8200073,0-5.0800018-1.1199989-6.7799988-3.3699989-1.7100067-2.25-2.5599976-5.2800007-2.5599976-9.1000004v-.3600006.0200024ZM147.489931,43.450277c0,3.1000004.6199951,5.5499992,1.8600006,7.329998s3,2.6800003,5.2599945,2.6800003c3.3099976,0,5.6499939-1.4799995,7.0299988-4.4500008v-11.2999992c-.6300049-1.5599995-1.5399933-2.7399998-2.7200012-3.5599995-1.1799927-.8199997-2.6100006-1.2199993-4.2700043-1.2199993-2.2599945,0-4.0200043.8899994-5.2799988,2.6599998s-1.8899994,4.3899994-1.8899994,7.8500004l.0100098.0100002Z"/>
      <path d="M170.3599261,61.4702774l-1.6000061-1.1699982c1.3600006-1.8300018,2.0700073-3.7200012,2.1100006-5.6800003v-3.4799995h2.6300049v2.8100014c0,3.1100006-1.0500031,5.6199989-3.1499939,7.5299988l.0099945-.0100021Z"/>
      <path d="M193.9199237,55.3602768h-2.6999969V20.8502761h2.6999969v34.5100007Z"/>
      <path d="M209.8099231,55.8102776c-2.0700073,0-3.9400024-.5099983-5.6000061-1.5299988s-2.9700012-2.4399986-3.8999939-4.2599983-1.3899994-3.8600006-1.3899994-6.1199989v-.9699993c0-2.3400002.4499969-4.4400005,1.3600006-6.3099995.9100037-1.8700008,2.1699982-3.3400002,3.7899933-4.4099998s3.3699951-1.6099997,5.2599945-1.6099997c2.9499969,0,5.2899933,1.0100002,7.0200043,3.0199995,1.7299957,2.0100002,2.5899963,4.7700005,2.5899963,8.2600002v1.5h-17.3399963v.5200005c0,2.7600002.7899933,5.0500011,2.3699951,6.8900013s3.5700073,2.75,5.9600067,2.75c1.4400024,0,2.7100067-.2599983,3.8099976-.7900009,1.1000061-.5200005,2.1000061-1.3600006,3-2.5200005l1.6799927,1.2799988c-1.9799957,2.8600006-4.8399963,4.2900009-8.6000061,4.2900009l-.0099792.0099945ZM209.3099231,32.8902756c-2.0200043,0-3.7299957.7399998-5.1100006,2.2199993s-2.2299957,3.4699993-2.5299988,5.9799995h14.5800018v-.2900009c-.0800018-2.3400002-.7400055-4.2399998-2-5.710001-1.2599945-1.4699993-2.9100037-2.2000008-4.9400024-2.1999969Z"/>
      <path d="M227.4499225,24.8302761v6.2199993h5.0299988v2.2000008h-5.0299988v16.2099991c0,1.3499985.2400055,2.3499985.7299957,3.0099983s1.3000031.9900017,2.4400024.9900017c.4499969,0,1.1799927-.0699997,2.1799927-.2200012l.1100006,2.1800003c-.6999969.25-1.6600037.3800011-2.8800049.3800011-1.8399963,0-3.1799927-.5400009-4.0200043-1.6100006-.8399963-1.0699997-1.2599945-2.6500015-1.2599945-4.7299995v-16.2199993h-4.4700012v-2.1999998h4.4700012v-6.2200003h2.6999969l.0000153.0100002Z"/>
      <path d="M242.4999255,24.8302761v6.2199993h5.0299988v2.2000008h-5.0299988v16.2099991c0,1.3499985.2400055,2.3499985.7299957,3.0099983.4900055.6599998,1.3000031.9900017,2.4400024.9900017.4499969,0,1.1699982-.0699997,2.1799927-.2200012l.1100006,2.1800003c-.7100067.25-1.6600037.3800011-2.8800049.3800011-1.8399963,0-3.1799927-.5400009-4.0200043-1.6100006-.8399963-1.0699997-1.2599945-2.6500015-1.2599945-4.7299995v-16.2199993h-4.4700012v-2.1999998h4.4700012v-6.2200003h2.6999969l.0000153.0100002Z"/>
      <path d="M260.4699268,55.8102776c-2.0700073,0-3.9400024-.5099983-5.6000061-1.5299988-1.6699982-1.0200005-2.9700012-2.4399986-3.8999939-4.2599983s-1.3899994-3.8600006-1.3899994-6.1199989v-.9699993c0-2.3400002.4499969-4.4400005,1.3600006-6.3099995.9100037-1.8700008,2.1699982-3.3400002,3.7899933-4.4099998s3.3699951-1.6099997,5.2599945-1.6099997c2.9499969,0,5.2899933,1.0100002,7.0200043,3.0199995,1.7299957,2.0100002,2.5899963,4.7700005,2.5899963,8.2600002v1.5h-17.3399963v.5200005c0,2.7600002.7899933,5.0500011,2.3699951,6.8900013,1.5800018,1.8300018,3.5700073,2.75,5.9600067,2.75,1.4400024,0,2.7100067-.2599983,3.8099976-.7900009,1.1000061-.5200005,2.1000061-1.3600006,3-2.5200005l1.6799927,1.2799988c-1.9799957,2.8600006-4.8399963,4.2900009-8.6000061,4.2900009l-.0099792.0099945ZM259.9699268,32.8902756c-2.0200043,0-3.7299957.7399998-5.1100006,2.2199993-1.3899994,1.4799995-2.2299957,3.4699993-2.5299988,5.9799995h14.5800018v-.2900009c-.0800018-2.3400002-.7400055-4.2399998-2-5.710001-1.2599945-1.4699993-2.9100037-2.2000008-4.9400024-2.1999969Z"/>
      <path d="M285.3999194,33.3402764c-.5700073-.1000004-1.1799927-.1599998-1.8200073-.1599998-1.6799927,0-3.1000061.4699993-4.2600098,1.3999996-1.1600037.9400005-1.9899902,2.289999-2.480011,4.0799999v16.6899986h-2.6700134v-24.2999983h2.6300049l.0400085,3.8599997c1.4200134-2.8800011,3.7099915-4.3099995,6.8500061-4.3099995.75,0,1.3399963.1000004,1.769989.29l-.0700073,2.4499998h.0100403Z"/>
      <path d="M303.3899402,49.1802765c0-1.3299999-.5400085-2.3999996-1.6099854-3.2099991-1.0700073-.8099995-2.6799927-1.4400005-4.8399963-1.8999996s-3.8299866-.9799995-5.019989-1.5699997-2.0700073-1.3099995-2.6499939-2.1700001c-.5799866-.8500004-.8699951-1.8899994-.8699951-3.1000004,0-1.9200001.7999878-3.5,2.3999939-4.75s3.6499939-1.8800001,6.1600037-1.8800001c2.7099915,0,4.8900146.6700001,6.5299988,2.0099993,1.6400146,1.3400002,2.4599915,3.0900002,2.4599915,5.25h-2.7000122c0-1.4200001-.6000061-2.6100006-1.7900085-3.5499992s-2.6900024-1.4200001-4.5-1.4200001-3.1900024.3899994-4.2600098,1.1800003-1.6099854,1.8099995-1.6099854,3.0699997.4500122,2.1499996,1.3399963,2.8199997c.8900146.6700001,2.519989,1.2800007,4.8699951,1.8299999,2.3599854.5499992,4.1300049,1.1499996,5.2999878,1.7700005,1.1799927.6299992,2.0499878,1.3899994,2.6199951,2.2700005.5700073.8799992.8500061,1.9500008.8500061,3.2099991,0,2.0499992-.8299866,3.6899986-2.480011,4.9199982s-3.8200073,1.8400002-6.480011,1.8400002c-2.8299866,0-5.1300049-.6899986-6.8900146-2.0600014-1.7600098-1.3699989-2.6400146-3.0999985-2.6400146-5.2000008h2.7000122c.1000061,1.5699997.769989,2.7999992,1.9899902,3.670002,1.2200012.8800011,2.8299866,1.3100014,4.8399963,1.3100014,1.8699951,0,3.3800049-.4099998,4.5400085-1.2400017,1.1499939-.8199997,1.730011-1.8600006,1.730011-3.1199989l.0100403.0200005Z"/>
      <path d="M330.7699145,43.450277c0,3.7900009-.8399963,6.7999992-2.519989,9.0200005s-3.9200134,3.3400002-6.7399902,3.3400002c-3.3200073,0-5.8699951-1.1699982-7.6400146-3.5v12.3999977h-2.6700134V31.0502764h2.4899902l.1300049,3.4399996c1.75-2.5900002,4.2900085-3.8900003,7.6199951-3.8900003,2.9100037,0,5.1900024,1.1000004,6.8399963,3.3000002,1.6499939,2.2000008,2.480011,5.2600002,2.480011,9.1700001v.3799992l.0100098.0000019ZM328.0699329,42.9802757c0-3.1000004-.6400146-5.5499992-1.9100037-7.3500004-1.269989-1.7999992-3.0499878-2.7000008-5.3200073-2.7000008-1.6499939,0-3.0599976.3999996-4.25,1.1900005-1.1799927.7900009-2.0899963,1.9500008-2.7200012,3.4599991v11.6599998c.6400146,1.3899994,1.5599976,2.4599991,2.7600098,3.1899986s2.6099854,1.0999985,4.25,1.0999985c2.2600098,0,4.019989-.9000015,5.2900085-2.7099991s1.8999939-4.4200001,1.8999939-7.8500004v.010004Z"/>
      <path d="M351.0999316,55.3602768c-.269989-.7599983-.4400024-1.8899994-.519989-3.3899994-.9400024,1.2299995-2.1499939,2.1800003-3.6099854,2.8400002-1.4599915.6699982-3.0100098,1-4.6400146,1-2.3399963,0-4.230011-.6500015-5.6700134-1.9500008-1.4500122-1.2999992-2.1700134-2.9500008-2.1700134-4.9399986,0-2.3699989.9899902-4.2399998,2.9500122-5.6199989,1.9700012-1.3799992,4.7099915-2.0699997,8.230011-2.0699997h4.8800049v-2.7600002c0-1.7399998-.5400085-3.1000004-1.6099854-4.1000004-1.0700073-1-2.6300049-1.4899998-4.6799927-1.4899998-1.8699951,0-3.4200134.4799995-4.6499939,1.4400005-1.230011.9599991-1.8399963,2.1100006-1.8399963,3.4599991l-2.7000122-.0200005c0-1.9300003.8999939-3.6100006,2.7000122-5.0200005,1.7999878-1.4200001,4.0100098-2.1199999,6.6300049-2.1199999s4.8500061.6800003,6.4100037,2.0299997c1.5700073,1.3600006,2.3699951,3.25,2.4200134,5.6700001v11.4999981c0,2.3499985.25,4.1100006.7399902,5.2799988v.2700005h-2.8800049l.0099487-.0099983ZM342.6499194,53.4302765c1.7999878,0,3.3999939-.4300003,4.8200073-1.2999992s2.4400024-2.0299988,3.0899963-3.4799995v-5.3500004h-4.8099976c-2.6799927.0300007-4.7799988.5200005-6.2900085,1.4699993-1.5100098.9500008-2.269989,2.2600002-2.269989,3.920002,0,1.3600006.5,2.4900017,1.519989,3.3899994,1.0100098.9000015,2.3299866,1.3499985,3.9400024,1.3499985Z"/>
      <path d="M363.2499255,24.8302761v6.2199993h5.0299988v2.2000008h-5.0299988v16.2099991c0,1.3499985.2399902,2.3499985.730011,3.0099983.4899902.6599998,1.2999878.9900017,2.4400024.9900017.4500122,0,1.1700134-.0699997,2.1799927-.2200012l.1099854,2.1800003c-.7000122.25-1.6600037.3800011-2.8800049.3800011-1.8399963,0-3.1799927-.5400009-4.019989-1.6100006s-1.2600098-2.6500015-1.2600098-4.7299995v-16.2199993h-4.4700012v-2.1999998h4.4700012v-6.2200003h2.7000122v.0100002Z"/>
      <path d="M372.4299182,24.0302759c0-.5100002.1700134-.9299998.5-1.2799997s.7799988-.52,1.3500061-.52,1.019989.1799998,1.3599854.52c.3399963.3499999.5100098.7799997.5100098,1.2799997s-.1700134.9300003-.5100098,1.2699995c-.3399963.3400002-.7900085.5100002-1.3599854.5100002s-1.019989-.1700001-1.3500061-.5100002c-.3299866-.3400002-.5-.7700005-.5-1.2699995ZM375.5999316,55.3602768h-2.7000122v-24.3100004h2.7000122v24.3100004Z"/>
      <path d="M391.3799304,55.8102776c-2.0700073,0-3.9400024-.5099983-5.6000061-1.5299988-1.6700134-1.0200005-2.9700012-2.4399986-3.8999939-4.2599983s-1.3900146-3.8600006-1.3900146-6.1199989v-.9699993c0-2.3400002.4500122-4.4400005,1.3599854-6.3099995.9100037-1.8700008,2.1700134-3.3400002,3.7900085-4.4099998s3.3699951-1.6099997,5.2600098-1.6099997c2.9500122,0,5.2900085,1.0100002,7.019989,3.0199995,1.730011,2.0100002,2.5899963,4.7700005,2.5899963,8.2600002v1.5h-17.3399963v.5200005c0,2.7600002.7900085,5.0500011,2.3699951,6.8900013,1.5799866,1.8300018,3.5700073,2.75,5.9599915,2.75,1.4400024,0,2.7099915-.2599983,3.8099976-.7900009,1.1000061-.5200005,2.1000061-1.3600006,3-2.5200005l1.6799927,1.2799988c-1.980011,2.8600006-4.8399963,4.2900009-8.6000061,4.2900009l-.0099487.0099945ZM390.8799304,32.8902756c-2.019989,0-3.730011.7399998-5.1099854,2.2199993-1.3900146,1.4799995-2.230011,3.4699993-2.5299988,5.9799995h14.5799866v-.2900009c-.0799866-2.3400002-.7399902-4.2399998-2-5.710001-1.2600098-1.4699993-2.9100037-2.2000008-4.9400024-2.1999969ZM384.459917,24.0002762c0-.5100002.1600037-.9400001.4899902-1.29s.7799988-.5299997,1.3500061-.5299997,1.019989.1799998,1.3599854.5299997.5.7799997.5,1.29-.1700134.9099998-.5,1.2600002c-.3399963.3400002-.7900085.5200005-1.3599854.5200005s-1.019989-.1700001-1.3500061-.5200005c-.3299866-.3400002-.4899902-.7600002-.4899902-1.2600002ZM394.2999133,24.0202767c0-.5100002.1700134-.9400001.4899902-1.29.3299866-.3499999.7799988-.5299997,1.3500061-.5299997s1.019989.1799998,1.3599854.5299997.5100098.7799997.5100098,1.29-.1700134.9099998-.5100098,1.2600002c-.3399963.3400002-.7900085.5200005-1.3599854.5200005s-1.019989-.1700001-1.3500061-.5200005c-.3299866-.3400002-.4899902-.7600002-.4899902-1.2600002Z"/>
      <path d="M416.3099231,33.3402764c-.5700073-.1000004-1.1799927-.1599998-1.8200073-.1599998-1.6799927,0-3.1000061.4699993-4.2600098,1.3999996-1.1600037.9400005-1.9899902,2.289999-2.480011,4.0799999v16.6899986h-2.6700134v-24.2999983h2.6300049l.0400085,3.8599997c1.4200134-2.8800011,3.7099915-4.3099995,6.8500061-4.3099995.75,0,1.3399963.1000004,1.769989.29l-.0700073,2.4499998h.0100403Z"/>
      <path d="M419.6299304,24.0302759c0-.5100002.1700134-.9299998.5-1.2799997s.7799988-.52,1.3500061-.52,1.019989.1799998,1.3599854.52c.3399963.3499999.5100098.7799997.5100098,1.2799997s-.1700134.9300003-.5100098,1.2699995c-.3399963.3400002-.7900085.5100002-1.3599854.5100002s-1.019989-.1700001-1.3500061-.5100002c-.3299866-.3400002-.5-.7700005-.5-1.2699995ZM422.7999133,55.3602768h-2.7000122v-24.3100004h2.7000122v24.3100004Z"/>
      <path d="M431.6499194,31.0502764l.0899963,4.1599989c.9100037-1.5,2.0499878-2.6399994,3.4100037-3.4300003,1.3599854-.79,2.8699951-1.1800003,4.519989-1.1800003,2.6099854,0,4.5400085.7299995,5.8200073,2.2000008,1.269989,1.4699993,1.9200134,3.6700001,1.9299927,6.6000004v15.9499989h-2.6700134v-15.9700012c-.019989-2.1700001-.480011-3.7900009-1.3800049-4.8500004s-2.3599854-1.6000004-4.3500061-1.6000004c-1.6600037,0-3.1300049.5200005-4.4100037,1.5599995s-2.230011,2.4400005-2.8399963,4.210001v16.6500015h-2.6700134v-24.2999983h2.5599976-.0099487Z"/>
      <path d="M452.4499377,42.9802757c0-3.7999992.8399963-6.8199997,2.5299988-9.0400009,1.6799927-2.2200003,3.9700012-3.3400002,6.8599854-3.3400002,3.3099976,0,5.8299866,1.3199997,7.5499878,3.9500008l.1300049-3.5h2.519989v23.8100014c0,3.1300011-.8800049,5.6100006-2.6300049,7.4399986s-4.1300049,2.7400017-7.1199951,2.7400017c-1.6900024,0-3.3099976-.3800011-4.8399963-1.1300011-1.5400085-.7599983-2.75-1.7599983-3.6300049-3.0200005l1.5-1.6199989c1.8999939,2.3400002,4.1600037,3.5,6.7799988,3.5,2.25,0,4-.6599998,5.2600098-1.9900017s1.9100037-3.1599998,1.9500122-5.5200005v-3.0600014c-1.7200012,2.4000015-4.230011,3.5900002-7.5299988,3.5900002-2.8200073,0-5.0799866-1.1199989-6.7799988-3.3699989-1.7099915-2.25-2.5599976-5.2800007-2.5599976-9.1000004v-.3600006l.0100098.0200024ZM455.169939,43.450277c0,3.1000004.6199951,5.5499992,1.8599854,7.329998s3,2.6800003,5.2600098,2.6800003c3.3099976,0,5.6499939-1.4799995,7.0299988-4.4500008v-11.2999992c-.6300049-1.5599995-1.5400085-2.7399998-2.7200012-3.5599995s-2.6099854-1.2199993-4.269989-1.2199993c-2.2600098,0-4.019989.8899994-5.2799988,2.6599998s-1.8900146,4.3899994-1.8900146,7.8500004l.0100098.0100002Z"/>
      <path d="M25.2799253,98.3202759l-3.0799999,2.9700012v9.2799988h-2.7v-34.5h2.7v22.0800018l2.54-2.7399979,9.3000011-9.1399994h3.3899994l-10.3100004,10.2399979,11.21,14.0599976h-3.210001l-9.8400002-12.2399979.000001-.0100021Z"/>
      <path d="M50.9999255,111.0102783c-2.0699997,0-3.9400005-.5100021-5.6000004-1.5299988s-2.9699993-2.4400024-3.8999996-4.2600021-1.3899994-3.8600006-1.3899994-6.1200027v-.9700012c0-2.3399963.4500008-4.4400024,1.3600006-6.3099976.9099998-1.8700027,2.1700001-3.3399963,3.7900009-4.409996s3.3699989-1.6100006,5.2600021-1.6100006c2.9500008,0,5.2900009,1.0100021,7.0200005,3.0199966,1.7299995,2.0100021,2.5900002,4.7699966,2.5900002,8.2600021v1.5h-17.3400002v.5199966c0,2.7600021.7900009,5.0500031,2.3699989,6.8899994s3.5699997,2.75,5.9599991,2.75c1.4399986,0,2.7099991-.2600021,3.8100014-.7900009,1.0999985-.5199966,2.0999985-1.3600006,3-2.5199966l1.6800003,1.2799988c-1.9799995,2.8600006-4.8400002,4.2900009-8.6000023,4.2900009l-.0100021.0100021ZM50.5099239,88.1002747c-2.0200005,0-3.7299995.7399979-5.1100006,2.2200012s-2.2299995,3.4700012-2.5300007,5.9800034h14.5799999v-.2900009c-.0800018-2.3399963-.7400017-4.2399979-2-5.7099991s-2.9099998-2.1999969-4.9399986-2.2000046Z"/>
      <path d="M76.5899257,88.5502793c-.5699997-.0999985-1.1800003-.1600037-1.8199997-.1600037-1.6800003,0-3.0999985.4700012-4.2599983,1.4000015-1.1599998.9400024-1.9900017,2.2900009-2.4799995,4.0800018v16.6900024h-2.670002v-24.3099976h2.6300011l.0400009,3.8600006c1.4199982-2.8799973,3.7099991-4.3099976,6.8499985-4.3099976.75,0,1.3400002.0999985,1.7700005.2900009l-.0699997,2.4499969.0099983.0099945Z"/>
      <path d="M83.3899249,86.2602783l.0899963,4.159996c.9100037-1.5,2.0500031-2.6399994,3.4100037-3.4300003s2.8700027-1.1800003,4.5199966-1.1800003c2.6100006,0,4.5500031.7300034,5.8199997,2.1999969,1.2699966,1.4700012,1.9199982,3.6699982,1.9300003,6.5999985v15.9499969h-2.6699982v-15.9700012c-.0199966-2.1699982-.4800034-3.7900009-1.3799973-4.8499985s-2.3499985-1.5999985-4.3499985-1.5999985c-1.6600037,0-3.1299973.5199966-4.409996,1.5599976s-2.2300034,2.4400024-2.8399963,4.2099991v16.6500015h-2.6699982v-24.3099976h2.5599976l-.0100098.0100098Z"/>
      <path d="M105.9499225,79.2402779c0-.5099983.1600037-.9300003.4899979-1.2799988.3300018-.3499985.7799988-.5200005,1.3499985-.5200005s1.0199966.1800003,1.3600006.5200005.5100021.7799988.5100021,1.2799988-.1699982.9299965-.5100021,1.2700005-.7900009.5100021-1.3600006.5100021-1.0199966-.1699982-1.3499985-.5100021c-.3300018-.3399963-.4899979-.7700005-.4899979-1.2700005ZM109.1099261,110.5702759h-2.6999969v-24.3099976h2.6999969v24.3099976Z"/>
      <path d="M118.9799289,86.2602783l.0899963,4.159996c.9100037-1.5,2.0500031-2.6399994,3.4100037-3.4300003s2.8700027-1.1800003,4.5199966-1.1800003c2.6100006,0,4.5500031.7300034,5.8199997,2.1999969,1.2699966,1.4700012,1.9199982,3.6699982,1.9300003,6.5999985v15.9499969h-2.6699982v-15.9700012c-.0199966-2.1699982-.4800034-3.7900009-1.3799973-4.8499985s-2.3499985-1.5999985-4.3499985-1.5999985c-1.6600037,0-3.1299973.5199966-4.4100037,1.5599976-1.2799988,1.0400009-2.2300034,2.4400024-2.8399963,4.2099991v16.6500015h-2.6699982v-24.3099976h2.5599976l-.0100021.0100098Z"/>
      <path d="M140.6099261,98.1902786c0-3.8000031.8399963-6.8199997,2.5299988-9.0400009s3.9700012-3.3399963,6.8600006-3.3399963c3.3099976,0,5.8300018,1.3199997,7.5500031,3.9499969l.1300049-3.5h2.5200043v23.8099976c0,3.1299973-.8800049,5.6100006-2.6300049,7.4400024s-4.1300049,2.7399979-7.1199951,2.7399979c-1.6900024,0-3.3099976-.3799973-4.8399963-1.1299973-1.5399933-.7600021-2.7399979-1.7600021-3.6299973-3.0199966l1.5100021-1.6200027c1.8999939,2.3399963,4.1600037,3.5,6.7799988,3.5,2.25,0,4-.6600037,5.2599945-1.9899979,1.2599945-1.3300018,1.9100037-3.1600037,1.9499969-5.5199966v-3.0599976c-1.7200012,2.4000015-4.2299957,3.5899963-7.5299988,3.5899963-2.8200073,0-5.0800018-1.1200027-6.7799988-3.3700027-1.7099991-2.25-2.5599976-5.2799988-2.5599976-9.0999985v-.3600006l-.0000153.0199966ZM143.3299274,98.6602799c0,3.0999985.6200027,5.5500031,1.8600006,7.3300018,1.2399902,1.7799988,3,2.6800003,5.2599945,2.6800003,3.3099976,0,5.6499939-1.4800034,7.0299988-4.4499969v-11.3000031c-.6300049-1.5599976-1.5399933-2.7399979-2.7200012-3.5599976-1.1799927-.8199997-2.6100006-1.2200012-4.2700043-1.2200012-2.2599945,0-4.0200043.8899994-5.2799988,2.6600037-1.2600021,1.7699966-1.8899994,4.3899994-1.8899994,7.8499985l.0100098.0099945Z"/>
      <path d="M166.6399249,116.6802765l-1.6000061-1.1699982c1.3600006-1.8300018,2.0700073-3.7200012,2.1100006-5.6800003v-3.4800034h2.6300049v2.8099976c0,3.1100006-1.0500031,5.6200027-3.1499939,7.5299988l.0099945-.0099945Z"/>
      <path d="M190.2099322,110.5702759h-2.6999969v-34.5h2.6999969v34.5Z"/>
      <path d="M206.9199237,111.0102783c-2.0700073,0-3.9400024-.5100021-5.6000061-1.5299988s-2.9700012-2.4400024-3.8999939-4.2600021-1.3899994-3.8600006-1.3899994-6.1200027v-.9700012c0-2.3399963.4499969-4.4400024,1.3600006-6.3099976.9100037-1.8700027,2.1699982-3.3399963,3.7899933-4.409996s3.3699951-1.6100006,5.2599945-1.6100006c2.9499969,0,5.2899933,1.0100021,7.0200043,3.0199966,1.7299957,2.0100021,2.5899963,4.7699966,2.5899963,8.2600021v1.5h-17.3399963v.5199966c0,2.7600021.7899933,5.0500031,2.3699951,6.8899994s3.5700073,2.75,5.9600067,2.75c1.4400024,0,2.7100067-.2600021,3.8099976-.7900009,1.1000061-.5199966,2.1000061-1.3600006,3-2.5199966l1.6799927,1.2799988c-1.9799957,2.8600006-4.8399963,4.2900009-8.6000061,4.2900009l-.0099792.0100021ZM206.4299182,88.1002747c-2.0200043,0-3.7299957.7399979-5.1100006,2.2200012s-2.2299957,3.4700012-2.5299988,5.9800034h14.5800018v-.2900009c-.0800018-2.3399963-.7400055-4.2399979-2-5.7099991s-2.9100037-2.1999969-4.9400024-2.2000046Z"/>
      <path d="M225.4599322,80.0402771v6.2200012h5.0299988v2.1999969h-5.0299988v16.2099991c0,1.3499985.2400055,2.3499985.7299957,3.0100021s1.3000031.9899979,2.4400024.9899979c.4499969,0,1.1799927-.0699997,2.1799927-.2200012l.1100006,2.1800003c-.6999969.25-1.6600037.3799973-2.8800049.3799973-1.8399963,0-3.1799927-.5400009-4.0200043-1.6100006-.8399963-1.0699997-1.2599945-2.6500015-1.2599945-4.7300034v-16.2200012h-4.4700012v-2.1999969h4.4700012v-6.2200012h2.6999969l.0000153.0100098Z"/>
      <path d="M240.239931,80.0402771v6.2200012h5.0299988v2.1999969h-5.0299988v16.2099991c0,1.3499985.2400055,2.3499985.7299957,3.0100021.4900055.6600037,1.3000031.9899979,2.4400024.9899979.4499969,0,1.1699982-.0699997,2.1799927-.2200012l.1100006,2.1800003c-.7100067.25-1.6600037.3799973-2.8800049.3799973-1.8399963,0-3.1799927-.5400009-4.0200043-1.6100006-.8399963-1.0699997-1.2599945-2.6500015-1.2599945-4.7300034v-16.2200012h-4.4700012v-2.1999969h4.4700012v-6.2200012h2.6999969l.0000153.0100098Z"/>
      <path d="M260.2499255,111.0102783c-2.0700073,0-3.9400024-.5100021-5.6000061-1.5299988-1.6699982-1.0199966-2.9700012-2.4400024-3.8999939-4.2600021s-1.3899994-3.8600006-1.3899994-6.1200027v-.9700012c0-2.3399963.4499969-4.4400024,1.3600006-6.3099976.9100037-1.8700027,2.1699982-3.3399963,3.7899933-4.409996s3.3699951-1.6100006,5.2599945-1.6100006c2.9499969,0,5.2899933,1.0100021,7.0200043,3.0199966,1.7299957,2.0100021,2.5899963,4.7699966,2.5899963,8.2600021v1.5h-17.3399963v.5199966c0,2.7600021.7899933,5.0500031,2.3699951,6.8899994,1.5800018,1.8300018,3.5700073,2.75,5.9600067,2.75,1.4400024,0,2.7100067-.2600021,3.8099976-.7900009,1.1000061-.5199966,2.1000061-1.3600006,3-2.5199966l1.6799927,1.2799988c-1.9799957,2.8600006-4.8399963,4.2900009-8.6000061,4.2900009l-.0099792.0100021ZM259.75992,88.1002747c-2.0200043,0-3.7299957.7399979-5.1100006,2.2200012-1.3899994,1.4800034-2.2299957,3.4700012-2.5299988,5.9800034h14.5800018v-.2900009c-.0800018-2.3399963-.7400055-4.2399979-2-5.7099991s-2.9100037-2.1999969-4.9400024-2.2000046Z"/>
      <path d="M285.8399219,88.5502793c-.5700073-.0999985-1.1799927-.1600037-1.8200073-.1600037-1.6799927,0-3.1000061.4700012-4.2600098,1.4000015-1.1600037.9400024-1.9899902,2.2900009-2.480011,4.0800018v16.6900024h-2.6700134v-24.3099976h2.6300049l.0400085,3.8600006c1.4200134-2.8799973,3.7099915-4.3099976,6.8500061-4.3099976.75,0,1.3399963.0999985,1.769989.2900009l-.0700073,2.4499969.0100403.0099945Z"/>
      <path d="M304.6399402,104.3902756c0-1.3300018-.5400085-2.4000015-1.6099854-3.2099991-1.0700073-.8099976-2.6799927-1.4400024-4.8399963-1.9000015s-3.8299866-.9800034-5.019989-1.5699997-2.0700073-1.3099976-2.6499939-2.1699982c-.5799866-.8499985-.8699951-1.8899994-.8699951-3.0999985,0-1.9199982.7999878-3.5,2.3999939-4.75s3.6499939-1.8799973,6.1600037-1.8799973c2.7099915,0,4.8900146.6699982,6.5299988,2.0100021,1.6400146,1.3399963,2.4599915,3.0899963,2.4599915,5.25h-2.7000122c0-1.4199982-.6000061-2.6100006-1.7900085-3.5500031s-2.6900024-1.4199982-4.5-1.4199982-3.1900024.3899994-4.2600098,1.1800003-1.6099854,1.8099976-1.6099854,3.0699997.4500122,2.1500015,1.3399963,2.8199997c.8900146.6699982,2.519989,1.2799988,4.8699951,1.8300018,2.3599854.5500031,4.1300049,1.1500015,5.2999878,1.7699966,1.1799927.6299973,2.0499878,1.3899994,2.6199951,2.2699966s.8500061,1.9499969.8500061,3.2099991c0,2.0500031-.8299866,3.6900024-2.480011,4.9199982s-3.8200073,1.8399963-6.480011,1.8399963c-2.8299866,0-5.1300049-.6900024-6.8900146-2.0599976-1.7600098-1.3700027-2.6400146-3.0999985-2.6400146-5.1999969h2.7000122c.1000061,1.5699997.769989,2.8000031,1.9899902,3.6699982,1.2200012.8799973,2.8299866,1.3099976,4.8399963,1.3099976,1.8699951,0,3.3800049-.4100037,4.5400085-1.2399979,1.1499939-.8199997,1.730011-1.8600006,1.730011-3.1200027l.0100403.0200043Z"/>
      <path d="M332.919939,98.6602799c0,3.7900009-.8399963,6.8000031-2.519989,9.0200043s-3.9200134,3.3399963-6.7399902,3.3399963c-3.3200073,0-5.8699951-1.1699982-7.6400146-3.5v12.4000015h-2.6700134v-33.6500015h2.4899902l.1300049,3.4400024c1.75-2.5899963,4.2900085-3.8899994,7.6199951-3.8899994,2.9100037,0,5.1900024,1.0999985,6.8399963,3.3000031,1.6499939,2.1999969,2.480011,5.2600021,2.480011,9.1699982v.3799973l.0100098-.0100021ZM330.2299365,98.1902786c0-3.0999985-.6400146-5.5500031-1.9100037-7.3499985-1.269989-1.8000031-3.0499878-2.6999969-5.3200073-2.6999969-1.6499939,0-3.0599976.4000015-4.25,1.1900024-1.1799927.7900009-2.0899963,1.9499969-2.7200012,3.4599991v11.6600037c.6400146,1.3899994,1.5599976,2.4599991,2.7600098,3.1900024s2.6099854,1.0999985,4.25,1.0999985c2.2600098,0,4.019989-.9000015,5.2900085-2.7099991s1.8999939-4.4199982,1.8999939-7.8499985v.0099869Z"/>
      <path d="M354.2199268,110.5702759c-.269989-.7600021-.4400024-1.8899994-.519989-3.3899994-.9400024,1.2300034-2.1499939,2.1800003-3.6099854,2.8399963-1.4599915.6699982-3.0100098,1-4.6400146,1-2.3399963,0-4.230011-.6500015-5.6700134-1.9499969-1.4500122-1.3000031-2.1700134-2.9499969-2.1700134-4.9400024,0-2.3700027.9899902-4.2399979,2.9500122-5.6200027,1.9700012-1.3799973,4.7099915-2.0699997,8.230011-2.0699997h4.8800049v-2.7600021c0-1.7399979-.5400085-3.0999985-1.6099854-4.0999985-1.0700073-1-2.6300049-1.4899979-4.6799927-1.4899979-1.8699951,0-3.4200134.4800034-4.6499939,1.4400024-1.230011.9599991-1.8399963,2.1100006-1.8399963,3.4599991l-2.7000122-.0199966c0-1.9300003.8999939-3.6100006,2.7000122-5.0199966,1.7999878-1.4199982,4.0100098-2.1200027,6.6300049-2.1200027s4.8500061.6800003,6.4100037,2.0299988c1.5700073,1.3600006,2.3699951,3.25,2.4200134,5.6699982v11.5c0,2.3499985.25,4.1100006.7399902,5.2799988v.2699966h-2.8800049l.0099487-.0099945ZM345.7699145,108.6302735c1.7999878,0,3.3999939-.4300003,4.8200073-1.3000031s2.4400024-2.0299988,3.0899963-3.4800034v-5.3499985h-4.8099976c-2.6799927.0299988-4.7799988.5199966-6.2900085,1.4700012-1.5100098.9499969-2.269989,2.2600021-2.269989,3.9199982,0,1.3600006.5,2.4899979,1.519989,3.3899994,1.0100098.9000015,2.3299866,1.3499985,3.9400024,1.3500061Z"/>
      <path d="M367.6999377,80.0402771v6.2200012h5.0299988v2.1999969h-5.0299988v16.2099991c0,1.3499985.2399902,2.3499985.730011,3.0100021.4899902.6600037,1.2999878.9899979,2.4400024.9899979.4500122,0,1.1700134-.0699997,2.1799927-.2200012l.1099854,2.1800003c-.7000122.25-1.6600037.3799973-2.8800049.3799973-1.8399963,0-3.1799927-.5400009-4.019989-1.6100006s-1.2600098-2.6500015-1.2600098-4.7300034v-16.2200012h-4.4700012v-2.1999969h4.4700012v-6.2200012h2.7000122v.0100098Z"/>
      <path d="M378.1399402,79.2402779c0-.5099983.1700134-.9300003.5-1.2799988s.7799988-.5200005,1.3500061-.5200005,1.019989.1800003,1.3599854.5200005c.3399963.3499985.5100098.7799988.5100098,1.2799988s-.1700134.9299965-.5100098,1.2700005c-.3399963.3399963-.7900085.5100021-1.3599854.5100021s-1.019989-.1699982-1.3500061-.5100021c-.3299866-.3399963-.5-.7700005-.5-1.2700005ZM381.3099231,110.5702759h-2.7000122v-24.3099976h2.7000122v24.3099976Z"/>
      <path d="M398.0299243,111.0102783c-2.0700073,0-3.9400024-.5100021-5.6000061-1.5299988-1.6700134-1.0199966-2.9700012-2.4400024-3.8999939-4.2600021s-1.3900146-3.8600006-1.3900146-6.1200027v-.9700012c0-2.3399963.4500122-4.4400024,1.3599854-6.3099976.9100037-1.8700027,2.1700134-3.3399963,3.7900085-4.409996s3.3699951-1.6100006,5.2600098-1.6100006c2.9500122,0,5.2900085,1.0100021,7.019989,3.0199966,1.730011,2.0100021,2.5899963,4.7699966,2.5899963,8.2600021v1.5h-17.3399963v.5199966c0,2.7600021.7900085,5.0500031,2.3699951,6.8899994,1.5799866,1.8300018,3.5700073,2.75,5.9599915,2.75,1.4400024,0,2.7099915-.2600021,3.8099976-.7900009,1.1000061-.5199966,2.1000061-1.3600006,3-2.5199966l1.6799927,1.2799988c-1.980011,2.8600006-4.8399963,4.2900009-8.6000061,4.2900009l-.0099487.0100021ZM397.5299243,88.1002747c-2.019989,0-3.730011.7399979-5.1099854,2.2200012-1.3900146,1.4800034-2.230011,3.4700012-2.5299988,5.9800034h14.5799866v-.2900009c-.0799866-2.3399963-.7399902-4.2399979-2-5.7099991s-2.9100037-2.1999969-4.9400024-2.2000046ZM391.1099109,79.2102753c0-.5099983.1600037-.9399986.4899902-1.2900009.3299866-.3499985.7799988-.5299988,1.3500061-.5299988s1.019989.1800003,1.3599854.5299988.5.7799988.5,1.2900009-.1700134.9100037-.5,1.2600021c-.3399963.3399963-.7900085.5199966-1.3599854.5199966s-1.019989-.1699982-1.3500061-.5199966c-.3299866-.3399963-.4899902-.7599983-.4899902-1.2600021ZM400.9499377,79.2302757c0-.5099983.1700134-.9399986.4899902-1.2900009.3299866-.3499985.7799988-.5299988,1.3500061-.5299988s1.019989.1800003,1.3599854.5299988.5100098.7799988.5100098,1.2900009-.1700134.9099998-.5100098,1.2599983c-.3399963.3399963-.7900085.5199966-1.3599854.5199966s-1.019989-.1699982-1.3500061-.5199966c-.3299866-.3399963-.4899902-.7599983-.4899902-1.2599983Z"/>
      <path d="M423.6099109,88.5502793c-.5700073-.0999985-1.1799927-.1600037-1.8200073-.1600037-1.6799927,0-3.1000061.4700012-4.2600098,1.4000015-1.1600037.9400024-1.9899902,2.2900009-2.480011,4.0800018v16.6900024h-2.6700134v-24.3099976h2.6300049l.0400085,3.8600006c1.4200134-2.8799973,3.7099915-4.3099976,6.8500061-4.3099976.75,0,1.3399963.0999985,1.769989.2900009l-.0700073,2.4499969.0100403.0099945Z"/>
      <path d="M427.6999377,79.2402779c0-.5099983.1700134-.9300003.5-1.2799988s.7799988-.5200005,1.3500061-.5200005,1.019989.1800003,1.3599854.5200005c.3399963.3499985.5100098.7799988.5100098,1.2799988s-.1700134.9299965-.5100098,1.2700005c-.3399963.3399963-.7900085.5100021-1.3599854.5100021s-1.019989-.1699982-1.3500061-.5100021c-.3299866-.3399963-.5-.7700005-.5-1.2700005ZM430.8699206,110.5702759h-2.7000122v-24.3099976h2.7000122v24.3099976Z"/>
      <path d="M440.7299365,86.2602783l.0899963,4.159996c.9100037-1.5,2.0499878-2.6399994,3.4100037-3.4300003,1.3599854-.7900009,2.8699951-1.1800003,4.519989-1.1800003,2.6099854,0,4.5400085.7300034,5.8200073,2.1999969,1.269989,1.4700012,1.9200134,3.6699982,1.9299927,6.5999985v15.9499969h-2.6700134v-15.9700012c-.019989-2.1699982-.480011-3.7900009-1.3800049-4.8499985s-2.3599854-1.5999985-4.3500061-1.5999985c-1.6600037,0-3.1300049.5199966-4.4100037,1.5599976s-2.230011,2.4400024-2.8399963,4.2099991v16.6500015h-2.6700134v-24.3099976h2.5599976l-.0099487.0100098Z"/>
      <path d="M462.3599109,98.1902786c0-3.8000031.8399963-6.8199997,2.5299988-9.0400009,1.6799927-2.2200012,3.9700012-3.3399963,6.8599854-3.3399963,3.3099976,0,5.8299866,1.3199997,7.5499878,3.9499969l.1300049-3.5h2.519989v23.8099976c0,3.1299973-.8800049,5.6100006-2.6300049,7.4400024s-4.1300049,2.7399979-7.1199951,2.7399979c-1.6900024,0-3.3099976-.3799973-4.8399963-1.1299973-1.5400085-.7600021-2.75-1.7600021-3.6300049-3.0199966l1.5-1.6200027c1.8999939,2.3399963,4.1600037,3.5,6.7799988,3.5,2.25,0,4-.6600037,5.2600098-1.9899979,1.2600098-1.3300018,1.9100037-3.1600037,1.9500122-5.5199966v-3.0599976c-1.7200012,2.4000015-4.230011,3.5899963-7.5299988,3.5899963-2.8200073,0-5.0799866-1.1200027-6.7799988-3.3700027-1.7099915-2.25-2.5599976-5.2799988-2.5599976-9.0999985v-.3600006l.0100098.0199966ZM465.0799121,98.6602799c0,3.0999985.6199951,5.5500031,1.8599854,7.3300018s3,2.6800003,5.2600098,2.6800003c3.3099976,0,5.6499939-1.4800034,7.0299988-4.4499969v-11.3000031c-.6300049-1.5599976-1.5400085-2.7399979-2.7200012-3.5599976s-2.6099854-1.2200012-4.269989-1.2200012c-2.2600098,0-4.019989.8899994-5.2799988,2.6600037-1.2600098,1.7699966-1.8900146,4.3899994-1.8900146,7.8499985l.0100098.0099945Z"/>
    </g>
  </g>
</svg>