<?xml version="1.0" encoding="UTF-8"?>
<svg id="Layer_1" data-name="Layer 1" xmlns="http://www.w3.org/2000/svg" viewBox="0 0 512 256">
  <defs>
    <style>
      .cls-1 {
        fill: #fff;
      }
    </style>
  </defs>
  <rect class="cls-1" y="-128" width="512" height="512"/>
  <g>
    <path d="M42.5,94.84h10.39v31.16h11.02l18.67-31.16h11.44l-21.51,35.15v.21l22.87,38.71h-11.75l-19.72-33.99h-11.02v33.99h-10.39v-74.07Z"/>
    <path d="M99.94,115.82h10.18v31.68c0,7.34,1.47,13.22,9.97,13.22,10.81,0,17.21-9.55,17.21-20.04v-24.86h10.18v53.09h-9.86v-7.03c0-2.2.21-3.88.21-3.88h-.21c-2.2,5.25-9.13,12.17-19.51,12.17-11.96,0-18.15-6.3-18.15-20.35v-33.99Z"/>
    <path d="M160.86,115.82h9.86v7.03c0,2.1-.21,3.88-.21,3.88h.21c2.1-4.62,8.39-12.17,19.93-12.17,12.48,0,18.26,6.82,18.26,20.35v33.99h-10.18v-31.68c0-7.45-1.57-13.32-10.07-13.32s-14.58,5.35-16.79,13.01c-.63,2.1-.84,4.51-.84,7.13v24.86h-10.18v-53.09Z"/>
    <path d="M222.41,155.16s5.98,6.19,15.21,6.19c4.41,0,8.81-2.31,8.81-6.61,0-9.76-27.28-7.76-27.28-25.07,0-9.65,8.6-15.11,19.2-15.11,11.65,0,17.1,5.87,17.1,5.87l-4.09,7.66s-4.72-4.72-13.11-4.72c-4.41,0-8.71,1.89-8.71,6.5,0,9.55,27.28,7.45,27.28,24.86,0,8.81-7.55,15.42-19.2,15.42-13.01,0-20.14-7.76-20.14-7.76l4.93-7.24Z"/>
    <path d="M268.81,124.74h-6.92v-8.18h7.24v-15.32h9.86v15.32h12.8v8.18h-12.8v23.61c0,10.6,7.45,11.96,11.33,11.96,1.47,0,2.41-.21,2.41-.21v9.02s-1.47.21-3.57.21c-6.82,0-20.35-2.1-20.35-19.83v-24.76Z"/>
    <path d="M300.97,94.84h10.18v40.5h7.45l14.48-19.51h11.54l-17.63,23.4v.21l19.62,29.48h-11.86l-15.95-24.97h-7.66v24.97h-10.18v-74.07Z"/>
    <path d="M380.63,135.75h2.31v-.94c0-8.71-4.93-11.65-11.65-11.65-8.18,0-14.79,5.14-14.79,5.14l-4.2-7.45s7.66-6.3,19.83-6.3c13.43,0,20.98,7.34,20.98,20.77v33.57h-9.44v-5.04c0-2.41.21-4.2.21-4.2h-.21s-4.3,10.49-17,10.49c-9.13,0-18.05-5.56-18.05-16.16,0-17.52,23.08-18.25,32-18.25ZM368.88,161.98c8.6,0,14.16-9.02,14.16-16.89v-1.68h-2.62c-7.66,0-21.51.52-21.51,10.07,0,4.3,3.36,8.5,9.97,8.5Z"/>
    <path d="M433.93,135.75h2.31v-.94c0-8.71-4.93-11.65-11.65-11.65-8.18,0-14.79,5.14-14.79,5.14l-4.2-7.45s7.66-6.3,19.83-6.3c13.43,0,20.98,7.34,20.98,20.77v33.57h-9.44v-5.04c0-2.41.21-4.2.21-4.2h-.21s-4.3,10.49-17,10.49c-9.13,0-18.05-5.56-18.05-16.16,0-17.52,23.08-18.25,32-18.25ZM422.18,161.98c8.6,0,14.16-9.02,14.16-16.89v-1.68h-2.62c-7.66,0-21.51.52-21.51,10.07,0,4.3,3.36,8.5,9.97,8.5Z"/>
    <path d="M459.22,94.84h10.28v10.39h-10.28v-10.39ZM459.32,115.82h10.18v53.09h-10.18v-53.09Z"/>
  </g>
</svg>