<?xml version="1.0" encoding="UTF-8"?>
<svg id="Layer_1" data-name="Layer 1" xmlns="http://www.w3.org/2000/svg" viewBox="0 0 512 256">
  <defs>
    <style>
      .cls-1 {
        fill: #fff;
      }
    </style>
  </defs>
  <rect class="cls-1" y="-128" width="512" height="512"/>
  <g>
    <path d="M82.83,164.5l-1.05,1.51c-.16,0-.27,0-.35.03-.08.02-.16.05-.23.09-.74,0-1.42.21-2.04.64-.85.58-3.24,1.53-7.16,2.85l-1.05.23-.64.7-1.05-.58-1.69-2.39-2.04-1.16-.93-.87-.93.23-.99-.93-9.55-6.46-3.43-3.9-3.32-1.8c-2.48-1.4-4-3.03-4.54-4.89l-1.11.23-1.86-1.28-4.19-2.79c-.81-.54-1.22-.93-1.22-1.16l-.12-1.92-.58-1.28c-.97,1.09-1.84,1.63-2.62,1.63h-.47l-3.32-1.98-2.39-1.22-4.66-3.67-1.57-.76-.58,2.27.23,13.5-.12,2.5-.47-.23-.47.93.12,1.28.23,2.27,1.05,1.57c.08.08.12.16.12.23l-.12,4.07v.7l-.58.47.58,1.92v.35l-2.85,1.34-2.27,1.51-.58-.47-2.74,1.11-.99.12-1.63.58-.87-1.57.64-1.4c.47-1.28.8-2.18,1.02-2.71.21-.52.38-.94.49-1.25.12-.31.19-.54.23-.7l.64-5.24.35-1.69c.85-.19,1.44-.48,1.77-.84.33-.37.5-.96.5-1.78l-.12-2.04-1.69.23-.47-2.39c0-.81.39-1.53,1.16-2.15v-1.28c-.54-.78-.81-1.57-.81-2.39v-1.11l.12-4.48-.12-4.89,1.63-.87.41-.58-.76-3.32.76-.99-1.22-.58c-.16-.39-.25-.73-.29-1.02-.04-.29-.06-1.21-.06-2.76l-.12-1.34c.85-.47,1.39-.87,1.6-1.22.21-.35.32-.93.32-1.75l-2.04-.99-.23-1.51-.23-3.84-.35-2.04.23-2.33-1.34-1.34.12-.7-.47-4.54-.12-3.84-1.8-2.15.12-.7,8.15-3.9c.89-.5,1.67-.76,2.33-.76,1.05,0,1.57.68,1.57,2.04v1.11c-.5.35-.83.64-.99.87-.16.23-.29.56-.41.99,1.24,1.12,1.86,2.56,1.86,4.31l-.12,1.57c-1.75.58-2.62,1.46-2.62,2.62,0,1.01.91,1.51,2.74,1.51l-.23,11c-1.44.43-2.15.89-2.15,1.4,0,.16.04.29.12.41l1.8,3.43-.35,1.4.12,4.31-.35,1.34-1.22,1.16,1.11.35,1.05-.35,1.8-.81,3.43-2.74c1.44-.89,2.35-1.38,2.74-1.46,1.4-.39,2.23-.65,2.5-.79.27-.14.5-.38.7-.73.19-.35.37-.76.52-1.22l1.46-.58,4.25-2.62,1.92-1.46,1.05-1.28,2.68-1.92,5.94-5.94,2.04-.99c.15-.78.62-1.69,1.4-2.74l.76-.93,1.28.12c.39,0,.83-.25,1.34-.76l-.35-.58.35-.46-.64-1.22,1.8-2.5,1.46-1.75,5.12-2.5,3.67-2.15c.12-.04.2-.07.26-.09.06-.02.13-.03.2-.03.39,0,.71.12.96.35.25.23.38.54.38.93,0,1.01-.76,2.21-2.27,3.61-1.55,1.48-2.68,2.54-3.38,3.2-.7.66-1.2,1.15-1.51,1.46-1.48,1.94-2.45,3.11-2.94,3.52-.49.41-1.25.69-2.3.84l-.58,1.11c-1.36,2.41-2.52,3.84-3.49,4.31l-1.51.7-6,5.7-4.13,2.5-5.12,3.72-2.39,2.39-1.69,1.75-1.05.87c0,.5.06.85.17,1.05.12.19.37.35.76.47.54.81,1.26,1.53,2.15,2.15,4.23,2.48,6.81,4.27,7.74,5.35.12.08.21.17.29.26.08.1.14.18.17.26l.93,2.97h1.92c.12,0,.26.04.44.12.17.08.36.16.55.23l5.24,3.9,2.74,1.57,2.27,2.04c.85.58,1.43,1.02,1.72,1.31s.59.77.9,1.43l1.8.12,4.6,4.31v2.39l3.38.12.81,1.05,1.11.58c-.27.58-.41,1.11-.41,1.57,0,.62.29,1.22.87,1.8.43.54.85.81,1.28.81.35,0,.76-.12,1.22-.35l.23-.93.93-.23c.43,0,1.18.35,2.27,1.05l.12,1.16.7.29,4.42-.99h.23c.74,0,1.57.49,2.5,1.46Z"/>
    <path d="M140.16,164.03c-.27,1.01-.85,1.71-1.75,2.1l-6.69,2.91c-1.2-.7-1.8-1.82-1.8-3.38l.12-3.32-1.05-.23-3.84,1.8-5.35,2.62-2.15,1.05-7.04,1.34-2.27.7h-.58c-.39,0-.66-.04-.81-.12l-2.15-.87-2.62.76-2.39-2.04-4.66.7c-.47-.19-1.15-.54-2.04-1.05-.89-.5-1.65-1.07-2.27-1.69-1.75-1.94-2.62-3.92-2.62-5.94,0-.62.41-1.26,1.22-1.92l-1.92-.7-.12-2.27-.12-3.14c0-.93.15-1.71.47-2.33l1.11-2.04-1.11-3.26.12-3.43-.12-3.96c.04-.23.45-1.57,1.22-4.02v-.87l-1.11.52-.7-.76v-1.16l.12-7.04c0-1.09-.12-1.92-.35-2.5l-.47-.7c0-.08-.01-.15-.03-.2-.02-.06-.05-.11-.09-.15,0-.66.47-1.26,1.4-1.8l.7-.35,4.31-1.8c1.4-.54,2.35-.81,2.85-.81.58,0,1.11.54,1.57,1.63l.58,1.34c-.78,2.17-1.16,4.19-1.16,6.05l.35,3.38-.12,1.4-.99,2.85c-.04,1.05-.08,1.78-.12,2.18-.04.41-.08.77-.12,1.08,0,.58.12,1.16.35,1.75l.99,1.69-1.34,4.42.47,1.4-.47,2.5-.47,3.38c0,.31.04.54.12.7l.81,1.46.41,6.17c.23,1.13.73,1.92,1.48,2.39.76.47,2.32,1.07,4.69,1.8l4.31,1.16c.78.16,2.08.23,3.9.23,1.32,0,2.29-.12,2.91-.35l3.32-1.28,3.55.93c.62-.19,1.03-.83,1.22-1.92l1.92-1.05,2.62-3.61,2.15-1.75c.58-.78.93-1.86,1.05-3.26l.47-5.94.47-1.28-1.28-1.34.12-2.15.23-9.2-.35-3.08-.58-3.55c0-.58.35-1.22,1.05-1.92l-.23-1.05-.93-.12-.29-1.8v-.47l.52-1.8v-1.22l.93.29,6.46-2.27s.08-.02.12-.06c.04-.04.08-.06.12-.06.43,0,.79.36,1.08,1.08s.44,1.66.44,2.82l-.47,11.82-.81,9.08-1.57-.64c-.47,1.09-.7,1.84-.7,2.27l.35,1.22c.47-.15.81-.23,1.05-.23.35,0,.64.1.87.29s.35.45.35.76l-.58,10.94,1.16,2.04.58,5.65c.19.23.46.53.79.9.33.37.75.94,1.25,1.72Z"/>
    <path d="M202.23,163.62l-.58,1.69-8.03,3.84c-1.09-1.4-1.63-2.27-1.63-2.62v-.29l1.4-5.59.12-2.5.47.12.99-1.16c-.27-.62-.53-1.03-.79-1.22-.25-.19-.71-.43-1.37-.7l-.23-.93.93-10.88-.58-1.51.12-1.92v-4.42l.7-2.15-1.05-1.05.12-3.49c-.43-1.28-1.15-2.5-2.15-3.67v-.58c0-.5-.16-.87-.47-1.11l-1.46-.12-2.97-1.8-4.77.29-5.47-.41c-.47.23-.99.72-1.57,1.46l-1.05-.23-4.54.81-1.63.35-2.04,1.57-2.62,1.16c-1.28.62-2,1.55-2.15,2.79l-.12,5.7-.76,3.55,1.22,3.49v1.86l-.12,6.93-1.11,2.39-.12.87v.35l1.11,1.86.35,6.34.47,2.04c0,.23-.12.53-.35.9-.23.37-.54.63-.93.79l-3.84.93-1.05.23c-.62,1.05-1.22,1.57-1.8,1.57-.39,0-.8-.21-1.22-.64-.04-.08-.09-.16-.15-.23-.06-.08-.13-.16-.2-.23-.16-.31-.23-.43-.23-.35l.87-4.31-.12-4.89.58-1.98-.47-3.26.23-3.55.12-7.51c0-1.01.68-1.57,2.04-1.69-.12-.85-.32-1.39-.61-1.6-.29-.21-.92-.32-1.89-.32l.12-10.48,1.28-.82-.7-1.22-1.57-4.25-1.05-1.34.7-1.28,1.22-1.46,2.1-.93,2.04-1.57c.58-.47,1.3-.7,2.15-.7.5,0,.99.15,1.46.44s.74.61.81.96l.12,5.47.23,1.8,1.11-.35c1.4-1.71,3.04-3.31,4.92-4.8,1.88-1.49,3.29-2.24,4.22-2.24.5,0,.91.41,1.22,1.22.78-.23,1.69-.68,2.74-1.34,1.12-.62,2.08-.93,2.85-.93h.35l4.77.47,1.8-.58,5.35.7c1.82.23,3.26.87,4.31,1.92l.81-.12c1.24,0,2.27.54,3.08,1.63l.87,1.46,1.16,1.92c.54.66.81,2.08.81,4.25v3.26l.23,1.4-1.4,1.8.47,1.46.7,1.28v2.39c0,.31-.04.54-.12.7l-.81,1.69c-.16.31-.23.87-.23,1.69l1.16,1.51-.12,1.69-.12,4.07v.47l.87,2.27.12,5.24.35,6.29Z"/>
    <path d="M258.64,150.53c0,1.55-.28,2.85-.84,3.9-.56,1.05-1.23,1.57-2.01,1.57-.16,0-.54-.08-1.16-.23l-.76,1.34-1.05,2.85-2.62,2.85-1.22,1.69-1.63.12-5.41,2.74-2.5.35-4.25,1.46-3.38-.64-5.12,1.22c-.35,0-2.25-.37-5.7-1.11-1.63-.35-2.66-.7-3.08-1.05l-2.27-1.46-2.85-1.63c-1.2-.78-2.18-1.78-2.94-3-.76-1.22-1.14-2.34-1.14-3.35,0-.62.66-1.46,1.98-2.53,1.32-1.07,2.77-1.97,4.37-2.71l1.28,1.69,1.11,5.12,2.1,1.28,3.38,2.62,1.63.52,3.14,1.51h2.15l1.4.23,2.85-.82,4.77-.47,2.39-1.22,2.27-.82c1.44-.85,2.83-2.61,4.19-5.27,1.36-2.66,2.04-5.07,2.04-7.25,0-.82-.25-1.53-.76-2.15l-2.27-3.2-.58-1.46-1.4-.7-.76.93-1.28-.12-3.14-.46h-4.6l-1.57-2.27c-.81.93-1.48,1.52-1.98,1.78-.5.25-1.48.5-2.91.73l-2.04.35-1.16-.58h-1.46l-1.51-1.16-1.92.35-1.8-.87-2.5-.81c-.97-.31-1.8-1.07-2.5-2.27-.7-1.2-1.05-2.42-1.05-3.67,0-1.9.66-3.92,1.98-6.05,1.32-2.13,3.16-4.09,5.53-5.88,1.82-1.4,4-2.77,6.52-4.13,2.52-1.36,4.9-2.41,7.13-3.14,2.23-.74,4.06-1.11,5.5-1.11.43,0,1.9.41,4.42,1.22l1.69.58c2.64-.47,4.35-.7,5.12-.7,1.09,0,1.95.17,2.59.52.64.35.96.78.96,1.28s-.55,1.21-1.66,2.12c-1.11.91-2.49,1.76-4.16,2.53l-1.8.82-1.51-.12-2.91-.12-2.21-.58-.99-2.04h-.81l-.99,1.05h-3.43l-2.39.35-1.8-.47-.93.7-3.73,2.15c-2.6,2.25-3.9,4.29-3.9,6.11,0,1.28.39,2.12,1.16,2.5l3.84,1.75,1.16.64v1.4l1.8.99,1.92-1.8.93.12,9.78-.7,4.66,1.05,2.15-.35,2.74,1.8,4.07,2.27c.81.54,1.53,1.77,2.15,3.67l.47,1.57c.7,2.44,1.05,4.46,1.05,6.05Z"/>
    <path d="M302.62,116.83l-.58,1.63-.12,1.22-4.19,3.08-2.5,2.27-1.46.23-2.15-.23c-1.44-.16-2.75-.38-3.93-.67-1.18-.29-1.74-.44-1.66-.44h-.12l-3.9.29-2.27-.41c-.54.08-1,.28-1.37.61-.37.33-.55.69-.55,1.08,0,.43.23.7.7.81l-.12,7.51c-1.67.47-2.5,1.18-2.5,2.15l.12,1.34,2.39.47.23,5.59.12,1.22-.58,1.75c-.47-.23-.85-.35-1.16-.35-.97,0-1.46.45-1.46,1.34,0,.39.31.99.93,1.8.54-.66.91-.99,1.11-.99.12,0,.5.29,1.16.87l.12,7.86.23,1.16,1.34,2.74c.08.23.12.91.12,2.04.97.58,1.72.95,2.24,1.11.52.16,1.25.23,2.18.23,1.24,0,2.47-.21,3.7-.64,1.22-.43,2.2-.97,2.94-1.63l5.76-5.24c.23-.27.54-.41.93-.41.47,0,1.14.25,2.04.76l-.35,1.28c-.81,3.22-1.49,4.93-2.04,5.12l-13.68,5-2.39,1.22-1.8-1.11-1.22-.23-.58,1.57-1.05.12c-1.16,0-2.52-.56-4.07-1.69-1.63-1.32-2.5-2.31-2.62-2.97l-.35-1.69-.7-1.98.12-3.26v-3.67l1.16-3.84-.35-1.4-.23-2.04v-1.34l.23-5.59-.12-1.57-.23-1.98c0-.15.04-.23.12-.23l1.51-1.8c.19-.27.29-.5.29-.7,0-.89-.68-1.34-2.04-1.34l-.47-.7c.39-2.83.58-5.67.58-8.5-1.86-.39-3.26-.58-4.19-.58-2.41,0-4.83.41-7.28,1.22-.31-.27-.47-.56-.47-.87,0-.66.15-1.08.47-1.28l2.27-1.92.35-1.34c.12-.31.31-.56.58-.76.27-.19.48-.29.64-.29l6.75-.23,1.57-.23-.12-1.34-.35-12.4-1.46-3.32-.35-1.8c1.16-1.63,2.33-2.79,3.49-3.49,1.16-.7,2.66-1.2,4.48-1.51.78-1.2,1.46-1.8,2.04-1.8,1.05,0,1.57,1.77,1.57,5.3,0,5.35-.49,9.16-1.46,11.41-.54,1.59-1.09,2.39-1.63,2.39v2.74c.58,0,.97.05,1.16.15.19.1.43.34.7.73l-.35,1.63.23,1.34,1.22.12,5.82,1.28c.47.16,1.11.23,1.92.23s1.46-.08,1.8-.23l2.27-.7,4.37-.47,3.38-1.22h2.97c.08.31.12.45.12.41Z"/>
    <path d="M362.83,162.58c0,.58-.45,1.65-1.34,3.2l-.23.47c-.78,1.59-1.84,2.48-3.2,2.68l-3.08.35-1.22.7c-.16.08-.35.12-.58.12-.39,0-.66-.04-.81-.12l-2.39-.82-3.61-.99-2.97-1.28-1.16-.76.12-1.51c0-.97-.72-1.46-2.15-1.46h-1.34l-.35.76-1.28-.76-7.62-6.29-1.8-.64-9.43-7.74c-.31-.15-.58-.23-.81-.23s-.46.13-.67.38c-.21.25-.32.53-.32.84v.12l1.34,15.6c0,.5-.26,1.02-.79,1.54-.52.52-1.02.84-1.48.96l-3.96.93-1.51.99-1.34.58c-.54-.66-.81-1.22-.81-1.69v-.58l1.05-7.04-.58-11.64,1.22-.12c.47-.58.7-1.09.7-1.51,0-.12-.04-.41-.12-.87-1.2-.58-1.8-1.18-1.8-1.8,0-.47.56-1.75,1.69-3.84-.08-.5-.6-.85-1.57-1.05v-1.69l-.23-5.59-.12-3.73.23-4.48c.58-.31.95-.61,1.11-.9.15-.29.23-.82.23-1.6l-1.46-.23-.23-16.59c.97-.43,1.46-.99,1.46-1.69,0-.62-.1-1.26-.29-1.92l-1.16-.93v-2.5l-.81-6.29.58-5.88-.58-2.39-.52-.35-.12-1.69-.81-6.87.12-6.58-.47-1.57.58-3.9-.47-.99c.23-.46.42-.75.55-.84.14-.1.59-.28,1.37-.55.08-.08,1.14-.91,3.2-2.5l1.16-.99c.5,0,1.07-.15,1.69-.47l1.11-.81.81.46v.93h-.35l-.58,3.14.35,9.78-.23,5.35c0,1.28.15,2.76.47,4.42l-1.11.93-.23,5.12.47,1.05,1.22.17.12.93-.12,3.67.47,2.5-.12,1.11.23,4.42-.23,8.21v5.59l-.58,3.72v.7c0,.7.08,1.18.23,1.46l1.28,2.21c.04.08.07.15.09.2.02.06.03.13.03.2l-.47,3.43v.58l.47,7.04v1.46l-.12,2.74-.47,3.9v.12c0,.5.19,1.34.58,2.5l.76-.35,2.62-2.15,3.67-2.5,7.74-7.97,7.51-7.51,3.61-4.31c1.09-1.32,3.03-2.77,5.82-4.37l1.57,1.16c1.05.74,1.57,1.34,1.57,1.8,0,1.13-.85,2.64-2.56,4.54l-1.16.35c-.85.27-1.39.52-1.6.73-.21.21-.48.69-.79,1.43-1.28,0-2.43.23-3.43.7v1.4c0,1.09-.29,1.84-.87,2.27l-3.43,2.62-1.57,1.34-.81.12h-.93c-.27,1.28-.56,2.04-.87,2.27l-2.5,1.46-2.04,1.98-1.86,1.46c-1.13.7-1.69,1.49-1.69,2.39s.76,1.84,2.27,2.74c4.38,2.6,6.77,4.31,7.16,5.12l1.8,3.73c.43.66,1.53,1.32,3.32,1.98l1.51-.93,7.04,3.08c.58.27.87.64.87,1.11l-.12.7,2.39,1.46.93-.87,2.62.87,1.57.7h1.63c.43,0,.95.16,1.57.47.54-.54,1.07-.81,1.57-.81.35,0,.61.07.79.2.17.14.26.34.26.61Z"/>
    <path d="M421.45,163.62l-.58,1.11-.93,1.4-1.69.64-2.39,1.28-2.27.7c-1.44.58-2.27.87-2.5.87-.27,0-.53-.15-.79-.44-.25-.29-.38-.55-.38-.79,0-.39.19-1.26.58-2.62.19-.39.35-1.07.47-2.04l-1.16.76-5.24,1.75c-1.05.5-2.1.76-3.14.76h-2.39l-2.74,1.28-1.86.23-5.41,1.11-2.21-.35-1.57.58-1.11.23-1.75-.12-3.84-.82-2.62-.23c-1.79-.23-3.33-.84-4.63-1.83-1.3-.99-2.26-2.26-2.88-3.81l-1.57-.58-.35-1.46-.12-1.05-.81-2.74,2.15-4.31.7-1.92c.23-.5.95-1.24,2.15-2.21l4.54-3.73,1.92-.7,3.2-1.34s.12,0,.23.03c.12.02.23.05.35.09.78-1.67,2.25-2.5,4.42-2.5l.35-.35h1.22c.5-.62,1.01-1.05,1.51-1.28.5-.23,1.46-.49,2.85-.76l7.28-1.28,2.15.23,2.74-.58,4.89-.52c1.67-.39,2.5-1.18,2.5-2.39,0-.15-.04-.27-.12-.35l-.58-2.62.47-3.78c-.12-.81-.41-1.41-.87-1.78-.47-.37-1.16-.61-2.1-.73l-.81-1.34c-.85-1.4-1.55-2.3-2.1-2.71-.54-.41-1.57-.77-3.08-1.08l-3.32-.76-3.2-.12-1.57.23c-.35-.16-.62-.35-.81-.58-.19-.23-.35-.58-.47-1.05l-1.57.7-1.8,1.69-5.7,2.85c-1.2.66-2,1.3-2.39,1.92l-.81,1.16c-.39.62-.91.93-1.57.93l-1.16-.23-1.69-.81-1.8-.35c-.58-.19-1.16-.52-1.75-.99s-.87-.89-.87-1.28c0-.23.04-.35.12-.35l.99-.7,1.86-1.46,2.04-.35,3.08-1.57,3.84-1.28,1.05-.23,2.5-1.34,2.04.35,7.04-1.51,2.97.12h2.27l2.39.82,6.93,1.34,1.05.58v.81l-.81.47c.23,1.36.72,2.04,1.46,2.04.08-.04.14-.07.17-.09.04-.02.1-.03.17-.03l1.63-.7h.23c.39,0,.64.19.76.58l1.16,2.15,1.22.93v1.34l-.23,2.97c0,1.28.62,2.39,1.86,3.32l.76,8.62-1.57,2.15,1.8,2.09.12.76-.35,5.47.47,4.19v2.27l-.81.23c.08.97.14,1.59.17,1.86.04.27.17.67.41,1.19.23.52.5,1.14.81,1.83l.81,1.86ZM412.2,153.5c-.58-.5-.95-.93-1.11-1.28l.23-2.39-.47-5.35.7-1.57-1.86-1.05-.99.23-5.35-.35-2.5.12-1.92-1.34-1.16.7-3.2.12-2.27.87-1.34-.76-1.63.99-8.73,4.19-1.92,1.4-1.51,2.27-2.04,1.22c-.31.31-.47.66-.47,1.05.04.08.08.16.12.23l.47.7-.12.52,1.28,5.24-1.28,3.32.93,1.16,1.57-1.86c.54.47,1.05.85,1.51,1.16.47.31,1.03.57,1.69.79.66.21,1.49.44,2.5.67l1.22,1.63,4.02.41,1.11-1.11,1.16.58.81-.47.64-.35c.93.31,1.47.47,1.63.47,1.16,0,2.68-.54,4.54-1.63.12-.08.27-.16.47-.26.19-.1.48-.26.87-.5,3.49,0,5.8-.72,6.93-2.15l1.16-1.51,2.85-2.39.12-.7-.12-.76c.58-.19.95-.43,1.11-.7.15-.27.27-.79.35-1.57Z"/>
    <path d="M482.12,163.62l-.58,1.11-.93,1.4-1.69.64-2.39,1.28-2.27.7c-1.44.58-2.27.87-2.5.87-.27,0-.53-.15-.79-.44-.25-.29-.38-.55-.38-.79,0-.39.19-1.26.58-2.62.19-.39.35-1.07.47-2.04l-1.16.76-5.24,1.75c-1.05.5-2.1.76-3.14.76h-2.39l-2.74,1.28-1.86.23-5.41,1.11-2.21-.35-1.57.58-1.11.23-1.75-.12-3.84-.82-2.62-.23c-1.79-.23-3.33-.84-4.63-1.83-1.3-.99-2.26-2.26-2.88-3.81l-1.57-.58-.35-1.46-.12-1.05-.81-2.74,2.15-4.31.7-1.92c.23-.5.95-1.24,2.15-2.21l4.54-3.73,1.92-.7,3.2-1.34s.12,0,.23.03c.12.02.23.05.35.09.78-1.67,2.25-2.5,4.42-2.5l.35-.35h1.22c.5-.62,1.01-1.05,1.51-1.28.5-.23,1.46-.49,2.85-.76l7.28-1.28,2.15.23,2.74-.58,4.89-.52c1.67-.39,2.5-1.18,2.5-2.39,0-.15-.04-.27-.12-.35l-.58-2.62.47-3.78c-.12-.81-.41-1.41-.87-1.78-.47-.37-1.16-.61-2.1-.73l-.81-1.34c-.85-1.4-1.55-2.3-2.1-2.71-.54-.41-1.57-.77-3.08-1.08l-3.32-.76-3.2-.12-1.57.23c-.35-.16-.62-.35-.81-.58-.19-.23-.35-.58-.47-1.05l-1.57.7-1.8,1.69-5.7,2.85c-1.2.66-2,1.3-2.39,1.92l-.81,1.16c-.39.62-.91.93-1.57.93l-1.16-.23-1.69-.81-1.8-.35c-.58-.19-1.16-.52-1.75-.99s-.87-.89-.87-1.28c0-.23.04-.35.12-.35l.99-.7,1.86-1.46,2.04-.35,3.08-1.57,3.84-1.28,1.05-.23,2.5-1.34,2.04.35,7.04-1.51,2.97.12h2.27l2.39.82,6.93,1.34,1.05.58v.81l-.81.47c.23,1.36.72,2.04,1.46,2.04.08-.04.14-.07.17-.09.04-.02.1-.03.17-.03l1.63-.7h.23c.39,0,.64.19.76.58l1.16,2.15,1.22.93v1.34l-.23,2.97c0,1.28.62,2.39,1.86,3.32l.76,8.62-1.57,2.15,1.8,2.09.12.76-.35,5.47.47,4.19v2.27l-.81.23c.08.97.14,1.59.17,1.86.04.27.17.67.41,1.19.23.52.5,1.14.81,1.83l.81,1.86ZM472.86,153.5c-.58-.5-.95-.93-1.11-1.28l.23-2.39-.47-5.35.7-1.57-1.86-1.05-.99.23-5.35-.35-2.5.12-1.92-1.34-1.16.7-3.2.12-2.27.87-1.34-.76-1.63.99-8.73,4.19-1.92,1.4-1.51,2.27-2.04,1.22c-.31.31-.47.66-.47,1.05.04.08.08.16.12.23l.47.7-.12.52,1.28,5.24-1.28,3.32.93,1.16,1.57-1.86c.54.47,1.05.85,1.51,1.16.47.31,1.03.57,1.69.79.66.21,1.49.44,2.5.67l1.22,1.63,4.02.41,1.11-1.11,1.16.58.81-.47.64-.35c.93.31,1.47.47,1.63.47,1.16,0,2.68-.54,4.54-1.63.12-.08.27-.16.47-.26.19-.1.48-.26.87-.5,3.49,0,5.8-.72,6.93-2.15l1.16-1.51,2.85-2.39.12-.7-.12-.76c.58-.19.95-.43,1.11-.7.15-.27.27-.79.35-1.57Z"/>
    <path d="M502.92,116.42c-.74,1.63-1.16,3.14-1.28,4.54l-.35,5.76-1.11,1.98c0,.08,0,.16-.03.23-.02.08-.05.17-.09.29,0,.5.48,1.05,1.46,1.63l-.23,1.8v11.29l-.23,9.08.81,3.84v1.98l.23,3.96c-.19.58-1.42,1.73-3.67,3.43l-2.91,2.27c-.47.5-1.05.76-1.75.76-.5,0-.95-.16-1.34-.46-.39-.31-.58-.64-.58-.99,0-1.01.31-2.19.93-3.55l.47-1.69-.58-.58.87-9.78.35-.99,1.51-.23v-1.86c0-1.2-.1-2.1-.29-2.68-.19-.58-.68-1.36-1.46-2.33l.12-1.92v-.35l-.12-.99c0-1.28.23-2.42.7-3.43l-.81-.99.12-3.2c.54-.31.81-.66.81-1.05l-.12-.99-1.69-.23v-1.75l.12-1.57v-2.39c0-1.05-.11-1.82-.32-2.33-.21-.5-.69-1.05-1.43-1.63.5-1.36,1.65-2.54,3.43-3.55l5.59-3.2c1.05.12,2,.74,2.85,1.86ZM506.41,85.57c0,.85-.21,1.42-.64,1.69l-4.25,3.08-1.69,1.69-3.08,2.1c-2.06,1.51-3.3,2.27-3.73,2.27-.19,0-.4-.12-.61-.38-.21-.25-.32-.51-.32-.79,0-.89.23-1.57.7-2.04l6-5.7,3.2-4.31c.47-.23.99-.35,1.57-.35.78,0,1.45.26,2.01.79.56.52.84,1.17.84,1.95Z"/>
  </g>
</svg>