<?xml version="1.0" encoding="UTF-8"?>
<svg id="Layer_1" data-name="Layer 1" xmlns="http://www.w3.org/2000/svg" viewBox="0 0 512 256">
  <defs>
    <style>
      .cls-1 {
        fill: #fff;
      }
    </style>
  </defs>
  <rect class="cls-1" y="-128" width="512" height="512"/>
  <g>
    <path d="M67.29,168.89h-10.54l-24.28-35.22-7.58,8.25v26.98h-8.35v-71.82h8.35v34.41l31.86-34.41h9.62l-28.05,30.34,28.96,41.48Z"/>
    <path d="M116.33,168.89h-7.94v-7.84c-5.7,6.07-11.71,9.11-18.02,9.11-9.94,0-14.91-6.02-14.91-18.07v-36.24h7.94v33.95c0,4.51.71,7.88,2.14,10.1,1.43,2.22,3.83,3.33,7.23,3.33,4.85,0,10.06-3.02,15.63-9.06v-38.33h7.94v53.04Z"/>
    <path d="M175.24,168.89h-7.94v-34c0-4.72-.76-8.14-2.27-10.26-1.51-2.12-3.88-3.18-7.1-3.18-4.85,0-10.06,3.02-15.63,9.06v38.38h-7.94v-53.04h7.94v7.79c5.7-6.04,11.71-9.06,18.02-9.06,9.94,0,14.91,6.01,14.91,18.02v36.29Z"/>
    <path d="M225.74,123.44c-4.45-1.46-8.64-2.19-12.57-2.19-4.31,0-7.72.72-10.23,2.16-2.51,1.44-3.77,3.37-3.77,5.78,0,1.53.58,2.86,1.73,4,1.15,1.14,3.46,2.2,6.92,3.18l7.58,2.19c3.49.98,6.34,2.16,8.55,3.54s3.86,3.04,4.96,4.99c1.1,1.95,1.65,4.22,1.65,6.8,0,5.06-2.12,9.05-6.36,11.99-4.24,2.94-9.64,4.4-16.19,4.4s-11.89-.98-16.14-2.95l1.53-6.87c4.44,2.1,9.21,3.16,14.3,3.16,4.41,0,8-.82,10.77-2.47,2.77-1.65,4.15-3.83,4.15-6.54,0-1.83-.69-3.47-2.06-4.91-1.37-1.44-4.61-2.94-9.7-4.5-4.11-1.26-7.13-2.2-9.06-2.83s-3.73-1.55-5.4-2.77c-1.66-1.22-2.93-2.68-3.79-4.38-.87-1.7-1.3-3.6-1.3-5.7,0-4.58,2-8.21,6.01-10.89,4-2.68,9.32-4.02,15.93-4.02,4.28,0,9.03.73,14.25,2.19l-1.78,6.67Z"/>
    <path d="M285.27,166.5c-5.33,2.44-10.57,3.67-15.73,3.67-9.47,0-14.2-5-14.2-15.02v-32.42h-10.18v-6.87h10.18v-14.51h7.74v14.51h18.02v6.87h-18.02v30.34c0,3.22.71,5.73,2.14,7.51,1.42,1.78,3.36,2.67,5.8,2.67,4.34,0,8.64-.97,12.88-2.9l1.37,6.16Z"/>
    <path d="M346.51,168.89h-10.44l-22.5-26.37-5.19,4.48v21.89h-7.94v-71.82h7.94v41.18l24.89-22.4h10.13l-24.18,21.68,27.28,31.36Z"/>
    <path d="M399.03,168.89h-7.89c-.64-2.14-.97-4.99-.97-8.55-4.51,6.62-10.66,9.93-18.43,9.93-3.94,0-7.41-1.4-10.41-4.2-3-2.8-4.5-6.41-4.5-10.82,0-2.61.53-4.92,1.58-6.92,1.05-2,2.6-3.69,4.63-5.06s4.51-2.46,7.43-3.26c2.92-.8,6.38-1.35,10.38-1.65l8.91-.71v-2.54c0-9.09-4.24-13.64-12.73-13.64-2,0-4.54.43-7.61,1.3-3.07.87-5.71,1.89-7.92,3.08l-2.09-5.7c7.23-3.7,13.95-5.55,20.16-5.55,12.08,0,18.12,6.4,18.12,19.19v22.8c0,4.62.44,8.72,1.32,12.32ZM389.77,153.16v-9.62c-7.16.64-12.07,1.25-14.74,1.81s-4.97,1.6-6.92,3.13c-1.95,1.53-2.93,3.6-2.93,6.21,0,2.38.83,4.29,2.49,5.75,1.66,1.46,3.78,2.19,6.36,2.19,2.82,0,5.62-.84,8.4-2.52s5.23-4,7.33-6.95Z"/>
    <path d="M455.36,168.89h-7.89c-.64-2.14-.97-4.99-.97-8.55-4.51,6.62-10.66,9.93-18.43,9.93-3.94,0-7.41-1.4-10.41-4.2-3-2.8-4.5-6.41-4.5-10.82,0-2.61.53-4.92,1.58-6.92,1.05-2,2.6-3.69,4.63-5.06s4.51-2.46,7.43-3.26c2.92-.8,6.38-1.35,10.38-1.65l8.91-.71v-2.54c0-9.09-4.24-13.64-12.73-13.64-2,0-4.54.43-7.61,1.3-3.07.87-5.71,1.89-7.92,3.08l-2.09-5.7c7.23-3.7,13.95-5.55,20.16-5.55,12.08,0,18.12,6.4,18.12,19.19v22.8c0,4.62.44,8.72,1.32,12.32ZM446.1,153.16v-9.62c-7.16.64-12.07,1.25-14.74,1.81s-4.97,1.6-6.92,3.13c-1.95,1.53-2.93,3.6-2.93,6.21,0,2.38.83,4.29,2.49,5.75,1.66,1.46,3.78,2.19,6.36,2.19,2.82,0,5.62-.84,8.4-2.52s5.23-4,7.33-6.95Z"/>
    <path d="M493.93,168.89h-7.94v-46.17h-15.63v-6.87h23.57v53.04ZM490.06,95.8c1.49,0,2.76.54,3.82,1.6,1.05,1.07,1.58,2.35,1.58,3.84s-.52,2.87-1.55,3.92-2.32,1.58-3.84,1.58c-1.39,0-2.62-.55-3.69-1.65-1.07-1.1-1.6-2.38-1.6-3.84s.53-2.73,1.6-3.82c1.07-1.08,2.3-1.63,3.69-1.63Z"/>
  </g>
</svg>