<?xml version="1.0" encoding="UTF-8"?>
<svg id="Layer_1" data-name="Layer 1" xmlns="http://www.w3.org/2000/svg" viewBox="0 0 512 256">
  <defs>
    <style>
      .cls-1 {
        fill: #fff;
      }
    </style>
  </defs>
  <rect class="cls-1" y="-128" width="512" height="512"/>
  <g>
    <path d="M101.33,112.71c9.49,24.38-1.56,82.14,29.18,82.14,2.76,0,3.84-1.08,5.16-1.08.48,0,.72.24.72.6,0,1.44-4.44,5.28-14.65,5.28-33.74,0-19.21-58.48-25.94-83.1-4.8,3.12-9.37,5.52-13.45,6.72-9.85,17.89-19.45,35.67-25.34,46.71-2.28,4.2-3.84,6.12-7.33,6.12-3,0-9.37,0-9.37-2.04,0-.48,0-.96.96-2.28,7.33-10.57,19.57-28.7,31.82-47.67-5.52-.72-7.93-3.6-7.93-6.97,0-6.24,8.65-14.77,21.86-15.25,4.68-7.57,9.01-15.01,12.85-21.74,0,0,0-.36-.24-.36-.36,0-.36.12-.72.36-13.69,12.37-29.06,21.74-48.28,21.74-5.52,0-14.65-1.32-14.65-5.4,0-1.44,1.32-3.84,2.76-3.84,1.8,0,1.56,4.8,15.25,4.8,21.02,0,44.43-14.77,56.32-34.35.48-.6.72-.84,1.2-.84.96,0,2.16.96,2.16,2.4,0,.48-.12.96-.36,1.44-3.72,7.08-11.29,21.02-19.93,36.87,3,1.32,5.16,3.84,6.84,7.21,30.5-23.42,62.33-80.82,119.61-80.82,7.33,0,20.78,1.56,20.78,6.6,0,2.04-2.16,4.56-7.93,7.93-3.72-9.97-7.93-11.65-16.81-11.65-34.95,0-80.94,55.72-114.56,80.46ZM84.64,105.86c-8.65,0-15.13,5.76-15.13,9.97,0,2.28,1.8,4.08,6.12,4.2l9.01-14.17ZM84.76,118.83c3.36-1.08,6.85-2.76,10.21-4.92-1.08-2.64-2.4-4.68-4.32-6l-5.88,10.93Z"/>
    <path d="M135.34,153.54c-.24,0-.48.24-.48.24-3.12,3.12-16.09,16.21-25.58,16.21-4.44,0-6.24-1.8-6.24-4.8,0-8.41,14.17-26.18,25.46-39.75,4.08-4.32,6.12-6.12,7.57-6.36.6-.12,1.68-.24,2.76-.24,1.68,0,3.36.36,3.36,1.32,0,.36-.24.6-.24.6-13.09,12.25-26.66,32.78-26.66,38.55,0,.96.48,1.56,1.32,1.56,8.05,0,18.01-9.73,24.5-16.93,4.32-6.24,9.49-12.73,14.89-18.85,3.96-4.44,6.12-5.88,7.57-6.36.72-.24,1.92-.36,3.12-.36,1.44,0,2.88.24,2.88,1.2,0,.24-.12.36-.24.6-13.33,12.37-27.5,32.78-27.5,42.51,0,3.12.96,4.68,2.64,4.68,3.48,0,10.45-6.36,21.02-18.97,0,0,.96.36.96,1.2,0,.24,0,.48-.24.84-11.77,15.01-22.22,21.74-28.46,21.74-3.84,0-6.12-2.4-6.12-7.08,0-3,1.32-6.97,3.72-11.53Z"/>
    <path d="M183.27,123.27c1.8-2.04,2.64-2.04,5.4-2.04,1.92,0,3.96.24,3.96,1.32,0,.24-.12.36-.24.6,0,0-11.05,14.29-19.93,28.94,8.41-8.53,35.79-34.11,45.75-34.11.72,0,.96.36.96.84,0,.6-.36,1.44-.6,1.56-9.25,6.48-26.42,32.42-26.42,42.27,0,3.12.96,4.68,2.64,4.68,3.48,0,10.45-6.36,21.02-18.97,0,0,.96.36.96,1.2,0,.24,0,.48-.24.84-11.53,14.77-21.5,21.26-27.62,21.26-3.84,0-7.33-1.2-7.33-6,0-9.13,13.21-27.02,22.46-36.75,0-.36-.24-.36-.48-.36-3.12,0-32.42,28.58-38.07,34.47-2.4,2.16-6.24,7.33-9.97,7.33-2.4,0-3.96-1.56-3.96-4.32l31.7-42.75Z"/>
    <path d="M257.03,149.57c0,.24,0,.48-.24.84-11.41,14.77-22.7,19.69-33.5,19.69s-15.01-5.52-15.01-11.41c0-6.48,4.56-13.33,8.53-13.33.84,0,1.68.12,2.52.36,5.16-5.76,10.93-11.89,15.97-17.77-.12-1.68-.36-3.72-.36-5.4,0-9.97,5.64-14.65,9.37-14.65,1.8,0,3.12,1.08,3.12,3.24,0,3.48-3.36,8.77-8.41,15.01.84,6.12,3,14.77,3,23.54,0,7.45-3.36,12.61-7.93,15.85,6.85-2.16,14.05-7.81,21.98-17.17,0,0,.96.36.96,1.2ZM212.35,162.3c0,2.04,1.2,3.24,3.72,3.24,9.13,0,19.45-14.41,19.45-33.14v-2.04c-4.8,5.4-9.73,10.57-14.41,16.21.48.24.72.48.84.6-6.24,6-9.61,11.77-9.61,15.13ZM241.66,112.47c-1.44,0-3.24,1.8-3.24,6.84,0,.96.12,1.92.24,4.44,3-3.84,4.92-7.09,4.92-9.13,0-1.32-.96-2.16-1.92-2.16Z"/>
    <path d="M272.49,167.47c-.96.84-2.64,1.2-4.08,1.2-1.92,0-3.24-.96-3.72-2.64-5.04,3.84-9.25,5.64-12.49,5.64-6.36,0-9.01-2.88-9.01-7.69,0-10.57,12.97-30.38,27.98-48.52-5.04.24-10.33.36-15.73.36-1.8,0-5.4-.12-5.4-3,0-.84.48-1.56,1.44-1.56h4.92c6.6,0,12.85-.12,18.73-.48,16.21-18.73,33.38-34.71,38.67-34.71,2.88,0,4.2,1.08,4.2,3.12,0,5.4-9.13,16.81-21.5,29.66,5.88-.84,11.17-1.8,16.33-2.88,19.33-24.74,37.23-44.91,55.48-44.91,4.32,0,6.72,2.76,6.72,6.96,0,10.45-15.25,30.14-55.84,40.71-7.33,10.09-13.93,19.57-19.33,25.1,0,0-.48.6-.48.96,0,.24.12.36.6.36,14.89-11.05,25.46-15.37,30.98-15.37,2.76,0,4.2,1.08,4.2,3,0,4.44-8.41,13.45-27.02,22.82-1.2,1.08-3.84,11.41-3.84,17.05,0,3.12.96,4.68,2.64,4.68,3.48,0,10.45-6.36,21.02-18.97,0,0,.96.36.96,1.2,0,.24,0,.48-.24.84-11.53,14.77-21.5,21.26-27.62,21.26-3.84,0-6.12-2.64-6.12-7.45,0-8.29,3.84-18.37,5.88-19.21,17.17-8.41,25.22-16.09,25.22-18.97,0-.72-.6-1.2-1.68-1.2-3,0-10.33,3.36-21.38,11.77-8.77,6.48-22.34,24.38-30.5,30.86ZM308.88,111.03c-5.4,1.08-11.17,2.04-17.29,2.76-8.65,8.65-18.49,17.65-27.98,25.58-5.64,9.85-9.37,18.61-9.37,23.54,0,2.76,1.2,4.44,3.84,4.44,4.68,0,16.57-13.81,21.02-18.97,10.45-12.13,20.29-25.1,29.78-37.35ZM266.73,134.08c7.21-5.76,14.77-12.85,21.62-19.93-2.88.36-5.76.6-8.77.84-4.56,6.24-9.01,12.73-12.85,19.09ZM283.18,110.18c3.48-.24,6.72-.6,9.97-.96,11.05-11.89,19.33-22.46,19.33-25.22,0-.36-.12-.6-.6-.6-5.52,0-17.17,12.01-28.7,26.78ZM322.93,103.58c34.95-9.73,48.04-26.06,48.04-33.99,0-2.88-1.8-4.68-4.8-4.68-13.93,0-29.54,19.57-43.23,38.67Z"/>
    <path d="M352.23,171.67c-3.84,0-6.12-2.64-6.12-7.45,0-3.12.96-7.2,3.24-11.41,0-.36-.24-.6-.6-.6-.24,0-.48.12-.96.6-3,3-17.65,17.17-27.14,17.17-4.56,0-6.6-2.28-6.6-6,0-14.29,30.62-49.24,61.73-49.24,3.72,0,4.8.96,4.8,2.28,0,2.28-3.48,5.28-4.08,5.28-.24,0-.12-4.2-5.76-4.2-20.9,0-44.79,30.98-44.79,39.39,0,1.32.6,2.16,1.92,2.16,9.61,0,22.94-13.69,28.46-19.45,4.08-4.44,13.45-15.61,16.33-15.85.72-.12,1.68-.24,2.76-.24,2.16,0,4.2.36,4.2,1.32,0,.24-.12.36-.24.6-.84,1.08-3.24,3.36-5.64,6-6.24,6.6-18.25,19.69-18.25,30.62,0,3.12.96,4.68,2.64,4.68,3.48,0,10.45-6.36,21.02-18.97,0,0,.96.36.96,1.2,0,.24,0,.48-.24.84-11.53,14.77-21.5,21.26-27.62,21.26Z"/>
    <path d="M406.87,171.67c-3.84,0-6.12-2.64-6.12-7.45,0-3.12.96-7.2,3.24-11.41,0-.36-.24-.6-.6-.6-.24,0-.48.12-.96.6-3,3-17.65,17.17-27.14,17.17-4.56,0-6.6-2.28-6.6-6,0-14.29,30.62-49.24,61.73-49.24,3.72,0,4.8.96,4.8,2.28,0,2.28-3.48,5.28-4.08,5.28-.24,0-.12-4.2-5.76-4.2-20.9,0-44.79,30.98-44.79,39.39,0,1.32.6,2.16,1.92,2.16,9.61,0,22.94-13.69,28.46-19.45,4.08-4.44,13.45-15.61,16.33-15.85.72-.12,1.68-.24,2.76-.24,2.16,0,4.2.36,4.2,1.32,0,.24-.12.36-.24.6-.84,1.08-3.24,3.36-5.64,6-6.24,6.6-18.25,19.69-18.25,30.62,0,3.12.96,4.68,2.64,4.68,3.48,0,10.45-6.36,21.02-18.97,0,0,.96.36.96,1.2,0,.24,0,.48-.24.84-11.53,14.77-21.5,21.26-27.62,21.26Z"/>
    <path d="M450.54,122.79c2.88-2.76,3.36-2.76,6.72-2.76,2.16,0,3.48.36,3.48,1.32,0,.24-.12.36-.24.6-7.57,9.49-24.98,31.22-24.98,40.71,0,3.12.96,4.68,2.64,4.68,3.48,0,10.45-6.36,21.02-18.97,0,0,.96.36.96,1.2,0,.24,0,.48-.24.84-11.77,15.13-22.46,21.86-28.82,21.86-3.84,0-6.24-2.52-6.24-7.09,0-10.33,18.13-34.83,25.7-42.39ZM468.91,94.81c4.2,0,7.09,3,7.09,6.84,0,5.64-5.28,10.57-10.81,10.57-4.2,0-6.97-2.88-6.97-6.85,0-5.64,5.28-10.57,10.69-10.57Z"/>
  </g>
</svg>