<?xml version="1.0" encoding="UTF-8"?>
<svg xmlns="http://www.w3.org/2000/svg" version="1.1" xmlns:cc="http://creativecommons.org/ns#" xmlns:dc="http://purl.org/dc/elements/1.1/" xmlns:inkscape="http://www.inkscape.org/namespaces/inkscape" xmlns:rdf="http://www.w3.org/1999/02/22-rdf-syntax-ns#" xmlns:sodipodi="http://sodipodi.sourceforge.net/DTD/sodipodi-0.dtd" xmlns:svg="http://www.w3.org/2000/svg" viewBox="0 0 512 512">
  <defs>
    <style>
      .cls-1 {
        fill: #fff;
      }

      .cls-2 {
        fill: #91b0e8;
      }

      .cls-3 {
        fill: #6199f6;
      }

      .cls-4 {
        fill: #396bd7;
      }

      .cls-5 {
        fill: #4688f4;
      }
    </style>
  </defs>
  <!-- Generator: Adobe Illustrator 29.0.0, SVG Export Plug-In . SVG Version: 1.2.0 Build 15)  -->
  <g>
    <g id="svg2" inkscape:version="1.1.1 (3bf5ae0d25, 2021-09-20)" sodipodi:docname="Chromium_Material_Icon.svg">
      <g>
        <path id="path4797" class="cls-2" d="M482.85,137.3c-358.56,286.46-179.28,143.23,0,0ZM482.85,137.3l-207.26.08c57.07,9.36,100.62,58.9,100.62,118.62-.04,29.37-10.83,57.71-30.34,79.67l-102.79,176.01c4.28.21,8.58.32,12.91.32,141.39,0,256-114.61,256-256,0-42.84-10.54-83.22-29.15-118.7Z" inkscape:connector-curvature="0" sodipodi:nodetypes="cccccccssc"/>
        <path id="path3923" class="cls-4" d="M256,0C163.96,0,83.28,48.58,38.16,121.49l99.9,157.33c.46,7.49-2.28-22.28-2.28-22.81,0-66.39,53.82-120.22,120.22-120.22,6.23.05,19.11,1.31,25.26,2.32l201.6-.8C440.06,55.69,354.54,0,256,0ZM38.13,121.54c-62.08,296.97-31.04,148.49,0,0Z" inkscape:connector-curvature="0" sodipodi:nodetypes="sccccccscc"/>
        <path id="path3923-1" class="cls-3" d="M38.16,121.49C13.97,160.58,0,206.65,0,256c0,137.06,107.71,248.95,243.09,255.68l102.79-176.01c-22.78,25.75-55.5,40.51-89.88,40.55-57.56-.05-107.01-40.89-117.94-97.41L38.16,121.49Z" inkscape:connector-curvature="0" sodipodi:nodetypes="csccccc"/>
        <circle id="path4162" class="cls-1" cx="256" cy="256" r="120.22"/>
        <circle id="path3956" class="cls-5" cx="256" cy="256" r="99.2"/>
      </g>
    </g>
  </g>
</svg>