<?xml version="1.0" encoding="UTF-8"?>
<svg xmlns="http://www.w3.org/2000/svg" version="1.1" viewBox="0 0 1417.32 1417.32">
  <defs>
    <style>
      .st0 {
        fill: aqua;
      }

      .st1 {
        fill: #fff;
      }

      .st2 {
        fill: blue;
      }

      .st3 {
        fill: red;
      }

      .st4 {
        fill: #f0f;
      }

      .st5 {
        fill: lime;
      }

      .st6 {
        fill: #ff0;
      }
    </style>
  </defs>
  <!-- Generator: Adobe Illustrator 29.1.0, SVG Export Plug-In . SVG Version: 2.0.0 Build 28)  -->
  <g>
    <g id="Layer_1">
      <g>
        <path class="st3" d="M1181.09,472.4c0,20.67-1.33,41-3.93,61-68.6-38.87-147.87-61-232.26-61s-166.73,23-236.2,63.2c-69.53-40.2-150.2-63.2-236.26-63.2s-163.67,22.13-232.26,61c-2.6-20-3.93-40.33-3.93-61C236.23,211.47,447.76,0,708.63,0c260.93,0,472.46,211.47,472.46,472.4Z"/>
        <path class="st6" d="M708.69,535.6c-124.53,72-213.13,199.27-232.33,348.26-126.6-71.6-216.87-199.93-236.2-350.46,68.6-38.87,147.8-61,232.26-61s166.73,23,236.26,63.2Z"/>
        <path class="st5" d="M708.69,1354.12c-69.53,40.2-150.2,63.2-236.26,63.2C211.5,1417.32.03,1205.79.03,944.86c0-176.47,96.73-330.4,240.13-411.46,19.33,150.53,109.6,278.86,236.2,350.46-2.6,20-3.93,40.33-3.93,61,0,174.87,95.07,327.6,236.26,409.26Z"/>
        <path class="st5" d="M708.63,944.86c-84.47,0-163.73-22.13-232.26-61,19.2-149,107.8-276.26,232.33-348.26,124.53,72.07,213.13,199.33,232.26,348.26-68.6,38.87-147.87,61-232.33,61Z"/>
        <path class="st1" d="M940.96,883.86c-68.6,38.87-147.87,61-232.33,61s-163.73-22.13-232.26-61c19.2-149,107.8-276.26,232.33-348.26,124.53,72.07,213.13,199.33,232.26,348.26Z"/>
        <path class="st0" d="M944.89,944.86c0,174.87-95,327.53-236.2,409.26-141.2-81.67-236.26-234.4-236.26-409.26,0-20.67,1.33-41,3.93-61,68.53,38.87,147.8,61,232.26,61s163.73-22.13,232.33-61c2.6,20,3.93,40.33,3.93,61Z"/>
        <path class="st2" d="M1417.29,944.86c0,260.93-211.47,472.46-472.4,472.46-86.07,0-166.73-23-236.2-63.2,141.2-81.73,236.2-234.4,236.2-409.26,0-20.67-1.33-41-3.93-61,126.6-71.6,216.87-199.93,236.2-350.46,143.4,81.07,240.13,234.93,240.13,411.46Z"/>
        <path class="st4" d="M1177.16,533.4c-19.33,150.53-109.6,278.86-236.2,350.46-19.13-148.93-107.73-276.2-232.26-348.26,69.47-40.2,150.13-63.2,236.2-63.2s163.67,22.13,232.27,61Z"/>
      </g>
    </g>
  </g>
</svg>