<?xml version="1.0" encoding="UTF-8"?>
<svg xmlns="http://www.w3.org/2000/svg" version="1.1" viewBox="0 0 1417.32 1417.32">
  <defs>
    <style>
      .st0 {
        fill: #00aeef;
      }

      .st1 {
        fill: #2e3192;
      }

      .st2 {
        fill: #fff200;
      }

      .st3 {
        fill: #00a651;
      }

      .st4 {
        fill: #ec008c;
      }

      .st5 {
        fill: #6abd45;
      }

      .st6 {
        fill: #ed1c24;
      }
    </style>
  </defs>
  <!-- Generator: Adobe Illustrator 29.1.0, SVG Export Plug-In . SVG Version: 2.0.0 Build 28)  -->
  <g>
    <g id="Layer_1">
      <g>
        <path class="st0" d="M1181.32,472.66c0,20.67-1.33,41.33-4,61.33-68.67-38.67-148-61.33-232-61.33s-166.67,22.67-236,63.33c-69.33-40-150-63.33-236-63.33s-163.33,22-232,61.33c-2.67-20-4-40.67-4-61.33C237.33,212,448.66,0,709.99,0c260,0,471.33,211.33,471.33,472.66Z"/>
        <path class="st3" d="M708.66,536c-124.67,72-212.67,199.33-232,348-126.67-71.33-216.67-200-236-350.66,68.67-38.67,148-61.33,232-61.33,86,.67,166.67,23.33,236,64Z"/>
        <path class="st2" d="M708.66,1353.99c-69.33,40-150,63.33-236,63.33C212,1417.32,0,1205.99,0,944.66c0-176.67,96.67-330.66,240-411.33,19.33,150.67,109.33,278.66,236,350.66-2.67,20-4,40.67-4,60.67.67,175.33,95.33,328,236.66,409.33Z"/>
        <path class="st5" d="M708.66,944.66c-84.67,0-164-22-232-60.67,19.33-148.67,108-276,232-348,124.67,72,213.33,199.33,232,348-68,38.67-147.33,60.67-232,60.67Z"/>
        <path d="M941.33,883.99c-68.67,38.67-148,60.67-232,60.67s-164-22-232-60.67c19.33-148.67,108-276,232-348,124,72,212.67,199.33,232,348Z"/>
        <path class="st6" d="M944.66,944.66c0,174.67-94.67,327.33-236,409.33-141.33-81.33-236-234.66-236-409.33,0-20.67,1.33-40.67,4-60.67,68.67,38.67,148,60.67,232,60.67s164-22,232.66-60.67c2,20,3.33,40.67,3.33,60.67Z"/>
        <path class="st4" d="M1417.32,944.66c0,260.66-211.33,472.66-472.66,472.66-86,0-166.67-22.67-236-63.33,141.33-82,236-234.66,236-409.33,0-20.67-1.33-40.67-4-60.67,126.67-71.33,216.67-200,236-350.66,144,81.33,240.66,235.33,240.66,411.33Z"/>
        <path class="st1" d="M1177.32,533.33c-19.33,150.67-109.33,278.66-236,350.66-19.33-148.67-108-276-232-348,69.33-40,150-63.33,236-63.33s163.33,22,232,60.67Z"/>
      </g>
    </g>
  </g>
</svg>