<?xml version="1.0" encoding="UTF-8"?>
<svg xmlns="http://www.w3.org/2000/svg" version="1.1" viewBox="0 0 693.9 146.3">
  <defs>
    <style>
      .cls-1 {
        fill: #b4ccb9;
      }

      .cls-2 {
        fill: none;
        stroke: #000;
      }

      .cls-2, .cls-3 {
        stroke-width: 3px;
      }

      .cls-3 {
        stroke: #394240;
      }

      .cls-3, .cls-4 {
        fill: #394240;
      }

      .cls-3, .cls-5 {
        stroke-miterlimit: 10;
      }

      .cls-6, .cls-5 {
        fill: #f9ebb2;
      }

      .cls-5 {
        stroke: #f9ebb2;
      }

      .cls-7 {
        fill: #45aab8;
      }

      .cls-8 {
        isolation: isolate;
        opacity: .2;
      }

      .cls-9 {
        fill: #f76d57;
      }
    </style>
  </defs>
  <!-- Generator: Adobe Illustrator 29.0.0, SVG Export Plug-In . SVG Version: 1.2.0 Build 15)  -->
  <g>
    <g id="Layer_1">
      <g id="Layer_1-2" data-name="Layer_1">
        <g id="_x30_0197322">
          <path id="_x34_915808c" class="cls-7" d="M103.4,39H16.6v63.1h86.8v-63.1h0Z"/>
          <g id="f6eca631">
            <path id="dbfac728" class="cls-5" d="M54.4,109.9v1.9h11.2v-1.9c0-1,.8-1.9,1.9-1.9h41.2V36.8c0-2.1-1.7-3.8-3.8-3.8H15c-2.1,0-3.8,1.7-3.8,3.8v71.2h41.2c1,0,1.9.8,1.9,1.9h.1ZM15,102.4v-63.8c0-1,.8-1.9,1.9-1.9h86.3c1,0,1.9.8,1.9,1.9v63.8c0,1-.8,1.9-1.9,1.9H16.9c-1,0-1.9-.8-1.9-1.9Z"/>
            <path id="_x36_7fdc9de" class="cls-6" d="M69.4,111.8v1.9c0,1-.8,1.9-1.9,1.9h-15c-1,0-1.9-.8-1.9-1.9v-1.9H3.8v3.8c0,2.1,1.7,3.8,3.8,3.8h105c2.1,0,3.8-1.7,3.8-3.8v-3.8h-47Z"/>
          </g>
          <path id="_x33_3848d1a" class="cls-4" d="M118.1,108h-5.6V36.8c0-4.1-3.4-7.5-7.5-7.5H15c-4.2,0-7.5,3.4-7.5,7.5v71.2H1.9c-1,0-1.9.8-1.9,1.9v5.6c0,4.1,3.4,7.5,7.5,7.5h105c4.1,0,7.5-3.4,7.5-7.5v-5.6c0-1-.8-1.9-1.9-1.9h0ZM11.3,36.8c0-2.1,1.7-3.8,3.8-3.8h90c2.1,0,3.8,1.7,3.8,3.8v71.2h-41.2c-1,0-1.9.8-1.9,1.9v1.9h-11.2v-1.9c0-1-.8-1.9-1.9-1.9H11.3V36.8h0ZM116.3,115.5c0,2.1-1.7,3.8-3.8,3.8H7.5c-2.1,0-3.8-1.7-3.8-3.8v-3.8h46.9v1.9c0,1,.8,1.9,1.9,1.9h15c1,0,1.9-.8,1.9-1.9v-1.9h46.9v3.8h0Z"/>
          <path id="_x38_8bf5654" class="cls-4" d="M105,102.4v-63.8c0-1-.8-1.9-1.9-1.9H16.9c-1,0-1.9.8-1.9,1.9v63.8c0,1,.8,1.9,1.9,1.9h86.3c1,0,1.9-.8,1.9-1.9h-.1ZM101.3,100.5H18.8v-60h82.5v60Z"/>
        </g>
        <path id="_x32_1eca9ed" class="cls-2" d="M152.2,76.2h115"/>
        <g id="_x30_7c3dad7-3">
          <path id="df7dcef5-3" class="cls-1" d="M688.9,22.2h-59.5l-4.4,5v99.7c0,2.1,1.7,3.8,3.7,3.8h59.7c2.1,0,3.7-1.7,3.7-3.8V26.9l-3.3-4.7h.1Z"/>
          <path id="_x32_20261b4-3" class="cls-8" d="M686.5,20.9h-56.2l-5.9,5.3v59h68.3V25.6l-6.3-4.6h0l.1-.1Z"/>
          <path id="_x39_048bc5d-3" class="cls-7" d="M644.5,120.8c2.2,0,4-1.8,4-4s-1.8-4-4-4-4,1.8-4,4,1.8,4,4,4Z"/>
          <path id="f139cbe4-3" class="cls-9" d="M658.6,120c1.8,0,3.2-1.4,3.2-3.2s-1.4-3.2-3.2-3.2-3.2,1.4-3.2,3.2,1.4,3.2,3.2,3.2Z"/>
          <path id="_x39_8285738-3" class="cls-6" d="M672.7,120.5c2.1,0,3.8-1.7,3.8-3.8s-1.7-3.8-3.8-3.8-3.8,1.7-3.8,3.8,1.7,3.8,3.8,3.8Z"/>
          <g id="aad97dfc-3">
            <path id="_x32_0971e9d-3" class="cls-4" d="M686.9,19.7h-56.5c-3.9,0-7.1,3.2-7.1,7.1v98.8c0,3.9,3.2,7.1,7.1,7.1h56.5c3.9,0,7.1-3.2,7.1-7.1V26.8c0-3.9-3.2-7.1-7.1-7.1h0ZM690.4,125.6c0,2-1.6,3.5-3.5,3.5h-56.5c-2,0-3.5-1.6-3.5-3.5v-38.8h63.5s0,38.8,0,38.8ZM690.4,83.2h-63.5v-17.6h63.5v17.6ZM690.4,62.1h-63.5v-17.6h63.5v17.6ZM690.4,40.9h-63.5v-14.1c0-1.9,1.6-3.5,3.5-3.5h56.5c2,0,3.5,1.6,3.5,3.5v14.1Z"/>
            <path id="b44164cc-3" class="cls-4" d="M678,30.3h-38.8c-1,0-1.8.8-1.8,1.8s.8,1.8,1.8,1.8h38.8c1,0,1.8-.8,1.8-1.8s-.8-1.8-1.8-1.8Z"/>
            <path id="_x35_518097a-3" class="cls-4" d="M639.2,55h38.8c1,0,1.8-.8,1.8-1.8s-.8-1.8-1.8-1.8h-38.8c-1,0-1.8.8-1.8,1.8s.8,1.8,1.8,1.8Z"/>
            <path id="f5a01f00-3" class="cls-4" d="M639.2,76.2h38.8c1,0,1.8-.8,1.8-1.8s-.8-1.8-1.8-1.8h-38.8c-1,0-1.8.8-1.8,1.8s.8,1.8,1.8,1.8Z"/>
            <path id="c32fc328-3" class="cls-4" d="M658.6,122.1c2.9,0,5.3-2.4,5.3-5.3s-2.4-5.3-5.3-5.3-5.3,2.4-5.3,5.3,2.4,5.3,5.3,5.3ZM658.6,115c1,0,1.8.8,1.8,1.8s-.8,1.8-1.8,1.8-1.8-.8-1.8-1.8.8-1.8,1.8-1.8Z"/>
            <path id="_x37_c87fa71-3" class="cls-4" d="M672.7,122.1c2.9,0,5.3-2.4,5.3-5.3s-2.4-5.3-5.3-5.3-5.3,2.4-5.3,5.3,2.4,5.3,5.3,5.3ZM672.7,115c1,0,1.8.8,1.8,1.8s-.8,1.8-1.8,1.8-1.8-.8-1.8-1.8.8-1.8,1.8-1.8Z"/>
            <path id="f51499d1-3" class="cls-4" d="M644.5,122.1c2.9,0,5.3-2.4,5.3-5.3s-2.4-5.3-5.3-5.3-5.3,2.4-5.3,5.3,2.4,5.3,5.3,5.3ZM644.5,115c1,0,1.8.8,1.8,1.8s-.8,1.8-1.8,1.8-1.8-.8-1.8-1.8.8-1.8,1.8-1.8Z"/>
          </g>
        </g>
        <path class="cls-3" d="M323.5,49.3c-1.3,0-2.4,1.1-2.4,2.4v28.7c0,3.2,4.8,3.2,4.8,0v-11.9h7.2c3.2,0,3.1-4.8,0-4.8h-7.2v-9.6h11.9c3.2,0,3.2-4.8,0-4.8h-14.3ZM385.6,49.3c-1.3,0-2.4,1.1-2.4,2.4v28.7c0,3.2,4.8,3.1,4.8,0v-11.9h2.4c4,0,7-1,9.1-2.8,2.1-1.8,2.9-4.4,2.9-6.7s-.8-4.9-2.9-6.7c-2-1.8-5.1-2.8-9.1-2.8h-4.8v-.2ZM388,54h2.4c3.2,0,4.9.8,5.9,1.6.9.8,1.3,1.9,1.3,3.2s-.4,2.3-1.3,3.2c-.9.8-2.7,1.6-5.9,1.6h-2.4v-9.6ZM352.1,49.3c-3.2,0-3.2,4.8,0,4.8h7.2v26.3c0,3.2,4.8,3.2,4.8,0v-26.3h7.2c3.2,0,3.2-4.8,0-4.8h-19.2ZM361.7,92.2c-.6,0-1.2.3-1.7.7l-19.1,19.1c-2.2,2.1,1.2,5.6,3.4,3.4l17.4-17.4,17.4,17.4c2.2,2.3,5.6-1.2,3.4-3.4l-19.1-19.1c-.5-.5-1-.7-1.7-.7h0ZM361.7,106.6c1.3,0,2.4,1.1,2.4,2.4v33.4c0,1.3-1.1,2.4-2.4,2.4s-2.4-1.1-2.4-2.4v-33.4c0-1.3,1.1-2.4,2.4-2.4ZM294.8,1.5c-3.9,0-7.2,3.2-7.2,7.2v109.9c0,3.9,3.2,7.2,7.2,7.2h33.4c3.2,0,3.2-4.8,0-4.8h-33.4c-1.4,0-2.4-1-2.4-2.4V8.7c0-1.4,1-2.4,2.4-2.4h33.4c2.4,0,3.1,0,3.7.3s1.8,1.3,4.2,3.7l14.3,14.3c2.5,2.5,4.1,3.9,6,4.7,1.8.8,3.5.8,5.3.8h62.1c1.4,0,2.4,1,2.4,2.4v86c0,1.4-1,2.4-2.4,2.4h-28.7c-3.1,0-3.2,4.8,0,4.8h28.7c3.9,0,7.2-3.2,7.2-7.2V32.5c0-3.9-3.2-7.2-7.2-7.2h-62.1c-1.8,0-2.5,0-3.3-.4-.9-.4-2.2-1.4-4.5-3.7l-14.3-14.3c-2.4-2.4-3.6-3.7-5.4-4.6-1.8-.9-3.5-.9-5.8-.9h-33.4l-.2.1Z"/>
        <line class="cls-2" x1="451.5" y1="76.2" x2="566.5" y2="76.2"/>
      </g>
    </g>
  </g>
</svg>