<?xml version="1.0" encoding="UTF-8"?>
<svg xmlns="http://www.w3.org/2000/svg" version="1.1" viewBox="0 0 60.68 32.35">
  <defs>
    <style>
      .cls-1 {
        fill: #005a9c;
      }
    </style>
  </defs>
  <!-- Generator: Adobe Illustrator 29.0.0, SVG Export Plug-In . SVG Version: 1.2.0 Build 15)  -->
  <g>
    <g id="Layer_1" focusable="false">
      <g>
        <path class="cls-1" d="M16.09.18l5.76,19.58L27.6.18h15.61v1.95l-5.88,10.13c2.06.66,3.63,1.87,4.69,3.61,1.06,1.75,1.59,3.8,1.59,6.16,0,2.91-.78,5.36-2.32,7.35s-3.56,2.98-6.02,2.98c-1.85,0-3.47-.59-4.85-1.77-1.38-1.18-2.4-2.77-3.06-4.79l3.26-1.35c.48,1.22,1.11,2.18,1.89,2.88.75.69,1.74,1.07,2.76,1.05,1.11,0,2.05-.62,2.82-1.87.77-1.24,1.15-2.74,1.15-4.49,0-1.93-.41-3.43-1.23-4.49-.95-1.24-2.45-1.87-4.49-1.87h-1.59v-1.91l5.56-9.61h-6.71l-.38.65-8.16,27.55h-.4l-5.96-19.94-5.96,19.94h-.4L0,.18h4.17l5.76,19.58,3.89-13.19L11.92.18s4.17,0,4.17,0Z"/>
        <path d="M59.77,0l.68,4.11-2.39,4.58s-.92-1.94-2.44-3.02c-1.28-.9-2.12-1.1-3.43-.83-1.68.35-3.59,2.36-4.42,4.83-.99,2.97-1.01,4.4-1.04,5.72-.06,2.11.28,3.36.28,3.36,0,0-1.45-2.69-1.44-6.62,0-2.81.45-5.35,1.75-7.87,1.14-2.21,2.84-3.53,4.35-3.69,1.56-.16,2.79.59,3.74,1.4,1,.85,2.01,2.72,2.01,2.72C57.42,4.7,59.77,0,59.77,0ZM60.07,23.24s-1.06,1.89-1.72,2.62c-.66.73-1.84,2.01-3.29,2.65s-2.22.76-3.66.62c-1.44-.14-2.77-.97-3.24-1.32-.47-.35-1.66-1.37-2.34-2.32s-1.73-2.86-1.73-2.86c0,0,.59,1.91.96,2.72.21.47.86,1.89,1.79,3.14.86,1.16,2.54,3.15,5.09,3.6,2.55.45,4.3-.69,4.73-.97s1.35-1.04,1.92-1.66c.6-.65,1.17-1.47,1.49-1.96.23-.36.61-1.09.61-1.09,0,0-.61-3.17-.61-3.17Z"/>
      </g>
    </g>
  </g>
</svg>