<?xml version="1.0" encoding="UTF-8"?>
<svg id="Layer_1" xmlns="http://www.w3.org/2000/svg" version="1.1" viewBox="0 0 174.63 48.51">
  <!-- Generator: Adobe Illustrator 29.7.1, SVG Export Plug-In . SVG Version: 2.1.1 Build 8)  -->
  <defs>
    <style>
      .st0 {
        fill: #20285d;
      }
    </style>
  </defs>
  <path class="st0" d="M154.9,16.85c-.175-.002-.344.058-.478.17s-.223.268-.252.44l-2.74,14.54c-.019.109-.014.22.015.326.028.106.079.205.149.29.071.085.159.153.258.2.099.047.208.073.318.074h5.45c.111,0,.22-.023.32-.07.1-.047.189-.115.26-.2.071-.085.122-.185.149-.292.028-.107.032-.219.011-.328l-2.72-14.53c-.031-.174-.122-.331-.257-.445-.135-.114-.306-.175-.483-.175ZM156.71,31.38h-3.64l1.83-9.71,1.81,9.71Z"/>
  <path class="st0" d="M173.84,45.91h-13l-.76-4.21c-.032-.173-.124-.33-.259-.443-.135-.113-.305-.176-.481-.177h-8.77c-.178,0-.35.063-.486.179-.135.115-.226.275-.254.451l-.71,4.2h-21.97l-6.07-14.26c-.066-.161-.186-.293-.339-.376-.154-.082-.331-.108-.501-.074-.169.038-.319.132-.428.266-.109.134-.17.301-.172.474l.06,14h-12.65c-.199,0-.39.079-.53.22-.141.141-.22.331-.22.53s.079.39.22.53c.14.141.331.22.53.22h13.4c.199,0,.389-.079.53-.22.14-.145.218-.339.22-.54v-11l4.8,11.32c.057.136.153.252.276.334.122.082.267.126.414.126h23.08c.176-.002.346-.067.48-.182.133-.115.222-.274.25-.448l.71-4.2h7.51l.77,4.21c.028.173.117.331.251.444.134.114.304.176.479.176h13.66c.199,0,.39-.079.53-.22.141-.141.22-.331.22-.53s-.079-.39-.22-.53c-.14-.141-.331-.22-.53-.22l-.04-.05Z"/>
  <path class="st0" d="M84.71,27.65l3.29,1.76c4.09,2.17,6,3.32,6,5.66.034.365-.016.733-.144,1.077-.129.343-.334.653-.599.906-.266.253-.585.443-.934.555-.349.112-.719.144-1.083.092-.828.03-1.638-.243-2.279-.767-.641-.525-1.068-1.265-1.201-2.083-.026-.095-.07-.185-.13-.263-.06-.078-.135-.144-.221-.193-.085-.049-.18-.081-.278-.094-.098-.013-.197-.006-.292.02-.191.054-.353.18-.452.352-.099.172-.127.376-.078.568.21,1.145.822,2.178,1.726,2.911.904.734,2.041,1.12,3.204,1.089.562.055,1.129-.013,1.662-.199.533-.186,1.019-.486,1.424-.879.405-.393.72-.869.923-1.396.203-.527.288-1.092.251-1.655,0-3.35-2.72-4.8-6.85-7l-3.25-1.75c-5.89-3.16-8.88-5.86-8.88-11.86,0-8.24,5.44-13,14.91-13,5.2,0,14,1.55,14.85,11.92.015.194.105.374.251.502.145.129.335.196.529.188.195-.005.379-.087.514-.227.135-.14.209-.328.206-.523V2.63h11.9l-.06,13.59c.003.172.065.337.176.469.11.132.262.221.431.254.168.033.343.007.495-.074.151-.08.271-.211.338-.369l5.7-13.87h12.14l-8.45,20.06c-.039.093-.06.194-.06.295s.021.202.06.295l7.24,16.49c.06.133.156.247.279.327.122.08.265.123.411.123h.07c.155-.016.302-.079.42-.181.118-.102.202-.238.24-.389l8.75-37h15.31c.199,0,.39-.079.53-.22.141-.141.22-.331.22-.53s-.079-.39-.22-.53c-.14-.141-.331-.22-.53-.22h-15.89c-.167.001-.33.058-.462.161-.132.103-.226.247-.268.409l-8.37,35.41-6.18-14.13,8.77-20.81c.046-.115.063-.24.051-.363-.012-.123-.054-.242-.121-.347-.07-.102-.164-.186-.274-.243s-.232-.087-.356-.087h-13.79c-.149-.002-.296.041-.42.123-.125.082-.222.199-.28.337l-4.42,10.79V1.9c0-.199-.079-.39-.22-.53-.14-.141-.331-.22-.53-.22h-13.4c-.099-.001-.197.017-.289.054-.091.037-.174.092-.244.162-.07.07-.125.153-.163.245-.037.092-.055.19-.054.289v5.69c-2.38-4.89-7.55-7.59-14.81-7.59-10.27,0-16.45,5.41-16.45,14.47,0,6.72,3.44,9.82,9.71,13.18Z"/>
  <path class="st0" d="M98.07,19.25l-4.36-2.25c-3.25-1.68-4.58-2.43-4.58-3.94,0-1.33,1-2.19,2.57-2.19s2.63.91,3,2.69c.021.096.061.188.117.269.056.081.128.15.211.204.083.053.176.09.273.107.097.018.197.016.293-.005.096-.021.188-.061.269-.117.081-.056.15-.128.204-.211.053-.083.09-.176.107-.273.018-.097.016-.197-.005-.293-.53-2.5-2.17-3.91-4.47-3.91s-4.07,1.52-4.07,3.67c0,2.49,2,3.54,5.4,5.27l4.33,2.29c8.92,4.72,10.13,9.56,10.13,13.68,0,8.12-5.6,12.77-15.35,12.77-5.61-.01-15.14-1.54-16.2-12.01-.02-.191-.112-.367-.256-.493-.145-.126-.332-.193-.524-.187-.192.01-.373.094-.505.233-.132.139-.206.325-.205.517v10.84h-10.59l.06-20.11c-.002-.18-.069-.353-.188-.487s-.283-.222-.461-.246c-.178-.024-.359.016-.51.114s-.261.247-.312.419l-5.55,20.31h-6.62l-5.55-20.31c-.049-.174-.159-.324-.309-.423-.151-.099-.332-.141-.511-.117-.18.022-.346.11-.466.246-.12.136-.185.312-.184.494l.06,20.11h-22.47l-6.07-14.26c-.069-.158-.19-.289-.342-.371-.152-.082-.328-.11-.498-.079-.17.035-.323.127-.433.262-.109.135-.169.304-.167.478v10.15l.05,3.82H.75c-.199,0-.39.079-.53.22-.141.141-.22.331-.22.53s.079.39.22.53c.141.141.331.22.53.22h13.4c.101,0,.2-.021.293-.061.093-.04.177-.097.247-.169.07-.069.125-.151.161-.243.036-.091.053-.189.049-.287l-.06-4.57v-6.46l4.82,11.38c.057.136.153.252.276.334.123.082.267.126.414.126h23.72c.199,0,.389-.079.53-.22.141-.144.22-.338.22-.54v-15.2l4.18,15.35c.044.16.139.302.271.403.132.101.293.156.459.157h7.76c.166,0,.327-.056.459-.157.132-.101.227-.243.271-.403l4.2-15.4v15.2c0,.202.079.396.22.54.14.141.331.22.53.22h12.03c.198-.003.387-.083.528-.223.14-.14.22-.329.222-.527v-6.15c2.58,5.16,8.23,8,16.19,8,10.71,0,16.85-5.2,16.85-14.27.01-6.36-3.37-10.99-10.92-14.99Z"/>
  <path class="st0" d="M31.38,8.85l-7.18,13.79c-.052.099-.079.208-.079.32s.027.221.079.32l7.18,16.36c.057.133.152.247.272.327.121.08.263.123.408.123h.16c.167-.036.316-.129.423-.261.107-.133.166-.298.167-.469V9.2c-.001-.166-.058-.328-.161-.458-.103-.131-.247-.223-.408-.263-.161-.04-.332-.025-.484.042-.152.067-.278.183-.357.33h-.02ZM31.29,35.76l-5.6-12.76,5.6-10.75v23.51Z"/>
  <path class="st0" d="M.75,2.63h12.65l-.06,13.59c.003.172.065.337.175.469s.263.221.431.254c.169.033.343.007.495-.074.152-.081.271-.211.338-.369l5.7-13.87h27.52l5,19.1c.04.16.133.303.264.404s.291.156.457.156c.167,0,.328-.056.459-.16.131-.103.223-.248.261-.41l4.75-19.09h16c.199,0,.39-.079.53-.22.141-.141.22-.331.22-.53s-.079-.39-.22-.53c-.141-.141-.331-.22-.53-.22h-16.59c-.168-.002-.332.053-.465.157-.133.104-.226.249-.265.413l-4.15,16.8L49.3,1.69c-.04-.16-.133-.303-.264-.404-.131-.101-.291-.156-.456-.156h-28.58c-.149-.002-.295.041-.42.123-.125.082-.222.199-.28.337l-4.44,10.79V1.88c0-.199-.079-.39-.22-.53-.141-.141-.331-.22-.53-.22H.75c-.199,0-.39.079-.53.22-.141.141-.22.331-.22.53s.079.39.22.53c.141.141.331.22.53.22Z"/>
</svg>